<?xml version="1.0" encoding="utf-8" standalone="no"?>
<!DOCTYPE svg PUBLIC "-//W3C//DTD SVG 1.1//EN"
  "http://www.w3.org/Graphics/SVG/1.1/DTD/svg11.dtd">
<!-- Created with matplotlib (https://matplotlib.org/) -->
<svg height="315.776062pt" version="1.1" viewBox="0 0 405.512187 315.776062" width="405.512187pt" xmlns="http://www.w3.org/2000/svg" xmlns:xlink="http://www.w3.org/1999/xlink">
 <defs>
  <style type="text/css">
*{stroke-linecap:butt;stroke-linejoin:round;}
  </style>
 </defs>
 <g id="figure_1">
  <g id="patch_1">
   <path d="M 0 315.776062 
L 405.512187 315.776062 
L 405.512187 0 
L 0 0 
z
" style="fill:#ffffff;"/>
  </g>
  <g id="axes_1">
   <g id="patch_2">
    <path d="M 41.192188 288.430125 
L 398.312188 288.430125 
L 398.312188 22.318125 
L 41.192188 22.318125 
z
" style="fill:#eaeaf2;"/>
   </g>
   <g id="matplotlib.axis_1">
    <g id="xtick_1">
     <g id="line2d_1">
      <path clip-path="url(#p61e1c1e217)" d="M 57.424915 288.430125 
L 57.424915 22.318125 
" style="fill:none;stroke:#ffffff;stroke-linecap:round;"/>
     </g>
     <g id="text_1">
      <!-- 0 -->
      <defs>
       <path d="M 31.78125 66.40625 
Q 24.171875 66.40625 20.328125 58.90625 
Q 16.5 51.421875 16.5 36.375 
Q 16.5 21.390625 20.328125 13.890625 
Q 24.171875 6.390625 31.78125 6.390625 
Q 39.453125 6.390625 43.28125 13.890625 
Q 47.125 21.390625 47.125 36.375 
Q 47.125 51.421875 43.28125 58.90625 
Q 39.453125 66.40625 31.78125 66.40625 
z
M 31.78125 74.21875 
Q 44.046875 74.21875 50.515625 64.515625 
Q 56.984375 54.828125 56.984375 36.375 
Q 56.984375 17.96875 50.515625 8.265625 
Q 44.046875 -1.421875 31.78125 -1.421875 
Q 19.53125 -1.421875 13.0625 8.265625 
Q 6.59375 17.96875 6.59375 36.375 
Q 6.59375 54.828125 13.0625 64.515625 
Q 19.53125 74.21875 31.78125 74.21875 
z
" id="DejaVuSans-48"/>
      </defs>
      <g style="fill:#262626;" transform="translate(53.92554 306.288406)scale(0.11 -0.11)">
       <use xlink:href="#DejaVuSans-48"/>
      </g>
     </g>
    </g>
    <g id="xtick_2">
     <g id="line2d_2">
      <path clip-path="url(#p61e1c1e217)" d="M 123.011692 288.430125 
L 123.011692 22.318125 
" style="fill:none;stroke:#ffffff;stroke-linecap:round;"/>
     </g>
     <g id="text_2">
      <!-- 20 -->
      <defs>
       <path d="M 19.1875 8.296875 
L 53.609375 8.296875 
L 53.609375 0 
L 7.328125 0 
L 7.328125 8.296875 
Q 12.9375 14.109375 22.625 23.890625 
Q 32.328125 33.6875 34.8125 36.53125 
Q 39.546875 41.84375 41.421875 45.53125 
Q 43.3125 49.21875 43.3125 52.78125 
Q 43.3125 58.59375 39.234375 62.25 
Q 35.15625 65.921875 28.609375 65.921875 
Q 23.96875 65.921875 18.8125 64.3125 
Q 13.671875 62.703125 7.8125 59.421875 
L 7.8125 69.390625 
Q 13.765625 71.78125 18.9375 73 
Q 24.125 74.21875 28.421875 74.21875 
Q 39.75 74.21875 46.484375 68.546875 
Q 53.21875 62.890625 53.21875 53.421875 
Q 53.21875 48.921875 51.53125 44.890625 
Q 49.859375 40.875 45.40625 35.40625 
Q 44.1875 33.984375 37.640625 27.21875 
Q 31.109375 20.453125 19.1875 8.296875 
z
" id="DejaVuSans-50"/>
      </defs>
      <g style="fill:#262626;" transform="translate(116.012942 306.288406)scale(0.11 -0.11)">
       <use xlink:href="#DejaVuSans-50"/>
       <use x="63.623047" xlink:href="#DejaVuSans-48"/>
      </g>
     </g>
    </g>
    <g id="xtick_3">
     <g id="line2d_3">
      <path clip-path="url(#p61e1c1e217)" d="M 188.598468 288.430125 
L 188.598468 22.318125 
" style="fill:none;stroke:#ffffff;stroke-linecap:round;"/>
     </g>
     <g id="text_3">
      <!-- 40 -->
      <defs>
       <path d="M 37.796875 64.3125 
L 12.890625 25.390625 
L 37.796875 25.390625 
z
M 35.203125 72.90625 
L 47.609375 72.90625 
L 47.609375 25.390625 
L 58.015625 25.390625 
L 58.015625 17.1875 
L 47.609375 17.1875 
L 47.609375 0 
L 37.796875 0 
L 37.796875 17.1875 
L 4.890625 17.1875 
L 4.890625 26.703125 
z
" id="DejaVuSans-52"/>
      </defs>
      <g style="fill:#262626;" transform="translate(181.599718 306.288406)scale(0.11 -0.11)">
       <use xlink:href="#DejaVuSans-52"/>
       <use x="63.623047" xlink:href="#DejaVuSans-48"/>
      </g>
     </g>
    </g>
    <g id="xtick_4">
     <g id="line2d_4">
      <path clip-path="url(#p61e1c1e217)" d="M 254.185245 288.430125 
L 254.185245 22.318125 
" style="fill:none;stroke:#ffffff;stroke-linecap:round;"/>
     </g>
     <g id="text_4">
      <!-- 60 -->
      <defs>
       <path d="M 33.015625 40.375 
Q 26.375 40.375 22.484375 35.828125 
Q 18.609375 31.296875 18.609375 23.390625 
Q 18.609375 15.53125 22.484375 10.953125 
Q 26.375 6.390625 33.015625 6.390625 
Q 39.65625 6.390625 43.53125 10.953125 
Q 47.40625 15.53125 47.40625 23.390625 
Q 47.40625 31.296875 43.53125 35.828125 
Q 39.65625 40.375 33.015625 40.375 
z
M 52.59375 71.296875 
L 52.59375 62.3125 
Q 48.875 64.0625 45.09375 64.984375 
Q 41.3125 65.921875 37.59375 65.921875 
Q 27.828125 65.921875 22.671875 59.328125 
Q 17.53125 52.734375 16.796875 39.40625 
Q 19.671875 43.65625 24.015625 45.921875 
Q 28.375 48.1875 33.59375 48.1875 
Q 44.578125 48.1875 50.953125 41.515625 
Q 57.328125 34.859375 57.328125 23.390625 
Q 57.328125 12.15625 50.6875 5.359375 
Q 44.046875 -1.421875 33.015625 -1.421875 
Q 20.359375 -1.421875 13.671875 8.265625 
Q 6.984375 17.96875 6.984375 36.375 
Q 6.984375 53.65625 15.1875 63.9375 
Q 23.390625 74.21875 37.203125 74.21875 
Q 40.921875 74.21875 44.703125 73.484375 
Q 48.484375 72.75 52.59375 71.296875 
z
" id="DejaVuSans-54"/>
      </defs>
      <g style="fill:#262626;" transform="translate(247.186495 306.288406)scale(0.11 -0.11)">
       <use xlink:href="#DejaVuSans-54"/>
       <use x="63.623047" xlink:href="#DejaVuSans-48"/>
      </g>
     </g>
    </g>
    <g id="xtick_5">
     <g id="line2d_5">
      <path clip-path="url(#p61e1c1e217)" d="M 319.772022 288.430125 
L 319.772022 22.318125 
" style="fill:none;stroke:#ffffff;stroke-linecap:round;"/>
     </g>
     <g id="text_5">
      <!-- 80 -->
      <defs>
       <path d="M 31.78125 34.625 
Q 24.75 34.625 20.71875 30.859375 
Q 16.703125 27.09375 16.703125 20.515625 
Q 16.703125 13.921875 20.71875 10.15625 
Q 24.75 6.390625 31.78125 6.390625 
Q 38.8125 6.390625 42.859375 10.171875 
Q 46.921875 13.96875 46.921875 20.515625 
Q 46.921875 27.09375 42.890625 30.859375 
Q 38.875 34.625 31.78125 34.625 
z
M 21.921875 38.8125 
Q 15.578125 40.375 12.03125 44.71875 
Q 8.5 49.078125 8.5 55.328125 
Q 8.5 64.0625 14.71875 69.140625 
Q 20.953125 74.21875 31.78125 74.21875 
Q 42.671875 74.21875 48.875 69.140625 
Q 55.078125 64.0625 55.078125 55.328125 
Q 55.078125 49.078125 51.53125 44.71875 
Q 48 40.375 41.703125 38.8125 
Q 48.828125 37.15625 52.796875 32.3125 
Q 56.78125 27.484375 56.78125 20.515625 
Q 56.78125 9.90625 50.3125 4.234375 
Q 43.84375 -1.421875 31.78125 -1.421875 
Q 19.734375 -1.421875 13.25 4.234375 
Q 6.78125 9.90625 6.78125 20.515625 
Q 6.78125 27.484375 10.78125 32.3125 
Q 14.796875 37.15625 21.921875 38.8125 
z
M 18.3125 54.390625 
Q 18.3125 48.734375 21.84375 45.5625 
Q 25.390625 42.390625 31.78125 42.390625 
Q 38.140625 42.390625 41.71875 45.5625 
Q 45.3125 48.734375 45.3125 54.390625 
Q 45.3125 60.0625 41.71875 63.234375 
Q 38.140625 66.40625 31.78125 66.40625 
Q 25.390625 66.40625 21.84375 63.234375 
Q 18.3125 60.0625 18.3125 54.390625 
z
" id="DejaVuSans-56"/>
      </defs>
      <g style="fill:#262626;" transform="translate(312.773272 306.288406)scale(0.11 -0.11)">
       <use xlink:href="#DejaVuSans-56"/>
       <use x="63.623047" xlink:href="#DejaVuSans-48"/>
      </g>
     </g>
    </g>
    <g id="xtick_6">
     <g id="line2d_6">
      <path clip-path="url(#p61e1c1e217)" d="M 385.358799 288.430125 
L 385.358799 22.318125 
" style="fill:none;stroke:#ffffff;stroke-linecap:round;"/>
     </g>
     <g id="text_6">
      <!-- 100 -->
      <defs>
       <path d="M 12.40625 8.296875 
L 28.515625 8.296875 
L 28.515625 63.921875 
L 10.984375 60.40625 
L 10.984375 69.390625 
L 28.421875 72.90625 
L 38.28125 72.90625 
L 38.28125 8.296875 
L 54.390625 8.296875 
L 54.390625 0 
L 12.40625 0 
z
" id="DejaVuSans-49"/>
      </defs>
      <g style="fill:#262626;" transform="translate(374.860674 306.288406)scale(0.11 -0.11)">
       <use xlink:href="#DejaVuSans-49"/>
       <use x="63.623047" xlink:href="#DejaVuSans-48"/>
       <use x="127.246094" xlink:href="#DejaVuSans-48"/>
      </g>
     </g>
    </g>
   </g>
   <g id="matplotlib.axis_2">
    <g id="ytick_1">
     <g id="line2d_7">
      <path clip-path="url(#p61e1c1e217)" d="M 41.192188 284.365674 
L 398.312188 284.365674 
" style="fill:none;stroke:#ffffff;stroke-linecap:round;"/>
     </g>
     <g id="text_7">
      <!-- 0.92 -->
      <defs>
       <path d="M 10.6875 12.40625 
L 21 12.40625 
L 21 0 
L 10.6875 0 
z
" id="DejaVuSans-46"/>
       <path d="M 10.984375 1.515625 
L 10.984375 10.5 
Q 14.703125 8.734375 18.5 7.8125 
Q 22.3125 6.890625 25.984375 6.890625 
Q 35.75 6.890625 40.890625 13.453125 
Q 46.046875 20.015625 46.78125 33.40625 
Q 43.953125 29.203125 39.59375 26.953125 
Q 35.25 24.703125 29.984375 24.703125 
Q 19.046875 24.703125 12.671875 31.3125 
Q 6.296875 37.9375 6.296875 49.421875 
Q 6.296875 60.640625 12.9375 67.421875 
Q 19.578125 74.21875 30.609375 74.21875 
Q 43.265625 74.21875 49.921875 64.515625 
Q 56.59375 54.828125 56.59375 36.375 
Q 56.59375 19.140625 48.40625 8.859375 
Q 40.234375 -1.421875 26.421875 -1.421875 
Q 22.703125 -1.421875 18.890625 -0.6875 
Q 15.09375 0.046875 10.984375 1.515625 
z
M 30.609375 32.421875 
Q 37.25 32.421875 41.125 36.953125 
Q 45.015625 41.5 45.015625 49.421875 
Q 45.015625 57.28125 41.125 61.84375 
Q 37.25 66.40625 30.609375 66.40625 
Q 23.96875 66.40625 20.09375 61.84375 
Q 16.21875 57.28125 16.21875 49.421875 
Q 16.21875 41.5 20.09375 36.953125 
Q 23.96875 32.421875 30.609375 32.421875 
z
" id="DejaVuSans-57"/>
      </defs>
      <g style="fill:#262626;" transform="translate(7.2 288.544815)scale(0.11 -0.11)">
       <use xlink:href="#DejaVuSans-48"/>
       <use x="63.623047" xlink:href="#DejaVuSans-46"/>
       <use x="95.410156" xlink:href="#DejaVuSans-57"/>
       <use x="159.033203" xlink:href="#DejaVuSans-50"/>
      </g>
     </g>
    </g>
    <g id="ytick_2">
     <g id="line2d_8">
      <path clip-path="url(#p61e1c1e217)" d="M 41.192188 243.802294 
L 398.312188 243.802294 
" style="fill:none;stroke:#ffffff;stroke-linecap:round;"/>
     </g>
     <g id="text_8">
      <!-- 0.93 -->
      <defs>
       <path d="M 40.578125 39.3125 
Q 47.65625 37.796875 51.625 33 
Q 55.609375 28.21875 55.609375 21.1875 
Q 55.609375 10.40625 48.1875 4.484375 
Q 40.765625 -1.421875 27.09375 -1.421875 
Q 22.515625 -1.421875 17.65625 -0.515625 
Q 12.796875 0.390625 7.625 2.203125 
L 7.625 11.71875 
Q 11.71875 9.328125 16.59375 8.109375 
Q 21.484375 6.890625 26.8125 6.890625 
Q 36.078125 6.890625 40.9375 10.546875 
Q 45.796875 14.203125 45.796875 21.1875 
Q 45.796875 27.640625 41.28125 31.265625 
Q 36.765625 34.90625 28.71875 34.90625 
L 20.21875 34.90625 
L 20.21875 43.015625 
L 29.109375 43.015625 
Q 36.375 43.015625 40.234375 45.921875 
Q 44.09375 48.828125 44.09375 54.296875 
Q 44.09375 59.90625 40.109375 62.90625 
Q 36.140625 65.921875 28.71875 65.921875 
Q 24.65625 65.921875 20.015625 65.03125 
Q 15.375 64.15625 9.8125 62.3125 
L 9.8125 71.09375 
Q 15.4375 72.65625 20.34375 73.4375 
Q 25.25 74.21875 29.59375 74.21875 
Q 40.828125 74.21875 47.359375 69.109375 
Q 53.90625 64.015625 53.90625 55.328125 
Q 53.90625 49.265625 50.4375 45.09375 
Q 46.96875 40.921875 40.578125 39.3125 
z
" id="DejaVuSans-51"/>
      </defs>
      <g style="fill:#262626;" transform="translate(7.2 247.981435)scale(0.11 -0.11)">
       <use xlink:href="#DejaVuSans-48"/>
       <use x="63.623047" xlink:href="#DejaVuSans-46"/>
       <use x="95.410156" xlink:href="#DejaVuSans-57"/>
       <use x="159.033203" xlink:href="#DejaVuSans-51"/>
      </g>
     </g>
    </g>
    <g id="ytick_3">
     <g id="line2d_9">
      <path clip-path="url(#p61e1c1e217)" d="M 41.192188 203.238914 
L 398.312188 203.238914 
" style="fill:none;stroke:#ffffff;stroke-linecap:round;"/>
     </g>
     <g id="text_9">
      <!-- 0.94 -->
      <g style="fill:#262626;" transform="translate(7.2 207.418054)scale(0.11 -0.11)">
       <use xlink:href="#DejaVuSans-48"/>
       <use x="63.623047" xlink:href="#DejaVuSans-46"/>
       <use x="95.410156" xlink:href="#DejaVuSans-57"/>
       <use x="159.033203" xlink:href="#DejaVuSans-52"/>
      </g>
     </g>
    </g>
    <g id="ytick_4">
     <g id="line2d_10">
      <path clip-path="url(#p61e1c1e217)" d="M 41.192188 162.675533 
L 398.312188 162.675533 
" style="fill:none;stroke:#ffffff;stroke-linecap:round;"/>
     </g>
     <g id="text_10">
      <!-- 0.95 -->
      <defs>
       <path d="M 10.796875 72.90625 
L 49.515625 72.90625 
L 49.515625 64.59375 
L 19.828125 64.59375 
L 19.828125 46.734375 
Q 21.96875 47.46875 24.109375 47.828125 
Q 26.265625 48.1875 28.421875 48.1875 
Q 40.625 48.1875 47.75 41.5 
Q 54.890625 34.8125 54.890625 23.390625 
Q 54.890625 11.625 47.5625 5.09375 
Q 40.234375 -1.421875 26.90625 -1.421875 
Q 22.3125 -1.421875 17.546875 -0.640625 
Q 12.796875 0.140625 7.71875 1.703125 
L 7.71875 11.625 
Q 12.109375 9.234375 16.796875 8.0625 
Q 21.484375 6.890625 26.703125 6.890625 
Q 35.15625 6.890625 40.078125 11.328125 
Q 45.015625 15.765625 45.015625 23.390625 
Q 45.015625 31 40.078125 35.4375 
Q 35.15625 39.890625 26.703125 39.890625 
Q 22.75 39.890625 18.8125 39.015625 
Q 14.890625 38.140625 10.796875 36.28125 
z
" id="DejaVuSans-53"/>
      </defs>
      <g style="fill:#262626;" transform="translate(7.2 166.854674)scale(0.11 -0.11)">
       <use xlink:href="#DejaVuSans-48"/>
       <use x="63.623047" xlink:href="#DejaVuSans-46"/>
       <use x="95.410156" xlink:href="#DejaVuSans-57"/>
       <use x="159.033203" xlink:href="#DejaVuSans-53"/>
      </g>
     </g>
    </g>
    <g id="ytick_5">
     <g id="line2d_11">
      <path clip-path="url(#p61e1c1e217)" d="M 41.192188 122.112153 
L 398.312188 122.112153 
" style="fill:none;stroke:#ffffff;stroke-linecap:round;"/>
     </g>
     <g id="text_11">
      <!-- 0.96 -->
      <g style="fill:#262626;" transform="translate(7.2 126.291294)scale(0.11 -0.11)">
       <use xlink:href="#DejaVuSans-48"/>
       <use x="63.623047" xlink:href="#DejaVuSans-46"/>
       <use x="95.410156" xlink:href="#DejaVuSans-57"/>
       <use x="159.033203" xlink:href="#DejaVuSans-54"/>
      </g>
     </g>
    </g>
    <g id="ytick_6">
     <g id="line2d_12">
      <path clip-path="url(#p61e1c1e217)" d="M 41.192188 81.548773 
L 398.312188 81.548773 
" style="fill:none;stroke:#ffffff;stroke-linecap:round;"/>
     </g>
     <g id="text_12">
      <!-- 0.97 -->
      <defs>
       <path d="M 8.203125 72.90625 
L 55.078125 72.90625 
L 55.078125 68.703125 
L 28.609375 0 
L 18.3125 0 
L 43.21875 64.59375 
L 8.203125 64.59375 
z
" id="DejaVuSans-55"/>
      </defs>
      <g style="fill:#262626;" transform="translate(7.2 85.727914)scale(0.11 -0.11)">
       <use xlink:href="#DejaVuSans-48"/>
       <use x="63.623047" xlink:href="#DejaVuSans-46"/>
       <use x="95.410156" xlink:href="#DejaVuSans-57"/>
       <use x="159.033203" xlink:href="#DejaVuSans-55"/>
      </g>
     </g>
    </g>
    <g id="ytick_7">
     <g id="line2d_13">
      <path clip-path="url(#p61e1c1e217)" d="M 41.192188 40.985393 
L 398.312188 40.985393 
" style="fill:none;stroke:#ffffff;stroke-linecap:round;"/>
     </g>
     <g id="text_13">
      <!-- 0.98 -->
      <g style="fill:#262626;" transform="translate(7.2 45.164533)scale(0.11 -0.11)">
       <use xlink:href="#DejaVuSans-48"/>
       <use x="63.623047" xlink:href="#DejaVuSans-46"/>
       <use x="95.410156" xlink:href="#DejaVuSans-57"/>
       <use x="159.033203" xlink:href="#DejaVuSans-56"/>
      </g>
     </g>
    </g>
   </g>
   <g id="PolyCollection_1">
    <defs>
     <path d="M 57.424915 -76.19236 
L 57.424915 -39.441938 
L 60.704254 -126.977712 
L 63.983592 -149.693205 
L 67.262931 -165.188416 
L 70.54227 -159.720473 
L 73.821609 -180.683628 
L 77.100948 -193.256247 
L 80.380287 -192.690388 
L 83.659626 -206.563064 
L 86.938964 -219.056585 
L 90.218303 -214.837994 
L 93.497642 -221.247008 
L 96.776981 -224.248698 
L 100.05632 -221.571515 
L 103.335659 -229.035177 
L 106.614997 -230.657712 
L 109.894336 -231.874614 
L 113.173675 -224.654332 
L 116.453014 -225.141092 
L 119.732353 -243.070107 
L 123.011692 -247.045318 
L 126.29103 -247.935684 
L 129.570369 -247.288698 
L 132.849708 -231.631233 
L 136.129047 -256.050388 
L 139.408386 -239.419402 
L 142.687725 -247.937712 
L 145.967064 -242.339966 
L 149.246402 -244.936022 
L 152.525741 -238.675064 
L 155.80508 -248.99236 
L 159.084419 -256.533092 
L 162.363758 -249.073487 
L 165.643097 -246.801937 
L 168.922435 -253.292078 
L 172.201774 -249.154614 
L 175.481113 -251.99405 
L 178.760452 -242.907853 
L 182.039791 -253.778839 
L 185.31913 -255.320247 
L 188.598468 -251.99405 
L 191.877807 -248.424473 
L 195.157146 -252.399684 
L 198.436485 -251.99405 
L 201.715824 -259.782219 
L 204.995163 -249.397994 
L 208.274502 -261.729261 
L 211.55384 -251.101656 
L 214.833179 -262.946163 
L 218.112518 -260.429205 
L 221.391857 -263.432923 
L 224.671196 -255.969261 
L 227.950535 -258.565318 
L 231.229873 -263.185487 
L 234.509212 -260.350107 
L 237.788551 -259.863346 
L 241.06789 -264.000811 
L 244.347229 -265.055459 
L 247.626568 -264.487571 
L 250.905907 -258.078557 
L 254.185245 -264.406445 
L 257.464584 -263.755402 
L 260.743923 -268.781205 
L 264.023262 -254.914614 
L 267.302601 -254.590107 
L 270.58194 -258.078557 
L 273.861278 -265.136585 
L 277.140617 -261.404754 
L 280.419956 -267.481149 
L 283.699295 -262.540529 
L 286.978634 -265.055459 
L 290.257973 -265.379966 
L 293.537311 -268.868416 
L 296.81665 -261.729261 
L 300.095989 -268.138276 
L 303.375328 -262.621656 
L 306.654667 -264.974332 
L 309.934006 -260.999121 
L 313.213345 -264.163064 
L 316.492683 -258.808698 
L 319.772022 -264.406445 
L 323.051361 -271.058839 
L 326.3307 -267.570388 
L 329.610039 -266.191233 
L 332.889378 -263.10436 
L 336.168716 -267.570388 
L 339.448055 -268.300529 
L 342.727394 -270.490952 
L 346.006733 -265.785599 
L 349.286072 -270.004191 
L 352.565411 -271.302219 
L 355.844749 -261.723177 
L 359.124088 -269.192923 
L 362.403427 -260.75574 
L 365.682766 -260.917994 
L 368.962105 -262.783909 
L 372.241444 -266.353487 
L 375.520783 -267.408135 
L 378.800121 -268.217374 
L 382.07946 -266.596867 
L 382.07946 -274.468191 
L 382.07946 -274.468191 
L 378.800121 -277.794388 
L 375.520783 -275.764191 
L 372.241444 -275.115177 
L 368.962105 -273.411515 
L 365.682766 -276.737712 
L 362.403427 -276.336135 
L 359.124088 -279.009261 
L 355.844749 -277.632135 
L 352.565411 -276.169825 
L 349.286072 -279.009261 
L 346.006733 -277.224473 
L 342.727394 -276.332078 
L 339.448055 -275.358557 
L 336.168716 -276.983121 
L 332.889378 -277.54898 
L 329.610039 -275.439684 
L 326.3307 -276.088698 
L 323.051361 -275.845318 
L 319.772022 -276.656585 
L 316.492683 -270.734332 
L 313.213345 -271.139966 
L 309.934006 -276.332078 
L 306.654667 -270.977712 
L 303.375328 -271.139966 
L 300.095989 -272.924754 
L 296.81665 -274.54729 
L 293.537311 -272.843628 
L 290.257973 -274.466163 
L 286.978634 -275.932529 
L 283.699295 -274.060529 
L 280.419956 -274.871797 
L 277.140617 -269.598557 
L 273.861278 -271.464473 
L 270.58194 -271.547628 
L 267.302601 -271.545599 
L 264.023262 -270.490952 
L 260.743923 -274.222783 
L 257.464584 -274.222783 
L 254.185245 -274.303909 
L 250.905907 -265.217712 
L 247.626568 -270.085318 
L 244.347229 -272.27574 
L 241.06789 -272.600247 
L 237.788551 -275.764191 
L 234.509212 -270.004191 
L 231.229873 -271.302219 
L 227.950535 -275.196304 
L 224.671196 -268.474952 
L 221.391857 -275.115177 
L 218.112518 -269.923064 
L 214.833179 -269.598557 
L 211.55384 -267.976022 
L 208.274502 -269.51743 
L 204.995163 -266.759121 
L 201.715824 -267.164754 
L 198.436485 -268.381656 
L 195.157146 -268.138276 
L 191.877807 -256.131515 
L 188.598468 -259.295459 
L 185.31913 -262.704811 
L 182.039791 -265.947853 
L 178.760452 -264.812078 
L 175.481113 -262.540529 
L 172.201774 -264.406445 
L 168.922435 -264.325318 
L 165.643097 -264.244191 
L 162.363758 -260.025599 
L 159.084419 -264.163064 
L 155.80508 -257.26729 
L 152.525741 -257.835177 
L 149.246402 -258.321937 
L 145.967064 -257.916304 
L 142.687725 -260.857149 
L 139.408386 -254.590107 
L 136.129047 -259.944473 
L 132.849708 -256.699402 
L 129.570369 -252.156304 
L 126.29103 -254.513036 
L 123.011692 -253.859966 
L 119.732353 -248.667853 
L 116.453014 -244.209938 
L 113.173675 -238.364754 
L 109.894336 -245.828416 
L 106.614997 -243.23236 
L 103.335659 -241.204191 
L 100.05632 -238.689261 
L 96.776981 -239.98729 
L 93.497642 -235.038557 
L 90.218303 -226.763628 
L 86.938964 -232.523628 
L 83.659626 -219.705599 
L 80.380287 -212.404191 
L 77.100948 -205.91405 
L 73.821609 -186.849261 
L 70.54227 -188.230445 
L 67.262931 -184.577712 
L 63.983592 -160.726445 
L 60.704254 -144.906726 
L 57.424915 -76.19236 
z
" id="m2bf1383560" style="stroke:#4c72b0;stroke-opacity:0.2;"/>
    </defs>
    <g clip-path="url(#p61e1c1e217)">
     <use style="fill:#4c72b0;fill-opacity:0.2;stroke:#4c72b0;stroke-opacity:0.2;" x="0" xlink:href="#m2bf1383560" y="315.776062"/>
    </g>
   </g>
   <g id="PolyCollection_2">
    <defs>
     <path d="M 57.424915 -64.996867 
L 57.424915 -47.960247 
L 60.704254 -114.646445 
L 63.983592 -146.367008 
L 67.262931 -170.461656 
L 70.54227 -190.175459 
L 73.821609 -198.693768 
L 77.100948 -200.640811 
L 80.380287 -207.212078 
L 83.659626 -221.896022 
L 86.938964 -213.053205 
L 90.218303 -216.94729 
L 93.497642 -226.520247 
L 96.776981 -228.629543 
L 100.05632 -229.684191 
L 103.335659 -235.188642 
L 106.614997 -227.574895 
L 109.894336 -234.701881 
L 113.173675 -241.041937 
L 116.453014 -230.819966 
L 119.732353 -248.911233 
L 123.011692 -244.609487 
L 126.29103 -247.288698 
L 129.570369 -236.498839 
L 132.849708 -238.516867 
L 136.129047 -244.449261 
L 139.408386 -251.101656 
L 142.687725 -251.020529 
L 145.967064 -247.369825 
L 149.246402 -254.82943 
L 152.525741 -245.585036 
L 155.80508 -248.262219 
L 159.084419 -247.532078 
L 162.363758 -249.479121 
L 165.643097 -247.775459 
L 168.922435 -249.641374 
L 172.201774 -257.023909 
L 175.481113 -250.939402 
L 178.760452 -252.886445 
L 182.039791 -254.097261 
L 185.31913 -258.484191 
L 188.598468 -249.722501 
L 191.877807 -258.808698 
L 195.157146 -240.068416 
L 198.436485 -256.699402 
L 201.715824 -259.295459 
L 204.995163 -260.025599 
L 208.274502 -258.484191 
L 211.55384 -261.485881 
L 214.833179 -258.240811 
L 218.112518 -253.048698 
L 221.391857 -257.105036 
L 224.671196 -255.482501 
L 227.950535 -261.560923 
L 231.229873 -263.432923 
L 234.509212 -263.27067 
L 237.788551 -261.323628 
L 241.06789 -260.025599 
L 244.347229 -255.888135 
L 247.626568 -260.836867 
L 250.905907 -257.348416 
L 254.185245 -255.723853 
L 257.464584 -264.325318 
L 260.743923 -262.216022 
L 264.023262 -263.75743 
L 267.302601 -261.080247 
L 270.58194 -256.861656 
L 273.861278 -253.697712 
L 277.140617 -260.51236 
L 280.419956 -265.785599 
L 283.699295 -264.487571 
L 286.978634 -265.542219 
L 290.257973 -268.625036 
L 293.537311 -267.083628 
L 296.81665 -261.891515 
L 300.095989 -269.351121 
L 303.375328 -265.298839 
L 306.654667 -266.353487 
L 309.934006 -262.621656 
L 313.213345 -260.431233 
L 316.492683 -256.537149 
L 319.772022 -262.297149 
L 323.051361 -266.51574 
L 326.3307 -273.817149 
L 329.610039 -268.706163 
L 332.889378 -264.730952 
L 336.168716 -267.894895 
L 339.448055 -257.51067 
L 342.727394 -266.509656 
L 346.006733 -269.592473 
L 349.286072 -267.245881 
L 352.565411 -269.355177 
L 355.844749 -260.830783 
L 359.124088 -267.651515 
L 362.403427 -270.004191 
L 365.682766 -270.653205 
L 368.962105 -260.106726 
L 372.241444 -271.383346 
L 375.520783 -272.517092 
L 378.800121 -270.247571 
L 382.07946 -271.949205 
L 382.07946 -281.361937 
L 382.07946 -281.361937 
L 378.800121 -276.737712 
L 375.520783 -276.899966 
L 372.241444 -277.873487 
L 368.962105 -279.009261 
L 365.682766 -275.358557 
L 362.403427 -278.765881 
L 359.124088 -274.871797 
L 355.844749 -270.977712 
L 352.565411 -276.007571 
L 349.286072 -277.305599 
L 346.006733 -277.147402 
L 342.727394 -278.360247 
L 339.448055 -276.737712 
L 336.168716 -276.173881 
L 332.889378 -279.992923 
L 329.610039 -276.737712 
L 326.3307 -276.737712 
L 323.051361 -275.27743 
L 319.772022 -270.328698 
L 316.492683 -275.196304 
L 313.213345 -269.436304 
L 309.934006 -270.490952 
L 306.654667 -273.654895 
L 303.375328 -271.707853 
L 300.095989 -274.060529 
L 296.81665 -275.27743 
L 293.537311 -276.575459 
L 290.257973 -277.873487 
L 286.978634 -268.78729 
L 283.699295 -276.413205 
L 280.419956 -279.414895 
L 277.140617 -271.221092 
L 273.861278 -268.799459 
L 270.58194 -269.436304 
L 267.302601 -275.27743 
L 264.023262 -268.381656 
L 260.743923 -277.062219 
L 257.464584 -272.36498 
L 254.185245 -274.385036 
L 250.905907 -273.654895 
L 247.626568 -275.601937 
L 244.347229 -263.51405 
L 241.06789 -267.570388 
L 237.788551 -268.219402 
L 234.509212 -274.141656 
L 231.229873 -268.057149 
L 227.950535 -271.791008 
L 224.671196 -266.842276 
L 221.391857 -268.138276 
L 218.112518 -265.785599 
L 214.833179 -264.974332 
L 211.55384 -271.878219 
L 208.274502 -268.462783 
L 204.995163 -268.219402 
L 201.715824 -263.353825 
L 198.436485 -266.759121 
L 195.157146 -262.621656 
L 191.877807 -262.946163 
L 188.598468 -270.490952 
L 185.31913 -268.057149 
L 182.039791 -261.648135 
L 178.760452 -262.865036 
L 175.481113 -260.187853 
L 172.201774 -265.379966 
L 168.922435 -259.376585 
L 165.643097 -258.078557 
L 162.363758 -259.214332 
L 159.084419 -257.279459 
L 155.80508 -257.105036 
L 152.525741 -265.785599 
L 149.246402 -259.782219 
L 145.967064 -253.292078 
L 142.687725 -257.186163 
L 139.408386 -261.567008 
L 136.129047 -254.67529 
L 132.849708 -257.762163 
L 129.570369 -255.733994 
L 126.29103 -264.081937 
L 123.011692 -254.590107 
L 119.732353 -253.210952 
L 116.453014 -252.967571 
L 113.173675 -245.179402 
L 109.894336 -249.23574 
L 106.614997 -248.99236 
L 103.335659 -248.343346 
L 100.05632 -245.99067 
L 96.776981 -242.177712 
L 93.497642 -239.176022 
L 90.218303 -231.550107 
L 86.938964 -229.278557 
L 83.659626 -230.576585 
L 80.380287 -220.19236 
L 77.100948 -215.649261 
L 73.821609 -208.759571 
L 70.54227 -194.963966 
L 67.262931 -191.14898 
L 63.983592 -166.648698 
L 60.704254 -136.392473 
L 57.424915 -64.996867 
z
" id="m80bd6cca9a" style="stroke:#dd8452;stroke-opacity:0.2;"/>
    </defs>
    <g clip-path="url(#p61e1c1e217)">
     <use style="fill:#dd8452;fill-opacity:0.2;stroke:#dd8452;stroke-opacity:0.2;" x="0" xlink:href="#m80bd6cca9a" y="315.776062"/>
    </g>
   </g>
   <g id="PolyCollection_3">
    <defs>
     <path d="M 57.424915 -64.996867 
L 57.424915 -47.960247 
L 60.704254 -114.80667 
L 63.983592 -145.31236 
L 67.262931 -170.461656 
L 70.54227 -190.175459 
L 73.821609 -198.288135 
L 77.100948 -201.366895 
L 80.380287 -207.212078 
L 83.659626 -221.896022 
L 86.938964 -213.053205 
L 90.218303 -216.785036 
L 93.497642 -225.222219 
L 96.776981 -228.46729 
L 100.05632 -229.684191 
L 103.335659 -234.389543 
L 106.614997 -228.95405 
L 109.894336 -234.71405 
L 113.173675 -241.041937 
L 116.453014 -231.063346 
L 119.732353 -248.911233 
L 123.011692 -244.692642 
L 126.29103 -247.288698 
L 129.570369 -237.796867 
L 132.849708 -238.121374 
L 136.129047 -244.449261 
L 139.408386 -251.020529 
L 142.687725 -251.020529 
L 145.967064 -247.369825 
L 149.246402 -254.82943 
L 152.525741 -245.664135 
L 155.80508 -248.181092 
L 159.084419 -248.018839 
L 162.363758 -249.479121 
L 165.643097 -247.771402 
L 168.922435 -250.128135 
L 172.201774 -256.861656 
L 175.481113 -250.939402 
L 178.760452 -252.724191 
L 182.039791 -253.697712 
L 185.31913 -258.484191 
L 188.598468 -249.722501 
L 191.877807 -258.808698 
L 195.157146 -240.068416 
L 198.436485 -256.859628 
L 201.715824 -259.295459 
L 204.995163 -260.025599 
L 208.274502 -257.75405 
L 211.55384 -261.485881 
L 214.833179 -257.835177 
L 218.112518 -253.941092 
L 221.391857 -257.105036 
L 224.671196 -255.239121 
L 227.950535 -261.891515 
L 231.229873 -263.189543 
L 234.509212 -263.108416 
L 237.788551 -260.75574 
L 241.06789 -260.025599 
L 244.347229 -255.888135 
L 247.626568 -261.080247 
L 250.905907 -257.591797 
L 254.185245 -255.888135 
L 257.464584 -264.406445 
L 260.743923 -262.459402 
L 264.023262 -263.75743 
L 267.302601 -261.729261 
L 270.58194 -256.456022 
L 273.861278 -253.697712 
L 277.140617 -260.51236 
L 280.419956 -266.27236 
L 283.699295 -264.47743 
L 286.978634 -265.542219 
L 290.257973 -268.543909 
L 293.537311 -266.921374 
L 296.81665 -261.891515 
L 300.095989 -268.949543 
L 303.375328 -265.379966 
L 306.654667 -266.353487 
L 309.934006 -262.621656 
L 313.213345 -260.51236 
L 316.492683 -256.212642 
L 319.772022 -262.613543 
L 323.051361 -266.51574 
L 326.3307 -273.817149 
L 329.610039 -268.706163 
L 332.889378 -264.487571 
L 336.168716 -267.894895 
L 339.448055 -257.51067 
L 342.727394 -266.51574 
L 346.006733 -269.355177 
L 349.286072 -267.245881 
L 352.565411 -269.355177 
L 355.844749 -260.593487 
L 359.124088 -267.651515 
L 362.403427 -270.004191 
L 365.682766 -270.815459 
L 368.962105 -260.092529 
L 372.241444 -271.383346 
L 375.520783 -272.437994 
L 378.800121 -270.247571 
L 382.07946 -271.707853 
L 382.07946 -281.361937 
L 382.07946 -281.361937 
L 378.800121 -276.899966 
L 375.520783 -277.224473 
L 372.241444 -277.873487 
L 368.962105 -278.376473 
L 365.682766 -275.358557 
L 362.403427 -279.009261 
L 359.124088 -274.873825 
L 355.844749 -270.977712 
L 352.565411 -275.845318 
L 349.286072 -277.305599 
L 346.006733 -277.305599 
L 342.727394 -278.522501 
L 339.448055 -275.683064 
L 336.168716 -276.173881 
L 332.889378 -279.171515 
L 329.610039 -276.737712 
L 326.3307 -276.737712 
L 323.051361 -275.27743 
L 319.772022 -270.328698 
L 316.492683 -275.196304 
L 313.213345 -269.543797 
L 309.934006 -270.490952 
L 306.654667 -273.654895 
L 303.375328 -271.707853 
L 300.095989 -274.060529 
L 296.81665 -274.79067 
L 293.537311 -276.088698 
L 290.257973 -277.873487 
L 286.978634 -268.78729 
L 283.699295 -276.413205 
L 280.419956 -279.090388 
L 277.140617 -271.223121 
L 273.861278 -268.462783 
L 270.58194 -269.44036 
L 267.302601 -275.689149 
L 264.023262 -268.381656 
L 260.743923 -277.143346 
L 257.464584 -271.872135 
L 254.185245 -274.385036 
L 250.905907 -273.654895 
L 247.626568 -275.683064 
L 244.347229 -263.840585 
L 241.06789 -267.570388 
L 237.788551 -268.381656 
L 234.509212 -275.27743 
L 231.229873 -268.057149 
L 227.950535 -271.78898 
L 224.671196 -266.840247 
L 221.391857 -269.111797 
L 218.112518 -265.785599 
L 214.833179 -264.974332 
L 211.55384 -272.356867 
L 208.274502 -268.462783 
L 204.995163 -268.300529 
L 201.715824 -263.676304 
L 198.436485 -266.759121 
L 195.157146 -262.621656 
L 191.877807 -263.02729 
L 188.598468 -270.004191 
L 185.31913 -268.057149 
L 182.039791 -261.648135 
L 178.760452 -262.702783 
L 175.481113 -259.863346 
L 172.201774 -265.298839 
L 168.922435 -259.538839 
L 165.643097 -257.99743 
L 162.363758 -259.214332 
L 159.084419 -257.75405 
L 155.80508 -256.472247 
L 152.525741 -265.785599 
L 149.246402 -259.782219 
L 145.967064 -253.294107 
L 142.687725 -257.348416 
L 139.408386 -261.567008 
L 136.129047 -254.671233 
L 132.849708 -258.727571 
L 129.570369 -256.050388 
L 126.29103 -264.406445 
L 123.011692 -254.50898 
L 119.732353 -253.050726 
L 116.453014 -252.967571 
L 113.173675 -245.260529 
L 109.894336 -249.23574 
L 106.614997 -248.911233 
L 103.335659 -248.343346 
L 100.05632 -245.909543 
L 96.776981 -241.772078 
L 93.497642 -239.094895 
L 90.218303 -231.46898 
L 86.938964 -229.765318 
L 83.659626 -230.576585 
L 80.380287 -220.19236 
L 77.100948 -215.973768 
L 73.821609 -208.996867 
L 70.54227 -194.963966 
L 67.262931 -191.14898 
L 63.983592 -166.648698 
L 60.704254 -136.55067 
L 57.424915 -64.996867 
z
" id="m3a0526bf4b" style="stroke:#55a868;stroke-opacity:0.2;"/>
    </defs>
    <g clip-path="url(#p61e1c1e217)">
     <use style="fill:#55a868;fill-opacity:0.2;stroke:#55a868;stroke-opacity:0.2;" x="0" xlink:href="#m3a0526bf4b" y="315.776062"/>
    </g>
   </g>
   <g id="PolyCollection_4">
    <defs>
     <path d="M 57.424915 -65.727008 
L 57.424915 -45.039684 
L 60.704254 -113.261205 
L 63.983592 -154.236304 
L 67.262931 -162.661318 
L 70.54227 -178.655459 
L 73.821609 -191.39236 
L 77.100948 -200.884191 
L 80.380287 -193.988416 
L 83.659626 -211.106163 
L 86.938964 -221.084754 
L 90.218303 -227.656022 
L 93.497642 -219.299966 
L 96.776981 -229.278557 
L 100.05632 -223.506388 
L 103.335659 -232.523628 
L 106.614997 -232.848135 
L 109.894336 -243.228304 
L 113.173675 -240.794501 
L 116.453014 -240.960811 
L 119.732353 -240.879684 
L 123.011692 -236.579966 
L 126.29103 -233.416022 
L 129.570369 -248.424473 
L 132.849708 -251.182783 
L 136.129047 -255.563628 
L 139.408386 -248.663797 
L 142.687725 -244.936022 
L 145.967064 -244.611515 
L 149.246402 -242.907853 
L 152.525741 -248.097937 
L 155.80508 -255.149881 
L 159.084419 -244.287008 
L 162.363758 -254.99574 
L 165.643097 -247.207571 
L 168.922435 -249.722501 
L 172.201774 -257.833149 
L 175.481113 -248.099966 
L 178.760452 -258.321937 
L 182.039791 -250.939402 
L 185.31913 -253.535459 
L 188.598468 -252.886445 
L 191.877807 -249.479121 
L 195.157146 -255.969261 
L 198.436485 -256.293768 
L 201.715824 -255.969261 
L 204.995163 -265.947853 
L 208.274502 -258.808698 
L 211.55384 -262.702783 
L 214.833179 -253.454332 
L 218.112518 -258.070445 
L 221.391857 -254.661092 
L 224.671196 -260.674614 
L 227.950535 -263.102332 
L 231.229873 -258.151571 
L 234.509212 -258.889825 
L 237.788551 -251.831797 
L 241.06789 -256.030107 
L 244.347229 -262.013205 
L 247.626568 -255.11743 
L 250.905907 -259.477994 
L 254.185245 -258.159684 
L 257.464584 -262.824473 
L 260.743923 -257.145599 
L 264.023262 -261.911797 
L 267.302601 -268.503346 
L 270.58194 -252.683628 
L 273.861278 -262.824473 
L 277.140617 -269.923064 
L 280.419956 -262.913205 
L 283.699295 -266.677994 
L 286.978634 -262.114614 
L 290.257973 -264.649825 
L 293.537311 -264.852642 
L 296.81665 -260.593487 
L 300.095989 -263.230107 
L 303.375328 -253.697712 
L 306.654667 -263.534332 
L 309.934006 -260.999121 
L 313.213345 -269.111797 
L 316.492683 -262.824473 
L 319.772022 -264.852642 
L 323.051361 -267.489261 
L 326.3307 -270.937149 
L 329.610039 -268.604754 
L 332.889378 -270.430107 
L 336.168716 -264.447008 
L 339.448055 -272.863909 
L 342.727394 -256.537149 
L 346.006733 -267.894895 
L 349.286072 -273.573768 
L 352.565411 -266.576585 
L 355.844749 -267.286445 
L 359.124088 -271.337712 
L 362.403427 -265.663909 
L 365.682766 -260.187853 
L 368.962105 -268.097712 
L 372.241444 -264.649825 
L 375.520783 -270.531515 
L 378.800121 -272.965318 
L 382.07946 -264.95405 
L 382.07946 -278.339966 
L 382.07946 -278.339966 
L 378.800121 -274.182219 
L 375.520783 -279.658276 
L 372.241444 -274.385036 
L 368.962105 -275.500529 
L 365.682766 -275.094895 
L 362.403427 -277.047008 
L 359.124088 -279.861092 
L 355.844749 -280.063909 
L 352.565411 -277.42729 
L 349.286072 -278.441374 
L 346.006733 -279.151233 
L 342.727394 -275.196304 
L 339.448055 -275.804754 
L 336.168716 -274.385036 
L 332.889378 -272.255459 
L 329.610039 -273.573768 
L 326.3307 -273.877994 
L 323.051361 -274.486445 
L 319.772022 -274.993487 
L 316.492683 -274.385036 
L 313.213345 -272.965318 
L 309.934006 -272.559684 
L 306.654667 -275.196304 
L 303.375328 -270.937149 
L 300.095989 -279.658276 
L 296.81665 -271.139966 
L 293.537311 -273.675177 
L 290.257973 -270.83574 
L 286.978634 -272.965318 
L 283.699295 -274.385036 
L 280.419956 -266.677994 
L 277.140617 -276.413205 
L 273.861278 -275.804754 
L 270.58194 -264.649825 
L 267.302601 -276.007571 
L 264.023262 -273.47236 
L 260.743923 -272.863909 
L 257.464584 -272.661092 
L 254.185245 -273.776585 
L 250.905907 -269.213205 
L 247.626568 -265.055459 
L 244.347229 -266.677994 
L 241.06789 -266.880811 
L 237.788551 -270.166445 
L 234.509212 -266.27236 
L 231.229873 -264.730952 
L 227.950535 -268.300529 
L 224.671196 -265.633487 
L 221.391857 -269.923064 
L 218.112518 -271.870107 
L 214.833179 -262.946163 
L 211.55384 -270.815459 
L 208.274502 -269.679684 
L 204.995163 -273.979402 
L 201.715824 -262.297149 
L 198.436485 -266.51574 
L 195.157146 -266.921374 
L 191.877807 -262.053768 
L 188.598468 -265.379966 
L 185.31913 -265.217712 
L 182.039791 -267.164754 
L 178.760452 -262.459402 
L 175.481113 -258.484191 
L 172.201774 -263.27067 
L 168.922435 -261.891515 
L 165.643097 -259.538839 
L 162.363758 -262.134895 
L 159.084419 -265.704473 
L 155.80508 -261.161374 
L 152.525741 -260.999121 
L 149.246402 -260.674614 
L 145.967064 -256.780529 
L 142.687725 -254.50898 
L 139.408386 -258.646445 
L 136.129047 -262.053768 
L 132.849708 -258.403064 
L 129.570369 -254.914614 
L 126.29103 -251.345036 
L 123.011692 -252.805318 
L 119.732353 -256.378952 
L 116.453014 -248.424473 
L 113.173675 -252.075177 
L 109.894336 -250.614895 
L 106.614997 -245.422783 
L 103.335659 -237.877994 
L 100.05632 -238.770388 
L 96.776981 -239.338276 
L 93.497642 -238.121374 
L 90.218303 -237.71574 
L 86.938964 -233.659402 
L 83.659626 -219.788754 
L 80.380287 -223.43743 
L 77.100948 -218.180416 
L 73.821609 -198.369261 
L 70.54227 -191.879121 
L 67.262931 -179.385599 
L 63.983592 -175.329261 
L 60.704254 -133.54898 
L 57.424915 -65.727008 
z
" id="m665186ae8d" style="stroke:#c44e52;stroke-opacity:0.2;"/>
    </defs>
    <g clip-path="url(#p61e1c1e217)">
     <use style="fill:#c44e52;fill-opacity:0.2;stroke:#c44e52;stroke-opacity:0.2;" x="0" xlink:href="#m665186ae8d" y="315.776062"/>
    </g>
   </g>
   <g id="line2d_14">
    <path clip-path="url(#p61e1c1e217)" d="M 57.424915 258.323984 
L 60.704254 181.010181 
L 63.983592 160.566238 
L 67.262931 140.446801 
L 70.54227 141.744829 
L 73.821609 132.090745 
L 77.100948 116.027646 
L 80.380287 113.025956 
L 83.659626 103.128491 
L 86.938964 89.985956 
L 90.218303 95.583702 
L 93.497642 88.282294 
L 96.776981 83.982576 
L 100.05632 83.820322 
L 103.335659 80.656379 
L 106.614997 79.033843 
L 109.894336 76.924548 
L 113.173675 85.199477 
L 116.453014 81.224266 
L 119.732353 70.028773 
L 123.011692 65.323421 
L 126.29103 64.59328 
L 129.570369 66.053562 
L 132.849708 71.164548 
L 136.129047 57.778632 
L 139.408386 69.055252 
L 142.687725 61.753843 
L 145.967064 65.729055 
L 149.246402 63.863139 
L 152.525741 68.568491 
L 155.80508 62.646238 
L 159.084419 55.507083 
L 162.363758 61.023702 
L 165.643097 59.07666 
L 168.922435 56.967364 
L 172.201774 60.050181 
L 175.481113 58.5899 
L 178.760452 60.618069 
L 182.039791 56.156097 
L 185.31913 56.805111 
L 188.598468 59.806801 
L 191.877807 63.457505 
L 195.157146 55.263702 
L 198.436485 56.723984 
L 201.715824 52.424266 
L 204.995163 57.291871 
L 208.274502 50.152717 
L 211.55384 55.182576 
L 214.833179 49.503702 
L 218.112518 50.882857 
L 221.391857 47.151026 
L 224.671196 53.803421 
L 227.950535 47.151026 
L 231.229873 48.773562 
L 234.509212 49.909336 
L 237.788551 47.962294 
L 241.06789 47.475533 
L 244.347229 47.151026 
L 247.626568 48.124548 
L 250.905907 53.397787 
L 254.185245 47.0699 
L 257.464584 46.502012 
L 260.743923 44.473843 
L 264.023262 52.992153 
L 267.302601 51.856379 
L 270.58194 50.07159 
L 273.861278 47.394407 
L 277.140617 49.584829 
L 280.419956 44.79835 
L 283.699295 47.475533 
L 286.978634 45.366238 
L 290.257973 45.447364 
L 293.537311 44.960604 
L 296.81665 47.881167 
L 300.095989 45.366238 
L 303.375328 48.692435 
L 306.654667 47.718914 
L 309.934006 47.718914 
L 313.213345 47.475533 
L 316.492683 50.720604 
L 319.772022 44.960604 
L 323.051361 42.283421 
L 326.3307 44.31159 
L 329.610039 45.366238 
L 332.889378 46.664266 
L 336.168716 43.500322 
L 339.448055 43.987083 
L 342.727394 42.364548 
L 346.006733 44.06821 
L 349.286072 41.3099 
L 352.565411 41.877787 
L 355.844749 45.203984 
L 359.124088 41.3099 
L 362.403427 46.826519 
L 365.682766 46.502012 
L 368.962105 47.637787 
L 372.241444 45.041731 
L 375.520783 43.419195 
L 378.800121 43.905956 
L 382.07946 44.55497 
" style="fill:none;stroke:#4c72b0;stroke-linecap:round;stroke-width:1.5;"/>
   </g>
   <g id="line2d_15">
    <path clip-path="url(#p61e1c1e217)" d="M 57.424915 259.297505 
L 60.704254 190.177505 
L 63.983592 158.538069 
L 67.262931 135.011308 
L 70.54227 123.085674 
L 73.821609 111.890181 
L 77.100948 106.779195 
L 80.380287 100.694688 
L 83.659626 89.580322 
L 86.938964 95.096942 
L 90.218303 91.283984 
L 93.497642 83.171308 
L 96.776981 80.575252 
L 100.05632 77.979195 
L 103.335659 74.409618 
L 106.614997 76.843421 
L 109.894336 73.760604 
L 113.173675 72.381449 
L 116.453014 74.003984 
L 119.732353 64.755533 
L 123.011692 66.215815 
L 126.29103 59.725674 
L 129.570369 68.325111 
L 132.849708 67.35159 
L 136.129047 65.810181 
L 139.408386 59.482294 
L 142.687725 62.159477 
L 145.967064 65.972435 
L 149.246402 58.265393 
L 152.525741 58.671026 
L 155.80508 63.538632 
L 159.084419 62.970745 
L 162.363758 61.429336 
L 165.643097 62.889618 
L 168.922435 61.185956 
L 172.201774 55.344829 
L 175.481113 60.212435 
L 178.760452 58.5899 
L 182.039791 58.184266 
L 185.31913 51.937505 
L 188.598468 55.912717 
L 191.877807 54.939195 
L 195.157146 63.700886 
L 198.436485 53.884548 
L 201.715824 54.695815 
L 204.995163 51.775252 
L 208.274502 52.099759 
L 211.55384 49.098069 
L 214.833179 53.965674 
L 218.112518 55.425956 
L 221.391857 53.397787 
L 224.671196 54.776942 
L 227.950535 49.016942 
L 231.229873 50.07159 
L 234.509212 47.475533 
L 237.788551 50.882857 
L 241.06789 52.343139 
L 244.347229 55.58821 
L 247.626568 47.394407 
L 250.905907 49.341449 
L 254.185245 49.260322 
L 257.464584 47.80004 
L 260.743923 46.907646 
L 264.023262 49.260322 
L 267.302601 46.988773 
L 270.58194 52.424266 
L 273.861278 54.452435 
L 277.140617 49.909336 
L 280.419956 42.607928 
L 283.699295 45.447364 
L 286.978634 48.611308 
L 290.257973 43.013562 
L 293.537311 44.31159 
L 296.81665 46.988773 
L 300.095989 44.06821 
L 303.375328 47.232153 
L 306.654667 45.934125 
L 309.934006 49.098069 
L 313.213345 50.963984 
L 316.492683 50.07159 
L 319.772022 48.935815 
L 323.051361 44.879477 
L 326.3307 40.498632 
L 329.610039 43.743702 
L 332.889378 44.31159 
L 336.168716 44.31159 
L 339.448055 47.962294 
L 342.727394 43.094688 
L 346.006733 41.877787 
L 349.286072 43.500322 
L 352.565411 43.175815 
L 355.844749 49.990463 
L 359.124088 43.743702 
L 362.403427 41.715533 
L 365.682766 42.770181 
L 368.962105 46.826519 
L 372.241444 41.391026 
L 375.520783 41.066519 
L 378.800121 42.283421 
L 382.07946 38.632717 
" style="fill:none;stroke:#dd8452;stroke-linecap:round;stroke-width:1.5;"/>
   </g>
   <g id="line2d_16">
    <path clip-path="url(#p61e1c1e217)" d="M 57.424915 259.297505 
L 60.704254 190.177505 
L 63.983592 158.538069 
L 67.262931 135.011308 
L 70.54227 123.085674 
L 73.821609 111.890181 
L 77.100948 106.779195 
L 80.380287 100.694688 
L 83.659626 89.580322 
L 86.938964 95.096942 
L 90.218303 91.283984 
L 93.497642 83.171308 
L 96.776981 80.575252 
L 100.05632 77.979195 
L 103.335659 74.409618 
L 106.614997 76.843421 
L 109.894336 73.760604 
L 113.173675 72.381449 
L 116.453014 74.003984 
L 119.732353 64.755533 
L 123.011692 66.215815 
L 126.29103 59.725674 
L 129.570369 68.325111 
L 132.849708 67.35159 
L 136.129047 65.810181 
L 139.408386 59.482294 
L 142.687725 62.159477 
L 145.967064 65.972435 
L 149.246402 58.265393 
L 152.525741 58.671026 
L 155.80508 63.538632 
L 159.084419 62.970745 
L 162.363758 61.429336 
L 165.643097 62.889618 
L 168.922435 61.185956 
L 172.201774 55.344829 
L 175.481113 60.212435 
L 178.760452 58.5899 
L 182.039791 58.184266 
L 185.31913 51.937505 
L 188.598468 55.912717 
L 191.877807 54.939195 
L 195.157146 63.700886 
L 198.436485 53.884548 
L 201.715824 54.695815 
L 204.995163 51.775252 
L 208.274502 52.099759 
L 211.55384 49.098069 
L 214.833179 53.965674 
L 218.112518 55.425956 
L 221.391857 53.397787 
L 224.671196 54.776942 
L 227.950535 49.016942 
L 231.229873 50.07159 
L 234.509212 47.475533 
L 237.788551 50.882857 
L 241.06789 52.343139 
L 244.347229 55.58821 
L 247.626568 47.394407 
L 250.905907 49.341449 
L 254.185245 49.260322 
L 257.464584 47.80004 
L 260.743923 46.907646 
L 264.023262 49.260322 
L 267.302601 46.988773 
L 270.58194 52.424266 
L 273.861278 54.452435 
L 277.140617 49.909336 
L 280.419956 42.607928 
L 283.699295 45.447364 
L 286.978634 48.611308 
L 290.257973 43.013562 
L 293.537311 44.31159 
L 296.81665 46.988773 
L 300.095989 44.06821 
L 303.375328 47.232153 
L 306.654667 45.934125 
L 309.934006 49.098069 
L 313.213345 50.963984 
L 316.492683 50.07159 
L 319.772022 48.935815 
L 323.051361 44.879477 
L 326.3307 40.498632 
L 329.610039 43.743702 
L 332.889378 44.31159 
L 336.168716 44.31159 
L 339.448055 47.962294 
L 342.727394 43.094688 
L 346.006733 41.877787 
L 349.286072 43.500322 
L 352.565411 43.175815 
L 355.844749 49.990463 
L 359.124088 43.743702 
L 362.403427 41.715533 
L 365.682766 42.770181 
L 368.962105 46.826519 
L 372.241444 41.391026 
L 375.520783 41.066519 
L 378.800121 42.283421 
L 382.07946 38.632717 
" style="fill:none;stroke:#55a868;stroke-linecap:round;stroke-width:1.5;"/>
   </g>
   <g id="line2d_17">
    <path clip-path="url(#p61e1c1e217)" d="M 57.424915 260.757787 
L 60.704254 191.31328 
L 63.983592 150.99328 
L 67.262931 143.610745 
L 70.54227 130.46821 
L 73.821609 120.165111 
L 77.100948 106.454688 
L 80.380287 105.805674 
L 83.659626 100.289055 
L 86.938964 87.957787 
L 90.218303 83.090181 
L 93.497642 87.227646 
L 96.776981 81.6299 
L 100.05632 84.87497 
L 103.335659 80.575252 
L 106.614997 77.330181 
L 109.894336 68.811871 
L 113.173675 69.136379 
L 116.453014 71.651308 
L 119.732353 68.000604 
L 123.011692 71.083421 
L 126.29103 72.949336 
L 129.570369 64.187646 
L 132.849708 61.185956 
L 136.129047 56.480604 
L 139.408386 62.970745 
L 142.687725 65.647928 
L 145.967064 65.08004 
L 149.246402 64.83666 
L 152.525741 61.104829 
L 155.80508 57.778632 
L 159.084419 59.482294 
L 162.363758 57.372998 
L 165.643097 60.455815 
L 168.922435 59.969055 
L 172.201774 55.182576 
L 175.481113 62.646238 
L 178.760452 55.750463 
L 182.039791 57.697505 
L 185.31913 56.480604 
L 188.598468 56.642857 
L 191.877807 60.293562 
L 195.157146 54.371308 
L 198.436485 53.965674 
L 201.715824 56.805111 
L 204.995163 46.258632 
L 208.274502 51.612998 
L 211.55384 49.747083 
L 214.833179 57.291871 
L 218.112518 50.396097 
L 221.391857 53.07328 
L 224.671196 52.911026 
L 227.950535 50.152717 
L 231.229873 54.046801 
L 234.509212 53.884548 
L 237.788551 54.371308 
L 241.06789 53.965674 
L 244.347229 50.923421 
L 247.626568 55.689618 
L 250.905907 51.531871 
L 254.185245 50.112153 
L 257.464584 48.591026 
L 260.743923 49.605111 
L 264.023262 48.286801 
L 267.302601 44.027646 
L 270.58194 56.399477 
L 273.861278 46.461449 
L 277.140617 42.506519 
L 280.419956 50.923421 
L 283.699295 46.258632 
L 286.978634 46.664266 
L 290.257973 48.793843 
L 293.537311 45.852998 
L 296.81665 50.31497 
L 300.095989 44.331871 
L 303.375328 53.458632 
L 306.654667 45.548773 
L 309.934006 49.605111 
L 313.213345 44.737505 
L 316.492683 47.779759 
L 319.772022 45.041731 
L 323.051361 44.737505 
L 326.3307 43.622012 
L 329.610039 44.940322 
L 332.889378 44.331871 
L 336.168716 47.272717 
L 339.448055 41.492435 
L 342.727394 49.807928 
L 346.006733 41.289618 
L 349.286072 39.565674 
L 352.565411 43.013562 
L 355.844749 42.100886 
L 359.124088 41.18821 
L 362.403427 45.143139 
L 365.682766 47.67835 
L 368.962105 44.331871 
L 372.241444 46.258632 
L 375.520783 39.261449 
L 378.800121 42.202294 
L 382.07946 44.230463 
" style="fill:none;stroke:#c44e52;stroke-linecap:round;stroke-width:1.5;"/>
   </g>
   <g id="patch_3">
    <path d="M 41.192188 288.430125 
L 41.192188 22.318125 
" style="fill:none;stroke:#ffffff;stroke-linecap:square;stroke-linejoin:miter;stroke-width:1.25;"/>
   </g>
   <g id="patch_4">
    <path d="M 398.312188 288.430125 
L 398.312188 22.318125 
" style="fill:none;stroke:#ffffff;stroke-linecap:square;stroke-linejoin:miter;stroke-width:1.25;"/>
   </g>
   <g id="patch_5">
    <path d="M 41.192188 288.430125 
L 398.312188 288.430125 
" style="fill:none;stroke:#ffffff;stroke-linecap:square;stroke-linejoin:miter;stroke-width:1.25;"/>
   </g>
   <g id="patch_6">
    <path d="M 41.192188 22.318125 
L 398.312188 22.318125 
" style="fill:none;stroke:#ffffff;stroke-linecap:square;stroke-linejoin:miter;stroke-width:1.25;"/>
   </g>
   <g id="text_14">
    <!-- mnist -->
    <defs>
     <path d="M 52 44.1875 
Q 55.375 50.25 60.0625 53.125 
Q 64.75 56 71.09375 56 
Q 79.640625 56 84.28125 50.015625 
Q 88.921875 44.046875 88.921875 33.015625 
L 88.921875 0 
L 79.890625 0 
L 79.890625 32.71875 
Q 79.890625 40.578125 77.09375 44.375 
Q 74.3125 48.1875 68.609375 48.1875 
Q 61.625 48.1875 57.5625 43.546875 
Q 53.515625 38.921875 53.515625 30.90625 
L 53.515625 0 
L 44.484375 0 
L 44.484375 32.71875 
Q 44.484375 40.625 41.703125 44.40625 
Q 38.921875 48.1875 33.109375 48.1875 
Q 26.21875 48.1875 22.15625 43.53125 
Q 18.109375 38.875 18.109375 30.90625 
L 18.109375 0 
L 9.078125 0 
L 9.078125 54.6875 
L 18.109375 54.6875 
L 18.109375 46.1875 
Q 21.1875 51.21875 25.484375 53.609375 
Q 29.78125 56 35.6875 56 
Q 41.65625 56 45.828125 52.96875 
Q 50 49.953125 52 44.1875 
z
" id="DejaVuSans-109"/>
     <path d="M 54.890625 33.015625 
L 54.890625 0 
L 45.90625 0 
L 45.90625 32.71875 
Q 45.90625 40.484375 42.875 44.328125 
Q 39.84375 48.1875 33.796875 48.1875 
Q 26.515625 48.1875 22.3125 43.546875 
Q 18.109375 38.921875 18.109375 30.90625 
L 18.109375 0 
L 9.078125 0 
L 9.078125 54.6875 
L 18.109375 54.6875 
L 18.109375 46.1875 
Q 21.34375 51.125 25.703125 53.5625 
Q 30.078125 56 35.796875 56 
Q 45.21875 56 50.046875 50.171875 
Q 54.890625 44.34375 54.890625 33.015625 
z
" id="DejaVuSans-110"/>
     <path d="M 9.421875 54.6875 
L 18.40625 54.6875 
L 18.40625 0 
L 9.421875 0 
z
M 9.421875 75.984375 
L 18.40625 75.984375 
L 18.40625 64.59375 
L 9.421875 64.59375 
z
" id="DejaVuSans-105"/>
     <path d="M 44.28125 53.078125 
L 44.28125 44.578125 
Q 40.484375 46.53125 36.375 47.5 
Q 32.28125 48.484375 27.875 48.484375 
Q 21.1875 48.484375 17.84375 46.4375 
Q 14.5 44.390625 14.5 40.28125 
Q 14.5 37.15625 16.890625 35.375 
Q 19.28125 33.59375 26.515625 31.984375 
L 29.59375 31.296875 
Q 39.15625 29.25 43.1875 25.515625 
Q 47.21875 21.78125 47.21875 15.09375 
Q 47.21875 7.46875 41.1875 3.015625 
Q 35.15625 -1.421875 24.609375 -1.421875 
Q 20.21875 -1.421875 15.453125 -0.5625 
Q 10.6875 0.296875 5.421875 2 
L 5.421875 11.28125 
Q 10.40625 8.6875 15.234375 7.390625 
Q 20.0625 6.109375 24.8125 6.109375 
Q 31.15625 6.109375 34.5625 8.28125 
Q 37.984375 10.453125 37.984375 14.40625 
Q 37.984375 18.0625 35.515625 20.015625 
Q 33.0625 21.96875 24.703125 23.78125 
L 21.578125 24.515625 
Q 13.234375 26.265625 9.515625 29.90625 
Q 5.8125 33.546875 5.8125 39.890625 
Q 5.8125 47.609375 11.28125 51.796875 
Q 16.75 56 26.8125 56 
Q 31.78125 56 36.171875 55.265625 
Q 40.578125 54.546875 44.28125 53.078125 
z
" id="DejaVuSans-115"/>
     <path d="M 18.3125 70.21875 
L 18.3125 54.6875 
L 36.8125 54.6875 
L 36.8125 47.703125 
L 18.3125 47.703125 
L 18.3125 18.015625 
Q 18.3125 11.328125 20.140625 9.421875 
Q 21.96875 7.515625 27.59375 7.515625 
L 36.8125 7.515625 
L 36.8125 0 
L 27.59375 0 
Q 17.1875 0 13.234375 3.875 
Q 9.28125 7.765625 9.28125 18.015625 
L 9.28125 47.703125 
L 2.6875 47.703125 
L 2.6875 54.6875 
L 9.28125 54.6875 
L 9.28125 70.21875 
z
" id="DejaVuSans-116"/>
    </defs>
    <g style="fill:#262626;" transform="translate(202.960625 16.318125)scale(0.12 -0.12)">
     <use xlink:href="#DejaVuSans-109"/>
     <use x="97.412109" xlink:href="#DejaVuSans-110"/>
     <use x="160.791016" xlink:href="#DejaVuSans-105"/>
     <use x="188.574219" xlink:href="#DejaVuSans-115"/>
     <use x="240.673828" xlink:href="#DejaVuSans-116"/>
    </g>
   </g>
   <g id="legend_1">
    <g id="patch_7">
     <path d="M 318.16 282.930125 
L 390.612188 282.930125 
Q 392.812188 282.930125 392.812188 280.730125 
L 392.812188 217.246375 
Q 392.812188 215.046375 390.612188 215.046375 
L 318.16 215.046375 
Q 315.96 215.046375 315.96 217.246375 
L 315.96 280.730125 
Q 315.96 282.930125 318.16 282.930125 
z
" style="fill:#eaeaf2;opacity:0.8;stroke:#cccccc;stroke-linejoin:miter;"/>
    </g>
    <g id="line2d_18">
     <path d="M 320.36 223.954656 
L 342.36 223.954656 
" style="fill:none;stroke:#4c72b0;stroke-linecap:round;stroke-width:1.5;"/>
    </g>
    <g id="line2d_19"/>
    <g id="text_15">
     <!-- pooled -->
     <defs>
      <path d="M 18.109375 8.203125 
L 18.109375 -20.796875 
L 9.078125 -20.796875 
L 9.078125 54.6875 
L 18.109375 54.6875 
L 18.109375 46.390625 
Q 20.953125 51.265625 25.265625 53.625 
Q 29.59375 56 35.59375 56 
Q 45.5625 56 51.78125 48.09375 
Q 58.015625 40.1875 58.015625 27.296875 
Q 58.015625 14.40625 51.78125 6.484375 
Q 45.5625 -1.421875 35.59375 -1.421875 
Q 29.59375 -1.421875 25.265625 0.953125 
Q 20.953125 3.328125 18.109375 8.203125 
z
M 48.6875 27.296875 
Q 48.6875 37.203125 44.609375 42.84375 
Q 40.53125 48.484375 33.40625 48.484375 
Q 26.265625 48.484375 22.1875 42.84375 
Q 18.109375 37.203125 18.109375 27.296875 
Q 18.109375 17.390625 22.1875 11.75 
Q 26.265625 6.109375 33.40625 6.109375 
Q 40.53125 6.109375 44.609375 11.75 
Q 48.6875 17.390625 48.6875 27.296875 
z
" id="DejaVuSans-112"/>
      <path d="M 30.609375 48.390625 
Q 23.390625 48.390625 19.1875 42.75 
Q 14.984375 37.109375 14.984375 27.296875 
Q 14.984375 17.484375 19.15625 11.84375 
Q 23.34375 6.203125 30.609375 6.203125 
Q 37.796875 6.203125 41.984375 11.859375 
Q 46.1875 17.53125 46.1875 27.296875 
Q 46.1875 37.015625 41.984375 42.703125 
Q 37.796875 48.390625 30.609375 48.390625 
z
M 30.609375 56 
Q 42.328125 56 49.015625 48.375 
Q 55.71875 40.765625 55.71875 27.296875 
Q 55.71875 13.875 49.015625 6.21875 
Q 42.328125 -1.421875 30.609375 -1.421875 
Q 18.84375 -1.421875 12.171875 6.21875 
Q 5.515625 13.875 5.515625 27.296875 
Q 5.515625 40.765625 12.171875 48.375 
Q 18.84375 56 30.609375 56 
z
" id="DejaVuSans-111"/>
      <path d="M 9.421875 75.984375 
L 18.40625 75.984375 
L 18.40625 0 
L 9.421875 0 
z
" id="DejaVuSans-108"/>
      <path d="M 56.203125 29.59375 
L 56.203125 25.203125 
L 14.890625 25.203125 
Q 15.484375 15.921875 20.484375 11.0625 
Q 25.484375 6.203125 34.421875 6.203125 
Q 39.59375 6.203125 44.453125 7.46875 
Q 49.3125 8.734375 54.109375 11.28125 
L 54.109375 2.78125 
Q 49.265625 0.734375 44.1875 -0.34375 
Q 39.109375 -1.421875 33.890625 -1.421875 
Q 20.796875 -1.421875 13.15625 6.1875 
Q 5.515625 13.8125 5.515625 26.8125 
Q 5.515625 40.234375 12.765625 48.109375 
Q 20.015625 56 32.328125 56 
Q 43.359375 56 49.78125 48.890625 
Q 56.203125 41.796875 56.203125 29.59375 
z
M 47.21875 32.234375 
Q 47.125 39.59375 43.09375 43.984375 
Q 39.0625 48.390625 32.421875 48.390625 
Q 24.90625 48.390625 20.390625 44.140625 
Q 15.875 39.890625 15.1875 32.171875 
z
" id="DejaVuSans-101"/>
      <path d="M 45.40625 46.390625 
L 45.40625 75.984375 
L 54.390625 75.984375 
L 54.390625 0 
L 45.40625 0 
L 45.40625 8.203125 
Q 42.578125 3.328125 38.25 0.953125 
Q 33.9375 -1.421875 27.875 -1.421875 
Q 17.96875 -1.421875 11.734375 6.484375 
Q 5.515625 14.40625 5.515625 27.296875 
Q 5.515625 40.1875 11.734375 48.09375 
Q 17.96875 56 27.875 56 
Q 33.9375 56 38.25 53.625 
Q 42.578125 51.265625 45.40625 46.390625 
z
M 14.796875 27.296875 
Q 14.796875 17.390625 18.875 11.75 
Q 22.953125 6.109375 30.078125 6.109375 
Q 37.203125 6.109375 41.296875 11.75 
Q 45.40625 17.390625 45.40625 27.296875 
Q 45.40625 37.203125 41.296875 42.84375 
Q 37.203125 48.484375 30.078125 48.484375 
Q 22.953125 48.484375 18.875 42.84375 
Q 14.796875 37.203125 14.796875 27.296875 
z
" id="DejaVuSans-100"/>
     </defs>
     <g style="fill:#262626;" transform="translate(351.16 227.804656)scale(0.11 -0.11)">
      <use xlink:href="#DejaVuSans-112"/>
      <use x="63.476562" xlink:href="#DejaVuSans-111"/>
      <use x="124.658203" xlink:href="#DejaVuSans-111"/>
      <use x="185.839844" xlink:href="#DejaVuSans-108"/>
      <use x="213.623047" xlink:href="#DejaVuSans-101"/>
      <use x="275.146484" xlink:href="#DejaVuSans-100"/>
     </g>
    </g>
    <g id="line2d_20">
     <path d="M 320.36 240.100594 
L 342.36 240.100594 
" style="fill:none;stroke:#dd8452;stroke-linecap:round;stroke-width:1.5;"/>
    </g>
    <g id="line2d_21"/>
    <g id="text_16">
     <!-- dad -->
     <defs>
      <path d="M 34.28125 27.484375 
Q 23.390625 27.484375 19.1875 25 
Q 14.984375 22.515625 14.984375 16.5 
Q 14.984375 11.71875 18.140625 8.90625 
Q 21.296875 6.109375 26.703125 6.109375 
Q 34.1875 6.109375 38.703125 11.40625 
Q 43.21875 16.703125 43.21875 25.484375 
L 43.21875 27.484375 
z
M 52.203125 31.203125 
L 52.203125 0 
L 43.21875 0 
L 43.21875 8.296875 
Q 40.140625 3.328125 35.546875 0.953125 
Q 30.953125 -1.421875 24.3125 -1.421875 
Q 15.921875 -1.421875 10.953125 3.296875 
Q 6 8.015625 6 15.921875 
Q 6 25.140625 12.171875 29.828125 
Q 18.359375 34.515625 30.609375 34.515625 
L 43.21875 34.515625 
L 43.21875 35.40625 
Q 43.21875 41.609375 39.140625 45 
Q 35.0625 48.390625 27.6875 48.390625 
Q 23 48.390625 18.546875 47.265625 
Q 14.109375 46.140625 10.015625 43.890625 
L 10.015625 52.203125 
Q 14.9375 54.109375 19.578125 55.046875 
Q 24.21875 56 28.609375 56 
Q 40.484375 56 46.34375 49.84375 
Q 52.203125 43.703125 52.203125 31.203125 
z
" id="DejaVuSans-97"/>
     </defs>
     <g style="fill:#262626;" transform="translate(351.16 243.950594)scale(0.11 -0.11)">
      <use xlink:href="#DejaVuSans-100"/>
      <use x="63.476562" xlink:href="#DejaVuSans-97"/>
      <use x="124.755859" xlink:href="#DejaVuSans-100"/>
     </g>
    </g>
    <g id="line2d_22">
     <path d="M 320.36 256.246531 
L 342.36 256.246531 
" style="fill:none;stroke:#55a868;stroke-linecap:round;stroke-width:1.5;"/>
    </g>
    <g id="line2d_23"/>
    <g id="text_17">
     <!-- edad -->
     <g style="fill:#262626;" transform="translate(351.16 260.096531)scale(0.11 -0.11)">
      <use xlink:href="#DejaVuSans-101"/>
      <use x="61.523438" xlink:href="#DejaVuSans-100"/>
      <use x="125" xlink:href="#DejaVuSans-97"/>
      <use x="186.279297" xlink:href="#DejaVuSans-100"/>
     </g>
    </g>
    <g id="line2d_24">
     <path d="M 320.36 272.392469 
L 342.36 272.392469 
" style="fill:none;stroke:#c44e52;stroke-linecap:round;stroke-width:1.5;"/>
    </g>
    <g id="line2d_25"/>
    <g id="text_18">
     <!-- dsgd -->
     <defs>
      <path d="M 45.40625 27.984375 
Q 45.40625 37.75 41.375 43.109375 
Q 37.359375 48.484375 30.078125 48.484375 
Q 22.859375 48.484375 18.828125 43.109375 
Q 14.796875 37.75 14.796875 27.984375 
Q 14.796875 18.265625 18.828125 12.890625 
Q 22.859375 7.515625 30.078125 7.515625 
Q 37.359375 7.515625 41.375 12.890625 
Q 45.40625 18.265625 45.40625 27.984375 
z
M 54.390625 6.78125 
Q 54.390625 -7.171875 48.1875 -13.984375 
Q 42 -20.796875 29.203125 -20.796875 
Q 24.46875 -20.796875 20.265625 -20.09375 
Q 16.0625 -19.390625 12.109375 -17.921875 
L 12.109375 -9.1875 
Q 16.0625 -11.328125 19.921875 -12.34375 
Q 23.78125 -13.375 27.78125 -13.375 
Q 36.625 -13.375 41.015625 -8.765625 
Q 45.40625 -4.15625 45.40625 5.171875 
L 45.40625 9.625 
Q 42.625 4.78125 38.28125 2.390625 
Q 33.9375 0 27.875 0 
Q 17.828125 0 11.671875 7.65625 
Q 5.515625 15.328125 5.515625 27.984375 
Q 5.515625 40.671875 11.671875 48.328125 
Q 17.828125 56 27.875 56 
Q 33.9375 56 38.28125 53.609375 
Q 42.625 51.21875 45.40625 46.390625 
L 45.40625 54.6875 
L 54.390625 54.6875 
z
" id="DejaVuSans-103"/>
     </defs>
     <g style="fill:#262626;" transform="translate(351.16 276.242469)scale(0.11 -0.11)">
      <use xlink:href="#DejaVuSans-100"/>
      <use x="63.476562" xlink:href="#DejaVuSans-115"/>
      <use x="115.576172" xlink:href="#DejaVuSans-103"/>
      <use x="179.052734" xlink:href="#DejaVuSans-100"/>
     </g>
    </g>
   </g>
  </g>
 </g>
 <defs>
  <clipPath id="p61e1c1e217">
   <rect height="266.112" width="357.12" x="41.192188" y="22.318125"/>
  </clipPath>
 </defs>
</svg>
