<?xml version="1.0" encoding="utf-8" standalone="no"?>
<!DOCTYPE svg PUBLIC "-//W3C//DTD SVG 1.1//EN"
  "http://www.w3.org/Graphics/SVG/1.1/DTD/svg11.dtd">
<!-- Created with matplotlib (https://matplotlib.org/) -->
<svg height="315.776062pt" version="1.1" viewBox="0 0 398.513437 315.776062" width="398.513437pt" xmlns="http://www.w3.org/2000/svg" xmlns:xlink="http://www.w3.org/1999/xlink">
 <defs>
  <style type="text/css">
*{stroke-linecap:butt;stroke-linejoin:round;}
  </style>
 </defs>
 <g id="figure_1">
  <g id="patch_1">
   <path d="M 0 315.776062 
L 398.513437 315.776062 
L 398.513437 0 
L 0 0 
z
" style="fill:#ffffff;"/>
  </g>
  <g id="axes_1">
   <g id="patch_2">
    <path d="M 34.193438 288.430125 
L 391.313438 288.430125 
L 391.313438 22.318125 
L 34.193438 22.318125 
z
" style="fill:#eaeaf2;"/>
   </g>
   <g id="matplotlib.axis_1">
    <g id="xtick_1">
     <g id="line2d_1">
      <path clip-path="url(#p004bd50e27)" d="M 50.426165 288.430125 
L 50.426165 22.318125 
" style="fill:none;stroke:#ffffff;stroke-linecap:round;"/>
     </g>
     <g id="text_1">
      <!-- 0 -->
      <defs>
       <path d="M 31.78125 66.40625 
Q 24.171875 66.40625 20.328125 58.90625 
Q 16.5 51.421875 16.5 36.375 
Q 16.5 21.390625 20.328125 13.890625 
Q 24.171875 6.390625 31.78125 6.390625 
Q 39.453125 6.390625 43.28125 13.890625 
Q 47.125 21.390625 47.125 36.375 
Q 47.125 51.421875 43.28125 58.90625 
Q 39.453125 66.40625 31.78125 66.40625 
z
M 31.78125 74.21875 
Q 44.046875 74.21875 50.515625 64.515625 
Q 56.984375 54.828125 56.984375 36.375 
Q 56.984375 17.96875 50.515625 8.265625 
Q 44.046875 -1.421875 31.78125 -1.421875 
Q 19.53125 -1.421875 13.0625 8.265625 
Q 6.59375 17.96875 6.59375 36.375 
Q 6.59375 54.828125 13.0625 64.515625 
Q 19.53125 74.21875 31.78125 74.21875 
z
" id="DejaVuSans-48"/>
      </defs>
      <g style="fill:#262626;" transform="translate(46.92679 306.288406)scale(0.11 -0.11)">
       <use xlink:href="#DejaVuSans-48"/>
      </g>
     </g>
    </g>
    <g id="xtick_2">
     <g id="line2d_2">
      <path clip-path="url(#p004bd50e27)" d="M 116.012942 288.430125 
L 116.012942 22.318125 
" style="fill:none;stroke:#ffffff;stroke-linecap:round;"/>
     </g>
     <g id="text_2">
      <!-- 20 -->
      <defs>
       <path d="M 19.1875 8.296875 
L 53.609375 8.296875 
L 53.609375 0 
L 7.328125 0 
L 7.328125 8.296875 
Q 12.9375 14.109375 22.625 23.890625 
Q 32.328125 33.6875 34.8125 36.53125 
Q 39.546875 41.84375 41.421875 45.53125 
Q 43.3125 49.21875 43.3125 52.78125 
Q 43.3125 58.59375 39.234375 62.25 
Q 35.15625 65.921875 28.609375 65.921875 
Q 23.96875 65.921875 18.8125 64.3125 
Q 13.671875 62.703125 7.8125 59.421875 
L 7.8125 69.390625 
Q 13.765625 71.78125 18.9375 73 
Q 24.125 74.21875 28.421875 74.21875 
Q 39.75 74.21875 46.484375 68.546875 
Q 53.21875 62.890625 53.21875 53.421875 
Q 53.21875 48.921875 51.53125 44.890625 
Q 49.859375 40.875 45.40625 35.40625 
Q 44.1875 33.984375 37.640625 27.21875 
Q 31.109375 20.453125 19.1875 8.296875 
z
" id="DejaVuSans-50"/>
      </defs>
      <g style="fill:#262626;" transform="translate(109.014192 306.288406)scale(0.11 -0.11)">
       <use xlink:href="#DejaVuSans-50"/>
       <use x="63.623047" xlink:href="#DejaVuSans-48"/>
      </g>
     </g>
    </g>
    <g id="xtick_3">
     <g id="line2d_3">
      <path clip-path="url(#p004bd50e27)" d="M 181.599718 288.430125 
L 181.599718 22.318125 
" style="fill:none;stroke:#ffffff;stroke-linecap:round;"/>
     </g>
     <g id="text_3">
      <!-- 40 -->
      <defs>
       <path d="M 37.796875 64.3125 
L 12.890625 25.390625 
L 37.796875 25.390625 
z
M 35.203125 72.90625 
L 47.609375 72.90625 
L 47.609375 25.390625 
L 58.015625 25.390625 
L 58.015625 17.1875 
L 47.609375 17.1875 
L 47.609375 0 
L 37.796875 0 
L 37.796875 17.1875 
L 4.890625 17.1875 
L 4.890625 26.703125 
z
" id="DejaVuSans-52"/>
      </defs>
      <g style="fill:#262626;" transform="translate(174.600968 306.288406)scale(0.11 -0.11)">
       <use xlink:href="#DejaVuSans-52"/>
       <use x="63.623047" xlink:href="#DejaVuSans-48"/>
      </g>
     </g>
    </g>
    <g id="xtick_4">
     <g id="line2d_4">
      <path clip-path="url(#p004bd50e27)" d="M 247.186495 288.430125 
L 247.186495 22.318125 
" style="fill:none;stroke:#ffffff;stroke-linecap:round;"/>
     </g>
     <g id="text_4">
      <!-- 60 -->
      <defs>
       <path d="M 33.015625 40.375 
Q 26.375 40.375 22.484375 35.828125 
Q 18.609375 31.296875 18.609375 23.390625 
Q 18.609375 15.53125 22.484375 10.953125 
Q 26.375 6.390625 33.015625 6.390625 
Q 39.65625 6.390625 43.53125 10.953125 
Q 47.40625 15.53125 47.40625 23.390625 
Q 47.40625 31.296875 43.53125 35.828125 
Q 39.65625 40.375 33.015625 40.375 
z
M 52.59375 71.296875 
L 52.59375 62.3125 
Q 48.875 64.0625 45.09375 64.984375 
Q 41.3125 65.921875 37.59375 65.921875 
Q 27.828125 65.921875 22.671875 59.328125 
Q 17.53125 52.734375 16.796875 39.40625 
Q 19.671875 43.65625 24.015625 45.921875 
Q 28.375 48.1875 33.59375 48.1875 
Q 44.578125 48.1875 50.953125 41.515625 
Q 57.328125 34.859375 57.328125 23.390625 
Q 57.328125 12.15625 50.6875 5.359375 
Q 44.046875 -1.421875 33.015625 -1.421875 
Q 20.359375 -1.421875 13.671875 8.265625 
Q 6.984375 17.96875 6.984375 36.375 
Q 6.984375 53.65625 15.1875 63.9375 
Q 23.390625 74.21875 37.203125 74.21875 
Q 40.921875 74.21875 44.703125 73.484375 
Q 48.484375 72.75 52.59375 71.296875 
z
" id="DejaVuSans-54"/>
      </defs>
      <g style="fill:#262626;" transform="translate(240.187745 306.288406)scale(0.11 -0.11)">
       <use xlink:href="#DejaVuSans-54"/>
       <use x="63.623047" xlink:href="#DejaVuSans-48"/>
      </g>
     </g>
    </g>
    <g id="xtick_5">
     <g id="line2d_5">
      <path clip-path="url(#p004bd50e27)" d="M 312.773272 288.430125 
L 312.773272 22.318125 
" style="fill:none;stroke:#ffffff;stroke-linecap:round;"/>
     </g>
     <g id="text_5">
      <!-- 80 -->
      <defs>
       <path d="M 31.78125 34.625 
Q 24.75 34.625 20.71875 30.859375 
Q 16.703125 27.09375 16.703125 20.515625 
Q 16.703125 13.921875 20.71875 10.15625 
Q 24.75 6.390625 31.78125 6.390625 
Q 38.8125 6.390625 42.859375 10.171875 
Q 46.921875 13.96875 46.921875 20.515625 
Q 46.921875 27.09375 42.890625 30.859375 
Q 38.875 34.625 31.78125 34.625 
z
M 21.921875 38.8125 
Q 15.578125 40.375 12.03125 44.71875 
Q 8.5 49.078125 8.5 55.328125 
Q 8.5 64.0625 14.71875 69.140625 
Q 20.953125 74.21875 31.78125 74.21875 
Q 42.671875 74.21875 48.875 69.140625 
Q 55.078125 64.0625 55.078125 55.328125 
Q 55.078125 49.078125 51.53125 44.71875 
Q 48 40.375 41.703125 38.8125 
Q 48.828125 37.15625 52.796875 32.3125 
Q 56.78125 27.484375 56.78125 20.515625 
Q 56.78125 9.90625 50.3125 4.234375 
Q 43.84375 -1.421875 31.78125 -1.421875 
Q 19.734375 -1.421875 13.25 4.234375 
Q 6.78125 9.90625 6.78125 20.515625 
Q 6.78125 27.484375 10.78125 32.3125 
Q 14.796875 37.15625 21.921875 38.8125 
z
M 18.3125 54.390625 
Q 18.3125 48.734375 21.84375 45.5625 
Q 25.390625 42.390625 31.78125 42.390625 
Q 38.140625 42.390625 41.71875 45.5625 
Q 45.3125 48.734375 45.3125 54.390625 
Q 45.3125 60.0625 41.71875 63.234375 
Q 38.140625 66.40625 31.78125 66.40625 
Q 25.390625 66.40625 21.84375 63.234375 
Q 18.3125 60.0625 18.3125 54.390625 
z
" id="DejaVuSans-56"/>
      </defs>
      <g style="fill:#262626;" transform="translate(305.774522 306.288406)scale(0.11 -0.11)">
       <use xlink:href="#DejaVuSans-56"/>
       <use x="63.623047" xlink:href="#DejaVuSans-48"/>
      </g>
     </g>
    </g>
    <g id="xtick_6">
     <g id="line2d_6">
      <path clip-path="url(#p004bd50e27)" d="M 378.360049 288.430125 
L 378.360049 22.318125 
" style="fill:none;stroke:#ffffff;stroke-linecap:round;"/>
     </g>
     <g id="text_6">
      <!-- 100 -->
      <defs>
       <path d="M 12.40625 8.296875 
L 28.515625 8.296875 
L 28.515625 63.921875 
L 10.984375 60.40625 
L 10.984375 69.390625 
L 28.421875 72.90625 
L 38.28125 72.90625 
L 38.28125 8.296875 
L 54.390625 8.296875 
L 54.390625 0 
L 12.40625 0 
z
" id="DejaVuSans-49"/>
      </defs>
      <g style="fill:#262626;" transform="translate(367.861924 306.288406)scale(0.11 -0.11)">
       <use xlink:href="#DejaVuSans-49"/>
       <use x="63.623047" xlink:href="#DejaVuSans-48"/>
       <use x="127.246094" xlink:href="#DejaVuSans-48"/>
      </g>
     </g>
    </g>
   </g>
   <g id="matplotlib.axis_2">
    <g id="ytick_1">
     <g id="line2d_7">
      <path clip-path="url(#p004bd50e27)" d="M 34.193438 246.934125 
L 391.313438 246.934125 
" style="fill:none;stroke:#ffffff;stroke-linecap:round;"/>
     </g>
     <g id="text_7">
      <!-- 0.4 -->
      <defs>
       <path d="M 10.6875 12.40625 
L 21 12.40625 
L 21 0 
L 10.6875 0 
z
" id="DejaVuSans-46"/>
      </defs>
      <g style="fill:#262626;" transform="translate(7.2 251.113266)scale(0.11 -0.11)">
       <use xlink:href="#DejaVuSans-48"/>
       <use x="63.623047" xlink:href="#DejaVuSans-46"/>
       <use x="95.410156" xlink:href="#DejaVuSans-52"/>
      </g>
     </g>
    </g>
    <g id="ytick_2">
     <g id="line2d_8">
      <path clip-path="url(#p004bd50e27)" d="M 34.193438 188.974125 
L 391.313438 188.974125 
" style="fill:none;stroke:#ffffff;stroke-linecap:round;"/>
     </g>
     <g id="text_8">
      <!-- 0.5 -->
      <defs>
       <path d="M 10.796875 72.90625 
L 49.515625 72.90625 
L 49.515625 64.59375 
L 19.828125 64.59375 
L 19.828125 46.734375 
Q 21.96875 47.46875 24.109375 47.828125 
Q 26.265625 48.1875 28.421875 48.1875 
Q 40.625 48.1875 47.75 41.5 
Q 54.890625 34.8125 54.890625 23.390625 
Q 54.890625 11.625 47.5625 5.09375 
Q 40.234375 -1.421875 26.90625 -1.421875 
Q 22.3125 -1.421875 17.546875 -0.640625 
Q 12.796875 0.140625 7.71875 1.703125 
L 7.71875 11.625 
Q 12.109375 9.234375 16.796875 8.0625 
Q 21.484375 6.890625 26.703125 6.890625 
Q 35.15625 6.890625 40.078125 11.328125 
Q 45.015625 15.765625 45.015625 23.390625 
Q 45.015625 31 40.078125 35.4375 
Q 35.15625 39.890625 26.703125 39.890625 
Q 22.75 39.890625 18.8125 39.015625 
Q 14.890625 38.140625 10.796875 36.28125 
z
" id="DejaVuSans-53"/>
      </defs>
      <g style="fill:#262626;" transform="translate(7.2 193.153266)scale(0.11 -0.11)">
       <use xlink:href="#DejaVuSans-48"/>
       <use x="63.623047" xlink:href="#DejaVuSans-46"/>
       <use x="95.410156" xlink:href="#DejaVuSans-53"/>
      </g>
     </g>
    </g>
    <g id="ytick_3">
     <g id="line2d_9">
      <path clip-path="url(#p004bd50e27)" d="M 34.193438 131.014125 
L 391.313438 131.014125 
" style="fill:none;stroke:#ffffff;stroke-linecap:round;"/>
     </g>
     <g id="text_9">
      <!-- 0.6 -->
      <g style="fill:#262626;" transform="translate(7.2 135.193266)scale(0.11 -0.11)">
       <use xlink:href="#DejaVuSans-48"/>
       <use x="63.623047" xlink:href="#DejaVuSans-46"/>
       <use x="95.410156" xlink:href="#DejaVuSans-54"/>
      </g>
     </g>
    </g>
    <g id="ytick_4">
     <g id="line2d_10">
      <path clip-path="url(#p004bd50e27)" d="M 34.193438 73.054125 
L 391.313438 73.054125 
" style="fill:none;stroke:#ffffff;stroke-linecap:round;"/>
     </g>
     <g id="text_10">
      <!-- 0.7 -->
      <defs>
       <path d="M 8.203125 72.90625 
L 55.078125 72.90625 
L 55.078125 68.703125 
L 28.609375 0 
L 18.3125 0 
L 43.21875 64.59375 
L 8.203125 64.59375 
z
" id="DejaVuSans-55"/>
      </defs>
      <g style="fill:#262626;" transform="translate(7.2 77.233266)scale(0.11 -0.11)">
       <use xlink:href="#DejaVuSans-48"/>
       <use x="63.623047" xlink:href="#DejaVuSans-46"/>
       <use x="95.410156" xlink:href="#DejaVuSans-55"/>
      </g>
     </g>
    </g>
   </g>
   <g id="PolyCollection_1">
    <defs>
     <path d="M 50.426165 -70.521938 
L 50.426165 -39.441938 
L 53.705504 -124.281938 
L 56.984842 -154.521938 
L 60.264181 -161.241938 
L 63.54352 -167.961937 
L 66.822859 -182.241938 
L 70.102198 -187.260938 
L 73.381537 -192.321938 
L 76.660876 -205.761938 
L 79.940214 -220.041938 
L 83.219553 -221.721938 
L 86.498892 -227.601938 
L 89.778231 -229.281938 
L 93.05757 -230.961938 
L 96.336909 -230.121938 
L 99.616247 -228.441938 
L 102.895586 -228.441938 
L 106.174925 -232.641938 
L 109.454264 -234.321938 
L 112.733603 -232.641938 
L 116.012942 -236.841938 
L 119.29228 -240.201938 
L 122.571619 -243.561938 
L 125.850958 -241.881938 
L 129.130297 -247.761938 
L 132.409636 -247.761938 
L 135.688975 -246.921938 
L 138.968314 -249.441938 
L 142.247652 -249.441938 
L 145.526991 -251.121938 
L 148.80633 -246.081938 
L 152.085669 -246.081938 
L 155.365008 -246.081938 
L 158.644347 -246.081938 
L 161.923685 -246.081938 
L 165.203024 -246.081938 
L 168.482363 -246.081938 
L 171.761702 -246.081938 
L 175.041041 -248.601938 
L 178.32038 -248.601938 
L 181.599718 -248.601938 
L 184.879057 -251.121938 
L 188.158396 -249.441938 
L 191.437735 -248.601938 
L 194.717074 -248.601938 
L 197.996413 -248.601938 
L 201.275752 -251.121938 
L 204.55509 -244.401938 
L 207.834429 -244.401938 
L 211.113768 -246.039938 
L 214.393107 -246.921938 
L 217.672446 -248.601938 
L 220.951785 -246.921938 
L 224.231123 -245.241938 
L 227.510462 -246.921938 
L 230.789801 -246.921938 
L 234.06914 -246.879938 
L 237.348479 -245.241938 
L 240.627818 -246.921938 
L 243.907157 -246.921938 
L 247.186495 -248.559938 
L 250.465834 -246.921938 
L 253.745173 -246.921938 
L 257.024512 -246.921938 
L 260.303851 -246.921938 
L 263.58319 -246.921938 
L 266.862528 -246.921938 
L 270.141867 -246.921938 
L 273.421206 -245.241938 
L 276.700545 -245.241938 
L 279.979884 -246.921938 
L 283.259223 -249.441938 
L 286.538561 -246.921938 
L 289.8179 -244.401938 
L 293.097239 -244.401938 
L 296.376578 -246.039938 
L 299.655917 -244.401938 
L 302.935256 -244.401938 
L 306.214595 -243.561938 
L 309.493933 -243.561938 
L 312.773272 -243.561938 
L 316.052611 -243.561938 
L 319.33195 -243.561938 
L 322.611289 -243.561938 
L 325.890628 -243.561938 
L 329.169966 -242.721938 
L 332.449305 -246.921938 
L 335.728644 -243.561938 
L 339.007983 -243.561938 
L 342.287322 -243.561938 
L 345.566661 -246.018938 
L 348.845999 -243.561938 
L 352.125338 -243.561938 
L 355.404677 -243.561938 
L 358.684016 -243.561938 
L 361.963355 -243.498938 
L 365.242694 -243.561938 
L 368.522033 -243.561938 
L 371.801371 -242.721938 
L 375.08071 -246.921938 
L 375.08071 -278.841938 
L 375.08071 -278.841938 
L 371.801371 -278.841938 
L 368.522033 -281.361938 
L 365.242694 -281.361938 
L 361.963355 -278.841938 
L 358.684016 -278.841938 
L 355.404677 -278.883938 
L 352.125338 -281.361938 
L 348.845999 -278.841938 
L 345.566661 -278.841938 
L 342.287322 -280.521938 
L 339.007983 -278.841938 
L 335.728644 -278.841938 
L 332.449305 -278.841938 
L 329.169966 -278.841938 
L 325.890628 -278.001938 
L 322.611289 -278.001938 
L 319.33195 -278.001938 
L 316.052611 -278.001938 
L 312.773272 -278.001938 
L 309.493933 -278.001938 
L 306.214595 -278.001938 
L 302.935256 -278.841938 
L 299.655917 -278.001938 
L 296.376578 -278.001938 
L 293.097239 -278.001938 
L 289.8179 -279.681938 
L 286.538561 -279.681938 
L 283.259223 -278.862938 
L 279.979884 -278.022938 
L 276.700545 -279.681938 
L 273.421206 -278.022938 
L 270.141867 -278.862938 
L 266.862528 -279.681938 
L 263.58319 -278.001938 
L 260.303851 -278.841938 
L 257.024512 -278.001938 
L 253.745173 -278.001938 
L 250.465834 -278.841938 
L 247.186495 -279.681938 
L 243.907157 -278.001938 
L 240.627818 -278.001938 
L 237.348479 -278.001938 
L 234.06914 -275.481938 
L 230.789801 -275.481938 
L 227.510462 -275.481938 
L 224.231123 -275.481938 
L 220.951785 -275.481938 
L 217.672446 -275.481938 
L 214.393107 -275.481938 
L 211.113768 -275.481938 
L 207.834429 -275.481938 
L 204.55509 -275.481938 
L 201.275752 -277.161938 
L 197.996413 -275.481938 
L 194.717074 -275.481938 
L 191.437735 -275.481938 
L 188.158396 -274.662938 
L 184.879057 -275.481938 
L 181.599718 -275.481938 
L 178.32038 -275.481938 
L 175.041041 -272.961938 
L 171.761702 -272.961938 
L 168.482363 -272.982938 
L 165.203024 -272.961938 
L 161.923685 -270.441938 
L 158.644347 -270.441938 
L 155.365008 -270.441938 
L 152.085669 -272.961938 
L 148.80633 -272.961938 
L 145.526991 -270.441938 
L 142.247652 -269.601938 
L 138.968314 -268.761938 
L 135.688975 -268.761938 
L 132.409636 -269.601938 
L 129.130297 -270.441938 
L 125.850958 -268.761938 
L 122.571619 -271.281938 
L 119.29228 -267.921938 
L 116.012942 -264.561938 
L 112.733603 -256.203938 
L 109.454264 -258.681938 
L 106.174925 -260.361938 
L 102.895586 -263.721938 
L 99.616247 -265.401938 
L 96.336909 -263.721938 
L 93.05757 -252.801938 
L 89.778231 -247.761938 
L 86.498892 -244.401938 
L 83.219553 -236.001938 
L 79.940214 -223.401938 
L 76.660876 -222.561938 
L 73.381537 -220.041938 
L 70.102198 -212.481938 
L 66.822859 -209.121938 
L 63.54352 -204.921938 
L 60.264181 -204.921938 
L 56.984842 -190.641938 
L 53.705504 -143.601938 
L 50.426165 -70.521938 
z
" id="m96cdd22b5d" style="stroke:#4c72b0;stroke-opacity:0.2;"/>
    </defs>
    <g clip-path="url(#p004bd50e27)">
     <use style="fill:#4c72b0;fill-opacity:0.2;stroke:#4c72b0;stroke-opacity:0.2;" x="0" xlink:href="#m96cdd22b5d" y="315.776062"/>
    </g>
   </g>
   <g id="PolyCollection_2">
    <defs>
     <path d="M 50.426165 -78.081938 
L 50.426165 -66.321938 
L 53.705504 -131.841938 
L 56.984842 -172.161938 
L 60.264181 -185.601938 
L 63.54352 -185.601938 
L 66.822859 -190.641938 
L 70.102198 -189.759937 
L 73.381537 -192.321938 
L 76.660876 -191.418938 
L 79.940214 -194.841938 
L 83.219553 -204.921938 
L 86.498892 -210.801938 
L 89.778231 -213.321938 
L 93.05757 -209.961938 
L 96.336909 -213.321938 
L 99.616247 -212.481938 
L 102.895586 -214.161938 
L 106.174925 -216.681938 
L 109.454264 -221.721938 
L 112.733603 -220.041938 
L 116.012942 -224.199938 
L 119.29228 -224.241938 
L 122.571619 -222.561938 
L 125.850958 -224.241938 
L 129.130297 -222.561938 
L 132.409636 -222.561938 
L 135.688975 -223.401938 
L 138.968314 -223.401938 
L 142.247652 -223.401938 
L 145.526991 -223.401938 
L 148.80633 -223.401938 
L 152.085669 -225.921938 
L 155.365008 -227.601938 
L 158.644347 -228.441938 
L 161.923685 -230.961938 
L 165.203024 -231.801938 
L 168.482363 -232.641938 
L 171.761702 -233.481938 
L 175.041041 -234.321938 
L 178.32038 -237.681938 
L 181.599718 -236.841938 
L 184.879057 -237.681938 
L 188.158396 -240.999938 
L 191.437735 -241.041938 
L 194.717074 -238.521938 
L 197.996413 -238.479938 
L 201.275752 -238.521938 
L 204.55509 -237.681938 
L 207.834429 -237.681938 
L 211.113768 -238.521938 
L 214.393107 -238.521938 
L 217.672446 -238.521938 
L 220.951785 -238.521938 
L 224.231123 -238.521938 
L 227.510462 -238.521938 
L 230.789801 -238.521938 
L 234.06914 -238.521938 
L 237.348479 -238.521938 
L 240.627818 -238.521938 
L 243.907157 -238.521938 
L 247.186495 -238.521938 
L 250.465834 -238.521938 
L 253.745173 -238.521938 
L 257.024512 -238.521938 
L 260.303851 -238.521938 
L 263.58319 -238.521938 
L 266.862528 -238.521938 
L 270.141867 -238.521938 
L 273.421206 -238.521938 
L 276.700545 -238.521938 
L 279.979884 -238.521938 
L 283.259223 -238.521938 
L 286.538561 -238.521938 
L 289.8179 -240.201938 
L 293.097239 -238.521938 
L 296.376578 -238.521938 
L 299.655917 -240.159938 
L 302.935256 -238.521938 
L 306.214595 -238.521938 
L 309.493933 -238.521938 
L 312.773272 -241.881938 
L 316.052611 -238.521938 
L 319.33195 -238.521938 
L 322.611289 -238.521938 
L 325.890628 -238.521938 
L 329.169966 -238.521938 
L 332.449305 -238.521938 
L 335.728644 -238.521938 
L 339.007983 -238.521938 
L 342.287322 -238.521938 
L 345.566661 -238.521938 
L 348.845999 -241.041938 
L 352.125338 -241.041938 
L 355.404677 -241.041938 
L 358.684016 -241.041938 
L 361.963355 -241.041938 
L 365.242694 -241.041938 
L 368.522033 -241.041938 
L 371.801371 -241.041938 
L 375.08071 -241.041938 
L 375.08071 -268.761938 
L 375.08071 -268.761938 
L 371.801371 -268.761938 
L 368.522033 -268.761938 
L 365.242694 -268.761938 
L 361.963355 -268.761938 
L 358.684016 -268.761938 
L 355.404677 -268.761938 
L 352.125338 -268.761938 
L 348.845999 -268.761938 
L 345.566661 -266.304938 
L 342.287322 -268.761938 
L 339.007983 -268.761938 
L 335.728644 -268.761938 
L 332.449305 -268.761938 
L 329.169966 -268.761938 
L 325.890628 -271.281938 
L 322.611289 -271.281938 
L 319.33195 -267.921938 
L 316.052611 -271.281938 
L 312.773272 -271.281938 
L 309.493933 -267.921938 
L 306.214595 -271.281938 
L 302.935256 -266.241938 
L 299.655917 -266.241938 
L 296.376578 -266.241938 
L 293.097239 -266.241938 
L 289.8179 -266.241938 
L 286.538561 -266.241938 
L 283.259223 -266.241938 
L 279.979884 -266.241938 
L 276.700545 -266.241938 
L 273.421206 -266.241938 
L 270.141867 -268.761938 
L 266.862528 -268.761938 
L 263.58319 -268.761938 
L 260.303851 -268.761938 
L 257.024512 -268.761938 
L 253.745173 -268.761938 
L 250.465834 -266.304938 
L 247.186495 -268.761938 
L 243.907157 -268.761938 
L 240.627818 -268.761938 
L 237.348479 -268.761938 
L 234.06914 -268.761938 
L 230.789801 -268.761938 
L 227.510462 -268.761938 
L 224.231123 -268.761938 
L 220.951785 -268.761938 
L 217.672446 -266.241938 
L 214.393107 -266.241938 
L 211.113768 -266.241938 
L 207.834429 -265.401938 
L 204.55509 -264.561938 
L 201.275752 -266.241938 
L 197.996413 -267.081938 
L 194.717074 -267.081938 
L 191.437735 -267.081938 
L 188.158396 -267.081938 
L 184.879057 -267.081938 
L 181.599718 -263.721938 
L 178.32038 -267.081938 
L 175.041041 -269.601938 
L 171.761702 -267.921938 
L 168.482363 -270.441938 
L 165.203024 -268.761938 
L 161.923685 -267.081938 
L 158.644347 -267.081938 
L 155.365008 -267.081938 
L 152.085669 -267.942938 
L 148.80633 -262.881938 
L 145.526991 -260.361938 
L 142.247652 -263.721938 
L 138.968314 -260.361938 
L 135.688975 -258.681938 
L 132.409636 -259.521938 
L 129.130297 -259.521938 
L 125.850958 -257.883938 
L 122.571619 -257.841938 
L 119.29228 -259.521938 
L 116.012942 -257.841938 
L 112.733603 -257.841938 
L 109.454264 -257.841938 
L 106.174925 -260.361938 
L 102.895586 -259.521938 
L 99.616247 -255.321938 
L 96.336909 -254.481938 
L 93.05757 -249.441938 
L 89.778231 -248.601938 
L 86.498892 -252.801938 
L 83.219553 -242.721938 
L 79.940214 -240.201938 
L 76.660876 -236.841938 
L 73.381537 -230.121938 
L 70.102198 -230.121938 
L 66.822859 -225.081938 
L 63.54352 -216.702938 
L 60.264181 -207.441938 
L 56.984842 -188.121938 
L 53.705504 -160.401938 
L 50.426165 -78.081938 
z
" id="m66bc2b21b9" style="stroke:#c44e52;stroke-opacity:0.2;"/>
    </defs>
    <g clip-path="url(#p004bd50e27)">
     <use style="fill:#c44e52;fill-opacity:0.2;stroke:#c44e52;stroke-opacity:0.2;" x="0" xlink:href="#m66bc2b21b9" y="315.776062"/>
    </g>
   </g>
   <g id="line2d_11">
    <path clip-path="url(#p004bd50e27)" d="M 50.426165 259.534125 
L 53.705504 179.734125 
L 56.984842 141.934125 
L 60.264181 132.694125 
L 63.54352 129.334125 
L 66.822859 120.094125 
L 70.102198 113.374125 
L 73.381537 106.654125 
L 76.660876 100.774125 
L 79.940214 94.054125 
L 83.219553 85.654125 
L 86.498892 78.094125 
L 89.778231 75.574125 
L 93.05757 71.374125 
L 96.336909 65.494125 
L 99.616247 63.814125 
L 102.895586 64.654125 
L 106.174925 65.494125 
L 109.454264 66.334125 
L 112.733603 68.014125 
L 116.012942 62.974125 
L 119.29228 58.774125 
L 122.571619 56.254125 
L 125.850958 60.454125 
L 129.130297 55.414125 
L 132.409636 55.414125 
L 135.688975 56.254125 
L 138.968314 55.414125 
L 142.247652 55.414125 
L 145.526991 52.894125 
L 148.80633 53.734125 
L 152.085669 53.734125 
L 155.365008 54.574125 
L 158.644347 54.574125 
L 161.923685 54.574125 
L 165.203024 53.734125 
L 168.482363 53.734125 
L 171.761702 53.734125 
L 175.041041 52.894125 
L 178.32038 52.054125 
L 181.599718 52.054125 
L 184.879057 52.054125 
L 188.158396 52.054125 
L 191.437735 52.054125 
L 194.717074 52.054125 
L 197.996413 52.054125 
L 201.275752 51.214125 
L 204.55509 52.894125 
L 207.834429 52.894125 
L 211.113768 52.894125 
L 214.393107 52.054125 
L 217.672446 52.054125 
L 220.951785 52.054125 
L 224.231123 52.054125 
L 227.510462 52.054125 
L 230.789801 52.054125 
L 234.06914 52.054125 
L 237.348479 51.214125 
L 240.627818 51.214125 
L 243.907157 51.214125 
L 247.186495 51.214125 
L 250.465834 51.214125 
L 253.745173 51.214125 
L 257.024512 51.214125 
L 260.303851 51.214125 
L 263.58319 51.214125 
L 266.862528 51.214125 
L 270.141867 51.214125 
L 273.421206 51.214125 
L 276.700545 51.214125 
L 279.979884 51.214125 
L 283.259223 51.214125 
L 286.538561 51.214125 
L 289.8179 52.054125 
L 293.097239 52.054125 
L 296.376578 52.054125 
L 299.655917 52.054125 
L 302.935256 52.054125 
L 306.214595 52.894125 
L 309.493933 52.894125 
L 312.773272 52.894125 
L 316.052611 52.894125 
L 319.33195 52.894125 
L 322.611289 52.894125 
L 325.890628 52.894125 
L 329.169966 52.054125 
L 332.449305 52.054125 
L 335.728644 52.894125 
L 339.007983 52.894125 
L 342.287322 52.894125 
L 345.566661 52.894125 
L 348.845999 52.894125 
L 352.125338 52.894125 
L 355.404677 52.894125 
L 358.684016 52.894125 
L 361.963355 52.894125 
L 365.242694 52.894125 
L 368.522033 52.894125 
L 371.801371 53.734125 
L 375.08071 53.734125 
" style="fill:none;stroke:#4c72b0;stroke-linecap:round;stroke-width:1.5;"/>
   </g>
   <g id="line2d_12">
    <path clip-path="url(#p004bd50e27)" d="M 50.426165 243.574125 
L 53.705504 169.654125 
L 56.984842 135.214125 
L 60.264181 119.254125 
L 63.54352 111.694125 
L 66.822859 104.974125 
L 70.102198 104.134125 
L 73.381537 100.774125 
L 76.660876 98.254125 
L 79.940214 94.054125 
L 83.219553 87.334125 
L 86.498892 78.094125 
L 89.778231 78.934125 
L 93.05757 80.614125 
L 96.336909 77.254125 
L 99.616247 77.254125 
L 102.895586 76.414125 
L 106.174925 75.574125 
L 109.454264 74.734125 
L 112.733603 76.414125 
L 116.012942 74.734125 
L 119.29228 74.734125 
L 122.571619 75.574125 
L 125.850958 73.894125 
L 129.130297 73.894125 
L 132.409636 73.894125 
L 135.688975 73.054125 
L 138.968314 72.214125 
L 142.247652 72.214125 
L 145.526991 72.214125 
L 148.80633 71.374125 
L 152.085669 68.854125 
L 155.365008 68.854125 
L 158.644347 68.014125 
L 161.923685 67.174125 
L 165.203024 65.494125 
L 168.482363 63.814125 
L 171.761702 63.814125 
L 175.041041 62.134125 
L 178.32038 62.974125 
L 181.599718 62.134125 
L 184.879057 61.294125 
L 188.158396 59.614125 
L 191.437735 59.614125 
L 194.717074 60.454125 
L 197.996413 60.454125 
L 201.275752 61.294125 
L 204.55509 62.134125 
L 207.834429 62.134125 
L 211.113768 60.454125 
L 214.393107 60.454125 
L 217.672446 60.454125 
L 220.951785 59.614125 
L 224.231123 59.614125 
L 227.510462 59.614125 
L 230.789801 59.614125 
L 234.06914 59.614125 
L 237.348479 59.614125 
L 240.627818 59.614125 
L 243.907157 59.614125 
L 247.186495 59.614125 
L 250.465834 59.614125 
L 253.745173 59.614125 
L 257.024512 59.614125 
L 260.303851 59.614125 
L 263.58319 59.614125 
L 266.862528 59.614125 
L 270.141867 59.614125 
L 273.421206 60.454125 
L 276.700545 60.454125 
L 279.979884 60.454125 
L 283.259223 60.454125 
L 286.538561 60.454125 
L 289.8179 60.454125 
L 293.097239 60.454125 
L 296.376578 60.454125 
L 299.655917 60.454125 
L 302.935256 60.454125 
L 306.214595 58.774125 
L 309.493933 58.774125 
L 312.773272 58.774125 
L 316.052611 58.774125 
L 319.33195 58.774125 
L 322.611289 58.774125 
L 325.890628 58.774125 
L 329.169966 59.614125 
L 332.449305 59.614125 
L 335.728644 59.614125 
L 339.007983 59.614125 
L 342.287322 59.614125 
L 345.566661 59.614125 
L 348.845999 58.774125 
L 352.125338 58.774125 
L 355.404677 58.774125 
L 358.684016 58.774125 
L 361.963355 58.774125 
L 365.242694 58.774125 
L 368.522033 58.774125 
L 371.801371 58.774125 
L 375.08071 58.774125 
" style="fill:none;stroke:#c44e52;stroke-linecap:round;stroke-width:1.5;"/>
   </g>
   <g id="patch_3">
    <path d="M 34.193438 288.430125 
L 34.193438 22.318125 
" style="fill:none;stroke:#ffffff;stroke-linecap:square;stroke-linejoin:miter;stroke-width:1.25;"/>
   </g>
   <g id="patch_4">
    <path d="M 391.313438 288.430125 
L 391.313438 22.318125 
" style="fill:none;stroke:#ffffff;stroke-linecap:square;stroke-linejoin:miter;stroke-width:1.25;"/>
   </g>
   <g id="patch_5">
    <path d="M 34.193438 288.430125 
L 391.313437 288.430125 
" style="fill:none;stroke:#ffffff;stroke-linecap:square;stroke-linejoin:miter;stroke-width:1.25;"/>
   </g>
   <g id="patch_6">
    <path d="M 34.193438 22.318125 
L 391.313437 22.318125 
" style="fill:none;stroke:#ffffff;stroke-linecap:square;stroke-linejoin:miter;stroke-width:1.25;"/>
   </g>
   <g id="text_11">
    <!-- tapnet-Epilepsy -->
    <defs>
     <path d="M 18.3125 70.21875 
L 18.3125 54.6875 
L 36.8125 54.6875 
L 36.8125 47.703125 
L 18.3125 47.703125 
L 18.3125 18.015625 
Q 18.3125 11.328125 20.140625 9.421875 
Q 21.96875 7.515625 27.59375 7.515625 
L 36.8125 7.515625 
L 36.8125 0 
L 27.59375 0 
Q 17.1875 0 13.234375 3.875 
Q 9.28125 7.765625 9.28125 18.015625 
L 9.28125 47.703125 
L 2.6875 47.703125 
L 2.6875 54.6875 
L 9.28125 54.6875 
L 9.28125 70.21875 
z
" id="DejaVuSans-116"/>
     <path d="M 34.28125 27.484375 
Q 23.390625 27.484375 19.1875 25 
Q 14.984375 22.515625 14.984375 16.5 
Q 14.984375 11.71875 18.140625 8.90625 
Q 21.296875 6.109375 26.703125 6.109375 
Q 34.1875 6.109375 38.703125 11.40625 
Q 43.21875 16.703125 43.21875 25.484375 
L 43.21875 27.484375 
z
M 52.203125 31.203125 
L 52.203125 0 
L 43.21875 0 
L 43.21875 8.296875 
Q 40.140625 3.328125 35.546875 0.953125 
Q 30.953125 -1.421875 24.3125 -1.421875 
Q 15.921875 -1.421875 10.953125 3.296875 
Q 6 8.015625 6 15.921875 
Q 6 25.140625 12.171875 29.828125 
Q 18.359375 34.515625 30.609375 34.515625 
L 43.21875 34.515625 
L 43.21875 35.40625 
Q 43.21875 41.609375 39.140625 45 
Q 35.0625 48.390625 27.6875 48.390625 
Q 23 48.390625 18.546875 47.265625 
Q 14.109375 46.140625 10.015625 43.890625 
L 10.015625 52.203125 
Q 14.9375 54.109375 19.578125 55.046875 
Q 24.21875 56 28.609375 56 
Q 40.484375 56 46.34375 49.84375 
Q 52.203125 43.703125 52.203125 31.203125 
z
" id="DejaVuSans-97"/>
     <path d="M 18.109375 8.203125 
L 18.109375 -20.796875 
L 9.078125 -20.796875 
L 9.078125 54.6875 
L 18.109375 54.6875 
L 18.109375 46.390625 
Q 20.953125 51.265625 25.265625 53.625 
Q 29.59375 56 35.59375 56 
Q 45.5625 56 51.78125 48.09375 
Q 58.015625 40.1875 58.015625 27.296875 
Q 58.015625 14.40625 51.78125 6.484375 
Q 45.5625 -1.421875 35.59375 -1.421875 
Q 29.59375 -1.421875 25.265625 0.953125 
Q 20.953125 3.328125 18.109375 8.203125 
z
M 48.6875 27.296875 
Q 48.6875 37.203125 44.609375 42.84375 
Q 40.53125 48.484375 33.40625 48.484375 
Q 26.265625 48.484375 22.1875 42.84375 
Q 18.109375 37.203125 18.109375 27.296875 
Q 18.109375 17.390625 22.1875 11.75 
Q 26.265625 6.109375 33.40625 6.109375 
Q 40.53125 6.109375 44.609375 11.75 
Q 48.6875 17.390625 48.6875 27.296875 
z
" id="DejaVuSans-112"/>
     <path d="M 54.890625 33.015625 
L 54.890625 0 
L 45.90625 0 
L 45.90625 32.71875 
Q 45.90625 40.484375 42.875 44.328125 
Q 39.84375 48.1875 33.796875 48.1875 
Q 26.515625 48.1875 22.3125 43.546875 
Q 18.109375 38.921875 18.109375 30.90625 
L 18.109375 0 
L 9.078125 0 
L 9.078125 54.6875 
L 18.109375 54.6875 
L 18.109375 46.1875 
Q 21.34375 51.125 25.703125 53.5625 
Q 30.078125 56 35.796875 56 
Q 45.21875 56 50.046875 50.171875 
Q 54.890625 44.34375 54.890625 33.015625 
z
" id="DejaVuSans-110"/>
     <path d="M 56.203125 29.59375 
L 56.203125 25.203125 
L 14.890625 25.203125 
Q 15.484375 15.921875 20.484375 11.0625 
Q 25.484375 6.203125 34.421875 6.203125 
Q 39.59375 6.203125 44.453125 7.46875 
Q 49.3125 8.734375 54.109375 11.28125 
L 54.109375 2.78125 
Q 49.265625 0.734375 44.1875 -0.34375 
Q 39.109375 -1.421875 33.890625 -1.421875 
Q 20.796875 -1.421875 13.15625 6.1875 
Q 5.515625 13.8125 5.515625 26.8125 
Q 5.515625 40.234375 12.765625 48.109375 
Q 20.015625 56 32.328125 56 
Q 43.359375 56 49.78125 48.890625 
Q 56.203125 41.796875 56.203125 29.59375 
z
M 47.21875 32.234375 
Q 47.125 39.59375 43.09375 43.984375 
Q 39.0625 48.390625 32.421875 48.390625 
Q 24.90625 48.390625 20.390625 44.140625 
Q 15.875 39.890625 15.1875 32.171875 
z
" id="DejaVuSans-101"/>
     <path d="M 4.890625 31.390625 
L 31.203125 31.390625 
L 31.203125 23.390625 
L 4.890625 23.390625 
z
" id="DejaVuSans-45"/>
     <path d="M 9.8125 72.90625 
L 55.90625 72.90625 
L 55.90625 64.59375 
L 19.671875 64.59375 
L 19.671875 43.015625 
L 54.390625 43.015625 
L 54.390625 34.71875 
L 19.671875 34.71875 
L 19.671875 8.296875 
L 56.78125 8.296875 
L 56.78125 0 
L 9.8125 0 
z
" id="DejaVuSans-69"/>
     <path d="M 9.421875 54.6875 
L 18.40625 54.6875 
L 18.40625 0 
L 9.421875 0 
z
M 9.421875 75.984375 
L 18.40625 75.984375 
L 18.40625 64.59375 
L 9.421875 64.59375 
z
" id="DejaVuSans-105"/>
     <path d="M 9.421875 75.984375 
L 18.40625 75.984375 
L 18.40625 0 
L 9.421875 0 
z
" id="DejaVuSans-108"/>
     <path d="M 44.28125 53.078125 
L 44.28125 44.578125 
Q 40.484375 46.53125 36.375 47.5 
Q 32.28125 48.484375 27.875 48.484375 
Q 21.1875 48.484375 17.84375 46.4375 
Q 14.5 44.390625 14.5 40.28125 
Q 14.5 37.15625 16.890625 35.375 
Q 19.28125 33.59375 26.515625 31.984375 
L 29.59375 31.296875 
Q 39.15625 29.25 43.1875 25.515625 
Q 47.21875 21.78125 47.21875 15.09375 
Q 47.21875 7.46875 41.1875 3.015625 
Q 35.15625 -1.421875 24.609375 -1.421875 
Q 20.21875 -1.421875 15.453125 -0.5625 
Q 10.6875 0.296875 5.421875 2 
L 5.421875 11.28125 
Q 10.40625 8.6875 15.234375 7.390625 
Q 20.0625 6.109375 24.8125 6.109375 
Q 31.15625 6.109375 34.5625 8.28125 
Q 37.984375 10.453125 37.984375 14.40625 
Q 37.984375 18.0625 35.515625 20.015625 
Q 33.0625 21.96875 24.703125 23.78125 
L 21.578125 24.515625 
Q 13.234375 26.265625 9.515625 29.90625 
Q 5.8125 33.546875 5.8125 39.890625 
Q 5.8125 47.609375 11.28125 51.796875 
Q 16.75 56 26.8125 56 
Q 31.78125 56 36.171875 55.265625 
Q 40.578125 54.546875 44.28125 53.078125 
z
" id="DejaVuSans-115"/>
     <path d="M 32.171875 -5.078125 
Q 28.375 -14.84375 24.75 -17.8125 
Q 21.140625 -20.796875 15.09375 -20.796875 
L 7.90625 -20.796875 
L 7.90625 -13.28125 
L 13.1875 -13.28125 
Q 16.890625 -13.28125 18.9375 -11.515625 
Q 21 -9.765625 23.484375 -3.21875 
L 25.09375 0.875 
L 2.984375 54.6875 
L 12.5 54.6875 
L 29.59375 11.921875 
L 46.6875 54.6875 
L 56.203125 54.6875 
z
" id="DejaVuSans-121"/>
    </defs>
    <g style="fill:#262626;" transform="translate(165.792188 16.318125)scale(0.12 -0.12)">
     <use xlink:href="#DejaVuSans-116"/>
     <use x="39.208984" xlink:href="#DejaVuSans-97"/>
     <use x="100.488281" xlink:href="#DejaVuSans-112"/>
     <use x="163.964844" xlink:href="#DejaVuSans-110"/>
     <use x="227.34375" xlink:href="#DejaVuSans-101"/>
     <use x="288.867188" xlink:href="#DejaVuSans-116"/>
     <use x="328.076172" xlink:href="#DejaVuSans-45"/>
     <use x="364.160156" xlink:href="#DejaVuSans-69"/>
     <use x="427.34375" xlink:href="#DejaVuSans-112"/>
     <use x="490.820312" xlink:href="#DejaVuSans-105"/>
     <use x="518.603516" xlink:href="#DejaVuSans-108"/>
     <use x="546.386719" xlink:href="#DejaVuSans-101"/>
     <use x="607.910156" xlink:href="#DejaVuSans-112"/>
     <use x="671.386719" xlink:href="#DejaVuSans-115"/>
     <use x="723.486328" xlink:href="#DejaVuSans-121"/>
    </g>
   </g>
   <g id="legend_1">
    <g id="patch_7">
     <path d="M 311.16125 282.930125 
L 383.613438 282.930125 
Q 385.813438 282.930125 385.813438 280.730125 
L 385.813438 217.246375 
Q 385.813438 215.046375 383.613438 215.046375 
L 311.16125 215.046375 
Q 308.96125 215.046375 308.96125 217.246375 
L 308.96125 280.730125 
Q 308.96125 282.930125 311.16125 282.930125 
z
" style="fill:#eaeaf2;opacity:0.8;stroke:#cccccc;stroke-linejoin:miter;"/>
    </g>
    <g id="line2d_13">
     <path d="M 313.36125 223.954656 
L 335.36125 223.954656 
" style="fill:none;stroke:#4c72b0;stroke-linecap:round;stroke-width:1.5;"/>
    </g>
    <g id="line2d_14"/>
    <g id="text_12">
     <!-- pooled -->
     <defs>
      <path d="M 30.609375 48.390625 
Q 23.390625 48.390625 19.1875 42.75 
Q 14.984375 37.109375 14.984375 27.296875 
Q 14.984375 17.484375 19.15625 11.84375 
Q 23.34375 6.203125 30.609375 6.203125 
Q 37.796875 6.203125 41.984375 11.859375 
Q 46.1875 17.53125 46.1875 27.296875 
Q 46.1875 37.015625 41.984375 42.703125 
Q 37.796875 48.390625 30.609375 48.390625 
z
M 30.609375 56 
Q 42.328125 56 49.015625 48.375 
Q 55.71875 40.765625 55.71875 27.296875 
Q 55.71875 13.875 49.015625 6.21875 
Q 42.328125 -1.421875 30.609375 -1.421875 
Q 18.84375 -1.421875 12.171875 6.21875 
Q 5.515625 13.875 5.515625 27.296875 
Q 5.515625 40.765625 12.171875 48.375 
Q 18.84375 56 30.609375 56 
z
" id="DejaVuSans-111"/>
      <path d="M 45.40625 46.390625 
L 45.40625 75.984375 
L 54.390625 75.984375 
L 54.390625 0 
L 45.40625 0 
L 45.40625 8.203125 
Q 42.578125 3.328125 38.25 0.953125 
Q 33.9375 -1.421875 27.875 -1.421875 
Q 17.96875 -1.421875 11.734375 6.484375 
Q 5.515625 14.40625 5.515625 27.296875 
Q 5.515625 40.1875 11.734375 48.09375 
Q 17.96875 56 27.875 56 
Q 33.9375 56 38.25 53.625 
Q 42.578125 51.265625 45.40625 46.390625 
z
M 14.796875 27.296875 
Q 14.796875 17.390625 18.875 11.75 
Q 22.953125 6.109375 30.078125 6.109375 
Q 37.203125 6.109375 41.296875 11.75 
Q 45.40625 17.390625 45.40625 27.296875 
Q 45.40625 37.203125 41.296875 42.84375 
Q 37.203125 48.484375 30.078125 48.484375 
Q 22.953125 48.484375 18.875 42.84375 
Q 14.796875 37.203125 14.796875 27.296875 
z
" id="DejaVuSans-100"/>
     </defs>
     <g style="fill:#262626;" transform="translate(344.16125 227.804656)scale(0.11 -0.11)">
      <use xlink:href="#DejaVuSans-112"/>
      <use x="63.476562" xlink:href="#DejaVuSans-111"/>
      <use x="124.658203" xlink:href="#DejaVuSans-111"/>
      <use x="185.839844" xlink:href="#DejaVuSans-108"/>
      <use x="213.623047" xlink:href="#DejaVuSans-101"/>
      <use x="275.146484" xlink:href="#DejaVuSans-100"/>
     </g>
    </g>
    <g id="line2d_15">
     <path d="M 313.36125 240.100594 
L 335.36125 240.100594 
" style="fill:none;stroke:#c44e52;stroke-linecap:round;stroke-width:1.5;"/>
    </g>
    <g id="line2d_16"/>
    <g id="text_13">
     <!-- dad -->
     <g style="fill:#262626;" transform="translate(344.16125 243.950594)scale(0.11 -0.11)">
      <use xlink:href="#DejaVuSans-100"/>
      <use x="63.476562" xlink:href="#DejaVuSans-97"/>
      <use x="124.755859" xlink:href="#DejaVuSans-100"/>
     </g>
    </g>
    <g id="patch_8">
     <path d="M 313.36125 260.096531 
L 335.36125 260.096531 
L 335.36125 252.396531 
L 313.36125 252.396531 
z
" style="fill:#4c72b0;opacity:0.2;stroke:#4c72b0;stroke-linejoin:miter;"/>
    </g>
    <g id="text_14">
     <!-- edad -->
     <g style="fill:#262626;" transform="translate(344.16125 260.096531)scale(0.11 -0.11)">
      <use xlink:href="#DejaVuSans-101"/>
      <use x="61.523438" xlink:href="#DejaVuSans-100"/>
      <use x="125" xlink:href="#DejaVuSans-97"/>
      <use x="186.279297" xlink:href="#DejaVuSans-100"/>
     </g>
    </g>
    <g id="patch_9">
     <path d="M 313.36125 276.242469 
L 335.36125 276.242469 
L 335.36125 268.542469 
L 313.36125 268.542469 
z
" style="fill:#c44e52;opacity:0.2;stroke:#c44e52;stroke-linejoin:miter;"/>
    </g>
    <g id="text_15">
     <!-- dsgd -->
     <defs>
      <path d="M 45.40625 27.984375 
Q 45.40625 37.75 41.375 43.109375 
Q 37.359375 48.484375 30.078125 48.484375 
Q 22.859375 48.484375 18.828125 43.109375 
Q 14.796875 37.75 14.796875 27.984375 
Q 14.796875 18.265625 18.828125 12.890625 
Q 22.859375 7.515625 30.078125 7.515625 
Q 37.359375 7.515625 41.375 12.890625 
Q 45.40625 18.265625 45.40625 27.984375 
z
M 54.390625 6.78125 
Q 54.390625 -7.171875 48.1875 -13.984375 
Q 42 -20.796875 29.203125 -20.796875 
Q 24.46875 -20.796875 20.265625 -20.09375 
Q 16.0625 -19.390625 12.109375 -17.921875 
L 12.109375 -9.1875 
Q 16.0625 -11.328125 19.921875 -12.34375 
Q 23.78125 -13.375 27.78125 -13.375 
Q 36.625 -13.375 41.015625 -8.765625 
Q 45.40625 -4.15625 45.40625 5.171875 
L 45.40625 9.625 
Q 42.625 4.78125 38.28125 2.390625 
Q 33.9375 0 27.875 0 
Q 17.828125 0 11.671875 7.65625 
Q 5.515625 15.328125 5.515625 27.984375 
Q 5.515625 40.671875 11.671875 48.328125 
Q 17.828125 56 27.875 56 
Q 33.9375 56 38.28125 53.609375 
Q 42.625 51.21875 45.40625 46.390625 
L 45.40625 54.6875 
L 54.390625 54.6875 
z
" id="DejaVuSans-103"/>
     </defs>
     <g style="fill:#262626;" transform="translate(344.16125 276.242469)scale(0.11 -0.11)">
      <use xlink:href="#DejaVuSans-100"/>
      <use x="63.476562" xlink:href="#DejaVuSans-115"/>
      <use x="115.576172" xlink:href="#DejaVuSans-103"/>
      <use x="179.052734" xlink:href="#DejaVuSans-100"/>
     </g>
    </g>
   </g>
  </g>
 </g>
 <defs>
  <clipPath id="p004bd50e27">
   <rect height="266.112" width="357.12" x="34.193438" y="22.318125"/>
  </clipPath>
 </defs>
</svg>
