<?xml version="1.0" encoding="utf-8" standalone="no"?>
<!DOCTYPE svg PUBLIC "-//W3C//DTD SVG 1.1//EN"
  "http://www.w3.org/Graphics/SVG/1.1/DTD/svg11.dtd">
<!-- Created with matplotlib (https://matplotlib.org/) -->
<svg height="315.776062pt" version="1.1" viewBox="0 0 398.513437 315.776062" width="398.513437pt" xmlns="http://www.w3.org/2000/svg" xmlns:xlink="http://www.w3.org/1999/xlink">
 <defs>
  <style type="text/css">
*{stroke-linecap:butt;stroke-linejoin:round;}
  </style>
 </defs>
 <g id="figure_1">
  <g id="patch_1">
   <path d="M 0 315.776062 
L 398.513437 315.776062 
L 398.513437 0 
L 0 0 
z
" style="fill:#ffffff;"/>
  </g>
  <g id="axes_1">
   <g id="patch_2">
    <path d="M 34.193438 288.430125 
L 391.313438 288.430125 
L 391.313438 22.318125 
L 34.193438 22.318125 
z
" style="fill:#eaeaf2;"/>
   </g>
   <g id="matplotlib.axis_1">
    <g id="xtick_1">
     <g id="line2d_1">
      <path clip-path="url(#p884241e120)" d="M 50.426165 288.430125 
L 50.426165 22.318125 
" style="fill:none;stroke:#ffffff;stroke-linecap:round;"/>
     </g>
     <g id="text_1">
      <!-- 0 -->
      <defs>
       <path d="M 31.78125 66.40625 
Q 24.171875 66.40625 20.328125 58.90625 
Q 16.5 51.421875 16.5 36.375 
Q 16.5 21.390625 20.328125 13.890625 
Q 24.171875 6.390625 31.78125 6.390625 
Q 39.453125 6.390625 43.28125 13.890625 
Q 47.125 21.390625 47.125 36.375 
Q 47.125 51.421875 43.28125 58.90625 
Q 39.453125 66.40625 31.78125 66.40625 
z
M 31.78125 74.21875 
Q 44.046875 74.21875 50.515625 64.515625 
Q 56.984375 54.828125 56.984375 36.375 
Q 56.984375 17.96875 50.515625 8.265625 
Q 44.046875 -1.421875 31.78125 -1.421875 
Q 19.53125 -1.421875 13.0625 8.265625 
Q 6.59375 17.96875 6.59375 36.375 
Q 6.59375 54.828125 13.0625 64.515625 
Q 19.53125 74.21875 31.78125 74.21875 
z
" id="DejaVuSans-48"/>
      </defs>
      <g style="fill:#262626;" transform="translate(46.92679 306.288406)scale(0.11 -0.11)">
       <use xlink:href="#DejaVuSans-48"/>
      </g>
     </g>
    </g>
    <g id="xtick_2">
     <g id="line2d_2">
      <path clip-path="url(#p884241e120)" d="M 116.012942 288.430125 
L 116.012942 22.318125 
" style="fill:none;stroke:#ffffff;stroke-linecap:round;"/>
     </g>
     <g id="text_2">
      <!-- 20 -->
      <defs>
       <path d="M 19.1875 8.296875 
L 53.609375 8.296875 
L 53.609375 0 
L 7.328125 0 
L 7.328125 8.296875 
Q 12.9375 14.109375 22.625 23.890625 
Q 32.328125 33.6875 34.8125 36.53125 
Q 39.546875 41.84375 41.421875 45.53125 
Q 43.3125 49.21875 43.3125 52.78125 
Q 43.3125 58.59375 39.234375 62.25 
Q 35.15625 65.921875 28.609375 65.921875 
Q 23.96875 65.921875 18.8125 64.3125 
Q 13.671875 62.703125 7.8125 59.421875 
L 7.8125 69.390625 
Q 13.765625 71.78125 18.9375 73 
Q 24.125 74.21875 28.421875 74.21875 
Q 39.75 74.21875 46.484375 68.546875 
Q 53.21875 62.890625 53.21875 53.421875 
Q 53.21875 48.921875 51.53125 44.890625 
Q 49.859375 40.875 45.40625 35.40625 
Q 44.1875 33.984375 37.640625 27.21875 
Q 31.109375 20.453125 19.1875 8.296875 
z
" id="DejaVuSans-50"/>
      </defs>
      <g style="fill:#262626;" transform="translate(109.014192 306.288406)scale(0.11 -0.11)">
       <use xlink:href="#DejaVuSans-50"/>
       <use x="63.623047" xlink:href="#DejaVuSans-48"/>
      </g>
     </g>
    </g>
    <g id="xtick_3">
     <g id="line2d_3">
      <path clip-path="url(#p884241e120)" d="M 181.599718 288.430125 
L 181.599718 22.318125 
" style="fill:none;stroke:#ffffff;stroke-linecap:round;"/>
     </g>
     <g id="text_3">
      <!-- 40 -->
      <defs>
       <path d="M 37.796875 64.3125 
L 12.890625 25.390625 
L 37.796875 25.390625 
z
M 35.203125 72.90625 
L 47.609375 72.90625 
L 47.609375 25.390625 
L 58.015625 25.390625 
L 58.015625 17.1875 
L 47.609375 17.1875 
L 47.609375 0 
L 37.796875 0 
L 37.796875 17.1875 
L 4.890625 17.1875 
L 4.890625 26.703125 
z
" id="DejaVuSans-52"/>
      </defs>
      <g style="fill:#262626;" transform="translate(174.600968 306.288406)scale(0.11 -0.11)">
       <use xlink:href="#DejaVuSans-52"/>
       <use x="63.623047" xlink:href="#DejaVuSans-48"/>
      </g>
     </g>
    </g>
    <g id="xtick_4">
     <g id="line2d_4">
      <path clip-path="url(#p884241e120)" d="M 247.186495 288.430125 
L 247.186495 22.318125 
" style="fill:none;stroke:#ffffff;stroke-linecap:round;"/>
     </g>
     <g id="text_4">
      <!-- 60 -->
      <defs>
       <path d="M 33.015625 40.375 
Q 26.375 40.375 22.484375 35.828125 
Q 18.609375 31.296875 18.609375 23.390625 
Q 18.609375 15.53125 22.484375 10.953125 
Q 26.375 6.390625 33.015625 6.390625 
Q 39.65625 6.390625 43.53125 10.953125 
Q 47.40625 15.53125 47.40625 23.390625 
Q 47.40625 31.296875 43.53125 35.828125 
Q 39.65625 40.375 33.015625 40.375 
z
M 52.59375 71.296875 
L 52.59375 62.3125 
Q 48.875 64.0625 45.09375 64.984375 
Q 41.3125 65.921875 37.59375 65.921875 
Q 27.828125 65.921875 22.671875 59.328125 
Q 17.53125 52.734375 16.796875 39.40625 
Q 19.671875 43.65625 24.015625 45.921875 
Q 28.375 48.1875 33.59375 48.1875 
Q 44.578125 48.1875 50.953125 41.515625 
Q 57.328125 34.859375 57.328125 23.390625 
Q 57.328125 12.15625 50.6875 5.359375 
Q 44.046875 -1.421875 33.015625 -1.421875 
Q 20.359375 -1.421875 13.671875 8.265625 
Q 6.984375 17.96875 6.984375 36.375 
Q 6.984375 53.65625 15.1875 63.9375 
Q 23.390625 74.21875 37.203125 74.21875 
Q 40.921875 74.21875 44.703125 73.484375 
Q 48.484375 72.75 52.59375 71.296875 
z
" id="DejaVuSans-54"/>
      </defs>
      <g style="fill:#262626;" transform="translate(240.187745 306.288406)scale(0.11 -0.11)">
       <use xlink:href="#DejaVuSans-54"/>
       <use x="63.623047" xlink:href="#DejaVuSans-48"/>
      </g>
     </g>
    </g>
    <g id="xtick_5">
     <g id="line2d_5">
      <path clip-path="url(#p884241e120)" d="M 312.773272 288.430125 
L 312.773272 22.318125 
" style="fill:none;stroke:#ffffff;stroke-linecap:round;"/>
     </g>
     <g id="text_5">
      <!-- 80 -->
      <defs>
       <path d="M 31.78125 34.625 
Q 24.75 34.625 20.71875 30.859375 
Q 16.703125 27.09375 16.703125 20.515625 
Q 16.703125 13.921875 20.71875 10.15625 
Q 24.75 6.390625 31.78125 6.390625 
Q 38.8125 6.390625 42.859375 10.171875 
Q 46.921875 13.96875 46.921875 20.515625 
Q 46.921875 27.09375 42.890625 30.859375 
Q 38.875 34.625 31.78125 34.625 
z
M 21.921875 38.8125 
Q 15.578125 40.375 12.03125 44.71875 
Q 8.5 49.078125 8.5 55.328125 
Q 8.5 64.0625 14.71875 69.140625 
Q 20.953125 74.21875 31.78125 74.21875 
Q 42.671875 74.21875 48.875 69.140625 
Q 55.078125 64.0625 55.078125 55.328125 
Q 55.078125 49.078125 51.53125 44.71875 
Q 48 40.375 41.703125 38.8125 
Q 48.828125 37.15625 52.796875 32.3125 
Q 56.78125 27.484375 56.78125 20.515625 
Q 56.78125 9.90625 50.3125 4.234375 
Q 43.84375 -1.421875 31.78125 -1.421875 
Q 19.734375 -1.421875 13.25 4.234375 
Q 6.78125 9.90625 6.78125 20.515625 
Q 6.78125 27.484375 10.78125 32.3125 
Q 14.796875 37.15625 21.921875 38.8125 
z
M 18.3125 54.390625 
Q 18.3125 48.734375 21.84375 45.5625 
Q 25.390625 42.390625 31.78125 42.390625 
Q 38.140625 42.390625 41.71875 45.5625 
Q 45.3125 48.734375 45.3125 54.390625 
Q 45.3125 60.0625 41.71875 63.234375 
Q 38.140625 66.40625 31.78125 66.40625 
Q 25.390625 66.40625 21.84375 63.234375 
Q 18.3125 60.0625 18.3125 54.390625 
z
" id="DejaVuSans-56"/>
      </defs>
      <g style="fill:#262626;" transform="translate(305.774522 306.288406)scale(0.11 -0.11)">
       <use xlink:href="#DejaVuSans-56"/>
       <use x="63.623047" xlink:href="#DejaVuSans-48"/>
      </g>
     </g>
    </g>
    <g id="xtick_6">
     <g id="line2d_6">
      <path clip-path="url(#p884241e120)" d="M 378.360049 288.430125 
L 378.360049 22.318125 
" style="fill:none;stroke:#ffffff;stroke-linecap:round;"/>
     </g>
     <g id="text_6">
      <!-- 100 -->
      <defs>
       <path d="M 12.40625 8.296875 
L 28.515625 8.296875 
L 28.515625 63.921875 
L 10.984375 60.40625 
L 10.984375 69.390625 
L 28.421875 72.90625 
L 38.28125 72.90625 
L 38.28125 8.296875 
L 54.390625 8.296875 
L 54.390625 0 
L 12.40625 0 
z
" id="DejaVuSans-49"/>
      </defs>
      <g style="fill:#262626;" transform="translate(367.861924 306.288406)scale(0.11 -0.11)">
       <use xlink:href="#DejaVuSans-49"/>
       <use x="63.623047" xlink:href="#DejaVuSans-48"/>
       <use x="127.246094" xlink:href="#DejaVuSans-48"/>
      </g>
     </g>
    </g>
   </g>
   <g id="matplotlib.axis_2">
    <g id="ytick_1">
     <g id="line2d_7">
      <path clip-path="url(#p884241e120)" d="M 34.193438 270.759396 
L 391.313438 270.759396 
" style="fill:none;stroke:#ffffff;stroke-linecap:round;"/>
     </g>
     <g id="text_7">
      <!-- 0.3 -->
      <defs>
       <path d="M 10.6875 12.40625 
L 21 12.40625 
L 21 0 
L 10.6875 0 
z
" id="DejaVuSans-46"/>
       <path d="M 40.578125 39.3125 
Q 47.65625 37.796875 51.625 33 
Q 55.609375 28.21875 55.609375 21.1875 
Q 55.609375 10.40625 48.1875 4.484375 
Q 40.765625 -1.421875 27.09375 -1.421875 
Q 22.515625 -1.421875 17.65625 -0.515625 
Q 12.796875 0.390625 7.625 2.203125 
L 7.625 11.71875 
Q 11.71875 9.328125 16.59375 8.109375 
Q 21.484375 6.890625 26.8125 6.890625 
Q 36.078125 6.890625 40.9375 10.546875 
Q 45.796875 14.203125 45.796875 21.1875 
Q 45.796875 27.640625 41.28125 31.265625 
Q 36.765625 34.90625 28.71875 34.90625 
L 20.21875 34.90625 
L 20.21875 43.015625 
L 29.109375 43.015625 
Q 36.375 43.015625 40.234375 45.921875 
Q 44.09375 48.828125 44.09375 54.296875 
Q 44.09375 59.90625 40.109375 62.90625 
Q 36.140625 65.921875 28.71875 65.921875 
Q 24.65625 65.921875 20.015625 65.03125 
Q 15.375 64.15625 9.8125 62.3125 
L 9.8125 71.09375 
Q 15.4375 72.65625 20.34375 73.4375 
Q 25.25 74.21875 29.59375 74.21875 
Q 40.828125 74.21875 47.359375 69.109375 
Q 53.90625 64.015625 53.90625 55.328125 
Q 53.90625 49.265625 50.4375 45.09375 
Q 46.96875 40.921875 40.578125 39.3125 
z
" id="DejaVuSans-51"/>
      </defs>
      <g style="fill:#262626;" transform="translate(7.2 274.938537)scale(0.11 -0.11)">
       <use xlink:href="#DejaVuSans-48"/>
       <use x="63.623047" xlink:href="#DejaVuSans-46"/>
       <use x="95.410156" xlink:href="#DejaVuSans-51"/>
      </g>
     </g>
    </g>
    <g id="ytick_2">
     <g id="line2d_8">
      <path clip-path="url(#p884241e120)" d="M 34.193438 228.948931 
L 391.313438 228.948931 
" style="fill:none;stroke:#ffffff;stroke-linecap:round;"/>
     </g>
     <g id="text_8">
      <!-- 0.4 -->
      <g style="fill:#262626;" transform="translate(7.2 233.128071)scale(0.11 -0.11)">
       <use xlink:href="#DejaVuSans-48"/>
       <use x="63.623047" xlink:href="#DejaVuSans-46"/>
       <use x="95.410156" xlink:href="#DejaVuSans-52"/>
      </g>
     </g>
    </g>
    <g id="ytick_3">
     <g id="line2d_9">
      <path clip-path="url(#p884241e120)" d="M 34.193438 187.138465 
L 391.313438 187.138465 
" style="fill:none;stroke:#ffffff;stroke-linecap:round;"/>
     </g>
     <g id="text_9">
      <!-- 0.5 -->
      <defs>
       <path d="M 10.796875 72.90625 
L 49.515625 72.90625 
L 49.515625 64.59375 
L 19.828125 64.59375 
L 19.828125 46.734375 
Q 21.96875 47.46875 24.109375 47.828125 
Q 26.265625 48.1875 28.421875 48.1875 
Q 40.625 48.1875 47.75 41.5 
Q 54.890625 34.8125 54.890625 23.390625 
Q 54.890625 11.625 47.5625 5.09375 
Q 40.234375 -1.421875 26.90625 -1.421875 
Q 22.3125 -1.421875 17.546875 -0.640625 
Q 12.796875 0.140625 7.71875 1.703125 
L 7.71875 11.625 
Q 12.109375 9.234375 16.796875 8.0625 
Q 21.484375 6.890625 26.703125 6.890625 
Q 35.15625 6.890625 40.078125 11.328125 
Q 45.015625 15.765625 45.015625 23.390625 
Q 45.015625 31 40.078125 35.4375 
Q 35.15625 39.890625 26.703125 39.890625 
Q 22.75 39.890625 18.8125 39.015625 
Q 14.890625 38.140625 10.796875 36.28125 
z
" id="DejaVuSans-53"/>
      </defs>
      <g style="fill:#262626;" transform="translate(7.2 191.317606)scale(0.11 -0.11)">
       <use xlink:href="#DejaVuSans-48"/>
       <use x="63.623047" xlink:href="#DejaVuSans-46"/>
       <use x="95.410156" xlink:href="#DejaVuSans-53"/>
      </g>
     </g>
    </g>
    <g id="ytick_4">
     <g id="line2d_10">
      <path clip-path="url(#p884241e120)" d="M 34.193438 145.327999 
L 391.313438 145.327999 
" style="fill:none;stroke:#ffffff;stroke-linecap:round;"/>
     </g>
     <g id="text_10">
      <!-- 0.6 -->
      <g style="fill:#262626;" transform="translate(7.2 149.50714)scale(0.11 -0.11)">
       <use xlink:href="#DejaVuSans-48"/>
       <use x="63.623047" xlink:href="#DejaVuSans-46"/>
       <use x="95.410156" xlink:href="#DejaVuSans-54"/>
      </g>
     </g>
    </g>
    <g id="ytick_5">
     <g id="line2d_11">
      <path clip-path="url(#p884241e120)" d="M 34.193438 103.517534 
L 391.313438 103.517534 
" style="fill:none;stroke:#ffffff;stroke-linecap:round;"/>
     </g>
     <g id="text_11">
      <!-- 0.7 -->
      <defs>
       <path d="M 8.203125 72.90625 
L 55.078125 72.90625 
L 55.078125 68.703125 
L 28.609375 0 
L 18.3125 0 
L 43.21875 64.59375 
L 8.203125 64.59375 
z
" id="DejaVuSans-55"/>
      </defs>
      <g style="fill:#262626;" transform="translate(7.2 107.696674)scale(0.11 -0.11)">
       <use xlink:href="#DejaVuSans-48"/>
       <use x="63.623047" xlink:href="#DejaVuSans-46"/>
       <use x="95.410156" xlink:href="#DejaVuSans-55"/>
      </g>
     </g>
    </g>
    <g id="ytick_6">
     <g id="line2d_12">
      <path clip-path="url(#p884241e120)" d="M 34.193438 61.707068 
L 391.313438 61.707068 
" style="fill:none;stroke:#ffffff;stroke-linecap:round;"/>
     </g>
     <g id="text_12">
      <!-- 0.8 -->
      <g style="fill:#262626;" transform="translate(7.2 65.886208)scale(0.11 -0.11)">
       <use xlink:href="#DejaVuSans-48"/>
       <use x="63.623047" xlink:href="#DejaVuSans-46"/>
       <use x="95.410156" xlink:href="#DejaVuSans-56"/>
      </g>
     </g>
    </g>
   </g>
   <g id="PolyCollection_1">
    <defs>
     <path d="M 50.426165 -110.98429 
L 50.426165 -69.638385 
L 53.705504 -141.180737 
L 56.984842 -164.408774 
L 60.264181 -190.888735 
L 63.54352 -195.534343 
L 66.822859 -209.006604 
L 70.102198 -215.045893 
L 73.381537 -218.297818 
L 76.660876 -221.549744 
L 79.940214 -223.872547 
L 83.219553 -225.73079 
L 86.498892 -226.195351 
L 89.778231 -231.305519 
L 93.05757 -228.982715 
L 96.336909 -230.840958 
L 99.616247 -231.77008 
L 102.895586 -232.699201 
L 106.174925 -234.557444 
L 109.454264 -234.557444 
L 112.733603 -233.628323 
L 116.012942 -234.092883 
L 119.29228 -234.54583 
L 122.571619 -235.022005 
L 125.850958 -237.344808 
L 129.130297 -237.344808 
L 132.409636 -238.27393 
L 135.688975 -239.203051 
L 138.968314 -240.132173 
L 142.247652 -239.667612 
L 145.526991 -240.132173 
L 148.80633 -245.242341 
L 152.085669 -246.636023 
L 155.365008 -247.100584 
L 158.644347 -248.494266 
L 161.923685 -248.958827 
L 165.203024 -248.958827 
L 168.482363 -248.029705 
L 171.761702 -248.958827 
L 175.041041 -249.887948 
L 178.32038 -250.81707 
L 181.599718 -251.28163 
L 184.879057 -251.746191 
L 188.158396 -251.746191 
L 191.437735 -252.210752 
L 194.717074 -253.139873 
L 197.996413 -253.139873 
L 201.275752 -252.210752 
L 204.55509 -251.746191 
L 207.834429 -250.352509 
L 211.113768 -249.887948 
L 214.393107 -250.352509 
L 217.672446 -250.352509 
L 220.951785 -248.947213 
L 224.231123 -248.958827 
L 227.510462 -248.029705 
L 230.789801 -248.459424 
L 234.06914 -248.958827 
L 237.348479 -248.958827 
L 240.627818 -249.411773 
L 243.907157 -249.423387 
L 247.186495 -249.887948 
L 250.465834 -250.81707 
L 253.745173 -251.28163 
L 257.024512 -253.139873 
L 260.303851 -251.28163 
L 263.58319 -252.210752 
L 266.862528 -253.59282 
L 270.141867 -252.675312 
L 273.421206 -252.210752 
L 276.700545 -252.675312 
L 279.979884 -253.139873 
L 283.259223 -253.116645 
L 286.538561 -253.128259 
L 289.8179 -255.439449 
L 293.097239 -254.533555 
L 296.376578 -254.986502 
L 299.655917 -256.391798 
L 302.935256 -255.439449 
L 306.214595 -254.533555 
L 309.493933 -254.998116 
L 312.773272 -254.998116 
L 316.052611 -254.068995 
L 319.33195 -254.533555 
L 322.611289 -254.533555 
L 325.890628 -254.068995 
L 329.169966 -255.927238 
L 332.449305 -254.068995 
L 335.728644 -253.128259 
L 339.007983 -252.675312 
L 342.287322 -254.022539 
L 345.566661 -254.068995 
L 348.845999 -254.022539 
L 352.125338 -254.533555 
L 355.404677 -254.533555 
L 358.684016 -254.533555 
L 361.963355 -254.533555 
L 365.242694 -254.998116 
L 368.522033 -257.32092 
L 371.801371 -255.462677 
L 375.08071 -255.462677 
L 375.08071 -281.025131 
L 375.08071 -281.025131 
L 371.801371 -279.155274 
L 368.522033 -276.36791 
L 365.242694 -275.903349 
L 361.963355 -275.903349 
L 358.684016 -274.509667 
L 355.404677 -274.521281 
L 352.125338 -274.521281 
L 348.845999 -273.580545 
L 345.566661 -273.115985 
L 342.287322 -273.115985 
L 339.007983 -274.974227 
L 335.728644 -273.580545 
L 332.449305 -274.045106 
L 329.169966 -273.580545 
L 325.890628 -273.127599 
L 322.611289 -271.257742 
L 319.33195 -271.722302 
L 316.052611 -271.257742 
L 312.773272 -273.115985 
L 309.493933 -274.509667 
L 306.214595 -274.974227 
L 302.935256 -274.974227 
L 299.655917 -275.438788 
L 296.376578 -274.509667 
L 293.097239 -275.903349 
L 289.8179 -274.05672 
L 286.538561 -274.045106 
L 283.259223 -276.36791 
L 279.979884 -276.36791 
L 276.700545 -277.297031 
L 273.421206 -274.509667 
L 270.141867 -274.974227 
L 266.862528 -274.974227 
L 263.58319 -274.509667 
L 260.303851 -273.580545 
L 257.024512 -270.839637 
L 253.745173 -270.793181 
L 250.465834 -272.651424 
L 247.186495 -272.186863 
L 243.907157 -271.257742 
L 240.627818 -268.470377 
L 237.348479 -267.076695 
L 234.06914 -268.958166 
L 230.789801 -265.218452 
L 227.510462 -264.289331 
L 224.231123 -265.218452 
L 220.951785 -265.218452 
L 217.672446 -265.218452 
L 214.393107 -265.218452 
L 211.113768 -264.753891 
L 207.834429 -265.683013 
L 204.55509 -265.683013 
L 201.275752 -264.753891 
L 197.996413 -264.289331 
L 194.717074 -263.82477 
L 191.437735 -260.572845 
L 188.158396 -262.431088 
L 184.879057 -260.108284 
L 181.599718 -259.179163 
L 178.32038 -259.179163 
L 175.041041 -258.250041 
L 171.761702 -259.179163 
L 168.482363 -256.856359 
L 165.203024 -257.32092 
L 161.923685 -255.927238 
L 158.644347 -254.998116 
L 155.365008 -255.927238 
L 152.085669 -254.998116 
L 148.80633 -248.958827 
L 145.526991 -246.647637 
L 142.247652 -246.636023 
L 138.968314 -246.171462 
L 135.688975 -244.313219 
L 132.409636 -242.919537 
L 129.130297 -246.636023 
L 125.850958 -244.313219 
L 122.571619 -241.061294 
L 119.29228 -242.919537 
L 116.012942 -243.860273 
L 112.733603 -242.919537 
L 109.454264 -242.454976 
L 106.174925 -242.454976 
L 102.895586 -242.454976 
L 99.616247 -241.990416 
L 96.336909 -240.596733 
L 93.05757 -235.951126 
L 89.778231 -236.880248 
L 86.498892 -233.163762 
L 83.219553 -229.911837 
L 79.940214 -229.447276 
L 76.660876 -231.305519 
L 73.381537 -225.73079 
L 70.102198 -221.085183 
L 66.822859 -219.22694 
L 63.54352 -212.258529 
L 60.264181 -205.290118 
L 56.984842 -189.495053 
L 53.705504 -162.08597 
L 50.426165 -110.98429 
z
" id="m19c4e97911" style="stroke:#4c72b0;stroke-opacity:0.2;"/>
    </defs>
    <g clip-path="url(#p884241e120)">
     <use style="fill:#4c72b0;fill-opacity:0.2;stroke:#4c72b0;stroke-opacity:0.2;" x="0" xlink:href="#m19c4e97911" y="315.776062"/>
    </g>
   </g>
   <g id="PolyCollection_2">
    <defs>
     <path d="M 50.426165 -45.945788 
L 50.426165 -39.441938 
L 53.705504 -76.606796 
L 56.984842 -140.716177 
L 60.264181 -174.62911 
L 63.54352 -193.6761 
L 66.822859 -206.6838 
L 70.102198 -216.439576 
L 73.381537 -225.73079 
L 76.660876 -230.376397 
L 79.940214 -232.23464 
L 83.219553 -228.518154 
L 86.498892 -233.163762 
L 89.778231 -231.305519 
L 93.05757 -231.305519 
L 96.336909 -232.699201 
L 99.616247 -230.376397 
L 102.895586 -230.829344 
L 106.174925 -232.23464 
L 109.454264 -232.23464 
L 112.733603 -234.557444 
L 116.012942 -235.951126 
L 119.29228 -238.27393 
L 122.571619 -238.27393 
L 125.850958 -240.585119 
L 129.130297 -243.384098 
L 132.409636 -246.171462 
L 135.688975 -246.636023 
L 138.968314 -248.494266 
L 142.247652 -248.494266 
L 145.526991 -248.494266 
L 148.80633 -249.887948 
L 152.085669 -248.494266 
L 155.365008 -248.029705 
L 158.644347 -248.029705 
L 161.923685 -246.636023 
L 165.203024 -248.029705 
L 168.482363 -248.494266 
L 171.761702 -249.887948 
L 175.041041 -251.28163 
L 178.32038 -252.210752 
L 181.599718 -252.210752 
L 184.879057 -253.139873 
L 188.158396 -254.533555 
L 191.437735 -254.533555 
L 194.717074 -255.462677 
L 197.996413 -255.927238 
L 201.275752 -254.533555 
L 204.55509 -254.998116 
L 207.834429 -253.139873 
L 211.113768 -252.675312 
L 214.393107 -254.068995 
L 217.672446 -254.533555 
L 220.951785 -254.533555 
L 224.231123 -255.462677 
L 227.510462 -256.391798 
L 230.789801 -255.927238 
L 234.06914 -255.927238 
L 237.348479 -255.927238 
L 240.627818 -257.32092 
L 243.907157 -258.250041 
L 247.186495 -258.250041 
L 250.465834 -258.250041 
L 253.745173 -256.856359 
L 257.024512 -257.32092 
L 260.303851 -257.78548 
L 263.58319 -258.714602 
L 266.862528 -258.250041 
L 270.141867 -258.250041 
L 273.421206 -258.250041 
L 276.700545 -259.643723 
L 279.979884 -260.572845 
L 283.259223 -262.431088 
L 286.538561 -263.360209 
L 289.8179 -262.198807 
L 293.097239 -262.198807 
L 296.376578 -261.618106 
L 299.655917 -262.198807 
L 302.935256 -262.198807 
L 306.214595 -262.198807 
L 309.493933 -260.456705 
L 312.773272 -262.198807 
L 316.052611 -262.198807 
L 319.33195 -265.683013 
L 322.611289 -265.683013 
L 325.890628 -265.683013 
L 329.169966 -265.683013 
L 332.449305 -265.683013 
L 335.728644 -265.683013 
L 339.007983 -265.683013 
L 342.287322 -265.683013 
L 345.566661 -265.683013 
L 348.845999 -266.263714 
L 352.125338 -268.005817 
L 355.404677 -266.844415 
L 358.684016 -266.844415 
L 361.963355 -266.844415 
L 365.242694 -270.32862 
L 368.522033 -270.32862 
L 371.801371 -270.909321 
L 375.08071 -270.909321 
L 375.08071 -281.361937 
L 375.08071 -281.361937 
L 371.801371 -281.361937 
L 368.522033 -281.361937 
L 365.242694 -280.781237 
L 361.963355 -280.200536 
L 358.684016 -280.781237 
L 355.404677 -280.200536 
L 352.125338 -280.200536 
L 348.845999 -279.619835 
L 345.566661 -280.200536 
L 342.287322 -279.619835 
L 339.007983 -279.634352 
L 335.728644 -276.71633 
L 332.449305 -276.135629 
L 329.169966 -276.135629 
L 325.890628 -274.393527 
L 322.611289 -272.651424 
L 319.33195 -272.651424 
L 316.052611 -271.519057 
L 312.773272 -272.651424 
L 309.493933 -272.651424 
L 306.214595 -272.651424 
L 302.935256 -272.651424 
L 299.655917 -272.651424 
L 296.376578 -272.070723 
L 293.097239 -272.070723 
L 289.8179 -273.812826 
L 286.538561 -272.651424 
L 283.259223 -269.399499 
L 279.979884 -269.399499 
L 276.700545 -267.541256 
L 273.421206 -268.005817 
L 270.141867 -268.005817 
L 266.862528 -268.005817 
L 263.58319 -268.005817 
L 260.303851 -265.683013 
L 257.024512 -265.218452 
L 253.745173 -265.218452 
L 250.465834 -265.218452 
L 247.186495 -263.82477 
L 243.907157 -263.82477 
L 240.627818 -262.895648 
L 237.348479 -261.966527 
L 234.06914 -261.966527 
L 230.789801 -261.966527 
L 227.510462 -263.371823 
L 224.231123 -262.895648 
L 220.951785 -262.895648 
L 217.672446 -262.895648 
L 214.393107 -262.442702 
L 211.113768 -262.431088 
L 207.834429 -263.360209 
L 204.55509 -263.360209 
L 201.275752 -260.108284 
L 197.996413 -260.572845 
L 194.717074 -259.179163 
L 191.437735 -259.643723 
L 188.158396 -259.179163 
L 184.879057 -259.643723 
L 181.599718 -258.714602 
L 178.32038 -258.714602 
L 175.041041 -258.250041 
L 171.761702 -256.856359 
L 168.482363 -258.250041 
L 165.203024 -258.250041 
L 161.923685 -257.32092 
L 158.644347 -257.32092 
L 155.365008 -255.927238 
L 152.085669 -256.856359 
L 148.80633 -255.927238 
L 145.526991 -254.533555 
L 142.247652 -253.604434 
L 138.968314 -251.746191 
L 135.688975 -250.81707 
L 132.409636 -250.352509 
L 129.130297 -249.887948 
L 125.850958 -246.636023 
L 122.571619 -244.77778 
L 119.29228 -242.454976 
L 116.012942 -243.395712 
L 112.733603 -242.919537 
L 109.454264 -243.384098 
L 106.174925 -239.667612 
L 102.895586 -238.27393 
L 99.616247 -239.667612 
L 96.336909 -238.738491 
L 93.05757 -239.667612 
L 89.778231 -238.738491 
L 86.498892 -237.344808 
L 83.219553 -235.486565 
L 79.940214 -236.415687 
L 76.660876 -238.738491 
L 73.381537 -233.628323 
L 70.102198 -225.73079 
L 66.822859 -227.124472 
L 63.54352 -216.904136 
L 60.264181 -196.928025 
L 56.984842 -163.479652 
L 53.705504 -102.622197 
L 50.426165 -45.945788 
z
" id="mfd4349308a" style="stroke:#c44e52;stroke-opacity:0.2;"/>
    </defs>
    <g clip-path="url(#p884241e120)">
     <use style="fill:#c44e52;fill-opacity:0.2;stroke:#c44e52;stroke-opacity:0.2;" x="0" xlink:href="#mfd4349308a" y="315.776062"/>
    </g>
   </g>
   <g id="line2d_13">
    <path clip-path="url(#p884241e120)" d="M 50.426165 221.98052 
L 53.705504 164.374989 
L 56.984842 138.359588 
L 60.264181 118.383477 
L 63.54352 110.485944 
L 66.822859 101.659291 
L 70.102198 97.942805 
L 73.381537 93.761758 
L 76.660876 89.116151 
L 79.940214 89.116151 
L 83.219553 87.722469 
L 86.498892 86.328787 
L 89.778231 81.683179 
L 93.05757 83.076861 
L 96.336909 80.754058 
L 99.616247 79.360376 
L 102.895586 78.895815 
L 106.174925 77.966693 
L 109.454264 77.966693 
L 112.733603 77.966693 
L 116.012942 76.573011 
L 119.29228 77.037572 
L 122.571619 77.502133 
L 125.850958 75.179329 
L 129.130297 73.785647 
L 132.409636 75.179329 
L 135.688975 74.250208 
L 138.968314 73.321086 
L 142.247652 72.856525 
L 145.526991 72.391965 
L 148.80633 68.675479 
L 152.085669 64.958993 
L 155.365008 64.029872 
L 158.644347 64.029872 
L 161.923685 63.565311 
L 165.203024 62.636189 
L 168.482363 62.636189 
L 171.761702 61.707068 
L 175.041041 61.707068 
L 178.32038 60.777946 
L 181.599718 60.313386 
L 184.879057 59.848825 
L 188.158396 58.919703 
L 191.437735 58.919703 
L 194.717074 57.526021 
L 197.996413 57.061461 
L 201.275752 57.061461 
L 204.55509 57.526021 
L 207.834429 57.526021 
L 211.113768 57.990582 
L 214.393107 57.990582 
L 217.672446 57.990582 
L 220.951785 58.455143 
L 224.231123 57.990582 
L 227.510462 58.919703 
L 230.789801 58.919703 
L 234.06914 57.526021 
L 237.348479 57.526021 
L 240.627818 57.061461 
L 243.907157 55.667778 
L 247.186495 55.203218 
L 250.465834 55.203218 
L 253.745173 54.274096 
L 257.024512 54.274096 
L 260.303851 54.274096 
L 263.58319 52.415853 
L 266.862528 52.415853 
L 270.141867 52.415853 
L 273.421206 52.415853 
L 276.700545 51.951293 
L 279.979884 51.486732 
L 283.259223 51.486732 
L 286.538561 51.951293 
L 289.8179 51.486732 
L 293.097239 50.55761 
L 296.376578 51.022171 
L 299.655917 50.55761 
L 302.935256 50.55761 
L 306.214595 50.55761 
L 309.493933 51.486732 
L 312.773272 51.951293 
L 316.052611 52.415853 
L 319.33195 52.415853 
L 322.611289 52.415853 
L 325.890628 51.486732 
L 329.169966 51.022171 
L 332.449305 51.022171 
L 335.728644 51.486732 
L 339.007983 51.022171 
L 342.287322 51.951293 
L 345.566661 51.951293 
L 348.845999 51.951293 
L 352.125338 51.022171 
L 355.404677 51.486732 
L 358.684016 51.486732 
L 361.963355 51.022171 
L 365.242694 49.628489 
L 368.522033 49.163928 
L 371.801371 48.234807 
L 375.08071 48.234807 
" style="fill:none;stroke:#4c72b0;stroke-linecap:round;stroke-width:1.5;"/>
   </g>
   <g id="line2d_14">
    <path clip-path="url(#p884241e120)" d="M 50.426165 273.0822 
L 53.705504 226.626127 
L 56.984842 163.445868 
L 60.264181 129.532934 
L 63.54352 109.556823 
L 66.822859 98.407366 
L 70.102198 94.69088 
L 73.381537 86.328787 
L 76.660876 81.218619 
L 79.940214 81.218619 
L 83.219553 84.005983 
L 86.498892 80.289497 
L 89.778231 81.218619 
L 93.05757 80.754058 
L 96.336909 79.824936 
L 99.616247 80.754058 
L 102.895586 81.218619 
L 106.174925 79.824936 
L 109.454264 77.966693 
L 112.733603 77.037572 
L 116.012942 75.64389 
L 119.29228 75.64389 
L 122.571619 74.250208 
L 125.850958 71.927404 
L 129.130297 69.14004 
L 132.409636 67.281797 
L 135.688975 66.817236 
L 138.968314 65.423554 
L 142.247652 64.958993 
L 145.526991 64.029872 
L 148.80633 62.636189 
L 152.085669 63.10075 
L 155.365008 63.565311 
L 158.644347 62.636189 
L 161.923685 63.10075 
L 165.203024 62.171629 
L 168.482363 61.707068 
L 171.761702 62.171629 
L 175.041041 61.242507 
L 178.32038 60.313386 
L 181.599718 60.313386 
L 184.879057 59.384264 
L 188.158396 58.919703 
L 191.437735 58.919703 
L 194.717074 58.455143 
L 197.996413 57.526021 
L 201.275752 58.455143 
L 204.55509 56.5969 
L 207.834429 57.526021 
L 211.113768 57.990582 
L 214.393107 57.526021 
L 217.672446 57.061461 
L 220.951785 57.061461 
L 224.231123 56.5969 
L 227.510462 55.667778 
L 230.789801 56.5969 
L 234.06914 56.5969 
L 237.348479 56.5969 
L 240.627818 55.667778 
L 243.907157 54.738657 
L 247.186495 54.738657 
L 250.465834 54.274096 
L 253.745173 54.738657 
L 257.024512 54.274096 
L 260.303851 53.809535 
L 263.58319 52.415853 
L 266.862528 52.415853 
L 270.141867 52.415853 
L 273.421206 52.415853 
L 276.700545 51.951293 
L 279.979884 51.022171 
L 283.259223 50.09305 
L 286.538561 48.699367 
L 289.8179 48.350947 
L 293.097239 48.931648 
L 296.376578 48.931648 
L 299.655917 48.931648 
L 302.935256 48.931648 
L 306.214595 48.931648 
L 309.493933 49.512349 
L 312.773272 48.931648 
L 316.052611 48.931648 
L 319.33195 47.770246 
L 322.611289 47.770246 
L 325.890628 47.189545 
L 329.169966 46.608844 
L 332.449305 46.608844 
L 335.728644 46.028143 
L 339.007983 44.866741 
L 342.287322 45.447442 
L 345.566661 44.866741 
L 348.845999 44.286041 
L 352.125338 43.124639 
L 355.404677 43.70534 
L 358.684016 43.124639 
L 361.963355 43.70534 
L 365.242694 41.963237 
L 368.522033 41.382536 
L 371.801371 40.801835 
L 375.08071 40.801835 
" style="fill:none;stroke:#c44e52;stroke-linecap:round;stroke-width:1.5;"/>
   </g>
   <g id="patch_3">
    <path d="M 34.193438 288.430125 
L 34.193438 22.318125 
" style="fill:none;stroke:#ffffff;stroke-linecap:square;stroke-linejoin:miter;stroke-width:1.25;"/>
   </g>
   <g id="patch_4">
    <path d="M 391.313438 288.430125 
L 391.313438 22.318125 
" style="fill:none;stroke:#ffffff;stroke-linecap:square;stroke-linejoin:miter;stroke-width:1.25;"/>
   </g>
   <g id="patch_5">
    <path d="M 34.193438 288.430125 
L 391.313437 288.430125 
" style="fill:none;stroke:#ffffff;stroke-linecap:square;stroke-linejoin:miter;stroke-width:1.25;"/>
   </g>
   <g id="patch_6">
    <path d="M 34.193438 22.318125 
L 391.313437 22.318125 
" style="fill:none;stroke:#ffffff;stroke-linecap:square;stroke-linejoin:miter;stroke-width:1.25;"/>
   </g>
   <g id="text_13">
    <!-- tapnet-NATOPS -->
    <defs>
     <path d="M 18.3125 70.21875 
L 18.3125 54.6875 
L 36.8125 54.6875 
L 36.8125 47.703125 
L 18.3125 47.703125 
L 18.3125 18.015625 
Q 18.3125 11.328125 20.140625 9.421875 
Q 21.96875 7.515625 27.59375 7.515625 
L 36.8125 7.515625 
L 36.8125 0 
L 27.59375 0 
Q 17.1875 0 13.234375 3.875 
Q 9.28125 7.765625 9.28125 18.015625 
L 9.28125 47.703125 
L 2.6875 47.703125 
L 2.6875 54.6875 
L 9.28125 54.6875 
L 9.28125 70.21875 
z
" id="DejaVuSans-116"/>
     <path d="M 34.28125 27.484375 
Q 23.390625 27.484375 19.1875 25 
Q 14.984375 22.515625 14.984375 16.5 
Q 14.984375 11.71875 18.140625 8.90625 
Q 21.296875 6.109375 26.703125 6.109375 
Q 34.1875 6.109375 38.703125 11.40625 
Q 43.21875 16.703125 43.21875 25.484375 
L 43.21875 27.484375 
z
M 52.203125 31.203125 
L 52.203125 0 
L 43.21875 0 
L 43.21875 8.296875 
Q 40.140625 3.328125 35.546875 0.953125 
Q 30.953125 -1.421875 24.3125 -1.421875 
Q 15.921875 -1.421875 10.953125 3.296875 
Q 6 8.015625 6 15.921875 
Q 6 25.140625 12.171875 29.828125 
Q 18.359375 34.515625 30.609375 34.515625 
L 43.21875 34.515625 
L 43.21875 35.40625 
Q 43.21875 41.609375 39.140625 45 
Q 35.0625 48.390625 27.6875 48.390625 
Q 23 48.390625 18.546875 47.265625 
Q 14.109375 46.140625 10.015625 43.890625 
L 10.015625 52.203125 
Q 14.9375 54.109375 19.578125 55.046875 
Q 24.21875 56 28.609375 56 
Q 40.484375 56 46.34375 49.84375 
Q 52.203125 43.703125 52.203125 31.203125 
z
" id="DejaVuSans-97"/>
     <path d="M 18.109375 8.203125 
L 18.109375 -20.796875 
L 9.078125 -20.796875 
L 9.078125 54.6875 
L 18.109375 54.6875 
L 18.109375 46.390625 
Q 20.953125 51.265625 25.265625 53.625 
Q 29.59375 56 35.59375 56 
Q 45.5625 56 51.78125 48.09375 
Q 58.015625 40.1875 58.015625 27.296875 
Q 58.015625 14.40625 51.78125 6.484375 
Q 45.5625 -1.421875 35.59375 -1.421875 
Q 29.59375 -1.421875 25.265625 0.953125 
Q 20.953125 3.328125 18.109375 8.203125 
z
M 48.6875 27.296875 
Q 48.6875 37.203125 44.609375 42.84375 
Q 40.53125 48.484375 33.40625 48.484375 
Q 26.265625 48.484375 22.1875 42.84375 
Q 18.109375 37.203125 18.109375 27.296875 
Q 18.109375 17.390625 22.1875 11.75 
Q 26.265625 6.109375 33.40625 6.109375 
Q 40.53125 6.109375 44.609375 11.75 
Q 48.6875 17.390625 48.6875 27.296875 
z
" id="DejaVuSans-112"/>
     <path d="M 54.890625 33.015625 
L 54.890625 0 
L 45.90625 0 
L 45.90625 32.71875 
Q 45.90625 40.484375 42.875 44.328125 
Q 39.84375 48.1875 33.796875 48.1875 
Q 26.515625 48.1875 22.3125 43.546875 
Q 18.109375 38.921875 18.109375 30.90625 
L 18.109375 0 
L 9.078125 0 
L 9.078125 54.6875 
L 18.109375 54.6875 
L 18.109375 46.1875 
Q 21.34375 51.125 25.703125 53.5625 
Q 30.078125 56 35.796875 56 
Q 45.21875 56 50.046875 50.171875 
Q 54.890625 44.34375 54.890625 33.015625 
z
" id="DejaVuSans-110"/>
     <path d="M 56.203125 29.59375 
L 56.203125 25.203125 
L 14.890625 25.203125 
Q 15.484375 15.921875 20.484375 11.0625 
Q 25.484375 6.203125 34.421875 6.203125 
Q 39.59375 6.203125 44.453125 7.46875 
Q 49.3125 8.734375 54.109375 11.28125 
L 54.109375 2.78125 
Q 49.265625 0.734375 44.1875 -0.34375 
Q 39.109375 -1.421875 33.890625 -1.421875 
Q 20.796875 -1.421875 13.15625 6.1875 
Q 5.515625 13.8125 5.515625 26.8125 
Q 5.515625 40.234375 12.765625 48.109375 
Q 20.015625 56 32.328125 56 
Q 43.359375 56 49.78125 48.890625 
Q 56.203125 41.796875 56.203125 29.59375 
z
M 47.21875 32.234375 
Q 47.125 39.59375 43.09375 43.984375 
Q 39.0625 48.390625 32.421875 48.390625 
Q 24.90625 48.390625 20.390625 44.140625 
Q 15.875 39.890625 15.1875 32.171875 
z
" id="DejaVuSans-101"/>
     <path d="M 4.890625 31.390625 
L 31.203125 31.390625 
L 31.203125 23.390625 
L 4.890625 23.390625 
z
" id="DejaVuSans-45"/>
     <path d="M 9.8125 72.90625 
L 23.09375 72.90625 
L 55.421875 11.921875 
L 55.421875 72.90625 
L 64.984375 72.90625 
L 64.984375 0 
L 51.703125 0 
L 19.390625 60.984375 
L 19.390625 0 
L 9.8125 0 
z
" id="DejaVuSans-78"/>
     <path d="M 34.1875 63.1875 
L 20.796875 26.90625 
L 47.609375 26.90625 
z
M 28.609375 72.90625 
L 39.796875 72.90625 
L 67.578125 0 
L 57.328125 0 
L 50.6875 18.703125 
L 17.828125 18.703125 
L 11.1875 0 
L 0.78125 0 
z
" id="DejaVuSans-65"/>
     <path d="M -0.296875 72.90625 
L 61.375 72.90625 
L 61.375 64.59375 
L 35.5 64.59375 
L 35.5 0 
L 25.59375 0 
L 25.59375 64.59375 
L -0.296875 64.59375 
z
" id="DejaVuSans-84"/>
     <path d="M 39.40625 66.21875 
Q 28.65625 66.21875 22.328125 58.203125 
Q 16.015625 50.203125 16.015625 36.375 
Q 16.015625 22.609375 22.328125 14.59375 
Q 28.65625 6.59375 39.40625 6.59375 
Q 50.140625 6.59375 56.421875 14.59375 
Q 62.703125 22.609375 62.703125 36.375 
Q 62.703125 50.203125 56.421875 58.203125 
Q 50.140625 66.21875 39.40625 66.21875 
z
M 39.40625 74.21875 
Q 54.734375 74.21875 63.90625 63.9375 
Q 73.09375 53.65625 73.09375 36.375 
Q 73.09375 19.140625 63.90625 8.859375 
Q 54.734375 -1.421875 39.40625 -1.421875 
Q 24.03125 -1.421875 14.8125 8.828125 
Q 5.609375 19.09375 5.609375 36.375 
Q 5.609375 53.65625 14.8125 63.9375 
Q 24.03125 74.21875 39.40625 74.21875 
z
" id="DejaVuSans-79"/>
     <path d="M 19.671875 64.796875 
L 19.671875 37.40625 
L 32.078125 37.40625 
Q 38.96875 37.40625 42.71875 40.96875 
Q 46.484375 44.53125 46.484375 51.125 
Q 46.484375 57.671875 42.71875 61.234375 
Q 38.96875 64.796875 32.078125 64.796875 
z
M 9.8125 72.90625 
L 32.078125 72.90625 
Q 44.34375 72.90625 50.609375 67.359375 
Q 56.890625 61.8125 56.890625 51.125 
Q 56.890625 40.328125 50.609375 34.8125 
Q 44.34375 29.296875 32.078125 29.296875 
L 19.671875 29.296875 
L 19.671875 0 
L 9.8125 0 
z
" id="DejaVuSans-80"/>
     <path d="M 53.515625 70.515625 
L 53.515625 60.890625 
Q 47.90625 63.578125 42.921875 64.890625 
Q 37.9375 66.21875 33.296875 66.21875 
Q 25.25 66.21875 20.875 63.09375 
Q 16.5 59.96875 16.5 54.203125 
Q 16.5 49.359375 19.40625 46.890625 
Q 22.3125 44.4375 30.421875 42.921875 
L 36.375 41.703125 
Q 47.40625 39.59375 52.65625 34.296875 
Q 57.90625 29 57.90625 20.125 
Q 57.90625 9.515625 50.796875 4.046875 
Q 43.703125 -1.421875 29.984375 -1.421875 
Q 24.8125 -1.421875 18.96875 -0.25 
Q 13.140625 0.921875 6.890625 3.21875 
L 6.890625 13.375 
Q 12.890625 10.015625 18.65625 8.296875 
Q 24.421875 6.59375 29.984375 6.59375 
Q 38.421875 6.59375 43.015625 9.90625 
Q 47.609375 13.234375 47.609375 19.390625 
Q 47.609375 24.75 44.3125 27.78125 
Q 41.015625 30.8125 33.5 32.328125 
L 27.484375 33.5 
Q 16.453125 35.6875 11.515625 40.375 
Q 6.59375 45.0625 6.59375 53.421875 
Q 6.59375 63.09375 13.40625 68.65625 
Q 20.21875 74.21875 32.171875 74.21875 
Q 37.3125 74.21875 42.625 73.28125 
Q 47.953125 72.359375 53.515625 70.515625 
z
" id="DejaVuSans-83"/>
    </defs>
    <g style="fill:#262626;" transform="translate(166.502813 16.318125)scale(0.12 -0.12)">
     <use xlink:href="#DejaVuSans-116"/>
     <use x="39.208984" xlink:href="#DejaVuSans-97"/>
     <use x="100.488281" xlink:href="#DejaVuSans-112"/>
     <use x="163.964844" xlink:href="#DejaVuSans-110"/>
     <use x="227.34375" xlink:href="#DejaVuSans-101"/>
     <use x="288.867188" xlink:href="#DejaVuSans-116"/>
     <use x="328.076172" xlink:href="#DejaVuSans-45"/>
     <use x="364.160156" xlink:href="#DejaVuSans-78"/>
     <use x="438.964844" xlink:href="#DejaVuSans-65"/>
     <use x="507.263672" xlink:href="#DejaVuSans-84"/>
     <use x="568.347656" xlink:href="#DejaVuSans-79"/>
     <use x="647.058594" xlink:href="#DejaVuSans-80"/>
     <use x="707.361328" xlink:href="#DejaVuSans-83"/>
    </g>
   </g>
   <g id="legend_1">
    <g id="patch_7">
     <path d="M 311.16125 282.930125 
L 383.613438 282.930125 
Q 385.813438 282.930125 385.813438 280.730125 
L 385.813438 217.246375 
Q 385.813438 215.046375 383.613438 215.046375 
L 311.16125 215.046375 
Q 308.96125 215.046375 308.96125 217.246375 
L 308.96125 280.730125 
Q 308.96125 282.930125 311.16125 282.930125 
z
" style="fill:#eaeaf2;opacity:0.8;stroke:#cccccc;stroke-linejoin:miter;"/>
    </g>
    <g id="line2d_15">
     <path d="M 313.36125 223.954656 
L 335.36125 223.954656 
" style="fill:none;stroke:#4c72b0;stroke-linecap:round;stroke-width:1.5;"/>
    </g>
    <g id="line2d_16"/>
    <g id="text_14">
     <!-- pooled -->
     <defs>
      <path d="M 30.609375 48.390625 
Q 23.390625 48.390625 19.1875 42.75 
Q 14.984375 37.109375 14.984375 27.296875 
Q 14.984375 17.484375 19.15625 11.84375 
Q 23.34375 6.203125 30.609375 6.203125 
Q 37.796875 6.203125 41.984375 11.859375 
Q 46.1875 17.53125 46.1875 27.296875 
Q 46.1875 37.015625 41.984375 42.703125 
Q 37.796875 48.390625 30.609375 48.390625 
z
M 30.609375 56 
Q 42.328125 56 49.015625 48.375 
Q 55.71875 40.765625 55.71875 27.296875 
Q 55.71875 13.875 49.015625 6.21875 
Q 42.328125 -1.421875 30.609375 -1.421875 
Q 18.84375 -1.421875 12.171875 6.21875 
Q 5.515625 13.875 5.515625 27.296875 
Q 5.515625 40.765625 12.171875 48.375 
Q 18.84375 56 30.609375 56 
z
" id="DejaVuSans-111"/>
      <path d="M 9.421875 75.984375 
L 18.40625 75.984375 
L 18.40625 0 
L 9.421875 0 
z
" id="DejaVuSans-108"/>
      <path d="M 45.40625 46.390625 
L 45.40625 75.984375 
L 54.390625 75.984375 
L 54.390625 0 
L 45.40625 0 
L 45.40625 8.203125 
Q 42.578125 3.328125 38.25 0.953125 
Q 33.9375 -1.421875 27.875 -1.421875 
Q 17.96875 -1.421875 11.734375 6.484375 
Q 5.515625 14.40625 5.515625 27.296875 
Q 5.515625 40.1875 11.734375 48.09375 
Q 17.96875 56 27.875 56 
Q 33.9375 56 38.25 53.625 
Q 42.578125 51.265625 45.40625 46.390625 
z
M 14.796875 27.296875 
Q 14.796875 17.390625 18.875 11.75 
Q 22.953125 6.109375 30.078125 6.109375 
Q 37.203125 6.109375 41.296875 11.75 
Q 45.40625 17.390625 45.40625 27.296875 
Q 45.40625 37.203125 41.296875 42.84375 
Q 37.203125 48.484375 30.078125 48.484375 
Q 22.953125 48.484375 18.875 42.84375 
Q 14.796875 37.203125 14.796875 27.296875 
z
" id="DejaVuSans-100"/>
     </defs>
     <g style="fill:#262626;" transform="translate(344.16125 227.804656)scale(0.11 -0.11)">
      <use xlink:href="#DejaVuSans-112"/>
      <use x="63.476562" xlink:href="#DejaVuSans-111"/>
      <use x="124.658203" xlink:href="#DejaVuSans-111"/>
      <use x="185.839844" xlink:href="#DejaVuSans-108"/>
      <use x="213.623047" xlink:href="#DejaVuSans-101"/>
      <use x="275.146484" xlink:href="#DejaVuSans-100"/>
     </g>
    </g>
    <g id="line2d_17">
     <path d="M 313.36125 240.100594 
L 335.36125 240.100594 
" style="fill:none;stroke:#c44e52;stroke-linecap:round;stroke-width:1.5;"/>
    </g>
    <g id="line2d_18"/>
    <g id="text_15">
     <!-- dad -->
     <g style="fill:#262626;" transform="translate(344.16125 243.950594)scale(0.11 -0.11)">
      <use xlink:href="#DejaVuSans-100"/>
      <use x="63.476562" xlink:href="#DejaVuSans-97"/>
      <use x="124.755859" xlink:href="#DejaVuSans-100"/>
     </g>
    </g>
    <g id="patch_8">
     <path d="M 313.36125 260.096531 
L 335.36125 260.096531 
L 335.36125 252.396531 
L 313.36125 252.396531 
z
" style="fill:#4c72b0;opacity:0.2;stroke:#4c72b0;stroke-linejoin:miter;"/>
    </g>
    <g id="text_16">
     <!-- edad -->
     <g style="fill:#262626;" transform="translate(344.16125 260.096531)scale(0.11 -0.11)">
      <use xlink:href="#DejaVuSans-101"/>
      <use x="61.523438" xlink:href="#DejaVuSans-100"/>
      <use x="125" xlink:href="#DejaVuSans-97"/>
      <use x="186.279297" xlink:href="#DejaVuSans-100"/>
     </g>
    </g>
    <g id="patch_9">
     <path d="M 313.36125 276.242469 
L 335.36125 276.242469 
L 335.36125 268.542469 
L 313.36125 268.542469 
z
" style="fill:#c44e52;opacity:0.2;stroke:#c44e52;stroke-linejoin:miter;"/>
    </g>
    <g id="text_17">
     <!-- dsgd -->
     <defs>
      <path d="M 44.28125 53.078125 
L 44.28125 44.578125 
Q 40.484375 46.53125 36.375 47.5 
Q 32.28125 48.484375 27.875 48.484375 
Q 21.1875 48.484375 17.84375 46.4375 
Q 14.5 44.390625 14.5 40.28125 
Q 14.5 37.15625 16.890625 35.375 
Q 19.28125 33.59375 26.515625 31.984375 
L 29.59375 31.296875 
Q 39.15625 29.25 43.1875 25.515625 
Q 47.21875 21.78125 47.21875 15.09375 
Q 47.21875 7.46875 41.1875 3.015625 
Q 35.15625 -1.421875 24.609375 -1.421875 
Q 20.21875 -1.421875 15.453125 -0.5625 
Q 10.6875 0.296875 5.421875 2 
L 5.421875 11.28125 
Q 10.40625 8.6875 15.234375 7.390625 
Q 20.0625 6.109375 24.8125 6.109375 
Q 31.15625 6.109375 34.5625 8.28125 
Q 37.984375 10.453125 37.984375 14.40625 
Q 37.984375 18.0625 35.515625 20.015625 
Q 33.0625 21.96875 24.703125 23.78125 
L 21.578125 24.515625 
Q 13.234375 26.265625 9.515625 29.90625 
Q 5.8125 33.546875 5.8125 39.890625 
Q 5.8125 47.609375 11.28125 51.796875 
Q 16.75 56 26.8125 56 
Q 31.78125 56 36.171875 55.265625 
Q 40.578125 54.546875 44.28125 53.078125 
z
" id="DejaVuSans-115"/>
      <path d="M 45.40625 27.984375 
Q 45.40625 37.75 41.375 43.109375 
Q 37.359375 48.484375 30.078125 48.484375 
Q 22.859375 48.484375 18.828125 43.109375 
Q 14.796875 37.75 14.796875 27.984375 
Q 14.796875 18.265625 18.828125 12.890625 
Q 22.859375 7.515625 30.078125 7.515625 
Q 37.359375 7.515625 41.375 12.890625 
Q 45.40625 18.265625 45.40625 27.984375 
z
M 54.390625 6.78125 
Q 54.390625 -7.171875 48.1875 -13.984375 
Q 42 -20.796875 29.203125 -20.796875 
Q 24.46875 -20.796875 20.265625 -20.09375 
Q 16.0625 -19.390625 12.109375 -17.921875 
L 12.109375 -9.1875 
Q 16.0625 -11.328125 19.921875 -12.34375 
Q 23.78125 -13.375 27.78125 -13.375 
Q 36.625 -13.375 41.015625 -8.765625 
Q 45.40625 -4.15625 45.40625 5.171875 
L 45.40625 9.625 
Q 42.625 4.78125 38.28125 2.390625 
Q 33.9375 0 27.875 0 
Q 17.828125 0 11.671875 7.65625 
Q 5.515625 15.328125 5.515625 27.984375 
Q 5.515625 40.671875 11.671875 48.328125 
Q 17.828125 56 27.875 56 
Q 33.9375 56 38.28125 53.609375 
Q 42.625 51.21875 45.40625 46.390625 
L 45.40625 54.6875 
L 54.390625 54.6875 
z
" id="DejaVuSans-103"/>
     </defs>
     <g style="fill:#262626;" transform="translate(344.16125 276.242469)scale(0.11 -0.11)">
      <use xlink:href="#DejaVuSans-100"/>
      <use x="63.476562" xlink:href="#DejaVuSans-115"/>
      <use x="115.576172" xlink:href="#DejaVuSans-103"/>
      <use x="179.052734" xlink:href="#DejaVuSans-100"/>
     </g>
    </g>
   </g>
  </g>
 </g>
 <defs>
  <clipPath id="p884241e120">
   <rect height="266.112" width="357.12" x="34.193438" y="22.318125"/>
  </clipPath>
 </defs>
</svg>
