<?xml version="1.0" encoding="utf-8" standalone="no"?>
<!DOCTYPE svg PUBLIC "-//W3C//DTD SVG 1.1//EN"
  "http://www.w3.org/Graphics/SVG/1.1/DTD/svg11.dtd">
<!-- Created with matplotlib (https://matplotlib.org/) -->
<svg height="315.776062pt" version="1.1" viewBox="0 0 405.512187 315.776062" width="405.512187pt" xmlns="http://www.w3.org/2000/svg" xmlns:xlink="http://www.w3.org/1999/xlink">
 <defs>
  <style type="text/css">
*{stroke-linecap:butt;stroke-linejoin:round;}
  </style>
 </defs>
 <g id="figure_1">
  <g id="patch_1">
   <path d="M 0 315.776062 
L 405.512187 315.776062 
L 405.512187 0 
L 0 0 
z
" style="fill:#ffffff;"/>
  </g>
  <g id="axes_1">
   <g id="patch_2">
    <path d="M 41.192188 288.430125 
L 398.312188 288.430125 
L 398.312188 22.318125 
L 41.192188 22.318125 
z
" style="fill:#eaeaf2;"/>
   </g>
   <g id="matplotlib.axis_1">
    <g id="xtick_1">
     <g id="line2d_1">
      <path clip-path="url(#p57ebc426eb)" d="M 57.424915 288.430125 
L 57.424915 22.318125 
" style="fill:none;stroke:#ffffff;stroke-linecap:round;"/>
     </g>
     <g id="text_1">
      <!-- 0 -->
      <defs>
       <path d="M 31.78125 66.40625 
Q 24.171875 66.40625 20.328125 58.90625 
Q 16.5 51.421875 16.5 36.375 
Q 16.5 21.390625 20.328125 13.890625 
Q 24.171875 6.390625 31.78125 6.390625 
Q 39.453125 6.390625 43.28125 13.890625 
Q 47.125 21.390625 47.125 36.375 
Q 47.125 51.421875 43.28125 58.90625 
Q 39.453125 66.40625 31.78125 66.40625 
z
M 31.78125 74.21875 
Q 44.046875 74.21875 50.515625 64.515625 
Q 56.984375 54.828125 56.984375 36.375 
Q 56.984375 17.96875 50.515625 8.265625 
Q 44.046875 -1.421875 31.78125 -1.421875 
Q 19.53125 -1.421875 13.0625 8.265625 
Q 6.59375 17.96875 6.59375 36.375 
Q 6.59375 54.828125 13.0625 64.515625 
Q 19.53125 74.21875 31.78125 74.21875 
z
" id="DejaVuSans-48"/>
      </defs>
      <g style="fill:#262626;" transform="translate(53.92554 306.288406)scale(0.11 -0.11)">
       <use xlink:href="#DejaVuSans-48"/>
      </g>
     </g>
    </g>
    <g id="xtick_2">
     <g id="line2d_2">
      <path clip-path="url(#p57ebc426eb)" d="M 123.011692 288.430125 
L 123.011692 22.318125 
" style="fill:none;stroke:#ffffff;stroke-linecap:round;"/>
     </g>
     <g id="text_2">
      <!-- 20 -->
      <defs>
       <path d="M 19.1875 8.296875 
L 53.609375 8.296875 
L 53.609375 0 
L 7.328125 0 
L 7.328125 8.296875 
Q 12.9375 14.109375 22.625 23.890625 
Q 32.328125 33.6875 34.8125 36.53125 
Q 39.546875 41.84375 41.421875 45.53125 
Q 43.3125 49.21875 43.3125 52.78125 
Q 43.3125 58.59375 39.234375 62.25 
Q 35.15625 65.921875 28.609375 65.921875 
Q 23.96875 65.921875 18.8125 64.3125 
Q 13.671875 62.703125 7.8125 59.421875 
L 7.8125 69.390625 
Q 13.765625 71.78125 18.9375 73 
Q 24.125 74.21875 28.421875 74.21875 
Q 39.75 74.21875 46.484375 68.546875 
Q 53.21875 62.890625 53.21875 53.421875 
Q 53.21875 48.921875 51.53125 44.890625 
Q 49.859375 40.875 45.40625 35.40625 
Q 44.1875 33.984375 37.640625 27.21875 
Q 31.109375 20.453125 19.1875 8.296875 
z
" id="DejaVuSans-50"/>
      </defs>
      <g style="fill:#262626;" transform="translate(116.012942 306.288406)scale(0.11 -0.11)">
       <use xlink:href="#DejaVuSans-50"/>
       <use x="63.623047" xlink:href="#DejaVuSans-48"/>
      </g>
     </g>
    </g>
    <g id="xtick_3">
     <g id="line2d_3">
      <path clip-path="url(#p57ebc426eb)" d="M 188.598468 288.430125 
L 188.598468 22.318125 
" style="fill:none;stroke:#ffffff;stroke-linecap:round;"/>
     </g>
     <g id="text_3">
      <!-- 40 -->
      <defs>
       <path d="M 37.796875 64.3125 
L 12.890625 25.390625 
L 37.796875 25.390625 
z
M 35.203125 72.90625 
L 47.609375 72.90625 
L 47.609375 25.390625 
L 58.015625 25.390625 
L 58.015625 17.1875 
L 47.609375 17.1875 
L 47.609375 0 
L 37.796875 0 
L 37.796875 17.1875 
L 4.890625 17.1875 
L 4.890625 26.703125 
z
" id="DejaVuSans-52"/>
      </defs>
      <g style="fill:#262626;" transform="translate(181.599718 306.288406)scale(0.11 -0.11)">
       <use xlink:href="#DejaVuSans-52"/>
       <use x="63.623047" xlink:href="#DejaVuSans-48"/>
      </g>
     </g>
    </g>
    <g id="xtick_4">
     <g id="line2d_4">
      <path clip-path="url(#p57ebc426eb)" d="M 254.185245 288.430125 
L 254.185245 22.318125 
" style="fill:none;stroke:#ffffff;stroke-linecap:round;"/>
     </g>
     <g id="text_4">
      <!-- 60 -->
      <defs>
       <path d="M 33.015625 40.375 
Q 26.375 40.375 22.484375 35.828125 
Q 18.609375 31.296875 18.609375 23.390625 
Q 18.609375 15.53125 22.484375 10.953125 
Q 26.375 6.390625 33.015625 6.390625 
Q 39.65625 6.390625 43.53125 10.953125 
Q 47.40625 15.53125 47.40625 23.390625 
Q 47.40625 31.296875 43.53125 35.828125 
Q 39.65625 40.375 33.015625 40.375 
z
M 52.59375 71.296875 
L 52.59375 62.3125 
Q 48.875 64.0625 45.09375 64.984375 
Q 41.3125 65.921875 37.59375 65.921875 
Q 27.828125 65.921875 22.671875 59.328125 
Q 17.53125 52.734375 16.796875 39.40625 
Q 19.671875 43.65625 24.015625 45.921875 
Q 28.375 48.1875 33.59375 48.1875 
Q 44.578125 48.1875 50.953125 41.515625 
Q 57.328125 34.859375 57.328125 23.390625 
Q 57.328125 12.15625 50.6875 5.359375 
Q 44.046875 -1.421875 33.015625 -1.421875 
Q 20.359375 -1.421875 13.671875 8.265625 
Q 6.984375 17.96875 6.984375 36.375 
Q 6.984375 53.65625 15.1875 63.9375 
Q 23.390625 74.21875 37.203125 74.21875 
Q 40.921875 74.21875 44.703125 73.484375 
Q 48.484375 72.75 52.59375 71.296875 
z
" id="DejaVuSans-54"/>
      </defs>
      <g style="fill:#262626;" transform="translate(247.186495 306.288406)scale(0.11 -0.11)">
       <use xlink:href="#DejaVuSans-54"/>
       <use x="63.623047" xlink:href="#DejaVuSans-48"/>
      </g>
     </g>
    </g>
    <g id="xtick_5">
     <g id="line2d_5">
      <path clip-path="url(#p57ebc426eb)" d="M 319.772022 288.430125 
L 319.772022 22.318125 
" style="fill:none;stroke:#ffffff;stroke-linecap:round;"/>
     </g>
     <g id="text_5">
      <!-- 80 -->
      <defs>
       <path d="M 31.78125 34.625 
Q 24.75 34.625 20.71875 30.859375 
Q 16.703125 27.09375 16.703125 20.515625 
Q 16.703125 13.921875 20.71875 10.15625 
Q 24.75 6.390625 31.78125 6.390625 
Q 38.8125 6.390625 42.859375 10.171875 
Q 46.921875 13.96875 46.921875 20.515625 
Q 46.921875 27.09375 42.890625 30.859375 
Q 38.875 34.625 31.78125 34.625 
z
M 21.921875 38.8125 
Q 15.578125 40.375 12.03125 44.71875 
Q 8.5 49.078125 8.5 55.328125 
Q 8.5 64.0625 14.71875 69.140625 
Q 20.953125 74.21875 31.78125 74.21875 
Q 42.671875 74.21875 48.875 69.140625 
Q 55.078125 64.0625 55.078125 55.328125 
Q 55.078125 49.078125 51.53125 44.71875 
Q 48 40.375 41.703125 38.8125 
Q 48.828125 37.15625 52.796875 32.3125 
Q 56.78125 27.484375 56.78125 20.515625 
Q 56.78125 9.90625 50.3125 4.234375 
Q 43.84375 -1.421875 31.78125 -1.421875 
Q 19.734375 -1.421875 13.25 4.234375 
Q 6.78125 9.90625 6.78125 20.515625 
Q 6.78125 27.484375 10.78125 32.3125 
Q 14.796875 37.15625 21.921875 38.8125 
z
M 18.3125 54.390625 
Q 18.3125 48.734375 21.84375 45.5625 
Q 25.390625 42.390625 31.78125 42.390625 
Q 38.140625 42.390625 41.71875 45.5625 
Q 45.3125 48.734375 45.3125 54.390625 
Q 45.3125 60.0625 41.71875 63.234375 
Q 38.140625 66.40625 31.78125 66.40625 
Q 25.390625 66.40625 21.84375 63.234375 
Q 18.3125 60.0625 18.3125 54.390625 
z
" id="DejaVuSans-56"/>
      </defs>
      <g style="fill:#262626;" transform="translate(312.773272 306.288406)scale(0.11 -0.11)">
       <use xlink:href="#DejaVuSans-56"/>
       <use x="63.623047" xlink:href="#DejaVuSans-48"/>
      </g>
     </g>
    </g>
    <g id="xtick_6">
     <g id="line2d_6">
      <path clip-path="url(#p57ebc426eb)" d="M 385.358799 288.430125 
L 385.358799 22.318125 
" style="fill:none;stroke:#ffffff;stroke-linecap:round;"/>
     </g>
     <g id="text_6">
      <!-- 100 -->
      <defs>
       <path d="M 12.40625 8.296875 
L 28.515625 8.296875 
L 28.515625 63.921875 
L 10.984375 60.40625 
L 10.984375 69.390625 
L 28.421875 72.90625 
L 38.28125 72.90625 
L 38.28125 8.296875 
L 54.390625 8.296875 
L 54.390625 0 
L 12.40625 0 
z
" id="DejaVuSans-49"/>
      </defs>
      <g style="fill:#262626;" transform="translate(374.860674 306.288406)scale(0.11 -0.11)">
       <use xlink:href="#DejaVuSans-49"/>
       <use x="63.623047" xlink:href="#DejaVuSans-48"/>
       <use x="127.246094" xlink:href="#DejaVuSans-48"/>
      </g>
     </g>
    </g>
   </g>
   <g id="matplotlib.axis_2">
    <g id="ytick_1">
     <g id="line2d_7">
      <path clip-path="url(#p57ebc426eb)" d="M 41.192188 274.911066 
L 398.312188 274.911066 
" style="fill:none;stroke:#ffffff;stroke-linecap:round;"/>
     </g>
     <g id="text_7">
      <!-- 0.95 -->
      <defs>
       <path d="M 10.6875 12.40625 
L 21 12.40625 
L 21 0 
L 10.6875 0 
z
" id="DejaVuSans-46"/>
       <path d="M 10.984375 1.515625 
L 10.984375 10.5 
Q 14.703125 8.734375 18.5 7.8125 
Q 22.3125 6.890625 25.984375 6.890625 
Q 35.75 6.890625 40.890625 13.453125 
Q 46.046875 20.015625 46.78125 33.40625 
Q 43.953125 29.203125 39.59375 26.953125 
Q 35.25 24.703125 29.984375 24.703125 
Q 19.046875 24.703125 12.671875 31.3125 
Q 6.296875 37.9375 6.296875 49.421875 
Q 6.296875 60.640625 12.9375 67.421875 
Q 19.578125 74.21875 30.609375 74.21875 
Q 43.265625 74.21875 49.921875 64.515625 
Q 56.59375 54.828125 56.59375 36.375 
Q 56.59375 19.140625 48.40625 8.859375 
Q 40.234375 -1.421875 26.421875 -1.421875 
Q 22.703125 -1.421875 18.890625 -0.6875 
Q 15.09375 0.046875 10.984375 1.515625 
z
M 30.609375 32.421875 
Q 37.25 32.421875 41.125 36.953125 
Q 45.015625 41.5 45.015625 49.421875 
Q 45.015625 57.28125 41.125 61.84375 
Q 37.25 66.40625 30.609375 66.40625 
Q 23.96875 66.40625 20.09375 61.84375 
Q 16.21875 57.28125 16.21875 49.421875 
Q 16.21875 41.5 20.09375 36.953125 
Q 23.96875 32.421875 30.609375 32.421875 
z
" id="DejaVuSans-57"/>
       <path d="M 10.796875 72.90625 
L 49.515625 72.90625 
L 49.515625 64.59375 
L 19.828125 64.59375 
L 19.828125 46.734375 
Q 21.96875 47.46875 24.109375 47.828125 
Q 26.265625 48.1875 28.421875 48.1875 
Q 40.625 48.1875 47.75 41.5 
Q 54.890625 34.8125 54.890625 23.390625 
Q 54.890625 11.625 47.5625 5.09375 
Q 40.234375 -1.421875 26.90625 -1.421875 
Q 22.3125 -1.421875 17.546875 -0.640625 
Q 12.796875 0.140625 7.71875 1.703125 
L 7.71875 11.625 
Q 12.109375 9.234375 16.796875 8.0625 
Q 21.484375 6.890625 26.703125 6.890625 
Q 35.15625 6.890625 40.078125 11.328125 
Q 45.015625 15.765625 45.015625 23.390625 
Q 45.015625 31 40.078125 35.4375 
Q 35.15625 39.890625 26.703125 39.890625 
Q 22.75 39.890625 18.8125 39.015625 
Q 14.890625 38.140625 10.796875 36.28125 
z
" id="DejaVuSans-53"/>
      </defs>
      <g style="fill:#262626;" transform="translate(7.2 279.090207)scale(0.11 -0.11)">
       <use xlink:href="#DejaVuSans-48"/>
       <use x="63.623047" xlink:href="#DejaVuSans-46"/>
       <use x="95.410156" xlink:href="#DejaVuSans-57"/>
       <use x="159.033203" xlink:href="#DejaVuSans-53"/>
      </g>
     </g>
    </g>
    <g id="ytick_2">
     <g id="line2d_8">
      <path clip-path="url(#p57ebc426eb)" d="M 41.192188 218.014587 
L 398.312188 218.014587 
" style="fill:none;stroke:#ffffff;stroke-linecap:round;"/>
     </g>
     <g id="text_8">
      <!-- 0.96 -->
      <g style="fill:#262626;" transform="translate(7.2 222.193728)scale(0.11 -0.11)">
       <use xlink:href="#DejaVuSans-48"/>
       <use x="63.623047" xlink:href="#DejaVuSans-46"/>
       <use x="95.410156" xlink:href="#DejaVuSans-57"/>
       <use x="159.033203" xlink:href="#DejaVuSans-54"/>
      </g>
     </g>
    </g>
    <g id="ytick_3">
     <g id="line2d_9">
      <path clip-path="url(#p57ebc426eb)" d="M 41.192188 161.118108 
L 398.312188 161.118108 
" style="fill:none;stroke:#ffffff;stroke-linecap:round;"/>
     </g>
     <g id="text_9">
      <!-- 0.97 -->
      <defs>
       <path d="M 8.203125 72.90625 
L 55.078125 72.90625 
L 55.078125 68.703125 
L 28.609375 0 
L 18.3125 0 
L 43.21875 64.59375 
L 8.203125 64.59375 
z
" id="DejaVuSans-55"/>
      </defs>
      <g style="fill:#262626;" transform="translate(7.2 165.297249)scale(0.11 -0.11)">
       <use xlink:href="#DejaVuSans-48"/>
       <use x="63.623047" xlink:href="#DejaVuSans-46"/>
       <use x="95.410156" xlink:href="#DejaVuSans-57"/>
       <use x="159.033203" xlink:href="#DejaVuSans-55"/>
      </g>
     </g>
    </g>
    <g id="ytick_4">
     <g id="line2d_10">
      <path clip-path="url(#p57ebc426eb)" d="M 41.192188 104.221629 
L 398.312188 104.221629 
" style="fill:none;stroke:#ffffff;stroke-linecap:round;"/>
     </g>
     <g id="text_10">
      <!-- 0.98 -->
      <g style="fill:#262626;" transform="translate(7.2 108.400769)scale(0.11 -0.11)">
       <use xlink:href="#DejaVuSans-48"/>
       <use x="63.623047" xlink:href="#DejaVuSans-46"/>
       <use x="95.410156" xlink:href="#DejaVuSans-57"/>
       <use x="159.033203" xlink:href="#DejaVuSans-56"/>
      </g>
     </g>
    </g>
    <g id="ytick_5">
     <g id="line2d_11">
      <path clip-path="url(#p57ebc426eb)" d="M 41.192188 47.32515 
L 398.312188 47.32515 
" style="fill:none;stroke:#ffffff;stroke-linecap:round;"/>
     </g>
     <g id="text_11">
      <!-- 0.99 -->
      <g style="fill:#262626;" transform="translate(7.2 51.50429)scale(0.11 -0.11)">
       <use xlink:href="#DejaVuSans-48"/>
       <use x="63.623047" xlink:href="#DejaVuSans-46"/>
       <use x="95.410156" xlink:href="#DejaVuSans-57"/>
       <use x="159.033203" xlink:href="#DejaVuSans-57"/>
      </g>
     </g>
    </g>
   </g>
   <g id="PolyCollection_1">
    <defs>
     <path d="M 57.424915 -71.784183 
L 57.424915 -65.962579 
L 60.704254 -148.111884 
L 63.983592 -175.926216 
L 67.262931 -193.391028 
L 70.54227 -205.034237 
L 73.821609 -211.502686 
L 77.100948 -219.264825 
L 80.380287 -222.49905 
L 83.659626 -219.264825 
L 86.938964 -219.264825 
L 90.218303 -216.677446 
L 93.497642 -221.852205 
L 96.776981 -229.614344 
L 100.05632 -237.376483 
L 103.335659 -247.726002 
L 106.614997 -255.488141 
L 109.894336 -258.07552 
L 113.173675 -258.07552 
L 116.453014 -260.6629 
L 119.732353 -260.6629 
L 123.011692 -260.6629 
L 126.29103 -260.6629 
L 129.570369 -260.6629 
L 132.849708 -260.6629 
L 136.129047 -260.6629 
L 139.408386 -260.6629 
L 142.687725 -263.25028 
L 145.967064 -263.25028 
L 149.246402 -263.25028 
L 152.525741 -263.25028 
L 155.80508 -263.25028 
L 159.084419 -263.25028 
L 162.363758 -263.25028 
L 165.643097 -263.25028 
L 168.922435 -263.25028 
L 172.201774 -265.837659 
L 175.481113 -266.700119 
L 178.760452 -265.837659 
L 182.039791 -265.837659 
L 185.31913 -265.837659 
L 188.598468 -265.837659 
L 191.877807 -265.837659 
L 195.157146 -265.837659 
L 198.436485 -265.837659 
L 201.715824 -265.837659 
L 204.995163 -265.837659 
L 208.274502 -265.837659 
L 211.55384 -265.837659 
L 214.833179 -265.837659 
L 218.112518 -265.837659 
L 221.391857 -265.837659 
L 224.671196 -265.837659 
L 227.950535 -265.837659 
L 231.229873 -268.425039 
L 234.509212 -271.012419 
L 237.788551 -271.012419 
L 241.06789 -271.012419 
L 244.347229 -271.012419 
L 247.626568 -271.012419 
L 250.905907 -271.012419 
L 254.185245 -271.012419 
L 257.464584 -271.012419 
L 260.743923 -271.012419 
L 264.023262 -271.012419 
L 267.302601 -271.012419 
L 270.58194 -271.012419 
L 273.861278 -271.012419 
L 277.140617 -271.012419 
L 280.419956 -271.012419 
L 283.699295 -271.012419 
L 286.978634 -271.012419 
L 290.257973 -271.012419 
L 293.537311 -271.012419 
L 296.81665 -271.012419 
L 300.095989 -271.012419 
L 303.375328 -271.012419 
L 306.654667 -271.012419 
L 309.934006 -271.012419 
L 313.213345 -271.012419 
L 316.492683 -271.012419 
L 319.772022 -271.012419 
L 323.051361 -271.012419 
L 326.3307 -271.012419 
L 329.610039 -271.012419 
L 332.889378 -271.012419 
L 336.168716 -271.012419 
L 339.448055 -271.012419 
L 342.727394 -271.012419 
L 346.006733 -271.012419 
L 349.286072 -271.012419 
L 352.565411 -271.012419 
L 355.844749 -271.012419 
L 359.124088 -271.012419 
L 362.403427 -271.012419 
L 365.682766 -271.012419 
L 368.962105 -271.874879 
L 372.241444 -271.012419 
L 375.520783 -271.012419 
L 378.800121 -271.012419 
L 382.07946 -271.012419 
L 382.07946 -278.774558 
L 382.07946 -278.774558 
L 378.800121 -278.774558 
L 375.520783 -278.774558 
L 372.241444 -278.774558 
L 368.962105 -278.774558 
L 365.682766 -278.774558 
L 362.403427 -278.774558 
L 359.124088 -278.774558 
L 355.844749 -278.774558 
L 352.565411 -278.774558 
L 349.286072 -278.774558 
L 346.006733 -278.774558 
L 342.727394 -278.774558 
L 339.448055 -278.774558 
L 336.168716 -278.774558 
L 332.889378 -278.774558 
L 329.610039 -278.774558 
L 326.3307 -278.774558 
L 323.051361 -278.774558 
L 319.772022 -278.774558 
L 316.492683 -278.774558 
L 313.213345 -278.774558 
L 309.934006 -278.774558 
L 306.654667 -278.774558 
L 303.375328 -278.774558 
L 300.095989 -278.774558 
L 296.81665 -281.361938 
L 293.537311 -278.774558 
L 290.257973 -278.774558 
L 286.978634 -278.774558 
L 283.699295 -278.774558 
L 280.419956 -278.774558 
L 277.140617 -278.774558 
L 273.861278 -278.774558 
L 270.58194 -278.774558 
L 267.302601 -278.774558 
L 264.023262 -278.774558 
L 260.743923 -278.774558 
L 257.464584 -277.049638 
L 254.185245 -278.774558 
L 250.905907 -277.092761 
L 247.626568 -278.774558 
L 244.347229 -278.774558 
L 241.06789 -278.774558 
L 237.788551 -278.774558 
L 234.509212 -278.774558 
L 231.229873 -278.774558 
L 227.950535 -278.774558 
L 224.671196 -281.361938 
L 221.391857 -281.361938 
L 218.112518 -281.361938 
L 214.833179 -281.361938 
L 211.55384 -281.361938 
L 208.274502 -281.361938 
L 204.995163 -278.774558 
L 201.715824 -278.774558 
L 198.436485 -278.774558 
L 195.157146 -278.774558 
L 191.877807 -276.187178 
L 188.598468 -273.599798 
L 185.31913 -273.599798 
L 182.039791 -276.187178 
L 178.760452 -276.187178 
L 175.481113 -276.187178 
L 172.201774 -276.187178 
L 168.922435 -273.599798 
L 165.643097 -273.599798 
L 162.363758 -276.187178 
L 159.084419 -276.187178 
L 155.80508 -278.774558 
L 152.525741 -278.774558 
L 149.246402 -278.774558 
L 145.967064 -278.774558 
L 142.687725 -278.774558 
L 139.408386 -276.187178 
L 136.129047 -276.187178 
L 132.849708 -276.187178 
L 129.570369 -276.187178 
L 126.29103 -276.187178 
L 123.011692 -276.187178 
L 119.732353 -273.599798 
L 116.453014 -271.012419 
L 113.173675 -271.012419 
L 109.894336 -268.425039 
L 106.614997 -265.837659 
L 103.335659 -260.6629 
L 100.05632 -258.07552 
L 96.776981 -247.726002 
L 93.497642 -247.726002 
L 90.218303 -247.726002 
L 86.938964 -247.726002 
L 83.659626 -239.963863 
L 80.380287 -234.789103 
L 77.100948 -232.848569 
L 73.821609 -229.614344 
L 70.54227 -228.320654 
L 67.262931 -207.621617 
L 63.983592 -188.216269 
L 60.704254 -166.870387 
L 57.424915 -71.784183 
z
" id="mc0b54c41b9" style="stroke:#4c72b0;stroke-opacity:0.2;"/>
    </defs>
    <g clip-path="url(#p57ebc426eb)">
     <use style="fill:#4c72b0;fill-opacity:0.2;stroke:#4c72b0;stroke-opacity:0.2;" x="0" xlink:href="#mc0b54c41b9" y="315.776062"/>
    </g>
   </g>
   <g id="PolyCollection_2">
    <defs>
     <path d="M 57.424915 -52.378836 
L 57.424915 -39.441938 
L 60.704254 -151.992954 
L 63.983592 -185.628889 
L 67.262931 -207.605446 
L 70.54227 -211.502686 
L 73.821609 -211.502686 
L 77.100948 -214.090066 
L 80.380287 -221.852205 
L 83.659626 -219.264825 
L 86.938964 -219.264825 
L 90.218303 -227.026964 
L 93.497642 -232.201724 
L 96.776981 -234.789103 
L 100.05632 -239.963863 
L 103.335659 -242.551242 
L 106.614997 -250.313381 
L 109.894336 -252.900761 
L 113.173675 -252.900761 
L 116.453014 -255.488141 
L 119.732353 -255.488141 
L 123.011692 -258.07552 
L 126.29103 -258.07552 
L 129.570369 -258.07552 
L 132.849708 -258.07552 
L 136.129047 -258.07552 
L 139.408386 -258.07552 
L 142.687725 -258.07552 
L 145.967064 -258.07552 
L 149.246402 -258.07552 
L 152.525741 -258.07552 
L 155.80508 -260.6629 
L 159.084419 -260.6629 
L 162.363758 -260.6629 
L 165.643097 -260.6629 
L 168.922435 -260.6629 
L 172.201774 -260.6629 
L 175.481113 -260.6629 
L 178.760452 -260.6629 
L 182.039791 -260.6629 
L 185.31913 -260.6629 
L 188.598468 -260.6629 
L 191.877807 -260.6629 
L 195.157146 -260.6629 
L 198.436485 -260.6629 
L 201.715824 -260.6629 
L 204.995163 -260.6629 
L 208.274502 -260.6629 
L 211.55384 -260.6629 
L 214.833179 -260.6629 
L 218.112518 -260.6629 
L 221.391857 -260.6629 
L 224.671196 -260.6629 
L 227.950535 -263.25028 
L 231.229873 -260.6629 
L 234.509212 -263.25028 
L 237.788551 -263.25028 
L 241.06789 -263.25028 
L 244.347229 -263.25028 
L 247.626568 -263.25028 
L 250.905907 -263.25028 
L 254.185245 -263.25028 
L 257.464584 -263.25028 
L 260.743923 -263.25028 
L 264.023262 -263.25028 
L 267.302601 -263.25028 
L 270.58194 -263.25028 
L 273.861278 -263.25028 
L 277.140617 -263.25028 
L 280.419956 -263.25028 
L 283.699295 -263.25028 
L 286.978634 -263.25028 
L 290.257973 -263.25028 
L 293.537311 -263.25028 
L 296.81665 -263.25028 
L 300.095989 -263.25028 
L 303.375328 -263.25028 
L 306.654667 -263.25028 
L 309.934006 -263.25028 
L 313.213345 -263.25028 
L 316.492683 -263.25028 
L 319.772022 -263.25028 
L 323.051361 -263.25028 
L 326.3307 -263.25028 
L 329.610039 -263.25028 
L 332.889378 -263.25028 
L 336.168716 -263.25028 
L 339.448055 -263.25028 
L 342.727394 -263.25028 
L 346.006733 -265.837659 
L 346.006733 -268.425039 
L 346.006733 -268.425039 
L 342.727394 -268.425039 
L 339.448055 -271.012419 
L 336.168716 -271.012419 
L 332.889378 -271.012419 
L 329.610039 -271.012419 
L 326.3307 -271.012419 
L 323.051361 -271.012419 
L 319.772022 -271.012419 
L 316.492683 -271.012419 
L 313.213345 -271.012419 
L 309.934006 -271.012419 
L 306.654667 -271.012419 
L 303.375328 -271.012419 
L 300.095989 -273.599798 
L 296.81665 -273.599798 
L 293.537311 -273.599798 
L 290.257973 -273.599798 
L 286.978634 -273.599798 
L 283.699295 -271.012419 
L 280.419956 -271.012419 
L 277.140617 -271.012419 
L 273.861278 -271.012419 
L 270.58194 -271.012419 
L 267.302601 -271.012419 
L 264.023262 -268.425039 
L 260.743923 -268.425039 
L 257.464584 -268.425039 
L 254.185245 -268.425039 
L 250.905907 -268.425039 
L 247.626568 -268.425039 
L 244.347229 -268.425039 
L 241.06789 -268.425039 
L 237.788551 -268.425039 
L 234.509212 -268.425039 
L 231.229873 -268.425039 
L 227.950535 -268.425039 
L 224.671196 -268.425039 
L 221.391857 -268.425039 
L 218.112518 -268.425039 
L 214.833179 -265.837659 
L 211.55384 -265.837659 
L 208.274502 -268.425039 
L 204.995163 -268.425039 
L 201.715824 -268.425039 
L 198.436485 -265.837659 
L 195.157146 -265.837659 
L 191.877807 -265.837659 
L 188.598468 -265.837659 
L 185.31913 -268.425039 
L 182.039791 -268.425039 
L 178.760452 -265.837659 
L 175.481113 -265.837659 
L 172.201774 -265.837659 
L 168.922435 -265.837659 
L 165.643097 -265.837659 
L 162.363758 -265.837659 
L 159.084419 -265.837659 
L 155.80508 -265.837659 
L 152.525741 -265.837659 
L 149.246402 -265.837659 
L 145.967064 -265.837659 
L 142.687725 -265.837659 
L 139.408386 -263.25028 
L 136.129047 -263.25028 
L 132.849708 -263.25028 
L 129.570369 -263.25028 
L 126.29103 -263.25028 
L 123.011692 -263.25028 
L 119.732353 -263.25028 
L 116.453014 -263.25028 
L 113.173675 -258.07552 
L 109.894336 -255.488141 
L 106.614997 -252.900761 
L 103.335659 -252.900761 
L 100.05632 -252.900761 
L 96.776981 -245.138622 
L 93.497642 -242.551242 
L 90.218303 -237.376483 
L 86.938964 -232.201724 
L 83.659626 -227.026964 
L 80.380287 -229.614344 
L 77.100948 -234.789103 
L 73.821609 -234.789103 
L 70.54227 -232.201724 
L 67.262931 -222.49905 
L 63.983592 -201.153167 
L 60.704254 -162.989317 
L 57.424915 -52.378836 
z
" id="mba7c24d0bc" style="stroke:#c44e52;stroke-opacity:0.2;"/>
    </defs>
    <g clip-path="url(#p57ebc426eb)">
     <use style="fill:#c44e52;fill-opacity:0.2;stroke:#c44e52;stroke-opacity:0.2;" x="0" xlink:href="#mba7c24d0bc" y="315.776062"/>
    </g>
   </g>
   <g id="line2d_12">
    <path clip-path="url(#p57ebc426eb)" d="M 57.424915 246.579259 
L 60.704254 157.961505 
L 63.983592 133.381398 
L 67.262931 115.26974 
L 70.54227 99.745462 
L 73.821609 95.217547 
L 77.100948 89.395943 
L 80.380287 86.808564 
L 83.659626 86.161719 
L 86.938964 82.280649 
L 90.218303 79.262039 
L 93.497642 76.67466 
L 96.776981 74.08728 
L 100.05632 66.325141 
L 103.335659 61.150382 
L 106.614997 55.975622 
L 109.894336 53.388243 
L 113.173675 50.800863 
L 116.453014 49.075943 
L 119.732353 48.213483 
L 123.011692 47.351023 
L 126.29103 47.351023 
L 129.570369 47.351023 
L 132.849708 47.351023 
L 136.129047 47.351023 
L 139.408386 47.351023 
L 142.687725 45.626104 
L 145.967064 45.626104 
L 149.246402 45.626104 
L 152.525741 45.626104 
L 155.80508 45.626104 
L 159.084419 46.488564 
L 162.363758 46.488564 
L 165.643097 47.351023 
L 168.922435 47.351023 
L 172.201774 45.626104 
L 175.481113 45.626104 
L 178.760452 45.626104 
L 182.039791 45.626104 
L 185.31913 47.351023 
L 188.598468 47.351023 
L 191.877807 46.488564 
L 195.157146 45.626104 
L 198.436485 45.626104 
L 201.715824 45.626104 
L 204.995163 44.763644 
L 208.274502 43.901184 
L 211.55384 43.901184 
L 214.833179 43.901184 
L 218.112518 43.901184 
L 221.391857 43.901184 
L 224.671196 43.901184 
L 227.950535 44.763644 
L 231.229873 43.901184 
L 234.509212 42.176264 
L 237.788551 41.313804 
L 241.06789 41.313804 
L 244.347229 41.313804 
L 247.626568 41.313804 
L 250.905907 41.313804 
L 254.185245 41.313804 
L 257.464584 41.313804 
L 260.743923 41.313804 
L 264.023262 41.313804 
L 267.302601 41.313804 
L 270.58194 42.176264 
L 273.861278 42.176264 
L 277.140617 42.176264 
L 280.419956 42.176264 
L 283.699295 42.176264 
L 286.978634 42.176264 
L 290.257973 42.176264 
L 293.537311 42.176264 
L 296.81665 41.313804 
L 300.095989 42.176264 
L 303.375328 42.176264 
L 306.654667 42.176264 
L 309.934006 42.176264 
L 313.213345 42.176264 
L 316.492683 42.176264 
L 319.772022 42.176264 
L 323.051361 42.176264 
L 326.3307 41.313804 
L 329.610039 41.313804 
L 332.889378 41.313804 
L 336.168716 41.313804 
L 339.448055 41.313804 
L 342.727394 41.313804 
L 346.006733 41.313804 
L 349.286072 41.313804 
L 352.565411 42.176264 
L 355.844749 41.313804 
L 359.124088 41.313804 
L 362.403427 41.313804 
L 365.682766 41.313804 
L 368.962105 41.313804 
L 372.241444 41.313804 
L 375.520783 41.313804 
L 378.800121 41.313804 
L 382.07946 41.313804 
" style="fill:none;stroke:#4c72b0;stroke-linecap:round;stroke-width:1.5;"/>
   </g>
   <g id="line2d_13">
    <path clip-path="url(#p57ebc426eb)" d="M 57.424915 269.865676 
L 60.704254 157.961505 
L 63.983592 124.325569 
L 67.262931 102.332842 
L 70.54227 94.786318 
L 73.821609 91.336478 
L 77.100948 90.474018 
L 80.380287 90.474018 
L 83.659626 93.061398 
L 86.938964 91.336478 
L 90.218303 85.299259 
L 93.497642 80.124499 
L 96.776981 76.67466 
L 100.05632 71.4999 
L 103.335659 68.050061 
L 106.614997 63.737761 
L 109.894336 62.012842 
L 113.173675 60.287922 
L 116.453014 56.838082 
L 119.732353 56.838082 
L 123.011692 55.113162 
L 126.29103 55.975622 
L 129.570369 55.975622 
L 132.849708 55.975622 
L 136.129047 55.113162 
L 139.408386 55.113162 
L 142.687725 53.388243 
L 145.967064 53.388243 
L 149.246402 53.388243 
L 152.525741 53.388243 
L 155.80508 51.663323 
L 159.084419 51.663323 
L 162.363758 52.525783 
L 165.643097 52.525783 
L 168.922435 52.525783 
L 172.201774 52.525783 
L 175.481113 52.525783 
L 178.760452 52.525783 
L 182.039791 51.232093 
L 185.31913 51.232093 
L 188.598468 52.525783 
L 191.877807 52.525783 
L 195.157146 52.525783 
L 198.436485 52.525783 
L 201.715824 51.232093 
L 204.995163 51.232093 
L 208.274502 51.232093 
L 211.55384 52.525783 
L 214.833179 52.525783 
L 218.112518 51.232093 
L 221.391857 51.232093 
L 224.671196 51.232093 
L 227.950535 49.938403 
L 231.229873 51.232093 
L 234.509212 49.938403 
L 237.788551 49.938403 
L 241.06789 49.938403 
L 244.347229 49.938403 
L 247.626568 49.938403 
L 250.905907 49.938403 
L 254.185245 49.938403 
L 257.464584 49.938403 
L 260.743923 49.938403 
L 264.023262 49.938403 
L 267.302601 48.644713 
L 270.58194 48.644713 
L 273.861278 48.644713 
L 277.140617 48.644713 
L 280.419956 48.644713 
L 283.699295 48.644713 
L 286.978634 47.351023 
L 290.257973 47.351023 
L 293.537311 47.351023 
L 296.81665 47.351023 
L 300.095989 47.351023 
L 303.375328 48.644713 
L 306.654667 48.644713 
L 309.934006 48.644713 
L 313.213345 48.644713 
L 316.492683 48.644713 
L 319.772022 48.644713 
L 323.051361 48.644713 
L 326.3307 48.644713 
L 329.610039 48.644713 
L 332.889378 48.644713 
L 336.168716 48.644713 
L 339.448055 48.644713 
L 342.727394 49.938403 
L 346.006733 48.644713 
L 349.286072 47.351023 
L 352.565411 47.351023 
L 355.844749 47.351023 
L 359.124088 47.351023 
L 362.403427 44.763644 
L 365.682766 44.763644 
L 368.962105 44.763644 
L 372.241444 44.763644 
L 375.520783 44.763644 
L 378.800121 44.763644 
L 382.07946 44.763644 
" style="fill:none;stroke:#c44e52;stroke-linecap:round;stroke-width:1.5;"/>
   </g>
   <g id="patch_3">
    <path d="M 41.192188 288.430125 
L 41.192188 22.318125 
" style="fill:none;stroke:#ffffff;stroke-linecap:square;stroke-linejoin:miter;stroke-width:1.25;"/>
   </g>
   <g id="patch_4">
    <path d="M 398.312188 288.430125 
L 398.312188 22.318125 
" style="fill:none;stroke:#ffffff;stroke-linecap:square;stroke-linejoin:miter;stroke-width:1.25;"/>
   </g>
   <g id="patch_5">
    <path d="M 41.192188 288.430125 
L 398.312188 288.430125 
" style="fill:none;stroke:#ffffff;stroke-linecap:square;stroke-linejoin:miter;stroke-width:1.25;"/>
   </g>
   <g id="patch_6">
    <path d="M 41.192188 22.318125 
L 398.312188 22.318125 
" style="fill:none;stroke:#ffffff;stroke-linecap:square;stroke-linejoin:miter;stroke-width:1.25;"/>
   </g>
   <g id="text_12">
    <!-- tapnet-SpokenArabicDigits -->
    <defs>
     <path d="M 18.3125 70.21875 
L 18.3125 54.6875 
L 36.8125 54.6875 
L 36.8125 47.703125 
L 18.3125 47.703125 
L 18.3125 18.015625 
Q 18.3125 11.328125 20.140625 9.421875 
Q 21.96875 7.515625 27.59375 7.515625 
L 36.8125 7.515625 
L 36.8125 0 
L 27.59375 0 
Q 17.1875 0 13.234375 3.875 
Q 9.28125 7.765625 9.28125 18.015625 
L 9.28125 47.703125 
L 2.6875 47.703125 
L 2.6875 54.6875 
L 9.28125 54.6875 
L 9.28125 70.21875 
z
" id="DejaVuSans-116"/>
     <path d="M 34.28125 27.484375 
Q 23.390625 27.484375 19.1875 25 
Q 14.984375 22.515625 14.984375 16.5 
Q 14.984375 11.71875 18.140625 8.90625 
Q 21.296875 6.109375 26.703125 6.109375 
Q 34.1875 6.109375 38.703125 11.40625 
Q 43.21875 16.703125 43.21875 25.484375 
L 43.21875 27.484375 
z
M 52.203125 31.203125 
L 52.203125 0 
L 43.21875 0 
L 43.21875 8.296875 
Q 40.140625 3.328125 35.546875 0.953125 
Q 30.953125 -1.421875 24.3125 -1.421875 
Q 15.921875 -1.421875 10.953125 3.296875 
Q 6 8.015625 6 15.921875 
Q 6 25.140625 12.171875 29.828125 
Q 18.359375 34.515625 30.609375 34.515625 
L 43.21875 34.515625 
L 43.21875 35.40625 
Q 43.21875 41.609375 39.140625 45 
Q 35.0625 48.390625 27.6875 48.390625 
Q 23 48.390625 18.546875 47.265625 
Q 14.109375 46.140625 10.015625 43.890625 
L 10.015625 52.203125 
Q 14.9375 54.109375 19.578125 55.046875 
Q 24.21875 56 28.609375 56 
Q 40.484375 56 46.34375 49.84375 
Q 52.203125 43.703125 52.203125 31.203125 
z
" id="DejaVuSans-97"/>
     <path d="M 18.109375 8.203125 
L 18.109375 -20.796875 
L 9.078125 -20.796875 
L 9.078125 54.6875 
L 18.109375 54.6875 
L 18.109375 46.390625 
Q 20.953125 51.265625 25.265625 53.625 
Q 29.59375 56 35.59375 56 
Q 45.5625 56 51.78125 48.09375 
Q 58.015625 40.1875 58.015625 27.296875 
Q 58.015625 14.40625 51.78125 6.484375 
Q 45.5625 -1.421875 35.59375 -1.421875 
Q 29.59375 -1.421875 25.265625 0.953125 
Q 20.953125 3.328125 18.109375 8.203125 
z
M 48.6875 27.296875 
Q 48.6875 37.203125 44.609375 42.84375 
Q 40.53125 48.484375 33.40625 48.484375 
Q 26.265625 48.484375 22.1875 42.84375 
Q 18.109375 37.203125 18.109375 27.296875 
Q 18.109375 17.390625 22.1875 11.75 
Q 26.265625 6.109375 33.40625 6.109375 
Q 40.53125 6.109375 44.609375 11.75 
Q 48.6875 17.390625 48.6875 27.296875 
z
" id="DejaVuSans-112"/>
     <path d="M 54.890625 33.015625 
L 54.890625 0 
L 45.90625 0 
L 45.90625 32.71875 
Q 45.90625 40.484375 42.875 44.328125 
Q 39.84375 48.1875 33.796875 48.1875 
Q 26.515625 48.1875 22.3125 43.546875 
Q 18.109375 38.921875 18.109375 30.90625 
L 18.109375 0 
L 9.078125 0 
L 9.078125 54.6875 
L 18.109375 54.6875 
L 18.109375 46.1875 
Q 21.34375 51.125 25.703125 53.5625 
Q 30.078125 56 35.796875 56 
Q 45.21875 56 50.046875 50.171875 
Q 54.890625 44.34375 54.890625 33.015625 
z
" id="DejaVuSans-110"/>
     <path d="M 56.203125 29.59375 
L 56.203125 25.203125 
L 14.890625 25.203125 
Q 15.484375 15.921875 20.484375 11.0625 
Q 25.484375 6.203125 34.421875 6.203125 
Q 39.59375 6.203125 44.453125 7.46875 
Q 49.3125 8.734375 54.109375 11.28125 
L 54.109375 2.78125 
Q 49.265625 0.734375 44.1875 -0.34375 
Q 39.109375 -1.421875 33.890625 -1.421875 
Q 20.796875 -1.421875 13.15625 6.1875 
Q 5.515625 13.8125 5.515625 26.8125 
Q 5.515625 40.234375 12.765625 48.109375 
Q 20.015625 56 32.328125 56 
Q 43.359375 56 49.78125 48.890625 
Q 56.203125 41.796875 56.203125 29.59375 
z
M 47.21875 32.234375 
Q 47.125 39.59375 43.09375 43.984375 
Q 39.0625 48.390625 32.421875 48.390625 
Q 24.90625 48.390625 20.390625 44.140625 
Q 15.875 39.890625 15.1875 32.171875 
z
" id="DejaVuSans-101"/>
     <path d="M 4.890625 31.390625 
L 31.203125 31.390625 
L 31.203125 23.390625 
L 4.890625 23.390625 
z
" id="DejaVuSans-45"/>
     <path d="M 53.515625 70.515625 
L 53.515625 60.890625 
Q 47.90625 63.578125 42.921875 64.890625 
Q 37.9375 66.21875 33.296875 66.21875 
Q 25.25 66.21875 20.875 63.09375 
Q 16.5 59.96875 16.5 54.203125 
Q 16.5 49.359375 19.40625 46.890625 
Q 22.3125 44.4375 30.421875 42.921875 
L 36.375 41.703125 
Q 47.40625 39.59375 52.65625 34.296875 
Q 57.90625 29 57.90625 20.125 
Q 57.90625 9.515625 50.796875 4.046875 
Q 43.703125 -1.421875 29.984375 -1.421875 
Q 24.8125 -1.421875 18.96875 -0.25 
Q 13.140625 0.921875 6.890625 3.21875 
L 6.890625 13.375 
Q 12.890625 10.015625 18.65625 8.296875 
Q 24.421875 6.59375 29.984375 6.59375 
Q 38.421875 6.59375 43.015625 9.90625 
Q 47.609375 13.234375 47.609375 19.390625 
Q 47.609375 24.75 44.3125 27.78125 
Q 41.015625 30.8125 33.5 32.328125 
L 27.484375 33.5 
Q 16.453125 35.6875 11.515625 40.375 
Q 6.59375 45.0625 6.59375 53.421875 
Q 6.59375 63.09375 13.40625 68.65625 
Q 20.21875 74.21875 32.171875 74.21875 
Q 37.3125 74.21875 42.625 73.28125 
Q 47.953125 72.359375 53.515625 70.515625 
z
" id="DejaVuSans-83"/>
     <path d="M 30.609375 48.390625 
Q 23.390625 48.390625 19.1875 42.75 
Q 14.984375 37.109375 14.984375 27.296875 
Q 14.984375 17.484375 19.15625 11.84375 
Q 23.34375 6.203125 30.609375 6.203125 
Q 37.796875 6.203125 41.984375 11.859375 
Q 46.1875 17.53125 46.1875 27.296875 
Q 46.1875 37.015625 41.984375 42.703125 
Q 37.796875 48.390625 30.609375 48.390625 
z
M 30.609375 56 
Q 42.328125 56 49.015625 48.375 
Q 55.71875 40.765625 55.71875 27.296875 
Q 55.71875 13.875 49.015625 6.21875 
Q 42.328125 -1.421875 30.609375 -1.421875 
Q 18.84375 -1.421875 12.171875 6.21875 
Q 5.515625 13.875 5.515625 27.296875 
Q 5.515625 40.765625 12.171875 48.375 
Q 18.84375 56 30.609375 56 
z
" id="DejaVuSans-111"/>
     <path d="M 9.078125 75.984375 
L 18.109375 75.984375 
L 18.109375 31.109375 
L 44.921875 54.6875 
L 56.390625 54.6875 
L 27.390625 29.109375 
L 57.625 0 
L 45.90625 0 
L 18.109375 26.703125 
L 18.109375 0 
L 9.078125 0 
z
" id="DejaVuSans-107"/>
     <path d="M 34.1875 63.1875 
L 20.796875 26.90625 
L 47.609375 26.90625 
z
M 28.609375 72.90625 
L 39.796875 72.90625 
L 67.578125 0 
L 57.328125 0 
L 50.6875 18.703125 
L 17.828125 18.703125 
L 11.1875 0 
L 0.78125 0 
z
" id="DejaVuSans-65"/>
     <path d="M 41.109375 46.296875 
Q 39.59375 47.171875 37.8125 47.578125 
Q 36.03125 48 33.890625 48 
Q 26.265625 48 22.1875 43.046875 
Q 18.109375 38.09375 18.109375 28.8125 
L 18.109375 0 
L 9.078125 0 
L 9.078125 54.6875 
L 18.109375 54.6875 
L 18.109375 46.1875 
Q 20.953125 51.171875 25.484375 53.578125 
Q 30.03125 56 36.53125 56 
Q 37.453125 56 38.578125 55.875 
Q 39.703125 55.765625 41.0625 55.515625 
z
" id="DejaVuSans-114"/>
     <path d="M 48.6875 27.296875 
Q 48.6875 37.203125 44.609375 42.84375 
Q 40.53125 48.484375 33.40625 48.484375 
Q 26.265625 48.484375 22.1875 42.84375 
Q 18.109375 37.203125 18.109375 27.296875 
Q 18.109375 17.390625 22.1875 11.75 
Q 26.265625 6.109375 33.40625 6.109375 
Q 40.53125 6.109375 44.609375 11.75 
Q 48.6875 17.390625 48.6875 27.296875 
z
M 18.109375 46.390625 
Q 20.953125 51.265625 25.265625 53.625 
Q 29.59375 56 35.59375 56 
Q 45.5625 56 51.78125 48.09375 
Q 58.015625 40.1875 58.015625 27.296875 
Q 58.015625 14.40625 51.78125 6.484375 
Q 45.5625 -1.421875 35.59375 -1.421875 
Q 29.59375 -1.421875 25.265625 0.953125 
Q 20.953125 3.328125 18.109375 8.203125 
L 18.109375 0 
L 9.078125 0 
L 9.078125 75.984375 
L 18.109375 75.984375 
z
" id="DejaVuSans-98"/>
     <path d="M 9.421875 54.6875 
L 18.40625 54.6875 
L 18.40625 0 
L 9.421875 0 
z
M 9.421875 75.984375 
L 18.40625 75.984375 
L 18.40625 64.59375 
L 9.421875 64.59375 
z
" id="DejaVuSans-105"/>
     <path d="M 48.78125 52.59375 
L 48.78125 44.1875 
Q 44.96875 46.296875 41.140625 47.34375 
Q 37.3125 48.390625 33.40625 48.390625 
Q 24.65625 48.390625 19.8125 42.84375 
Q 14.984375 37.3125 14.984375 27.296875 
Q 14.984375 17.28125 19.8125 11.734375 
Q 24.65625 6.203125 33.40625 6.203125 
Q 37.3125 6.203125 41.140625 7.25 
Q 44.96875 8.296875 48.78125 10.40625 
L 48.78125 2.09375 
Q 45.015625 0.34375 40.984375 -0.53125 
Q 36.96875 -1.421875 32.421875 -1.421875 
Q 20.0625 -1.421875 12.78125 6.34375 
Q 5.515625 14.109375 5.515625 27.296875 
Q 5.515625 40.671875 12.859375 48.328125 
Q 20.21875 56 33.015625 56 
Q 37.15625 56 41.109375 55.140625 
Q 45.0625 54.296875 48.78125 52.59375 
z
" id="DejaVuSans-99"/>
     <path d="M 19.671875 64.796875 
L 19.671875 8.109375 
L 31.59375 8.109375 
Q 46.6875 8.109375 53.6875 14.9375 
Q 60.6875 21.78125 60.6875 36.53125 
Q 60.6875 51.171875 53.6875 57.984375 
Q 46.6875 64.796875 31.59375 64.796875 
z
M 9.8125 72.90625 
L 30.078125 72.90625 
Q 51.265625 72.90625 61.171875 64.09375 
Q 71.09375 55.28125 71.09375 36.53125 
Q 71.09375 17.671875 61.125 8.828125 
Q 51.171875 0 30.078125 0 
L 9.8125 0 
z
" id="DejaVuSans-68"/>
     <path d="M 45.40625 27.984375 
Q 45.40625 37.75 41.375 43.109375 
Q 37.359375 48.484375 30.078125 48.484375 
Q 22.859375 48.484375 18.828125 43.109375 
Q 14.796875 37.75 14.796875 27.984375 
Q 14.796875 18.265625 18.828125 12.890625 
Q 22.859375 7.515625 30.078125 7.515625 
Q 37.359375 7.515625 41.375 12.890625 
Q 45.40625 18.265625 45.40625 27.984375 
z
M 54.390625 6.78125 
Q 54.390625 -7.171875 48.1875 -13.984375 
Q 42 -20.796875 29.203125 -20.796875 
Q 24.46875 -20.796875 20.265625 -20.09375 
Q 16.0625 -19.390625 12.109375 -17.921875 
L 12.109375 -9.1875 
Q 16.0625 -11.328125 19.921875 -12.34375 
Q 23.78125 -13.375 27.78125 -13.375 
Q 36.625 -13.375 41.015625 -8.765625 
Q 45.40625 -4.15625 45.40625 5.171875 
L 45.40625 9.625 
Q 42.625 4.78125 38.28125 2.390625 
Q 33.9375 0 27.875 0 
Q 17.828125 0 11.671875 7.65625 
Q 5.515625 15.328125 5.515625 27.984375 
Q 5.515625 40.671875 11.671875 48.328125 
Q 17.828125 56 27.875 56 
Q 33.9375 56 38.28125 53.609375 
Q 42.625 51.21875 45.40625 46.390625 
L 45.40625 54.6875 
L 54.390625 54.6875 
z
" id="DejaVuSans-103"/>
     <path d="M 44.28125 53.078125 
L 44.28125 44.578125 
Q 40.484375 46.53125 36.375 47.5 
Q 32.28125 48.484375 27.875 48.484375 
Q 21.1875 48.484375 17.84375 46.4375 
Q 14.5 44.390625 14.5 40.28125 
Q 14.5 37.15625 16.890625 35.375 
Q 19.28125 33.59375 26.515625 31.984375 
L 29.59375 31.296875 
Q 39.15625 29.25 43.1875 25.515625 
Q 47.21875 21.78125 47.21875 15.09375 
Q 47.21875 7.46875 41.1875 3.015625 
Q 35.15625 -1.421875 24.609375 -1.421875 
Q 20.21875 -1.421875 15.453125 -0.5625 
Q 10.6875 0.296875 5.421875 2 
L 5.421875 11.28125 
Q 10.40625 8.6875 15.234375 7.390625 
Q 20.0625 6.109375 24.8125 6.109375 
Q 31.15625 6.109375 34.5625 8.28125 
Q 37.984375 10.453125 37.984375 14.40625 
Q 37.984375 18.0625 35.515625 20.015625 
Q 33.0625 21.96875 24.703125 23.78125 
L 21.578125 24.515625 
Q 13.234375 26.265625 9.515625 29.90625 
Q 5.8125 33.546875 5.8125 39.890625 
Q 5.8125 47.609375 11.28125 51.796875 
Q 16.75 56 26.8125 56 
Q 31.78125 56 36.171875 55.265625 
Q 40.578125 54.546875 44.28125 53.078125 
z
" id="DejaVuSans-115"/>
    </defs>
    <g style="fill:#262626;" transform="translate(139.384063 16.318125)scale(0.12 -0.12)">
     <use xlink:href="#DejaVuSans-116"/>
     <use x="39.208984" xlink:href="#DejaVuSans-97"/>
     <use x="100.488281" xlink:href="#DejaVuSans-112"/>
     <use x="163.964844" xlink:href="#DejaVuSans-110"/>
     <use x="227.34375" xlink:href="#DejaVuSans-101"/>
     <use x="288.867188" xlink:href="#DejaVuSans-116"/>
     <use x="328.076172" xlink:href="#DejaVuSans-45"/>
     <use x="364.160156" xlink:href="#DejaVuSans-83"/>
     <use x="427.636719" xlink:href="#DejaVuSans-112"/>
     <use x="491.113281" xlink:href="#DejaVuSans-111"/>
     <use x="552.294922" xlink:href="#DejaVuSans-107"/>
     <use x="610.158203" xlink:href="#DejaVuSans-101"/>
     <use x="671.681641" xlink:href="#DejaVuSans-110"/>
     <use x="735.060547" xlink:href="#DejaVuSans-65"/>
     <use x="803.46875" xlink:href="#DejaVuSans-114"/>
     <use x="844.582031" xlink:href="#DejaVuSans-97"/>
     <use x="905.861328" xlink:href="#DejaVuSans-98"/>
     <use x="969.337891" xlink:href="#DejaVuSans-105"/>
     <use x="997.121094" xlink:href="#DejaVuSans-99"/>
     <use x="1052.101562" xlink:href="#DejaVuSans-68"/>
     <use x="1129.103516" xlink:href="#DejaVuSans-105"/>
     <use x="1156.886719" xlink:href="#DejaVuSans-103"/>
     <use x="1220.363281" xlink:href="#DejaVuSans-105"/>
     <use x="1248.146484" xlink:href="#DejaVuSans-116"/>
     <use x="1287.355469" xlink:href="#DejaVuSans-115"/>
    </g>
   </g>
   <g id="legend_1">
    <g id="patch_7">
     <path d="M 318.16 282.930125 
L 390.612188 282.930125 
Q 392.812188 282.930125 392.812188 280.730125 
L 392.812188 217.246375 
Q 392.812188 215.046375 390.612188 215.046375 
L 318.16 215.046375 
Q 315.96 215.046375 315.96 217.246375 
L 315.96 280.730125 
Q 315.96 282.930125 318.16 282.930125 
z
" style="fill:#eaeaf2;opacity:0.8;stroke:#cccccc;stroke-linejoin:miter;"/>
    </g>
    <g id="line2d_14">
     <path d="M 320.36 223.954656 
L 342.36 223.954656 
" style="fill:none;stroke:#4c72b0;stroke-linecap:round;stroke-width:1.5;"/>
    </g>
    <g id="line2d_15"/>
    <g id="text_13">
     <!-- pooled -->
     <defs>
      <path d="M 9.421875 75.984375 
L 18.40625 75.984375 
L 18.40625 0 
L 9.421875 0 
z
" id="DejaVuSans-108"/>
      <path d="M 45.40625 46.390625 
L 45.40625 75.984375 
L 54.390625 75.984375 
L 54.390625 0 
L 45.40625 0 
L 45.40625 8.203125 
Q 42.578125 3.328125 38.25 0.953125 
Q 33.9375 -1.421875 27.875 -1.421875 
Q 17.96875 -1.421875 11.734375 6.484375 
Q 5.515625 14.40625 5.515625 27.296875 
Q 5.515625 40.1875 11.734375 48.09375 
Q 17.96875 56 27.875 56 
Q 33.9375 56 38.25 53.625 
Q 42.578125 51.265625 45.40625 46.390625 
z
M 14.796875 27.296875 
Q 14.796875 17.390625 18.875 11.75 
Q 22.953125 6.109375 30.078125 6.109375 
Q 37.203125 6.109375 41.296875 11.75 
Q 45.40625 17.390625 45.40625 27.296875 
Q 45.40625 37.203125 41.296875 42.84375 
Q 37.203125 48.484375 30.078125 48.484375 
Q 22.953125 48.484375 18.875 42.84375 
Q 14.796875 37.203125 14.796875 27.296875 
z
" id="DejaVuSans-100"/>
     </defs>
     <g style="fill:#262626;" transform="translate(351.16 227.804656)scale(0.11 -0.11)">
      <use xlink:href="#DejaVuSans-112"/>
      <use x="63.476562" xlink:href="#DejaVuSans-111"/>
      <use x="124.658203" xlink:href="#DejaVuSans-111"/>
      <use x="185.839844" xlink:href="#DejaVuSans-108"/>
      <use x="213.623047" xlink:href="#DejaVuSans-101"/>
      <use x="275.146484" xlink:href="#DejaVuSans-100"/>
     </g>
    </g>
    <g id="line2d_16">
     <path d="M 320.36 240.100594 
L 342.36 240.100594 
" style="fill:none;stroke:#c44e52;stroke-linecap:round;stroke-width:1.5;"/>
    </g>
    <g id="line2d_17"/>
    <g id="text_14">
     <!-- dad -->
     <g style="fill:#262626;" transform="translate(351.16 243.950594)scale(0.11 -0.11)">
      <use xlink:href="#DejaVuSans-100"/>
      <use x="63.476562" xlink:href="#DejaVuSans-97"/>
      <use x="124.755859" xlink:href="#DejaVuSans-100"/>
     </g>
    </g>
    <g id="patch_8">
     <path d="M 320.36 260.096531 
L 342.36 260.096531 
L 342.36 252.396531 
L 320.36 252.396531 
z
" style="fill:#4c72b0;opacity:0.2;stroke:#4c72b0;stroke-linejoin:miter;"/>
    </g>
    <g id="text_15">
     <!-- edad -->
     <g style="fill:#262626;" transform="translate(351.16 260.096531)scale(0.11 -0.11)">
      <use xlink:href="#DejaVuSans-101"/>
      <use x="61.523438" xlink:href="#DejaVuSans-100"/>
      <use x="125" xlink:href="#DejaVuSans-97"/>
      <use x="186.279297" xlink:href="#DejaVuSans-100"/>
     </g>
    </g>
    <g id="patch_9">
     <path d="M 320.36 276.242469 
L 342.36 276.242469 
L 342.36 268.542469 
L 320.36 268.542469 
z
" style="fill:#c44e52;opacity:0.2;stroke:#c44e52;stroke-linejoin:miter;"/>
    </g>
    <g id="text_16">
     <!-- dsgd -->
     <g style="fill:#262626;" transform="translate(351.16 276.242469)scale(0.11 -0.11)">
      <use xlink:href="#DejaVuSans-100"/>
      <use x="63.476562" xlink:href="#DejaVuSans-115"/>
      <use x="115.576172" xlink:href="#DejaVuSans-103"/>
      <use x="179.052734" xlink:href="#DejaVuSans-100"/>
     </g>
    </g>
   </g>
  </g>
 </g>
 <defs>
  <clipPath id="p57ebc426eb">
   <rect height="266.112" width="357.12" x="41.192188" y="22.318125"/>
  </clipPath>
 </defs>
</svg>
