<?xml version="1.0" encoding="utf-8" standalone="no"?>
<!DOCTYPE svg PUBLIC "-//W3C//DTD SVG 1.1//EN"
  "http://www.w3.org/Graphics/SVG/1.1/DTD/svg11.dtd">
<!-- Created with matplotlib (https://matplotlib.org/) -->
<svg height="331.389812pt" version="1.1" viewBox="0 0 411.522251 331.389812" width="411.522251pt" xmlns="http://www.w3.org/2000/svg" xmlns:xlink="http://www.w3.org/1999/xlink">
 <defs>
  <style type="text/css">
*{stroke-linecap:butt;stroke-linejoin:round;}
  </style>
 </defs>
 <g id="figure_1">
  <g id="patch_1">
   <path d="M 0 331.389812 
L 411.522251 331.389812 
L 411.522251 0 
L 0 0 
z
" style="fill:#ffffff;"/>
  </g>
  <g id="axes_1">
   <g id="patch_2">
    <path d="M 46.31125 288.430125 
L 403.43125 288.430125 
L 403.43125 22.318125 
L 46.31125 22.318125 
z
" style="fill:#eaeaf2;"/>
   </g>
   <g id="matplotlib.axis_1">
    <g id="xtick_1">
     <g id="line2d_1">
      <path clip-path="url(#p0a5f49ec84)" d="M 62.543977 288.430125 
L 62.543977 22.318125 
" style="fill:none;stroke:#ffffff;stroke-linecap:round;"/>
     </g>
     <g id="text_1">
      <!-- 0 -->
      <defs>
       <path d="M 31.78125 66.40625 
Q 24.171875 66.40625 20.328125 58.90625 
Q 16.5 51.421875 16.5 36.375 
Q 16.5 21.390625 20.328125 13.890625 
Q 24.171875 6.390625 31.78125 6.390625 
Q 39.453125 6.390625 43.28125 13.890625 
Q 47.125 21.390625 47.125 36.375 
Q 47.125 51.421875 43.28125 58.90625 
Q 39.453125 66.40625 31.78125 66.40625 
z
M 31.78125 74.21875 
Q 44.046875 74.21875 50.515625 64.515625 
Q 56.984375 54.828125 56.984375 36.375 
Q 56.984375 17.96875 50.515625 8.265625 
Q 44.046875 -1.421875 31.78125 -1.421875 
Q 19.53125 -1.421875 13.0625 8.265625 
Q 6.59375 17.96875 6.59375 36.375 
Q 6.59375 54.828125 13.0625 64.515625 
Q 19.53125 74.21875 31.78125 74.21875 
z
" id="DejaVuSans-48"/>
      </defs>
      <g style="fill:#262626;" transform="translate(59.044602 306.288406)scale(0.11 -0.11)">
       <use xlink:href="#DejaVuSans-48"/>
      </g>
     </g>
    </g>
    <g id="xtick_2">
     <g id="line2d_2">
      <path clip-path="url(#p0a5f49ec84)" d="M 128.800007 288.430125 
L 128.800007 22.318125 
" style="fill:none;stroke:#ffffff;stroke-linecap:round;"/>
     </g>
     <g id="text_2">
      <!-- 20 -->
      <defs>
       <path d="M 19.1875 8.296875 
L 53.609375 8.296875 
L 53.609375 0 
L 7.328125 0 
L 7.328125 8.296875 
Q 12.9375 14.109375 22.625 23.890625 
Q 32.328125 33.6875 34.8125 36.53125 
Q 39.546875 41.84375 41.421875 45.53125 
Q 43.3125 49.21875 43.3125 52.78125 
Q 43.3125 58.59375 39.234375 62.25 
Q 35.15625 65.921875 28.609375 65.921875 
Q 23.96875 65.921875 18.8125 64.3125 
Q 13.671875 62.703125 7.8125 59.421875 
L 7.8125 69.390625 
Q 13.765625 71.78125 18.9375 73 
Q 24.125 74.21875 28.421875 74.21875 
Q 39.75 74.21875 46.484375 68.546875 
Q 53.21875 62.890625 53.21875 53.421875 
Q 53.21875 48.921875 51.53125 44.890625 
Q 49.859375 40.875 45.40625 35.40625 
Q 44.1875 33.984375 37.640625 27.21875 
Q 31.109375 20.453125 19.1875 8.296875 
z
" id="DejaVuSans-50"/>
      </defs>
      <g style="fill:#262626;" transform="translate(121.801257 306.288406)scale(0.11 -0.11)">
       <use xlink:href="#DejaVuSans-50"/>
       <use x="63.623047" xlink:href="#DejaVuSans-48"/>
      </g>
     </g>
    </g>
    <g id="xtick_3">
     <g id="line2d_3">
      <path clip-path="url(#p0a5f49ec84)" d="M 195.056037 288.430125 
L 195.056037 22.318125 
" style="fill:none;stroke:#ffffff;stroke-linecap:round;"/>
     </g>
     <g id="text_3">
      <!-- 40 -->
      <defs>
       <path d="M 37.796875 64.3125 
L 12.890625 25.390625 
L 37.796875 25.390625 
z
M 35.203125 72.90625 
L 47.609375 72.90625 
L 47.609375 25.390625 
L 58.015625 25.390625 
L 58.015625 17.1875 
L 47.609375 17.1875 
L 47.609375 0 
L 37.796875 0 
L 37.796875 17.1875 
L 4.890625 17.1875 
L 4.890625 26.703125 
z
" id="DejaVuSans-52"/>
      </defs>
      <g style="fill:#262626;" transform="translate(188.057287 306.288406)scale(0.11 -0.11)">
       <use xlink:href="#DejaVuSans-52"/>
       <use x="63.623047" xlink:href="#DejaVuSans-48"/>
      </g>
     </g>
    </g>
    <g id="xtick_4">
     <g id="line2d_4">
      <path clip-path="url(#p0a5f49ec84)" d="M 261.312066 288.430125 
L 261.312066 22.318125 
" style="fill:none;stroke:#ffffff;stroke-linecap:round;"/>
     </g>
     <g id="text_4">
      <!-- 60 -->
      <defs>
       <path d="M 33.015625 40.375 
Q 26.375 40.375 22.484375 35.828125 
Q 18.609375 31.296875 18.609375 23.390625 
Q 18.609375 15.53125 22.484375 10.953125 
Q 26.375 6.390625 33.015625 6.390625 
Q 39.65625 6.390625 43.53125 10.953125 
Q 47.40625 15.53125 47.40625 23.390625 
Q 47.40625 31.296875 43.53125 35.828125 
Q 39.65625 40.375 33.015625 40.375 
z
M 52.59375 71.296875 
L 52.59375 62.3125 
Q 48.875 64.0625 45.09375 64.984375 
Q 41.3125 65.921875 37.59375 65.921875 
Q 27.828125 65.921875 22.671875 59.328125 
Q 17.53125 52.734375 16.796875 39.40625 
Q 19.671875 43.65625 24.015625 45.921875 
Q 28.375 48.1875 33.59375 48.1875 
Q 44.578125 48.1875 50.953125 41.515625 
Q 57.328125 34.859375 57.328125 23.390625 
Q 57.328125 12.15625 50.6875 5.359375 
Q 44.046875 -1.421875 33.015625 -1.421875 
Q 20.359375 -1.421875 13.671875 8.265625 
Q 6.984375 17.96875 6.984375 36.375 
Q 6.984375 53.65625 15.1875 63.9375 
Q 23.390625 74.21875 37.203125 74.21875 
Q 40.921875 74.21875 44.703125 73.484375 
Q 48.484375 72.75 52.59375 71.296875 
z
" id="DejaVuSans-54"/>
      </defs>
      <g style="fill:#262626;" transform="translate(254.313316 306.288406)scale(0.11 -0.11)">
       <use xlink:href="#DejaVuSans-54"/>
       <use x="63.623047" xlink:href="#DejaVuSans-48"/>
      </g>
     </g>
    </g>
    <g id="xtick_5">
     <g id="line2d_5">
      <path clip-path="url(#p0a5f49ec84)" d="M 327.568096 288.430125 
L 327.568096 22.318125 
" style="fill:none;stroke:#ffffff;stroke-linecap:round;"/>
     </g>
     <g id="text_5">
      <!-- 80 -->
      <defs>
       <path d="M 31.78125 34.625 
Q 24.75 34.625 20.71875 30.859375 
Q 16.703125 27.09375 16.703125 20.515625 
Q 16.703125 13.921875 20.71875 10.15625 
Q 24.75 6.390625 31.78125 6.390625 
Q 38.8125 6.390625 42.859375 10.171875 
Q 46.921875 13.96875 46.921875 20.515625 
Q 46.921875 27.09375 42.890625 30.859375 
Q 38.875 34.625 31.78125 34.625 
z
M 21.921875 38.8125 
Q 15.578125 40.375 12.03125 44.71875 
Q 8.5 49.078125 8.5 55.328125 
Q 8.5 64.0625 14.71875 69.140625 
Q 20.953125 74.21875 31.78125 74.21875 
Q 42.671875 74.21875 48.875 69.140625 
Q 55.078125 64.0625 55.078125 55.328125 
Q 55.078125 49.078125 51.53125 44.71875 
Q 48 40.375 41.703125 38.8125 
Q 48.828125 37.15625 52.796875 32.3125 
Q 56.78125 27.484375 56.78125 20.515625 
Q 56.78125 9.90625 50.3125 4.234375 
Q 43.84375 -1.421875 31.78125 -1.421875 
Q 19.734375 -1.421875 13.25 4.234375 
Q 6.78125 9.90625 6.78125 20.515625 
Q 6.78125 27.484375 10.78125 32.3125 
Q 14.796875 37.15625 21.921875 38.8125 
z
M 18.3125 54.390625 
Q 18.3125 48.734375 21.84375 45.5625 
Q 25.390625 42.390625 31.78125 42.390625 
Q 38.140625 42.390625 41.71875 45.5625 
Q 45.3125 48.734375 45.3125 54.390625 
Q 45.3125 60.0625 41.71875 63.234375 
Q 38.140625 66.40625 31.78125 66.40625 
Q 25.390625 66.40625 21.84375 63.234375 
Q 18.3125 60.0625 18.3125 54.390625 
z
" id="DejaVuSans-56"/>
      </defs>
      <g style="fill:#262626;" transform="translate(320.569346 306.288406)scale(0.11 -0.11)">
       <use xlink:href="#DejaVuSans-56"/>
       <use x="63.623047" xlink:href="#DejaVuSans-48"/>
      </g>
     </g>
    </g>
    <g id="xtick_6">
     <g id="line2d_6">
      <path clip-path="url(#p0a5f49ec84)" d="M 393.824126 288.430125 
L 393.824126 22.318125 
" style="fill:none;stroke:#ffffff;stroke-linecap:round;"/>
     </g>
     <g id="text_6">
      <!-- 100 -->
      <defs>
       <path d="M 12.40625 8.296875 
L 28.515625 8.296875 
L 28.515625 63.921875 
L 10.984375 60.40625 
L 10.984375 69.390625 
L 28.421875 72.90625 
L 38.28125 72.90625 
L 38.28125 8.296875 
L 54.390625 8.296875 
L 54.390625 0 
L 12.40625 0 
z
" id="DejaVuSans-49"/>
      </defs>
      <g style="fill:#262626;" transform="translate(383.326001 306.288406)scale(0.11 -0.11)">
       <use xlink:href="#DejaVuSans-49"/>
       <use x="63.623047" xlink:href="#DejaVuSans-48"/>
       <use x="127.246094" xlink:href="#DejaVuSans-48"/>
      </g>
     </g>
    </g>
    <g id="text_7">
     <!-- epoch -->
     <defs>
      <path d="M 56.203125 29.59375 
L 56.203125 25.203125 
L 14.890625 25.203125 
Q 15.484375 15.921875 20.484375 11.0625 
Q 25.484375 6.203125 34.421875 6.203125 
Q 39.59375 6.203125 44.453125 7.46875 
Q 49.3125 8.734375 54.109375 11.28125 
L 54.109375 2.78125 
Q 49.265625 0.734375 44.1875 -0.34375 
Q 39.109375 -1.421875 33.890625 -1.421875 
Q 20.796875 -1.421875 13.15625 6.1875 
Q 5.515625 13.8125 5.515625 26.8125 
Q 5.515625 40.234375 12.765625 48.109375 
Q 20.015625 56 32.328125 56 
Q 43.359375 56 49.78125 48.890625 
Q 56.203125 41.796875 56.203125 29.59375 
z
M 47.21875 32.234375 
Q 47.125 39.59375 43.09375 43.984375 
Q 39.0625 48.390625 32.421875 48.390625 
Q 24.90625 48.390625 20.390625 44.140625 
Q 15.875 39.890625 15.1875 32.171875 
z
" id="DejaVuSans-101"/>
      <path d="M 18.109375 8.203125 
L 18.109375 -20.796875 
L 9.078125 -20.796875 
L 9.078125 54.6875 
L 18.109375 54.6875 
L 18.109375 46.390625 
Q 20.953125 51.265625 25.265625 53.625 
Q 29.59375 56 35.59375 56 
Q 45.5625 56 51.78125 48.09375 
Q 58.015625 40.1875 58.015625 27.296875 
Q 58.015625 14.40625 51.78125 6.484375 
Q 45.5625 -1.421875 35.59375 -1.421875 
Q 29.59375 -1.421875 25.265625 0.953125 
Q 20.953125 3.328125 18.109375 8.203125 
z
M 48.6875 27.296875 
Q 48.6875 37.203125 44.609375 42.84375 
Q 40.53125 48.484375 33.40625 48.484375 
Q 26.265625 48.484375 22.1875 42.84375 
Q 18.109375 37.203125 18.109375 27.296875 
Q 18.109375 17.390625 22.1875 11.75 
Q 26.265625 6.109375 33.40625 6.109375 
Q 40.53125 6.109375 44.609375 11.75 
Q 48.6875 17.390625 48.6875 27.296875 
z
" id="DejaVuSans-112"/>
      <path d="M 30.609375 48.390625 
Q 23.390625 48.390625 19.1875 42.75 
Q 14.984375 37.109375 14.984375 27.296875 
Q 14.984375 17.484375 19.15625 11.84375 
Q 23.34375 6.203125 30.609375 6.203125 
Q 37.796875 6.203125 41.984375 11.859375 
Q 46.1875 17.53125 46.1875 27.296875 
Q 46.1875 37.015625 41.984375 42.703125 
Q 37.796875 48.390625 30.609375 48.390625 
z
M 30.609375 56 
Q 42.328125 56 49.015625 48.375 
Q 55.71875 40.765625 55.71875 27.296875 
Q 55.71875 13.875 49.015625 6.21875 
Q 42.328125 -1.421875 30.609375 -1.421875 
Q 18.84375 -1.421875 12.171875 6.21875 
Q 5.515625 13.875 5.515625 27.296875 
Q 5.515625 40.765625 12.171875 48.375 
Q 18.84375 56 30.609375 56 
z
" id="DejaVuSans-111"/>
      <path d="M 48.78125 52.59375 
L 48.78125 44.1875 
Q 44.96875 46.296875 41.140625 47.34375 
Q 37.3125 48.390625 33.40625 48.390625 
Q 24.65625 48.390625 19.8125 42.84375 
Q 14.984375 37.3125 14.984375 27.296875 
Q 14.984375 17.28125 19.8125 11.734375 
Q 24.65625 6.203125 33.40625 6.203125 
Q 37.3125 6.203125 41.140625 7.25 
Q 44.96875 8.296875 48.78125 10.40625 
L 48.78125 2.09375 
Q 45.015625 0.34375 40.984375 -0.53125 
Q 36.96875 -1.421875 32.421875 -1.421875 
Q 20.0625 -1.421875 12.78125 6.34375 
Q 5.515625 14.109375 5.515625 27.296875 
Q 5.515625 40.671875 12.859375 48.328125 
Q 20.21875 56 33.015625 56 
Q 37.15625 56 41.109375 55.140625 
Q 45.0625 54.296875 48.78125 52.59375 
z
" id="DejaVuSans-99"/>
      <path d="M 54.890625 33.015625 
L 54.890625 0 
L 45.90625 0 
L 45.90625 32.71875 
Q 45.90625 40.484375 42.875 44.328125 
Q 39.84375 48.1875 33.796875 48.1875 
Q 26.515625 48.1875 22.3125 43.546875 
Q 18.109375 38.921875 18.109375 30.90625 
L 18.109375 0 
L 9.078125 0 
L 9.078125 75.984375 
L 18.109375 75.984375 
L 18.109375 46.1875 
Q 21.34375 51.125 25.703125 53.5625 
Q 30.078125 56 35.796875 56 
Q 45.21875 56 50.046875 50.171875 
Q 54.890625 44.34375 54.890625 33.015625 
z
" id="DejaVuSans-104"/>
     </defs>
     <g style="fill:#262626;" transform="translate(206.5975 321.694187)scale(0.12 -0.12)">
      <use xlink:href="#DejaVuSans-101"/>
      <use x="61.523438" xlink:href="#DejaVuSans-112"/>
      <use x="125" xlink:href="#DejaVuSans-111"/>
      <use x="186.181641" xlink:href="#DejaVuSans-99"/>
      <use x="241.162109" xlink:href="#DejaVuSans-104"/>
     </g>
    </g>
   </g>
   <g id="matplotlib.axis_2">
    <g id="ytick_1">
     <g id="line2d_7">
      <path clip-path="url(#p0a5f49ec84)" d="M 46.31125 288.430125 
L 403.43125 288.430125 
" style="fill:none;stroke:#ffffff;stroke-linecap:round;"/>
     </g>
     <g id="text_8">
      <!-- 0 -->
      <g style="fill:#262626;" transform="translate(29.8125 292.609266)scale(0.11 -0.11)">
       <use xlink:href="#DejaVuSans-48"/>
      </g>
     </g>
    </g>
    <g id="ytick_2">
     <g id="line2d_8">
      <path clip-path="url(#p0a5f49ec84)" d="M 46.31125 246.850125 
L 403.43125 246.850125 
" style="fill:none;stroke:#ffffff;stroke-linecap:round;"/>
     </g>
     <g id="text_9">
      <!-- 5 -->
      <defs>
       <path d="M 10.796875 72.90625 
L 49.515625 72.90625 
L 49.515625 64.59375 
L 19.828125 64.59375 
L 19.828125 46.734375 
Q 21.96875 47.46875 24.109375 47.828125 
Q 26.265625 48.1875 28.421875 48.1875 
Q 40.625 48.1875 47.75 41.5 
Q 54.890625 34.8125 54.890625 23.390625 
Q 54.890625 11.625 47.5625 5.09375 
Q 40.234375 -1.421875 26.90625 -1.421875 
Q 22.3125 -1.421875 17.546875 -0.640625 
Q 12.796875 0.140625 7.71875 1.703125 
L 7.71875 11.625 
Q 12.109375 9.234375 16.796875 8.0625 
Q 21.484375 6.890625 26.703125 6.890625 
Q 35.15625 6.890625 40.078125 11.328125 
Q 45.015625 15.765625 45.015625 23.390625 
Q 45.015625 31 40.078125 35.4375 
Q 35.15625 39.890625 26.703125 39.890625 
Q 22.75 39.890625 18.8125 39.015625 
Q 14.890625 38.140625 10.796875 36.28125 
z
" id="DejaVuSans-53"/>
      </defs>
      <g style="fill:#262626;" transform="translate(29.8125 251.029266)scale(0.11 -0.11)">
       <use xlink:href="#DejaVuSans-53"/>
      </g>
     </g>
    </g>
    <g id="ytick_3">
     <g id="line2d_9">
      <path clip-path="url(#p0a5f49ec84)" d="M 46.31125 205.270125 
L 403.43125 205.270125 
" style="fill:none;stroke:#ffffff;stroke-linecap:round;"/>
     </g>
     <g id="text_10">
      <!-- 10 -->
      <g style="fill:#262626;" transform="translate(22.81375 209.449266)scale(0.11 -0.11)">
       <use xlink:href="#DejaVuSans-49"/>
       <use x="63.623047" xlink:href="#DejaVuSans-48"/>
      </g>
     </g>
    </g>
    <g id="ytick_4">
     <g id="line2d_10">
      <path clip-path="url(#p0a5f49ec84)" d="M 46.31125 163.690125 
L 403.43125 163.690125 
" style="fill:none;stroke:#ffffff;stroke-linecap:round;"/>
     </g>
     <g id="text_11">
      <!-- 15 -->
      <g style="fill:#262626;" transform="translate(22.81375 167.869266)scale(0.11 -0.11)">
       <use xlink:href="#DejaVuSans-49"/>
       <use x="63.623047" xlink:href="#DejaVuSans-53"/>
      </g>
     </g>
    </g>
    <g id="ytick_5">
     <g id="line2d_11">
      <path clip-path="url(#p0a5f49ec84)" d="M 46.31125 122.110125 
L 403.43125 122.110125 
" style="fill:none;stroke:#ffffff;stroke-linecap:round;"/>
     </g>
     <g id="text_12">
      <!-- 20 -->
      <g style="fill:#262626;" transform="translate(22.81375 126.289266)scale(0.11 -0.11)">
       <use xlink:href="#DejaVuSans-50"/>
       <use x="63.623047" xlink:href="#DejaVuSans-48"/>
      </g>
     </g>
    </g>
    <g id="ytick_6">
     <g id="line2d_12">
      <path clip-path="url(#p0a5f49ec84)" d="M 46.31125 80.530125 
L 403.43125 80.530125 
" style="fill:none;stroke:#ffffff;stroke-linecap:round;"/>
     </g>
     <g id="text_13">
      <!-- 25 -->
      <g style="fill:#262626;" transform="translate(22.81375 84.709266)scale(0.11 -0.11)">
       <use xlink:href="#DejaVuSans-50"/>
       <use x="63.623047" xlink:href="#DejaVuSans-53"/>
      </g>
     </g>
    </g>
    <g id="ytick_7">
     <g id="line2d_13">
      <path clip-path="url(#p0a5f49ec84)" d="M 46.31125 38.950125 
L 403.43125 38.950125 
" style="fill:none;stroke:#ffffff;stroke-linecap:round;"/>
     </g>
     <g id="text_14">
      <!-- 30 -->
      <defs>
       <path d="M 40.578125 39.3125 
Q 47.65625 37.796875 51.625 33 
Q 55.609375 28.21875 55.609375 21.1875 
Q 55.609375 10.40625 48.1875 4.484375 
Q 40.765625 -1.421875 27.09375 -1.421875 
Q 22.515625 -1.421875 17.65625 -0.515625 
Q 12.796875 0.390625 7.625 2.203125 
L 7.625 11.71875 
Q 11.71875 9.328125 16.59375 8.109375 
Q 21.484375 6.890625 26.8125 6.890625 
Q 36.078125 6.890625 40.9375 10.546875 
Q 45.796875 14.203125 45.796875 21.1875 
Q 45.796875 27.640625 41.28125 31.265625 
Q 36.765625 34.90625 28.71875 34.90625 
L 20.21875 34.90625 
L 20.21875 43.015625 
L 29.109375 43.015625 
Q 36.375 43.015625 40.234375 45.921875 
Q 44.09375 48.828125 44.09375 54.296875 
Q 44.09375 59.90625 40.109375 62.90625 
Q 36.140625 65.921875 28.71875 65.921875 
Q 24.65625 65.921875 20.015625 65.03125 
Q 15.375 64.15625 9.8125 62.3125 
L 9.8125 71.09375 
Q 15.4375 72.65625 20.34375 73.4375 
Q 25.25 74.21875 29.59375 74.21875 
Q 40.828125 74.21875 47.359375 69.109375 
Q 53.90625 64.015625 53.90625 55.328125 
Q 53.90625 49.265625 50.4375 45.09375 
Q 46.96875 40.921875 40.578125 39.3125 
z
" id="DejaVuSans-51"/>
      </defs>
      <g style="fill:#262626;" transform="translate(22.81375 43.129266)scale(0.11 -0.11)">
       <use xlink:href="#DejaVuSans-51"/>
       <use x="63.623047" xlink:href="#DejaVuSans-48"/>
      </g>
     </g>
    </g>
    <g id="text_15">
     <!-- Effective Rank - Mean over Batches -->
     <defs>
      <path d="M 9.8125 72.90625 
L 55.90625 72.90625 
L 55.90625 64.59375 
L 19.671875 64.59375 
L 19.671875 43.015625 
L 54.390625 43.015625 
L 54.390625 34.71875 
L 19.671875 34.71875 
L 19.671875 8.296875 
L 56.78125 8.296875 
L 56.78125 0 
L 9.8125 0 
z
" id="DejaVuSans-69"/>
      <path d="M 37.109375 75.984375 
L 37.109375 68.5 
L 28.515625 68.5 
Q 23.6875 68.5 21.796875 66.546875 
Q 19.921875 64.59375 19.921875 59.515625 
L 19.921875 54.6875 
L 34.71875 54.6875 
L 34.71875 47.703125 
L 19.921875 47.703125 
L 19.921875 0 
L 10.890625 0 
L 10.890625 47.703125 
L 2.296875 47.703125 
L 2.296875 54.6875 
L 10.890625 54.6875 
L 10.890625 58.5 
Q 10.890625 67.625 15.140625 71.796875 
Q 19.390625 75.984375 28.609375 75.984375 
z
" id="DejaVuSans-102"/>
      <path d="M 18.3125 70.21875 
L 18.3125 54.6875 
L 36.8125 54.6875 
L 36.8125 47.703125 
L 18.3125 47.703125 
L 18.3125 18.015625 
Q 18.3125 11.328125 20.140625 9.421875 
Q 21.96875 7.515625 27.59375 7.515625 
L 36.8125 7.515625 
L 36.8125 0 
L 27.59375 0 
Q 17.1875 0 13.234375 3.875 
Q 9.28125 7.765625 9.28125 18.015625 
L 9.28125 47.703125 
L 2.6875 47.703125 
L 2.6875 54.6875 
L 9.28125 54.6875 
L 9.28125 70.21875 
z
" id="DejaVuSans-116"/>
      <path d="M 9.421875 54.6875 
L 18.40625 54.6875 
L 18.40625 0 
L 9.421875 0 
z
M 9.421875 75.984375 
L 18.40625 75.984375 
L 18.40625 64.59375 
L 9.421875 64.59375 
z
" id="DejaVuSans-105"/>
      <path d="M 2.984375 54.6875 
L 12.5 54.6875 
L 29.59375 8.796875 
L 46.6875 54.6875 
L 56.203125 54.6875 
L 35.6875 0 
L 23.484375 0 
z
" id="DejaVuSans-118"/>
      <path id="DejaVuSans-32"/>
      <path d="M 44.390625 34.1875 
Q 47.5625 33.109375 50.5625 29.59375 
Q 53.5625 26.078125 56.59375 19.921875 
L 66.609375 0 
L 56 0 
L 46.6875 18.703125 
Q 43.0625 26.03125 39.671875 28.421875 
Q 36.28125 30.8125 30.421875 30.8125 
L 19.671875 30.8125 
L 19.671875 0 
L 9.8125 0 
L 9.8125 72.90625 
L 32.078125 72.90625 
Q 44.578125 72.90625 50.734375 67.671875 
Q 56.890625 62.453125 56.890625 51.90625 
Q 56.890625 45.015625 53.6875 40.46875 
Q 50.484375 35.9375 44.390625 34.1875 
z
M 19.671875 64.796875 
L 19.671875 38.921875 
L 32.078125 38.921875 
Q 39.203125 38.921875 42.84375 42.21875 
Q 46.484375 45.515625 46.484375 51.90625 
Q 46.484375 58.296875 42.84375 61.546875 
Q 39.203125 64.796875 32.078125 64.796875 
z
" id="DejaVuSans-82"/>
      <path d="M 34.28125 27.484375 
Q 23.390625 27.484375 19.1875 25 
Q 14.984375 22.515625 14.984375 16.5 
Q 14.984375 11.71875 18.140625 8.90625 
Q 21.296875 6.109375 26.703125 6.109375 
Q 34.1875 6.109375 38.703125 11.40625 
Q 43.21875 16.703125 43.21875 25.484375 
L 43.21875 27.484375 
z
M 52.203125 31.203125 
L 52.203125 0 
L 43.21875 0 
L 43.21875 8.296875 
Q 40.140625 3.328125 35.546875 0.953125 
Q 30.953125 -1.421875 24.3125 -1.421875 
Q 15.921875 -1.421875 10.953125 3.296875 
Q 6 8.015625 6 15.921875 
Q 6 25.140625 12.171875 29.828125 
Q 18.359375 34.515625 30.609375 34.515625 
L 43.21875 34.515625 
L 43.21875 35.40625 
Q 43.21875 41.609375 39.140625 45 
Q 35.0625 48.390625 27.6875 48.390625 
Q 23 48.390625 18.546875 47.265625 
Q 14.109375 46.140625 10.015625 43.890625 
L 10.015625 52.203125 
Q 14.9375 54.109375 19.578125 55.046875 
Q 24.21875 56 28.609375 56 
Q 40.484375 56 46.34375 49.84375 
Q 52.203125 43.703125 52.203125 31.203125 
z
" id="DejaVuSans-97"/>
      <path d="M 54.890625 33.015625 
L 54.890625 0 
L 45.90625 0 
L 45.90625 32.71875 
Q 45.90625 40.484375 42.875 44.328125 
Q 39.84375 48.1875 33.796875 48.1875 
Q 26.515625 48.1875 22.3125 43.546875 
Q 18.109375 38.921875 18.109375 30.90625 
L 18.109375 0 
L 9.078125 0 
L 9.078125 54.6875 
L 18.109375 54.6875 
L 18.109375 46.1875 
Q 21.34375 51.125 25.703125 53.5625 
Q 30.078125 56 35.796875 56 
Q 45.21875 56 50.046875 50.171875 
Q 54.890625 44.34375 54.890625 33.015625 
z
" id="DejaVuSans-110"/>
      <path d="M 9.078125 75.984375 
L 18.109375 75.984375 
L 18.109375 31.109375 
L 44.921875 54.6875 
L 56.390625 54.6875 
L 27.390625 29.109375 
L 57.625 0 
L 45.90625 0 
L 18.109375 26.703125 
L 18.109375 0 
L 9.078125 0 
z
" id="DejaVuSans-107"/>
      <path d="M 4.890625 31.390625 
L 31.203125 31.390625 
L 31.203125 23.390625 
L 4.890625 23.390625 
z
" id="DejaVuSans-45"/>
      <path d="M 9.8125 72.90625 
L 24.515625 72.90625 
L 43.109375 23.296875 
L 61.8125 72.90625 
L 76.515625 72.90625 
L 76.515625 0 
L 66.890625 0 
L 66.890625 64.015625 
L 48.09375 14.015625 
L 38.1875 14.015625 
L 19.390625 64.015625 
L 19.390625 0 
L 9.8125 0 
z
" id="DejaVuSans-77"/>
      <path d="M 41.109375 46.296875 
Q 39.59375 47.171875 37.8125 47.578125 
Q 36.03125 48 33.890625 48 
Q 26.265625 48 22.1875 43.046875 
Q 18.109375 38.09375 18.109375 28.8125 
L 18.109375 0 
L 9.078125 0 
L 9.078125 54.6875 
L 18.109375 54.6875 
L 18.109375 46.1875 
Q 20.953125 51.171875 25.484375 53.578125 
Q 30.03125 56 36.53125 56 
Q 37.453125 56 38.578125 55.875 
Q 39.703125 55.765625 41.0625 55.515625 
z
" id="DejaVuSans-114"/>
      <path d="M 19.671875 34.8125 
L 19.671875 8.109375 
L 35.5 8.109375 
Q 43.453125 8.109375 47.28125 11.40625 
Q 51.125 14.703125 51.125 21.484375 
Q 51.125 28.328125 47.28125 31.5625 
Q 43.453125 34.8125 35.5 34.8125 
z
M 19.671875 64.796875 
L 19.671875 42.828125 
L 34.28125 42.828125 
Q 41.5 42.828125 45.03125 45.53125 
Q 48.578125 48.25 48.578125 53.8125 
Q 48.578125 59.328125 45.03125 62.0625 
Q 41.5 64.796875 34.28125 64.796875 
z
M 9.8125 72.90625 
L 35.015625 72.90625 
Q 46.296875 72.90625 52.390625 68.21875 
Q 58.5 63.53125 58.5 54.890625 
Q 58.5 48.1875 55.375 44.234375 
Q 52.25 40.28125 46.1875 39.3125 
Q 53.46875 37.75 57.5 32.78125 
Q 61.53125 27.828125 61.53125 20.40625 
Q 61.53125 10.640625 54.890625 5.3125 
Q 48.25 0 35.984375 0 
L 9.8125 0 
z
" id="DejaVuSans-66"/>
      <path d="M 44.28125 53.078125 
L 44.28125 44.578125 
Q 40.484375 46.53125 36.375 47.5 
Q 32.28125 48.484375 27.875 48.484375 
Q 21.1875 48.484375 17.84375 46.4375 
Q 14.5 44.390625 14.5 40.28125 
Q 14.5 37.15625 16.890625 35.375 
Q 19.28125 33.59375 26.515625 31.984375 
L 29.59375 31.296875 
Q 39.15625 29.25 43.1875 25.515625 
Q 47.21875 21.78125 47.21875 15.09375 
Q 47.21875 7.46875 41.1875 3.015625 
Q 35.15625 -1.421875 24.609375 -1.421875 
Q 20.21875 -1.421875 15.453125 -0.5625 
Q 10.6875 0.296875 5.421875 2 
L 5.421875 11.28125 
Q 10.40625 8.6875 15.234375 7.390625 
Q 20.0625 6.109375 24.8125 6.109375 
Q 31.15625 6.109375 34.5625 8.28125 
Q 37.984375 10.453125 37.984375 14.40625 
Q 37.984375 18.0625 35.515625 20.015625 
Q 33.0625 21.96875 24.703125 23.78125 
L 21.578125 24.515625 
Q 13.234375 26.265625 9.515625 29.90625 
Q 5.8125 33.546875 5.8125 39.890625 
Q 5.8125 47.609375 11.28125 51.796875 
Q 16.75 56 26.8125 56 
Q 31.78125 56 36.171875 55.265625 
Q 40.578125 54.546875 44.28125 53.078125 
z
" id="DejaVuSans-115"/>
     </defs>
     <g style="fill:#262626;" transform="translate(16.318125 262.256625)rotate(-90)scale(0.12 -0.12)">
      <use xlink:href="#DejaVuSans-69"/>
      <use x="63.183594" xlink:href="#DejaVuSans-102"/>
      <use x="98.388672" xlink:href="#DejaVuSans-102"/>
      <use x="133.59375" xlink:href="#DejaVuSans-101"/>
      <use x="195.117188" xlink:href="#DejaVuSans-99"/>
      <use x="250.097656" xlink:href="#DejaVuSans-116"/>
      <use x="289.306641" xlink:href="#DejaVuSans-105"/>
      <use x="317.089844" xlink:href="#DejaVuSans-118"/>
      <use x="376.269531" xlink:href="#DejaVuSans-101"/>
      <use x="437.792969" xlink:href="#DejaVuSans-32"/>
      <use x="469.580078" xlink:href="#DejaVuSans-82"/>
      <use x="539.03125" xlink:href="#DejaVuSans-97"/>
      <use x="600.310547" xlink:href="#DejaVuSans-110"/>
      <use x="663.689453" xlink:href="#DejaVuSans-107"/>
      <use x="721.599609" xlink:href="#DejaVuSans-32"/>
      <use x="753.386719" xlink:href="#DejaVuSans-45"/>
      <use x="789.470703" xlink:href="#DejaVuSans-32"/>
      <use x="821.257812" xlink:href="#DejaVuSans-77"/>
      <use x="907.537109" xlink:href="#DejaVuSans-101"/>
      <use x="969.060547" xlink:href="#DejaVuSans-97"/>
      <use x="1030.339844" xlink:href="#DejaVuSans-110"/>
      <use x="1093.71875" xlink:href="#DejaVuSans-32"/>
      <use x="1125.505859" xlink:href="#DejaVuSans-111"/>
      <use x="1186.6875" xlink:href="#DejaVuSans-118"/>
      <use x="1245.867188" xlink:href="#DejaVuSans-101"/>
      <use x="1307.390625" xlink:href="#DejaVuSans-114"/>
      <use x="1348.503906" xlink:href="#DejaVuSans-32"/>
      <use x="1380.291016" xlink:href="#DejaVuSans-66"/>
      <use x="1448.894531" xlink:href="#DejaVuSans-97"/>
      <use x="1510.173828" xlink:href="#DejaVuSans-116"/>
      <use x="1549.382812" xlink:href="#DejaVuSans-99"/>
      <use x="1604.363281" xlink:href="#DejaVuSans-104"/>
      <use x="1667.742188" xlink:href="#DejaVuSans-101"/>
      <use x="1729.265625" xlink:href="#DejaVuSans-115"/>
     </g>
    </g>
   </g>
   <g id="PolyCollection_1">
    <defs>
     <path d="M 62.543977 -51.275688 
L 62.543977 -51.275688 
L 65.856779 -51.275688 
L 69.16958 -51.275688 
L 72.482382 -51.275688 
L 75.795183 -51.275688 
L 79.107985 -51.275688 
L 82.420786 -51.275688 
L 85.733588 -51.275688 
L 89.046389 -51.275688 
L 92.359191 -52.938887 
L 95.671992 -51.275688 
L 98.984794 -51.275688 
L 102.297595 -51.275688 
L 105.610397 -51.275688 
L 108.923198 -51.275688 
L 112.236 -51.275688 
L 115.548801 -51.275688 
L 118.861603 -51.275688 
L 122.174404 -51.275688 
L 125.487205 -51.275688 
L 128.800007 -51.275688 
L 132.112808 -51.275688 
L 135.42561 -51.275688 
L 138.738411 -52.938887 
L 142.051213 -51.275688 
L 145.364014 -51.275688 
L 148.676816 -51.275688 
L 151.989617 -51.275688 
L 155.302419 -51.275688 
L 158.61522 -51.275688 
L 161.928022 -51.275688 
L 165.240823 -51.275688 
L 168.553625 -51.275688 
L 171.866426 -51.275688 
L 175.179228 -51.275688 
L 178.492029 -51.275688 
L 181.804831 -51.275688 
L 185.117632 -52.938887 
L 188.430434 -51.275688 
L 191.743235 -51.275688 
L 195.056037 -51.275688 
L 198.368838 -51.275688 
L 201.68164 -51.275688 
L 204.994441 -51.275688 
L 208.307243 -51.275688 
L 211.620044 -51.275688 
L 214.932846 -51.275688 
L 218.245647 -51.275688 
L 221.558449 -51.275688 
L 224.87125 -51.275688 
L 228.184051 -51.275688 
L 231.496853 -51.275688 
L 234.809654 -51.275688 
L 238.122456 -51.275688 
L 241.435257 -51.275688 
L 244.748059 -51.275688 
L 248.06086 -51.275688 
L 251.373662 -51.275688 
L 254.686463 -51.275688 
L 257.999265 -51.275688 
L 261.312066 -51.275688 
L 264.624868 -51.275688 
L 267.937669 -51.275688 
L 271.250471 -51.275688 
L 274.563272 -51.275688 
L 277.876074 -51.275688 
L 281.188875 -51.275688 
L 284.501677 -51.275688 
L 287.814478 -51.275688 
L 291.12728 -51.275688 
L 294.440081 -51.275688 
L 297.752883 -51.275688 
L 301.065684 -51.275688 
L 304.378486 -51.275688 
L 307.691287 -51.275688 
L 311.004089 -51.275688 
L 314.31689 -51.275688 
L 317.629692 -51.275688 
L 320.942493 -51.275688 
L 324.255295 -51.275688 
L 327.568096 -51.275688 
L 330.880897 -51.275688 
L 334.193699 -51.275688 
L 337.5065 -51.275688 
L 340.819302 -51.275688 
L 344.132103 -51.275688 
L 347.444905 -51.275688 
L 350.757706 -51.275688 
L 354.070508 -51.275688 
L 357.383309 -51.275688 
L 360.696111 -51.275688 
L 364.008912 -51.275688 
L 367.321714 -53.354687 
L 370.634515 -51.275688 
L 373.947317 -51.275688 
L 377.260118 -51.275688 
L 380.57292 -51.275688 
L 383.885721 -51.275688 
L 387.198523 -51.275688 
L 387.198523 -59.591687 
L 387.198523 -59.591687 
L 383.885721 -51.275688 
L 380.57292 -51.275688 
L 377.260118 -51.275688 
L 373.947317 -57.512687 
L 370.634515 -51.275688 
L 367.321714 -59.591687 
L 364.008912 -57.512687 
L 360.696111 -51.275688 
L 357.383309 -51.275688 
L 354.070508 -51.275688 
L 350.757706 -57.512687 
L 347.444905 -59.591687 
L 344.132103 -51.275688 
L 340.819302 -51.275688 
L 337.5065 -51.275688 
L 334.193699 -51.275688 
L 330.880897 -51.275688 
L 327.568096 -51.275688 
L 324.255295 -51.275688 
L 320.942493 -51.275688 
L 317.629692 -57.512687 
L 314.31689 -51.275688 
L 311.004089 -51.275688 
L 307.691287 -51.275688 
L 304.378486 -51.275688 
L 301.065684 -51.275688 
L 297.752883 -51.275688 
L 294.440081 -51.275688 
L 291.12728 -57.512687 
L 287.814478 -57.512687 
L 284.501677 -51.275688 
L 281.188875 -51.275688 
L 277.876074 -51.275688 
L 274.563272 -51.275688 
L 271.250471 -51.275688 
L 267.937669 -51.275688 
L 264.624868 -51.275688 
L 261.312066 -51.275688 
L 257.999265 -51.275688 
L 254.686463 -51.275688 
L 251.373662 -51.275688 
L 248.06086 -57.512687 
L 244.748059 -51.275688 
L 241.435257 -51.275688 
L 238.122456 -57.512687 
L 234.809654 -51.275688 
L 231.496853 -51.275688 
L 228.184051 -51.275688 
L 224.87125 -51.275688 
L 221.558449 -51.275688 
L 218.245647 -51.275688 
L 214.932846 -57.512687 
L 211.620044 -51.275688 
L 208.307243 -51.275688 
L 204.994441 -51.275688 
L 201.68164 -51.275688 
L 198.368838 -51.275688 
L 195.056037 -51.275688 
L 191.743235 -51.275688 
L 188.430434 -51.275688 
L 185.117632 -59.591687 
L 181.804831 -51.275688 
L 178.492029 -51.275688 
L 175.179228 -56.265287 
L 171.866426 -56.265287 
L 168.553625 -51.275688 
L 165.240823 -57.928488 
L 161.928022 -51.275688 
L 158.61522 -56.265287 
L 155.302419 -51.275688 
L 151.989617 -51.275688 
L 148.676816 -51.275688 
L 145.364014 -51.275688 
L 142.051213 -51.275688 
L 138.738411 -59.591687 
L 135.42561 -51.275688 
L 132.112808 -51.275688 
L 128.800007 -51.275688 
L 125.487205 -51.275688 
L 122.174404 -51.275688 
L 118.861603 -57.928488 
L 115.548801 -56.265287 
L 112.236 -51.275688 
L 108.923198 -57.928488 
L 105.610397 -56.265287 
L 102.297595 -57.928488 
L 98.984794 -51.275688 
L 95.671992 -51.275688 
L 92.359191 -59.591687 
L 89.046389 -57.928488 
L 85.733588 -51.275688 
L 82.420786 -51.275688 
L 79.107985 -51.275688 
L 75.795183 -51.275688 
L 72.482382 -51.275688 
L 69.16958 -56.265287 
L 65.856779 -51.275688 
L 62.543977 -51.275688 
z
" id="m390be707ff" style="stroke:#1f77b4;stroke-opacity:0.2;"/>
    </defs>
    <g clip-path="url(#p0a5f49ec84)">
     <use style="fill:#1f77b4;fill-opacity:0.2;stroke:#1f77b4;stroke-opacity:0.2;" x="0" xlink:href="#m390be707ff" y="331.389812"/>
    </g>
   </g>
   <g id="PolyCollection_2">
    <defs>
     <path d="M 62.543977 -285.786887 
L 62.543977 -270.818087 
L 65.856779 -287.450087 
L 69.16958 -292.439687 
L 72.482382 -279.134087 
L 75.795183 -292.439687 
L 79.107985 -292.439687 
L 82.420786 -292.439687 
L 85.733588 -292.439687 
L 89.046389 -275.807687 
L 92.359191 -257.512488 
L 95.671992 -287.450087 
L 98.984794 -277.470888 
L 102.297595 -262.502087 
L 105.610397 -287.450087 
L 108.923198 -274.144487 
L 112.236 -247.533288 
L 115.548801 -237.554087 
L 118.861603 -249.196487 
L 122.174404 -260.838887 
L 125.487205 -252.522887 
L 128.800007 -214.227707 
L 132.112808 -205.953287 
L 135.42561 -225.911687 
L 138.738411 -235.890887 
L 142.051213 -242.543687 
L 145.364014 -239.217287 
L 148.676816 -225.911687 
L 151.989617 -222.585287 
L 155.302419 -224.248487 
L 158.61522 -215.932487 
L 161.928022 -227.574887 
L 165.240823 -214.269287 
L 168.553625 -210.942887 
L 171.866426 -215.932487 
L 175.179228 -182.668487 
L 178.492029 -181.005288 
L 181.804831 -197.637287 
L 185.117632 -205.953287 
L 188.430434 -200.963687 
L 191.743235 -195.974087 
L 195.056037 -187.658087 
L 198.368838 -194.310887 
L 201.68164 -195.974087 
L 204.994441 -192.647687 
L 208.307243 -192.647687 
L 211.620044 -200.963687 
L 214.932846 -192.647687 
L 218.245647 -192.647687 
L 221.558449 -142.751688 
L 224.87125 -192.647687 
L 228.184051 -186.410687 
L 231.496853 -159.383687 
L 234.809654 -194.726687 
L 238.122456 -194.726687 
L 241.435257 -192.647687 
L 244.748059 -184.331687 
L 248.06086 -192.647687 
L 251.373662 -186.410687 
L 254.686463 -184.331687 
L 257.999265 -184.331687 
L 261.312066 -151.067687 
L 264.624868 -184.331687 
L 267.937669 -176.015687 
L 271.250471 -167.699687 
L 274.563272 -188.489687 
L 277.876074 -178.094687 
L 281.188875 -167.699687 
L 284.501677 -186.410687 
L 287.814478 -167.699687 
L 291.12728 -171.805712 
L 294.440081 -159.383687 
L 297.752883 -176.015687 
L 301.065684 -165.620687 
L 304.378486 -180.173687 
L 307.691287 -159.383687 
L 311.004089 -151.067687 
L 314.31689 -171.857687 
L 317.629692 -153.146687 
L 320.942493 -178.094687 
L 324.255295 -167.699687 
L 327.568096 -151.067687 
L 330.880897 -176.015687 
L 334.193699 -163.541687 
L 337.5065 -167.699687 
L 340.819302 -171.857687 
L 344.132103 -146.909687 
L 347.444905 -167.699687 
L 350.757706 -167.699687 
L 354.070508 -136.514687 
L 357.383309 -178.094687 
L 360.696111 -148.988687 
L 364.008912 -159.383687 
L 367.321714 -167.699687 
L 370.634515 -153.146687 
L 373.947317 -161.462687 
L 377.260118 -159.383687 
L 380.57292 -167.699687 
L 383.885721 -159.383687 
L 387.198523 -169.778687 
L 387.198523 -176.015687 
L 387.198523 -176.015687 
L 383.885721 -171.857687 
L 380.57292 -176.015687 
L 377.260118 -184.331687 
L 373.947317 -167.699687 
L 370.634515 -159.383687 
L 367.321714 -173.936687 
L 364.008912 -180.225662 
L 360.696111 -173.936687 
L 357.383309 -184.331687 
L 354.070508 -192.647687 
L 350.757706 -180.173687 
L 347.444905 -188.489687 
L 344.132103 -165.620687 
L 340.819302 -184.331687 
L 337.5065 -167.699687 
L 334.193699 -186.410687 
L 330.880897 -188.489687 
L 327.568096 -180.173687 
L 324.255295 -184.331687 
L 320.942493 -184.331687 
L 317.629692 -171.857687 
L 314.31689 -188.489687 
L 311.004089 -180.173687 
L 307.691287 -188.489687 
L 304.378486 -192.647687 
L 301.065684 -184.331687 
L 297.752883 -184.331687 
L 294.440081 -188.489687 
L 291.12728 -192.647687 
L 287.814478 -198.884687 
L 284.501677 -198.884687 
L 281.188875 -192.647687 
L 277.876074 -184.331687 
L 274.563272 -200.963687 
L 271.250471 -192.647687 
L 267.937669 -196.805687 
L 264.624868 -192.647687 
L 261.312066 -192.647687 
L 257.999265 -190.568687 
L 254.686463 -203.042687 
L 251.373662 -203.094662 
L 248.06086 -192.647687 
L 244.748059 -196.805687 
L 241.435257 -198.884687 
L 238.122456 -200.963687 
L 234.809654 -200.963687 
L 231.496853 -200.963687 
L 228.184051 -192.647687 
L 224.87125 -205.121687 
L 221.558449 -184.331687 
L 218.245647 -217.595687 
L 214.932846 -217.595687 
L 211.620044 -225.911687 
L 208.307243 -209.279687 
L 204.994441 -213.437687 
L 201.68164 -200.963687 
L 198.368838 -212.606087 
L 195.056037 -207.616487 
L 191.743235 -212.606087 
L 188.430434 -227.574887 
L 185.117632 -224.248487 
L 181.804831 -222.585287 
L 178.492029 -230.901287 
L 175.179228 -212.606087 
L 171.866426 -232.564487 
L 168.553625 -225.911687 
L 165.240823 -229.238087 
L 161.928022 -237.595667 
L 158.61522 -237.554087 
L 155.302419 -244.206887 
L 151.989617 -247.533288 
L 148.676816 -249.196487 
L 145.364014 -252.522887 
L 142.051213 -247.533288 
L 138.738411 -255.849287 
L 135.42561 -259.175687 
L 132.112808 -267.491688 
L 128.800007 -265.828487 
L 125.487205 -264.165287 
L 122.174404 -290.776487 
L 118.861603 -279.134087 
L 115.548801 -277.470888 
L 112.236 -272.481288 
L 108.923198 -290.776487 
L 105.610397 -292.439687 
L 102.297595 -289.113287 
L 98.984794 -292.439687 
L 95.671992 -292.439687 
L 92.359191 -292.439687 
L 89.046389 -289.113287 
L 85.733588 -292.439687 
L 82.420786 -292.439687 
L 79.107985 -292.439687 
L 75.795183 -292.439687 
L 72.482382 -292.439687 
L 69.16958 -292.439687 
L 65.856779 -292.439687 
L 62.543977 -285.786887 
z
" id="mac0189f199" style="stroke:#ff7f0e;stroke-opacity:0.2;"/>
    </defs>
    <g clip-path="url(#p0a5f49ec84)">
     <use style="fill:#ff7f0e;fill-opacity:0.2;stroke:#ff7f0e;stroke-opacity:0.2;" x="0" xlink:href="#mac0189f199" y="331.389812"/>
    </g>
   </g>
   <g id="PolyCollection_3">
    <defs>
     <path d="M 62.543977 -292.439687 
L 62.543977 -272.481288 
L 65.856779 -277.470888 
L 69.16958 -292.439687 
L 72.482382 -292.439687 
L 75.795183 -292.439687 
L 79.107985 -292.439687 
L 82.420786 -292.439687 
L 85.733588 -292.439687 
L 89.046389 -267.491688 
L 92.359191 -239.217287 
L 95.671992 -292.439687 
L 98.984794 -287.450087 
L 102.297595 -272.481288 
L 105.610397 -277.470888 
L 108.923198 -287.450087 
L 112.236 -275.807687 
L 115.548801 -247.408547 
L 118.861603 -264.123707 
L 122.174404 -274.144487 
L 125.487205 -272.439707 
L 128.800007 -239.217287 
L 132.112808 -264.165287 
L 135.42561 -250.859687 
L 138.738411 -255.849287 
L 142.051213 -259.175687 
L 145.364014 -247.533288 
L 148.676816 -224.248487 
L 151.989617 -249.196487 
L 155.302419 -232.564487 
L 158.61522 -225.911687 
L 161.928022 -225.911687 
L 165.240823 -230.901287 
L 168.553625 -229.238087 
L 171.866426 -237.554087 
L 175.179228 -242.543687 
L 178.492029 -225.911687 
L 181.804831 -215.932487 
L 185.117632 -197.637287 
L 188.430434 -205.953287 
L 191.743235 -237.554087 
L 195.056037 -220.922087 
L 198.368838 -224.248487 
L 201.68164 -214.269287 
L 204.994441 -209.279687 
L 208.307243 -221.753687 
L 211.620044 -217.595687 
L 214.932846 -242.543687 
L 218.245647 -200.963687 
L 221.558449 -207.200687 
L 224.87125 -207.200687 
L 228.184051 -209.279687 
L 231.496853 -209.279687 
L 234.809654 -234.227687 
L 238.122456 -194.726687 
L 241.435257 -209.279687 
L 244.748059 -217.595687 
L 248.06086 -194.726687 
L 251.373662 -217.595687 
L 254.686463 -209.279687 
L 257.999265 -205.121687 
L 261.312066 -205.121687 
L 264.624868 -221.753687 
L 267.937669 -215.516687 
L 271.250471 -196.753712 
L 274.563272 -211.358687 
L 277.876074 -203.042687 
L 281.188875 -209.279687 
L 284.501677 -196.805687 
L 287.814478 -213.437687 
L 291.12728 -219.674687 
L 294.440081 -209.279687 
L 297.752883 -213.437687 
L 301.065684 -213.437687 
L 304.378486 -203.042687 
L 307.691287 -225.911687 
L 311.004089 -203.042687 
L 314.31689 -203.042687 
L 317.629692 -203.042687 
L 320.942493 -219.674687 
L 324.255295 -196.805687 
L 327.568096 -184.331687 
L 330.880897 -209.279687 
L 334.193699 -209.279687 
L 337.5065 -209.279687 
L 340.819302 -200.963687 
L 344.132103 -184.331687 
L 347.444905 -230.069687 
L 350.757706 -211.358687 
L 354.070508 -209.279687 
L 357.383309 -227.990687 
L 360.696111 -209.279687 
L 364.008912 -217.595687 
L 367.321714 -203.042687 
L 370.634515 -200.963687 
L 373.947317 -207.200687 
L 377.260118 -213.437687 
L 380.57292 -203.042687 
L 383.885721 -213.437687 
L 387.198523 -221.753687 
L 387.198523 -234.227687 
L 387.198523 -234.227687 
L 383.885721 -223.832687 
L 380.57292 -225.911687 
L 377.260118 -234.227687 
L 373.947317 -232.148687 
L 370.634515 -225.911687 
L 367.321714 -227.990687 
L 364.008912 -234.227687 
L 360.696111 -234.227687 
L 357.383309 -234.227687 
L 354.070508 -215.516687 
L 350.757706 -230.069687 
L 347.444905 -242.543687 
L 344.132103 -213.437687 
L 340.819302 -221.753687 
L 337.5065 -230.069687 
L 334.193699 -267.491688 
L 330.880897 -209.279687 
L 327.568096 -238.385687 
L 324.255295 -209.279687 
L 320.942493 -225.911687 
L 317.629692 -215.516687 
L 314.31689 -234.227687 
L 311.004089 -234.227687 
L 307.691287 -234.227687 
L 304.378486 -234.227687 
L 301.065684 -232.148687 
L 297.752883 -232.148687 
L 294.440081 -225.911687 
L 291.12728 -225.911687 
L 287.814478 -234.227687 
L 284.501677 -234.227687 
L 281.188875 -234.227687 
L 277.876074 -209.279687 
L 274.563272 -234.227687 
L 271.250471 -207.200687 
L 267.937669 -234.227687 
L 264.624868 -242.543687 
L 261.312066 -234.227687 
L 257.999265 -230.069687 
L 254.686463 -230.069687 
L 251.373662 -230.069687 
L 248.06086 -209.279687 
L 244.748059 -238.385687 
L 241.435257 -227.990687 
L 238.122456 -238.385687 
L 234.809654 -234.227687 
L 231.496853 -234.227687 
L 228.184051 -252.938687 
L 224.87125 -225.911687 
L 221.558449 -244.622687 
L 218.245647 -246.701687 
L 214.932846 -248.780687 
L 211.620044 -246.701687 
L 208.307243 -240.464687 
L 204.994441 -246.701687 
L 201.68164 -239.217287 
L 198.368838 -240.880487 
L 195.056037 -240.880487 
L 191.743235 -242.543687 
L 188.430434 -242.543687 
L 185.117632 -234.269267 
L 181.804831 -247.533288 
L 178.492029 -239.217287 
L 175.179228 -257.512488 
L 171.866426 -260.838887 
L 168.553625 -260.838887 
L 165.240823 -250.859687 
L 161.928022 -242.543687 
L 158.61522 -250.859687 
L 155.302419 -247.533288 
L 151.989617 -265.828487 
L 148.676816 -265.828487 
L 145.364014 -275.807687 
L 142.051213 -282.460487 
L 138.738411 -265.828487 
L 135.42561 -265.828487 
L 132.112808 -287.450087 
L 128.800007 -292.439687 
L 125.487205 -292.439687 
L 122.174404 -284.123687 
L 118.861603 -287.450087 
L 115.548801 -292.439687 
L 112.236 -292.439687 
L 108.923198 -292.439687 
L 105.610397 -292.439687 
L 102.297595 -292.439687 
L 98.984794 -292.439687 
L 95.671992 -292.439687 
L 92.359191 -292.439687 
L 89.046389 -292.439687 
L 85.733588 -292.439687 
L 82.420786 -292.439687 
L 79.107985 -292.439687 
L 75.795183 -292.439687 
L 72.482382 -292.439687 
L 69.16958 -292.439687 
L 65.856779 -292.439687 
L 62.543977 -292.439687 
z
" id="me09d1fb9a1" style="stroke:#2ca02c;stroke-opacity:0.2;"/>
    </defs>
    <g clip-path="url(#p0a5f49ec84)">
     <use style="fill:#2ca02c;fill-opacity:0.2;stroke:#2ca02c;stroke-opacity:0.2;" x="0" xlink:href="#me09d1fb9a1" y="331.389812"/>
    </g>
   </g>
   <g id="PolyCollection_4">
    <defs>
     <path d="M 62.543977 -290.776487 
L 62.543977 -235.890887 
L 65.856779 -219.258887 
L 69.16958 -232.564487 
L 72.482382 -239.217287 
L 75.795183 -229.238087 
L 79.107985 -209.279687 
L 82.420786 -184.331687 
L 85.733588 -197.637287 
L 89.046389 -197.637287 
L 92.359191 -195.974087 
L 95.671992 -172.689287 
L 98.984794 -200.963687 
L 102.297595 -190.984488 
L 105.610397 -192.647687 
L 108.923198 -182.668487 
L 112.236 -192.647687 
L 115.548801 -185.994887 
L 118.861603 -164.373288 
L 122.174404 -172.689287 
L 125.487205 -171.026087 
L 128.800007 -202.626887 
L 132.112808 -171.026087 
L 135.42561 -187.658087 
L 138.738411 -192.647687 
L 142.051213 -187.658087 
L 145.364014 -192.647687 
L 148.676816 -192.647687 
L 151.989617 -176.015687 
L 155.302419 -181.005288 
L 158.61522 -179.342087 
L 161.928022 -189.321287 
L 165.240823 -189.321287 
L 168.553625 -171.026087 
L 171.866426 -159.383687 
L 175.179228 -164.373288 
L 178.492029 -142.751688 
L 181.804831 -184.331687 
L 185.117632 -152.730887 
L 188.430434 -129.446087 
L 191.743235 -189.321287 
L 195.056037 -192.647687 
L 198.368838 -157.720487 
L 201.68164 -181.005288 
L 204.994441 -182.252687 
L 208.307243 -192.647687 
L 211.620044 -167.699687 
L 214.932846 -171.857687 
L 218.245647 -176.015687 
L 221.558449 -167.699687 
L 224.87125 -165.620687 
L 228.184051 -159.383687 
L 231.496853 -171.857687 
L 234.809654 -163.541687 
L 238.122456 -161.462687 
L 241.435257 -173.936687 
L 244.748059 -167.699687 
L 248.06086 -165.620687 
L 251.373662 -161.462687 
L 254.686463 -117.803687 
L 257.999265 -167.699687 
L 261.312066 -171.857687 
L 264.624868 -176.015687 
L 267.937669 -159.383687 
L 271.250471 -153.146687 
L 274.563272 -176.015687 
L 277.876074 -171.857687 
L 281.188875 -159.383687 
L 284.501677 -167.699687 
L 287.814478 -159.383687 
L 291.12728 -159.383687 
L 294.440081 -159.383687 
L 297.752883 -169.778687 
L 301.065684 -161.462687 
L 304.378486 -171.857687 
L 307.691287 -173.936687 
L 311.004089 -171.857687 
L 314.31689 -151.067687 
L 317.629692 -167.699687 
L 320.942493 -167.595737 
L 324.255295 -159.383687 
L 327.568096 -159.383687 
L 330.880897 -159.383687 
L 334.193699 -159.383687 
L 337.5065 -169.778687 
L 340.819302 -142.751688 
L 344.132103 -157.304688 
L 347.444905 -176.015687 
L 350.757706 -161.462687 
L 354.070508 -159.383687 
L 357.383309 -167.699687 
L 360.696111 -163.541687 
L 364.008912 -161.462687 
L 367.321714 -161.462687 
L 370.634515 -161.462687 
L 373.947317 -155.225687 
L 377.260118 -157.304688 
L 380.57292 -157.304688 
L 383.885721 -159.383687 
L 387.198523 -159.383687 
L 387.198523 -176.015687 
L 387.198523 -176.015687 
L 383.885721 -167.699687 
L 380.57292 -176.015687 
L 377.260118 -176.015687 
L 373.947317 -167.699687 
L 370.634515 -167.699687 
L 367.321714 -173.936687 
L 364.008912 -167.699687 
L 360.696111 -194.726687 
L 357.383309 -176.015687 
L 354.070508 -180.173687 
L 350.757706 -173.936687 
L 347.444905 -192.647687 
L 344.132103 -176.015687 
L 340.819302 -180.173687 
L 337.5065 -176.015687 
L 334.193699 -176.015687 
L 330.880897 -184.331687 
L 327.568096 -171.857687 
L 324.255295 -192.647687 
L 320.942493 -209.279687 
L 317.629692 -176.015687 
L 314.31689 -169.778687 
L 311.004089 -184.331687 
L 307.691287 -192.647687 
L 304.378486 -184.331687 
L 301.065684 -180.173687 
L 297.752883 -182.252687 
L 294.440081 -178.094687 
L 291.12728 -184.331687 
L 287.814478 -178.094687 
L 284.501677 -200.963687 
L 281.188875 -184.331687 
L 277.876074 -196.805687 
L 274.563272 -184.331687 
L 271.250471 -190.568687 
L 267.937669 -184.331687 
L 264.624868 -184.331687 
L 261.312066 -184.331687 
L 257.999265 -192.647687 
L 254.686463 -171.857687 
L 251.373662 -192.647687 
L 248.06086 -196.805687 
L 244.748059 -184.331687 
L 241.435257 -192.647687 
L 238.122456 -173.936687 
L 234.809654 -192.647687 
L 231.496853 -203.042687 
L 228.184051 -184.331687 
L 224.87125 -209.279687 
L 221.558449 -192.647687 
L 218.245647 -207.200687 
L 214.932846 -184.331687 
L 211.620044 -182.252687 
L 208.307243 -205.121687 
L 204.994441 -225.911687 
L 201.68164 -224.248487 
L 198.368838 -204.290087 
L 195.056037 -209.279687 
L 191.743235 -212.606087 
L 188.430434 -184.331687 
L 185.117632 -204.290087 
L 181.804831 -205.953287 
L 178.492029 -200.963687 
L 175.179228 -202.668467 
L 171.866426 -220.922087 
L 168.553625 -200.963687 
L 165.240823 -202.626887 
L 161.928022 -219.258887 
L 158.61522 -202.626887 
L 155.302419 -190.984488 
L 151.989617 -210.942887 
L 148.676816 -215.932487 
L 145.364014 -202.626887 
L 142.051213 -204.290087 
L 138.738411 -209.279687 
L 135.42561 -207.616487 
L 132.112808 -197.637287 
L 128.800007 -232.564487 
L 125.487205 -190.984488 
L 122.174404 -199.300487 
L 118.861603 -192.647687 
L 115.548801 -205.953287 
L 112.236 -197.637287 
L 108.923198 -207.616487 
L 105.610397 -202.626887 
L 102.297595 -205.953287 
L 98.984794 -229.238087 
L 95.671992 -207.616487 
L 92.359191 -205.953287 
L 89.046389 -224.248487 
L 85.733588 -230.942867 
L 82.420786 -242.543687 
L 79.107985 -214.269287 
L 75.795183 -244.206887 
L 72.482382 -249.196487 
L 69.16958 -267.491688 
L 65.856779 -239.217287 
L 62.543977 -290.776487 
z
" id="m8c566bc963" style="stroke:#d62728;stroke-opacity:0.2;"/>
    </defs>
    <g clip-path="url(#p0a5f49ec84)">
     <use style="fill:#d62728;fill-opacity:0.2;stroke:#d62728;stroke-opacity:0.2;" x="0" xlink:href="#m8c566bc963" y="331.389812"/>
    </g>
   </g>
   <g id="PolyCollection_5">
    <defs>
     <path d="M 62.543977 -247.533288 
L 62.543977 -179.342087 
L 65.856779 -215.932487 
L 69.16958 -177.678887 
L 72.482382 -199.300487 
L 75.795183 -159.383687 
L 79.107985 -174.352487 
L 82.420786 -156.057287 
L 85.733588 -166.036487 
L 89.046389 -189.321287 
L 92.359191 -185.994887 
L 95.671992 -197.637287 
L 98.984794 -169.362887 
L 102.297595 -141.088487 
L 105.610397 -177.678887 
L 108.923198 -172.689287 
L 112.236 -176.015687 
L 115.548801 -167.699687 
L 118.861603 -187.658087 
L 122.174404 -189.238127 
L 125.487205 -152.730887 
L 128.800007 -151.067687 
L 132.112808 -181.005288 
L 135.42561 -171.026087 
L 138.738411 -177.678887 
L 142.051213 -184.331687 
L 145.364014 -182.668487 
L 148.676816 -156.057287 
L 151.989617 -144.414887 
L 155.302419 -150.984527 
L 158.61522 -181.005288 
L 161.928022 -171.026087 
L 165.240823 -187.658087 
L 168.553625 -144.414887 
L 171.866426 -154.394087 
L 175.179228 -166.036487 
L 178.492029 -189.321287 
L 181.804831 -152.730887 
L 185.117632 -152.730887 
L 188.430434 -177.678887 
L 191.743235 -156.057287 
L 195.056037 -167.699687 
L 198.368838 -154.394087 
L 201.68164 -147.741287 
L 204.994441 -155.225687 
L 208.307243 -163.541687 
L 211.620044 -163.541687 
L 214.932846 -159.383687 
L 218.245647 -146.909687 
L 221.558449 -128.198688 
L 224.87125 -159.383687 
L 228.184051 -196.805687 
L 231.496853 -192.647687 
L 234.809654 -165.620687 
L 238.122456 -153.146687 
L 241.435257 -155.225687 
L 244.748059 -184.331687 
L 248.06086 -180.173687 
L 251.373662 -169.778687 
L 254.686463 -161.462687 
L 257.999265 -169.778687 
L 261.312066 -159.383687 
L 264.624868 -136.514687 
L 267.937669 -157.304688 
L 271.250471 -180.173687 
L 274.563272 -173.936687 
L 277.876074 -167.699687 
L 281.188875 -126.119687 
L 284.501677 -134.435687 
L 287.814478 -134.435687 
L 291.12728 -153.146687 
L 294.440081 -151.067687 
L 297.752883 -151.067687 
L 301.065684 -169.778687 
L 304.378486 -155.225687 
L 307.691287 -169.778687 
L 311.004089 -155.225687 
L 314.31689 -163.541687 
L 317.629692 -159.383687 
L 320.942493 -161.462687 
L 324.255295 -161.462687 
L 327.568096 -161.462687 
L 330.880897 -153.146687 
L 334.193699 -151.067687 
L 337.5065 -178.094687 
L 340.819302 -161.462687 
L 344.132103 -151.067687 
L 347.444905 -155.225687 
L 350.757706 -151.067687 
L 354.070508 -167.699687 
L 357.383309 -167.699687 
L 360.696111 -167.699687 
L 364.008912 -151.067687 
L 367.321714 -159.383687 
L 370.634515 -159.383687 
L 373.947317 -153.146687 
L 377.260118 -157.304688 
L 380.57292 -159.383687 
L 383.885721 -153.146687 
L 387.198523 -157.304688 
L 387.198523 -200.963687 
L 387.198523 -200.963687 
L 383.885721 -196.805687 
L 380.57292 -215.516687 
L 377.260118 -188.489687 
L 373.947317 -196.961612 
L 370.634515 -196.805687 
L 367.321714 -196.805687 
L 364.008912 -213.437687 
L 360.696111 -192.647687 
L 357.383309 -211.358687 
L 354.070508 -186.410687 
L 350.757706 -213.437687 
L 347.444905 -192.647687 
L 344.132103 -194.726687 
L 340.819302 -223.832687 
L 337.5065 -215.516687 
L 334.193699 -207.200687 
L 330.880897 -190.568687 
L 327.568096 -192.647687 
L 324.255295 -205.121687 
L 320.942493 -198.884687 
L 317.629692 -184.331687 
L 314.31689 -207.200687 
L 311.004089 -198.884687 
L 307.691287 -225.911687 
L 304.378486 -192.647687 
L 301.065684 -213.437687 
L 297.752883 -188.489687 
L 294.440081 -188.489687 
L 291.12728 -215.516687 
L 287.814478 -184.331687 
L 284.501677 -203.042687 
L 281.188875 -182.252687 
L 277.876074 -217.595687 
L 274.563272 -211.358687 
L 271.250471 -205.121687 
L 267.937669 -194.726687 
L 264.624868 -192.647687 
L 261.312066 -203.042687 
L 257.999265 -219.674687 
L 254.686463 -173.936687 
L 251.373662 -213.437687 
L 248.06086 -223.832687 
L 244.748059 -234.227687 
L 241.435257 -184.331687 
L 238.122456 -234.227687 
L 234.809654 -234.227687 
L 231.496853 -267.491688 
L 228.184051 -209.279687 
L 224.87125 -192.647687 
L 221.558449 -159.383687 
L 218.245647 -184.331687 
L 214.932846 -159.383687 
L 211.620044 -225.911687 
L 208.307243 -242.543687 
L 204.994441 -234.227687 
L 201.68164 -217.595687 
L 198.368838 -190.984488 
L 195.056037 -210.942887 
L 191.743235 -215.932487 
L 188.430434 -212.606087 
L 185.117632 -219.258887 
L 181.804831 -205.953287 
L 178.492029 -215.932487 
L 175.179228 -235.890887 
L 171.866426 -262.502087 
L 168.553625 -207.616487 
L 165.240823 -224.248487 
L 161.928022 -227.574887 
L 158.61522 -234.227687 
L 155.302419 -234.227687 
L 151.989617 -210.942887 
L 148.676816 -209.279687 
L 145.364014 -215.932487 
L 142.051213 -234.227687 
L 138.738411 -210.942887 
L 135.42561 -200.963687 
L 132.112808 -215.932487 
L 128.800007 -210.942887 
L 125.487205 -207.616487 
L 122.174404 -214.269287 
L 118.861603 -192.647687 
L 115.548801 -199.300487 
L 112.236 -192.647687 
L 108.923198 -197.637287 
L 105.610397 -207.616487 
L 102.297595 -210.942887 
L 98.984794 -215.932487 
L 95.671992 -225.911687 
L 92.359191 -200.963687 
L 89.046389 -199.300487 
L 85.733588 -205.953287 
L 82.420786 -229.238087 
L 79.107985 -207.616487 
L 75.795183 -217.595687 
L 72.482382 -232.564487 
L 69.16958 -227.574887 
L 65.856779 -247.533288 
L 62.543977 -247.533288 
z
" id="mfd9652c877" style="stroke:#9467bd;stroke-opacity:0.2;"/>
    </defs>
    <g clip-path="url(#p0a5f49ec84)">
     <use style="fill:#9467bd;fill-opacity:0.2;stroke:#9467bd;stroke-opacity:0.2;" x="0" xlink:href="#mfd9652c877" y="331.389812"/>
    </g>
   </g>
   <g id="line2d_14">
    <path clip-path="url(#p0a5f49ec84)" d="M 62.543977 280.114125 
L 65.856779 280.114125 
L 69.16958 278.450925 
L 72.482382 280.114125 
L 75.795183 280.114125 
L 79.107985 280.114125 
L 82.420786 280.114125 
L 85.733588 280.114125 
L 89.046389 276.787725 
L 92.359191 275.124525 
L 95.671992 280.114125 
L 98.984794 280.114125 
L 102.297595 276.787725 
L 105.610397 278.450925 
L 108.923198 276.787725 
L 112.236 280.114125 
L 115.548801 278.450925 
L 118.861603 276.787725 
L 122.174404 280.114125 
L 125.487205 280.114125 
L 128.800007 280.114125 
L 132.112808 280.114125 
L 135.42561 280.114125 
L 138.738411 275.124525 
L 142.051213 280.114125 
L 145.364014 280.114125 
L 148.676816 280.114125 
L 151.989617 280.114125 
L 155.302419 280.114125 
L 158.61522 278.450925 
L 161.928022 280.114125 
L 165.240823 276.787725 
L 168.553625 280.114125 
L 171.866426 278.450925 
L 175.179228 278.450925 
L 178.492029 280.114125 
L 181.804831 280.114125 
L 185.117632 275.124525 
L 188.430434 280.114125 
L 191.743235 280.114125 
L 195.056037 280.114125 
L 198.368838 280.114125 
L 201.68164 280.114125 
L 204.994441 280.114125 
L 208.307243 280.114125 
L 211.620044 280.114125 
L 214.932846 278.035125 
L 218.245647 280.114125 
L 221.558449 280.114125 
L 224.87125 280.114125 
L 228.184051 280.114125 
L 231.496853 280.114125 
L 234.809654 280.114125 
L 238.122456 278.035125 
L 241.435257 280.114125 
L 244.748059 280.114125 
L 248.06086 278.035125 
L 251.373662 280.114125 
L 254.686463 280.114125 
L 257.999265 280.114125 
L 261.312066 280.114125 
L 264.624868 280.114125 
L 267.937669 280.114125 
L 271.250471 280.114125 
L 274.563272 280.114125 
L 277.876074 280.114125 
L 281.188875 280.114125 
L 284.501677 280.114125 
L 287.814478 278.035125 
L 291.12728 278.035125 
L 294.440081 280.114125 
L 297.752883 280.114125 
L 301.065684 280.114125 
L 304.378486 280.114125 
L 307.691287 280.114125 
L 311.004089 280.114125 
L 314.31689 280.114125 
L 317.629692 278.035125 
L 320.942493 280.114125 
L 324.255295 280.114125 
L 327.568096 280.114125 
L 330.880897 280.114125 
L 334.193699 280.114125 
L 337.5065 280.114125 
L 340.819302 280.114125 
L 344.132103 280.114125 
L 347.444905 275.956125 
L 350.757706 278.035125 
L 354.070508 280.114125 
L 357.383309 280.114125 
L 360.696111 280.114125 
L 364.008912 278.035125 
L 367.321714 273.877125 
L 370.634515 280.114125 
L 373.947317 278.035125 
L 377.260118 280.114125 
L 380.57292 280.114125 
L 383.885721 280.114125 
L 387.198523 275.956125 
" style="fill:none;stroke:#1f77b4;stroke-linecap:round;stroke-width:1.5;"/>
   </g>
   <g id="line2d_15">
    <path clip-path="url(#p0a5f49ec84)" d="M 62.543977 53.918925 
L 65.856779 40.613325 
L 69.16958 38.950125 
L 72.482382 45.602925 
L 75.795183 38.950125 
L 79.107985 38.950125 
L 82.420786 38.950125 
L 85.733588 38.950125 
L 89.046389 48.929325 
L 92.359191 50.592525 
L 95.671992 40.613325 
L 98.984794 43.939725 
L 102.297595 55.582125 
L 105.610397 40.613325 
L 108.923198 48.929325 
L 112.236 72.214125 
L 115.548801 73.877325 
L 118.861603 63.898125 
L 122.174404 52.255725 
L 125.487205 73.877325 
L 128.800007 88.846125 
L 132.112808 85.519725 
L 135.42561 85.519725 
L 138.738411 85.519725 
L 142.051213 87.182925 
L 145.364014 85.519725 
L 148.676816 93.835725 
L 151.989617 93.835725 
L 155.302419 97.162125 
L 158.61522 103.814925 
L 161.928022 98.825325 
L 165.240823 108.804525 
L 168.553625 113.794125 
L 171.866426 107.141325 
L 175.179228 130.426125 
L 178.492029 125.436525 
L 181.804831 118.783725 
L 185.117632 115.457325 
L 188.430434 117.120525 
L 191.743235 127.099725 
L 195.056037 132.089325 
L 198.368838 127.099725 
L 201.68164 132.089325 
L 204.994441 128.347125 
L 208.307243 130.426125 
L 211.620044 117.952125 
L 214.932846 128.347125 
L 218.245647 130.426125 
L 221.558449 167.848125 
L 224.87125 132.505125 
L 228.184051 140.821125 
L 231.496853 151.216125 
L 234.809654 132.505125 
L 238.122456 132.505125 
L 241.435257 136.663125 
L 244.748059 140.821125 
L 248.06086 138.742125 
L 251.373662 136.663125 
L 254.686463 138.742125 
L 257.999265 144.979125 
L 261.312066 159.532125 
L 264.624868 142.900125 
L 267.937669 147.058125 
L 271.250471 151.216125 
L 274.563272 136.663125 
L 277.876074 149.137125 
L 281.188875 149.137125 
L 284.501677 138.742125 
L 287.814478 149.137125 
L 291.12728 149.137125 
L 294.440081 157.453125 
L 297.752883 151.216125 
L 301.065684 153.295125 
L 304.378486 142.900125 
L 307.691287 157.453125 
L 311.004089 165.769125 
L 314.31689 153.295125 
L 317.629692 169.927125 
L 320.942493 149.137125 
L 324.255295 155.374125 
L 327.568096 165.769125 
L 330.880897 149.137125 
L 334.193699 159.532125 
L 337.5065 163.690125 
L 340.819302 151.216125 
L 344.132103 174.085125 
L 347.444905 153.295125 
L 350.757706 159.532125 
L 354.070508 159.532125 
L 357.383309 149.137125 
L 360.696111 167.848125 
L 364.008912 161.611125 
L 367.321714 161.611125 
L 370.634515 174.085125 
L 373.947317 165.769125 
L 377.260118 157.453125 
L 380.57292 159.532125 
L 383.885721 165.769125 
L 387.198523 157.453125 
" style="fill:none;stroke:#ff7f0e;stroke-linecap:round;stroke-width:1.5;"/>
   </g>
   <g id="line2d_16">
    <path clip-path="url(#p0a5f49ec84)" d="M 62.543977 48.929325 
L 65.856779 43.939725 
L 69.16958 38.950125 
L 72.482382 38.950125 
L 75.795183 38.950125 
L 79.107985 38.950125 
L 82.420786 38.950125 
L 85.733588 38.950125 
L 89.046389 47.266125 
L 92.359191 65.561325 
L 95.671992 38.950125 
L 98.984794 40.613325 
L 102.297595 45.602925 
L 105.610397 43.939725 
L 108.923198 40.613325 
L 112.236 45.602925 
L 115.548801 58.908525 
L 118.861603 55.582125 
L 122.174404 50.592525 
L 125.487205 47.266125 
L 128.800007 58.908525 
L 132.112808 55.582125 
L 135.42561 75.540525 
L 138.738411 70.550925 
L 142.051213 60.571725 
L 145.364014 67.224525 
L 148.676816 82.193325 
L 151.989617 73.877325 
L 155.302419 90.509325 
L 158.61522 88.846125 
L 161.928022 97.162125 
L 165.240823 87.182925 
L 168.553625 87.182925 
L 171.866426 83.856525 
L 175.179228 83.856525 
L 178.492029 98.825325 
L 181.804831 98.825325 
L 185.117632 115.457325 
L 188.430434 105.478125 
L 191.743235 90.509325 
L 195.056037 98.825325 
L 198.368838 98.825325 
L 201.68164 102.151725 
L 204.994441 103.399125 
L 208.307243 99.241125 
L 211.620044 99.241125 
L 214.932846 86.767125 
L 218.245647 107.557125 
L 221.558449 105.478125 
L 224.87125 113.794125 
L 228.184051 99.241125 
L 231.496853 105.478125 
L 234.809654 97.162125 
L 238.122456 111.715125 
L 241.435257 115.873125 
L 244.748059 103.399125 
L 248.06086 128.347125 
L 251.373662 109.636125 
L 254.686463 111.715125 
L 257.999265 113.794125 
L 261.312066 111.715125 
L 264.624868 99.241125 
L 267.937669 105.478125 
L 271.250471 130.426125 
L 274.563272 107.557125 
L 277.876074 124.189125 
L 281.188875 109.636125 
L 284.501677 109.636125 
L 287.814478 107.557125 
L 291.12728 107.557125 
L 294.440081 113.794125 
L 297.752883 107.557125 
L 301.065684 107.557125 
L 304.378486 107.557125 
L 307.691287 101.320125 
L 311.004089 107.557125 
L 314.31689 111.715125 
L 317.629692 122.110125 
L 320.942493 107.557125 
L 324.255295 126.268125 
L 327.568096 120.031125 
L 330.880897 122.110125 
L 334.193699 93.004125 
L 337.5065 111.715125 
L 340.819302 120.031125 
L 344.132103 132.505125 
L 347.444905 95.083125 
L 350.757706 111.715125 
L 354.070508 120.031125 
L 357.383309 99.241125 
L 360.696111 105.478125 
L 364.008912 105.478125 
L 367.321714 117.952125 
L 370.634515 117.952125 
L 373.947317 109.636125 
L 377.260118 107.557125 
L 380.57292 117.952125 
L 383.885721 113.794125 
L 387.198523 101.320125 
" style="fill:none;stroke:#2ca02c;stroke-linecap:round;stroke-width:1.5;"/>
   </g>
   <g id="line2d_17">
    <path clip-path="url(#p0a5f49ec84)" d="M 62.543977 60.571725 
L 65.856779 102.151725 
L 69.16958 75.540525 
L 72.482382 87.182925 
L 75.795183 95.498925 
L 79.107985 120.446925 
L 82.420786 117.120525 
L 85.733588 117.120525 
L 89.046389 120.446925 
L 92.359191 130.426125 
L 95.671992 140.405325 
L 98.984794 115.457325 
L 102.297595 132.089325 
L 105.610397 135.415725 
L 108.923198 133.752525 
L 112.236 137.078925 
L 115.548801 135.415725 
L 118.861603 152.047725 
L 122.174404 145.394925 
L 125.487205 150.384525 
L 128.800007 113.794125 
L 132.112808 147.058125 
L 135.42561 135.415725 
L 138.738411 132.089325 
L 142.051213 135.415725 
L 145.364014 133.752525 
L 148.676816 128.762925 
L 151.989617 140.405325 
L 155.302419 145.394925 
L 158.61522 138.742125 
L 161.928022 125.436525 
L 165.240823 135.415725 
L 168.553625 143.731725 
L 171.866426 138.742125 
L 175.179228 148.721325 
L 178.492029 155.374125 
L 181.804831 138.742125 
L 185.117632 150.384525 
L 188.430434 176.995725 
L 191.743235 128.762925 
L 195.056037 132.089325 
L 198.368838 147.058125 
L 201.68164 130.426125 
L 204.994441 126.268125 
L 208.307243 134.584125 
L 211.620044 157.453125 
L 214.932846 151.216125 
L 218.245647 140.821125 
L 221.558449 147.058125 
L 224.87125 142.900125 
L 228.184051 161.611125 
L 231.496853 144.979125 
L 234.809654 151.216125 
L 238.122456 163.690125 
L 241.435257 147.058125 
L 244.748059 155.374125 
L 248.06086 149.137125 
L 251.373662 157.453125 
L 254.686463 186.559125 
L 257.999265 147.058125 
L 261.312066 151.216125 
L 264.624868 151.216125 
L 267.937669 157.453125 
L 271.250471 155.374125 
L 274.563272 151.216125 
L 277.876074 147.058125 
L 281.188875 157.453125 
L 284.501677 147.058125 
L 287.814478 163.690125 
L 291.12728 155.374125 
L 294.440081 165.769125 
L 297.752883 155.374125 
L 301.065684 161.611125 
L 304.378486 151.216125 
L 307.691287 147.058125 
L 311.004089 151.216125 
L 314.31689 174.085125 
L 317.629692 159.532125 
L 320.942493 142.900125 
L 324.255295 155.374125 
L 327.568096 167.848125 
L 330.880897 155.374125 
L 334.193699 163.690125 
L 337.5065 157.453125 
L 340.819302 169.927125 
L 344.132103 161.611125 
L 347.444905 147.058125 
L 350.757706 163.690125 
L 354.070508 161.611125 
L 357.383309 159.532125 
L 360.696111 153.295125 
L 364.008912 165.769125 
L 367.321714 163.690125 
L 370.634515 165.769125 
L 373.947317 167.848125 
L 377.260118 161.611125 
L 380.57292 161.611125 
L 383.885721 167.848125 
L 387.198523 163.690125 
" style="fill:none;stroke:#d62728;stroke-linecap:round;stroke-width:1.5;"/>
   </g>
   <g id="line2d_18">
    <path clip-path="url(#p0a5f49ec84)" d="M 62.543977 115.457325 
L 65.856779 98.825325 
L 69.16958 127.099725 
L 72.482382 113.794125 
L 75.795183 145.394925 
L 79.107985 138.742125 
L 82.420786 143.731725 
L 85.733588 148.721325 
L 89.046389 137.078925 
L 92.359191 137.078925 
L 95.671992 122.110125 
L 98.984794 138.742125 
L 102.297595 157.037325 
L 105.610397 138.742125 
L 108.923198 147.058125 
L 112.236 148.721325 
L 115.548801 147.058125 
L 118.861603 140.405325 
L 122.174404 128.762925 
L 125.487205 152.047725 
L 128.800007 150.384525 
L 132.112808 130.426125 
L 135.42561 140.405325 
L 138.738411 133.752525 
L 142.051213 117.120525 
L 145.364014 132.089325 
L 148.676816 145.394925 
L 151.989617 152.047725 
L 155.302419 138.742125 
L 158.61522 123.773325 
L 161.928022 132.089325 
L 165.240823 123.773325 
L 168.553625 152.047725 
L 171.866426 123.773325 
L 175.179228 130.426125 
L 178.492029 128.762925 
L 181.804831 152.047725 
L 185.117632 143.731725 
L 188.430434 135.415725 
L 191.743235 143.731725 
L 195.056037 142.068525 
L 198.368838 157.037325 
L 201.68164 147.058125 
L 204.994441 136.663125 
L 208.307243 128.347125 
L 211.620044 136.663125 
L 214.932846 172.006125 
L 218.245647 165.769125 
L 221.558449 182.401125 
L 224.87125 155.374125 
L 228.184051 128.347125 
L 231.496853 101.320125 
L 234.809654 128.347125 
L 238.122456 149.137125 
L 241.435257 161.611125 
L 244.748059 115.873125 
L 248.06086 132.505125 
L 251.373662 136.663125 
L 254.686463 163.690125 
L 257.999265 134.584125 
L 261.312066 149.137125 
L 264.624868 165.769125 
L 267.937669 155.374125 
L 271.250471 138.742125 
L 274.563272 138.742125 
L 277.876074 144.979125 
L 281.188875 180.322125 
L 284.501677 172.006125 
L 287.814478 174.085125 
L 291.12728 155.374125 
L 294.440081 163.690125 
L 297.752883 163.690125 
L 301.065684 136.663125 
L 304.378486 151.216125 
L 307.691287 140.821125 
L 311.004089 157.453125 
L 314.31689 140.821125 
L 317.629692 161.611125 
L 320.942493 155.374125 
L 324.255295 153.295125 
L 327.568096 157.453125 
L 330.880897 155.374125 
L 334.193699 153.295125 
L 337.5065 130.426125 
L 340.819302 138.742125 
L 344.132103 157.453125 
L 347.444905 151.216125 
L 350.757706 151.216125 
L 354.070508 157.453125 
L 357.383309 140.821125 
L 360.696111 151.216125 
L 364.008912 151.216125 
L 367.321714 151.216125 
L 370.634515 151.216125 
L 373.947317 151.216125 
L 377.260118 157.453125 
L 380.57292 136.663125 
L 383.885721 153.295125 
L 387.198523 149.137125 
" style="fill:none;stroke:#9467bd;stroke-linecap:round;stroke-width:1.5;"/>
   </g>
   <g id="line2d_19"/>
   <g id="line2d_20"/>
   <g id="line2d_21"/>
   <g id="line2d_22"/>
   <g id="line2d_23"/>
   <g id="line2d_24"/>
   <g id="patch_3">
    <path d="M 46.31125 288.430125 
L 46.31125 22.318125 
" style="fill:none;stroke:#ffffff;stroke-linecap:square;stroke-linejoin:miter;stroke-width:1.25;"/>
   </g>
   <g id="patch_4">
    <path d="M 403.43125 288.430125 
L 403.43125 22.318125 
" style="fill:none;stroke:#ffffff;stroke-linecap:square;stroke-linejoin:miter;stroke-width:1.25;"/>
   </g>
   <g id="patch_5">
    <path d="M 46.31125 288.430125 
L 403.43125 288.430125 
" style="fill:none;stroke:#ffffff;stroke-linecap:square;stroke-linejoin:miter;stroke-width:1.25;"/>
   </g>
   <g id="patch_6">
    <path d="M 46.31125 22.318125 
L 403.43125 22.318125 
" style="fill:none;stroke:#ffffff;stroke-linecap:square;stroke-linejoin:miter;stroke-width:1.25;"/>
   </g>
   <g id="text_16">
    <!-- Max Rank=32 -->
    <defs>
     <path d="M 54.890625 54.6875 
L 35.109375 28.078125 
L 55.90625 0 
L 45.3125 0 
L 29.390625 21.484375 
L 13.484375 0 
L 2.875 0 
L 24.125 28.609375 
L 4.6875 54.6875 
L 15.28125 54.6875 
L 29.78125 35.203125 
L 44.28125 54.6875 
z
" id="DejaVuSans-120"/>
     <path d="M 10.59375 45.40625 
L 73.1875 45.40625 
L 73.1875 37.203125 
L 10.59375 37.203125 
z
M 10.59375 25.484375 
L 73.1875 25.484375 
L 73.1875 17.1875 
L 10.59375 17.1875 
z
" id="DejaVuSans-61"/>
    </defs>
    <g style="fill:#262626;" transform="translate(182.775625 16.318125)scale(0.12 -0.12)">
     <use xlink:href="#DejaVuSans-77"/>
     <use x="86.279297" xlink:href="#DejaVuSans-97"/>
     <use x="147.558594" xlink:href="#DejaVuSans-120"/>
     <use x="206.738281" xlink:href="#DejaVuSans-32"/>
     <use x="238.525391" xlink:href="#DejaVuSans-82"/>
     <use x="307.976562" xlink:href="#DejaVuSans-97"/>
     <use x="369.255859" xlink:href="#DejaVuSans-110"/>
     <use x="432.634766" xlink:href="#DejaVuSans-107"/>
     <use x="490.544922" xlink:href="#DejaVuSans-61"/>
     <use x="574.333984" xlink:href="#DejaVuSans-51"/>
     <use x="637.957031" xlink:href="#DejaVuSans-50"/>
    </g>
   </g>
   <g id="legend_1">
    <g id="patch_7">
     <path d="M 219.994219 111.847812 
L 395.73125 111.847812 
Q 397.93125 111.847812 397.93125 109.647812 
L 397.93125 30.018125 
Q 397.93125 27.818125 395.73125 27.818125 
L 219.994219 27.818125 
Q 217.794219 27.818125 217.794219 30.018125 
L 217.794219 109.647812 
Q 217.794219 111.847812 219.994219 111.847812 
z
" style="fill:#eaeaf2;opacity:0.8;stroke:#cccccc;stroke-linejoin:miter;"/>
    </g>
    <g id="line2d_25">
     <path d="M 222.194219 36.726406 
L 244.194219 36.726406 
" style="fill:none;stroke:#1f77b4;stroke-linecap:round;stroke-width:1.5;"/>
    </g>
    <g id="line2d_26"/>
    <g id="text_17">
     <!-- Output Layer -->
     <defs>
      <path d="M 39.40625 66.21875 
Q 28.65625 66.21875 22.328125 58.203125 
Q 16.015625 50.203125 16.015625 36.375 
Q 16.015625 22.609375 22.328125 14.59375 
Q 28.65625 6.59375 39.40625 6.59375 
Q 50.140625 6.59375 56.421875 14.59375 
Q 62.703125 22.609375 62.703125 36.375 
Q 62.703125 50.203125 56.421875 58.203125 
Q 50.140625 66.21875 39.40625 66.21875 
z
M 39.40625 74.21875 
Q 54.734375 74.21875 63.90625 63.9375 
Q 73.09375 53.65625 73.09375 36.375 
Q 73.09375 19.140625 63.90625 8.859375 
Q 54.734375 -1.421875 39.40625 -1.421875 
Q 24.03125 -1.421875 14.8125 8.828125 
Q 5.609375 19.09375 5.609375 36.375 
Q 5.609375 53.65625 14.8125 63.9375 
Q 24.03125 74.21875 39.40625 74.21875 
z
" id="DejaVuSans-79"/>
      <path d="M 8.5 21.578125 
L 8.5 54.6875 
L 17.484375 54.6875 
L 17.484375 21.921875 
Q 17.484375 14.15625 20.5 10.265625 
Q 23.53125 6.390625 29.59375 6.390625 
Q 36.859375 6.390625 41.078125 11.03125 
Q 45.3125 15.671875 45.3125 23.6875 
L 45.3125 54.6875 
L 54.296875 54.6875 
L 54.296875 0 
L 45.3125 0 
L 45.3125 8.40625 
Q 42.046875 3.421875 37.71875 1 
Q 33.40625 -1.421875 27.6875 -1.421875 
Q 18.265625 -1.421875 13.375 4.4375 
Q 8.5 10.296875 8.5 21.578125 
z
M 31.109375 56 
z
" id="DejaVuSans-117"/>
      <path d="M 9.8125 72.90625 
L 19.671875 72.90625 
L 19.671875 8.296875 
L 55.171875 8.296875 
L 55.171875 0 
L 9.8125 0 
z
" id="DejaVuSans-76"/>
      <path d="M 32.171875 -5.078125 
Q 28.375 -14.84375 24.75 -17.8125 
Q 21.140625 -20.796875 15.09375 -20.796875 
L 7.90625 -20.796875 
L 7.90625 -13.28125 
L 13.1875 -13.28125 
Q 16.890625 -13.28125 18.9375 -11.515625 
Q 21 -9.765625 23.484375 -3.21875 
L 25.09375 0.875 
L 2.984375 54.6875 
L 12.5 54.6875 
L 29.59375 11.921875 
L 46.6875 54.6875 
L 56.203125 54.6875 
z
" id="DejaVuSans-121"/>
     </defs>
     <g style="fill:#262626;" transform="translate(252.994219 40.576406)scale(0.11 -0.11)">
      <use xlink:href="#DejaVuSans-79"/>
      <use x="78.710938" xlink:href="#DejaVuSans-117"/>
      <use x="142.089844" xlink:href="#DejaVuSans-116"/>
      <use x="181.298828" xlink:href="#DejaVuSans-112"/>
      <use x="244.775391" xlink:href="#DejaVuSans-117"/>
      <use x="308.154297" xlink:href="#DejaVuSans-116"/>
      <use x="347.363281" xlink:href="#DejaVuSans-32"/>
      <use x="379.150391" xlink:href="#DejaVuSans-76"/>
      <use x="434.863281" xlink:href="#DejaVuSans-97"/>
      <use x="496.142578" xlink:href="#DejaVuSans-121"/>
      <use x="555.322266" xlink:href="#DejaVuSans-101"/>
      <use x="616.845703" xlink:href="#DejaVuSans-114"/>
     </g>
    </g>
    <g id="line2d_27">
     <path d="M 222.194219 52.872344 
L 244.194219 52.872344 
" style="fill:none;stroke:#ff7f0e;stroke-linecap:round;stroke-width:1.5;"/>
    </g>
    <g id="line2d_28"/>
    <g id="text_18">
     <!-- 2nd FC - 512x256 -->
     <defs>
      <path d="M 45.40625 46.390625 
L 45.40625 75.984375 
L 54.390625 75.984375 
L 54.390625 0 
L 45.40625 0 
L 45.40625 8.203125 
Q 42.578125 3.328125 38.25 0.953125 
Q 33.9375 -1.421875 27.875 -1.421875 
Q 17.96875 -1.421875 11.734375 6.484375 
Q 5.515625 14.40625 5.515625 27.296875 
Q 5.515625 40.1875 11.734375 48.09375 
Q 17.96875 56 27.875 56 
Q 33.9375 56 38.25 53.625 
Q 42.578125 51.265625 45.40625 46.390625 
z
M 14.796875 27.296875 
Q 14.796875 17.390625 18.875 11.75 
Q 22.953125 6.109375 30.078125 6.109375 
Q 37.203125 6.109375 41.296875 11.75 
Q 45.40625 17.390625 45.40625 27.296875 
Q 45.40625 37.203125 41.296875 42.84375 
Q 37.203125 48.484375 30.078125 48.484375 
Q 22.953125 48.484375 18.875 42.84375 
Q 14.796875 37.203125 14.796875 27.296875 
z
" id="DejaVuSans-100"/>
      <path d="M 9.8125 72.90625 
L 51.703125 72.90625 
L 51.703125 64.59375 
L 19.671875 64.59375 
L 19.671875 43.109375 
L 48.578125 43.109375 
L 48.578125 34.8125 
L 19.671875 34.8125 
L 19.671875 0 
L 9.8125 0 
z
" id="DejaVuSans-70"/>
      <path d="M 64.40625 67.28125 
L 64.40625 56.890625 
Q 59.421875 61.53125 53.78125 63.8125 
Q 48.140625 66.109375 41.796875 66.109375 
Q 29.296875 66.109375 22.65625 58.46875 
Q 16.015625 50.828125 16.015625 36.375 
Q 16.015625 21.96875 22.65625 14.328125 
Q 29.296875 6.6875 41.796875 6.6875 
Q 48.140625 6.6875 53.78125 8.984375 
Q 59.421875 11.28125 64.40625 15.921875 
L 64.40625 5.609375 
Q 59.234375 2.09375 53.4375 0.328125 
Q 47.65625 -1.421875 41.21875 -1.421875 
Q 24.65625 -1.421875 15.125 8.703125 
Q 5.609375 18.84375 5.609375 36.375 
Q 5.609375 53.953125 15.125 64.078125 
Q 24.65625 74.21875 41.21875 74.21875 
Q 47.75 74.21875 53.53125 72.484375 
Q 59.328125 70.75 64.40625 67.28125 
z
" id="DejaVuSans-67"/>
     </defs>
     <g style="fill:#262626;" transform="translate(252.994219 56.722344)scale(0.11 -0.11)">
      <use xlink:href="#DejaVuSans-50"/>
      <use x="63.623047" xlink:href="#DejaVuSans-110"/>
      <use x="127.001953" xlink:href="#DejaVuSans-100"/>
      <use x="190.478516" xlink:href="#DejaVuSans-32"/>
      <use x="222.265625" xlink:href="#DejaVuSans-70"/>
      <use x="279.785156" xlink:href="#DejaVuSans-67"/>
      <use x="349.609375" xlink:href="#DejaVuSans-32"/>
      <use x="381.396484" xlink:href="#DejaVuSans-45"/>
      <use x="417.480469" xlink:href="#DejaVuSans-32"/>
      <use x="449.267578" xlink:href="#DejaVuSans-53"/>
      <use x="512.890625" xlink:href="#DejaVuSans-49"/>
      <use x="576.513672" xlink:href="#DejaVuSans-50"/>
      <use x="640.136719" xlink:href="#DejaVuSans-120"/>
      <use x="699.316406" xlink:href="#DejaVuSans-50"/>
      <use x="762.939453" xlink:href="#DejaVuSans-53"/>
      <use x="826.5625" xlink:href="#DejaVuSans-54"/>
     </g>
    </g>
    <g id="line2d_29">
     <path d="M 222.194219 69.018281 
L 244.194219 69.018281 
" style="fill:none;stroke:#2ca02c;stroke-linecap:round;stroke-width:1.5;"/>
    </g>
    <g id="line2d_30"/>
    <g id="text_19">
     <!-- 1st FC - SEQ*64 x 512 -->
     <defs>
      <path d="M 53.515625 70.515625 
L 53.515625 60.890625 
Q 47.90625 63.578125 42.921875 64.890625 
Q 37.9375 66.21875 33.296875 66.21875 
Q 25.25 66.21875 20.875 63.09375 
Q 16.5 59.96875 16.5 54.203125 
Q 16.5 49.359375 19.40625 46.890625 
Q 22.3125 44.4375 30.421875 42.921875 
L 36.375 41.703125 
Q 47.40625 39.59375 52.65625 34.296875 
Q 57.90625 29 57.90625 20.125 
Q 57.90625 9.515625 50.796875 4.046875 
Q 43.703125 -1.421875 29.984375 -1.421875 
Q 24.8125 -1.421875 18.96875 -0.25 
Q 13.140625 0.921875 6.890625 3.21875 
L 6.890625 13.375 
Q 12.890625 10.015625 18.65625 8.296875 
Q 24.421875 6.59375 29.984375 6.59375 
Q 38.421875 6.59375 43.015625 9.90625 
Q 47.609375 13.234375 47.609375 19.390625 
Q 47.609375 24.75 44.3125 27.78125 
Q 41.015625 30.8125 33.5 32.328125 
L 27.484375 33.5 
Q 16.453125 35.6875 11.515625 40.375 
Q 6.59375 45.0625 6.59375 53.421875 
Q 6.59375 63.09375 13.40625 68.65625 
Q 20.21875 74.21875 32.171875 74.21875 
Q 37.3125 74.21875 42.625 73.28125 
Q 47.953125 72.359375 53.515625 70.515625 
z
" id="DejaVuSans-83"/>
      <path d="M 39.40625 66.21875 
Q 28.65625 66.21875 22.328125 58.203125 
Q 16.015625 50.203125 16.015625 36.375 
Q 16.015625 22.609375 22.328125 14.59375 
Q 28.65625 6.59375 39.40625 6.59375 
Q 50.140625 6.59375 56.421875 14.59375 
Q 62.703125 22.609375 62.703125 36.375 
Q 62.703125 50.203125 56.421875 58.203125 
Q 50.140625 66.21875 39.40625 66.21875 
z
M 53.21875 1.3125 
L 66.21875 -12.890625 
L 54.296875 -12.890625 
L 43.5 -1.21875 
Q 41.890625 -1.3125 41.03125 -1.359375 
Q 40.1875 -1.421875 39.40625 -1.421875 
Q 24.03125 -1.421875 14.8125 8.859375 
Q 5.609375 19.140625 5.609375 36.375 
Q 5.609375 53.65625 14.8125 63.9375 
Q 24.03125 74.21875 39.40625 74.21875 
Q 54.734375 74.21875 63.90625 63.9375 
Q 73.09375 53.65625 73.09375 36.375 
Q 73.09375 23.6875 67.984375 14.640625 
Q 62.890625 5.609375 53.21875 1.3125 
z
" id="DejaVuSans-81"/>
      <path d="M 47.015625 60.890625 
L 29.5 51.421875 
L 47.015625 41.890625 
L 44.1875 37.109375 
L 27.78125 47.015625 
L 27.78125 28.609375 
L 22.21875 28.609375 
L 22.21875 47.015625 
L 5.8125 37.109375 
L 2.984375 41.890625 
L 20.515625 51.421875 
L 2.984375 60.890625 
L 5.8125 65.71875 
L 22.21875 55.8125 
L 22.21875 74.21875 
L 27.78125 74.21875 
L 27.78125 55.8125 
L 44.1875 65.71875 
z
" id="DejaVuSans-42"/>
     </defs>
     <g style="fill:#262626;" transform="translate(252.994219 72.868281)scale(0.11 -0.11)">
      <use xlink:href="#DejaVuSans-49"/>
      <use x="63.623047" xlink:href="#DejaVuSans-115"/>
      <use x="115.722656" xlink:href="#DejaVuSans-116"/>
      <use x="154.931641" xlink:href="#DejaVuSans-32"/>
      <use x="186.71875" xlink:href="#DejaVuSans-70"/>
      <use x="244.238281" xlink:href="#DejaVuSans-67"/>
      <use x="314.0625" xlink:href="#DejaVuSans-32"/>
      <use x="345.849609" xlink:href="#DejaVuSans-45"/>
      <use x="381.933594" xlink:href="#DejaVuSans-32"/>
      <use x="413.720703" xlink:href="#DejaVuSans-83"/>
      <use x="477.197266" xlink:href="#DejaVuSans-69"/>
      <use x="540.380859" xlink:href="#DejaVuSans-81"/>
      <use x="619.091797" xlink:href="#DejaVuSans-42"/>
      <use x="669.091797" xlink:href="#DejaVuSans-54"/>
      <use x="732.714844" xlink:href="#DejaVuSans-52"/>
      <use x="796.337891" xlink:href="#DejaVuSans-32"/>
      <use x="828.125" xlink:href="#DejaVuSans-120"/>
      <use x="887.304688" xlink:href="#DejaVuSans-32"/>
      <use x="919.091797" xlink:href="#DejaVuSans-53"/>
      <use x="982.714844" xlink:href="#DejaVuSans-49"/>
      <use x="1046.337891" xlink:href="#DejaVuSans-50"/>
     </g>
    </g>
    <g id="line2d_31">
     <path d="M 222.194219 85.164219 
L 244.194219 85.164219 
" style="fill:none;stroke:#d62728;stroke-linecap:round;stroke-width:1.5;"/>
    </g>
    <g id="line2d_32"/>
    <g id="text_20">
     <!-- Reccurent Layer (dim 64) -->
     <defs>
      <path d="M 31 75.875 
Q 24.46875 64.65625 21.28125 53.65625 
Q 18.109375 42.671875 18.109375 31.390625 
Q 18.109375 20.125 21.3125 9.0625 
Q 24.515625 -2 31 -13.1875 
L 23.1875 -13.1875 
Q 15.875 -1.703125 12.234375 9.375 
Q 8.59375 20.453125 8.59375 31.390625 
Q 8.59375 42.28125 12.203125 53.3125 
Q 15.828125 64.359375 23.1875 75.875 
z
" id="DejaVuSans-40"/>
      <path d="M 52 44.1875 
Q 55.375 50.25 60.0625 53.125 
Q 64.75 56 71.09375 56 
Q 79.640625 56 84.28125 50.015625 
Q 88.921875 44.046875 88.921875 33.015625 
L 88.921875 0 
L 79.890625 0 
L 79.890625 32.71875 
Q 79.890625 40.578125 77.09375 44.375 
Q 74.3125 48.1875 68.609375 48.1875 
Q 61.625 48.1875 57.5625 43.546875 
Q 53.515625 38.921875 53.515625 30.90625 
L 53.515625 0 
L 44.484375 0 
L 44.484375 32.71875 
Q 44.484375 40.625 41.703125 44.40625 
Q 38.921875 48.1875 33.109375 48.1875 
Q 26.21875 48.1875 22.15625 43.53125 
Q 18.109375 38.875 18.109375 30.90625 
L 18.109375 0 
L 9.078125 0 
L 9.078125 54.6875 
L 18.109375 54.6875 
L 18.109375 46.1875 
Q 21.1875 51.21875 25.484375 53.609375 
Q 29.78125 56 35.6875 56 
Q 41.65625 56 45.828125 52.96875 
Q 50 49.953125 52 44.1875 
z
" id="DejaVuSans-109"/>
      <path d="M 8.015625 75.875 
L 15.828125 75.875 
Q 23.140625 64.359375 26.78125 53.3125 
Q 30.421875 42.28125 30.421875 31.390625 
Q 30.421875 20.453125 26.78125 9.375 
Q 23.140625 -1.703125 15.828125 -13.1875 
L 8.015625 -13.1875 
Q 14.5 -2 17.703125 9.0625 
Q 20.90625 20.125 20.90625 31.390625 
Q 20.90625 42.671875 17.703125 53.65625 
Q 14.5 64.65625 8.015625 75.875 
z
" id="DejaVuSans-41"/>
     </defs>
     <g style="fill:#262626;" transform="translate(252.994219 89.014219)scale(0.11 -0.11)">
      <use xlink:href="#DejaVuSans-82"/>
      <use x="69.419922" xlink:href="#DejaVuSans-101"/>
      <use x="130.943359" xlink:href="#DejaVuSans-99"/>
      <use x="185.923828" xlink:href="#DejaVuSans-99"/>
      <use x="240.904297" xlink:href="#DejaVuSans-117"/>
      <use x="304.283203" xlink:href="#DejaVuSans-114"/>
      <use x="345.365234" xlink:href="#DejaVuSans-101"/>
      <use x="406.888672" xlink:href="#DejaVuSans-110"/>
      <use x="470.267578" xlink:href="#DejaVuSans-116"/>
      <use x="509.476562" xlink:href="#DejaVuSans-32"/>
      <use x="541.263672" xlink:href="#DejaVuSans-76"/>
      <use x="596.976562" xlink:href="#DejaVuSans-97"/>
      <use x="658.255859" xlink:href="#DejaVuSans-121"/>
      <use x="717.435547" xlink:href="#DejaVuSans-101"/>
      <use x="778.958984" xlink:href="#DejaVuSans-114"/>
      <use x="820.072266" xlink:href="#DejaVuSans-32"/>
      <use x="851.859375" xlink:href="#DejaVuSans-40"/>
      <use x="890.873047" xlink:href="#DejaVuSans-100"/>
      <use x="954.349609" xlink:href="#DejaVuSans-105"/>
      <use x="982.132812" xlink:href="#DejaVuSans-109"/>
      <use x="1079.544922" xlink:href="#DejaVuSans-32"/>
      <use x="1111.332031" xlink:href="#DejaVuSans-54"/>
      <use x="1174.955078" xlink:href="#DejaVuSans-52"/>
      <use x="1238.578125" xlink:href="#DejaVuSans-41"/>
     </g>
    </g>
    <g id="line2d_33">
     <path d="M 222.194219 101.310156 
L 244.194219 101.310156 
" style="fill:none;stroke:#9467bd;stroke-linecap:round;stroke-width:1.5;"/>
    </g>
    <g id="line2d_34"/>
    <g id="text_21">
     <!-- Input Layer -->
     <defs>
      <path d="M 9.8125 72.90625 
L 19.671875 72.90625 
L 19.671875 0 
L 9.8125 0 
z
" id="DejaVuSans-73"/>
     </defs>
     <g style="fill:#262626;" transform="translate(252.994219 105.160156)scale(0.11 -0.11)">
      <use xlink:href="#DejaVuSans-73"/>
      <use x="29.492188" xlink:href="#DejaVuSans-110"/>
      <use x="92.871094" xlink:href="#DejaVuSans-112"/>
      <use x="156.347656" xlink:href="#DejaVuSans-117"/>
      <use x="219.726562" xlink:href="#DejaVuSans-116"/>
      <use x="258.935547" xlink:href="#DejaVuSans-32"/>
      <use x="290.722656" xlink:href="#DejaVuSans-76"/>
      <use x="346.435547" xlink:href="#DejaVuSans-97"/>
      <use x="407.714844" xlink:href="#DejaVuSans-121"/>
      <use x="466.894531" xlink:href="#DejaVuSans-101"/>
      <use x="528.417969" xlink:href="#DejaVuSans-114"/>
     </g>
    </g>
   </g>
  </g>
 </g>
 <defs>
  <clipPath id="p0a5f49ec84">
   <rect height="266.112" width="357.12" x="46.31125" y="22.318125"/>
  </clipPath>
 </defs>
</svg>
