<?xml version="1.0" encoding="utf-8" standalone="no"?>
<!DOCTYPE svg PUBLIC "-//W3C//DTD SVG 1.1//EN"
  "http://www.w3.org/Graphics/SVG/1.1/DTD/svg11.dtd">
<!-- Created with matplotlib (https://matplotlib.org/) -->
<svg height="315.776062pt" version="1.1" viewBox="0 0 398.513437 315.776062" width="398.513437pt" xmlns="http://www.w3.org/2000/svg" xmlns:xlink="http://www.w3.org/1999/xlink">
 <defs>
  <style type="text/css">
*{stroke-linecap:butt;stroke-linejoin:round;}
  </style>
 </defs>
 <g id="figure_1">
  <g id="patch_1">
   <path d="M 0 315.776062 
L 398.513437 315.776062 
L 398.513437 0 
L 0 0 
z
" style="fill:#ffffff;"/>
  </g>
  <g id="axes_1">
   <g id="patch_2">
    <path d="M 34.193438 288.430125 
L 391.313438 288.430125 
L 391.313438 22.318125 
L 34.193438 22.318125 
z
" style="fill:#eaeaf2;"/>
   </g>
   <g id="matplotlib.axis_1">
    <g id="xtick_1">
     <g id="line2d_1">
      <path clip-path="url(#pa775d5eb7f)" d="M 50.426165 288.430125 
L 50.426165 22.318125 
" style="fill:none;stroke:#ffffff;stroke-linecap:round;"/>
     </g>
     <g id="text_1">
      <!-- 0 -->
      <defs>
       <path d="M 31.78125 66.40625 
Q 24.171875 66.40625 20.328125 58.90625 
Q 16.5 51.421875 16.5 36.375 
Q 16.5 21.390625 20.328125 13.890625 
Q 24.171875 6.390625 31.78125 6.390625 
Q 39.453125 6.390625 43.28125 13.890625 
Q 47.125 21.390625 47.125 36.375 
Q 47.125 51.421875 43.28125 58.90625 
Q 39.453125 66.40625 31.78125 66.40625 
z
M 31.78125 74.21875 
Q 44.046875 74.21875 50.515625 64.515625 
Q 56.984375 54.828125 56.984375 36.375 
Q 56.984375 17.96875 50.515625 8.265625 
Q 44.046875 -1.421875 31.78125 -1.421875 
Q 19.53125 -1.421875 13.0625 8.265625 
Q 6.59375 17.96875 6.59375 36.375 
Q 6.59375 54.828125 13.0625 64.515625 
Q 19.53125 74.21875 31.78125 74.21875 
z
" id="DejaVuSans-48"/>
      </defs>
      <g style="fill:#262626;" transform="translate(46.92679 306.288406)scale(0.11 -0.11)">
       <use xlink:href="#DejaVuSans-48"/>
      </g>
     </g>
    </g>
    <g id="xtick_2">
     <g id="line2d_2">
      <path clip-path="url(#pa775d5eb7f)" d="M 116.012942 288.430125 
L 116.012942 22.318125 
" style="fill:none;stroke:#ffffff;stroke-linecap:round;"/>
     </g>
     <g id="text_2">
      <!-- 20 -->
      <defs>
       <path d="M 19.1875 8.296875 
L 53.609375 8.296875 
L 53.609375 0 
L 7.328125 0 
L 7.328125 8.296875 
Q 12.9375 14.109375 22.625 23.890625 
Q 32.328125 33.6875 34.8125 36.53125 
Q 39.546875 41.84375 41.421875 45.53125 
Q 43.3125 49.21875 43.3125 52.78125 
Q 43.3125 58.59375 39.234375 62.25 
Q 35.15625 65.921875 28.609375 65.921875 
Q 23.96875 65.921875 18.8125 64.3125 
Q 13.671875 62.703125 7.8125 59.421875 
L 7.8125 69.390625 
Q 13.765625 71.78125 18.9375 73 
Q 24.125 74.21875 28.421875 74.21875 
Q 39.75 74.21875 46.484375 68.546875 
Q 53.21875 62.890625 53.21875 53.421875 
Q 53.21875 48.921875 51.53125 44.890625 
Q 49.859375 40.875 45.40625 35.40625 
Q 44.1875 33.984375 37.640625 27.21875 
Q 31.109375 20.453125 19.1875 8.296875 
z
" id="DejaVuSans-50"/>
      </defs>
      <g style="fill:#262626;" transform="translate(109.014192 306.288406)scale(0.11 -0.11)">
       <use xlink:href="#DejaVuSans-50"/>
       <use x="63.623047" xlink:href="#DejaVuSans-48"/>
      </g>
     </g>
    </g>
    <g id="xtick_3">
     <g id="line2d_3">
      <path clip-path="url(#pa775d5eb7f)" d="M 181.599718 288.430125 
L 181.599718 22.318125 
" style="fill:none;stroke:#ffffff;stroke-linecap:round;"/>
     </g>
     <g id="text_3">
      <!-- 40 -->
      <defs>
       <path d="M 37.796875 64.3125 
L 12.890625 25.390625 
L 37.796875 25.390625 
z
M 35.203125 72.90625 
L 47.609375 72.90625 
L 47.609375 25.390625 
L 58.015625 25.390625 
L 58.015625 17.1875 
L 47.609375 17.1875 
L 47.609375 0 
L 37.796875 0 
L 37.796875 17.1875 
L 4.890625 17.1875 
L 4.890625 26.703125 
z
" id="DejaVuSans-52"/>
      </defs>
      <g style="fill:#262626;" transform="translate(174.600968 306.288406)scale(0.11 -0.11)">
       <use xlink:href="#DejaVuSans-52"/>
       <use x="63.623047" xlink:href="#DejaVuSans-48"/>
      </g>
     </g>
    </g>
    <g id="xtick_4">
     <g id="line2d_4">
      <path clip-path="url(#pa775d5eb7f)" d="M 247.186495 288.430125 
L 247.186495 22.318125 
" style="fill:none;stroke:#ffffff;stroke-linecap:round;"/>
     </g>
     <g id="text_4">
      <!-- 60 -->
      <defs>
       <path d="M 33.015625 40.375 
Q 26.375 40.375 22.484375 35.828125 
Q 18.609375 31.296875 18.609375 23.390625 
Q 18.609375 15.53125 22.484375 10.953125 
Q 26.375 6.390625 33.015625 6.390625 
Q 39.65625 6.390625 43.53125 10.953125 
Q 47.40625 15.53125 47.40625 23.390625 
Q 47.40625 31.296875 43.53125 35.828125 
Q 39.65625 40.375 33.015625 40.375 
z
M 52.59375 71.296875 
L 52.59375 62.3125 
Q 48.875 64.0625 45.09375 64.984375 
Q 41.3125 65.921875 37.59375 65.921875 
Q 27.828125 65.921875 22.671875 59.328125 
Q 17.53125 52.734375 16.796875 39.40625 
Q 19.671875 43.65625 24.015625 45.921875 
Q 28.375 48.1875 33.59375 48.1875 
Q 44.578125 48.1875 50.953125 41.515625 
Q 57.328125 34.859375 57.328125 23.390625 
Q 57.328125 12.15625 50.6875 5.359375 
Q 44.046875 -1.421875 33.015625 -1.421875 
Q 20.359375 -1.421875 13.671875 8.265625 
Q 6.984375 17.96875 6.984375 36.375 
Q 6.984375 53.65625 15.1875 63.9375 
Q 23.390625 74.21875 37.203125 74.21875 
Q 40.921875 74.21875 44.703125 73.484375 
Q 48.484375 72.75 52.59375 71.296875 
z
" id="DejaVuSans-54"/>
      </defs>
      <g style="fill:#262626;" transform="translate(240.187745 306.288406)scale(0.11 -0.11)">
       <use xlink:href="#DejaVuSans-54"/>
       <use x="63.623047" xlink:href="#DejaVuSans-48"/>
      </g>
     </g>
    </g>
    <g id="xtick_5">
     <g id="line2d_5">
      <path clip-path="url(#pa775d5eb7f)" d="M 312.773272 288.430125 
L 312.773272 22.318125 
" style="fill:none;stroke:#ffffff;stroke-linecap:round;"/>
     </g>
     <g id="text_5">
      <!-- 80 -->
      <defs>
       <path d="M 31.78125 34.625 
Q 24.75 34.625 20.71875 30.859375 
Q 16.703125 27.09375 16.703125 20.515625 
Q 16.703125 13.921875 20.71875 10.15625 
Q 24.75 6.390625 31.78125 6.390625 
Q 38.8125 6.390625 42.859375 10.171875 
Q 46.921875 13.96875 46.921875 20.515625 
Q 46.921875 27.09375 42.890625 30.859375 
Q 38.875 34.625 31.78125 34.625 
z
M 21.921875 38.8125 
Q 15.578125 40.375 12.03125 44.71875 
Q 8.5 49.078125 8.5 55.328125 
Q 8.5 64.0625 14.71875 69.140625 
Q 20.953125 74.21875 31.78125 74.21875 
Q 42.671875 74.21875 48.875 69.140625 
Q 55.078125 64.0625 55.078125 55.328125 
Q 55.078125 49.078125 51.53125 44.71875 
Q 48 40.375 41.703125 38.8125 
Q 48.828125 37.15625 52.796875 32.3125 
Q 56.78125 27.484375 56.78125 20.515625 
Q 56.78125 9.90625 50.3125 4.234375 
Q 43.84375 -1.421875 31.78125 -1.421875 
Q 19.734375 -1.421875 13.25 4.234375 
Q 6.78125 9.90625 6.78125 20.515625 
Q 6.78125 27.484375 10.78125 32.3125 
Q 14.796875 37.15625 21.921875 38.8125 
z
M 18.3125 54.390625 
Q 18.3125 48.734375 21.84375 45.5625 
Q 25.390625 42.390625 31.78125 42.390625 
Q 38.140625 42.390625 41.71875 45.5625 
Q 45.3125 48.734375 45.3125 54.390625 
Q 45.3125 60.0625 41.71875 63.234375 
Q 38.140625 66.40625 31.78125 66.40625 
Q 25.390625 66.40625 21.84375 63.234375 
Q 18.3125 60.0625 18.3125 54.390625 
z
" id="DejaVuSans-56"/>
      </defs>
      <g style="fill:#262626;" transform="translate(305.774522 306.288406)scale(0.11 -0.11)">
       <use xlink:href="#DejaVuSans-56"/>
       <use x="63.623047" xlink:href="#DejaVuSans-48"/>
      </g>
     </g>
    </g>
    <g id="xtick_6">
     <g id="line2d_6">
      <path clip-path="url(#pa775d5eb7f)" d="M 378.360049 288.430125 
L 378.360049 22.318125 
" style="fill:none;stroke:#ffffff;stroke-linecap:round;"/>
     </g>
     <g id="text_6">
      <!-- 100 -->
      <defs>
       <path d="M 12.40625 8.296875 
L 28.515625 8.296875 
L 28.515625 63.921875 
L 10.984375 60.40625 
L 10.984375 69.390625 
L 28.421875 72.90625 
L 38.28125 72.90625 
L 38.28125 8.296875 
L 54.390625 8.296875 
L 54.390625 0 
L 12.40625 0 
z
" id="DejaVuSans-49"/>
      </defs>
      <g style="fill:#262626;" transform="translate(367.861924 306.288406)scale(0.11 -0.11)">
       <use xlink:href="#DejaVuSans-49"/>
       <use x="63.623047" xlink:href="#DejaVuSans-48"/>
       <use x="127.246094" xlink:href="#DejaVuSans-48"/>
      </g>
     </g>
    </g>
   </g>
   <g id="matplotlib.axis_2">
    <g id="ytick_1">
     <g id="line2d_7">
      <path clip-path="url(#pa775d5eb7f)" d="M 34.193438 256.81789 
L 391.313438 256.81789 
" style="fill:none;stroke:#ffffff;stroke-linecap:round;"/>
     </g>
     <g id="text_7">
      <!-- 0.2 -->
      <defs>
       <path d="M 10.6875 12.40625 
L 21 12.40625 
L 21 0 
L 10.6875 0 
z
" id="DejaVuSans-46"/>
      </defs>
      <g style="fill:#262626;" transform="translate(7.2 260.99703)scale(0.11 -0.11)">
       <use xlink:href="#DejaVuSans-48"/>
       <use x="63.623047" xlink:href="#DejaVuSans-46"/>
       <use x="95.410156" xlink:href="#DejaVuSans-50"/>
      </g>
     </g>
    </g>
    <g id="ytick_2">
     <g id="line2d_8">
      <path clip-path="url(#pa775d5eb7f)" d="M 34.193438 221.648007 
L 391.313438 221.648007 
" style="fill:none;stroke:#ffffff;stroke-linecap:round;"/>
     </g>
     <g id="text_8">
      <!-- 0.3 -->
      <defs>
       <path d="M 40.578125 39.3125 
Q 47.65625 37.796875 51.625 33 
Q 55.609375 28.21875 55.609375 21.1875 
Q 55.609375 10.40625 48.1875 4.484375 
Q 40.765625 -1.421875 27.09375 -1.421875 
Q 22.515625 -1.421875 17.65625 -0.515625 
Q 12.796875 0.390625 7.625 2.203125 
L 7.625 11.71875 
Q 11.71875 9.328125 16.59375 8.109375 
Q 21.484375 6.890625 26.8125 6.890625 
Q 36.078125 6.890625 40.9375 10.546875 
Q 45.796875 14.203125 45.796875 21.1875 
Q 45.796875 27.640625 41.28125 31.265625 
Q 36.765625 34.90625 28.71875 34.90625 
L 20.21875 34.90625 
L 20.21875 43.015625 
L 29.109375 43.015625 
Q 36.375 43.015625 40.234375 45.921875 
Q 44.09375 48.828125 44.09375 54.296875 
Q 44.09375 59.90625 40.109375 62.90625 
Q 36.140625 65.921875 28.71875 65.921875 
Q 24.65625 65.921875 20.015625 65.03125 
Q 15.375 64.15625 9.8125 62.3125 
L 9.8125 71.09375 
Q 15.4375 72.65625 20.34375 73.4375 
Q 25.25 74.21875 29.59375 74.21875 
Q 40.828125 74.21875 47.359375 69.109375 
Q 53.90625 64.015625 53.90625 55.328125 
Q 53.90625 49.265625 50.4375 45.09375 
Q 46.96875 40.921875 40.578125 39.3125 
z
" id="DejaVuSans-51"/>
      </defs>
      <g style="fill:#262626;" transform="translate(7.2 225.827148)scale(0.11 -0.11)">
       <use xlink:href="#DejaVuSans-48"/>
       <use x="63.623047" xlink:href="#DejaVuSans-46"/>
       <use x="95.410156" xlink:href="#DejaVuSans-51"/>
      </g>
     </g>
    </g>
    <g id="ytick_3">
     <g id="line2d_9">
      <path clip-path="url(#pa775d5eb7f)" d="M 34.193438 186.478125 
L 391.313438 186.478125 
" style="fill:none;stroke:#ffffff;stroke-linecap:round;"/>
     </g>
     <g id="text_9">
      <!-- 0.4 -->
      <g style="fill:#262626;" transform="translate(7.2 190.657266)scale(0.11 -0.11)">
       <use xlink:href="#DejaVuSans-48"/>
       <use x="63.623047" xlink:href="#DejaVuSans-46"/>
       <use x="95.410156" xlink:href="#DejaVuSans-52"/>
      </g>
     </g>
    </g>
    <g id="ytick_4">
     <g id="line2d_10">
      <path clip-path="url(#pa775d5eb7f)" d="M 34.193438 151.308243 
L 391.313438 151.308243 
" style="fill:none;stroke:#ffffff;stroke-linecap:round;"/>
     </g>
     <g id="text_10">
      <!-- 0.5 -->
      <defs>
       <path d="M 10.796875 72.90625 
L 49.515625 72.90625 
L 49.515625 64.59375 
L 19.828125 64.59375 
L 19.828125 46.734375 
Q 21.96875 47.46875 24.109375 47.828125 
Q 26.265625 48.1875 28.421875 48.1875 
Q 40.625 48.1875 47.75 41.5 
Q 54.890625 34.8125 54.890625 23.390625 
Q 54.890625 11.625 47.5625 5.09375 
Q 40.234375 -1.421875 26.90625 -1.421875 
Q 22.3125 -1.421875 17.546875 -0.640625 
Q 12.796875 0.140625 7.71875 1.703125 
L 7.71875 11.625 
Q 12.109375 9.234375 16.796875 8.0625 
Q 21.484375 6.890625 26.703125 6.890625 
Q 35.15625 6.890625 40.078125 11.328125 
Q 45.015625 15.765625 45.015625 23.390625 
Q 45.015625 31 40.078125 35.4375 
Q 35.15625 39.890625 26.703125 39.890625 
Q 22.75 39.890625 18.8125 39.015625 
Q 14.890625 38.140625 10.796875 36.28125 
z
" id="DejaVuSans-53"/>
      </defs>
      <g style="fill:#262626;" transform="translate(7.2 155.487383)scale(0.11 -0.11)">
       <use xlink:href="#DejaVuSans-48"/>
       <use x="63.623047" xlink:href="#DejaVuSans-46"/>
       <use x="95.410156" xlink:href="#DejaVuSans-53"/>
      </g>
     </g>
    </g>
    <g id="ytick_5">
     <g id="line2d_11">
      <path clip-path="url(#pa775d5eb7f)" d="M 34.193438 116.13836 
L 391.313438 116.13836 
" style="fill:none;stroke:#ffffff;stroke-linecap:round;"/>
     </g>
     <g id="text_11">
      <!-- 0.6 -->
      <g style="fill:#262626;" transform="translate(7.2 120.317501)scale(0.11 -0.11)">
       <use xlink:href="#DejaVuSans-48"/>
       <use x="63.623047" xlink:href="#DejaVuSans-46"/>
       <use x="95.410156" xlink:href="#DejaVuSans-54"/>
      </g>
     </g>
    </g>
    <g id="ytick_6">
     <g id="line2d_12">
      <path clip-path="url(#pa775d5eb7f)" d="M 34.193438 80.968478 
L 391.313438 80.968478 
" style="fill:none;stroke:#ffffff;stroke-linecap:round;"/>
     </g>
     <g id="text_12">
      <!-- 0.7 -->
      <defs>
       <path d="M 8.203125 72.90625 
L 55.078125 72.90625 
L 55.078125 68.703125 
L 28.609375 0 
L 18.3125 0 
L 43.21875 64.59375 
L 8.203125 64.59375 
z
" id="DejaVuSans-55"/>
      </defs>
      <g style="fill:#262626;" transform="translate(7.2 85.147619)scale(0.11 -0.11)">
       <use xlink:href="#DejaVuSans-48"/>
       <use x="63.623047" xlink:href="#DejaVuSans-46"/>
       <use x="95.410156" xlink:href="#DejaVuSans-55"/>
      </g>
     </g>
    </g>
    <g id="ytick_7">
     <g id="line2d_13">
      <path clip-path="url(#pa775d5eb7f)" d="M 34.193438 45.798596 
L 391.313438 45.798596 
" style="fill:none;stroke:#ffffff;stroke-linecap:round;"/>
     </g>
     <g id="text_13">
      <!-- 0.8 -->
      <g style="fill:#262626;" transform="translate(7.2 49.977736)scale(0.11 -0.11)">
       <use xlink:href="#DejaVuSans-48"/>
       <use x="63.623047" xlink:href="#DejaVuSans-46"/>
       <use x="95.410156" xlink:href="#DejaVuSans-56"/>
      </g>
     </g>
    </g>
   </g>
   <g id="PolyCollection_1">
    <defs>
     <path d="M 50.426165 -61.80429 
L 50.426165 -55.705467 
L 53.705504 -55.705467 
L 56.984842 -58.551585 
L 60.264181 -58.551585 
L 63.54352 -57.33182 
L 66.822859 -58.144996 
L 70.102198 -78.870832 
L 73.381537 -83.760055 
L 76.660876 -89.858879 
L 79.940214 -92.704996 
L 83.219553 -104.089467 
L 86.498892 -116.287114 
L 89.778231 -134.166832 
L 93.05757 -142.308761 
L 96.336909 -150.847114 
L 99.616247 -160.605232 
L 102.895586 -182.967585 
L 106.174925 -191.505938 
L 109.454264 -200.857467 
L 112.733603 -206.95629 
L 116.012942 -208.582643 
L 119.29228 -208.582643 
L 122.571619 -207.362879 
L 125.850958 -210.615585 
L 129.130297 -215.494643 
L 132.409636 -218.340761 
L 135.688975 -222.406643 
L 138.968314 -222.813232 
L 142.247652 -224.846173 
L 145.526991 -226.868949 
L 148.80633 -226.879114 
L 152.085669 -229.725232 
L 155.365008 -229.725232 
L 158.644347 -228.912055 
L 161.923685 -229.318643 
L 165.203024 -229.725232 
L 168.482363 -230.944996 
L 171.761702 -231.351585 
L 175.041041 -231.748008 
L 178.32038 -235.417467 
L 181.599718 -235.824055 
L 184.879057 -238.670173 
L 188.158396 -239.076761 
L 191.437735 -239.889938 
L 194.717074 -239.076761 
L 197.996413 -243.142643 
L 201.275752 -240.296526 
L 204.55509 -245.988761 
L 207.834429 -242.329467 
L 211.113768 -245.582173 
L 214.393107 -247.615114 
L 217.672446 -251.680996 
L 220.951785 -254.120526 
L 224.231123 -254.527114 
L 227.510462 -255.34029 
L 230.789801 -254.527114 
L 234.06914 -255.34029 
L 237.348479 -255.746879 
L 240.627818 -255.34029 
L 243.907157 -255.746879 
L 247.186495 -256.54989 
L 250.465834 -256.966643 
L 253.745173 -257.77982 
L 257.024512 -259.812761 
L 260.303851 -260.219349 
L 263.58319 -261.845702 
L 266.862528 -263.065467 
L 270.141867 -261.439114 
L 273.421206 -264.285232 
L 276.700545 -263.472055 
L 279.979884 -262.25229 
L 283.259223 -265.098408 
L 286.538561 -264.285232 
L 289.8179 -266.318173 
L 293.097239 -265.098408 
L 296.376578 -263.472055 
L 299.655917 -265.504996 
L 302.935256 -263.472055 
L 306.214595 -264.69182 
L 309.493933 -264.285232 
L 312.773272 -264.285232 
L 316.052611 -263.46189 
L 319.33195 -266.318173 
L 322.611289 -266.724761 
L 325.890628 -266.724761 
L 329.169966 -267.944526 
L 332.449305 -268.351114 
L 335.728644 -267.537937 
L 339.007983 -269.154126 
L 342.287322 -268.757702 
L 345.566661 -270.790643 
L 348.845999 -271.60382 
L 352.125338 -270.384055 
L 355.404677 -271.197232 
L 358.684016 -269.570879 
L 361.963355 -272.010408 
L 365.242694 -269.16429 
L 368.522033 -269.570879 
L 371.801371 -270.384055 
L 375.08071 -270.790643 
L 375.08071 -280.955349 
L 375.08071 -280.955349 
L 371.801371 -280.955349 
L 368.522033 -281.361938 
L 365.242694 -279.735585 
L 361.963355 -279.328996 
L 358.684016 -277.702643 
L 355.404677 -277.702643 
L 352.125338 -277.702643 
L 348.845999 -277.296055 
L 345.566661 -277.296055 
L 342.287322 -277.702643 
L 339.007983 -276.482879 
L 335.728644 -276.07629 
L 332.449305 -274.449937 
L 329.169966 -272.823585 
L 325.890628 -275.263114 
L 322.611289 -274.043349 
L 319.33195 -275.669702 
L 316.052611 -272.823585 
L 312.773272 -272.010408 
L 309.493933 -273.646926 
L 306.214595 -273.636761 
L 302.935256 -272.823585 
L 299.655917 -274.449937 
L 296.376578 -274.043349 
L 293.097239 -273.636761 
L 289.8179 -274.856526 
L 286.538561 -271.60382 
L 283.259223 -273.230173 
L 279.979884 -272.416996 
L 276.700545 -273.230173 
L 273.421206 -272.010408 
L 270.141867 -271.197232 
L 266.862528 -271.60382 
L 263.58319 -271.197232 
L 260.303851 -272.416996 
L 257.024512 -272.823585 
L 253.745173 -273.230173 
L 250.465834 -269.16429 
L 247.186495 -271.197232 
L 243.907157 -268.757702 
L 240.627818 -268.351114 
L 237.348479 -267.95469 
L 234.06914 -266.724761 
L 230.789801 -267.131349 
L 227.510462 -266.318173 
L 224.231123 -267.944526 
L 220.951785 -264.69182 
L 217.672446 -260.239679 
L 214.393107 -260.219349 
L 211.113768 -259.812761 
L 207.834429 -254.527114 
L 204.55509 -256.153467 
L 201.275752 -253.713938 
L 197.996413 -252.087585 
L 194.717074 -249.648055 
L 191.437735 -248.834879 
L 188.158396 -248.42829 
L 184.879057 -248.42829 
L 181.599718 -246.395349 
L 178.32038 -243.549232 
L 175.041041 -243.142643 
L 171.761702 -244.362408 
L 168.482363 -243.95582 
L 165.203024 -242.736055 
L 161.923685 -241.51629 
L 158.644347 -241.51629 
L 155.365008 -239.076761 
L 152.085669 -237.450408 
L 148.80633 -235.417467 
L 145.526991 -233.384526 
L 142.247652 -233.384526 
L 138.968314 -231.351585 
L 135.688975 -232.977937 
L 132.409636 -231.758173 
L 129.130297 -231.351585 
L 125.850958 -232.581514 
L 122.571619 -229.745561 
L 119.29228 -228.098879 
L 116.012942 -227.285702 
L 112.733603 -217.934173 
L 109.454264 -215.088055 
L 106.174925 -205.329938 
L 102.895586 -207.362879 
L 99.616247 -201.670643 
L 96.336909 -187.440055 
L 93.05757 -178.108855 
L 89.778231 -152.066879 
L 86.498892 -136.616526 
L 83.219553 -121.166173 
L 79.940214 -113.034408 
L 76.660876 -107.748761 
L 73.381537 -97.990643 
L 70.102198 -87.825938 
L 66.822859 -80.913937 
L 63.54352 -78.474408 
L 60.264181 -82.946879 
L 56.984842 -78.06782 
L 53.705504 -80.100761 
L 50.426165 -61.80429 
z
" id="me4ee6b63ad" style="stroke:#4c72b0;stroke-opacity:0.2;"/>
    </defs>
    <g clip-path="url(#pa775d5eb7f)">
     <use style="fill:#4c72b0;fill-opacity:0.2;stroke:#4c72b0;stroke-opacity:0.2;" x="0" xlink:href="#me4ee6b63ad" y="315.776062"/>
    </g>
   </g>
   <g id="PolyCollection_2">
    <defs>
     <path d="M 50.426165 -59.364761 
L 50.426165 -39.441938 
L 53.705504 -46.353938 
L 56.984842 -48.386879 
L 60.264181 -49.606643 
L 63.54352 -56.518643 
L 66.822859 -76.441467 
L 70.102198 -79.287585 
L 73.381537 -80.507349 
L 76.660876 -91.89182 
L 79.940214 -104.902643 
L 83.219553 -108.968526 
L 86.498892 -113.440996 
L 89.778231 -116.287114 
L 93.05757 -122.792526 
L 96.336909 -126.45182 
L 99.616247 -132.957232 
L 102.895586 -138.242879 
L 106.174925 -151.253702 
L 109.454264 -155.726173 
L 112.733603 -165.463961 
L 116.012942 -167.92382 
L 119.29228 -167.92382 
L 122.571619 -174.429232 
L 125.850958 -189.879585 
L 129.130297 -200.857467 
L 132.409636 -207.769467 
L 135.688975 -207.362879 
L 138.968314 -207.362879 
L 142.247652 -213.461702 
L 145.526991 -214.681467 
L 148.80633 -213.055114 
L 152.085669 -212.648526 
L 155.365008 -214.681467 
L 158.644347 -215.088055 
L 161.923685 -215.901232 
L 165.203024 -219.967114 
L 168.482363 -218.747349 
L 171.761702 -222.406643 
L 175.041041 -222.813232 
L 178.32038 -222.813232 
L 181.599718 -225.659349 
L 184.879057 -226.472526 
L 188.158396 -227.285702 
L 191.437735 -226.472526 
L 194.717074 -226.84862 
L 197.996413 -227.661796 
L 201.275752 -228.912055 
L 204.55509 -228.098879 
L 207.834429 -228.098879 
L 211.113768 -230.538408 
L 214.393107 -230.944996 
L 217.672446 -231.758173 
L 220.951785 -233.791114 
L 224.231123 -233.384526 
L 227.510462 -235.000714 
L 230.789801 -235.010879 
L 234.06914 -235.417467 
L 237.348479 -235.417467 
L 240.627818 -236.637232 
L 243.907157 -236.637232 
L 247.186495 -238.263585 
L 250.465834 -238.660008 
L 253.745173 -239.076761 
L 257.024512 -237.856996 
L 260.303851 -238.670173 
L 263.58319 -240.296526 
L 266.862528 -240.296526 
L 270.141867 -238.25342 
L 273.421206 -241.51629 
L 276.700545 -243.95582 
L 279.979884 -244.768996 
L 283.259223 -245.16542 
L 286.538561 -241.922879 
L 289.8179 -247.167867 
L 293.097239 -246.801938 
L 296.376578 -245.572008 
L 299.655917 -254.425467 
L 302.935256 -250.86782 
L 306.214595 -250.86782 
L 309.493933 -250.86782 
L 312.773272 -250.86782 
L 316.052611 -251.376055 
L 319.33195 -251.376055 
L 322.611289 -251.376055 
L 325.890628 -253.917232 
L 329.169966 -254.425467 
L 332.449305 -254.933702 
L 335.728644 -254.90829 
L 339.007983 -256.966643 
L 342.287322 -256.966643 
L 345.566661 -255.950173 
L 348.845999 -256.966643 
L 352.125338 -256.966643 
L 355.404677 -256.966643 
L 358.684016 -256.966643 
L 361.963355 -258.999585 
L 365.242694 -258.999585 
L 368.522033 -257.983114 
L 371.801371 -257.983114 
L 375.08071 -258.999585 
L 375.08071 -279.328996 
L 375.08071 -279.328996 
L 371.801371 -277.296055 
L 368.522033 -278.820761 
L 365.242694 -278.820761 
L 361.963355 -277.296055 
L 358.684016 -277.296055 
L 355.404677 -275.771349 
L 352.125338 -275.263114 
L 348.845999 -273.738408 
L 345.566661 -276.78782 
L 342.287322 -273.738408 
L 339.007983 -275.263114 
L 335.728644 -273.738408 
L 332.449305 -274.754879 
L 329.169966 -275.27582 
L 325.890628 -272.213702 
L 322.611289 -273.738408 
L 319.33195 -275.771349 
L 316.052611 -275.263114 
L 312.773272 -275.263114 
L 309.493933 -275.263114 
L 306.214595 -268.656055 
L 302.935256 -272.213702 
L 299.655917 -270.688996 
L 296.376578 -267.131349 
L 293.097239 -266.724761 
L 289.8179 -267.131349 
L 286.538561 -265.098408 
L 283.259223 -266.724761 
L 279.979884 -265.515161 
L 276.700545 -265.911585 
L 273.421206 -264.69182 
L 270.141867 -265.911585 
L 266.862528 -262.25229 
L 263.58319 -262.25229 
L 260.303851 -260.625938 
L 257.024512 -258.999585 
L 253.745173 -258.592996 
L 250.465834 -256.966643 
L 247.186495 -260.219349 
L 243.907157 -254.567773 
L 240.627818 -253.713937 
L 237.348479 -253.713937 
L 234.06914 -253.307349 
L 230.789801 -255.746879 
L 227.510462 -254.120526 
L 224.231123 -253.713938 
L 220.951785 -251.680996 
L 217.672446 -249.648055 
L 214.393107 -252.087585 
L 211.113768 -251.680996 
L 207.834429 -249.648055 
L 204.55509 -251.274408 
L 201.275752 -250.461232 
L 197.996413 -246.405514 
L 194.717074 -246.395349 
L 191.437735 -245.582173 
L 188.158396 -247.208526 
L 184.879057 -246.801937 
L 181.599718 -242.329467 
L 178.32038 -241.119867 
L 175.041041 -243.142643 
L 171.761702 -242.329467 
L 168.482363 -242.736055 
L 165.203024 -239.483349 
L 161.923685 -236.637232 
L 158.644347 -236.230643 
L 155.365008 -231.351585 
L 152.085669 -232.174926 
L 148.80633 -230.538408 
L 145.526991 -229.318643 
L 142.247652 -227.69229 
L 138.968314 -219.560526 
L 135.688975 -219.560526 
L 132.409636 -217.934173 
L 129.130297 -217.527585 
L 125.850958 -217.527585 
L 122.571619 -214.681467 
L 119.29228 -213.86829 
L 116.012942 -211.428761 
L 112.733603 -213.461702 
L 109.454264 -200.04429 
L 106.174925 -195.57182 
L 102.895586 -184.593938 
L 99.616247 -165.077702 
L 96.336909 -153.286643 
L 93.05757 -139.056055 
L 89.778231 -128.891349 
L 86.498892 -118.320055 
L 83.219553 -111.408055 
L 79.940214 -110.18829 
L 76.660876 -102.463114 
L 73.381537 -97.990643 
L 70.102198 -96.770879 
L 66.822859 -93.934926 
L 63.54352 -79.694173 
L 60.264181 -78.880996 
L 56.984842 -76.848055 
L 53.705504 -70.749232 
L 50.426165 -59.364761 
z
" id="mf86195097a" style="stroke:#c44e52;stroke-opacity:0.2;"/>
    </defs>
    <g clip-path="url(#pa775d5eb7f)">
     <use style="fill:#c44e52;fill-opacity:0.2;stroke:#c44e52;stroke-opacity:0.2;" x="0" xlink:href="#mf86195097a" y="315.776062"/>
    </g>
   </g>
   <g id="line2d_14">
    <path clip-path="url(#pa775d5eb7f)" d="M 50.426165 256.004713 
L 53.705504 247.059772 
L 56.984842 247.46636 
L 60.264181 243.807066 
L 63.54352 246.246596 
L 66.822859 243.400478 
L 70.102198 232.016007 
L 73.381537 224.290831 
L 76.660876 216.565654 
L 79.940214 212.093184 
L 83.219553 201.115301 
L 86.498892 189.324243 
L 89.778231 173.467301 
L 93.05757 155.170831 
L 96.336909 146.632478 
L 99.616247 135.248007 
L 102.895586 120.610831 
L 106.174925 117.358125 
L 109.454264 107.193419 
L 112.733603 103.534125 
L 116.012942 97.84189 
L 119.29228 96.215537 
L 122.571619 97.435301 
L 125.850958 94.589184 
L 129.130297 92.962831 
L 132.409636 90.523301 
L 135.688975 88.896949 
L 138.968314 88.896949 
L 142.247652 86.457419 
L 145.526991 85.644243 
L 148.80633 84.424478 
L 152.085669 81.984949 
L 155.365008 81.171772 
L 158.644347 81.171772 
L 161.923685 80.765184 
L 165.203024 79.545419 
L 168.482363 78.325654 
L 171.761702 77.10589 
L 175.041041 78.325654 
L 178.32038 76.292713 
L 181.599718 74.259772 
L 184.879057 71.820243 
L 188.158396 71.820243 
L 191.437735 71.820243 
L 194.717074 71.007066 
L 197.996413 68.567537 
L 201.275752 68.567537 
L 204.55509 65.314831 
L 207.834429 66.941184 
L 211.113768 63.688478 
L 214.393107 62.468713 
L 217.672446 59.622596 
L 220.951785 57.589654 
L 224.231123 55.963301 
L 227.510462 56.36989 
L 230.789801 55.963301 
L 234.06914 55.556713 
L 237.348479 53.93036 
L 240.627818 54.336949 
L 243.907157 53.523772 
L 247.186495 52.710596 
L 250.465834 52.710596 
L 253.745173 50.677654 
L 257.024512 49.45789 
L 260.303851 49.45789 
L 263.58319 49.45789 
L 266.862528 49.051301 
L 270.141867 49.864478 
L 273.421206 48.238125 
L 276.700545 47.831537 
L 279.979884 48.644713 
L 283.259223 47.424949 
L 286.538561 48.238125 
L 289.8179 46.205184 
L 293.097239 47.831537 
L 296.376578 47.831537 
L 299.655917 46.611772 
L 302.935256 48.238125 
L 306.214595 47.424949 
L 309.493933 47.831537 
L 312.773272 48.238125 
L 316.052611 48.238125 
L 319.33195 45.798596 
L 322.611289 45.798596 
L 325.890628 45.392007 
L 329.169966 45.798596 
L 332.449305 44.578831 
L 335.728644 44.172243 
L 339.007983 43.359066 
L 342.287322 42.54589 
L 345.566661 41.732713 
L 348.845999 41.326125 
L 352.125338 41.732713 
L 355.404677 41.326125 
L 358.684016 42.139301 
L 361.963355 40.10636 
L 365.242694 41.326125 
L 368.522033 40.919537 
L 371.801371 40.10636 
L 375.08071 40.10636 
" style="fill:none;stroke:#4c72b0;stroke-linecap:round;stroke-width:1.5;"/>
   </g>
   <g id="line2d_15">
    <path clip-path="url(#pa775d5eb7f)" d="M 50.426165 265.762831 
L 53.705504 257.224478 
L 56.984842 251.532243 
L 60.264181 247.46636 
L 63.54352 245.433419 
L 66.822859 230.389654 
L 70.102198 227.543537 
L 73.381537 226.323772 
L 76.660876 218.598596 
L 79.940214 208.027301 
L 83.219553 205.587772 
L 86.498892 199.895537 
L 89.778231 193.796713 
L 93.05757 184.851772 
L 96.336909 177.533184 
L 99.616247 169.808007 
L 102.895586 158.016949 
L 106.174925 140.940243 
L 109.454264 135.248007 
L 112.733603 121.424007 
L 116.012942 120.204243 
L 119.29228 118.984478 
L 122.571619 115.325184 
L 125.850958 109.22636 
L 129.130297 105.160478 
L 132.409636 102.720949 
L 135.688975 101.094596 
L 138.968314 101.094596 
L 142.247652 94.589184 
L 145.526991 92.962831 
L 148.80633 93.369419 
L 152.085669 93.369419 
L 155.365008 91.743066 
L 158.644347 88.49036 
L 161.923685 88.083772 
L 165.203024 86.050831 
L 168.482363 84.831066 
L 171.761702 83.204713 
L 175.041041 81.984949 
L 178.32038 83.204713 
L 181.599718 81.57836 
L 184.879057 79.138831 
L 188.158396 78.325654 
L 191.437735 79.138831 
L 194.717074 79.545419 
L 197.996413 77.512478 
L 201.275752 75.479537 
L 204.55509 75.072949 
L 207.834429 75.886125 
L 211.113768 73.853184 
L 214.393107 73.040007 
L 217.672446 74.259772 
L 220.951785 71.413654 
L 224.231123 71.007066 
L 227.510462 70.600478 
L 230.789801 69.380713 
L 234.06914 70.19389 
L 237.348479 69.787301 
L 240.627818 69.380713 
L 243.907157 68.567537 
L 247.186495 66.534596 
L 250.465834 67.347772 
L 253.745173 66.128007 
L 257.024512 66.534596 
L 260.303851 65.314831 
L 263.58319 64.095066 
L 266.862528 63.28189 
L 270.141867 63.688478 
L 273.421206 62.468713 
L 276.700545 61.248949 
L 279.979884 60.029184 
L 283.259223 60.029184 
L 286.538561 62.062125 
L 289.8179 59.216007 
L 293.097239 60.029184 
L 296.376578 60.029184 
L 299.655917 54.743537 
L 302.935256 55.760007 
L 306.214595 56.268243 
L 309.493933 54.743537 
L 312.773272 54.743537 
L 316.052611 54.235301 
L 319.33195 54.235301 
L 322.611289 54.743537 
L 325.890628 54.235301 
L 329.169966 53.218831 
L 332.449305 53.218831 
L 335.728644 52.710596 
L 339.007983 51.694125 
L 342.287322 51.18589 
L 345.566661 51.18589 
L 348.845999 51.694125 
L 352.125338 50.677654 
L 355.404677 50.169419 
L 358.684016 49.661184 
L 361.963355 48.136478 
L 365.242694 47.120007 
L 368.522033 47.628243 
L 371.801371 48.136478 
L 375.08071 47.120007 
" style="fill:none;stroke:#c44e52;stroke-linecap:round;stroke-width:1.5;"/>
   </g>
   <g id="patch_3">
    <path d="M 34.193438 288.430125 
L 34.193438 22.318125 
" style="fill:none;stroke:#ffffff;stroke-linecap:square;stroke-linejoin:miter;stroke-width:1.25;"/>
   </g>
   <g id="patch_4">
    <path d="M 391.313438 288.430125 
L 391.313438 22.318125 
" style="fill:none;stroke:#ffffff;stroke-linecap:square;stroke-linejoin:miter;stroke-width:1.25;"/>
   </g>
   <g id="patch_5">
    <path d="M 34.193438 288.430125 
L 391.313437 288.430125 
" style="fill:none;stroke:#ffffff;stroke-linecap:square;stroke-linejoin:miter;stroke-width:1.25;"/>
   </g>
   <g id="patch_6">
    <path d="M 34.193438 22.318125 
L 391.313437 22.318125 
" style="fill:none;stroke:#ffffff;stroke-linecap:square;stroke-linejoin:miter;stroke-width:1.25;"/>
   </g>
   <g id="text_14">
    <!-- tapnet-PEMS-SF -->
    <defs>
     <path d="M 18.3125 70.21875 
L 18.3125 54.6875 
L 36.8125 54.6875 
L 36.8125 47.703125 
L 18.3125 47.703125 
L 18.3125 18.015625 
Q 18.3125 11.328125 20.140625 9.421875 
Q 21.96875 7.515625 27.59375 7.515625 
L 36.8125 7.515625 
L 36.8125 0 
L 27.59375 0 
Q 17.1875 0 13.234375 3.875 
Q 9.28125 7.765625 9.28125 18.015625 
L 9.28125 47.703125 
L 2.6875 47.703125 
L 2.6875 54.6875 
L 9.28125 54.6875 
L 9.28125 70.21875 
z
" id="DejaVuSans-116"/>
     <path d="M 34.28125 27.484375 
Q 23.390625 27.484375 19.1875 25 
Q 14.984375 22.515625 14.984375 16.5 
Q 14.984375 11.71875 18.140625 8.90625 
Q 21.296875 6.109375 26.703125 6.109375 
Q 34.1875 6.109375 38.703125 11.40625 
Q 43.21875 16.703125 43.21875 25.484375 
L 43.21875 27.484375 
z
M 52.203125 31.203125 
L 52.203125 0 
L 43.21875 0 
L 43.21875 8.296875 
Q 40.140625 3.328125 35.546875 0.953125 
Q 30.953125 -1.421875 24.3125 -1.421875 
Q 15.921875 -1.421875 10.953125 3.296875 
Q 6 8.015625 6 15.921875 
Q 6 25.140625 12.171875 29.828125 
Q 18.359375 34.515625 30.609375 34.515625 
L 43.21875 34.515625 
L 43.21875 35.40625 
Q 43.21875 41.609375 39.140625 45 
Q 35.0625 48.390625 27.6875 48.390625 
Q 23 48.390625 18.546875 47.265625 
Q 14.109375 46.140625 10.015625 43.890625 
L 10.015625 52.203125 
Q 14.9375 54.109375 19.578125 55.046875 
Q 24.21875 56 28.609375 56 
Q 40.484375 56 46.34375 49.84375 
Q 52.203125 43.703125 52.203125 31.203125 
z
" id="DejaVuSans-97"/>
     <path d="M 18.109375 8.203125 
L 18.109375 -20.796875 
L 9.078125 -20.796875 
L 9.078125 54.6875 
L 18.109375 54.6875 
L 18.109375 46.390625 
Q 20.953125 51.265625 25.265625 53.625 
Q 29.59375 56 35.59375 56 
Q 45.5625 56 51.78125 48.09375 
Q 58.015625 40.1875 58.015625 27.296875 
Q 58.015625 14.40625 51.78125 6.484375 
Q 45.5625 -1.421875 35.59375 -1.421875 
Q 29.59375 -1.421875 25.265625 0.953125 
Q 20.953125 3.328125 18.109375 8.203125 
z
M 48.6875 27.296875 
Q 48.6875 37.203125 44.609375 42.84375 
Q 40.53125 48.484375 33.40625 48.484375 
Q 26.265625 48.484375 22.1875 42.84375 
Q 18.109375 37.203125 18.109375 27.296875 
Q 18.109375 17.390625 22.1875 11.75 
Q 26.265625 6.109375 33.40625 6.109375 
Q 40.53125 6.109375 44.609375 11.75 
Q 48.6875 17.390625 48.6875 27.296875 
z
" id="DejaVuSans-112"/>
     <path d="M 54.890625 33.015625 
L 54.890625 0 
L 45.90625 0 
L 45.90625 32.71875 
Q 45.90625 40.484375 42.875 44.328125 
Q 39.84375 48.1875 33.796875 48.1875 
Q 26.515625 48.1875 22.3125 43.546875 
Q 18.109375 38.921875 18.109375 30.90625 
L 18.109375 0 
L 9.078125 0 
L 9.078125 54.6875 
L 18.109375 54.6875 
L 18.109375 46.1875 
Q 21.34375 51.125 25.703125 53.5625 
Q 30.078125 56 35.796875 56 
Q 45.21875 56 50.046875 50.171875 
Q 54.890625 44.34375 54.890625 33.015625 
z
" id="DejaVuSans-110"/>
     <path d="M 56.203125 29.59375 
L 56.203125 25.203125 
L 14.890625 25.203125 
Q 15.484375 15.921875 20.484375 11.0625 
Q 25.484375 6.203125 34.421875 6.203125 
Q 39.59375 6.203125 44.453125 7.46875 
Q 49.3125 8.734375 54.109375 11.28125 
L 54.109375 2.78125 
Q 49.265625 0.734375 44.1875 -0.34375 
Q 39.109375 -1.421875 33.890625 -1.421875 
Q 20.796875 -1.421875 13.15625 6.1875 
Q 5.515625 13.8125 5.515625 26.8125 
Q 5.515625 40.234375 12.765625 48.109375 
Q 20.015625 56 32.328125 56 
Q 43.359375 56 49.78125 48.890625 
Q 56.203125 41.796875 56.203125 29.59375 
z
M 47.21875 32.234375 
Q 47.125 39.59375 43.09375 43.984375 
Q 39.0625 48.390625 32.421875 48.390625 
Q 24.90625 48.390625 20.390625 44.140625 
Q 15.875 39.890625 15.1875 32.171875 
z
" id="DejaVuSans-101"/>
     <path d="M 4.890625 31.390625 
L 31.203125 31.390625 
L 31.203125 23.390625 
L 4.890625 23.390625 
z
" id="DejaVuSans-45"/>
     <path d="M 19.671875 64.796875 
L 19.671875 37.40625 
L 32.078125 37.40625 
Q 38.96875 37.40625 42.71875 40.96875 
Q 46.484375 44.53125 46.484375 51.125 
Q 46.484375 57.671875 42.71875 61.234375 
Q 38.96875 64.796875 32.078125 64.796875 
z
M 9.8125 72.90625 
L 32.078125 72.90625 
Q 44.34375 72.90625 50.609375 67.359375 
Q 56.890625 61.8125 56.890625 51.125 
Q 56.890625 40.328125 50.609375 34.8125 
Q 44.34375 29.296875 32.078125 29.296875 
L 19.671875 29.296875 
L 19.671875 0 
L 9.8125 0 
z
" id="DejaVuSans-80"/>
     <path d="M 9.8125 72.90625 
L 55.90625 72.90625 
L 55.90625 64.59375 
L 19.671875 64.59375 
L 19.671875 43.015625 
L 54.390625 43.015625 
L 54.390625 34.71875 
L 19.671875 34.71875 
L 19.671875 8.296875 
L 56.78125 8.296875 
L 56.78125 0 
L 9.8125 0 
z
" id="DejaVuSans-69"/>
     <path d="M 9.8125 72.90625 
L 24.515625 72.90625 
L 43.109375 23.296875 
L 61.8125 72.90625 
L 76.515625 72.90625 
L 76.515625 0 
L 66.890625 0 
L 66.890625 64.015625 
L 48.09375 14.015625 
L 38.1875 14.015625 
L 19.390625 64.015625 
L 19.390625 0 
L 9.8125 0 
z
" id="DejaVuSans-77"/>
     <path d="M 53.515625 70.515625 
L 53.515625 60.890625 
Q 47.90625 63.578125 42.921875 64.890625 
Q 37.9375 66.21875 33.296875 66.21875 
Q 25.25 66.21875 20.875 63.09375 
Q 16.5 59.96875 16.5 54.203125 
Q 16.5 49.359375 19.40625 46.890625 
Q 22.3125 44.4375 30.421875 42.921875 
L 36.375 41.703125 
Q 47.40625 39.59375 52.65625 34.296875 
Q 57.90625 29 57.90625 20.125 
Q 57.90625 9.515625 50.796875 4.046875 
Q 43.703125 -1.421875 29.984375 -1.421875 
Q 24.8125 -1.421875 18.96875 -0.25 
Q 13.140625 0.921875 6.890625 3.21875 
L 6.890625 13.375 
Q 12.890625 10.015625 18.65625 8.296875 
Q 24.421875 6.59375 29.984375 6.59375 
Q 38.421875 6.59375 43.015625 9.90625 
Q 47.609375 13.234375 47.609375 19.390625 
Q 47.609375 24.75 44.3125 27.78125 
Q 41.015625 30.8125 33.5 32.328125 
L 27.484375 33.5 
Q 16.453125 35.6875 11.515625 40.375 
Q 6.59375 45.0625 6.59375 53.421875 
Q 6.59375 63.09375 13.40625 68.65625 
Q 20.21875 74.21875 32.171875 74.21875 
Q 37.3125 74.21875 42.625 73.28125 
Q 47.953125 72.359375 53.515625 70.515625 
z
" id="DejaVuSans-83"/>
     <path d="M 9.8125 72.90625 
L 51.703125 72.90625 
L 51.703125 64.59375 
L 19.671875 64.59375 
L 19.671875 43.109375 
L 48.578125 43.109375 
L 48.578125 34.8125 
L 19.671875 34.8125 
L 19.671875 0 
L 9.8125 0 
z
" id="DejaVuSans-70"/>
    </defs>
    <g style="fill:#262626;" transform="translate(165.084375 16.318125)scale(0.12 -0.12)">
     <use xlink:href="#DejaVuSans-116"/>
     <use x="39.208984" xlink:href="#DejaVuSans-97"/>
     <use x="100.488281" xlink:href="#DejaVuSans-112"/>
     <use x="163.964844" xlink:href="#DejaVuSans-110"/>
     <use x="227.34375" xlink:href="#DejaVuSans-101"/>
     <use x="288.867188" xlink:href="#DejaVuSans-116"/>
     <use x="328.076172" xlink:href="#DejaVuSans-45"/>
     <use x="364.160156" xlink:href="#DejaVuSans-80"/>
     <use x="424.462891" xlink:href="#DejaVuSans-69"/>
     <use x="487.646484" xlink:href="#DejaVuSans-77"/>
     <use x="573.925781" xlink:href="#DejaVuSans-83"/>
     <use x="637.402344" xlink:href="#DejaVuSans-45"/>
     <use x="673.486328" xlink:href="#DejaVuSans-83"/>
     <use x="736.962891" xlink:href="#DejaVuSans-70"/>
    </g>
   </g>
   <g id="legend_1">
    <g id="patch_7">
     <path d="M 41.893438 95.701875 
L 114.345625 95.701875 
Q 116.545625 95.701875 116.545625 93.501875 
L 116.545625 30.018125 
Q 116.545625 27.818125 114.345625 27.818125 
L 41.893438 27.818125 
Q 39.693438 27.818125 39.693438 30.018125 
L 39.693438 93.501875 
Q 39.693438 95.701875 41.893438 95.701875 
z
" style="fill:#eaeaf2;opacity:0.8;stroke:#cccccc;stroke-linejoin:miter;"/>
    </g>
    <g id="line2d_16">
     <path d="M 44.093438 36.726406 
L 66.093437 36.726406 
" style="fill:none;stroke:#4c72b0;stroke-linecap:round;stroke-width:1.5;"/>
    </g>
    <g id="line2d_17"/>
    <g id="text_15">
     <!-- pooled -->
     <defs>
      <path d="M 30.609375 48.390625 
Q 23.390625 48.390625 19.1875 42.75 
Q 14.984375 37.109375 14.984375 27.296875 
Q 14.984375 17.484375 19.15625 11.84375 
Q 23.34375 6.203125 30.609375 6.203125 
Q 37.796875 6.203125 41.984375 11.859375 
Q 46.1875 17.53125 46.1875 27.296875 
Q 46.1875 37.015625 41.984375 42.703125 
Q 37.796875 48.390625 30.609375 48.390625 
z
M 30.609375 56 
Q 42.328125 56 49.015625 48.375 
Q 55.71875 40.765625 55.71875 27.296875 
Q 55.71875 13.875 49.015625 6.21875 
Q 42.328125 -1.421875 30.609375 -1.421875 
Q 18.84375 -1.421875 12.171875 6.21875 
Q 5.515625 13.875 5.515625 27.296875 
Q 5.515625 40.765625 12.171875 48.375 
Q 18.84375 56 30.609375 56 
z
" id="DejaVuSans-111"/>
      <path d="M 9.421875 75.984375 
L 18.40625 75.984375 
L 18.40625 0 
L 9.421875 0 
z
" id="DejaVuSans-108"/>
      <path d="M 45.40625 46.390625 
L 45.40625 75.984375 
L 54.390625 75.984375 
L 54.390625 0 
L 45.40625 0 
L 45.40625 8.203125 
Q 42.578125 3.328125 38.25 0.953125 
Q 33.9375 -1.421875 27.875 -1.421875 
Q 17.96875 -1.421875 11.734375 6.484375 
Q 5.515625 14.40625 5.515625 27.296875 
Q 5.515625 40.1875 11.734375 48.09375 
Q 17.96875 56 27.875 56 
Q 33.9375 56 38.25 53.625 
Q 42.578125 51.265625 45.40625 46.390625 
z
M 14.796875 27.296875 
Q 14.796875 17.390625 18.875 11.75 
Q 22.953125 6.109375 30.078125 6.109375 
Q 37.203125 6.109375 41.296875 11.75 
Q 45.40625 17.390625 45.40625 27.296875 
Q 45.40625 37.203125 41.296875 42.84375 
Q 37.203125 48.484375 30.078125 48.484375 
Q 22.953125 48.484375 18.875 42.84375 
Q 14.796875 37.203125 14.796875 27.296875 
z
" id="DejaVuSans-100"/>
     </defs>
     <g style="fill:#262626;" transform="translate(74.893438 40.576406)scale(0.11 -0.11)">
      <use xlink:href="#DejaVuSans-112"/>
      <use x="63.476562" xlink:href="#DejaVuSans-111"/>
      <use x="124.658203" xlink:href="#DejaVuSans-111"/>
      <use x="185.839844" xlink:href="#DejaVuSans-108"/>
      <use x="213.623047" xlink:href="#DejaVuSans-101"/>
      <use x="275.146484" xlink:href="#DejaVuSans-100"/>
     </g>
    </g>
    <g id="line2d_18">
     <path d="M 44.093438 52.872344 
L 66.093437 52.872344 
" style="fill:none;stroke:#c44e52;stroke-linecap:round;stroke-width:1.5;"/>
    </g>
    <g id="line2d_19"/>
    <g id="text_16">
     <!-- dad -->
     <g style="fill:#262626;" transform="translate(74.893438 56.722344)scale(0.11 -0.11)">
      <use xlink:href="#DejaVuSans-100"/>
      <use x="63.476562" xlink:href="#DejaVuSans-97"/>
      <use x="124.755859" xlink:href="#DejaVuSans-100"/>
     </g>
    </g>
    <g id="patch_8">
     <path d="M 44.093438 72.868281 
L 66.093437 72.868281 
L 66.093437 65.168281 
L 44.093438 65.168281 
z
" style="fill:#4c72b0;opacity:0.2;stroke:#4c72b0;stroke-linejoin:miter;"/>
    </g>
    <g id="text_17">
     <!-- edad -->
     <g style="fill:#262626;" transform="translate(74.893438 72.868281)scale(0.11 -0.11)">
      <use xlink:href="#DejaVuSans-101"/>
      <use x="61.523438" xlink:href="#DejaVuSans-100"/>
      <use x="125" xlink:href="#DejaVuSans-97"/>
      <use x="186.279297" xlink:href="#DejaVuSans-100"/>
     </g>
    </g>
    <g id="patch_9">
     <path d="M 44.093438 89.014219 
L 66.093437 89.014219 
L 66.093437 81.314219 
L 44.093438 81.314219 
z
" style="fill:#c44e52;opacity:0.2;stroke:#c44e52;stroke-linejoin:miter;"/>
    </g>
    <g id="text_18">
     <!-- dsgd -->
     <defs>
      <path d="M 44.28125 53.078125 
L 44.28125 44.578125 
Q 40.484375 46.53125 36.375 47.5 
Q 32.28125 48.484375 27.875 48.484375 
Q 21.1875 48.484375 17.84375 46.4375 
Q 14.5 44.390625 14.5 40.28125 
Q 14.5 37.15625 16.890625 35.375 
Q 19.28125 33.59375 26.515625 31.984375 
L 29.59375 31.296875 
Q 39.15625 29.25 43.1875 25.515625 
Q 47.21875 21.78125 47.21875 15.09375 
Q 47.21875 7.46875 41.1875 3.015625 
Q 35.15625 -1.421875 24.609375 -1.421875 
Q 20.21875 -1.421875 15.453125 -0.5625 
Q 10.6875 0.296875 5.421875 2 
L 5.421875 11.28125 
Q 10.40625 8.6875 15.234375 7.390625 
Q 20.0625 6.109375 24.8125 6.109375 
Q 31.15625 6.109375 34.5625 8.28125 
Q 37.984375 10.453125 37.984375 14.40625 
Q 37.984375 18.0625 35.515625 20.015625 
Q 33.0625 21.96875 24.703125 23.78125 
L 21.578125 24.515625 
Q 13.234375 26.265625 9.515625 29.90625 
Q 5.8125 33.546875 5.8125 39.890625 
Q 5.8125 47.609375 11.28125 51.796875 
Q 16.75 56 26.8125 56 
Q 31.78125 56 36.171875 55.265625 
Q 40.578125 54.546875 44.28125 53.078125 
z
" id="DejaVuSans-115"/>
      <path d="M 45.40625 27.984375 
Q 45.40625 37.75 41.375 43.109375 
Q 37.359375 48.484375 30.078125 48.484375 
Q 22.859375 48.484375 18.828125 43.109375 
Q 14.796875 37.75 14.796875 27.984375 
Q 14.796875 18.265625 18.828125 12.890625 
Q 22.859375 7.515625 30.078125 7.515625 
Q 37.359375 7.515625 41.375 12.890625 
Q 45.40625 18.265625 45.40625 27.984375 
z
M 54.390625 6.78125 
Q 54.390625 -7.171875 48.1875 -13.984375 
Q 42 -20.796875 29.203125 -20.796875 
Q 24.46875 -20.796875 20.265625 -20.09375 
Q 16.0625 -19.390625 12.109375 -17.921875 
L 12.109375 -9.1875 
Q 16.0625 -11.328125 19.921875 -12.34375 
Q 23.78125 -13.375 27.78125 -13.375 
Q 36.625 -13.375 41.015625 -8.765625 
Q 45.40625 -4.15625 45.40625 5.171875 
L 45.40625 9.625 
Q 42.625 4.78125 38.28125 2.390625 
Q 33.9375 0 27.875 0 
Q 17.828125 0 11.671875 7.65625 
Q 5.515625 15.328125 5.515625 27.984375 
Q 5.515625 40.671875 11.671875 48.328125 
Q 17.828125 56 27.875 56 
Q 33.9375 56 38.28125 53.609375 
Q 42.625 51.21875 45.40625 46.390625 
L 45.40625 54.6875 
L 54.390625 54.6875 
z
" id="DejaVuSans-103"/>
     </defs>
     <g style="fill:#262626;" transform="translate(74.893438 89.014219)scale(0.11 -0.11)">
      <use xlink:href="#DejaVuSans-100"/>
      <use x="63.476562" xlink:href="#DejaVuSans-115"/>
      <use x="115.576172" xlink:href="#DejaVuSans-103"/>
      <use x="179.052734" xlink:href="#DejaVuSans-100"/>
     </g>
    </g>
   </g>
  </g>
 </g>
 <defs>
  <clipPath id="pa775d5eb7f">
   <rect height="266.112" width="357.12" x="34.193438" y="22.318125"/>
  </clipPath>
 </defs>
</svg>
