<?xml version="1.0" encoding="utf-8" standalone="no"?>
<!DOCTYPE svg PUBLIC "-//W3C//DTD SVG 1.1//EN"
  "http://www.w3.org/Graphics/SVG/1.1/DTD/svg11.dtd">
<!-- Created with matplotlib (https://matplotlib.org/) -->
<svg height="331.389812pt" version="1.1" viewBox="0 0 411.522251 331.389812" width="411.522251pt" xmlns="http://www.w3.org/2000/svg" xmlns:xlink="http://www.w3.org/1999/xlink">
 <defs>
  <style type="text/css">
*{stroke-linecap:butt;stroke-linejoin:round;}
  </style>
 </defs>
 <g id="figure_1">
  <g id="patch_1">
   <path d="M 0 331.389812 
L 411.522251 331.389812 
L 411.522251 0 
L 0 0 
z
" style="fill:#ffffff;"/>
  </g>
  <g id="axes_1">
   <g id="patch_2">
    <path d="M 46.31125 288.430125 
L 403.43125 288.430125 
L 403.43125 22.318125 
L 46.31125 22.318125 
z
" style="fill:#eaeaf2;"/>
   </g>
   <g id="matplotlib.axis_1">
    <g id="xtick_1">
     <g id="line2d_1">
      <path clip-path="url(#pfdfca6b6b6)" d="M 62.543977 288.430125 
L 62.543977 22.318125 
" style="fill:none;stroke:#ffffff;stroke-linecap:round;"/>
     </g>
     <g id="text_1">
      <!-- 0 -->
      <defs>
       <path d="M 31.78125 66.40625 
Q 24.171875 66.40625 20.328125 58.90625 
Q 16.5 51.421875 16.5 36.375 
Q 16.5 21.390625 20.328125 13.890625 
Q 24.171875 6.390625 31.78125 6.390625 
Q 39.453125 6.390625 43.28125 13.890625 
Q 47.125 21.390625 47.125 36.375 
Q 47.125 51.421875 43.28125 58.90625 
Q 39.453125 66.40625 31.78125 66.40625 
z
M 31.78125 74.21875 
Q 44.046875 74.21875 50.515625 64.515625 
Q 56.984375 54.828125 56.984375 36.375 
Q 56.984375 17.96875 50.515625 8.265625 
Q 44.046875 -1.421875 31.78125 -1.421875 
Q 19.53125 -1.421875 13.0625 8.265625 
Q 6.59375 17.96875 6.59375 36.375 
Q 6.59375 54.828125 13.0625 64.515625 
Q 19.53125 74.21875 31.78125 74.21875 
z
" id="DejaVuSans-48"/>
      </defs>
      <g style="fill:#262626;" transform="translate(59.044602 306.288406)scale(0.11 -0.11)">
       <use xlink:href="#DejaVuSans-48"/>
      </g>
     </g>
    </g>
    <g id="xtick_2">
     <g id="line2d_2">
      <path clip-path="url(#pfdfca6b6b6)" d="M 128.800007 288.430125 
L 128.800007 22.318125 
" style="fill:none;stroke:#ffffff;stroke-linecap:round;"/>
     </g>
     <g id="text_2">
      <!-- 20 -->
      <defs>
       <path d="M 19.1875 8.296875 
L 53.609375 8.296875 
L 53.609375 0 
L 7.328125 0 
L 7.328125 8.296875 
Q 12.9375 14.109375 22.625 23.890625 
Q 32.328125 33.6875 34.8125 36.53125 
Q 39.546875 41.84375 41.421875 45.53125 
Q 43.3125 49.21875 43.3125 52.78125 
Q 43.3125 58.59375 39.234375 62.25 
Q 35.15625 65.921875 28.609375 65.921875 
Q 23.96875 65.921875 18.8125 64.3125 
Q 13.671875 62.703125 7.8125 59.421875 
L 7.8125 69.390625 
Q 13.765625 71.78125 18.9375 73 
Q 24.125 74.21875 28.421875 74.21875 
Q 39.75 74.21875 46.484375 68.546875 
Q 53.21875 62.890625 53.21875 53.421875 
Q 53.21875 48.921875 51.53125 44.890625 
Q 49.859375 40.875 45.40625 35.40625 
Q 44.1875 33.984375 37.640625 27.21875 
Q 31.109375 20.453125 19.1875 8.296875 
z
" id="DejaVuSans-50"/>
      </defs>
      <g style="fill:#262626;" transform="translate(121.801257 306.288406)scale(0.11 -0.11)">
       <use xlink:href="#DejaVuSans-50"/>
       <use x="63.623047" xlink:href="#DejaVuSans-48"/>
      </g>
     </g>
    </g>
    <g id="xtick_3">
     <g id="line2d_3">
      <path clip-path="url(#pfdfca6b6b6)" d="M 195.056037 288.430125 
L 195.056037 22.318125 
" style="fill:none;stroke:#ffffff;stroke-linecap:round;"/>
     </g>
     <g id="text_3">
      <!-- 40 -->
      <defs>
       <path d="M 37.796875 64.3125 
L 12.890625 25.390625 
L 37.796875 25.390625 
z
M 35.203125 72.90625 
L 47.609375 72.90625 
L 47.609375 25.390625 
L 58.015625 25.390625 
L 58.015625 17.1875 
L 47.609375 17.1875 
L 47.609375 0 
L 37.796875 0 
L 37.796875 17.1875 
L 4.890625 17.1875 
L 4.890625 26.703125 
z
" id="DejaVuSans-52"/>
      </defs>
      <g style="fill:#262626;" transform="translate(188.057287 306.288406)scale(0.11 -0.11)">
       <use xlink:href="#DejaVuSans-52"/>
       <use x="63.623047" xlink:href="#DejaVuSans-48"/>
      </g>
     </g>
    </g>
    <g id="xtick_4">
     <g id="line2d_4">
      <path clip-path="url(#pfdfca6b6b6)" d="M 261.312066 288.430125 
L 261.312066 22.318125 
" style="fill:none;stroke:#ffffff;stroke-linecap:round;"/>
     </g>
     <g id="text_4">
      <!-- 60 -->
      <defs>
       <path d="M 33.015625 40.375 
Q 26.375 40.375 22.484375 35.828125 
Q 18.609375 31.296875 18.609375 23.390625 
Q 18.609375 15.53125 22.484375 10.953125 
Q 26.375 6.390625 33.015625 6.390625 
Q 39.65625 6.390625 43.53125 10.953125 
Q 47.40625 15.53125 47.40625 23.390625 
Q 47.40625 31.296875 43.53125 35.828125 
Q 39.65625 40.375 33.015625 40.375 
z
M 52.59375 71.296875 
L 52.59375 62.3125 
Q 48.875 64.0625 45.09375 64.984375 
Q 41.3125 65.921875 37.59375 65.921875 
Q 27.828125 65.921875 22.671875 59.328125 
Q 17.53125 52.734375 16.796875 39.40625 
Q 19.671875 43.65625 24.015625 45.921875 
Q 28.375 48.1875 33.59375 48.1875 
Q 44.578125 48.1875 50.953125 41.515625 
Q 57.328125 34.859375 57.328125 23.390625 
Q 57.328125 12.15625 50.6875 5.359375 
Q 44.046875 -1.421875 33.015625 -1.421875 
Q 20.359375 -1.421875 13.671875 8.265625 
Q 6.984375 17.96875 6.984375 36.375 
Q 6.984375 53.65625 15.1875 63.9375 
Q 23.390625 74.21875 37.203125 74.21875 
Q 40.921875 74.21875 44.703125 73.484375 
Q 48.484375 72.75 52.59375 71.296875 
z
" id="DejaVuSans-54"/>
      </defs>
      <g style="fill:#262626;" transform="translate(254.313316 306.288406)scale(0.11 -0.11)">
       <use xlink:href="#DejaVuSans-54"/>
       <use x="63.623047" xlink:href="#DejaVuSans-48"/>
      </g>
     </g>
    </g>
    <g id="xtick_5">
     <g id="line2d_5">
      <path clip-path="url(#pfdfca6b6b6)" d="M 327.568096 288.430125 
L 327.568096 22.318125 
" style="fill:none;stroke:#ffffff;stroke-linecap:round;"/>
     </g>
     <g id="text_5">
      <!-- 80 -->
      <defs>
       <path d="M 31.78125 34.625 
Q 24.75 34.625 20.71875 30.859375 
Q 16.703125 27.09375 16.703125 20.515625 
Q 16.703125 13.921875 20.71875 10.15625 
Q 24.75 6.390625 31.78125 6.390625 
Q 38.8125 6.390625 42.859375 10.171875 
Q 46.921875 13.96875 46.921875 20.515625 
Q 46.921875 27.09375 42.890625 30.859375 
Q 38.875 34.625 31.78125 34.625 
z
M 21.921875 38.8125 
Q 15.578125 40.375 12.03125 44.71875 
Q 8.5 49.078125 8.5 55.328125 
Q 8.5 64.0625 14.71875 69.140625 
Q 20.953125 74.21875 31.78125 74.21875 
Q 42.671875 74.21875 48.875 69.140625 
Q 55.078125 64.0625 55.078125 55.328125 
Q 55.078125 49.078125 51.53125 44.71875 
Q 48 40.375 41.703125 38.8125 
Q 48.828125 37.15625 52.796875 32.3125 
Q 56.78125 27.484375 56.78125 20.515625 
Q 56.78125 9.90625 50.3125 4.234375 
Q 43.84375 -1.421875 31.78125 -1.421875 
Q 19.734375 -1.421875 13.25 4.234375 
Q 6.78125 9.90625 6.78125 20.515625 
Q 6.78125 27.484375 10.78125 32.3125 
Q 14.796875 37.15625 21.921875 38.8125 
z
M 18.3125 54.390625 
Q 18.3125 48.734375 21.84375 45.5625 
Q 25.390625 42.390625 31.78125 42.390625 
Q 38.140625 42.390625 41.71875 45.5625 
Q 45.3125 48.734375 45.3125 54.390625 
Q 45.3125 60.0625 41.71875 63.234375 
Q 38.140625 66.40625 31.78125 66.40625 
Q 25.390625 66.40625 21.84375 63.234375 
Q 18.3125 60.0625 18.3125 54.390625 
z
" id="DejaVuSans-56"/>
      </defs>
      <g style="fill:#262626;" transform="translate(320.569346 306.288406)scale(0.11 -0.11)">
       <use xlink:href="#DejaVuSans-56"/>
       <use x="63.623047" xlink:href="#DejaVuSans-48"/>
      </g>
     </g>
    </g>
    <g id="xtick_6">
     <g id="line2d_6">
      <path clip-path="url(#pfdfca6b6b6)" d="M 393.824126 288.430125 
L 393.824126 22.318125 
" style="fill:none;stroke:#ffffff;stroke-linecap:round;"/>
     </g>
     <g id="text_6">
      <!-- 100 -->
      <defs>
       <path d="M 12.40625 8.296875 
L 28.515625 8.296875 
L 28.515625 63.921875 
L 10.984375 60.40625 
L 10.984375 69.390625 
L 28.421875 72.90625 
L 38.28125 72.90625 
L 38.28125 8.296875 
L 54.390625 8.296875 
L 54.390625 0 
L 12.40625 0 
z
" id="DejaVuSans-49"/>
      </defs>
      <g style="fill:#262626;" transform="translate(383.326001 306.288406)scale(0.11 -0.11)">
       <use xlink:href="#DejaVuSans-49"/>
       <use x="63.623047" xlink:href="#DejaVuSans-48"/>
       <use x="127.246094" xlink:href="#DejaVuSans-48"/>
      </g>
     </g>
    </g>
    <g id="text_7">
     <!-- epoch -->
     <defs>
      <path d="M 56.203125 29.59375 
L 56.203125 25.203125 
L 14.890625 25.203125 
Q 15.484375 15.921875 20.484375 11.0625 
Q 25.484375 6.203125 34.421875 6.203125 
Q 39.59375 6.203125 44.453125 7.46875 
Q 49.3125 8.734375 54.109375 11.28125 
L 54.109375 2.78125 
Q 49.265625 0.734375 44.1875 -0.34375 
Q 39.109375 -1.421875 33.890625 -1.421875 
Q 20.796875 -1.421875 13.15625 6.1875 
Q 5.515625 13.8125 5.515625 26.8125 
Q 5.515625 40.234375 12.765625 48.109375 
Q 20.015625 56 32.328125 56 
Q 43.359375 56 49.78125 48.890625 
Q 56.203125 41.796875 56.203125 29.59375 
z
M 47.21875 32.234375 
Q 47.125 39.59375 43.09375 43.984375 
Q 39.0625 48.390625 32.421875 48.390625 
Q 24.90625 48.390625 20.390625 44.140625 
Q 15.875 39.890625 15.1875 32.171875 
z
" id="DejaVuSans-101"/>
      <path d="M 18.109375 8.203125 
L 18.109375 -20.796875 
L 9.078125 -20.796875 
L 9.078125 54.6875 
L 18.109375 54.6875 
L 18.109375 46.390625 
Q 20.953125 51.265625 25.265625 53.625 
Q 29.59375 56 35.59375 56 
Q 45.5625 56 51.78125 48.09375 
Q 58.015625 40.1875 58.015625 27.296875 
Q 58.015625 14.40625 51.78125 6.484375 
Q 45.5625 -1.421875 35.59375 -1.421875 
Q 29.59375 -1.421875 25.265625 0.953125 
Q 20.953125 3.328125 18.109375 8.203125 
z
M 48.6875 27.296875 
Q 48.6875 37.203125 44.609375 42.84375 
Q 40.53125 48.484375 33.40625 48.484375 
Q 26.265625 48.484375 22.1875 42.84375 
Q 18.109375 37.203125 18.109375 27.296875 
Q 18.109375 17.390625 22.1875 11.75 
Q 26.265625 6.109375 33.40625 6.109375 
Q 40.53125 6.109375 44.609375 11.75 
Q 48.6875 17.390625 48.6875 27.296875 
z
" id="DejaVuSans-112"/>
      <path d="M 30.609375 48.390625 
Q 23.390625 48.390625 19.1875 42.75 
Q 14.984375 37.109375 14.984375 27.296875 
Q 14.984375 17.484375 19.15625 11.84375 
Q 23.34375 6.203125 30.609375 6.203125 
Q 37.796875 6.203125 41.984375 11.859375 
Q 46.1875 17.53125 46.1875 27.296875 
Q 46.1875 37.015625 41.984375 42.703125 
Q 37.796875 48.390625 30.609375 48.390625 
z
M 30.609375 56 
Q 42.328125 56 49.015625 48.375 
Q 55.71875 40.765625 55.71875 27.296875 
Q 55.71875 13.875 49.015625 6.21875 
Q 42.328125 -1.421875 30.609375 -1.421875 
Q 18.84375 -1.421875 12.171875 6.21875 
Q 5.515625 13.875 5.515625 27.296875 
Q 5.515625 40.765625 12.171875 48.375 
Q 18.84375 56 30.609375 56 
z
" id="DejaVuSans-111"/>
      <path d="M 48.78125 52.59375 
L 48.78125 44.1875 
Q 44.96875 46.296875 41.140625 47.34375 
Q 37.3125 48.390625 33.40625 48.390625 
Q 24.65625 48.390625 19.8125 42.84375 
Q 14.984375 37.3125 14.984375 27.296875 
Q 14.984375 17.28125 19.8125 11.734375 
Q 24.65625 6.203125 33.40625 6.203125 
Q 37.3125 6.203125 41.140625 7.25 
Q 44.96875 8.296875 48.78125 10.40625 
L 48.78125 2.09375 
Q 45.015625 0.34375 40.984375 -0.53125 
Q 36.96875 -1.421875 32.421875 -1.421875 
Q 20.0625 -1.421875 12.78125 6.34375 
Q 5.515625 14.109375 5.515625 27.296875 
Q 5.515625 40.671875 12.859375 48.328125 
Q 20.21875 56 33.015625 56 
Q 37.15625 56 41.109375 55.140625 
Q 45.0625 54.296875 48.78125 52.59375 
z
" id="DejaVuSans-99"/>
      <path d="M 54.890625 33.015625 
L 54.890625 0 
L 45.90625 0 
L 45.90625 32.71875 
Q 45.90625 40.484375 42.875 44.328125 
Q 39.84375 48.1875 33.796875 48.1875 
Q 26.515625 48.1875 22.3125 43.546875 
Q 18.109375 38.921875 18.109375 30.90625 
L 18.109375 0 
L 9.078125 0 
L 9.078125 75.984375 
L 18.109375 75.984375 
L 18.109375 46.1875 
Q 21.34375 51.125 25.703125 53.5625 
Q 30.078125 56 35.796875 56 
Q 45.21875 56 50.046875 50.171875 
Q 54.890625 44.34375 54.890625 33.015625 
z
" id="DejaVuSans-104"/>
     </defs>
     <g style="fill:#262626;" transform="translate(206.5975 321.694187)scale(0.12 -0.12)">
      <use xlink:href="#DejaVuSans-101"/>
      <use x="61.523438" xlink:href="#DejaVuSans-112"/>
      <use x="125" xlink:href="#DejaVuSans-111"/>
      <use x="186.181641" xlink:href="#DejaVuSans-99"/>
      <use x="241.162109" xlink:href="#DejaVuSans-104"/>
     </g>
    </g>
   </g>
   <g id="matplotlib.axis_2">
    <g id="ytick_1">
     <g id="line2d_7">
      <path clip-path="url(#pfdfca6b6b6)" d="M 46.31125 288.430125 
L 403.43125 288.430125 
" style="fill:none;stroke:#ffffff;stroke-linecap:round;"/>
     </g>
     <g id="text_8">
      <!-- 0 -->
      <g style="fill:#262626;" transform="translate(29.8125 292.609266)scale(0.11 -0.11)">
       <use xlink:href="#DejaVuSans-48"/>
      </g>
     </g>
    </g>
    <g id="ytick_2">
     <g id="line2d_8">
      <path clip-path="url(#pfdfca6b6b6)" d="M 46.31125 246.850125 
L 403.43125 246.850125 
" style="fill:none;stroke:#ffffff;stroke-linecap:round;"/>
     </g>
     <g id="text_9">
      <!-- 5 -->
      <defs>
       <path d="M 10.796875 72.90625 
L 49.515625 72.90625 
L 49.515625 64.59375 
L 19.828125 64.59375 
L 19.828125 46.734375 
Q 21.96875 47.46875 24.109375 47.828125 
Q 26.265625 48.1875 28.421875 48.1875 
Q 40.625 48.1875 47.75 41.5 
Q 54.890625 34.8125 54.890625 23.390625 
Q 54.890625 11.625 47.5625 5.09375 
Q 40.234375 -1.421875 26.90625 -1.421875 
Q 22.3125 -1.421875 17.546875 -0.640625 
Q 12.796875 0.140625 7.71875 1.703125 
L 7.71875 11.625 
Q 12.109375 9.234375 16.796875 8.0625 
Q 21.484375 6.890625 26.703125 6.890625 
Q 35.15625 6.890625 40.078125 11.328125 
Q 45.015625 15.765625 45.015625 23.390625 
Q 45.015625 31 40.078125 35.4375 
Q 35.15625 39.890625 26.703125 39.890625 
Q 22.75 39.890625 18.8125 39.015625 
Q 14.890625 38.140625 10.796875 36.28125 
z
" id="DejaVuSans-53"/>
      </defs>
      <g style="fill:#262626;" transform="translate(29.8125 251.029266)scale(0.11 -0.11)">
       <use xlink:href="#DejaVuSans-53"/>
      </g>
     </g>
    </g>
    <g id="ytick_3">
     <g id="line2d_9">
      <path clip-path="url(#pfdfca6b6b6)" d="M 46.31125 205.270125 
L 403.43125 205.270125 
" style="fill:none;stroke:#ffffff;stroke-linecap:round;"/>
     </g>
     <g id="text_10">
      <!-- 10 -->
      <g style="fill:#262626;" transform="translate(22.81375 209.449266)scale(0.11 -0.11)">
       <use xlink:href="#DejaVuSans-49"/>
       <use x="63.623047" xlink:href="#DejaVuSans-48"/>
      </g>
     </g>
    </g>
    <g id="ytick_4">
     <g id="line2d_10">
      <path clip-path="url(#pfdfca6b6b6)" d="M 46.31125 163.690125 
L 403.43125 163.690125 
" style="fill:none;stroke:#ffffff;stroke-linecap:round;"/>
     </g>
     <g id="text_11">
      <!-- 15 -->
      <g style="fill:#262626;" transform="translate(22.81375 167.869266)scale(0.11 -0.11)">
       <use xlink:href="#DejaVuSans-49"/>
       <use x="63.623047" xlink:href="#DejaVuSans-53"/>
      </g>
     </g>
    </g>
    <g id="ytick_5">
     <g id="line2d_11">
      <path clip-path="url(#pfdfca6b6b6)" d="M 46.31125 122.110125 
L 403.43125 122.110125 
" style="fill:none;stroke:#ffffff;stroke-linecap:round;"/>
     </g>
     <g id="text_12">
      <!-- 20 -->
      <g style="fill:#262626;" transform="translate(22.81375 126.289266)scale(0.11 -0.11)">
       <use xlink:href="#DejaVuSans-50"/>
       <use x="63.623047" xlink:href="#DejaVuSans-48"/>
      </g>
     </g>
    </g>
    <g id="ytick_6">
     <g id="line2d_12">
      <path clip-path="url(#pfdfca6b6b6)" d="M 46.31125 80.530125 
L 403.43125 80.530125 
" style="fill:none;stroke:#ffffff;stroke-linecap:round;"/>
     </g>
     <g id="text_13">
      <!-- 25 -->
      <g style="fill:#262626;" transform="translate(22.81375 84.709266)scale(0.11 -0.11)">
       <use xlink:href="#DejaVuSans-50"/>
       <use x="63.623047" xlink:href="#DejaVuSans-53"/>
      </g>
     </g>
    </g>
    <g id="ytick_7">
     <g id="line2d_13">
      <path clip-path="url(#pfdfca6b6b6)" d="M 46.31125 38.950125 
L 403.43125 38.950125 
" style="fill:none;stroke:#ffffff;stroke-linecap:round;"/>
     </g>
     <g id="text_14">
      <!-- 30 -->
      <defs>
       <path d="M 40.578125 39.3125 
Q 47.65625 37.796875 51.625 33 
Q 55.609375 28.21875 55.609375 21.1875 
Q 55.609375 10.40625 48.1875 4.484375 
Q 40.765625 -1.421875 27.09375 -1.421875 
Q 22.515625 -1.421875 17.65625 -0.515625 
Q 12.796875 0.390625 7.625 2.203125 
L 7.625 11.71875 
Q 11.71875 9.328125 16.59375 8.109375 
Q 21.484375 6.890625 26.8125 6.890625 
Q 36.078125 6.890625 40.9375 10.546875 
Q 45.796875 14.203125 45.796875 21.1875 
Q 45.796875 27.640625 41.28125 31.265625 
Q 36.765625 34.90625 28.71875 34.90625 
L 20.21875 34.90625 
L 20.21875 43.015625 
L 29.109375 43.015625 
Q 36.375 43.015625 40.234375 45.921875 
Q 44.09375 48.828125 44.09375 54.296875 
Q 44.09375 59.90625 40.109375 62.90625 
Q 36.140625 65.921875 28.71875 65.921875 
Q 24.65625 65.921875 20.015625 65.03125 
Q 15.375 64.15625 9.8125 62.3125 
L 9.8125 71.09375 
Q 15.4375 72.65625 20.34375 73.4375 
Q 25.25 74.21875 29.59375 74.21875 
Q 40.828125 74.21875 47.359375 69.109375 
Q 53.90625 64.015625 53.90625 55.328125 
Q 53.90625 49.265625 50.4375 45.09375 
Q 46.96875 40.921875 40.578125 39.3125 
z
" id="DejaVuSans-51"/>
      </defs>
      <g style="fill:#262626;" transform="translate(22.81375 43.129266)scale(0.11 -0.11)">
       <use xlink:href="#DejaVuSans-51"/>
       <use x="63.623047" xlink:href="#DejaVuSans-48"/>
      </g>
     </g>
    </g>
    <g id="text_15">
     <!-- Effective Rank - Mean over Batches -->
     <defs>
      <path d="M 9.8125 72.90625 
L 55.90625 72.90625 
L 55.90625 64.59375 
L 19.671875 64.59375 
L 19.671875 43.015625 
L 54.390625 43.015625 
L 54.390625 34.71875 
L 19.671875 34.71875 
L 19.671875 8.296875 
L 56.78125 8.296875 
L 56.78125 0 
L 9.8125 0 
z
" id="DejaVuSans-69"/>
      <path d="M 37.109375 75.984375 
L 37.109375 68.5 
L 28.515625 68.5 
Q 23.6875 68.5 21.796875 66.546875 
Q 19.921875 64.59375 19.921875 59.515625 
L 19.921875 54.6875 
L 34.71875 54.6875 
L 34.71875 47.703125 
L 19.921875 47.703125 
L 19.921875 0 
L 10.890625 0 
L 10.890625 47.703125 
L 2.296875 47.703125 
L 2.296875 54.6875 
L 10.890625 54.6875 
L 10.890625 58.5 
Q 10.890625 67.625 15.140625 71.796875 
Q 19.390625 75.984375 28.609375 75.984375 
z
" id="DejaVuSans-102"/>
      <path d="M 18.3125 70.21875 
L 18.3125 54.6875 
L 36.8125 54.6875 
L 36.8125 47.703125 
L 18.3125 47.703125 
L 18.3125 18.015625 
Q 18.3125 11.328125 20.140625 9.421875 
Q 21.96875 7.515625 27.59375 7.515625 
L 36.8125 7.515625 
L 36.8125 0 
L 27.59375 0 
Q 17.1875 0 13.234375 3.875 
Q 9.28125 7.765625 9.28125 18.015625 
L 9.28125 47.703125 
L 2.6875 47.703125 
L 2.6875 54.6875 
L 9.28125 54.6875 
L 9.28125 70.21875 
z
" id="DejaVuSans-116"/>
      <path d="M 9.421875 54.6875 
L 18.40625 54.6875 
L 18.40625 0 
L 9.421875 0 
z
M 9.421875 75.984375 
L 18.40625 75.984375 
L 18.40625 64.59375 
L 9.421875 64.59375 
z
" id="DejaVuSans-105"/>
      <path d="M 2.984375 54.6875 
L 12.5 54.6875 
L 29.59375 8.796875 
L 46.6875 54.6875 
L 56.203125 54.6875 
L 35.6875 0 
L 23.484375 0 
z
" id="DejaVuSans-118"/>
      <path id="DejaVuSans-32"/>
      <path d="M 44.390625 34.1875 
Q 47.5625 33.109375 50.5625 29.59375 
Q 53.5625 26.078125 56.59375 19.921875 
L 66.609375 0 
L 56 0 
L 46.6875 18.703125 
Q 43.0625 26.03125 39.671875 28.421875 
Q 36.28125 30.8125 30.421875 30.8125 
L 19.671875 30.8125 
L 19.671875 0 
L 9.8125 0 
L 9.8125 72.90625 
L 32.078125 72.90625 
Q 44.578125 72.90625 50.734375 67.671875 
Q 56.890625 62.453125 56.890625 51.90625 
Q 56.890625 45.015625 53.6875 40.46875 
Q 50.484375 35.9375 44.390625 34.1875 
z
M 19.671875 64.796875 
L 19.671875 38.921875 
L 32.078125 38.921875 
Q 39.203125 38.921875 42.84375 42.21875 
Q 46.484375 45.515625 46.484375 51.90625 
Q 46.484375 58.296875 42.84375 61.546875 
Q 39.203125 64.796875 32.078125 64.796875 
z
" id="DejaVuSans-82"/>
      <path d="M 34.28125 27.484375 
Q 23.390625 27.484375 19.1875 25 
Q 14.984375 22.515625 14.984375 16.5 
Q 14.984375 11.71875 18.140625 8.90625 
Q 21.296875 6.109375 26.703125 6.109375 
Q 34.1875 6.109375 38.703125 11.40625 
Q 43.21875 16.703125 43.21875 25.484375 
L 43.21875 27.484375 
z
M 52.203125 31.203125 
L 52.203125 0 
L 43.21875 0 
L 43.21875 8.296875 
Q 40.140625 3.328125 35.546875 0.953125 
Q 30.953125 -1.421875 24.3125 -1.421875 
Q 15.921875 -1.421875 10.953125 3.296875 
Q 6 8.015625 6 15.921875 
Q 6 25.140625 12.171875 29.828125 
Q 18.359375 34.515625 30.609375 34.515625 
L 43.21875 34.515625 
L 43.21875 35.40625 
Q 43.21875 41.609375 39.140625 45 
Q 35.0625 48.390625 27.6875 48.390625 
Q 23 48.390625 18.546875 47.265625 
Q 14.109375 46.140625 10.015625 43.890625 
L 10.015625 52.203125 
Q 14.9375 54.109375 19.578125 55.046875 
Q 24.21875 56 28.609375 56 
Q 40.484375 56 46.34375 49.84375 
Q 52.203125 43.703125 52.203125 31.203125 
z
" id="DejaVuSans-97"/>
      <path d="M 54.890625 33.015625 
L 54.890625 0 
L 45.90625 0 
L 45.90625 32.71875 
Q 45.90625 40.484375 42.875 44.328125 
Q 39.84375 48.1875 33.796875 48.1875 
Q 26.515625 48.1875 22.3125 43.546875 
Q 18.109375 38.921875 18.109375 30.90625 
L 18.109375 0 
L 9.078125 0 
L 9.078125 54.6875 
L 18.109375 54.6875 
L 18.109375 46.1875 
Q 21.34375 51.125 25.703125 53.5625 
Q 30.078125 56 35.796875 56 
Q 45.21875 56 50.046875 50.171875 
Q 54.890625 44.34375 54.890625 33.015625 
z
" id="DejaVuSans-110"/>
      <path d="M 9.078125 75.984375 
L 18.109375 75.984375 
L 18.109375 31.109375 
L 44.921875 54.6875 
L 56.390625 54.6875 
L 27.390625 29.109375 
L 57.625 0 
L 45.90625 0 
L 18.109375 26.703125 
L 18.109375 0 
L 9.078125 0 
z
" id="DejaVuSans-107"/>
      <path d="M 4.890625 31.390625 
L 31.203125 31.390625 
L 31.203125 23.390625 
L 4.890625 23.390625 
z
" id="DejaVuSans-45"/>
      <path d="M 9.8125 72.90625 
L 24.515625 72.90625 
L 43.109375 23.296875 
L 61.8125 72.90625 
L 76.515625 72.90625 
L 76.515625 0 
L 66.890625 0 
L 66.890625 64.015625 
L 48.09375 14.015625 
L 38.1875 14.015625 
L 19.390625 64.015625 
L 19.390625 0 
L 9.8125 0 
z
" id="DejaVuSans-77"/>
      <path d="M 41.109375 46.296875 
Q 39.59375 47.171875 37.8125 47.578125 
Q 36.03125 48 33.890625 48 
Q 26.265625 48 22.1875 43.046875 
Q 18.109375 38.09375 18.109375 28.8125 
L 18.109375 0 
L 9.078125 0 
L 9.078125 54.6875 
L 18.109375 54.6875 
L 18.109375 46.1875 
Q 20.953125 51.171875 25.484375 53.578125 
Q 30.03125 56 36.53125 56 
Q 37.453125 56 38.578125 55.875 
Q 39.703125 55.765625 41.0625 55.515625 
z
" id="DejaVuSans-114"/>
      <path d="M 19.671875 34.8125 
L 19.671875 8.109375 
L 35.5 8.109375 
Q 43.453125 8.109375 47.28125 11.40625 
Q 51.125 14.703125 51.125 21.484375 
Q 51.125 28.328125 47.28125 31.5625 
Q 43.453125 34.8125 35.5 34.8125 
z
M 19.671875 64.796875 
L 19.671875 42.828125 
L 34.28125 42.828125 
Q 41.5 42.828125 45.03125 45.53125 
Q 48.578125 48.25 48.578125 53.8125 
Q 48.578125 59.328125 45.03125 62.0625 
Q 41.5 64.796875 34.28125 64.796875 
z
M 9.8125 72.90625 
L 35.015625 72.90625 
Q 46.296875 72.90625 52.390625 68.21875 
Q 58.5 63.53125 58.5 54.890625 
Q 58.5 48.1875 55.375 44.234375 
Q 52.25 40.28125 46.1875 39.3125 
Q 53.46875 37.75 57.5 32.78125 
Q 61.53125 27.828125 61.53125 20.40625 
Q 61.53125 10.640625 54.890625 5.3125 
Q 48.25 0 35.984375 0 
L 9.8125 0 
z
" id="DejaVuSans-66"/>
      <path d="M 44.28125 53.078125 
L 44.28125 44.578125 
Q 40.484375 46.53125 36.375 47.5 
Q 32.28125 48.484375 27.875 48.484375 
Q 21.1875 48.484375 17.84375 46.4375 
Q 14.5 44.390625 14.5 40.28125 
Q 14.5 37.15625 16.890625 35.375 
Q 19.28125 33.59375 26.515625 31.984375 
L 29.59375 31.296875 
Q 39.15625 29.25 43.1875 25.515625 
Q 47.21875 21.78125 47.21875 15.09375 
Q 47.21875 7.46875 41.1875 3.015625 
Q 35.15625 -1.421875 24.609375 -1.421875 
Q 20.21875 -1.421875 15.453125 -0.5625 
Q 10.6875 0.296875 5.421875 2 
L 5.421875 11.28125 
Q 10.40625 8.6875 15.234375 7.390625 
Q 20.0625 6.109375 24.8125 6.109375 
Q 31.15625 6.109375 34.5625 8.28125 
Q 37.984375 10.453125 37.984375 14.40625 
Q 37.984375 18.0625 35.515625 20.015625 
Q 33.0625 21.96875 24.703125 23.78125 
L 21.578125 24.515625 
Q 13.234375 26.265625 9.515625 29.90625 
Q 5.8125 33.546875 5.8125 39.890625 
Q 5.8125 47.609375 11.28125 51.796875 
Q 16.75 56 26.8125 56 
Q 31.78125 56 36.171875 55.265625 
Q 40.578125 54.546875 44.28125 53.078125 
z
" id="DejaVuSans-115"/>
     </defs>
     <g style="fill:#262626;" transform="translate(16.318125 262.256625)rotate(-90)scale(0.12 -0.12)">
      <use xlink:href="#DejaVuSans-69"/>
      <use x="63.183594" xlink:href="#DejaVuSans-102"/>
      <use x="98.388672" xlink:href="#DejaVuSans-102"/>
      <use x="133.59375" xlink:href="#DejaVuSans-101"/>
      <use x="195.117188" xlink:href="#DejaVuSans-99"/>
      <use x="250.097656" xlink:href="#DejaVuSans-116"/>
      <use x="289.306641" xlink:href="#DejaVuSans-105"/>
      <use x="317.089844" xlink:href="#DejaVuSans-118"/>
      <use x="376.269531" xlink:href="#DejaVuSans-101"/>
      <use x="437.792969" xlink:href="#DejaVuSans-32"/>
      <use x="469.580078" xlink:href="#DejaVuSans-82"/>
      <use x="539.03125" xlink:href="#DejaVuSans-97"/>
      <use x="600.310547" xlink:href="#DejaVuSans-110"/>
      <use x="663.689453" xlink:href="#DejaVuSans-107"/>
      <use x="721.599609" xlink:href="#DejaVuSans-32"/>
      <use x="753.386719" xlink:href="#DejaVuSans-45"/>
      <use x="789.470703" xlink:href="#DejaVuSans-32"/>
      <use x="821.257812" xlink:href="#DejaVuSans-77"/>
      <use x="907.537109" xlink:href="#DejaVuSans-101"/>
      <use x="969.060547" xlink:href="#DejaVuSans-97"/>
      <use x="1030.339844" xlink:href="#DejaVuSans-110"/>
      <use x="1093.71875" xlink:href="#DejaVuSans-32"/>
      <use x="1125.505859" xlink:href="#DejaVuSans-111"/>
      <use x="1186.6875" xlink:href="#DejaVuSans-118"/>
      <use x="1245.867188" xlink:href="#DejaVuSans-101"/>
      <use x="1307.390625" xlink:href="#DejaVuSans-114"/>
      <use x="1348.503906" xlink:href="#DejaVuSans-32"/>
      <use x="1380.291016" xlink:href="#DejaVuSans-66"/>
      <use x="1448.894531" xlink:href="#DejaVuSans-97"/>
      <use x="1510.173828" xlink:href="#DejaVuSans-116"/>
      <use x="1549.382812" xlink:href="#DejaVuSans-99"/>
      <use x="1604.363281" xlink:href="#DejaVuSans-104"/>
      <use x="1667.742188" xlink:href="#DejaVuSans-101"/>
      <use x="1729.265625" xlink:href="#DejaVuSans-115"/>
     </g>
    </g>
   </g>
   <g id="PolyCollection_1">
    <defs>
     <path d="M 62.543977 -111.718809 
L 62.543977 -111.617395 
L 65.856779 -115.978224 
L 69.16958 -116.079639 
L 72.482382 -113.341444 
L 75.795183 -112.530127 
L 79.107985 -112.732956 
L 82.420786 -111.008907 
L 85.733588 -110.299005 
L 89.046389 -111.008907 
L 92.359191 -109.690517 
L 95.671992 -109.589102 
L 98.984794 -109.487687 
L 102.297595 -110.096175 
L 105.610397 -108.270712 
L 108.923198 -108.270712 
L 112.236 -108.169297 
L 115.548801 -109.893346 
L 118.861603 -107.865053 
L 122.174404 -108.270712 
L 125.487205 -107.662224 
L 128.800007 -106.648078 
L 132.112808 -107.560809 
L 135.42561 -106.749492 
L 138.738411 -106.445248 
L 142.051213 -107.053736 
L 145.364014 -106.952322 
L 148.676816 -106.141005 
L 151.989617 -106.141005 
L 155.302419 -106.03959 
L 158.61522 -105.735346 
L 161.928022 -105.228273 
L 165.240823 -105.532517 
L 168.553625 -106.648078 
L 171.866426 -105.025444 
L 175.179228 -105.228273 
L 178.492029 -104.822614 
L 181.804831 -104.7212 
L 185.117632 -105.329687 
L 188.430434 -105.431102 
L 191.743235 -104.416956 
L 195.056037 -104.924029 
L 198.368838 -105.228273 
L 201.68164 -104.416956 
L 204.994441 -104.416956 
L 208.307243 -104.7212 
L 211.620044 -103.19998 
L 214.932846 -104.7212 
L 218.245647 -104.315541 
L 221.558449 -104.315541 
L 224.87125 -104.315541 
L 228.184051 -103.301395 
L 231.496853 -103.808468 
L 234.809654 -102.591492 
L 238.122456 -103.098566 
L 241.435257 -103.707053 
L 244.748059 -102.591492 
L 248.06086 -103.605639 
L 251.373662 -103.504224 
L 254.686463 -102.287248 
L 257.999265 -102.388663 
L 261.312066 -102.997151 
L 264.624868 -102.185834 
L 267.937669 -102.388663 
L 271.250471 -100.968858 
L 274.563272 -101.171687 
L 277.876074 -101.475931 
L 281.188875 -102.388663 
L 284.501677 -103.301395 
L 287.814478 -103.605639 
L 291.12728 -101.577346 
L 294.440081 -103.098566 
L 297.752883 -102.591492 
L 301.065684 -100.664614 
L 304.378486 -102.794322 
L 307.691287 -100.766029 
L 311.004089 -101.374517 
L 314.31689 -100.664614 
L 317.629692 -101.983005 
L 320.942493 -100.766029 
L 324.255295 -99.954712 
L 327.568096 -101.273102 
L 330.880897 -100.5632 
L 334.193699 -100.36037 
L 337.5065 -101.678761 
L 340.819302 -100.968858 
L 344.132103 -101.070273 
L 347.444905 -100.461785 
L 350.757706 -100.36037 
L 354.070508 -101.070273 
L 357.383309 -100.664614 
L 360.696111 -101.374517 
L 364.008912 -100.968858 
L 367.321714 -101.374517 
L 370.634515 -101.070273 
L 373.947317 -100.5632 
L 377.260118 -99.143395 
L 380.57292 -100.5632 
L 383.885721 -100.258956 
L 387.198523 -99.751883 
L 387.198523 -100.5632 
L 387.198523 -100.5632 
L 383.885721 -101.88159 
L 380.57292 -101.475931 
L 377.260118 -100.766029 
L 373.947317 -100.766029 
L 370.634515 -101.577346 
L 367.321714 -101.780175 
L 364.008912 -101.273102 
L 360.696111 -101.983005 
L 357.383309 -101.475931 
L 354.070508 -102.185834 
L 350.757706 -102.084419 
L 347.444905 -101.678761 
L 344.132103 -101.273102 
L 340.819302 -102.591492 
L 337.5065 -101.678761 
L 334.193699 -102.490078 
L 330.880897 -103.402809 
L 327.568096 -101.678761 
L 324.255295 -102.490078 
L 320.942493 -102.490078 
L 317.629692 -103.19998 
L 314.31689 -102.490078 
L 311.004089 -102.490078 
L 307.691287 -101.983005 
L 304.378486 -104.112712 
L 301.065684 -103.504224 
L 297.752883 -102.895736 
L 294.440081 -103.402809 
L 291.12728 -104.416956 
L 287.814478 -104.214127 
L 284.501677 -103.909883 
L 281.188875 -103.402809 
L 277.876074 -103.402809 
L 274.563272 -103.504224 
L 271.250471 -103.605639 
L 267.937669 -104.416956 
L 264.624868 -104.011297 
L 261.312066 -103.605639 
L 257.999265 -104.214127 
L 254.686463 -104.924029 
L 251.373662 -104.416956 
L 248.06086 -103.909883 
L 244.748059 -104.011297 
L 241.435257 -104.011297 
L 238.122456 -104.619785 
L 234.809654 -105.126858 
L 231.496853 -105.329687 
L 228.184051 -105.836761 
L 224.87125 -106.141005 
L 221.558449 -106.850907 
L 218.245647 -104.416956 
L 214.932846 -105.532517 
L 211.620044 -104.112712 
L 208.307243 -104.7212 
L 204.994441 -105.735346 
L 201.68164 -106.03959 
L 198.368838 -105.329687 
L 195.056037 -106.850907 
L 191.743235 -106.445248 
L 188.430434 -105.633931 
L 185.117632 -106.242419 
L 181.804831 -107.155151 
L 178.492029 -104.924029 
L 175.179228 -106.445248 
L 171.866426 -106.242419 
L 168.553625 -106.850907 
L 165.240823 -106.850907 
L 161.928022 -106.952322 
L 158.61522 -105.938175 
L 155.302419 -106.546663 
L 151.989617 -108.574956 
L 148.676816 -106.343834 
L 145.364014 -108.372127 
L 142.051213 -108.067883 
L 138.738411 -106.546663 
L 135.42561 -106.952322 
L 132.112808 -107.662224 
L 128.800007 -107.865053 
L 125.487205 -108.980614 
L 122.174404 -108.8792 
L 118.861603 -108.980614 
L 115.548801 -109.893346 
L 112.236 -110.096175 
L 108.923198 -110.603248 
L 105.610397 -109.589102 
L 102.297595 -110.603248 
L 98.984794 -110.096175 
L 95.671992 -109.893346 
L 92.359191 -110.907492 
L 89.046389 -111.414566 
L 85.733588 -111.211736 
L 82.420786 -113.0372 
L 79.107985 -113.0372 
L 75.795183 -114.659834 
L 72.482382 -116.383883 
L 69.16958 -116.890956 
L 65.856779 -117.398029 
L 62.543977 -111.718809 
z
" id="m0d2190eab9" style="stroke:#1f77b4;stroke-opacity:0.2;"/>
    </defs>
    <g clip-path="url(#pfdfca6b6b6)">
     <use style="fill:#1f77b4;fill-opacity:0.2;stroke:#1f77b4;stroke-opacity:0.2;" x="0" xlink:href="#m0d2190eab9" y="331.389812"/>
    </g>
   </g>
   <g id="PolyCollection_2">
    <defs>
     <path d="M 62.543977 -233.213541 
L 62.543977 -227.838566 
L 65.856779 -180.173687 
L 69.16958 -165.265736 
L 72.482382 -157.25398 
L 75.795183 -153.400224 
L 79.107985 -150.154956 
L 82.420786 -149.546468 
L 85.733588 -144.577151 
L 89.046389 -144.374322 
L 92.359191 -140.926224 
L 95.671992 -138.593687 
L 98.984794 -137.478127 
L 102.297595 -138.796517 
L 105.610397 -138.289444 
L 108.923198 -136.869639 
L 112.236 -137.173883 
L 115.548801 -134.841346 
L 118.861603 -135.348419 
L 122.174404 -133.421541 
L 125.487205 -133.8272 
L 128.800007 -133.015883 
L 132.112808 -131.393248 
L 135.42561 -132.711639 
L 138.738411 -130.581931 
L 142.051213 -130.379102 
L 145.364014 -130.98759 
L 148.676816 -129.46637 
L 151.989617 -131.089005 
L 155.302419 -130.886175 
L 158.61522 -130.379102 
L 161.928022 -129.872029 
L 165.240823 -129.263541 
L 168.553625 -129.162127 
L 171.866426 -128.046566 
L 175.179228 -127.640907 
L 178.492029 -126.423931 
L 181.804831 -126.728175 
L 185.117632 -126.018273 
L 188.430434 -125.30837 
L 191.743235 -124.598468 
L 195.056037 -124.395639 
L 198.368838 -125.105541 
L 201.68164 -124.192809 
L 204.994441 -122.67159 
L 208.307243 -122.367346 
L 211.620044 -122.874419 
L 214.932846 -121.961687 
L 218.245647 -124.395639 
L 221.558449 -124.192809 
L 224.87125 -123.482907 
L 228.184051 -123.077248 
L 231.496853 -123.280078 
L 234.809654 -123.888566 
L 238.122456 -122.367346 
L 241.435257 -122.570175 
L 244.748059 -120.440468 
L 248.06086 -120.034809 
L 251.373662 -121.758858 
L 254.686463 -119.527736 
L 257.999265 -120.339053 
L 261.312066 -119.426322 
L 264.624868 -119.324907 
L 267.937669 -121.048956 
L 271.250471 -120.237639 
L 274.563272 -119.324907 
L 277.876074 -118.412175 
L 281.188875 -119.223492 
L 284.501677 -119.020663 
L 287.814478 -118.209346 
L 291.12728 -119.426322 
L 294.440081 -118.107931 
L 297.752883 -118.716419 
L 301.065684 -117.1952 
L 304.378486 -118.209346 
L 307.691287 -117.803687 
L 311.004089 -117.905102 
L 314.31689 -118.006517 
L 317.629692 -117.093785 
L 320.942493 -116.789541 
L 324.255295 -117.296614 
L 327.568096 -116.282468 
L 330.880897 -115.775395 
L 334.193699 -116.181053 
L 337.5065 -115.166907 
L 340.819302 -115.978224 
L 344.132103 -114.964078 
L 347.444905 -115.369736 
L 350.757706 -115.065492 
L 354.070508 -113.848517 
L 357.383309 -115.471151 
L 360.696111 -114.964078 
L 364.008912 -115.572566 
L 367.321714 -114.457005 
L 370.634515 -113.442858 
L 373.947317 -113.544273 
L 377.260118 -113.341444 
L 380.57292 -114.862663 
L 383.885721 -112.935785 
L 387.198523 -114.152761 
L 387.198523 -115.67398 
L 387.198523 -115.67398 
L 383.885721 -115.166907 
L 380.57292 -114.862663 
L 377.260118 -116.181053 
L 373.947317 -115.978224 
L 370.634515 -116.688127 
L 367.321714 -114.862663 
L 364.008912 -116.383883 
L 360.696111 -119.122078 
L 357.383309 -115.978224 
L 354.070508 -115.876809 
L 350.757706 -116.99237 
L 347.444905 -116.485297 
L 344.132103 -115.67398 
L 340.819302 -117.803687 
L 337.5065 -117.803687 
L 334.193699 -117.296614 
L 330.880897 -116.586712 
L 327.568096 -116.789541 
L 324.255295 -117.702273 
L 320.942493 -118.006517 
L 317.629692 -117.1952 
L 314.31689 -118.817834 
L 311.004089 -118.006517 
L 307.691287 -118.107931 
L 304.378486 -118.919248 
L 301.065684 -117.499444 
L 297.752883 -119.933395 
L 294.440081 -120.744712 
L 291.12728 -119.933395 
L 287.814478 -119.527736 
L 284.501677 -119.426322 
L 281.188875 -121.048956 
L 277.876074 -119.83198 
L 274.563272 -119.730566 
L 271.250471 -120.947541 
L 267.937669 -122.367346 
L 264.624868 -122.367346 
L 261.312066 -120.643297 
L 257.999265 -122.265931 
L 254.686463 -124.497053 
L 251.373662 -122.265931 
L 248.06086 -122.164517 
L 244.748059 -122.063102 
L 241.435257 -123.280078 
L 238.122456 -122.67159 
L 234.809654 -124.294224 
L 231.496853 -123.685736 
L 228.184051 -124.598468 
L 224.87125 -123.584322 
L 221.558449 -125.5112 
L 218.245647 -125.714029 
L 214.932846 -124.497053 
L 211.620044 -126.221102 
L 208.307243 -125.612614 
L 204.994441 -125.612614 
L 201.68164 -125.916858 
L 198.368838 -125.30837 
L 195.056037 -125.5112 
L 191.743235 -125.714029 
L 188.430434 -127.032419 
L 185.117632 -127.539492 
L 181.804831 -128.14798 
L 178.492029 -127.336663 
L 175.179228 -129.770614 
L 171.866426 -128.553639 
L 168.553625 -129.46637 
L 165.240823 -129.364956 
L 161.928022 -130.379102 
L 158.61522 -131.494663 
L 155.302419 -130.886175 
L 151.989617 -133.522956 
L 148.676816 -132.711639 
L 145.364014 -132.610224 
L 142.051213 -131.596078 
L 138.738411 -133.015883 
L 135.42561 -134.334273 
L 132.112808 -133.928614 
L 128.800007 -133.725785 
L 125.487205 -137.883785 
L 122.174404 -137.579541 
L 118.861603 -137.9852 
L 115.548801 -137.78237 
L 112.236 -137.275297 
L 108.923198 -138.492273 
L 105.610397 -140.216322 
L 102.297595 -140.216322 
L 98.984794 -140.62198 
L 95.671992 -145.185639 
L 92.359191 -142.346029 
L 89.046389 -145.996956 
L 85.733588 -148.532322 
L 82.420786 -151.067687 
L 79.107985 -156.442663 
L 75.795183 -158.065297 
L 72.482382 -160.803492 
L 69.16958 -165.265736 
L 65.856779 -185.04159 
L 62.543977 -233.213541 
z
" id="mb83139a709" style="stroke:#ff7f0e;stroke-opacity:0.2;"/>
    </defs>
    <g clip-path="url(#pfdfca6b6b6)">
     <use style="fill:#ff7f0e;fill-opacity:0.2;stroke:#ff7f0e;stroke-opacity:0.2;" x="0" xlink:href="#mb83139a709" y="331.389812"/>
    </g>
   </g>
   <g id="PolyCollection_3">
    <defs>
     <path d="M 62.543977 -243.355005 
L 62.543977 -236.357395 
L 65.856779 -196.298614 
L 69.16958 -176.218517 
L 72.482382 -169.119492 
L 75.795183 -169.119492 
L 79.107985 -161.209151 
L 82.420786 -157.152566 
L 85.733588 -156.746907 
L 89.046389 -156.544078 
L 92.359191 -157.761053 
L 95.671992 -155.124273 
L 98.984794 -153.09598 
L 102.297595 -150.357785 
L 105.610397 -147.315346 
L 108.923198 -146.402614 
L 112.236 -145.996956 
L 115.548801 -146.402614 
L 118.861603 -143.258761 
L 122.174404 -145.996956 
L 125.487205 -144.678566 
L 128.800007 -140.926224 
L 132.112808 -140.926224 
L 135.42561 -141.027639 
L 138.738411 -139.912078 
L 142.051213 -139.30359 
L 145.364014 -138.289444 
L 148.676816 -136.869639 
L 151.989617 -135.855492 
L 155.302419 -136.058322 
L 158.61522 -138.086614 
L 161.928022 -138.289444 
L 165.240823 -137.173883 
L 168.553625 -134.942761 
L 171.866426 -135.652663 
L 175.179228 -136.362566 
L 178.492029 -133.320127 
L 181.804831 -134.841346 
L 185.117632 -134.232858 
L 188.430434 -132.610224 
L 191.743235 -132.407395 
L 195.056037 -130.176273 
L 198.368838 -132.30598 
L 201.68164 -132.30598 
L 204.994441 -130.074858 
L 208.307243 -130.98759 
L 211.620044 -130.683346 
L 214.932846 -130.683346 
L 218.245647 -128.857883 
L 221.558449 -129.162127 
L 224.87125 -130.683346 
L 228.184051 -128.655053 
L 231.496853 -129.770614 
L 234.809654 -129.060712 
L 238.122456 -127.945151 
L 241.435257 -127.336663 
L 244.748059 -128.14798 
L 248.06086 -127.032419 
L 251.373662 -128.452224 
L 254.686463 -127.640907 
L 257.999265 -127.133834 
L 261.312066 -125.916858 
L 264.624868 -127.539492 
L 267.937669 -126.931005 
L 271.250471 -126.018273 
L 274.563272 -126.322517 
L 277.876074 -127.742322 
L 281.188875 -126.018273 
L 284.501677 -126.018273 
L 287.814478 -125.815444 
L 291.12728 -126.119687 
L 294.440081 -126.931005 
L 297.752883 -125.916858 
L 301.065684 -123.482907 
L 304.378486 -125.714029 
L 307.691287 -126.221102 
L 311.004089 -125.714029 
L 314.31689 -124.091395 
L 317.629692 -125.30837 
L 320.942493 -124.091395 
L 324.255295 -123.888566 
L 327.568096 -121.657444 
L 330.880897 -123.685736 
L 334.193699 -122.063102 
L 337.5065 -122.773005 
L 340.819302 -122.063102 
L 344.132103 -119.223492 
L 347.444905 -119.324907 
L 350.757706 -121.251785 
L 354.070508 -119.223492 
L 357.383309 -119.527736 
L 360.696111 -119.223492 
L 364.008912 -118.209346 
L 367.321714 -117.803687 
L 370.634515 -119.020663 
L 373.947317 -118.919248 
L 377.260118 -117.499444 
L 380.57292 -116.688127 
L 383.885721 -116.181053 
L 387.198523 -116.688127 
L 387.198523 -120.440468 
L 387.198523 -120.440468 
L 383.885721 -120.643297 
L 380.57292 -121.657444 
L 377.260118 -121.860273 
L 373.947317 -122.063102 
L 370.634515 -122.367346 
L 367.321714 -121.961687 
L 364.008912 -123.584322 
L 360.696111 -122.367346 
L 357.383309 -123.482907 
L 354.070508 -122.874419 
L 350.757706 -123.280078 
L 347.444905 -125.105541 
L 344.132103 -123.888566 
L 340.819302 -123.787151 
L 337.5065 -124.497053 
L 334.193699 -125.004127 
L 330.880897 -125.105541 
L 327.568096 -125.206956 
L 324.255295 -127.133834 
L 320.942493 -126.119687 
L 317.629692 -127.539492 
L 314.31689 -127.336663 
L 311.004089 -126.221102 
L 307.691287 -126.626761 
L 304.378486 -128.655053 
L 301.065684 -126.423931 
L 297.752883 -128.249395 
L 294.440081 -127.438078 
L 291.12728 -127.640907 
L 287.814478 -126.322517 
L 284.501677 -126.82959 
L 281.188875 -128.046566 
L 277.876074 -128.350809 
L 274.563272 -128.553639 
L 271.250471 -128.249395 
L 267.937669 -130.074858 
L 264.624868 -127.843736 
L 261.312066 -128.959297 
L 257.999265 -128.452224 
L 254.686463 -127.843736 
L 251.373662 -129.770614 
L 248.06086 -127.336663 
L 244.748059 -129.060712 
L 241.435257 -128.553639 
L 238.122456 -128.756468 
L 234.809654 -129.872029 
L 231.496853 -131.596078 
L 228.184051 -129.263541 
L 224.87125 -131.697492 
L 221.558449 -130.886175 
L 218.245647 -130.480517 
L 214.932846 -132.103151 
L 211.620044 -133.421541 
L 208.307243 -132.001736 
L 204.994441 -130.784761 
L 201.68164 -133.522956 
L 198.368838 -135.348419 
L 195.056037 -136.362566 
L 191.743235 -135.14559 
L 188.430434 -136.971053 
L 185.117632 -137.579541 
L 181.804831 -138.188029 
L 178.492029 -138.593687 
L 175.179228 -138.390858 
L 171.866426 -140.317736 
L 168.553625 -140.114907 
L 165.240823 -138.086614 
L 161.928022 -140.216322 
L 158.61522 -140.419151 
L 155.302419 -140.62198 
L 151.989617 -140.216322 
L 148.676816 -140.419151 
L 145.364014 -142.548858 
L 142.051213 -141.737541 
L 138.738411 -142.751688 
L 135.42561 -143.46159 
L 132.112808 -143.765834 
L 128.800007 -143.968663 
L 125.487205 -144.881395 
L 122.174404 -149.039395 
L 118.861603 -146.808273 
L 115.548801 -147.315346 
L 112.236 -148.329492 
L 108.923198 -147.721005 
L 105.610397 -150.154956 
L 102.297595 -153.09598 
L 98.984794 -155.327102 
L 95.671992 -155.631346 
L 92.359191 -157.862468 
L 89.046389 -159.789346 
L 85.733588 -159.992175 
L 82.420786 -164.657248 
L 79.107985 -165.265736 
L 75.795183 -170.133639 
L 72.482382 -172.364761 
L 69.16958 -182.20198 
L 65.856779 -199.848127 
L 62.543977 -243.355005 
z
" id="m3b3ebbaad0" style="stroke:#2ca02c;stroke-opacity:0.2;"/>
    </defs>
    <g clip-path="url(#pfdfca6b6b6)">
     <use style="fill:#2ca02c;fill-opacity:0.2;stroke:#2ca02c;stroke-opacity:0.2;" x="0" xlink:href="#m3b3ebbaad0" y="331.389812"/>
    </g>
   </g>
   <g id="PolyCollection_4">
    <defs>
     <path d="M 62.543977 -277.328907 
L 62.543977 -274.185053 
L 65.856779 -267.086029 
L 69.16958 -268.708663 
L 72.482382 -263.536517 
L 75.795183 -260.189834 
L 79.107985 -257.04598 
L 82.420786 -262.015297 
L 85.733588 -257.958712 
L 89.046389 -263.536517 
L 92.359191 -256.437492 
L 95.671992 -264.652078 
L 98.984794 -263.029444 
L 102.297595 -258.5672 
L 105.610397 -258.36437 
L 108.923198 -248.020078 
L 112.236 -254.814858 
L 115.548801 -252.178078 
L 118.861603 -252.482322 
L 122.174404 -249.946956 
L 125.487205 -245.687541 
L 128.800007 -254.4092 
L 132.112808 -252.786566 
L 135.42561 -249.034224 
L 138.738411 -248.72998 
L 142.051213 -248.628566 
L 145.364014 -248.72998 
L 148.676816 -247.918663 
L 151.989617 -251.062517 
L 155.302419 -257.147395 
L 158.61522 -259.479931 
L 161.928022 -248.628566 
L 165.240823 -254.814858 
L 168.553625 -248.831395 
L 171.866426 -256.944566 
L 175.179228 -253.395053 
L 178.492029 -256.336078 
L 181.804831 -248.527151 
L 185.117632 -249.642712 
L 188.430434 -252.583736 
L 191.743235 -256.437492 
L 195.056037 -255.423346 
L 198.368838 -251.163931 
L 201.68164 -251.163931 
L 204.994441 -250.555444 
L 208.307243 -253.699297 
L 211.620044 -249.946956 
L 214.932846 -256.843151 
L 218.245647 -256.741736 
L 221.558449 -251.062517 
L 224.87125 -250.961102 
L 228.184051 -248.831395 
L 231.496853 -253.597883 
L 234.809654 -253.192224 
L 238.122456 -254.510614 
L 241.435257 -256.843151 
L 244.748059 -246.701687 
L 248.06086 -246.600273 
L 251.373662 -256.336078 
L 254.686463 -256.437492 
L 257.999265 -250.758273 
L 261.312066 -259.581346 
L 264.624868 -256.031834 
L 267.937669 -252.279492 
L 271.250471 -257.147395 
L 274.563272 -249.338468 
L 277.876074 -255.930419 
L 281.188875 -255.524761 
L 284.501677 -250.149785 
L 287.814478 -258.5672 
L 291.12728 -254.003541 
L 294.440081 -248.831395 
L 297.752883 -251.062517 
L 301.065684 -252.279492 
L 304.378486 -257.451639 
L 307.691287 -253.192224 
L 311.004089 -255.930419 
L 314.31689 -256.133248 
L 317.629692 -252.076663 
L 320.942493 -250.2512 
L 324.255295 -254.003541 
L 327.568096 -248.932809 
L 330.880897 -255.220517 
L 334.193699 -251.062517 
L 337.5065 -252.88798 
L 340.819302 -249.946956 
L 344.132103 -249.744127 
L 347.444905 -252.583736 
L 350.757706 -254.20637 
L 354.070508 -249.744127 
L 357.383309 -254.713444 
L 360.696111 -245.586127 
L 364.008912 -252.482322 
L 367.321714 -249.744127 
L 370.634515 -252.583736 
L 373.947317 -254.713444 
L 377.260118 -252.685151 
L 380.57292 -253.090809 
L 383.885721 -251.366761 
L 387.198523 -250.555444 
L 387.198523 -252.076663 
L 387.198523 -252.076663 
L 383.885721 -255.321931 
L 380.57292 -261.812468 
L 377.260118 -255.423346 
L 373.947317 -257.04598 
L 370.634515 -253.902127 
L 367.321714 -252.786566 
L 364.008912 -260.392663 
L 360.696111 -257.755883 
L 357.383309 -259.682761 
L 354.070508 -262.319541 
L 350.757706 -256.437492 
L 347.444905 -255.220517 
L 344.132103 -255.017687 
L 340.819302 -252.482322 
L 337.5065 -254.307785 
L 334.193699 -253.699297 
L 330.880897 -260.899736 
L 327.568096 -250.454029 
L 324.255295 -256.944566 
L 320.942493 -251.772419 
L 317.629692 -252.685151 
L 314.31689 -256.538907 
L 311.004089 -256.133248 
L 307.691287 -261.913883 
L 304.378486 -263.435102 
L 301.065684 -255.423346 
L 297.752883 -259.074273 
L 294.440081 -251.975248 
L 291.12728 -262.623785 
L 287.814478 -260.291248 
L 284.501677 -250.555444 
L 281.188875 -260.798322 
L 277.876074 -256.437492 
L 274.563272 -250.352614 
L 271.250471 -257.755883 
L 267.937669 -258.668614 
L 264.624868 -258.36437 
L 261.312066 -261.508224 
L 257.999265 -256.640322 
L 254.686463 -258.060127 
L 251.373662 -259.378517 
L 248.06086 -254.104956 
L 244.748059 -256.234663 
L 241.435257 -259.277102 
L 238.122456 -259.378517 
L 234.809654 -255.017687 
L 231.496853 -253.597883 
L 228.184051 -249.034224 
L 224.87125 -252.786566 
L 221.558449 -256.133248 
L 218.245647 -257.04598 
L 214.932846 -257.350224 
L 211.620044 -254.003541 
L 208.307243 -257.958712 
L 204.994441 -260.494078 
L 201.68164 -251.265346 
L 198.368838 -258.668614 
L 195.056037 -261.609639 
L 191.743235 -260.088419 
L 188.430434 -257.248809 
L 185.117632 -257.350224 
L 181.804831 -263.029444 
L 178.492029 -259.987005 
L 175.179228 -267.897346 
L 171.866426 -262.52237 
L 168.553625 -259.277102 
L 165.240823 -258.972858 
L 161.928022 -256.538907 
L 158.61522 -260.798322 
L 155.302419 -263.333687 
L 151.989617 -256.031834 
L 148.676816 -264.246419 
L 145.364014 -259.378517 
L 142.051213 -260.798322 
L 138.738411 -257.451639 
L 135.42561 -253.597883 
L 132.112808 -254.510614 
L 128.800007 -254.916273 
L 125.487205 -248.831395 
L 122.174404 -253.090809 
L 118.861603 -254.003541 
L 115.548801 -252.482322 
L 112.236 -259.175687 
L 108.923198 -248.222907 
L 105.610397 -260.494078 
L 102.297595 -260.291248 
L 98.984794 -264.145005 
L 95.671992 -264.956322 
L 92.359191 -266.578956 
L 89.046389 -263.536517 
L 85.733588 -258.262956 
L 82.420786 -263.536517 
L 79.107985 -262.928029 
L 75.795183 -267.694517 
L 72.482382 -268.303005 
L 69.16958 -270.128468 
L 65.856779 -271.446858 
L 62.543977 -277.328907 
z
" id="m91e14fe35d" style="stroke:#d62728;stroke-opacity:0.2;"/>
    </defs>
    <g clip-path="url(#pfdfca6b6b6)">
     <use style="fill:#d62728;fill-opacity:0.2;stroke:#d62728;stroke-opacity:0.2;" x="0" xlink:href="#m91e14fe35d" y="331.389812"/>
    </g>
   </g>
   <g id="PolyCollection_5">
    <defs>
     <path d="M 62.543977 -152.690322 
L 62.543977 -152.588907 
L 65.856779 -151.980419 
L 69.16958 -151.067687 
L 72.482382 -151.371931 
L 75.795183 -151.270517 
L 79.107985 -150.560614 
L 82.420786 -150.357785 
L 85.733588 -149.749297 
L 89.046389 -152.183248 
L 92.359191 -151.067687 
L 95.671992 -151.371931 
L 98.984794 -151.676175 
L 102.297595 -151.879005 
L 105.610397 -151.574761 
L 108.923198 -151.371931 
L 112.236 -151.169102 
L 115.548801 -151.77759 
L 118.861603 -150.763444 
L 122.174404 -151.574761 
L 125.487205 -152.791736 
L 128.800007 -151.473346 
L 132.112808 -150.662029 
L 135.42561 -151.169102 
L 138.738411 -150.763444 
L 142.051213 -150.053541 
L 145.364014 -149.749297 
L 148.676816 -149.850712 
L 151.989617 -152.284663 
L 155.302419 -149.850712 
L 158.61522 -152.284663 
L 161.928022 -150.763444 
L 165.240823 -151.676175 
L 168.553625 -151.879005 
L 171.866426 -151.169102 
L 175.179228 -150.662029 
L 178.492029 -149.952127 
L 181.804831 -151.77759 
L 185.117632 -152.081834 
L 188.430434 -151.574761 
L 191.743235 -151.574761 
L 195.056037 -150.763444 
L 198.368838 -151.473346 
L 201.68164 -150.662029 
L 204.994441 -149.850712 
L 208.307243 -150.763444 
L 211.620044 -153.197395 
L 214.932846 -151.473346 
L 218.245647 -152.183248 
L 221.558449 -151.980419 
L 224.87125 -152.994566 
L 228.184051 -151.676175 
L 231.496853 -151.067687 
L 234.809654 -150.864858 
L 238.122456 -151.270517 
L 241.435257 -151.980419 
L 244.748059 -151.574761 
L 248.06086 -150.662029 
L 251.373662 -150.864858 
L 254.686463 -151.371931 
L 257.999265 -151.574761 
L 261.312066 -152.386078 
L 264.624868 -150.4592 
L 267.937669 -150.357785 
L 271.250471 -151.676175 
L 274.563272 -150.154956 
L 277.876074 -150.154956 
L 281.188875 -152.690322 
L 284.501677 -151.879005 
L 287.814478 -151.067687 
L 291.12728 -150.864858 
L 294.440081 -151.676175 
L 297.752883 -152.183248 
L 301.065684 -149.952127 
L 304.378486 -151.169102 
L 307.691287 -150.4592 
L 311.004089 -151.980419 
L 314.31689 -150.763444 
L 317.629692 -149.850712 
L 320.942493 -150.966273 
L 324.255295 -151.169102 
L 327.568096 -150.357785 
L 330.880897 -151.270517 
L 334.193699 -152.081834 
L 337.5065 -151.980419 
L 340.819302 -151.371931 
L 344.132103 -150.560614 
L 347.444905 -150.357785 
L 350.757706 -151.879005 
L 354.070508 -151.574761 
L 357.383309 -150.560614 
L 360.696111 -153.197395 
L 364.008912 -151.574761 
L 367.321714 -150.864858 
L 370.634515 -150.4592 
L 373.947317 -152.791736 
L 377.260118 -150.25637 
L 380.57292 -150.357785 
L 383.885721 -150.763444 
L 387.198523 -150.560614 
L 387.198523 -151.676175 
L 387.198523 -151.676175 
L 383.885721 -151.879005 
L 380.57292 -152.690322 
L 377.260118 -151.473346 
L 373.947317 -152.893151 
L 370.634515 -154.211541 
L 367.321714 -151.371931 
L 364.008912 -151.676175 
L 360.696111 -153.501639 
L 357.383309 -152.183248 
L 354.070508 -153.197395 
L 350.757706 -152.690322 
L 347.444905 -152.183248 
L 344.132103 -152.690322 
L 340.819302 -152.284663 
L 337.5065 -152.893151 
L 334.193699 -152.487492 
L 330.880897 -151.574761 
L 327.568096 -152.183248 
L 324.255295 -151.473346 
L 320.942493 -151.879005 
L 317.629692 -152.487492 
L 314.31689 -151.067687 
L 311.004089 -153.09598 
L 307.691287 -152.791736 
L 304.378486 -152.487492 
L 301.065684 -150.053541 
L 297.752883 -153.298809 
L 294.440081 -153.09598 
L 291.12728 -152.791736 
L 287.814478 -151.473346 
L 284.501677 -153.09598 
L 281.188875 -152.994566 
L 277.876074 -152.690322 
L 274.563272 -150.25637 
L 271.250471 -152.386078 
L 267.937669 -151.980419 
L 264.624868 -151.169102 
L 261.312066 -152.487492 
L 257.999265 -154.718614 
L 254.686463 -151.574761 
L 251.373662 -151.169102 
L 248.06086 -151.77759 
L 244.748059 -152.183248 
L 241.435257 -152.386078 
L 238.122456 -151.473346 
L 234.809654 -151.676175 
L 231.496853 -151.169102 
L 228.184051 -152.893151 
L 224.87125 -153.704468 
L 221.558449 -151.980419 
L 218.245647 -152.386078 
L 214.932846 -152.487492 
L 211.620044 -153.197395 
L 208.307243 -153.298809 
L 204.994441 -152.791736 
L 201.68164 -153.400224 
L 198.368838 -153.298809 
L 195.056037 -151.169102 
L 191.743235 -151.77759 
L 188.430434 -152.893151 
L 185.117632 -152.893151 
L 181.804831 -153.197395 
L 178.492029 -151.879005 
L 175.179228 -153.197395 
L 171.866426 -151.879005 
L 168.553625 -152.183248 
L 165.240823 -152.183248 
L 161.928022 -152.994566 
L 158.61522 -153.400224 
L 155.302419 -153.805883 
L 151.989617 -154.110127 
L 148.676816 -150.966273 
L 145.364014 -151.574761 
L 142.051213 -151.879005 
L 138.738411 -151.574761 
L 135.42561 -151.980419 
L 132.112808 -151.473346 
L 128.800007 -151.676175 
L 125.487205 -152.994566 
L 122.174404 -153.09598 
L 118.861603 -151.067687 
L 115.548801 -152.386078 
L 112.236 -152.183248 
L 108.923198 -152.284663 
L 105.610397 -152.893151 
L 102.297595 -154.110127 
L 98.984794 -152.690322 
L 95.671992 -153.09598 
L 92.359191 -152.690322 
L 89.046389 -153.400224 
L 85.733588 -151.77759 
L 82.420786 -150.966273 
L 79.107985 -152.487492 
L 75.795183 -153.400224 
L 72.482382 -152.183248 
L 69.16958 -151.77759 
L 65.856779 -153.197395 
L 62.543977 -152.690322 
z
" id="med9c717b39" style="stroke:#9467bd;stroke-opacity:0.2;"/>
    </defs>
    <g clip-path="url(#pfdfca6b6b6)">
     <use style="fill:#9467bd;fill-opacity:0.2;stroke:#9467bd;stroke-opacity:0.2;" x="0" xlink:href="#med9c717b39" y="331.389812"/>
    </g>
   </g>
   <g id="line2d_14">
    <path clip-path="url(#pfdfca6b6b6)" d="M 62.543977 219.72171 
L 65.856779 214.701686 
L 69.16958 214.904515 
L 72.482382 216.527149 
L 75.795183 217.794832 
L 79.107985 218.504735 
L 82.420786 219.366759 
L 85.733588 220.634442 
L 89.046389 220.178076 
L 92.359191 221.090808 
L 95.671992 221.648588 
L 98.984794 221.597881 
L 102.297595 221.040101 
L 105.610397 222.459905 
L 108.923198 221.952832 
L 112.236 222.257076 
L 115.548801 221.496466 
L 118.861603 222.966979 
L 122.174404 222.814857 
L 125.487205 223.068393 
L 128.800007 224.133247 
L 132.112808 223.778296 
L 135.42561 224.538905 
L 138.738411 224.893857 
L 142.051213 223.829003 
L 145.364014 223.727588 
L 148.676816 225.147393 
L 151.989617 224.031832 
L 155.302419 225.096686 
L 158.61522 225.553052 
L 161.928022 225.299515 
L 165.240823 225.198101 
L 168.553625 224.64032 
L 171.866426 225.755881 
L 175.179228 225.553052 
L 178.492029 226.516491 
L 181.804831 225.451637 
L 185.117632 225.603759 
L 188.430434 225.857296 
L 191.743235 225.95871 
L 195.056037 225.502345 
L 198.368838 226.110832 
L 201.68164 226.16154 
L 204.994441 226.313662 
L 208.307243 226.668613 
L 211.620044 227.733466 
L 214.932846 226.262954 
L 218.245647 227.023564 
L 221.558449 225.806588 
L 224.87125 226.16154 
L 228.184051 226.820735 
L 231.496853 226.820735 
L 234.809654 227.530637 
L 238.122456 227.530637 
L 241.435257 227.530637 
L 244.748059 228.088418 
L 248.06086 227.632052 
L 251.373662 227.429223 
L 254.686463 227.784174 
L 257.999265 228.088418 
L 261.312066 228.088418 
L 264.624868 228.291247 
L 267.937669 227.987003 
L 271.250471 229.102564 
L 274.563272 229.051857 
L 277.876074 228.950442 
L 281.188875 228.494076 
L 284.501677 227.784174 
L 287.814478 227.47993 
L 291.12728 228.392662 
L 294.440081 228.139125 
L 297.752883 228.646198 
L 301.065684 229.305393 
L 304.378486 227.936296 
L 307.691287 230.015296 
L 311.004089 229.457515 
L 314.31689 229.812466 
L 317.629692 228.79832 
L 320.942493 229.761759 
L 324.255295 230.167418 
L 327.568096 229.913881 
L 330.880897 229.406808 
L 334.193699 229.964588 
L 337.5065 229.711052 
L 340.819302 229.609637 
L 344.132103 230.218125 
L 347.444905 230.31954 
L 350.757706 230.167418 
L 354.070508 229.761759 
L 357.383309 230.31954 
L 360.696111 229.711052 
L 364.008912 230.268832 
L 367.321714 229.812466 
L 370.634515 230.066003 
L 373.947317 230.725198 
L 377.260118 231.435101 
L 380.57292 230.370247 
L 383.885721 230.31954 
L 387.198523 231.232271 
" style="fill:none;stroke:#1f77b4;stroke-linecap:round;stroke-width:1.5;"/>
   </g>
   <g id="line2d_15">
    <path clip-path="url(#pfdfca6b6b6)" d="M 62.543977 100.863759 
L 65.856779 148.782174 
L 69.16958 166.124076 
L 72.482382 172.361076 
L 75.795183 175.657052 
L 79.107985 178.091003 
L 82.420786 181.082735 
L 85.733588 184.835076 
L 89.046389 186.204174 
L 92.359191 189.753686 
L 95.671992 189.500149 
L 98.984794 192.339759 
L 102.297595 191.883393 
L 105.610397 192.13693 
L 108.923198 193.708857 
L 112.236 194.165223 
L 115.548801 195.077954 
L 118.861603 194.723003 
L 122.174404 195.889271 
L 125.487205 195.53432 
L 128.800007 198.018979 
L 132.112808 198.728881 
L 135.42561 197.866857 
L 138.738411 199.590905 
L 142.051213 200.402223 
L 145.364014 199.590905 
L 148.676816 200.300808 
L 151.989617 199.083832 
L 155.302419 200.503637 
L 158.61522 200.45293 
L 161.928022 201.264247 
L 165.240823 202.075564 
L 168.553625 202.075564 
L 171.866426 203.08971 
L 175.179228 202.684052 
L 178.492029 204.509515 
L 181.804831 203.951735 
L 185.117632 204.61093 
L 188.430434 205.219418 
L 191.743235 206.233564 
L 195.056037 206.436393 
L 198.368838 206.182857 
L 201.68164 206.334979 
L 204.994441 207.24771 
L 208.307243 207.399832 
L 211.620044 206.842052 
L 214.932846 208.160442 
L 218.245647 206.334979 
L 221.558449 206.537808 
L 224.87125 207.856198 
L 228.184051 207.551954 
L 231.496853 207.906905 
L 234.809654 207.298418 
L 238.122456 208.870345 
L 241.435257 208.464686 
L 244.748059 210.138027 
L 248.06086 210.290149 
L 251.373662 209.377418 
L 254.686463 209.377418 
L 257.999265 210.08732 
L 261.312066 211.355003 
L 264.624868 210.543686 
L 267.937669 209.681662 
L 271.250471 210.797223 
L 274.563272 211.862076 
L 277.876074 212.267735 
L 281.188875 211.253588 
L 284.501677 212.16632 
L 287.814478 212.521271 
L 291.12728 211.709954 
L 294.440081 211.963491 
L 297.752883 212.064905 
L 301.065684 214.042491 
L 304.378486 212.825515 
L 307.691287 213.434003 
L 311.004089 213.434003 
L 314.31689 212.977637 
L 317.629692 214.24532 
L 320.942493 213.991784 
L 324.255295 213.890369 
L 327.568096 214.853808 
L 330.880897 215.208759 
L 334.193699 214.650979 
L 337.5065 214.904515 
L 340.819302 214.498857 
L 344.132103 216.070784 
L 347.444905 215.462296 
L 350.757706 215.360881 
L 354.070508 216.527149 
L 357.383309 215.665125 
L 360.696111 214.346735 
L 364.008912 215.411588 
L 367.321714 216.729979 
L 370.634515 216.32432 
L 373.947317 216.628564 
L 377.260118 216.628564 
L 380.57292 216.527149 
L 383.885721 217.338466 
L 387.198523 216.476442 
" style="fill:none;stroke:#ff7f0e;stroke-linecap:round;stroke-width:1.5;"/>
   </g>
   <g id="line2d_16">
    <path clip-path="url(#pfdfca6b6b6)" d="M 62.543977 91.533613 
L 65.856779 133.316442 
L 69.16958 152.179564 
L 72.482382 160.647686 
L 75.795183 161.763247 
L 79.107985 168.152369 
L 82.420786 170.484905 
L 85.733588 173.020271 
L 89.046389 173.223101 
L 92.359191 173.578052 
L 95.671992 176.012003 
L 98.984794 177.178271 
L 102.297595 179.66293 
L 105.610397 182.654662 
L 108.923198 184.328003 
L 112.236 184.226588 
L 115.548801 184.530832 
L 118.861603 186.356296 
L 122.174404 183.871637 
L 125.487205 186.609832 
L 128.800007 188.942369 
L 132.112808 189.043784 
L 135.42561 189.145198 
L 138.738411 190.05793 
L 142.051213 190.869247 
L 145.364014 190.970662 
L 148.676816 192.745418 
L 151.989617 193.353905 
L 155.302419 193.049662 
L 158.61522 192.13693 
L 161.928022 192.13693 
L 165.240823 193.759564 
L 168.553625 193.860979 
L 171.866426 193.404613 
L 175.179228 194.013101 
L 178.492029 195.432905 
L 181.804831 194.875125 
L 185.117632 195.483613 
L 188.430434 196.599174 
L 191.743235 197.61332 
L 195.056037 198.120393 
L 198.368838 197.562613 
L 201.68164 198.475345 
L 204.994441 200.960003 
L 208.307243 199.895149 
L 211.620044 199.337369 
L 214.932846 199.996564 
L 218.245647 201.720613 
L 221.558449 201.365662 
L 224.87125 200.199393 
L 228.184051 202.430515 
L 231.496853 200.706466 
L 234.809654 201.923442 
L 238.122456 203.039003 
L 241.435257 203.444662 
L 244.748059 202.785466 
L 248.06086 204.205271 
L 251.373662 202.278393 
L 254.686463 203.647491 
L 257.999265 203.596784 
L 261.312066 203.951735 
L 264.624868 203.698198 
L 267.937669 202.886881 
L 271.250471 204.255979 
L 274.563272 203.951735 
L 277.876074 203.343247 
L 281.188875 204.357393 
L 284.501677 204.965881 
L 287.814478 205.320832 
L 291.12728 204.509515 
L 294.440081 204.205271 
L 297.752883 204.306686 
L 301.065684 206.436393 
L 304.378486 204.205271 
L 307.691287 204.965881 
L 311.004089 205.422247 
L 314.31689 205.675784 
L 317.629692 204.965881 
L 320.942493 206.284271 
L 324.255295 205.878613 
L 327.568096 207.957613 
L 330.880897 206.994174 
L 334.193699 207.856198 
L 337.5065 207.754784 
L 340.819302 208.464686 
L 344.132103 209.833784 
L 347.444905 209.174588 
L 350.757706 209.123881 
L 354.070508 210.340857 
L 357.383309 209.884491 
L 360.696111 210.594393 
L 364.008912 210.492979 
L 367.321714 211.507125 
L 370.634515 210.695808 
L 373.947317 210.898637 
L 377.260118 211.709954 
L 380.57292 212.217027 
L 383.885721 212.977637 
L 387.198523 212.825515 
" style="fill:none;stroke:#2ca02c;stroke-linecap:round;stroke-width:1.5;"/>
   </g>
   <g id="line2d_17">
    <path clip-path="url(#pfdfca6b6b6)" d="M 62.543977 55.632832 
L 65.856779 62.123369 
L 69.16958 61.971247 
L 72.482382 65.470052 
L 75.795183 67.447637 
L 79.107985 71.402808 
L 82.420786 68.613905 
L 85.733588 73.278979 
L 89.046389 67.853296 
L 92.359191 69.881588 
L 95.671992 66.585613 
L 98.984794 67.802588 
L 102.297595 71.960588 
L 105.610397 71.960588 
L 108.923198 83.26832 
L 112.236 74.39454 
L 115.548801 79.059613 
L 118.861603 78.146881 
L 122.174404 79.87093 
L 125.487205 84.130345 
L 128.800007 76.727076 
L 132.112808 77.741223 
L 135.42561 80.073759 
L 138.738411 78.299003 
L 142.051213 76.676369 
L 145.364014 77.335564 
L 148.676816 75.307271 
L 151.989617 77.842637 
L 155.302419 71.149271 
L 158.61522 71.250686 
L 161.928022 78.806076 
L 165.240823 74.495954 
L 168.553625 77.335564 
L 171.866426 71.656345 
L 175.179228 70.743613 
L 178.492029 73.228271 
L 181.804831 75.611515 
L 185.117632 77.893345 
L 188.430434 76.47354 
L 191.743235 73.126857 
L 195.056037 72.87332 
L 198.368838 76.47354 
L 201.68164 80.175174 
L 204.994441 75.865052 
L 208.307243 75.560808 
L 211.620044 79.414564 
L 214.932846 74.293125 
L 218.245647 74.495954 
L 221.558449 77.79193 
L 224.87125 79.515979 
L 228.184051 82.457003 
L 231.496853 77.79193 
L 234.809654 77.284857 
L 238.122456 74.445247 
L 241.435257 73.329686 
L 244.748059 79.921637 
L 248.06086 81.037198 
L 251.373662 73.532515 
L 254.686463 74.141003 
L 257.999265 77.690515 
L 261.312066 70.845027 
L 264.624868 74.19171 
L 267.937669 75.915759 
L 271.250471 73.938174 
L 274.563272 81.544271 
L 277.876074 75.205857 
L 281.188875 73.228271 
L 284.501677 81.037198 
L 287.814478 71.960588 
L 291.12728 73.076149 
L 294.440081 80.986491 
L 297.752883 76.321418 
L 301.065684 77.538393 
L 304.378486 70.946442 
L 307.691287 73.836759 
L 311.004089 75.357979 
L 314.31689 75.053735 
L 317.629692 79.008905 
L 320.942493 80.378003 
L 324.255295 75.915759 
L 327.568096 81.696393 
L 330.880897 73.329686 
L 334.193699 79.008905 
L 337.5065 77.79193 
L 340.819302 80.175174 
L 344.132103 79.008905 
L 347.444905 77.487686 
L 350.757706 76.067881 
L 354.070508 75.357979 
L 357.383309 74.19171 
L 360.696111 79.718808 
L 364.008912 74.95232 
L 367.321714 80.124466 
L 370.634515 78.146881 
L 373.947317 75.510101 
L 377.260118 77.335564 
L 380.57292 73.938174 
L 383.885721 78.045466 
L 387.198523 80.073759 
" style="fill:none;stroke:#d62728;stroke-linecap:round;stroke-width:1.5;"/>
   </g>
   <g id="line2d_18">
    <path clip-path="url(#pfdfca6b6b6)" d="M 62.543977 178.750198 
L 65.856779 178.800905 
L 69.16958 179.967174 
L 72.482382 179.612223 
L 75.795183 179.054442 
L 79.107985 179.865759 
L 82.420786 180.727784 
L 85.733588 180.626369 
L 89.046389 178.598076 
L 92.359191 179.510808 
L 95.671992 179.155857 
L 98.984794 179.206564 
L 102.297595 178.395247 
L 105.610397 179.155857 
L 108.923198 179.561515 
L 112.236 179.713637 
L 115.548801 179.307979 
L 118.861603 180.474247 
L 122.174404 179.054442 
L 125.487205 178.496662 
L 128.800007 179.815052 
L 132.112808 180.322125 
L 135.42561 179.815052 
L 138.738411 180.22071 
L 142.051213 180.42354 
L 145.364014 180.727784 
L 148.676816 180.98132 
L 151.989617 178.192418 
L 155.302419 179.561515 
L 158.61522 178.547369 
L 161.928022 179.510808 
L 165.240823 179.460101 
L 168.553625 179.358686 
L 171.866426 179.865759 
L 175.179228 179.460101 
L 178.492029 180.474247 
L 181.804831 178.90232 
L 185.117632 178.90232 
L 188.430434 179.155857 
L 191.743235 179.713637 
L 195.056037 180.42354 
L 198.368838 179.003735 
L 201.68164 179.358686 
L 204.994441 180.068588 
L 208.307243 179.358686 
L 211.620044 178.192418 
L 214.932846 179.409393 
L 218.245647 179.105149 
L 221.558449 179.409393 
L 224.87125 178.040296 
L 228.184051 179.105149 
L 231.496853 180.271418 
L 234.809654 180.119296 
L 238.122456 180.017881 
L 241.435257 179.206564 
L 244.748059 179.510808 
L 248.06086 180.170003 
L 251.373662 180.372832 
L 254.686463 179.916466 
L 257.999265 178.243125 
L 261.312066 178.953027 
L 264.624868 180.575662 
L 267.937669 180.22071 
L 271.250471 179.358686 
L 274.563272 181.184149 
L 277.876074 179.967174 
L 281.188875 178.547369 
L 284.501677 178.90232 
L 287.814478 180.119296 
L 291.12728 179.561515 
L 294.440081 179.003735 
L 297.752883 178.648784 
L 301.065684 181.386979 
L 304.378486 179.561515 
L 307.691287 179.764345 
L 311.004089 178.851613 
L 314.31689 180.474247 
L 317.629692 180.22071 
L 320.942493 179.967174 
L 324.255295 180.068588 
L 327.568096 180.119296 
L 330.880897 179.967174 
L 334.193699 179.105149 
L 337.5065 178.953027 
L 340.819302 179.561515 
L 344.132103 179.764345 
L 347.444905 180.119296 
L 350.757706 179.105149 
L 354.070508 179.003735 
L 357.383309 180.017881 
L 360.696111 178.040296 
L 364.008912 179.764345 
L 367.321714 180.271418 
L 370.634515 179.054442 
L 373.947317 178.547369 
L 377.260118 180.524954 
L 380.57292 179.865759 
L 383.885721 180.068588 
L 387.198523 180.271418 
" style="fill:none;stroke:#9467bd;stroke-linecap:round;stroke-width:1.5;"/>
   </g>
   <g id="line2d_19"/>
   <g id="line2d_20"/>
   <g id="line2d_21"/>
   <g id="line2d_22"/>
   <g id="line2d_23"/>
   <g id="line2d_24"/>
   <g id="patch_3">
    <path d="M 46.31125 288.430125 
L 46.31125 22.318125 
" style="fill:none;stroke:#ffffff;stroke-linecap:square;stroke-linejoin:miter;stroke-width:1.25;"/>
   </g>
   <g id="patch_4">
    <path d="M 403.43125 288.430125 
L 403.43125 22.318125 
" style="fill:none;stroke:#ffffff;stroke-linecap:square;stroke-linejoin:miter;stroke-width:1.25;"/>
   </g>
   <g id="patch_5">
    <path d="M 46.31125 288.430125 
L 403.43125 288.430125 
" style="fill:none;stroke:#ffffff;stroke-linecap:square;stroke-linejoin:miter;stroke-width:1.25;"/>
   </g>
   <g id="patch_6">
    <path d="M 46.31125 22.318125 
L 403.43125 22.318125 
" style="fill:none;stroke:#ffffff;stroke-linecap:square;stroke-linejoin:miter;stroke-width:1.25;"/>
   </g>
   <g id="text_16">
    <!-- Max Rank=32 -->
    <defs>
     <path d="M 54.890625 54.6875 
L 35.109375 28.078125 
L 55.90625 0 
L 45.3125 0 
L 29.390625 21.484375 
L 13.484375 0 
L 2.875 0 
L 24.125 28.609375 
L 4.6875 54.6875 
L 15.28125 54.6875 
L 29.78125 35.203125 
L 44.28125 54.6875 
z
" id="DejaVuSans-120"/>
     <path d="M 10.59375 45.40625 
L 73.1875 45.40625 
L 73.1875 37.203125 
L 10.59375 37.203125 
z
M 10.59375 25.484375 
L 73.1875 25.484375 
L 73.1875 17.1875 
L 10.59375 17.1875 
z
" id="DejaVuSans-61"/>
    </defs>
    <g style="fill:#262626;" transform="translate(182.775625 16.318125)scale(0.12 -0.12)">
     <use xlink:href="#DejaVuSans-77"/>
     <use x="86.279297" xlink:href="#DejaVuSans-97"/>
     <use x="147.558594" xlink:href="#DejaVuSans-120"/>
     <use x="206.738281" xlink:href="#DejaVuSans-32"/>
     <use x="238.525391" xlink:href="#DejaVuSans-82"/>
     <use x="307.976562" xlink:href="#DejaVuSans-97"/>
     <use x="369.255859" xlink:href="#DejaVuSans-110"/>
     <use x="432.634766" xlink:href="#DejaVuSans-107"/>
     <use x="490.544922" xlink:href="#DejaVuSans-61"/>
     <use x="574.333984" xlink:href="#DejaVuSans-51"/>
     <use x="637.957031" xlink:href="#DejaVuSans-50"/>
    </g>
   </g>
   <g id="legend_1">
    <g id="patch_7">
     <path d="M 219.994219 111.847812 
L 395.73125 111.847812 
Q 397.93125 111.847812 397.93125 109.647812 
L 397.93125 30.018125 
Q 397.93125 27.818125 395.73125 27.818125 
L 219.994219 27.818125 
Q 217.794219 27.818125 217.794219 30.018125 
L 217.794219 109.647812 
Q 217.794219 111.847812 219.994219 111.847812 
z
" style="fill:#eaeaf2;opacity:0.8;stroke:#cccccc;stroke-linejoin:miter;"/>
    </g>
    <g id="line2d_25">
     <path d="M 222.194219 36.726406 
L 244.194219 36.726406 
" style="fill:none;stroke:#1f77b4;stroke-linecap:round;stroke-width:1.5;"/>
    </g>
    <g id="line2d_26"/>
    <g id="text_17">
     <!-- Output Layer -->
     <defs>
      <path d="M 39.40625 66.21875 
Q 28.65625 66.21875 22.328125 58.203125 
Q 16.015625 50.203125 16.015625 36.375 
Q 16.015625 22.609375 22.328125 14.59375 
Q 28.65625 6.59375 39.40625 6.59375 
Q 50.140625 6.59375 56.421875 14.59375 
Q 62.703125 22.609375 62.703125 36.375 
Q 62.703125 50.203125 56.421875 58.203125 
Q 50.140625 66.21875 39.40625 66.21875 
z
M 39.40625 74.21875 
Q 54.734375 74.21875 63.90625 63.9375 
Q 73.09375 53.65625 73.09375 36.375 
Q 73.09375 19.140625 63.90625 8.859375 
Q 54.734375 -1.421875 39.40625 -1.421875 
Q 24.03125 -1.421875 14.8125 8.828125 
Q 5.609375 19.09375 5.609375 36.375 
Q 5.609375 53.65625 14.8125 63.9375 
Q 24.03125 74.21875 39.40625 74.21875 
z
" id="DejaVuSans-79"/>
      <path d="M 8.5 21.578125 
L 8.5 54.6875 
L 17.484375 54.6875 
L 17.484375 21.921875 
Q 17.484375 14.15625 20.5 10.265625 
Q 23.53125 6.390625 29.59375 6.390625 
Q 36.859375 6.390625 41.078125 11.03125 
Q 45.3125 15.671875 45.3125 23.6875 
L 45.3125 54.6875 
L 54.296875 54.6875 
L 54.296875 0 
L 45.3125 0 
L 45.3125 8.40625 
Q 42.046875 3.421875 37.71875 1 
Q 33.40625 -1.421875 27.6875 -1.421875 
Q 18.265625 -1.421875 13.375 4.4375 
Q 8.5 10.296875 8.5 21.578125 
z
M 31.109375 56 
z
" id="DejaVuSans-117"/>
      <path d="M 9.8125 72.90625 
L 19.671875 72.90625 
L 19.671875 8.296875 
L 55.171875 8.296875 
L 55.171875 0 
L 9.8125 0 
z
" id="DejaVuSans-76"/>
      <path d="M 32.171875 -5.078125 
Q 28.375 -14.84375 24.75 -17.8125 
Q 21.140625 -20.796875 15.09375 -20.796875 
L 7.90625 -20.796875 
L 7.90625 -13.28125 
L 13.1875 -13.28125 
Q 16.890625 -13.28125 18.9375 -11.515625 
Q 21 -9.765625 23.484375 -3.21875 
L 25.09375 0.875 
L 2.984375 54.6875 
L 12.5 54.6875 
L 29.59375 11.921875 
L 46.6875 54.6875 
L 56.203125 54.6875 
z
" id="DejaVuSans-121"/>
     </defs>
     <g style="fill:#262626;" transform="translate(252.994219 40.576406)scale(0.11 -0.11)">
      <use xlink:href="#DejaVuSans-79"/>
      <use x="78.710938" xlink:href="#DejaVuSans-117"/>
      <use x="142.089844" xlink:href="#DejaVuSans-116"/>
      <use x="181.298828" xlink:href="#DejaVuSans-112"/>
      <use x="244.775391" xlink:href="#DejaVuSans-117"/>
      <use x="308.154297" xlink:href="#DejaVuSans-116"/>
      <use x="347.363281" xlink:href="#DejaVuSans-32"/>
      <use x="379.150391" xlink:href="#DejaVuSans-76"/>
      <use x="434.863281" xlink:href="#DejaVuSans-97"/>
      <use x="496.142578" xlink:href="#DejaVuSans-121"/>
      <use x="555.322266" xlink:href="#DejaVuSans-101"/>
      <use x="616.845703" xlink:href="#DejaVuSans-114"/>
     </g>
    </g>
    <g id="line2d_27">
     <path d="M 222.194219 52.872344 
L 244.194219 52.872344 
" style="fill:none;stroke:#ff7f0e;stroke-linecap:round;stroke-width:1.5;"/>
    </g>
    <g id="line2d_28"/>
    <g id="text_18">
     <!-- 2nd FC - 512x256 -->
     <defs>
      <path d="M 45.40625 46.390625 
L 45.40625 75.984375 
L 54.390625 75.984375 
L 54.390625 0 
L 45.40625 0 
L 45.40625 8.203125 
Q 42.578125 3.328125 38.25 0.953125 
Q 33.9375 -1.421875 27.875 -1.421875 
Q 17.96875 -1.421875 11.734375 6.484375 
Q 5.515625 14.40625 5.515625 27.296875 
Q 5.515625 40.1875 11.734375 48.09375 
Q 17.96875 56 27.875 56 
Q 33.9375 56 38.25 53.625 
Q 42.578125 51.265625 45.40625 46.390625 
z
M 14.796875 27.296875 
Q 14.796875 17.390625 18.875 11.75 
Q 22.953125 6.109375 30.078125 6.109375 
Q 37.203125 6.109375 41.296875 11.75 
Q 45.40625 17.390625 45.40625 27.296875 
Q 45.40625 37.203125 41.296875 42.84375 
Q 37.203125 48.484375 30.078125 48.484375 
Q 22.953125 48.484375 18.875 42.84375 
Q 14.796875 37.203125 14.796875 27.296875 
z
" id="DejaVuSans-100"/>
      <path d="M 9.8125 72.90625 
L 51.703125 72.90625 
L 51.703125 64.59375 
L 19.671875 64.59375 
L 19.671875 43.109375 
L 48.578125 43.109375 
L 48.578125 34.8125 
L 19.671875 34.8125 
L 19.671875 0 
L 9.8125 0 
z
" id="DejaVuSans-70"/>
      <path d="M 64.40625 67.28125 
L 64.40625 56.890625 
Q 59.421875 61.53125 53.78125 63.8125 
Q 48.140625 66.109375 41.796875 66.109375 
Q 29.296875 66.109375 22.65625 58.46875 
Q 16.015625 50.828125 16.015625 36.375 
Q 16.015625 21.96875 22.65625 14.328125 
Q 29.296875 6.6875 41.796875 6.6875 
Q 48.140625 6.6875 53.78125 8.984375 
Q 59.421875 11.28125 64.40625 15.921875 
L 64.40625 5.609375 
Q 59.234375 2.09375 53.4375 0.328125 
Q 47.65625 -1.421875 41.21875 -1.421875 
Q 24.65625 -1.421875 15.125 8.703125 
Q 5.609375 18.84375 5.609375 36.375 
Q 5.609375 53.953125 15.125 64.078125 
Q 24.65625 74.21875 41.21875 74.21875 
Q 47.75 74.21875 53.53125 72.484375 
Q 59.328125 70.75 64.40625 67.28125 
z
" id="DejaVuSans-67"/>
     </defs>
     <g style="fill:#262626;" transform="translate(252.994219 56.722344)scale(0.11 -0.11)">
      <use xlink:href="#DejaVuSans-50"/>
      <use x="63.623047" xlink:href="#DejaVuSans-110"/>
      <use x="127.001953" xlink:href="#DejaVuSans-100"/>
      <use x="190.478516" xlink:href="#DejaVuSans-32"/>
      <use x="222.265625" xlink:href="#DejaVuSans-70"/>
      <use x="279.785156" xlink:href="#DejaVuSans-67"/>
      <use x="349.609375" xlink:href="#DejaVuSans-32"/>
      <use x="381.396484" xlink:href="#DejaVuSans-45"/>
      <use x="417.480469" xlink:href="#DejaVuSans-32"/>
      <use x="449.267578" xlink:href="#DejaVuSans-53"/>
      <use x="512.890625" xlink:href="#DejaVuSans-49"/>
      <use x="576.513672" xlink:href="#DejaVuSans-50"/>
      <use x="640.136719" xlink:href="#DejaVuSans-120"/>
      <use x="699.316406" xlink:href="#DejaVuSans-50"/>
      <use x="762.939453" xlink:href="#DejaVuSans-53"/>
      <use x="826.5625" xlink:href="#DejaVuSans-54"/>
     </g>
    </g>
    <g id="line2d_29">
     <path d="M 222.194219 69.018281 
L 244.194219 69.018281 
" style="fill:none;stroke:#2ca02c;stroke-linecap:round;stroke-width:1.5;"/>
    </g>
    <g id="line2d_30"/>
    <g id="text_19">
     <!-- 1st FC - SEQ*64 x 512 -->
     <defs>
      <path d="M 53.515625 70.515625 
L 53.515625 60.890625 
Q 47.90625 63.578125 42.921875 64.890625 
Q 37.9375 66.21875 33.296875 66.21875 
Q 25.25 66.21875 20.875 63.09375 
Q 16.5 59.96875 16.5 54.203125 
Q 16.5 49.359375 19.40625 46.890625 
Q 22.3125 44.4375 30.421875 42.921875 
L 36.375 41.703125 
Q 47.40625 39.59375 52.65625 34.296875 
Q 57.90625 29 57.90625 20.125 
Q 57.90625 9.515625 50.796875 4.046875 
Q 43.703125 -1.421875 29.984375 -1.421875 
Q 24.8125 -1.421875 18.96875 -0.25 
Q 13.140625 0.921875 6.890625 3.21875 
L 6.890625 13.375 
Q 12.890625 10.015625 18.65625 8.296875 
Q 24.421875 6.59375 29.984375 6.59375 
Q 38.421875 6.59375 43.015625 9.90625 
Q 47.609375 13.234375 47.609375 19.390625 
Q 47.609375 24.75 44.3125 27.78125 
Q 41.015625 30.8125 33.5 32.328125 
L 27.484375 33.5 
Q 16.453125 35.6875 11.515625 40.375 
Q 6.59375 45.0625 6.59375 53.421875 
Q 6.59375 63.09375 13.40625 68.65625 
Q 20.21875 74.21875 32.171875 74.21875 
Q 37.3125 74.21875 42.625 73.28125 
Q 47.953125 72.359375 53.515625 70.515625 
z
" id="DejaVuSans-83"/>
      <path d="M 39.40625 66.21875 
Q 28.65625 66.21875 22.328125 58.203125 
Q 16.015625 50.203125 16.015625 36.375 
Q 16.015625 22.609375 22.328125 14.59375 
Q 28.65625 6.59375 39.40625 6.59375 
Q 50.140625 6.59375 56.421875 14.59375 
Q 62.703125 22.609375 62.703125 36.375 
Q 62.703125 50.203125 56.421875 58.203125 
Q 50.140625 66.21875 39.40625 66.21875 
z
M 53.21875 1.3125 
L 66.21875 -12.890625 
L 54.296875 -12.890625 
L 43.5 -1.21875 
Q 41.890625 -1.3125 41.03125 -1.359375 
Q 40.1875 -1.421875 39.40625 -1.421875 
Q 24.03125 -1.421875 14.8125 8.859375 
Q 5.609375 19.140625 5.609375 36.375 
Q 5.609375 53.65625 14.8125 63.9375 
Q 24.03125 74.21875 39.40625 74.21875 
Q 54.734375 74.21875 63.90625 63.9375 
Q 73.09375 53.65625 73.09375 36.375 
Q 73.09375 23.6875 67.984375 14.640625 
Q 62.890625 5.609375 53.21875 1.3125 
z
" id="DejaVuSans-81"/>
      <path d="M 47.015625 60.890625 
L 29.5 51.421875 
L 47.015625 41.890625 
L 44.1875 37.109375 
L 27.78125 47.015625 
L 27.78125 28.609375 
L 22.21875 28.609375 
L 22.21875 47.015625 
L 5.8125 37.109375 
L 2.984375 41.890625 
L 20.515625 51.421875 
L 2.984375 60.890625 
L 5.8125 65.71875 
L 22.21875 55.8125 
L 22.21875 74.21875 
L 27.78125 74.21875 
L 27.78125 55.8125 
L 44.1875 65.71875 
z
" id="DejaVuSans-42"/>
     </defs>
     <g style="fill:#262626;" transform="translate(252.994219 72.868281)scale(0.11 -0.11)">
      <use xlink:href="#DejaVuSans-49"/>
      <use x="63.623047" xlink:href="#DejaVuSans-115"/>
      <use x="115.722656" xlink:href="#DejaVuSans-116"/>
      <use x="154.931641" xlink:href="#DejaVuSans-32"/>
      <use x="186.71875" xlink:href="#DejaVuSans-70"/>
      <use x="244.238281" xlink:href="#DejaVuSans-67"/>
      <use x="314.0625" xlink:href="#DejaVuSans-32"/>
      <use x="345.849609" xlink:href="#DejaVuSans-45"/>
      <use x="381.933594" xlink:href="#DejaVuSans-32"/>
      <use x="413.720703" xlink:href="#DejaVuSans-83"/>
      <use x="477.197266" xlink:href="#DejaVuSans-69"/>
      <use x="540.380859" xlink:href="#DejaVuSans-81"/>
      <use x="619.091797" xlink:href="#DejaVuSans-42"/>
      <use x="669.091797" xlink:href="#DejaVuSans-54"/>
      <use x="732.714844" xlink:href="#DejaVuSans-52"/>
      <use x="796.337891" xlink:href="#DejaVuSans-32"/>
      <use x="828.125" xlink:href="#DejaVuSans-120"/>
      <use x="887.304688" xlink:href="#DejaVuSans-32"/>
      <use x="919.091797" xlink:href="#DejaVuSans-53"/>
      <use x="982.714844" xlink:href="#DejaVuSans-49"/>
      <use x="1046.337891" xlink:href="#DejaVuSans-50"/>
     </g>
    </g>
    <g id="line2d_31">
     <path d="M 222.194219 85.164219 
L 244.194219 85.164219 
" style="fill:none;stroke:#d62728;stroke-linecap:round;stroke-width:1.5;"/>
    </g>
    <g id="line2d_32"/>
    <g id="text_20">
     <!-- Reccurent Layer (dim 64) -->
     <defs>
      <path d="M 31 75.875 
Q 24.46875 64.65625 21.28125 53.65625 
Q 18.109375 42.671875 18.109375 31.390625 
Q 18.109375 20.125 21.3125 9.0625 
Q 24.515625 -2 31 -13.1875 
L 23.1875 -13.1875 
Q 15.875 -1.703125 12.234375 9.375 
Q 8.59375 20.453125 8.59375 31.390625 
Q 8.59375 42.28125 12.203125 53.3125 
Q 15.828125 64.359375 23.1875 75.875 
z
" id="DejaVuSans-40"/>
      <path d="M 52 44.1875 
Q 55.375 50.25 60.0625 53.125 
Q 64.75 56 71.09375 56 
Q 79.640625 56 84.28125 50.015625 
Q 88.921875 44.046875 88.921875 33.015625 
L 88.921875 0 
L 79.890625 0 
L 79.890625 32.71875 
Q 79.890625 40.578125 77.09375 44.375 
Q 74.3125 48.1875 68.609375 48.1875 
Q 61.625 48.1875 57.5625 43.546875 
Q 53.515625 38.921875 53.515625 30.90625 
L 53.515625 0 
L 44.484375 0 
L 44.484375 32.71875 
Q 44.484375 40.625 41.703125 44.40625 
Q 38.921875 48.1875 33.109375 48.1875 
Q 26.21875 48.1875 22.15625 43.53125 
Q 18.109375 38.875 18.109375 30.90625 
L 18.109375 0 
L 9.078125 0 
L 9.078125 54.6875 
L 18.109375 54.6875 
L 18.109375 46.1875 
Q 21.1875 51.21875 25.484375 53.609375 
Q 29.78125 56 35.6875 56 
Q 41.65625 56 45.828125 52.96875 
Q 50 49.953125 52 44.1875 
z
" id="DejaVuSans-109"/>
      <path d="M 8.015625 75.875 
L 15.828125 75.875 
Q 23.140625 64.359375 26.78125 53.3125 
Q 30.421875 42.28125 30.421875 31.390625 
Q 30.421875 20.453125 26.78125 9.375 
Q 23.140625 -1.703125 15.828125 -13.1875 
L 8.015625 -13.1875 
Q 14.5 -2 17.703125 9.0625 
Q 20.90625 20.125 20.90625 31.390625 
Q 20.90625 42.671875 17.703125 53.65625 
Q 14.5 64.65625 8.015625 75.875 
z
" id="DejaVuSans-41"/>
     </defs>
     <g style="fill:#262626;" transform="translate(252.994219 89.014219)scale(0.11 -0.11)">
      <use xlink:href="#DejaVuSans-82"/>
      <use x="69.419922" xlink:href="#DejaVuSans-101"/>
      <use x="130.943359" xlink:href="#DejaVuSans-99"/>
      <use x="185.923828" xlink:href="#DejaVuSans-99"/>
      <use x="240.904297" xlink:href="#DejaVuSans-117"/>
      <use x="304.283203" xlink:href="#DejaVuSans-114"/>
      <use x="345.365234" xlink:href="#DejaVuSans-101"/>
      <use x="406.888672" xlink:href="#DejaVuSans-110"/>
      <use x="470.267578" xlink:href="#DejaVuSans-116"/>
      <use x="509.476562" xlink:href="#DejaVuSans-32"/>
      <use x="541.263672" xlink:href="#DejaVuSans-76"/>
      <use x="596.976562" xlink:href="#DejaVuSans-97"/>
      <use x="658.255859" xlink:href="#DejaVuSans-121"/>
      <use x="717.435547" xlink:href="#DejaVuSans-101"/>
      <use x="778.958984" xlink:href="#DejaVuSans-114"/>
      <use x="820.072266" xlink:href="#DejaVuSans-32"/>
      <use x="851.859375" xlink:href="#DejaVuSans-40"/>
      <use x="890.873047" xlink:href="#DejaVuSans-100"/>
      <use x="954.349609" xlink:href="#DejaVuSans-105"/>
      <use x="982.132812" xlink:href="#DejaVuSans-109"/>
      <use x="1079.544922" xlink:href="#DejaVuSans-32"/>
      <use x="1111.332031" xlink:href="#DejaVuSans-54"/>
      <use x="1174.955078" xlink:href="#DejaVuSans-52"/>
      <use x="1238.578125" xlink:href="#DejaVuSans-41"/>
     </g>
    </g>
    <g id="line2d_33">
     <path d="M 222.194219 101.310156 
L 244.194219 101.310156 
" style="fill:none;stroke:#9467bd;stroke-linecap:round;stroke-width:1.5;"/>
    </g>
    <g id="line2d_34"/>
    <g id="text_21">
     <!-- Input Layer -->
     <defs>
      <path d="M 9.8125 72.90625 
L 19.671875 72.90625 
L 19.671875 0 
L 9.8125 0 
z
" id="DejaVuSans-73"/>
     </defs>
     <g style="fill:#262626;" transform="translate(252.994219 105.160156)scale(0.11 -0.11)">
      <use xlink:href="#DejaVuSans-73"/>
      <use x="29.492188" xlink:href="#DejaVuSans-110"/>
      <use x="92.871094" xlink:href="#DejaVuSans-112"/>
      <use x="156.347656" xlink:href="#DejaVuSans-117"/>
      <use x="219.726562" xlink:href="#DejaVuSans-116"/>
      <use x="258.935547" xlink:href="#DejaVuSans-32"/>
      <use x="290.722656" xlink:href="#DejaVuSans-76"/>
      <use x="346.435547" xlink:href="#DejaVuSans-97"/>
      <use x="407.714844" xlink:href="#DejaVuSans-121"/>
      <use x="466.894531" xlink:href="#DejaVuSans-101"/>
      <use x="528.417969" xlink:href="#DejaVuSans-114"/>
     </g>
    </g>
   </g>
  </g>
 </g>
 <defs>
  <clipPath id="pfdfca6b6b6">
   <rect height="266.112" width="357.12" x="46.31125" y="22.318125"/>
  </clipPath>
 </defs>
</svg>
