<?xml version="1.0" encoding="utf-8" standalone="no"?>
<!DOCTYPE svg PUBLIC "-//W3C//DTD SVG 1.1//EN"
  "http://www.w3.org/Graphics/SVG/1.1/DTD/svg11.dtd">
<!-- Created with matplotlib (https://matplotlib.org/) -->
<svg height="315.776062pt" version="1.1" viewBox="0 0 403.123659 315.776062" width="403.123659pt" xmlns="http://www.w3.org/2000/svg" xmlns:xlink="http://www.w3.org/1999/xlink">
 <defs>
  <style type="text/css">
*{stroke-linecap:butt;stroke-linejoin:round;}
  </style>
 </defs>
 <g id="figure_1">
  <g id="patch_1">
   <path d="M 0 315.776062 
L 403.123659 315.776062 
L 403.123659 0 
L 0 0 
z
" style="fill:#ffffff;"/>
  </g>
  <g id="axes_1">
   <g id="patch_2">
    <path d="M 34.193438 288.430125 
L 196.52071 288.430125 
L 196.52071 22.318125 
L 34.193438 22.318125 
z
" style="fill:#eaeaf2;"/>
   </g>
   <g id="matplotlib.axis_1">
    <g id="xtick_1">
     <g id="line2d_1">
      <path clip-path="url(#p7a23756fdb)" d="M 41.57195 288.430125 
L 41.57195 22.318125 
" style="fill:none;stroke:#ffffff;stroke-linecap:round;"/>
     </g>
     <g id="text_1">
      <!-- 0 -->
      <defs>
       <path d="M 31.78125 66.40625 
Q 24.171875 66.40625 20.328125 58.90625 
Q 16.5 51.421875 16.5 36.375 
Q 16.5 21.390625 20.328125 13.890625 
Q 24.171875 6.390625 31.78125 6.390625 
Q 39.453125 6.390625 43.28125 13.890625 
Q 47.125 21.390625 47.125 36.375 
Q 47.125 51.421875 43.28125 58.90625 
Q 39.453125 66.40625 31.78125 66.40625 
z
M 31.78125 74.21875 
Q 44.046875 74.21875 50.515625 64.515625 
Q 56.984375 54.828125 56.984375 36.375 
Q 56.984375 17.96875 50.515625 8.265625 
Q 44.046875 -1.421875 31.78125 -1.421875 
Q 19.53125 -1.421875 13.0625 8.265625 
Q 6.59375 17.96875 6.59375 36.375 
Q 6.59375 54.828125 13.0625 64.515625 
Q 19.53125 74.21875 31.78125 74.21875 
z
" id="DejaVuSans-48"/>
      </defs>
      <g style="fill:#262626;" transform="translate(38.072575 306.288406)scale(0.11 -0.11)">
       <use xlink:href="#DejaVuSans-48"/>
      </g>
     </g>
    </g>
    <g id="xtick_2">
     <g id="line2d_2">
      <path clip-path="url(#p7a23756fdb)" d="M 104.3678 288.430125 
L 104.3678 22.318125 
" style="fill:none;stroke:#ffffff;stroke-linecap:round;"/>
     </g>
     <g id="text_2">
      <!-- 20 -->
      <defs>
       <path d="M 19.1875 8.296875 
L 53.609375 8.296875 
L 53.609375 0 
L 7.328125 0 
L 7.328125 8.296875 
Q 12.9375 14.109375 22.625 23.890625 
Q 32.328125 33.6875 34.8125 36.53125 
Q 39.546875 41.84375 41.421875 45.53125 
Q 43.3125 49.21875 43.3125 52.78125 
Q 43.3125 58.59375 39.234375 62.25 
Q 35.15625 65.921875 28.609375 65.921875 
Q 23.96875 65.921875 18.8125 64.3125 
Q 13.671875 62.703125 7.8125 59.421875 
L 7.8125 69.390625 
Q 13.765625 71.78125 18.9375 73 
Q 24.125 74.21875 28.421875 74.21875 
Q 39.75 74.21875 46.484375 68.546875 
Q 53.21875 62.890625 53.21875 53.421875 
Q 53.21875 48.921875 51.53125 44.890625 
Q 49.859375 40.875 45.40625 35.40625 
Q 44.1875 33.984375 37.640625 27.21875 
Q 31.109375 20.453125 19.1875 8.296875 
z
" id="DejaVuSans-50"/>
      </defs>
      <g style="fill:#262626;" transform="translate(97.36905 306.288406)scale(0.11 -0.11)">
       <use xlink:href="#DejaVuSans-50"/>
       <use x="63.623047" xlink:href="#DejaVuSans-48"/>
      </g>
     </g>
    </g>
    <g id="xtick_3">
     <g id="line2d_3">
      <path clip-path="url(#p7a23756fdb)" d="M 167.16365 288.430125 
L 167.16365 22.318125 
" style="fill:none;stroke:#ffffff;stroke-linecap:round;"/>
     </g>
     <g id="text_3">
      <!-- 40 -->
      <defs>
       <path d="M 37.796875 64.3125 
L 12.890625 25.390625 
L 37.796875 25.390625 
z
M 35.203125 72.90625 
L 47.609375 72.90625 
L 47.609375 25.390625 
L 58.015625 25.390625 
L 58.015625 17.1875 
L 47.609375 17.1875 
L 47.609375 0 
L 37.796875 0 
L 37.796875 17.1875 
L 4.890625 17.1875 
L 4.890625 26.703125 
z
" id="DejaVuSans-52"/>
      </defs>
      <g style="fill:#262626;" transform="translate(160.1649 306.288406)scale(0.11 -0.11)">
       <use xlink:href="#DejaVuSans-52"/>
       <use x="63.623047" xlink:href="#DejaVuSans-48"/>
      </g>
     </g>
    </g>
   </g>
   <g id="matplotlib.axis_2">
    <g id="ytick_1">
     <g id="line2d_4">
      <path clip-path="url(#p7a23756fdb)" d="M 34.193438 248.292601 
L 196.52071 248.292601 
" style="fill:none;stroke:#ffffff;stroke-linecap:round;"/>
     </g>
     <g id="text_4">
      <!-- 0.2 -->
      <defs>
       <path d="M 10.6875 12.40625 
L 21 12.40625 
L 21 0 
L 10.6875 0 
z
" id="DejaVuSans-46"/>
      </defs>
      <g style="fill:#262626;" transform="translate(7.2 252.471742)scale(0.11 -0.11)">
       <use xlink:href="#DejaVuSans-48"/>
       <use x="63.623047" xlink:href="#DejaVuSans-46"/>
       <use x="95.410156" xlink:href="#DejaVuSans-50"/>
      </g>
     </g>
    </g>
    <g id="ytick_2">
     <g id="line2d_5">
      <path clip-path="url(#p7a23756fdb)" d="M 34.193438 193.309221 
L 196.52071 193.309221 
" style="fill:none;stroke:#ffffff;stroke-linecap:round;"/>
     </g>
     <g id="text_5">
      <!-- 0.4 -->
      <g style="fill:#262626;" transform="translate(7.2 197.488362)scale(0.11 -0.11)">
       <use xlink:href="#DejaVuSans-48"/>
       <use x="63.623047" xlink:href="#DejaVuSans-46"/>
       <use x="95.410156" xlink:href="#DejaVuSans-52"/>
      </g>
     </g>
    </g>
    <g id="ytick_3">
     <g id="line2d_6">
      <path clip-path="url(#p7a23756fdb)" d="M 34.193438 138.325841 
L 196.52071 138.325841 
" style="fill:none;stroke:#ffffff;stroke-linecap:round;"/>
     </g>
     <g id="text_6">
      <!-- 0.6 -->
      <defs>
       <path d="M 33.015625 40.375 
Q 26.375 40.375 22.484375 35.828125 
Q 18.609375 31.296875 18.609375 23.390625 
Q 18.609375 15.53125 22.484375 10.953125 
Q 26.375 6.390625 33.015625 6.390625 
Q 39.65625 6.390625 43.53125 10.953125 
Q 47.40625 15.53125 47.40625 23.390625 
Q 47.40625 31.296875 43.53125 35.828125 
Q 39.65625 40.375 33.015625 40.375 
z
M 52.59375 71.296875 
L 52.59375 62.3125 
Q 48.875 64.0625 45.09375 64.984375 
Q 41.3125 65.921875 37.59375 65.921875 
Q 27.828125 65.921875 22.671875 59.328125 
Q 17.53125 52.734375 16.796875 39.40625 
Q 19.671875 43.65625 24.015625 45.921875 
Q 28.375 48.1875 33.59375 48.1875 
Q 44.578125 48.1875 50.953125 41.515625 
Q 57.328125 34.859375 57.328125 23.390625 
Q 57.328125 12.15625 50.6875 5.359375 
Q 44.046875 -1.421875 33.015625 -1.421875 
Q 20.359375 -1.421875 13.671875 8.265625 
Q 6.984375 17.96875 6.984375 36.375 
Q 6.984375 53.65625 15.1875 63.9375 
Q 23.390625 74.21875 37.203125 74.21875 
Q 40.921875 74.21875 44.703125 73.484375 
Q 48.484375 72.75 52.59375 71.296875 
z
" id="DejaVuSans-54"/>
      </defs>
      <g style="fill:#262626;" transform="translate(7.2 142.504981)scale(0.11 -0.11)">
       <use xlink:href="#DejaVuSans-48"/>
       <use x="63.623047" xlink:href="#DejaVuSans-46"/>
       <use x="95.410156" xlink:href="#DejaVuSans-54"/>
      </g>
     </g>
    </g>
    <g id="ytick_4">
     <g id="line2d_7">
      <path clip-path="url(#p7a23756fdb)" d="M 34.193438 83.34246 
L 196.52071 83.34246 
" style="fill:none;stroke:#ffffff;stroke-linecap:round;"/>
     </g>
     <g id="text_7">
      <!-- 0.8 -->
      <defs>
       <path d="M 31.78125 34.625 
Q 24.75 34.625 20.71875 30.859375 
Q 16.703125 27.09375 16.703125 20.515625 
Q 16.703125 13.921875 20.71875 10.15625 
Q 24.75 6.390625 31.78125 6.390625 
Q 38.8125 6.390625 42.859375 10.171875 
Q 46.921875 13.96875 46.921875 20.515625 
Q 46.921875 27.09375 42.890625 30.859375 
Q 38.875 34.625 31.78125 34.625 
z
M 21.921875 38.8125 
Q 15.578125 40.375 12.03125 44.71875 
Q 8.5 49.078125 8.5 55.328125 
Q 8.5 64.0625 14.71875 69.140625 
Q 20.953125 74.21875 31.78125 74.21875 
Q 42.671875 74.21875 48.875 69.140625 
Q 55.078125 64.0625 55.078125 55.328125 
Q 55.078125 49.078125 51.53125 44.71875 
Q 48 40.375 41.703125 38.8125 
Q 48.828125 37.15625 52.796875 32.3125 
Q 56.78125 27.484375 56.78125 20.515625 
Q 56.78125 9.90625 50.3125 4.234375 
Q 43.84375 -1.421875 31.78125 -1.421875 
Q 19.734375 -1.421875 13.25 4.234375 
Q 6.78125 9.90625 6.78125 20.515625 
Q 6.78125 27.484375 10.78125 32.3125 
Q 14.796875 37.15625 21.921875 38.8125 
z
M 18.3125 54.390625 
Q 18.3125 48.734375 21.84375 45.5625 
Q 25.390625 42.390625 31.78125 42.390625 
Q 38.140625 42.390625 41.71875 45.5625 
Q 45.3125 48.734375 45.3125 54.390625 
Q 45.3125 60.0625 41.71875 63.234375 
Q 38.140625 66.40625 31.78125 66.40625 
Q 25.390625 66.40625 21.84375 63.234375 
Q 18.3125 60.0625 18.3125 54.390625 
z
" id="DejaVuSans-56"/>
      </defs>
      <g style="fill:#262626;" transform="translate(7.2 87.521601)scale(0.11 -0.11)">
       <use xlink:href="#DejaVuSans-48"/>
       <use x="63.623047" xlink:href="#DejaVuSans-46"/>
       <use x="95.410156" xlink:href="#DejaVuSans-56"/>
      </g>
     </g>
    </g>
    <g id="ytick_5">
     <g id="line2d_8">
      <path clip-path="url(#p7a23756fdb)" d="M 34.193438 28.35908 
L 196.52071 28.35908 
" style="fill:none;stroke:#ffffff;stroke-linecap:round;"/>
     </g>
     <g id="text_8">
      <!-- 1.0 -->
      <defs>
       <path d="M 12.40625 8.296875 
L 28.515625 8.296875 
L 28.515625 63.921875 
L 10.984375 60.40625 
L 10.984375 69.390625 
L 28.421875 72.90625 
L 38.28125 72.90625 
L 38.28125 8.296875 
L 54.390625 8.296875 
L 54.390625 0 
L 12.40625 0 
z
" id="DejaVuSans-49"/>
      </defs>
      <g style="fill:#262626;" transform="translate(7.2 32.538221)scale(0.11 -0.11)">
       <use xlink:href="#DejaVuSans-49"/>
       <use x="63.623047" xlink:href="#DejaVuSans-46"/>
       <use x="95.410156" xlink:href="#DejaVuSans-48"/>
      </g>
     </g>
    </g>
   </g>
   <g id="PolyCollection_1">
    <defs>
     <path d="M 41.57195 -256.180924 
L 41.57195 -254.437951 
L 44.711742 -260.640076 
L 47.851535 -264.159012 
L 50.991327 -267.848397 
L 54.13112 -270.108214 
L 57.270912 -270.931865 
L 60.410705 -273.341237 
L 63.550497 -274.660838 
L 66.69029 -275.430468 
L 69.830082 -275.253284 
L 72.969875 -276.343329 
L 76.109667 -276.700721 
L 79.24946 -277.640937 
L 82.389253 -277.212067 
L 85.529045 -278.179774 
L 88.668838 -278.102798 
L 91.80863 -277.932349 
L 94.948423 -278.883562 
L 98.088215 -277.976336 
L 101.228008 -278.597648 
L 104.3678 -279.323429 
L 107.507593 -278.690433 
L 110.647385 -278.894558 
L 113.787178 -279.389409 
L 116.92697 -279.284665 
L 120.066763 -279.048512 
L 123.206555 -279.350096 
L 126.346348 -280.093196 
L 129.48614 -280.131684 
L 132.625933 -279.44989 
L 135.765725 -280.021718 
L 138.905518 -280.115189 
L 142.04531 -279.290439 
L 145.185103 -279.862266 
L 148.324895 -280.043711 
L 151.464688 -279.790787 
L 154.60448 -279.782265 
L 157.744273 -279.939243 
L 160.884065 -280.365364 
L 164.023858 -280.461585 
L 167.16365 -280.392855 
L 170.303443 -280.076701 
L 173.443235 -279.705563 
L 176.583028 -280.763993 
L 179.72282 -280.324126 
L 182.862613 -280.351618 
L 186.002405 -280.722756 
L 186.002405 -281.286335 
L 186.002405 -281.286335 
L 182.862613 -281.361938 
L 179.72282 -280.867087 
L 176.583028 -281.162623 
L 173.443235 -280.915198 
L 170.303443 -280.571551 
L 167.16365 -281.004546 
L 164.023858 -281.148877 
L 160.884065 -281.361938 
L 157.744273 -280.483578 
L 154.60448 -280.599043 
L 151.464688 -280.197664 
L 148.324895 -280.549558 
L 145.185103 -280.621036 
L 142.04531 -280.390106 
L 138.905518 -280.368113 
L 135.765725 -280.670521 
L 132.625933 -280.912448 
L 129.48614 -280.494575 
L 126.346348 -280.384608 
L 123.206555 -280.010721 
L 120.066763 -280.043711 
L 116.92697 -279.961236 
L 113.787178 -280.02213 
L 110.647385 -279.928246 
L 107.507593 -279.614841 
L 104.3678 -279.950239 
L 101.228008 -279.983229 
L 98.088215 -279.614841 
L 94.948423 -279.285078 
L 91.80863 -279.301435 
L 88.668838 -278.575655 
L 85.529045 -278.900057 
L 82.389253 -278.284243 
L 79.24946 -278.267885 
L 76.109667 -277.646436 
L 72.969875 -277.00313 
L 69.830082 -276.882167 
L 66.69029 -276.662233 
L 63.550497 -275.496585 
L 60.410705 -274.957748 
L 57.270912 -273.59416 
L 54.13112 -270.877981 
L 50.991327 -269.255972 
L 47.851535 -266.358348 
L 44.711742 -263.213298 
L 41.57195 -256.180924 
z
" id="m5546bc8105" style="stroke:#1f77b4;stroke-opacity:0.2;"/>
    </defs>
    <g clip-path="url(#p7a23756fdb)">
     <use style="fill:#1f77b4;fill-opacity:0.2;stroke:#1f77b4;stroke-opacity:0.2;" x="0" xlink:href="#m5546bc8105" y="315.776062"/>
    </g>
   </g>
   <g id="PolyCollection_2">
    <defs>
     <path d="M 41.57195 -262.899893 
L 41.57195 -261.178913 
L 44.711742 -267.974859 
L 47.851535 -271.438812 
L 50.991327 -273.36323 
L 54.13112 -274.281453 
L 57.270912 -275.188678 
L 60.410705 -276.249858 
L 63.550497 -276.436801 
L 66.69029 -277.717914 
L 69.830082 -277.926851 
L 72.969875 -277.46499 
L 76.109667 -277.849874 
L 79.24946 -278.009326 
L 82.389253 -278.377302 
L 85.529045 -279.235455 
L 88.668838 -278.685621 
L 91.80863 -279.147482 
L 94.948423 -279.339924 
L 98.088215 -279.196967 
L 101.228008 -279.306934 
L 104.3678 -279.05401 
L 107.507593 -279.361917 
L 110.647385 -279.339924 
L 113.787178 -279.48288 
L 116.92697 -280.076701 
L 120.066763 -279.678071 
L 123.206555 -280.062955 
L 126.346348 -279.471884 
L 129.48614 -279.423773 
L 132.625933 -279.595596 
L 135.765725 -280.049209 
L 138.905518 -279.843022 
L 142.04531 -279.664326 
L 145.185103 -280.681518 
L 145.185103 -280.928943 
L 145.185103 -280.928943 
L 142.04531 -280.021718 
L 138.905518 -280.777739 
L 135.765725 -280.949562 
L 132.625933 -280.351618 
L 129.48614 -280.983927 
L 126.346348 -280.434093 
L 123.206555 -280.530314 
L 120.066763 -280.612789 
L 116.92697 -280.84097 
L 113.787178 -280.522204 
L 110.647385 -280.192166 
L 107.507593 -280.230654 
L 104.3678 -280.082199 
L 101.228008 -280.247149 
L 98.088215 -279.884259 
L 94.948423 -279.928246 
L 91.80863 -279.669824 
L 88.668838 -279.792437 
L 85.529045 -279.939243 
L 82.389253 -279.010023 
L 79.24946 -279.763433 
L 76.109667 -278.971535 
L 72.969875 -278.801087 
L 69.830082 -278.784729 
L 66.69029 -278.630638 
L 63.550497 -277.702244 
L 60.410705 -276.832682 
L 57.270912 -276.343329 
L 54.13112 -275.474592 
L 50.991327 -274.418911 
L 47.851535 -272.340539 
L 44.711742 -269.993986 
L 41.57195 -262.899893 
z
" id="m7c0c46b2e4" style="stroke:#ff7f0e;stroke-opacity:0.2;"/>
    </defs>
    <g clip-path="url(#p7a23756fdb)">
     <use style="fill:#ff7f0e;fill-opacity:0.2;stroke:#ff7f0e;stroke-opacity:0.2;" x="0" xlink:href="#m7c0c46b2e4" y="315.776062"/>
    </g>
   </g>
   <g id="PolyCollection_3">
    <defs>
     <path d="M 41.57195 -267.617467 
L 41.57195 -266.446321 
L 44.711742 -270.872483 
L 47.851535 -273.16529 
L 50.991327 -274.434719 
L 54.13112 -274.913212 
L 57.270912 -275.782499 
L 60.410705 -276.64024 
L 63.550497 -276.667731 
L 66.69029 -276.90416 
L 69.830082 -277.30004 
L 72.969875 -277.855372 
L 76.109667 -278.438196 
L 79.24946 -278.443695 
L 82.389253 -279.032017 
L 85.529045 -278.812083 
L 88.668838 -278.344725 
L 91.80863 -279.499375 
L 94.948423 -279.306934 
L 98.088215 -279.664326 
L 101.228008 -280.159176 
L 104.3678 -279.994226 
L 107.507593 -279.994226 
L 110.647385 -279.389409 
L 113.787178 -279.801784 
L 116.92697 -278.509675 
L 120.066763 -280.54406 
L 123.206555 -280.186668 
L 126.346348 -280.681518 
L 129.48614 -280.406601 
L 129.48614 -280.70901 
L 129.48614 -280.70901 
L 126.346348 -280.736502 
L 123.206555 -280.406601 
L 120.066763 -281.286335 
L 116.92697 -278.839575 
L 113.787178 -280.54406 
L 110.647385 -279.994226 
L 107.507593 -280.571551 
L 104.3678 -280.076701 
L 101.228008 -280.489076 
L 98.088215 -279.966734 
L 94.948423 -279.526867 
L 91.80863 -279.719309 
L 88.668838 -279.664326 
L 85.529045 -279.746801 
L 82.389253 -279.306934 
L 79.24946 -279.356419 
L 76.109667 -279.153255 
L 72.969875 -279.186245 
L 69.830082 -278.537166 
L 66.69029 -278.454691 
L 63.550497 -278.086303 
L 60.410705 -277.877366 
L 57.270912 -277.113097 
L 54.13112 -276.095904 
L 50.991327 -275.683529 
L 47.851535 -274.089011 
L 44.711742 -272.79209 
L 41.57195 -267.617467 
z
" id="m1f753eed85" style="stroke:#2ca02c;stroke-opacity:0.2;"/>
    </defs>
    <g clip-path="url(#p7a23756fdb)">
     <use style="fill:#2ca02c;fill-opacity:0.2;stroke:#2ca02c;stroke-opacity:0.2;" x="0" xlink:href="#m1f753eed85" y="315.776062"/>
    </g>
   </g>
   <g id="PolyCollection_4">
    <defs>
     <path d="M 41.57195 -269.244975 
L 41.57195 -266.550789 
L 44.711742 -271.719227 
L 47.851535 -272.543978 
L 50.991327 -273.588662 
L 54.13112 -275.430605 
L 57.270912 -276.695223 
L 60.410705 -277.519974 
L 63.550497 -277.877366 
L 66.69029 -277.602449 
L 69.830082 -276.557765 
L 72.969875 -276.612748 
L 72.969875 -278.344725 
L 72.969875 -278.344725 
L 69.830082 -278.977033 
L 66.69029 -278.7571 
L 63.550497 -278.399708 
L 60.410705 -277.877366 
L 57.270912 -277.355024 
L 54.13112 -276.420306 
L 50.991327 -276.007931 
L 47.851535 -274.275954 
L 44.711742 -272.681436 
L 41.57195 -269.244975 
z
" id="mc2cd6fc796" style="stroke:#d62728;stroke-opacity:0.2;"/>
    </defs>
    <g clip-path="url(#p7a23756fdb)">
     <use style="fill:#d62728;fill-opacity:0.2;stroke:#d62728;stroke-opacity:0.2;" x="0" xlink:href="#mc2cd6fc796" y="315.776062"/>
    </g>
   </g>
   <g id="PolyCollection_5">
    <defs>
     <path d="M 41.57195 -268.062832 
L 41.57195 -265.58858 
L 44.711742 -271.224377 
L 47.851535 -273.39622 
L 50.991327 -273.451204 
L 54.13112 -275.210672 
L 57.270912 -275.815489 
L 60.410705 -276.777698 
L 63.550497 -278.207266 
L 66.69029 -278.097299 
L 69.830082 -277.382515 
L 72.969875 -277.767399 
L 72.969875 -279.004525 
L 72.969875 -279.004525 
L 69.830082 -278.372216 
L 66.69029 -278.949542 
L 63.550497 -278.482183 
L 60.410705 -278.262249 
L 57.270912 -276.832682 
L 54.13112 -276.282848 
L 50.991327 -275.458097 
L 47.851535 -274.220971 
L 44.711742 -273.313745 
L 41.57195 -268.062832 
z
" id="me1f12b54d3" style="stroke:#9467bd;stroke-opacity:0.2;"/>
    </defs>
    <g clip-path="url(#p7a23756fdb)">
     <use style="fill:#9467bd;fill-opacity:0.2;stroke:#9467bd;stroke-opacity:0.2;" x="0" xlink:href="#me1f12b54d3" y="315.776062"/>
    </g>
   </g>
   <g id="line2d_9">
    <path clip-path="url(#p7a23756fdb)" d="M 41.57195 60.381401 
L 44.711742 53.805389 
L 47.851535 50.517382 
L 50.991327 47.245871 
L 54.13112 45.205988 
L 57.270912 43.600473 
L 60.410705 41.615573 
L 63.550497 40.658862 
L 66.69029 39.724145 
L 69.830082 39.680158 
L 72.969875 39.080839 
L 76.109667 38.498016 
L 79.24946 37.783232 
L 82.389253 38.047152 
L 85.529045 37.288381 
L 88.668838 37.45883 
L 91.80863 37.183913 
L 94.948423 36.672567 
L 98.088215 36.865009 
L 101.228008 36.507617 
L 104.3678 36.139229 
L 107.507593 36.595591 
L 110.647385 36.381155 
L 113.787178 36.106239 
L 116.92697 36.128232 
L 120.066763 36.205209 
L 123.206555 36.056753 
L 126.346348 35.534411 
L 129.48614 35.435441 
L 132.625933 35.594893 
L 135.765725 35.429943 
L 138.905518 35.545408 
L 142.04531 35.974278 
L 145.185103 35.53991 
L 148.324895 35.462933 
L 151.464688 35.748847 
L 154.60448 35.583896 
L 157.744273 35.550906 
L 160.884065 34.977705 
L 164.023858 35.018942 
L 167.16365 35.142655 
L 170.303443 35.451936 
L 173.443235 35.465682 
L 176.583028 34.819627 
L 179.72282 35.197638 
L 182.862613 35.032688 
L 186.002405 34.771517 
L 189.142198 34.792136 
" style="fill:none;stroke:#1f77b4;stroke-linecap:round;stroke-width:1.5;"/>
   </g>
   <g id="line2d_10">
    <path clip-path="url(#p7a23756fdb)" d="M 41.57195 53.640438 
L 44.711742 46.795008 
L 47.851535 43.820407 
L 50.991327 41.901487 
L 54.13112 40.856803 
L 57.270912 40.010059 
L 60.410705 39.234793 
L 63.550497 38.717949 
L 66.69029 37.568796 
L 69.830082 37.42584 
L 72.969875 37.607285 
L 76.109667 37.365358 
L 79.24946 36.733049 
L 82.389253 37.112434 
L 85.529045 36.194212 
L 88.668838 36.562601 
L 91.80863 36.359162 
L 94.948423 36.183215 
L 98.088215 36.227202 
L 101.228008 36.012767 
L 104.3678 36.183215 
L 107.507593 36.051255 
L 110.647385 36.062252 
L 113.787178 35.754345 
L 116.92697 35.286986 
L 120.066763 35.630632 
L 123.206555 35.43819 
L 126.346348 35.713107 
L 129.48614 35.472555 
L 132.625933 35.802455 
L 135.765725 35.252622 
L 138.905518 35.520666 
L 142.04531 35.919295 
L 145.185103 34.96625 
L 148.324895 35.561903 
" style="fill:none;stroke:#ff7f0e;stroke-linecap:round;stroke-width:1.5;"/>
   </g>
   <g id="line2d_11">
    <path clip-path="url(#p7a23756fdb)" d="M 41.57195 48.746918 
L 44.711742 43.930374 
L 47.851535 42.159909 
L 50.991327 40.636869 
L 54.13112 40.26848 
L 57.270912 39.174311 
L 60.410705 38.580491 
L 63.550497 38.399045 
L 66.69029 37.98667 
L 69.830082 37.865707 
L 72.969875 37.238896 
L 76.109667 37.013464 
L 79.24946 36.897999 
L 82.389253 36.606587 
L 85.529045 36.496621 
L 88.668838 36.771537 
L 91.80863 36.16672 
L 94.948423 36.359162 
L 98.088215 35.960533 
L 101.228008 35.451936 
L 104.3678 35.740599 
L 107.507593 35.493174 
L 110.647385 36.084245 
L 113.787178 35.603141 
L 116.92697 37.101438 
L 120.066763 34.860865 
L 123.206555 35.479428 
L 126.346348 35.067053 
L 129.48614 35.218257 
L 132.625933 34.489727 
L 135.765725 36.744046 
L 138.905518 34.599694 
L 142.04531 34.819627 
L 145.185103 34.682169 
" style="fill:none;stroke:#2ca02c;stroke-linecap:round;stroke-width:1.5;"/>
   </g>
   <g id="line2d_12">
    <path clip-path="url(#p7a23756fdb)" d="M 41.57195 47.804869 
L 44.711742 43.635296 
L 47.851535 42.425662 
L 50.991327 40.931947 
L 54.13112 39.74064 
L 57.270912 38.833414 
L 60.410705 38.054483 
L 63.550497 37.706255 
L 66.69029 37.550469 
L 69.830082 37.752074 
L 72.969875 38.297326 
" style="fill:none;stroke:#d62728;stroke-linecap:round;stroke-width:1.5;"/>
   </g>
   <g id="line2d_13">
    <path clip-path="url(#p7a23756fdb)" d="M 41.57195 48.941192 
L 44.711742 43.699443 
L 47.851535 41.8575 
L 50.991327 41.069405 
L 54.13112 40.043049 
L 57.270912 39.612345 
L 60.410705 38.384383 
L 63.550497 37.467994 
L 66.69029 37.24806 
L 69.830082 37.962844 
L 72.969875 37.202241 
" style="fill:none;stroke:#9467bd;stroke-linecap:round;stroke-width:1.5;"/>
   </g>
   <g id="line2d_14"/>
   <g id="line2d_15"/>
   <g id="line2d_16"/>
   <g id="line2d_17"/>
   <g id="line2d_18"/>
   <g id="line2d_19"/>
   <g id="patch_3">
    <path d="M 34.193438 288.430125 
L 34.193438 22.318125 
" style="fill:none;stroke:#ffffff;stroke-linecap:square;stroke-linejoin:miter;stroke-width:1.25;"/>
   </g>
   <g id="patch_4">
    <path d="M 196.52071 288.430125 
L 196.52071 22.318125 
" style="fill:none;stroke:#ffffff;stroke-linecap:square;stroke-linejoin:miter;stroke-width:1.25;"/>
   </g>
   <g id="patch_5">
    <path d="M 34.193438 288.430125 
L 196.52071 288.430125 
" style="fill:none;stroke:#ffffff;stroke-linecap:square;stroke-linejoin:miter;stroke-width:1.25;"/>
   </g>
   <g id="patch_6">
    <path d="M 34.193438 22.318125 
L 196.52071 22.318125 
" style="fill:none;stroke:#ffffff;stroke-linecap:square;stroke-linejoin:miter;stroke-width:1.25;"/>
   </g>
   <g id="text_9">
    <!-- rankdad -->
    <defs>
     <path d="M 41.109375 46.296875 
Q 39.59375 47.171875 37.8125 47.578125 
Q 36.03125 48 33.890625 48 
Q 26.265625 48 22.1875 43.046875 
Q 18.109375 38.09375 18.109375 28.8125 
L 18.109375 0 
L 9.078125 0 
L 9.078125 54.6875 
L 18.109375 54.6875 
L 18.109375 46.1875 
Q 20.953125 51.171875 25.484375 53.578125 
Q 30.03125 56 36.53125 56 
Q 37.453125 56 38.578125 55.875 
Q 39.703125 55.765625 41.0625 55.515625 
z
" id="DejaVuSans-114"/>
     <path d="M 34.28125 27.484375 
Q 23.390625 27.484375 19.1875 25 
Q 14.984375 22.515625 14.984375 16.5 
Q 14.984375 11.71875 18.140625 8.90625 
Q 21.296875 6.109375 26.703125 6.109375 
Q 34.1875 6.109375 38.703125 11.40625 
Q 43.21875 16.703125 43.21875 25.484375 
L 43.21875 27.484375 
z
M 52.203125 31.203125 
L 52.203125 0 
L 43.21875 0 
L 43.21875 8.296875 
Q 40.140625 3.328125 35.546875 0.953125 
Q 30.953125 -1.421875 24.3125 -1.421875 
Q 15.921875 -1.421875 10.953125 3.296875 
Q 6 8.015625 6 15.921875 
Q 6 25.140625 12.171875 29.828125 
Q 18.359375 34.515625 30.609375 34.515625 
L 43.21875 34.515625 
L 43.21875 35.40625 
Q 43.21875 41.609375 39.140625 45 
Q 35.0625 48.390625 27.6875 48.390625 
Q 23 48.390625 18.546875 47.265625 
Q 14.109375 46.140625 10.015625 43.890625 
L 10.015625 52.203125 
Q 14.9375 54.109375 19.578125 55.046875 
Q 24.21875 56 28.609375 56 
Q 40.484375 56 46.34375 49.84375 
Q 52.203125 43.703125 52.203125 31.203125 
z
" id="DejaVuSans-97"/>
     <path d="M 54.890625 33.015625 
L 54.890625 0 
L 45.90625 0 
L 45.90625 32.71875 
Q 45.90625 40.484375 42.875 44.328125 
Q 39.84375 48.1875 33.796875 48.1875 
Q 26.515625 48.1875 22.3125 43.546875 
Q 18.109375 38.921875 18.109375 30.90625 
L 18.109375 0 
L 9.078125 0 
L 9.078125 54.6875 
L 18.109375 54.6875 
L 18.109375 46.1875 
Q 21.34375 51.125 25.703125 53.5625 
Q 30.078125 56 35.796875 56 
Q 45.21875 56 50.046875 50.171875 
Q 54.890625 44.34375 54.890625 33.015625 
z
" id="DejaVuSans-110"/>
     <path d="M 9.078125 75.984375 
L 18.109375 75.984375 
L 18.109375 31.109375 
L 44.921875 54.6875 
L 56.390625 54.6875 
L 27.390625 29.109375 
L 57.625 0 
L 45.90625 0 
L 18.109375 26.703125 
L 18.109375 0 
L 9.078125 0 
z
" id="DejaVuSans-107"/>
     <path d="M 45.40625 46.390625 
L 45.40625 75.984375 
L 54.390625 75.984375 
L 54.390625 0 
L 45.40625 0 
L 45.40625 8.203125 
Q 42.578125 3.328125 38.25 0.953125 
Q 33.9375 -1.421875 27.875 -1.421875 
Q 17.96875 -1.421875 11.734375 6.484375 
Q 5.515625 14.40625 5.515625 27.296875 
Q 5.515625 40.1875 11.734375 48.09375 
Q 17.96875 56 27.875 56 
Q 33.9375 56 38.25 53.625 
Q 42.578125 51.265625 45.40625 46.390625 
z
M 14.796875 27.296875 
Q 14.796875 17.390625 18.875 11.75 
Q 22.953125 6.109375 30.078125 6.109375 
Q 37.203125 6.109375 41.296875 11.75 
Q 45.40625 17.390625 45.40625 27.296875 
Q 45.40625 37.203125 41.296875 42.84375 
Q 37.203125 48.484375 30.078125 48.484375 
Q 22.953125 48.484375 18.875 42.84375 
Q 14.796875 37.203125 14.796875 27.296875 
z
" id="DejaVuSans-100"/>
    </defs>
    <g style="fill:#262626;" transform="translate(90.641761 16.318125)scale(0.12 -0.12)">
     <use xlink:href="#DejaVuSans-114"/>
     <use x="41.113281" xlink:href="#DejaVuSans-97"/>
     <use x="102.392578" xlink:href="#DejaVuSans-110"/>
     <use x="165.771484" xlink:href="#DejaVuSans-107"/>
     <use x="223.681641" xlink:href="#DejaVuSans-100"/>
     <use x="287.158203" xlink:href="#DejaVuSans-97"/>
     <use x="348.4375" xlink:href="#DejaVuSans-100"/>
    </g>
   </g>
   <g id="legend_1">
    <g id="patch_7">
     <path d="M 41.893438 282.930125 
L 101.697344 282.930125 
Q 103.897344 282.930125 103.897344 280.730125 
L 103.897344 184.9545 
Q 103.897344 182.7545 101.697344 182.7545 
L 41.893438 182.7545 
Q 39.693438 182.7545 39.693438 184.9545 
L 39.693438 280.730125 
Q 39.693438 282.930125 41.893438 282.930125 
z
" style="fill:#eaeaf2;opacity:0.8;stroke:#cccccc;stroke-linejoin:miter;"/>
    </g>
    <g id="line2d_20">
     <path d="M 44.093438 191.662781 
L 66.093437 191.662781 
" style="fill:none;"/>
    </g>
    <g id="line2d_21"/>
    <g id="text_10">
     <!-- rank -->
     <g style="fill:#262626;" transform="translate(74.893438 195.512781)scale(0.11 -0.11)">
      <use xlink:href="#DejaVuSans-114"/>
      <use x="41.113281" xlink:href="#DejaVuSans-97"/>
      <use x="102.392578" xlink:href="#DejaVuSans-110"/>
      <use x="165.771484" xlink:href="#DejaVuSans-107"/>
     </g>
    </g>
    <g id="line2d_22">
     <path d="M 44.093438 207.808719 
L 66.093437 207.808719 
" style="fill:none;stroke:#1f77b4;stroke-linecap:round;stroke-width:1.5;"/>
    </g>
    <g id="line2d_23"/>
    <g id="text_11">
     <!-- 3 -->
     <defs>
      <path d="M 40.578125 39.3125 
Q 47.65625 37.796875 51.625 33 
Q 55.609375 28.21875 55.609375 21.1875 
Q 55.609375 10.40625 48.1875 4.484375 
Q 40.765625 -1.421875 27.09375 -1.421875 
Q 22.515625 -1.421875 17.65625 -0.515625 
Q 12.796875 0.390625 7.625 2.203125 
L 7.625 11.71875 
Q 11.71875 9.328125 16.59375 8.109375 
Q 21.484375 6.890625 26.8125 6.890625 
Q 36.078125 6.890625 40.9375 10.546875 
Q 45.796875 14.203125 45.796875 21.1875 
Q 45.796875 27.640625 41.28125 31.265625 
Q 36.765625 34.90625 28.71875 34.90625 
L 20.21875 34.90625 
L 20.21875 43.015625 
L 29.109375 43.015625 
Q 36.375 43.015625 40.234375 45.921875 
Q 44.09375 48.828125 44.09375 54.296875 
Q 44.09375 59.90625 40.109375 62.90625 
Q 36.140625 65.921875 28.71875 65.921875 
Q 24.65625 65.921875 20.015625 65.03125 
Q 15.375 64.15625 9.8125 62.3125 
L 9.8125 71.09375 
Q 15.4375 72.65625 20.34375 73.4375 
Q 25.25 74.21875 29.59375 74.21875 
Q 40.828125 74.21875 47.359375 69.109375 
Q 53.90625 64.015625 53.90625 55.328125 
Q 53.90625 49.265625 50.4375 45.09375 
Q 46.96875 40.921875 40.578125 39.3125 
z
" id="DejaVuSans-51"/>
     </defs>
     <g style="fill:#262626;" transform="translate(74.893438 211.658719)scale(0.11 -0.11)">
      <use xlink:href="#DejaVuSans-51"/>
     </g>
    </g>
    <g id="line2d_24">
     <path d="M 44.093438 223.954656 
L 66.093437 223.954656 
" style="fill:none;stroke:#ff7f0e;stroke-linecap:round;stroke-width:1.5;"/>
    </g>
    <g id="line2d_25"/>
    <g id="text_12">
     <!-- 4 -->
     <g style="fill:#262626;" transform="translate(74.893438 227.804656)scale(0.11 -0.11)">
      <use xlink:href="#DejaVuSans-52"/>
     </g>
    </g>
    <g id="line2d_26">
     <path d="M 44.093438 240.100594 
L 66.093437 240.100594 
" style="fill:none;stroke:#2ca02c;stroke-linecap:round;stroke-width:1.5;"/>
    </g>
    <g id="line2d_27"/>
    <g id="text_13">
     <!-- 8 -->
     <g style="fill:#262626;" transform="translate(74.893438 243.950594)scale(0.11 -0.11)">
      <use xlink:href="#DejaVuSans-56"/>
     </g>
    </g>
    <g id="line2d_28">
     <path d="M 44.093438 256.246531 
L 66.093437 256.246531 
" style="fill:none;stroke:#d62728;stroke-linecap:round;stroke-width:1.5;"/>
    </g>
    <g id="line2d_29"/>
    <g id="text_14">
     <!-- 16 -->
     <g style="fill:#262626;" transform="translate(74.893438 260.096531)scale(0.11 -0.11)">
      <use xlink:href="#DejaVuSans-49"/>
      <use x="63.623047" xlink:href="#DejaVuSans-54"/>
     </g>
    </g>
    <g id="line2d_30">
     <path d="M 44.093438 272.392469 
L 66.093437 272.392469 
" style="fill:none;stroke:#9467bd;stroke-linecap:round;stroke-width:1.5;"/>
    </g>
    <g id="line2d_31"/>
    <g id="text_15">
     <!-- 32 -->
     <g style="fill:#262626;" transform="translate(74.893438 276.242469)scale(0.11 -0.11)">
      <use xlink:href="#DejaVuSans-51"/>
      <use x="63.623047" xlink:href="#DejaVuSans-50"/>
     </g>
    </g>
   </g>
  </g>
  <g id="axes_2">
   <g id="patch_8">
    <path d="M 228.986165 288.430125 
L 391.313437 288.430125 
L 391.313437 22.318125 
L 228.986165 22.318125 
z
" style="fill:#eaeaf2;"/>
   </g>
   <g id="matplotlib.axis_3">
    <g id="xtick_4">
     <g id="line2d_32">
      <path clip-path="url(#pd79170891c)" d="M 236.364677 288.430125 
L 236.364677 22.318125 
" style="fill:none;stroke:#ffffff;stroke-linecap:round;"/>
     </g>
     <g id="text_16">
      <!-- 0 -->
      <g style="fill:#262626;" transform="translate(232.865302 306.288406)scale(0.11 -0.11)">
       <use xlink:href="#DejaVuSans-48"/>
      </g>
     </g>
    </g>
    <g id="xtick_5">
     <g id="line2d_33">
      <path clip-path="url(#pd79170891c)" d="M 310.895105 288.430125 
L 310.895105 22.318125 
" style="fill:none;stroke:#ffffff;stroke-linecap:round;"/>
     </g>
     <g id="text_17">
      <!-- 50 -->
      <defs>
       <path d="M 10.796875 72.90625 
L 49.515625 72.90625 
L 49.515625 64.59375 
L 19.828125 64.59375 
L 19.828125 46.734375 
Q 21.96875 47.46875 24.109375 47.828125 
Q 26.265625 48.1875 28.421875 48.1875 
Q 40.625 48.1875 47.75 41.5 
Q 54.890625 34.8125 54.890625 23.390625 
Q 54.890625 11.625 47.5625 5.09375 
Q 40.234375 -1.421875 26.90625 -1.421875 
Q 22.3125 -1.421875 17.546875 -0.640625 
Q 12.796875 0.140625 7.71875 1.703125 
L 7.71875 11.625 
Q 12.109375 9.234375 16.796875 8.0625 
Q 21.484375 6.890625 26.703125 6.890625 
Q 35.15625 6.890625 40.078125 11.328125 
Q 45.015625 15.765625 45.015625 23.390625 
Q 45.015625 31 40.078125 35.4375 
Q 35.15625 39.890625 26.703125 39.890625 
Q 22.75 39.890625 18.8125 39.015625 
Q 14.890625 38.140625 10.796875 36.28125 
z
" id="DejaVuSans-53"/>
      </defs>
      <g style="fill:#262626;" transform="translate(303.896355 306.288406)scale(0.11 -0.11)">
       <use xlink:href="#DejaVuSans-53"/>
       <use x="63.623047" xlink:href="#DejaVuSans-48"/>
      </g>
     </g>
    </g>
    <g id="xtick_6">
     <g id="line2d_34">
      <path clip-path="url(#pd79170891c)" d="M 385.425534 288.430125 
L 385.425534 22.318125 
" style="fill:none;stroke:#ffffff;stroke-linecap:round;"/>
     </g>
     <g id="text_18">
      <!-- 100 -->
      <g style="fill:#262626;" transform="translate(374.927409 306.288406)scale(0.11 -0.11)">
       <use xlink:href="#DejaVuSans-49"/>
       <use x="63.623047" xlink:href="#DejaVuSans-48"/>
       <use x="127.246094" xlink:href="#DejaVuSans-48"/>
      </g>
     </g>
    </g>
   </g>
   <g id="matplotlib.axis_4">
    <g id="ytick_6">
     <g id="line2d_35">
      <path clip-path="url(#pd79170891c)" d="M 228.986165 248.292601 
L 391.313437 248.292601 
" style="fill:none;stroke:#ffffff;stroke-linecap:round;"/>
     </g>
    </g>
    <g id="ytick_7">
     <g id="line2d_36">
      <path clip-path="url(#pd79170891c)" d="M 228.986165 193.309221 
L 391.313437 193.309221 
" style="fill:none;stroke:#ffffff;stroke-linecap:round;"/>
     </g>
    </g>
    <g id="ytick_8">
     <g id="line2d_37">
      <path clip-path="url(#pd79170891c)" d="M 228.986165 138.325841 
L 391.313437 138.325841 
" style="fill:none;stroke:#ffffff;stroke-linecap:round;"/>
     </g>
    </g>
    <g id="ytick_9">
     <g id="line2d_38">
      <path clip-path="url(#pd79170891c)" d="M 228.986165 83.34246 
L 391.313437 83.34246 
" style="fill:none;stroke:#ffffff;stroke-linecap:round;"/>
     </g>
    </g>
    <g id="ytick_10">
     <g id="line2d_39">
      <path clip-path="url(#pd79170891c)" d="M 228.986165 28.35908 
L 391.313437 28.35908 
" style="fill:none;stroke:#ffffff;stroke-linecap:round;"/>
     </g>
    </g>
   </g>
   <g id="PolyCollection_6">
    <defs>
     <path d="M 236.364677 -262.580989 
L 236.364677 -258.253797 
L 237.855286 -262.146621 
L 239.345894 -262.707451 
L 240.836503 -262.075142 
L 242.327111 -263.903615 
L 243.81772 -263.620175 
L 245.308329 -264.224992 
L 246.798937 -262.086139 
L 248.289546 -266.248381 
L 249.780154 -264.989261 
L 251.270763 -263.229793 
L 252.761371 -265.445624 
L 254.25198 -266.512301 
L 255.742589 -268.134311 
L 257.233197 -266.187899 
L 258.723806 -264.109527 
L 260.214414 -264.098531 
L 261.705023 -263.884096 
L 263.195631 -263.147318 
L 264.68624 -262.828415 
L 266.176848 -262.866903 
L 267.667457 -263.570553 
L 269.158066 -264.428431 
L 270.648674 -264.230491 
L 272.139283 -262.613979 
L 273.629891 -258.349881 
L 275.1205 -261.283382 
L 276.611108 -258.87511 
L 278.101717 -257.998262 
L 279.592326 -259.727352 
L 281.082934 -258.638681 
L 282.573543 -257.811868 
L 284.064151 -131.929481 
L 285.55476 -124.022871 
L 287.045368 -125.078552 
L 288.535977 -128.16312 
L 290.026586 -126.585097 
L 291.517194 -130.230495 
L 293.007803 -127.987173 
L 294.498411 -126.882007 
L 295.98902 -128.106762 
L 297.479628 -82.565403 
L 298.970237 -83.643077 
L 300.460845 -81.850619 
L 301.951454 -82.087047 
L 303.442063 -39.441938 
L 304.932671 -39.441938 
L 306.42328 -39.441938 
L 307.913888 -39.441938 
L 309.404497 -39.441938 
L 310.895105 -240.653617 
L 312.385714 -237.382106 
L 313.876323 -39.441938 
L 315.366931 -39.441938 
L 316.85754 -39.441938 
L 318.348148 -39.441938 
L 319.838757 -39.441938 
L 321.329365 -39.441938 
L 322.819974 -39.441938 
L 324.310583 -39.441938 
L 325.801191 -39.441938 
L 327.2918 -39.441938 
L 328.782408 -39.441938 
L 330.273017 -39.441938 
L 331.763625 -39.441938 
L 333.254234 -39.441938 
L 334.744842 -39.441938 
L 336.235451 -39.441938 
L 337.72606 -39.441938 
L 339.216668 -39.441938 
L 340.707277 -39.441938 
L 342.197885 -39.441938 
L 343.688494 -39.441938 
L 345.179102 -39.441938 
L 346.669711 -39.441938 
L 348.16032 -39.441938 
L 349.650928 -39.441938 
L 351.141537 -39.441938 
L 352.632145 -39.441938 
L 354.122754 -39.441938 
L 355.613362 -39.441938 
L 357.103971 -39.441938 
L 358.594579 -39.441938 
L 360.085188 -39.441938 
L 361.575797 -39.441938 
L 363.066405 -39.441938 
L 364.557014 -39.441938 
L 366.047622 -39.441938 
L 367.538231 -39.441938 
L 369.028839 -39.441938 
L 370.519448 -39.441938 
L 372.010057 -39.441938 
L 373.500665 -39.441938 
L 374.991274 -39.441938 
L 376.481882 -39.441938 
L 377.972491 -39.441938 
L 379.463099 -39.441938 
L 380.953708 -39.441938 
L 382.444317 -39.441938 
L 383.934925 -39.441938 
L 383.934925 -273.946054 
L 383.934925 -273.946054 
L 382.444317 -273.973546 
L 380.953708 -274.578363 
L 379.463099 -273.946054 
L 377.972491 -275.595556 
L 376.481882 -275.678031 
L 374.991274 -276.365323 
L 373.500665 -275.293147 
L 372.010057 -275.540572 
L 370.519448 -275.238164 
L 369.028839 -276.200373 
L 367.538231 -275.045722 
L 366.047622 -275.155688 
L 364.557014 -274.963247 
L 363.066405 -274.413413 
L 361.575797 -275.01823 
L 360.085188 -273.753612 
L 358.594579 -274.825788 
L 357.103971 -274.578363 
L 355.613362 -274.798296 
L 354.122754 -274.220971 
L 352.632145 -274.495888 
L 351.141537 -274.138496 
L 349.650928 -274.303446 
L 348.16032 -272.928862 
L 346.669711 -274.138496 
L 345.179102 -274.330938 
L 343.688494 -274.578363 
L 342.197885 -274.083513 
L 340.707277 -274.138496 
L 339.216668 -273.753612 
L 337.72606 -273.286254 
L 336.235451 -273.423712 
L 334.744842 -273.451204 
L 333.254234 -273.011337 
L 331.763625 -272.131603 
L 330.273017 -272.763911 
L 328.782408 -272.708928 
L 327.2918 -272.351536 
L 325.801191 -272.269061 
L 324.310583 -272.131603 
L 322.819974 -271.141902 
L 321.329365 -270.344643 
L 319.838757 -268.557683 
L 318.348148 -267.073132 
L 316.85754 -265.478614 
L 315.366931 -264.92878 
L 313.876323 -263.664162 
L 312.385714 -262.866903 
L 310.895105 -262.756936 
L 309.404497 -212.876014 
L 307.913888 -213.502824 
L 306.42328 -215.306279 
L 304.932671 -216.719352 
L 303.442063 -215.680166 
L 301.951454 -267.985856 
L 300.460845 -266.099926 
L 298.970237 -268.013347 
L 297.479628 -264.906786 
L 295.98902 -269.497899 
L 294.498411 -269.992749 
L 293.007803 -271.823696 
L 291.517194 -272.357034 
L 290.026586 -272.609958 
L 288.535977 -271.306852 
L 287.045368 -271.625755 
L 285.55476 -272.420678 
L 284.064151 -273.766946 
L 282.573543 -274.303446 
L 281.082934 -274.495888 
L 279.592326 -274.506885 
L 278.101717 -273.418214 
L 276.611108 -273.73588 
L 275.1205 -275.419609 
L 273.629891 -272.989343 
L 272.139283 -274.127499 
L 270.648674 -273.858081 
L 269.158066 -273.858081 
L 267.667457 -272.730921 
L 266.176848 -274.023031 
L 264.68624 -273.247765 
L 263.195631 -272.379028 
L 261.705023 -273.06632 
L 260.214414 -271.391801 
L 258.723806 -273.440207 
L 257.233197 -273.814094 
L 255.742589 -273.990041 
L 254.25198 -274.012034 
L 252.761371 -272.633326 
L 251.270763 -271.488297 
L 249.780154 -270.873033 
L 248.289546 -272.016137 
L 246.798937 -270.427118 
L 245.308329 -270.157699 
L 243.81772 -269.910274 
L 242.327111 -268.961536 
L 240.836503 -268.381736 
L 239.345894 -266.325358 
L 237.855286 -265.577584 
L 236.364677 -262.580989 
z
" id="mafaf66010f" style="stroke:#1f77b4;stroke-opacity:0.2;"/>
    </defs>
    <g clip-path="url(#pd79170891c)">
     <use style="fill:#1f77b4;fill-opacity:0.2;stroke:#1f77b4;stroke-opacity:0.2;" x="0" xlink:href="#mafaf66010f" y="315.776062"/>
    </g>
   </g>
   <g id="PolyCollection_7">
    <defs>
     <path d="M 236.364677 -259.754844 
L 236.364677 -258.490226 
L 237.855286 -264.494411 
L 239.345894 -267.710939 
L 240.836503 -268.86559 
L 242.327111 -269.992337 
L 243.81772 -272.175589 
L 245.308329 -272.587965 
L 246.798937 -272.989343 
L 248.289546 -274.627848 
L 249.780154 -274.704825 
L 251.270763 -274.60503 
L 252.761371 -275.936452 
L 254.25198 -275.38112 
L 255.742589 -276.282848 
L 257.233197 -275.359127 
L 258.723806 -275.601054 
L 260.214414 -276.788282 
L 261.705023 -277.06911 
L 263.195631 -277.954343 
L 264.68624 -277.327532 
L 266.176848 -277.569459 
L 267.667457 -277.613446 
L 269.158066 -277.694958 
L 270.648674 -278.135788 
L 272.139283 -277.804788 
L 273.629891 -277.475987 
L 275.1205 -277.899359 
L 276.611108 -278.553661 
L 278.101717 -278.014824 
L 279.592326 -277.932349 
L 281.082934 -277.893861 
L 282.573543 -278.168778 
L 284.064151 -277.794891 
L 285.55476 -87.035551 
L 287.045368 -87.392943 
L 288.535977 -87.33796 
L 290.026586 -87.00806 
L 291.517194 -86.936581 
L 293.007803 -86.870601 
L 294.498411 -87.002561 
L 295.98902 -39.441938 
L 297.479628 -39.441938 
L 298.970237 -39.441938 
L 300.460845 -39.441938 
L 301.951454 -39.441938 
L 303.442063 -39.441938 
L 304.932671 -39.441938 
L 306.42328 -39.441938 
L 307.913888 -39.441938 
L 309.404497 -39.441938 
L 310.895105 -39.441938 
L 312.385714 -39.441938 
L 313.876323 -39.441938 
L 315.366931 -39.441938 
L 316.85754 -39.441938 
L 318.348148 -39.441938 
L 319.838757 -39.441938 
L 321.329365 -39.441938 
L 322.819974 -39.441938 
L 324.310583 -39.441938 
L 325.801191 -39.441938 
L 327.2918 -39.441938 
L 328.782408 -39.441938 
L 330.273017 -39.441938 
L 331.763625 -39.441938 
L 333.254234 -39.441938 
L 334.744842 -39.441938 
L 336.235451 -39.441938 
L 337.72606 -39.441938 
L 339.216668 -39.441938 
L 340.707277 -39.441938 
L 342.197885 -39.441938 
L 343.688494 -39.441938 
L 345.179102 -39.441938 
L 346.669711 -39.441938 
L 348.16032 -39.441938 
L 349.650928 -39.441938 
L 351.141537 -39.441938 
L 352.632145 -39.441938 
L 354.122754 -39.441938 
L 355.613362 -39.441938 
L 357.103971 -39.441938 
L 358.594579 -39.441938 
L 360.085188 -39.441938 
L 361.575797 -39.441938 
L 363.066405 -39.441938 
L 364.557014 -39.441938 
L 366.047622 -39.441938 
L 367.538231 -39.441938 
L 369.028839 -39.441938 
L 370.519448 -39.441938 
L 372.010057 -39.441938 
L 373.500665 -39.441938 
L 374.991274 -39.441938 
L 376.481882 -39.441938 
L 377.972491 -39.441938 
L 379.463099 -39.441938 
L 380.953708 -39.441938 
L 382.444317 -39.441938 
L 383.934925 -39.441938 
L 383.934925 -39.441938 
L 383.934925 -39.441938 
L 382.444317 -39.441938 
L 380.953708 -39.441938 
L 379.463099 -39.441938 
L 377.972491 -39.441938 
L 376.481882 -39.441938 
L 374.991274 -39.441938 
L 373.500665 -39.441938 
L 372.010057 -39.441938 
L 370.519448 -39.441938 
L 369.028839 -39.441938 
L 367.538231 -39.441938 
L 366.047622 -39.441938 
L 364.557014 -39.441938 
L 363.066405 -39.441938 
L 361.575797 -39.441938 
L 360.085188 -39.441938 
L 358.594579 -39.441938 
L 357.103971 -39.441938 
L 355.613362 -39.441938 
L 354.122754 -39.441938 
L 352.632145 -39.441938 
L 351.141537 -39.441938 
L 349.650928 -39.441938 
L 348.16032 -39.441938 
L 346.669711 -39.441938 
L 345.179102 -39.441938 
L 343.688494 -39.441938 
L 342.197885 -39.441938 
L 340.707277 -39.441938 
L 339.216668 -39.441938 
L 337.72606 -39.441938 
L 336.235451 -39.441938 
L 334.744842 -39.441938 
L 333.254234 -39.441938 
L 331.763625 -39.441938 
L 330.273017 -39.441938 
L 328.782408 -39.441938 
L 327.2918 -39.441938 
L 325.801191 -39.441938 
L 324.310583 -39.441938 
L 322.819974 -39.441938 
L 321.329365 -39.441938 
L 319.838757 -39.441938 
L 318.348148 -39.441938 
L 316.85754 -39.441938 
L 315.366931 -39.441938 
L 313.876323 -39.441938 
L 312.385714 -39.441938 
L 310.895105 -39.441938 
L 309.404497 -182.437214 
L 307.913888 -181.909374 
L 306.42328 -182.519689 
L 304.932671 -182.8166 
L 303.442063 -182.932065 
L 301.951454 -183.31145 
L 300.460845 -183.130005 
L 298.970237 -183.130005 
L 297.479628 -183.393925 
L 295.98902 -231.399914 
L 294.498411 -279.169475 
L 293.007803 -278.751602 
L 291.517194 -279.224459 
L 290.026586 -279.02102 
L 288.535977 -278.867067 
L 287.045368 -279.4169 
L 285.55476 -278.487681 
L 284.064151 -278.938545 
L 282.573543 -278.949542 
L 281.082934 -279.125489 
L 279.592326 -279.004525 
L 278.101717 -279.05401 
L 276.611108 -279.158479 
L 275.1205 -278.817582 
L 273.629891 -279.213462 
L 272.139283 -278.872565 
L 270.648674 -278.916552 
L 269.158066 -278.92205 
L 267.667457 -279.02102 
L 266.176848 -278.740605 
L 264.68624 -278.218263 
L 263.195631 -278.740605 
L 261.705023 -277.816884 
L 260.214414 -277.838877 
L 258.723806 -278.317233 
L 257.233197 -277.118595 
L 255.742589 -277.608772 
L 254.25198 -276.931789 
L 252.761371 -276.810688 
L 251.270763 -276.035423 
L 249.780154 -275.991848 
L 248.289546 -275.331635 
L 246.798937 -274.539875 
L 245.308329 -273.929971 
L 243.81772 -273.06632 
L 242.327111 -272.082118 
L 240.836503 -271.1474 
L 239.345894 -269.003048 
L 237.855286 -266.017451 
L 236.364677 -259.754844 
z
" id="m6e900c7c1e" style="stroke:#ff7f0e;stroke-opacity:0.2;"/>
    </defs>
    <g clip-path="url(#pd79170891c)">
     <use style="fill:#ff7f0e;fill-opacity:0.2;stroke:#ff7f0e;stroke-opacity:0.2;" x="0" xlink:href="#m6e900c7c1e" y="315.776062"/>
    </g>
   </g>
   <g id="PolyCollection_8">
    <defs>
     <path d="M 236.364677 -263.394743 
L 236.364677 -261.030458 
L 237.855286 -266.171404 
L 239.345894 -267.11162 
L 240.836503 -269.932267 
L 242.327111 -271.862184 
L 243.81772 -272.780406 
L 245.308329 -274.006536 
L 246.798937 -274.160489 
L 248.289546 -273.946054 
L 249.780154 -275.430605 
L 251.270763 -276.662096 
L 252.761371 -275.425107 
L 254.25198 -276.651236 
L 255.742589 -275.815489 
L 257.233197 -276.634741 
L 258.723806 -277.085605 
L 260.214414 -277.617707 
L 261.705023 -277.228562 
L 263.195631 -277.800389 
L 264.68624 -278.025821 
L 266.176848 -277.943346 
L 267.667457 -277.432 
L 269.158066 -277.811386 
L 270.648674 -276.969315 
L 272.139283 -278.196132 
L 273.629891 -278.025821 
L 275.1205 -277.519974 
L 276.611108 -278.339226 
L 278.101717 -278.113794 
L 279.592326 -278.773595 
L 281.082934 -278.289741 
L 282.573543 -135.160992 
L 284.064151 -135.206491 
L 285.55476 -135.129514 
L 287.045368 -87.123525 
L 288.535977 -87.343458 
L 290.026586 -87.442428 
L 291.517194 -39.441938 
L 293.007803 -39.441938 
L 294.498411 -39.441938 
L 295.98902 -39.441938 
L 297.479628 -39.441938 
L 298.970237 -39.441938 
L 300.460845 -39.441938 
L 301.951454 -39.441938 
L 303.442063 -39.441938 
L 304.932671 -39.441938 
L 306.42328 -39.441938 
L 307.913888 -39.441938 
L 309.404497 -39.441938 
L 310.895105 -39.441938 
L 312.385714 -39.441938 
L 313.876323 -39.441938 
L 315.366931 -39.441938 
L 316.85754 -39.441938 
L 318.348148 -39.441938 
L 319.838757 -39.441938 
L 321.329365 -39.441938 
L 322.819974 -39.441938 
L 324.310583 -39.441938 
L 325.801191 -39.441938 
L 327.2918 -39.441938 
L 328.782408 -39.441938 
L 330.273017 -39.441938 
L 331.763625 -39.441938 
L 333.254234 -39.441938 
L 334.744842 -39.441938 
L 336.235451 -39.441938 
L 337.72606 -39.441938 
L 339.216668 -39.441938 
L 340.707277 -39.441938 
L 342.197885 -39.441938 
L 343.688494 -39.441938 
L 345.179102 -39.441938 
L 346.669711 -39.441938 
L 348.16032 -39.441938 
L 349.650928 -39.441938 
L 351.141537 -39.441938 
L 352.632145 -39.441938 
L 354.122754 -39.441938 
L 355.613362 -39.441938 
L 357.103971 -39.441938 
L 358.594579 -39.441938 
L 360.085188 -39.441938 
L 361.575797 -39.441938 
L 363.066405 -39.441938 
L 364.557014 -39.441938 
L 366.047622 -39.441938 
L 367.538231 -39.441938 
L 369.028839 -39.441938 
L 370.519448 -39.441938 
L 372.010057 -39.441938 
L 373.500665 -39.441938 
L 374.991274 -39.441938 
L 376.481882 -39.441938 
L 377.972491 -39.441938 
L 379.463099 -39.441938 
L 380.953708 -39.441938 
L 382.444317 -39.441938 
L 383.934925 -39.441938 
L 383.934925 -39.441938 
L 383.934925 -39.441938 
L 382.444317 -39.441938 
L 380.953708 -39.441938 
L 379.463099 -39.441938 
L 377.972491 -39.441938 
L 376.481882 -39.441938 
L 374.991274 -39.441938 
L 373.500665 -39.441938 
L 372.010057 -39.441938 
L 370.519448 -39.441938 
L 369.028839 -39.441938 
L 367.538231 -39.441938 
L 366.047622 -39.441938 
L 364.557014 -39.441938 
L 363.066405 -39.441938 
L 361.575797 -39.441938 
L 360.085188 -39.441938 
L 358.594579 -39.441938 
L 357.103971 -39.441938 
L 355.613362 -39.441938 
L 354.122754 -39.441938 
L 352.632145 -39.441938 
L 351.141537 -39.441938 
L 349.650928 -39.441938 
L 348.16032 -39.441938 
L 346.669711 -39.441938 
L 345.179102 -39.441938 
L 343.688494 -39.441938 
L 342.197885 -39.441938 
L 340.707277 -39.441938 
L 339.216668 -39.441938 
L 337.72606 -39.441938 
L 336.235451 -39.441938 
L 334.744842 -39.441938 
L 333.254234 -39.441938 
L 331.763625 -39.441938 
L 330.273017 -39.441938 
L 328.782408 -39.441938 
L 327.2918 -39.441938 
L 325.801191 -39.441938 
L 324.310583 -39.441938 
L 322.819974 -39.441938 
L 321.329365 -39.441938 
L 319.838757 -39.441938 
L 318.348148 -39.441938 
L 316.85754 -39.441938 
L 315.366931 -39.441938 
L 313.876323 -39.441938 
L 312.385714 -39.441938 
L 310.895105 -279.169475 
L 309.404497 -278.124791 
L 307.913888 -278.564658 
L 306.42328 -278.729608 
L 304.932671 -279.087 
L 303.442063 -276.942648 
L 301.951454 -277.355024 
L 300.460845 -278.619641 
L 298.970237 -277.932349 
L 297.479628 -277.437499 
L 295.98902 -278.605896 
L 294.498411 -230.954549 
L 293.007803 -231.54837 
L 291.517194 -231.41641 
L 290.026586 -279.554359 
L 288.535977 -279.202465 
L 287.045368 -278.608645 
L 285.55476 -278.966037 
L 284.064151 -279.389409 
L 282.573543 -279.273944 
L 281.082934 -279.180472 
L 279.592326 -279.257449 
L 278.101717 -278.999027 
L 276.611108 -279.488516 
L 275.1205 -278.971535 
L 273.629891 -278.812083 
L 272.139283 -278.575655 
L 270.648674 -278.586651 
L 269.158066 -278.79119 
L 267.667457 -278.834901 
L 266.176848 -278.72411 
L 264.68624 -278.56507 
L 263.195631 -278.350223 
L 261.705023 -278.141286 
L 260.214414 -278.289741 
L 258.723806 -278.295239 
L 257.233197 -277.575507 
L 255.742589 -277.008628 
L 254.25198 -277.223064 
L 252.761371 -276.898662 
L 251.270763 -277.525472 
L 249.780154 -276.403949 
L 248.289546 -276.222366 
L 246.798937 -275.359127 
L 245.308329 -274.924758 
L 243.81772 -274.122138 
L 242.327111 -273.940556 
L 240.836503 -271.823833 
L 239.345894 -268.942566 
L 237.855286 -267.568669 
L 236.364677 -263.394743 
z
" id="me3280f3506" style="stroke:#2ca02c;stroke-opacity:0.2;"/>
    </defs>
    <g clip-path="url(#pd79170891c)">
     <use style="fill:#2ca02c;fill-opacity:0.2;stroke:#2ca02c;stroke-opacity:0.2;" x="0" xlink:href="#me3280f3506" y="315.776062"/>
    </g>
   </g>
   <g id="PolyCollection_9">
    <defs>
     <path d="M 236.364677 -265.561089 
L 236.364677 -261.68476 
L 237.855286 -266.688248 
L 239.345894 -269.409925 
L 240.836503 -270.812001 
L 242.327111 -269.849792 
L 243.81772 -271.361835 
L 245.308329 -272.488995 
L 245.308329 -274.68833 
L 245.308329 -274.68833 
L 243.81772 -273.423712 
L 242.327111 -273.506187 
L 240.836503 -271.939161 
L 239.345894 -270.097217 
L 237.855286 -269.272467 
L 236.364677 -265.561089 
z
" id="mffd8d7a03b" style="stroke:#d62728;stroke-opacity:0.2;"/>
    </defs>
    <g clip-path="url(#pd79170891c)">
     <use style="fill:#d62728;fill-opacity:0.2;stroke:#d62728;stroke-opacity:0.2;" x="0" xlink:href="#mffd8d7a03b" y="315.776062"/>
    </g>
   </g>
   <g id="PolyCollection_10">
    <defs>
     <path d="M 236.364677 -263.609179 
L 236.364677 -261.959677 
L 237.855286 -267.183098 
L 239.345894 -268.750125 
L 240.836503 -270.372134 
L 240.836503 -273.038828 
L 240.836503 -273.038828 
L 239.345894 -271.27936 
L 237.855286 -268.145307 
L 236.364677 -263.609179 
z
" id="mbdd8b0847f" style="stroke:#9467bd;stroke-opacity:0.2;"/>
    </defs>
    <g clip-path="url(#pd79170891c)">
     <use style="fill:#9467bd;fill-opacity:0.2;stroke:#9467bd;stroke-opacity:0.2;" x="0" xlink:href="#mbdd8b0847f" y="315.776062"/>
    </g>
   </g>
   <g id="line2d_40">
    <path clip-path="url(#pd79170891c)" d="M 236.364677 55.146983 
L 237.855286 51.375123 
L 239.345894 51.529077 
L 240.836503 51.083711 
L 242.327111 49.736618 
L 243.81772 49.351735 
L 245.308329 49.164791 
L 246.798937 49.445207 
L 248.289546 47.080921 
L 249.780154 48.103612 
L 251.270763 48.752416 
L 252.761371 47.245871 
L 254.25198 45.508397 
L 255.742589 45.222483 
L 257.233197 46.014244 
L 258.723806 47.509792 
L 260.214414 48.224576 
L 261.705023 47.757217 
L 263.195631 48.087117 
L 264.68624 48.180589 
L 266.176848 47.828695 
L 267.667457 48.609459 
L 269.158066 47.322848 
L 270.648674 46.893978 
L 272.139283 47.542782 
L 273.629891 49.181286 
L 275.1205 47.174393 
L 276.611108 48.933861 
L 278.101717 49.604658 
L 279.592326 48.103612 
L 281.082934 48.482997 
L 282.573543 48.686436 
L 284.064151 92.293755 
L 285.55476 97.654634 
L 287.045368 97.066312 
L 288.535977 97.192774 
L 290.026586 96.186578 
L 291.517194 96.505482 
L 293.007803 96.791395 
L 294.498411 99.864966 
L 295.98902 99.056711 
L 297.479628 142.070209 
L 298.970237 139.94785 
L 300.460845 141.80079 
L 301.951454 140.739611 
L 303.442063 189.97173 
L 304.932671 189.691314 
L 306.42328 189.927743 
L 307.913888 190.972427 
L 309.404497 191.566248 
L 310.895105 64.070786 
L 312.385714 65.651558 
L 313.876323 164.223013 
L 315.366931 163.590704 
L 316.85754 163.315787 
L 318.348148 162.518528 
L 319.838757 161.776252 
L 321.329365 160.882772 
L 322.819974 160.484143 
L 324.310583 159.989292 
L 325.801191 159.920563 
L 327.2918 159.879326 
L 328.782408 159.70063 
L 330.273017 159.673138 
L 331.763625 159.989292 
L 333.254234 159.549425 
L 334.744842 159.329492 
L 336.235451 159.343238 
L 337.72606 159.411967 
L 339.216668 159.178288 
L 340.707277 158.985846 
L 342.197885 159.013337 
L 343.688494 158.765912 
L 345.179102 158.889625 
L 346.669711 158.985846 
L 348.16032 159.590663 
L 349.650928 158.903371 
L 351.141537 158.985846 
L 352.632145 158.80715 
L 354.122754 158.944608 
L 355.613362 158.655946 
L 357.103971 158.765912 
L 358.594579 158.6422 
L 360.085188 159.178288 
L 361.575797 158.545979 
L 363.066405 158.848387 
L 364.557014 158.57347 
L 366.047622 158.47725 
L 367.538231 158.532233 
L 369.028839 157.954907 
L 370.519448 158.436012 
L 372.010057 158.284808 
L 373.500665 158.40852 
L 374.991274 157.872432 
L 376.481882 158.216078 
L 377.972491 158.257316 
L 379.463099 159.082067 
L 380.953708 158.765912 
L 382.444317 159.068321 
L 383.934925 159.082067 
" style="fill:none;stroke:#1f77b4;stroke-linecap:round;stroke-width:1.5;"/>
   </g>
   <g id="line2d_41">
    <path clip-path="url(#pd79170891c)" d="M 236.364677 56.637033 
L 237.855286 50.451402 
L 239.345894 47.438313 
L 240.836503 45.755822 
L 242.327111 44.485706 
L 243.81772 43.1826 
L 245.308329 42.396337 
L 246.798937 41.786022 
L 248.289546 40.801819 
L 249.780154 40.449926 
L 251.270763 40.372949 
L 252.761371 39.350258 
L 254.25198 39.592185 
L 255.742589 38.734444 
L 257.233197 39.531703 
L 258.723806 38.739942 
L 260.214414 38.470524 
L 261.705023 38.333065 
L 263.195631 37.475325 
L 264.68624 37.937185 
L 266.176848 37.739245 
L 267.667457 37.45883 
L 269.158066 37.519311 
L 270.648674 37.205906 
L 272.139283 37.436836 
L 273.629891 37.42584 
L 275.1205 37.45883 
L 276.611108 36.919993 
L 278.101717 37.282883 
L 279.592326 37.315873 
L 281.082934 37.216903 
L 282.573543 37.216903 
L 284.064151 37.315873 
L 285.55476 133.014446 
L 287.045368 132.371141 
L 288.535977 132.745028 
L 290.026586 132.761523 
L 291.517194 132.695543 
L 293.007803 132.964961 
L 294.498411 132.690044 
L 295.98902 180.586067 
L 297.479628 228.350129 
L 298.970237 228.438102 
L 300.460845 228.438102 
L 301.951454 228.377621 
L 303.442063 228.504083 
L 304.932671 228.542571 
L 306.42328 228.641541 
L 307.913888 228.84498 
L 309.404497 228.669033 
L 310.895105 276.334125 
L 312.385714 276.334125 
L 313.876323 276.334125 
L 315.366931 276.334125 
L 316.85754 276.334125 
L 318.348148 276.334125 
L 319.838757 276.334125 
L 321.329365 276.334125 
L 322.819974 276.334125 
L 324.310583 276.334125 
L 325.801191 276.334125 
L 327.2918 276.334125 
L 328.782408 276.334125 
L 330.273017 276.334125 
L 331.763625 276.334125 
L 333.254234 276.334125 
L 334.744842 276.334125 
L 336.235451 276.334125 
L 337.72606 276.334125 
L 339.216668 276.334125 
L 340.707277 276.334125 
L 342.197885 276.334125 
L 343.688494 276.334125 
L 345.179102 276.334125 
L 346.669711 276.334125 
L 348.16032 276.334125 
L 349.650928 276.334125 
L 351.141537 276.334125 
L 352.632145 276.334125 
L 354.122754 276.334125 
L 355.613362 276.334125 
L 357.103971 276.334125 
L 358.594579 276.334125 
L 360.085188 276.334125 
L 361.575797 276.334125 
L 363.066405 276.334125 
L 364.557014 276.334125 
L 366.047622 276.334125 
L 367.538231 276.334125 
L 369.028839 276.334125 
L 370.519448 276.334125 
L 372.010057 276.334125 
L 373.500665 276.334125 
L 374.991274 276.334125 
L 376.481882 276.334125 
L 377.972491 276.334125 
L 379.463099 276.334125 
L 380.953708 276.334125 
L 382.444317 276.334125 
L 383.934925 276.334125 
" style="fill:none;stroke:#ff7f0e;stroke-linecap:round;stroke-width:1.5;"/>
   </g>
   <g id="line2d_42">
    <path clip-path="url(#pd79170891c)" d="M 236.364677 53.579957 
L 237.855286 48.944858 
L 239.345894 47.883679 
L 240.836503 44.804609 
L 242.327111 42.836204 
L 243.81772 42.313862 
L 245.308329 41.335158 
L 246.798937 41.016254 
L 248.289546 40.565391 
L 249.780154 39.856105 
L 251.270763 38.618979 
L 252.761371 39.614178 
L 254.25198 38.866404 
L 255.742589 39.421736 
L 257.233197 38.629976 
L 258.723806 38.15162 
L 260.214414 37.810723 
L 261.705023 38.08564 
L 263.195631 37.700757 
L 264.68624 37.49182 
L 266.176848 37.486321 
L 267.667457 37.662268 
L 269.158066 37.442335 
L 270.648674 38.05265 
L 272.139283 37.398348 
L 273.629891 37.387351 
L 275.1205 37.453331 
L 276.611108 36.804527 
L 278.101717 37.249893 
L 279.592326 36.744046 
L 281.082934 37.112434 
L 282.573543 84.83251 
L 284.064151 84.618075 
L 285.55476 84.870998 
L 287.045368 132.909978 
L 288.535977 132.503101 
L 290.026586 132.277669 
L 291.517194 180.437612 
L 293.007803 180.349638 
L 294.498411 180.701532 
L 295.98902 156.752146 
L 297.479628 197.002271 
L 298.970237 157.088919 
L 300.460845 156.745273 
L 301.951454 157.377582 
L 303.442063 157.58377 
L 304.932671 156.511594 
L 306.42328 156.69029 
L 307.913888 156.772765 
L 309.404497 156.992698 
L 310.895105 156.470356 
L 312.385714 276.334125 
L 313.876323 276.334125 
L 315.366931 276.334125 
L 316.85754 276.334125 
L 318.348148 276.334125 
L 319.838757 276.334125 
L 321.329365 276.334125 
L 322.819974 276.334125 
L 324.310583 276.334125 
L 325.801191 276.334125 
L 327.2918 276.334125 
L 328.782408 276.334125 
L 330.273017 276.334125 
L 331.763625 276.334125 
L 333.254234 276.334125 
L 334.744842 276.334125 
L 336.235451 276.334125 
L 337.72606 276.334125 
L 339.216668 276.334125 
L 340.707277 276.334125 
L 342.197885 276.334125 
L 343.688494 276.334125 
L 345.179102 276.334125 
L 346.669711 276.334125 
L 348.16032 276.334125 
L 349.650928 276.334125 
L 351.141537 276.334125 
L 352.632145 276.334125 
L 354.122754 276.334125 
L 355.613362 276.334125 
L 357.103971 276.334125 
L 358.594579 276.334125 
L 360.085188 276.334125 
L 361.575797 276.334125 
L 363.066405 276.334125 
L 364.557014 276.334125 
L 366.047622 276.334125 
L 367.538231 276.334125 
L 369.028839 276.334125 
L 370.519448 276.334125 
L 372.010057 276.334125 
L 373.500665 276.334125 
L 374.991274 276.334125 
L 376.481882 276.334125 
L 377.972491 276.334125 
L 379.463099 276.334125 
L 380.953708 276.334125 
L 382.444317 276.334125 
L 383.934925 276.334125 
" style="fill:none;stroke:#2ca02c;stroke-linecap:round;stroke-width:1.5;"/>
   </g>
   <g id="line2d_43">
    <path clip-path="url(#pd79170891c)" d="M 236.364677 52.588423 
L 237.855286 47.749886 
L 239.345894 46.036237 
L 240.836503 44.405063 
L 242.327111 43.836902 
L 243.81772 43.140446 
L 245.308329 41.839172 
" style="fill:none;stroke:#d62728;stroke-linecap:round;stroke-width:1.5;"/>
   </g>
   <g id="line2d_44">
    <path clip-path="url(#pd79170891c)" d="M 236.364677 53.257388 
L 237.855286 47.978983 
L 239.345894 45.92627 
L 240.836503 44.070581 
" style="fill:none;stroke:#9467bd;stroke-linecap:round;stroke-width:1.5;"/>
   </g>
   <g id="line2d_45"/>
   <g id="line2d_46"/>
   <g id="line2d_47"/>
   <g id="line2d_48"/>
   <g id="line2d_49"/>
   <g id="line2d_50"/>
   <g id="patch_9">
    <path d="M 228.986165 288.430125 
L 228.986165 22.318125 
" style="fill:none;stroke:#ffffff;stroke-linecap:square;stroke-linejoin:miter;stroke-width:1.25;"/>
   </g>
   <g id="patch_10">
    <path d="M 391.313437 288.430125 
L 391.313437 22.318125 
" style="fill:none;stroke:#ffffff;stroke-linecap:square;stroke-linejoin:miter;stroke-width:1.25;"/>
   </g>
   <g id="patch_11">
    <path d="M 228.986165 288.430125 
L 391.313437 288.430125 
" style="fill:none;stroke:#ffffff;stroke-linecap:square;stroke-linejoin:miter;stroke-width:1.25;"/>
   </g>
   <g id="patch_12">
    <path d="M 228.986165 22.318125 
L 391.313437 22.318125 
" style="fill:none;stroke:#ffffff;stroke-linecap:square;stroke-linejoin:miter;stroke-width:1.25;"/>
   </g>
   <g id="text_19">
    <!-- powersgd -->
    <defs>
     <path d="M 18.109375 8.203125 
L 18.109375 -20.796875 
L 9.078125 -20.796875 
L 9.078125 54.6875 
L 18.109375 54.6875 
L 18.109375 46.390625 
Q 20.953125 51.265625 25.265625 53.625 
Q 29.59375 56 35.59375 56 
Q 45.5625 56 51.78125 48.09375 
Q 58.015625 40.1875 58.015625 27.296875 
Q 58.015625 14.40625 51.78125 6.484375 
Q 45.5625 -1.421875 35.59375 -1.421875 
Q 29.59375 -1.421875 25.265625 0.953125 
Q 20.953125 3.328125 18.109375 8.203125 
z
M 48.6875 27.296875 
Q 48.6875 37.203125 44.609375 42.84375 
Q 40.53125 48.484375 33.40625 48.484375 
Q 26.265625 48.484375 22.1875 42.84375 
Q 18.109375 37.203125 18.109375 27.296875 
Q 18.109375 17.390625 22.1875 11.75 
Q 26.265625 6.109375 33.40625 6.109375 
Q 40.53125 6.109375 44.609375 11.75 
Q 48.6875 17.390625 48.6875 27.296875 
z
" id="DejaVuSans-112"/>
     <path d="M 30.609375 48.390625 
Q 23.390625 48.390625 19.1875 42.75 
Q 14.984375 37.109375 14.984375 27.296875 
Q 14.984375 17.484375 19.15625 11.84375 
Q 23.34375 6.203125 30.609375 6.203125 
Q 37.796875 6.203125 41.984375 11.859375 
Q 46.1875 17.53125 46.1875 27.296875 
Q 46.1875 37.015625 41.984375 42.703125 
Q 37.796875 48.390625 30.609375 48.390625 
z
M 30.609375 56 
Q 42.328125 56 49.015625 48.375 
Q 55.71875 40.765625 55.71875 27.296875 
Q 55.71875 13.875 49.015625 6.21875 
Q 42.328125 -1.421875 30.609375 -1.421875 
Q 18.84375 -1.421875 12.171875 6.21875 
Q 5.515625 13.875 5.515625 27.296875 
Q 5.515625 40.765625 12.171875 48.375 
Q 18.84375 56 30.609375 56 
z
" id="DejaVuSans-111"/>
     <path d="M 4.203125 54.6875 
L 13.1875 54.6875 
L 24.421875 12.015625 
L 35.59375 54.6875 
L 46.1875 54.6875 
L 57.421875 12.015625 
L 68.609375 54.6875 
L 77.59375 54.6875 
L 63.28125 0 
L 52.6875 0 
L 40.921875 44.828125 
L 29.109375 0 
L 18.5 0 
z
" id="DejaVuSans-119"/>
     <path d="M 56.203125 29.59375 
L 56.203125 25.203125 
L 14.890625 25.203125 
Q 15.484375 15.921875 20.484375 11.0625 
Q 25.484375 6.203125 34.421875 6.203125 
Q 39.59375 6.203125 44.453125 7.46875 
Q 49.3125 8.734375 54.109375 11.28125 
L 54.109375 2.78125 
Q 49.265625 0.734375 44.1875 -0.34375 
Q 39.109375 -1.421875 33.890625 -1.421875 
Q 20.796875 -1.421875 13.15625 6.1875 
Q 5.515625 13.8125 5.515625 26.8125 
Q 5.515625 40.234375 12.765625 48.109375 
Q 20.015625 56 32.328125 56 
Q 43.359375 56 49.78125 48.890625 
Q 56.203125 41.796875 56.203125 29.59375 
z
M 47.21875 32.234375 
Q 47.125 39.59375 43.09375 43.984375 
Q 39.0625 48.390625 32.421875 48.390625 
Q 24.90625 48.390625 20.390625 44.140625 
Q 15.875 39.890625 15.1875 32.171875 
z
" id="DejaVuSans-101"/>
     <path d="M 44.28125 53.078125 
L 44.28125 44.578125 
Q 40.484375 46.53125 36.375 47.5 
Q 32.28125 48.484375 27.875 48.484375 
Q 21.1875 48.484375 17.84375 46.4375 
Q 14.5 44.390625 14.5 40.28125 
Q 14.5 37.15625 16.890625 35.375 
Q 19.28125 33.59375 26.515625 31.984375 
L 29.59375 31.296875 
Q 39.15625 29.25 43.1875 25.515625 
Q 47.21875 21.78125 47.21875 15.09375 
Q 47.21875 7.46875 41.1875 3.015625 
Q 35.15625 -1.421875 24.609375 -1.421875 
Q 20.21875 -1.421875 15.453125 -0.5625 
Q 10.6875 0.296875 5.421875 2 
L 5.421875 11.28125 
Q 10.40625 8.6875 15.234375 7.390625 
Q 20.0625 6.109375 24.8125 6.109375 
Q 31.15625 6.109375 34.5625 8.28125 
Q 37.984375 10.453125 37.984375 14.40625 
Q 37.984375 18.0625 35.515625 20.015625 
Q 33.0625 21.96875 24.703125 23.78125 
L 21.578125 24.515625 
Q 13.234375 26.265625 9.515625 29.90625 
Q 5.8125 33.546875 5.8125 39.890625 
Q 5.8125 47.609375 11.28125 51.796875 
Q 16.75 56 26.8125 56 
Q 31.78125 56 36.171875 55.265625 
Q 40.578125 54.546875 44.28125 53.078125 
z
" id="DejaVuSans-115"/>
     <path d="M 45.40625 27.984375 
Q 45.40625 37.75 41.375 43.109375 
Q 37.359375 48.484375 30.078125 48.484375 
Q 22.859375 48.484375 18.828125 43.109375 
Q 14.796875 37.75 14.796875 27.984375 
Q 14.796875 18.265625 18.828125 12.890625 
Q 22.859375 7.515625 30.078125 7.515625 
Q 37.359375 7.515625 41.375 12.890625 
Q 45.40625 18.265625 45.40625 27.984375 
z
M 54.390625 6.78125 
Q 54.390625 -7.171875 48.1875 -13.984375 
Q 42 -20.796875 29.203125 -20.796875 
Q 24.46875 -20.796875 20.265625 -20.09375 
Q 16.0625 -19.390625 12.109375 -17.921875 
L 12.109375 -9.1875 
Q 16.0625 -11.328125 19.921875 -12.34375 
Q 23.78125 -13.375 27.78125 -13.375 
Q 36.625 -13.375 41.015625 -8.765625 
Q 45.40625 -4.15625 45.40625 5.171875 
L 45.40625 9.625 
Q 42.625 4.78125 38.28125 2.390625 
Q 33.9375 0 27.875 0 
Q 17.828125 0 11.671875 7.65625 
Q 5.515625 15.328125 5.515625 27.984375 
Q 5.515625 40.671875 11.671875 48.328125 
Q 17.828125 56 27.875 56 
Q 33.9375 56 38.28125 53.609375 
Q 42.625 51.21875 45.40625 46.390625 
L 45.40625 54.6875 
L 54.390625 54.6875 
z
" id="DejaVuSans-103"/>
    </defs>
    <g style="fill:#262626;" transform="translate(280.860426 16.318125)scale(0.12 -0.12)">
     <use xlink:href="#DejaVuSans-112"/>
     <use x="63.476562" xlink:href="#DejaVuSans-111"/>
     <use x="124.658203" xlink:href="#DejaVuSans-119"/>
     <use x="206.445312" xlink:href="#DejaVuSans-101"/>
     <use x="267.96875" xlink:href="#DejaVuSans-114"/>
     <use x="309.082031" xlink:href="#DejaVuSans-115"/>
     <use x="361.181641" xlink:href="#DejaVuSans-103"/>
     <use x="424.658203" xlink:href="#DejaVuSans-100"/>
    </g>
   </g>
   <g id="legend_2">
    <g id="patch_13">
     <path d="M 323.809531 127.99375 
L 383.613437 127.99375 
Q 385.813437 127.99375 385.813437 125.79375 
L 385.813437 30.018125 
Q 385.813437 27.818125 383.613437 27.818125 
L 323.809531 27.818125 
Q 321.609531 27.818125 321.609531 30.018125 
L 321.609531 125.79375 
Q 321.609531 127.99375 323.809531 127.99375 
z
" style="fill:#eaeaf2;opacity:0.8;stroke:#cccccc;stroke-linejoin:miter;"/>
    </g>
    <g id="line2d_51">
     <path d="M 326.009531 36.726406 
L 348.009531 36.726406 
" style="fill:none;"/>
    </g>
    <g id="line2d_52"/>
    <g id="text_20">
     <!-- rank -->
     <g style="fill:#262626;" transform="translate(356.809531 40.576406)scale(0.11 -0.11)">
      <use xlink:href="#DejaVuSans-114"/>
      <use x="41.113281" xlink:href="#DejaVuSans-97"/>
      <use x="102.392578" xlink:href="#DejaVuSans-110"/>
      <use x="165.771484" xlink:href="#DejaVuSans-107"/>
     </g>
    </g>
    <g id="line2d_53">
     <path d="M 326.009531 52.872344 
L 348.009531 52.872344 
" style="fill:none;stroke:#1f77b4;stroke-linecap:round;stroke-width:1.5;"/>
    </g>
    <g id="line2d_54"/>
    <g id="text_21">
     <!-- 3 -->
     <g style="fill:#262626;" transform="translate(356.809531 56.722344)scale(0.11 -0.11)">
      <use xlink:href="#DejaVuSans-51"/>
     </g>
    </g>
    <g id="line2d_55">
     <path d="M 326.009531 69.018281 
L 348.009531 69.018281 
" style="fill:none;stroke:#ff7f0e;stroke-linecap:round;stroke-width:1.5;"/>
    </g>
    <g id="line2d_56"/>
    <g id="text_22">
     <!-- 4 -->
     <g style="fill:#262626;" transform="translate(356.809531 72.868281)scale(0.11 -0.11)">
      <use xlink:href="#DejaVuSans-52"/>
     </g>
    </g>
    <g id="line2d_57">
     <path d="M 326.009531 85.164219 
L 348.009531 85.164219 
" style="fill:none;stroke:#2ca02c;stroke-linecap:round;stroke-width:1.5;"/>
    </g>
    <g id="line2d_58"/>
    <g id="text_23">
     <!-- 8 -->
     <g style="fill:#262626;" transform="translate(356.809531 89.014219)scale(0.11 -0.11)">
      <use xlink:href="#DejaVuSans-56"/>
     </g>
    </g>
    <g id="line2d_59">
     <path d="M 326.009531 101.310156 
L 348.009531 101.310156 
" style="fill:none;stroke:#d62728;stroke-linecap:round;stroke-width:1.5;"/>
    </g>
    <g id="line2d_60"/>
    <g id="text_24">
     <!-- 16 -->
     <g style="fill:#262626;" transform="translate(356.809531 105.160156)scale(0.11 -0.11)">
      <use xlink:href="#DejaVuSans-49"/>
      <use x="63.623047" xlink:href="#DejaVuSans-54"/>
     </g>
    </g>
    <g id="line2d_61">
     <path d="M 326.009531 117.456094 
L 348.009531 117.456094 
" style="fill:none;stroke:#9467bd;stroke-linecap:round;stroke-width:1.5;"/>
    </g>
    <g id="line2d_62"/>
    <g id="text_25">
     <!-- 32 -->
     <g style="fill:#262626;" transform="translate(356.809531 121.306094)scale(0.11 -0.11)">
      <use xlink:href="#DejaVuSans-51"/>
      <use x="63.623047" xlink:href="#DejaVuSans-50"/>
     </g>
    </g>
   </g>
  </g>
 </g>
 <defs>
  <clipPath id="p7a23756fdb">
   <rect height="266.112" width="162.327273" x="34.193438" y="22.318125"/>
  </clipPath>
  <clipPath id="pd79170891c">
   <rect height="266.112" width="162.327273" x="228.986165" y="22.318125"/>
  </clipPath>
 </defs>
</svg>
