<?xml version="1.0" encoding="utf-8" standalone="no"?>
<!DOCTYPE svg PUBLIC "-//W3C//DTD SVG 1.1//EN"
  "http://www.w3.org/Graphics/SVG/1.1/DTD/svg11.dtd">
<!-- Created with matplotlib (https://matplotlib.org/) -->
<svg height="331.389812pt" version="1.1" viewBox="0 0 411.522251 331.389812" width="411.522251pt" xmlns="http://www.w3.org/2000/svg" xmlns:xlink="http://www.w3.org/1999/xlink">
 <defs>
  <style type="text/css">
*{stroke-linecap:butt;stroke-linejoin:round;}
  </style>
 </defs>
 <g id="figure_1">
  <g id="patch_1">
   <path d="M 0 331.389812 
L 411.522251 331.389812 
L 411.522251 0 
L 0 0 
z
" style="fill:#ffffff;"/>
  </g>
  <g id="axes_1">
   <g id="patch_2">
    <path d="M 46.31125 288.430125 
L 403.43125 288.430125 
L 403.43125 22.318125 
L 46.31125 22.318125 
z
" style="fill:#eaeaf2;"/>
   </g>
   <g id="matplotlib.axis_1">
    <g id="xtick_1">
     <g id="line2d_1">
      <path clip-path="url(#pf1347273e7)" d="M 62.543977 288.430125 
L 62.543977 22.318125 
" style="fill:none;stroke:#ffffff;stroke-linecap:round;"/>
     </g>
     <g id="text_1">
      <!-- 0 -->
      <defs>
       <path d="M 31.78125 66.40625 
Q 24.171875 66.40625 20.328125 58.90625 
Q 16.5 51.421875 16.5 36.375 
Q 16.5 21.390625 20.328125 13.890625 
Q 24.171875 6.390625 31.78125 6.390625 
Q 39.453125 6.390625 43.28125 13.890625 
Q 47.125 21.390625 47.125 36.375 
Q 47.125 51.421875 43.28125 58.90625 
Q 39.453125 66.40625 31.78125 66.40625 
z
M 31.78125 74.21875 
Q 44.046875 74.21875 50.515625 64.515625 
Q 56.984375 54.828125 56.984375 36.375 
Q 56.984375 17.96875 50.515625 8.265625 
Q 44.046875 -1.421875 31.78125 -1.421875 
Q 19.53125 -1.421875 13.0625 8.265625 
Q 6.59375 17.96875 6.59375 36.375 
Q 6.59375 54.828125 13.0625 64.515625 
Q 19.53125 74.21875 31.78125 74.21875 
z
" id="DejaVuSans-48"/>
      </defs>
      <g style="fill:#262626;" transform="translate(59.044602 306.288406)scale(0.11 -0.11)">
       <use xlink:href="#DejaVuSans-48"/>
      </g>
     </g>
    </g>
    <g id="xtick_2">
     <g id="line2d_2">
      <path clip-path="url(#pf1347273e7)" d="M 128.800007 288.430125 
L 128.800007 22.318125 
" style="fill:none;stroke:#ffffff;stroke-linecap:round;"/>
     </g>
     <g id="text_2">
      <!-- 20 -->
      <defs>
       <path d="M 19.1875 8.296875 
L 53.609375 8.296875 
L 53.609375 0 
L 7.328125 0 
L 7.328125 8.296875 
Q 12.9375 14.109375 22.625 23.890625 
Q 32.328125 33.6875 34.8125 36.53125 
Q 39.546875 41.84375 41.421875 45.53125 
Q 43.3125 49.21875 43.3125 52.78125 
Q 43.3125 58.59375 39.234375 62.25 
Q 35.15625 65.921875 28.609375 65.921875 
Q 23.96875 65.921875 18.8125 64.3125 
Q 13.671875 62.703125 7.8125 59.421875 
L 7.8125 69.390625 
Q 13.765625 71.78125 18.9375 73 
Q 24.125 74.21875 28.421875 74.21875 
Q 39.75 74.21875 46.484375 68.546875 
Q 53.21875 62.890625 53.21875 53.421875 
Q 53.21875 48.921875 51.53125 44.890625 
Q 49.859375 40.875 45.40625 35.40625 
Q 44.1875 33.984375 37.640625 27.21875 
Q 31.109375 20.453125 19.1875 8.296875 
z
" id="DejaVuSans-50"/>
      </defs>
      <g style="fill:#262626;" transform="translate(121.801257 306.288406)scale(0.11 -0.11)">
       <use xlink:href="#DejaVuSans-50"/>
       <use x="63.623047" xlink:href="#DejaVuSans-48"/>
      </g>
     </g>
    </g>
    <g id="xtick_3">
     <g id="line2d_3">
      <path clip-path="url(#pf1347273e7)" d="M 195.056037 288.430125 
L 195.056037 22.318125 
" style="fill:none;stroke:#ffffff;stroke-linecap:round;"/>
     </g>
     <g id="text_3">
      <!-- 40 -->
      <defs>
       <path d="M 37.796875 64.3125 
L 12.890625 25.390625 
L 37.796875 25.390625 
z
M 35.203125 72.90625 
L 47.609375 72.90625 
L 47.609375 25.390625 
L 58.015625 25.390625 
L 58.015625 17.1875 
L 47.609375 17.1875 
L 47.609375 0 
L 37.796875 0 
L 37.796875 17.1875 
L 4.890625 17.1875 
L 4.890625 26.703125 
z
" id="DejaVuSans-52"/>
      </defs>
      <g style="fill:#262626;" transform="translate(188.057287 306.288406)scale(0.11 -0.11)">
       <use xlink:href="#DejaVuSans-52"/>
       <use x="63.623047" xlink:href="#DejaVuSans-48"/>
      </g>
     </g>
    </g>
    <g id="xtick_4">
     <g id="line2d_4">
      <path clip-path="url(#pf1347273e7)" d="M 261.312066 288.430125 
L 261.312066 22.318125 
" style="fill:none;stroke:#ffffff;stroke-linecap:round;"/>
     </g>
     <g id="text_4">
      <!-- 60 -->
      <defs>
       <path d="M 33.015625 40.375 
Q 26.375 40.375 22.484375 35.828125 
Q 18.609375 31.296875 18.609375 23.390625 
Q 18.609375 15.53125 22.484375 10.953125 
Q 26.375 6.390625 33.015625 6.390625 
Q 39.65625 6.390625 43.53125 10.953125 
Q 47.40625 15.53125 47.40625 23.390625 
Q 47.40625 31.296875 43.53125 35.828125 
Q 39.65625 40.375 33.015625 40.375 
z
M 52.59375 71.296875 
L 52.59375 62.3125 
Q 48.875 64.0625 45.09375 64.984375 
Q 41.3125 65.921875 37.59375 65.921875 
Q 27.828125 65.921875 22.671875 59.328125 
Q 17.53125 52.734375 16.796875 39.40625 
Q 19.671875 43.65625 24.015625 45.921875 
Q 28.375 48.1875 33.59375 48.1875 
Q 44.578125 48.1875 50.953125 41.515625 
Q 57.328125 34.859375 57.328125 23.390625 
Q 57.328125 12.15625 50.6875 5.359375 
Q 44.046875 -1.421875 33.015625 -1.421875 
Q 20.359375 -1.421875 13.671875 8.265625 
Q 6.984375 17.96875 6.984375 36.375 
Q 6.984375 53.65625 15.1875 63.9375 
Q 23.390625 74.21875 37.203125 74.21875 
Q 40.921875 74.21875 44.703125 73.484375 
Q 48.484375 72.75 52.59375 71.296875 
z
" id="DejaVuSans-54"/>
      </defs>
      <g style="fill:#262626;" transform="translate(254.313316 306.288406)scale(0.11 -0.11)">
       <use xlink:href="#DejaVuSans-54"/>
       <use x="63.623047" xlink:href="#DejaVuSans-48"/>
      </g>
     </g>
    </g>
    <g id="xtick_5">
     <g id="line2d_5">
      <path clip-path="url(#pf1347273e7)" d="M 327.568096 288.430125 
L 327.568096 22.318125 
" style="fill:none;stroke:#ffffff;stroke-linecap:round;"/>
     </g>
     <g id="text_5">
      <!-- 80 -->
      <defs>
       <path d="M 31.78125 34.625 
Q 24.75 34.625 20.71875 30.859375 
Q 16.703125 27.09375 16.703125 20.515625 
Q 16.703125 13.921875 20.71875 10.15625 
Q 24.75 6.390625 31.78125 6.390625 
Q 38.8125 6.390625 42.859375 10.171875 
Q 46.921875 13.96875 46.921875 20.515625 
Q 46.921875 27.09375 42.890625 30.859375 
Q 38.875 34.625 31.78125 34.625 
z
M 21.921875 38.8125 
Q 15.578125 40.375 12.03125 44.71875 
Q 8.5 49.078125 8.5 55.328125 
Q 8.5 64.0625 14.71875 69.140625 
Q 20.953125 74.21875 31.78125 74.21875 
Q 42.671875 74.21875 48.875 69.140625 
Q 55.078125 64.0625 55.078125 55.328125 
Q 55.078125 49.078125 51.53125 44.71875 
Q 48 40.375 41.703125 38.8125 
Q 48.828125 37.15625 52.796875 32.3125 
Q 56.78125 27.484375 56.78125 20.515625 
Q 56.78125 9.90625 50.3125 4.234375 
Q 43.84375 -1.421875 31.78125 -1.421875 
Q 19.734375 -1.421875 13.25 4.234375 
Q 6.78125 9.90625 6.78125 20.515625 
Q 6.78125 27.484375 10.78125 32.3125 
Q 14.796875 37.15625 21.921875 38.8125 
z
M 18.3125 54.390625 
Q 18.3125 48.734375 21.84375 45.5625 
Q 25.390625 42.390625 31.78125 42.390625 
Q 38.140625 42.390625 41.71875 45.5625 
Q 45.3125 48.734375 45.3125 54.390625 
Q 45.3125 60.0625 41.71875 63.234375 
Q 38.140625 66.40625 31.78125 66.40625 
Q 25.390625 66.40625 21.84375 63.234375 
Q 18.3125 60.0625 18.3125 54.390625 
z
" id="DejaVuSans-56"/>
      </defs>
      <g style="fill:#262626;" transform="translate(320.569346 306.288406)scale(0.11 -0.11)">
       <use xlink:href="#DejaVuSans-56"/>
       <use x="63.623047" xlink:href="#DejaVuSans-48"/>
      </g>
     </g>
    </g>
    <g id="xtick_6">
     <g id="line2d_6">
      <path clip-path="url(#pf1347273e7)" d="M 393.824126 288.430125 
L 393.824126 22.318125 
" style="fill:none;stroke:#ffffff;stroke-linecap:round;"/>
     </g>
     <g id="text_6">
      <!-- 100 -->
      <defs>
       <path d="M 12.40625 8.296875 
L 28.515625 8.296875 
L 28.515625 63.921875 
L 10.984375 60.40625 
L 10.984375 69.390625 
L 28.421875 72.90625 
L 38.28125 72.90625 
L 38.28125 8.296875 
L 54.390625 8.296875 
L 54.390625 0 
L 12.40625 0 
z
" id="DejaVuSans-49"/>
      </defs>
      <g style="fill:#262626;" transform="translate(383.326001 306.288406)scale(0.11 -0.11)">
       <use xlink:href="#DejaVuSans-49"/>
       <use x="63.623047" xlink:href="#DejaVuSans-48"/>
       <use x="127.246094" xlink:href="#DejaVuSans-48"/>
      </g>
     </g>
    </g>
    <g id="text_7">
     <!-- epoch -->
     <defs>
      <path d="M 56.203125 29.59375 
L 56.203125 25.203125 
L 14.890625 25.203125 
Q 15.484375 15.921875 20.484375 11.0625 
Q 25.484375 6.203125 34.421875 6.203125 
Q 39.59375 6.203125 44.453125 7.46875 
Q 49.3125 8.734375 54.109375 11.28125 
L 54.109375 2.78125 
Q 49.265625 0.734375 44.1875 -0.34375 
Q 39.109375 -1.421875 33.890625 -1.421875 
Q 20.796875 -1.421875 13.15625 6.1875 
Q 5.515625 13.8125 5.515625 26.8125 
Q 5.515625 40.234375 12.765625 48.109375 
Q 20.015625 56 32.328125 56 
Q 43.359375 56 49.78125 48.890625 
Q 56.203125 41.796875 56.203125 29.59375 
z
M 47.21875 32.234375 
Q 47.125 39.59375 43.09375 43.984375 
Q 39.0625 48.390625 32.421875 48.390625 
Q 24.90625 48.390625 20.390625 44.140625 
Q 15.875 39.890625 15.1875 32.171875 
z
" id="DejaVuSans-101"/>
      <path d="M 18.109375 8.203125 
L 18.109375 -20.796875 
L 9.078125 -20.796875 
L 9.078125 54.6875 
L 18.109375 54.6875 
L 18.109375 46.390625 
Q 20.953125 51.265625 25.265625 53.625 
Q 29.59375 56 35.59375 56 
Q 45.5625 56 51.78125 48.09375 
Q 58.015625 40.1875 58.015625 27.296875 
Q 58.015625 14.40625 51.78125 6.484375 
Q 45.5625 -1.421875 35.59375 -1.421875 
Q 29.59375 -1.421875 25.265625 0.953125 
Q 20.953125 3.328125 18.109375 8.203125 
z
M 48.6875 27.296875 
Q 48.6875 37.203125 44.609375 42.84375 
Q 40.53125 48.484375 33.40625 48.484375 
Q 26.265625 48.484375 22.1875 42.84375 
Q 18.109375 37.203125 18.109375 27.296875 
Q 18.109375 17.390625 22.1875 11.75 
Q 26.265625 6.109375 33.40625 6.109375 
Q 40.53125 6.109375 44.609375 11.75 
Q 48.6875 17.390625 48.6875 27.296875 
z
" id="DejaVuSans-112"/>
      <path d="M 30.609375 48.390625 
Q 23.390625 48.390625 19.1875 42.75 
Q 14.984375 37.109375 14.984375 27.296875 
Q 14.984375 17.484375 19.15625 11.84375 
Q 23.34375 6.203125 30.609375 6.203125 
Q 37.796875 6.203125 41.984375 11.859375 
Q 46.1875 17.53125 46.1875 27.296875 
Q 46.1875 37.015625 41.984375 42.703125 
Q 37.796875 48.390625 30.609375 48.390625 
z
M 30.609375 56 
Q 42.328125 56 49.015625 48.375 
Q 55.71875 40.765625 55.71875 27.296875 
Q 55.71875 13.875 49.015625 6.21875 
Q 42.328125 -1.421875 30.609375 -1.421875 
Q 18.84375 -1.421875 12.171875 6.21875 
Q 5.515625 13.875 5.515625 27.296875 
Q 5.515625 40.765625 12.171875 48.375 
Q 18.84375 56 30.609375 56 
z
" id="DejaVuSans-111"/>
      <path d="M 48.78125 52.59375 
L 48.78125 44.1875 
Q 44.96875 46.296875 41.140625 47.34375 
Q 37.3125 48.390625 33.40625 48.390625 
Q 24.65625 48.390625 19.8125 42.84375 
Q 14.984375 37.3125 14.984375 27.296875 
Q 14.984375 17.28125 19.8125 11.734375 
Q 24.65625 6.203125 33.40625 6.203125 
Q 37.3125 6.203125 41.140625 7.25 
Q 44.96875 8.296875 48.78125 10.40625 
L 48.78125 2.09375 
Q 45.015625 0.34375 40.984375 -0.53125 
Q 36.96875 -1.421875 32.421875 -1.421875 
Q 20.0625 -1.421875 12.78125 6.34375 
Q 5.515625 14.109375 5.515625 27.296875 
Q 5.515625 40.671875 12.859375 48.328125 
Q 20.21875 56 33.015625 56 
Q 37.15625 56 41.109375 55.140625 
Q 45.0625 54.296875 48.78125 52.59375 
z
" id="DejaVuSans-99"/>
      <path d="M 54.890625 33.015625 
L 54.890625 0 
L 45.90625 0 
L 45.90625 32.71875 
Q 45.90625 40.484375 42.875 44.328125 
Q 39.84375 48.1875 33.796875 48.1875 
Q 26.515625 48.1875 22.3125 43.546875 
Q 18.109375 38.921875 18.109375 30.90625 
L 18.109375 0 
L 9.078125 0 
L 9.078125 75.984375 
L 18.109375 75.984375 
L 18.109375 46.1875 
Q 21.34375 51.125 25.703125 53.5625 
Q 30.078125 56 35.796875 56 
Q 45.21875 56 50.046875 50.171875 
Q 54.890625 44.34375 54.890625 33.015625 
z
" id="DejaVuSans-104"/>
     </defs>
     <g style="fill:#262626;" transform="translate(206.5975 321.694187)scale(0.12 -0.12)">
      <use xlink:href="#DejaVuSans-101"/>
      <use x="61.523438" xlink:href="#DejaVuSans-112"/>
      <use x="125" xlink:href="#DejaVuSans-111"/>
      <use x="186.181641" xlink:href="#DejaVuSans-99"/>
      <use x="241.162109" xlink:href="#DejaVuSans-104"/>
     </g>
    </g>
   </g>
   <g id="matplotlib.axis_2">
    <g id="ytick_1">
     <g id="line2d_7">
      <path clip-path="url(#pf1347273e7)" d="M 46.31125 288.430125 
L 403.43125 288.430125 
" style="fill:none;stroke:#ffffff;stroke-linecap:round;"/>
     </g>
     <g id="text_8">
      <!-- 0 -->
      <g style="fill:#262626;" transform="translate(29.8125 292.609266)scale(0.11 -0.11)">
       <use xlink:href="#DejaVuSans-48"/>
      </g>
     </g>
    </g>
    <g id="ytick_2">
     <g id="line2d_8">
      <path clip-path="url(#pf1347273e7)" d="M 46.31125 246.850125 
L 403.43125 246.850125 
" style="fill:none;stroke:#ffffff;stroke-linecap:round;"/>
     </g>
     <g id="text_9">
      <!-- 5 -->
      <defs>
       <path d="M 10.796875 72.90625 
L 49.515625 72.90625 
L 49.515625 64.59375 
L 19.828125 64.59375 
L 19.828125 46.734375 
Q 21.96875 47.46875 24.109375 47.828125 
Q 26.265625 48.1875 28.421875 48.1875 
Q 40.625 48.1875 47.75 41.5 
Q 54.890625 34.8125 54.890625 23.390625 
Q 54.890625 11.625 47.5625 5.09375 
Q 40.234375 -1.421875 26.90625 -1.421875 
Q 22.3125 -1.421875 17.546875 -0.640625 
Q 12.796875 0.140625 7.71875 1.703125 
L 7.71875 11.625 
Q 12.109375 9.234375 16.796875 8.0625 
Q 21.484375 6.890625 26.703125 6.890625 
Q 35.15625 6.890625 40.078125 11.328125 
Q 45.015625 15.765625 45.015625 23.390625 
Q 45.015625 31 40.078125 35.4375 
Q 35.15625 39.890625 26.703125 39.890625 
Q 22.75 39.890625 18.8125 39.015625 
Q 14.890625 38.140625 10.796875 36.28125 
z
" id="DejaVuSans-53"/>
      </defs>
      <g style="fill:#262626;" transform="translate(29.8125 251.029266)scale(0.11 -0.11)">
       <use xlink:href="#DejaVuSans-53"/>
      </g>
     </g>
    </g>
    <g id="ytick_3">
     <g id="line2d_9">
      <path clip-path="url(#pf1347273e7)" d="M 46.31125 205.270125 
L 403.43125 205.270125 
" style="fill:none;stroke:#ffffff;stroke-linecap:round;"/>
     </g>
     <g id="text_10">
      <!-- 10 -->
      <g style="fill:#262626;" transform="translate(22.81375 209.449266)scale(0.11 -0.11)">
       <use xlink:href="#DejaVuSans-49"/>
       <use x="63.623047" xlink:href="#DejaVuSans-48"/>
      </g>
     </g>
    </g>
    <g id="ytick_4">
     <g id="line2d_10">
      <path clip-path="url(#pf1347273e7)" d="M 46.31125 163.690125 
L 403.43125 163.690125 
" style="fill:none;stroke:#ffffff;stroke-linecap:round;"/>
     </g>
     <g id="text_11">
      <!-- 15 -->
      <g style="fill:#262626;" transform="translate(22.81375 167.869266)scale(0.11 -0.11)">
       <use xlink:href="#DejaVuSans-49"/>
       <use x="63.623047" xlink:href="#DejaVuSans-53"/>
      </g>
     </g>
    </g>
    <g id="ytick_5">
     <g id="line2d_11">
      <path clip-path="url(#pf1347273e7)" d="M 46.31125 122.110125 
L 403.43125 122.110125 
" style="fill:none;stroke:#ffffff;stroke-linecap:round;"/>
     </g>
     <g id="text_12">
      <!-- 20 -->
      <g style="fill:#262626;" transform="translate(22.81375 126.289266)scale(0.11 -0.11)">
       <use xlink:href="#DejaVuSans-50"/>
       <use x="63.623047" xlink:href="#DejaVuSans-48"/>
      </g>
     </g>
    </g>
    <g id="ytick_6">
     <g id="line2d_12">
      <path clip-path="url(#pf1347273e7)" d="M 46.31125 80.530125 
L 403.43125 80.530125 
" style="fill:none;stroke:#ffffff;stroke-linecap:round;"/>
     </g>
     <g id="text_13">
      <!-- 25 -->
      <g style="fill:#262626;" transform="translate(22.81375 84.709266)scale(0.11 -0.11)">
       <use xlink:href="#DejaVuSans-50"/>
       <use x="63.623047" xlink:href="#DejaVuSans-53"/>
      </g>
     </g>
    </g>
    <g id="ytick_7">
     <g id="line2d_13">
      <path clip-path="url(#pf1347273e7)" d="M 46.31125 38.950125 
L 403.43125 38.950125 
" style="fill:none;stroke:#ffffff;stroke-linecap:round;"/>
     </g>
     <g id="text_14">
      <!-- 30 -->
      <defs>
       <path d="M 40.578125 39.3125 
Q 47.65625 37.796875 51.625 33 
Q 55.609375 28.21875 55.609375 21.1875 
Q 55.609375 10.40625 48.1875 4.484375 
Q 40.765625 -1.421875 27.09375 -1.421875 
Q 22.515625 -1.421875 17.65625 -0.515625 
Q 12.796875 0.390625 7.625 2.203125 
L 7.625 11.71875 
Q 11.71875 9.328125 16.59375 8.109375 
Q 21.484375 6.890625 26.8125 6.890625 
Q 36.078125 6.890625 40.9375 10.546875 
Q 45.796875 14.203125 45.796875 21.1875 
Q 45.796875 27.640625 41.28125 31.265625 
Q 36.765625 34.90625 28.71875 34.90625 
L 20.21875 34.90625 
L 20.21875 43.015625 
L 29.109375 43.015625 
Q 36.375 43.015625 40.234375 45.921875 
Q 44.09375 48.828125 44.09375 54.296875 
Q 44.09375 59.90625 40.109375 62.90625 
Q 36.140625 65.921875 28.71875 65.921875 
Q 24.65625 65.921875 20.015625 65.03125 
Q 15.375 64.15625 9.8125 62.3125 
L 9.8125 71.09375 
Q 15.4375 72.65625 20.34375 73.4375 
Q 25.25 74.21875 29.59375 74.21875 
Q 40.828125 74.21875 47.359375 69.109375 
Q 53.90625 64.015625 53.90625 55.328125 
Q 53.90625 49.265625 50.4375 45.09375 
Q 46.96875 40.921875 40.578125 39.3125 
z
" id="DejaVuSans-51"/>
      </defs>
      <g style="fill:#262626;" transform="translate(22.81375 43.129266)scale(0.11 -0.11)">
       <use xlink:href="#DejaVuSans-51"/>
       <use x="63.623047" xlink:href="#DejaVuSans-48"/>
      </g>
     </g>
    </g>
    <g id="text_15">
     <!-- Effective Rank - Mean over Batches -->
     <defs>
      <path d="M 9.8125 72.90625 
L 55.90625 72.90625 
L 55.90625 64.59375 
L 19.671875 64.59375 
L 19.671875 43.015625 
L 54.390625 43.015625 
L 54.390625 34.71875 
L 19.671875 34.71875 
L 19.671875 8.296875 
L 56.78125 8.296875 
L 56.78125 0 
L 9.8125 0 
z
" id="DejaVuSans-69"/>
      <path d="M 37.109375 75.984375 
L 37.109375 68.5 
L 28.515625 68.5 
Q 23.6875 68.5 21.796875 66.546875 
Q 19.921875 64.59375 19.921875 59.515625 
L 19.921875 54.6875 
L 34.71875 54.6875 
L 34.71875 47.703125 
L 19.921875 47.703125 
L 19.921875 0 
L 10.890625 0 
L 10.890625 47.703125 
L 2.296875 47.703125 
L 2.296875 54.6875 
L 10.890625 54.6875 
L 10.890625 58.5 
Q 10.890625 67.625 15.140625 71.796875 
Q 19.390625 75.984375 28.609375 75.984375 
z
" id="DejaVuSans-102"/>
      <path d="M 18.3125 70.21875 
L 18.3125 54.6875 
L 36.8125 54.6875 
L 36.8125 47.703125 
L 18.3125 47.703125 
L 18.3125 18.015625 
Q 18.3125 11.328125 20.140625 9.421875 
Q 21.96875 7.515625 27.59375 7.515625 
L 36.8125 7.515625 
L 36.8125 0 
L 27.59375 0 
Q 17.1875 0 13.234375 3.875 
Q 9.28125 7.765625 9.28125 18.015625 
L 9.28125 47.703125 
L 2.6875 47.703125 
L 2.6875 54.6875 
L 9.28125 54.6875 
L 9.28125 70.21875 
z
" id="DejaVuSans-116"/>
      <path d="M 9.421875 54.6875 
L 18.40625 54.6875 
L 18.40625 0 
L 9.421875 0 
z
M 9.421875 75.984375 
L 18.40625 75.984375 
L 18.40625 64.59375 
L 9.421875 64.59375 
z
" id="DejaVuSans-105"/>
      <path d="M 2.984375 54.6875 
L 12.5 54.6875 
L 29.59375 8.796875 
L 46.6875 54.6875 
L 56.203125 54.6875 
L 35.6875 0 
L 23.484375 0 
z
" id="DejaVuSans-118"/>
      <path id="DejaVuSans-32"/>
      <path d="M 44.390625 34.1875 
Q 47.5625 33.109375 50.5625 29.59375 
Q 53.5625 26.078125 56.59375 19.921875 
L 66.609375 0 
L 56 0 
L 46.6875 18.703125 
Q 43.0625 26.03125 39.671875 28.421875 
Q 36.28125 30.8125 30.421875 30.8125 
L 19.671875 30.8125 
L 19.671875 0 
L 9.8125 0 
L 9.8125 72.90625 
L 32.078125 72.90625 
Q 44.578125 72.90625 50.734375 67.671875 
Q 56.890625 62.453125 56.890625 51.90625 
Q 56.890625 45.015625 53.6875 40.46875 
Q 50.484375 35.9375 44.390625 34.1875 
z
M 19.671875 64.796875 
L 19.671875 38.921875 
L 32.078125 38.921875 
Q 39.203125 38.921875 42.84375 42.21875 
Q 46.484375 45.515625 46.484375 51.90625 
Q 46.484375 58.296875 42.84375 61.546875 
Q 39.203125 64.796875 32.078125 64.796875 
z
" id="DejaVuSans-82"/>
      <path d="M 34.28125 27.484375 
Q 23.390625 27.484375 19.1875 25 
Q 14.984375 22.515625 14.984375 16.5 
Q 14.984375 11.71875 18.140625 8.90625 
Q 21.296875 6.109375 26.703125 6.109375 
Q 34.1875 6.109375 38.703125 11.40625 
Q 43.21875 16.703125 43.21875 25.484375 
L 43.21875 27.484375 
z
M 52.203125 31.203125 
L 52.203125 0 
L 43.21875 0 
L 43.21875 8.296875 
Q 40.140625 3.328125 35.546875 0.953125 
Q 30.953125 -1.421875 24.3125 -1.421875 
Q 15.921875 -1.421875 10.953125 3.296875 
Q 6 8.015625 6 15.921875 
Q 6 25.140625 12.171875 29.828125 
Q 18.359375 34.515625 30.609375 34.515625 
L 43.21875 34.515625 
L 43.21875 35.40625 
Q 43.21875 41.609375 39.140625 45 
Q 35.0625 48.390625 27.6875 48.390625 
Q 23 48.390625 18.546875 47.265625 
Q 14.109375 46.140625 10.015625 43.890625 
L 10.015625 52.203125 
Q 14.9375 54.109375 19.578125 55.046875 
Q 24.21875 56 28.609375 56 
Q 40.484375 56 46.34375 49.84375 
Q 52.203125 43.703125 52.203125 31.203125 
z
" id="DejaVuSans-97"/>
      <path d="M 54.890625 33.015625 
L 54.890625 0 
L 45.90625 0 
L 45.90625 32.71875 
Q 45.90625 40.484375 42.875 44.328125 
Q 39.84375 48.1875 33.796875 48.1875 
Q 26.515625 48.1875 22.3125 43.546875 
Q 18.109375 38.921875 18.109375 30.90625 
L 18.109375 0 
L 9.078125 0 
L 9.078125 54.6875 
L 18.109375 54.6875 
L 18.109375 46.1875 
Q 21.34375 51.125 25.703125 53.5625 
Q 30.078125 56 35.796875 56 
Q 45.21875 56 50.046875 50.171875 
Q 54.890625 44.34375 54.890625 33.015625 
z
" id="DejaVuSans-110"/>
      <path d="M 9.078125 75.984375 
L 18.109375 75.984375 
L 18.109375 31.109375 
L 44.921875 54.6875 
L 56.390625 54.6875 
L 27.390625 29.109375 
L 57.625 0 
L 45.90625 0 
L 18.109375 26.703125 
L 18.109375 0 
L 9.078125 0 
z
" id="DejaVuSans-107"/>
      <path d="M 4.890625 31.390625 
L 31.203125 31.390625 
L 31.203125 23.390625 
L 4.890625 23.390625 
z
" id="DejaVuSans-45"/>
      <path d="M 9.8125 72.90625 
L 24.515625 72.90625 
L 43.109375 23.296875 
L 61.8125 72.90625 
L 76.515625 72.90625 
L 76.515625 0 
L 66.890625 0 
L 66.890625 64.015625 
L 48.09375 14.015625 
L 38.1875 14.015625 
L 19.390625 64.015625 
L 19.390625 0 
L 9.8125 0 
z
" id="DejaVuSans-77"/>
      <path d="M 41.109375 46.296875 
Q 39.59375 47.171875 37.8125 47.578125 
Q 36.03125 48 33.890625 48 
Q 26.265625 48 22.1875 43.046875 
Q 18.109375 38.09375 18.109375 28.8125 
L 18.109375 0 
L 9.078125 0 
L 9.078125 54.6875 
L 18.109375 54.6875 
L 18.109375 46.1875 
Q 20.953125 51.171875 25.484375 53.578125 
Q 30.03125 56 36.53125 56 
Q 37.453125 56 38.578125 55.875 
Q 39.703125 55.765625 41.0625 55.515625 
z
" id="DejaVuSans-114"/>
      <path d="M 19.671875 34.8125 
L 19.671875 8.109375 
L 35.5 8.109375 
Q 43.453125 8.109375 47.28125 11.40625 
Q 51.125 14.703125 51.125 21.484375 
Q 51.125 28.328125 47.28125 31.5625 
Q 43.453125 34.8125 35.5 34.8125 
z
M 19.671875 64.796875 
L 19.671875 42.828125 
L 34.28125 42.828125 
Q 41.5 42.828125 45.03125 45.53125 
Q 48.578125 48.25 48.578125 53.8125 
Q 48.578125 59.328125 45.03125 62.0625 
Q 41.5 64.796875 34.28125 64.796875 
z
M 9.8125 72.90625 
L 35.015625 72.90625 
Q 46.296875 72.90625 52.390625 68.21875 
Q 58.5 63.53125 58.5 54.890625 
Q 58.5 48.1875 55.375 44.234375 
Q 52.25 40.28125 46.1875 39.3125 
Q 53.46875 37.75 57.5 32.78125 
Q 61.53125 27.828125 61.53125 20.40625 
Q 61.53125 10.640625 54.890625 5.3125 
Q 48.25 0 35.984375 0 
L 9.8125 0 
z
" id="DejaVuSans-66"/>
      <path d="M 44.28125 53.078125 
L 44.28125 44.578125 
Q 40.484375 46.53125 36.375 47.5 
Q 32.28125 48.484375 27.875 48.484375 
Q 21.1875 48.484375 17.84375 46.4375 
Q 14.5 44.390625 14.5 40.28125 
Q 14.5 37.15625 16.890625 35.375 
Q 19.28125 33.59375 26.515625 31.984375 
L 29.59375 31.296875 
Q 39.15625 29.25 43.1875 25.515625 
Q 47.21875 21.78125 47.21875 15.09375 
Q 47.21875 7.46875 41.1875 3.015625 
Q 35.15625 -1.421875 24.609375 -1.421875 
Q 20.21875 -1.421875 15.453125 -0.5625 
Q 10.6875 0.296875 5.421875 2 
L 5.421875 11.28125 
Q 10.40625 8.6875 15.234375 7.390625 
Q 20.0625 6.109375 24.8125 6.109375 
Q 31.15625 6.109375 34.5625 8.28125 
Q 37.984375 10.453125 37.984375 14.40625 
Q 37.984375 18.0625 35.515625 20.015625 
Q 33.0625 21.96875 24.703125 23.78125 
L 21.578125 24.515625 
Q 13.234375 26.265625 9.515625 29.90625 
Q 5.8125 33.546875 5.8125 39.890625 
Q 5.8125 47.609375 11.28125 51.796875 
Q 16.75 56 26.8125 56 
Q 31.78125 56 36.171875 55.265625 
Q 40.578125 54.546875 44.28125 53.078125 
z
" id="DejaVuSans-115"/>
     </defs>
     <g style="fill:#262626;" transform="translate(16.318125 262.256625)rotate(-90)scale(0.12 -0.12)">
      <use xlink:href="#DejaVuSans-69"/>
      <use x="63.183594" xlink:href="#DejaVuSans-102"/>
      <use x="98.388672" xlink:href="#DejaVuSans-102"/>
      <use x="133.59375" xlink:href="#DejaVuSans-101"/>
      <use x="195.117188" xlink:href="#DejaVuSans-99"/>
      <use x="250.097656" xlink:href="#DejaVuSans-116"/>
      <use x="289.306641" xlink:href="#DejaVuSans-105"/>
      <use x="317.089844" xlink:href="#DejaVuSans-118"/>
      <use x="376.269531" xlink:href="#DejaVuSans-101"/>
      <use x="437.792969" xlink:href="#DejaVuSans-32"/>
      <use x="469.580078" xlink:href="#DejaVuSans-82"/>
      <use x="539.03125" xlink:href="#DejaVuSans-97"/>
      <use x="600.310547" xlink:href="#DejaVuSans-110"/>
      <use x="663.689453" xlink:href="#DejaVuSans-107"/>
      <use x="721.599609" xlink:href="#DejaVuSans-32"/>
      <use x="753.386719" xlink:href="#DejaVuSans-45"/>
      <use x="789.470703" xlink:href="#DejaVuSans-32"/>
      <use x="821.257812" xlink:href="#DejaVuSans-77"/>
      <use x="907.537109" xlink:href="#DejaVuSans-101"/>
      <use x="969.060547" xlink:href="#DejaVuSans-97"/>
      <use x="1030.339844" xlink:href="#DejaVuSans-110"/>
      <use x="1093.71875" xlink:href="#DejaVuSans-32"/>
      <use x="1125.505859" xlink:href="#DejaVuSans-111"/>
      <use x="1186.6875" xlink:href="#DejaVuSans-118"/>
      <use x="1245.867188" xlink:href="#DejaVuSans-101"/>
      <use x="1307.390625" xlink:href="#DejaVuSans-114"/>
      <use x="1348.503906" xlink:href="#DejaVuSans-32"/>
      <use x="1380.291016" xlink:href="#DejaVuSans-66"/>
      <use x="1448.894531" xlink:href="#DejaVuSans-97"/>
      <use x="1510.173828" xlink:href="#DejaVuSans-116"/>
      <use x="1549.382812" xlink:href="#DejaVuSans-99"/>
      <use x="1604.363281" xlink:href="#DejaVuSans-104"/>
      <use x="1667.742188" xlink:href="#DejaVuSans-101"/>
      <use x="1729.265625" xlink:href="#DejaVuSans-115"/>
     </g>
    </g>
   </g>
   <g id="PolyCollection_1">
    <defs>
     <path d="M 62.543977 -79.550087 
L 62.543977 -70.125287 
L 65.856779 -71.788488 
L 69.16958 -78.441287 
L 72.482382 -75.669287 
L 75.795183 -75.669287 
L 79.107985 -77.886888 
L 82.420786 -74.560487 
L 85.733588 -73.451687 
L 89.046389 -78.427427 
L 92.359191 -74.006087 
L 95.671992 -78.441287 
L 98.984794 -76.223687 
L 102.297595 -75.669287 
L 105.610397 -75.669287 
L 108.923198 -76.223687 
L 112.236 -75.669287 
L 115.548801 -76.764227 
L 118.861603 -75.669287 
L 122.174404 -75.655428 
L 125.487205 -75.669287 
L 128.800007 -74.560487 
L 132.112808 -74.560487 
L 135.42561 -76.223687 
L 138.738411 -76.223687 
L 142.051213 -77.332487 
L 145.364014 -76.223687 
L 148.676816 -76.223687 
L 151.989617 -76.223687 
L 155.302419 -76.223687 
L 158.61522 -76.223687 
L 161.928022 -75.669287 
L 165.240823 -75.669287 
L 168.553625 -76.223687 
L 171.866426 -76.223687 
L 175.179228 -78.441287 
L 178.492029 -76.223687 
L 181.804831 -75.655428 
L 185.117632 -76.778087 
L 188.430434 -76.223687 
L 191.743235 -77.332487 
L 195.056037 -76.223687 
L 198.368838 -76.778087 
L 201.68164 -78.995688 
L 204.994441 -78.441287 
L 208.307243 -75.114887 
L 211.620044 -76.223687 
L 214.932846 -76.778087 
L 218.245647 -75.669287 
L 221.558449 -75.669287 
L 224.87125 -75.669287 
L 228.184051 -75.114887 
L 231.496853 -75.669287 
L 234.809654 -75.669287 
L 238.122456 -77.886888 
L 241.435257 -74.006087 
L 244.748059 -75.669287 
L 248.06086 -73.451687 
L 251.373662 -74.006087 
L 254.686463 -74.006087 
L 257.999265 -74.006087 
L 261.312066 -74.006087 
L 264.624868 -74.006087 
L 267.937669 -75.114887 
L 271.250471 -76.223687 
L 274.563272 -74.006087 
L 277.876074 -75.669287 
L 281.188875 -74.006087 
L 284.501677 -74.560487 
L 287.814478 -75.669287 
L 291.12728 -74.560487 
L 294.440081 -75.114887 
L 297.752883 -74.006087 
L 301.065684 -74.560487 
L 304.378486 -74.560487 
L 307.691287 -75.114887 
L 311.004089 -73.451687 
L 314.31689 -75.114888 
L 317.629692 -74.006087 
L 320.942493 -75.114887 
L 324.255295 -78.441288 
L 327.568096 -73.451687 
L 330.880897 -73.451687 
L 334.193699 -74.006087 
L 337.5065 -73.451687 
L 340.819302 -76.764228 
L 344.132103 -75.114887 
L 347.444905 -75.114887 
L 350.757706 -73.451687 
L 354.070508 -73.451687 
L 357.383309 -75.669287 
L 360.696111 -74.560487 
L 364.008912 -73.451687 
L 367.321714 -78.441288 
L 370.634515 -73.451687 
L 373.947317 -74.006087 
L 377.260118 -73.437827 
L 380.57292 -73.451687 
L 383.885721 -75.669287 
L 387.198523 -73.451687 
L 387.198523 -88.420487 
L 387.198523 -88.420487 
L 383.885721 -90.638087 
L 380.57292 -85.094088 
L 377.260118 -82.876487 
L 373.947317 -84.539687 
L 370.634515 -83.430887 
L 367.321714 -82.876487 
L 364.008912 -84.539687 
L 360.696111 -86.757287 
L 357.383309 -83.985287 
L 354.070508 -85.094088 
L 350.757706 -82.876487 
L 347.444905 -84.539687 
L 344.132103 -82.876487 
L 340.819302 -81.767687 
L 337.5065 -83.430887 
L 334.193699 -83.985287 
L 330.880897 -83.430887 
L 327.568096 -84.539687 
L 324.255295 -83.430887 
L 320.942493 -88.974887 
L 317.629692 -85.094088 
L 314.31689 -88.974887 
L 311.004089 -83.430887 
L 307.691287 -85.094088 
L 304.378486 -84.539687 
L 301.065684 -86.757288 
L 297.752883 -90.638087 
L 294.440081 -86.757288 
L 291.12728 -85.648487 
L 287.814478 -88.420487 
L 284.501677 -87.866087 
L 281.188875 -85.094088 
L 277.876074 -88.420487 
L 274.563272 -83.985287 
L 271.250471 -85.648487 
L 267.937669 -85.094088 
L 264.624868 -84.539687 
L 261.312066 -91.746887 
L 257.999265 -85.648487 
L 254.686463 -83.985287 
L 251.373662 -85.094088 
L 248.06086 -82.876487 
L 244.748059 -83.985287 
L 241.435257 -83.985287 
L 238.122456 -86.757287 
L 234.809654 -84.539687 
L 231.496853 -83.985287 
L 228.184051 -83.430887 
L 224.87125 -83.985287 
L 221.558449 -84.539687 
L 218.245647 -84.539687 
L 214.932846 -87.311687 
L 211.620044 -93.410088 
L 208.307243 -83.985287 
L 204.994441 -86.757287 
L 201.68164 -84.539687 
L 198.368838 -87.879947 
L 195.056037 -86.757287 
L 191.743235 -85.648487 
L 188.430434 -85.648487 
L 185.117632 -86.757287 
L 181.804831 -85.648487 
L 178.492029 -86.202887 
L 175.179228 -86.757287 
L 171.866426 -86.202887 
L 168.553625 -92.301288 
L 165.240823 -83.985287 
L 161.928022 -84.539687 
L 158.61522 -84.539687 
L 155.302419 -84.539687 
L 151.989617 -84.539687 
L 148.676816 -84.539687 
L 145.364014 -84.539687 
L 142.051213 -87.866087 
L 138.738411 -86.202887 
L 135.42561 -84.539687 
L 132.112808 -89.529287 
L 128.800007 -84.539687 
L 125.487205 -83.985287 
L 122.174404 -83.985287 
L 118.861603 -85.094088 
L 115.548801 -87.866087 
L 112.236 -85.648487 
L 108.923198 -84.539687 
L 105.610397 -86.771147 
L 102.297595 -83.985287 
L 98.984794 -93.964487 
L 95.671992 -89.529287 
L 92.359191 -83.985287 
L 89.046389 -93.410088 
L 85.733588 -83.430887 
L 82.420786 -85.648487 
L 79.107985 -82.322087 
L 75.795183 -85.648487 
L 72.482382 -89.529287 
L 69.16958 -86.202887 
L 65.856779 -87.866087 
L 62.543977 -79.550087 
z
" id="ma83d3a856a" style="stroke:#1f77b4;stroke-opacity:0.2;"/>
    </defs>
    <g clip-path="url(#pf1347273e7)">
     <use style="fill:#1f77b4;fill-opacity:0.2;stroke:#1f77b4;stroke-opacity:0.2;" x="0" xlink:href="#ma83d3a856a" y="331.389812"/>
    </g>
   </g>
   <g id="PolyCollection_2">
    <defs>
     <path d="M 62.543977 -259.730087 
L 62.543977 -185.426627 
L 65.856779 -208.725287 
L 69.16958 -215.378087 
L 72.482382 -218.704487 
L 75.795183 -203.181287 
L 79.107985 -176.570087 
L 82.420786 -162.710087 
L 85.733588 -151.608227 
L 89.046389 -143.860487 
L 92.359191 -139.425287 
L 95.671992 -139.425287 
L 98.984794 -127.214628 
L 102.297595 -125.010887 
L 105.610397 -121.130087 
L 108.923198 -115.586087 
L 112.236 -106.161287 
L 115.548801 -103.943687 
L 118.861603 -96.182087 
L 122.174404 -95.627688 
L 125.487205 -95.073287 
L 128.800007 -96.182087 
L 132.112808 -93.410088 
L 135.42561 -90.083687 
L 138.738411 -92.301287 
L 142.051213 -90.083687 
L 145.364014 -89.529287 
L 148.676816 -93.410088 
L 151.989617 -90.638087 
L 155.302419 -88.420487 
L 158.61522 -95.627688 
L 161.928022 -87.311688 
L 165.240823 -85.094087 
L 168.553625 -87.866087 
L 171.866426 -92.301288 
L 175.179228 -87.866087 
L 178.492029 -92.301287 
L 181.804831 -93.964487 
L 185.117632 -88.420487 
L 188.430434 -89.529288 
L 191.743235 -90.638087 
L 195.056037 -87.866087 
L 198.368838 -89.529287 
L 201.68164 -86.202888 
L 204.994441 -90.638087 
L 208.307243 -91.192487 
L 211.620044 -91.705307 
L 214.932846 -90.083687 
L 218.245647 -90.083687 
L 221.558449 -91.192487 
L 224.87125 -90.638087 
L 228.184051 -91.746887 
L 231.496853 -93.964487 
L 234.809654 -92.301288 
L 238.122456 -91.192487 
L 241.435257 -95.627687 
L 244.748059 -95.627687 
L 248.06086 -90.083687 
L 251.373662 -95.073287 
L 254.686463 -92.855687 
L 257.999265 -100.617288 
L 261.312066 -94.518888 
L 264.624868 -92.841827 
L 267.937669 -93.410088 
L 271.250471 -97.845287 
L 274.563272 -95.073287 
L 277.876074 -91.192487 
L 281.188875 -89.529288 
L 284.501677 -90.083687 
L 287.814478 -90.638087 
L 291.12728 -91.746887 
L 294.440081 -91.746887 
L 297.752883 -89.529287 
L 301.065684 -89.529287 
L 304.378486 -97.290887 
L 307.691287 -89.529288 
L 311.004089 -92.301287 
L 314.31689 -89.529288 
L 317.629692 -90.083687 
L 320.942493 -93.410088 
L 324.255295 -88.974887 
L 327.568096 -92.287427 
L 330.880897 -87.852227 
L 334.193699 -90.083687 
L 337.5065 -87.866087 
L 340.819302 -88.974887 
L 344.132103 -90.638088 
L 347.444905 -87.866087 
L 350.757706 -85.648488 
L 354.070508 -89.529287 
L 357.383309 -86.202888 
L 360.696111 -84.539687 
L 364.008912 -89.529288 
L 367.321714 -91.164767 
L 370.634515 -86.202888 
L 373.947317 -87.311687 
L 377.260118 -90.083687 
L 380.57292 -90.083687 
L 383.885721 -90.638087 
L 387.198523 -92.301287 
L 387.198523 -106.161287 
L 387.198523 -106.161287 
L 383.885721 -105.606887 
L 380.57292 -105.052487 
L 377.260118 -101.171687 
L 373.947317 -105.606887 
L 370.634515 -103.943687 
L 367.321714 -105.606887 
L 364.008912 -114.477287 
L 360.696111 -100.617287 
L 357.383309 -106.715688 
L 354.070508 -101.726087 
L 350.757706 -107.824487 
L 347.444905 -102.280488 
L 344.132103 -111.705287 
L 340.819302 -103.943687 
L 337.5065 -106.715687 
L 334.193699 -106.161287 
L 330.880897 -107.824488 
L 327.568096 -106.715687 
L 324.255295 -105.606887 
L 320.942493 -114.477287 
L 317.629692 -111.705287 
L 314.31689 -108.947147 
L 311.004089 -101.171687 
L 307.691287 -105.052487 
L 304.378486 -108.378887 
L 301.065684 -101.726087 
L 297.752883 -99.508488 
L 294.440081 -104.498087 
L 291.12728 -106.715688 
L 287.814478 -105.052487 
L 284.501677 -104.511947 
L 281.188875 -104.498087 
L 277.876074 -116.140487 
L 274.563272 -110.055947 
L 271.250471 -114.477287 
L 267.937669 -107.824487 
L 264.624868 -108.378888 
L 261.312066 -112.259687 
L 257.999265 -119.466887 
L 254.686463 -114.477288 
L 251.373662 -109.487687 
L 248.06086 -115.586088 
L 244.748059 -110.042087 
L 241.435257 -113.368487 
L 238.122456 -110.596487 
L 234.809654 -110.042087 
L 231.496853 -112.259687 
L 228.184051 -105.606887 
L 224.87125 -107.824487 
L 221.558449 -107.270088 
L 218.245647 -113.922888 
L 214.932846 -106.161287 
L 211.620044 -117.803687 
L 208.307243 -122.238888 
L 204.994441 -105.052487 
L 201.68164 -105.052487 
L 198.368838 -103.389287 
L 195.056037 -110.055947 
L 191.743235 -109.487687 
L 188.430434 -105.052487 
L 185.117632 -107.824487 
L 181.804831 -106.715688 
L 178.492029 -104.498087 
L 175.179228 -101.171687 
L 171.866426 -105.606887 
L 168.553625 -98.954087 
L 165.240823 -103.389287 
L 161.928022 -103.943687 
L 158.61522 -105.052487 
L 155.302419 -100.617288 
L 151.989617 -104.498087 
L 148.676816 -101.171687 
L 145.364014 -106.161287 
L 142.051213 -101.726088 
L 138.738411 -105.606887 
L 135.42561 -105.606887 
L 132.112808 -106.715687 
L 128.800007 -117.803687 
L 125.487205 -108.378887 
L 122.174404 -110.042087 
L 118.861603 -108.378887 
L 115.548801 -121.130087 
L 112.236 -113.936747 
L 108.923198 -125.010887 
L 105.610397 -144.414887 
L 102.297595 -139.979688 
L 98.984794 -152.176487 
L 95.671992 -153.285287 
L 92.359191 -170.471687 
L 89.046389 -164.927687 
L 85.733588 -168.808487 
L 82.420786 -195.974087 
L 79.107985 -203.181287 
L 75.795183 -227.574887 
L 72.482382 -261.947688 
L 69.16958 -278.579687 
L 65.856779 -275.807687 
L 62.543977 -259.730087 
z
" id="m082448f6f9" style="stroke:#ff7f0e;stroke-opacity:0.2;"/>
    </defs>
    <g clip-path="url(#pf1347273e7)">
     <use style="fill:#ff7f0e;fill-opacity:0.2;stroke:#ff7f0e;stroke-opacity:0.2;" x="0" xlink:href="#m082448f6f9" y="331.389812"/>
    </g>
   </g>
   <g id="PolyCollection_3">
    <defs>
     <path d="M 62.543977 -281.351687 
L 62.543977 -222.030887 
L 65.856779 -205.398888 
L 69.16958 -215.378087 
L 72.482382 -231.455687 
L 75.795183 -239.217287 
L 79.107985 -230.901287 
L 82.420786 -229.792488 
L 85.733588 -221.476487 
L 89.046389 -208.170887 
L 92.359191 -179.342087 
L 95.671992 -174.352487 
L 98.984794 -165.468227 
L 102.297595 -163.264487 
L 105.610397 -132.204228 
L 108.923198 -135.544487 
L 112.236 -132.218087 
L 115.548801 -125.565287 
L 118.861603 -115.031688 
L 122.174404 -116.694887 
L 125.487205 -109.487687 
L 128.800007 -102.834887 
L 132.112808 -108.378887 
L 135.42561 -105.606887 
L 138.738411 -105.052487 
L 142.051213 -102.280488 
L 145.364014 -101.726087 
L 148.676816 -102.834887 
L 151.989617 -102.834888 
L 155.302419 -98.954087 
L 158.61522 -98.385827 
L 161.928022 -98.954087 
L 165.240823 -97.290887 
L 168.553625 -100.617287 
L 171.866426 -98.399687 
L 175.179228 -100.062887 
L 178.492029 -102.280487 
L 181.804831 -100.049027 
L 185.117632 -101.712227 
L 188.430434 -99.508488 
L 191.743235 -98.399687 
L 195.056037 -97.845287 
L 198.368838 -99.508488 
L 201.68164 -101.726088 
L 204.994441 -101.171687 
L 208.307243 -101.726088 
L 211.620044 -106.161287 
L 214.932846 -100.062887 
L 218.245647 -106.161287 
L 221.558449 -99.508488 
L 224.87125 -107.270087 
L 228.184051 -103.943687 
L 231.496853 -103.389287 
L 234.809654 -106.161287 
L 238.122456 -109.487687 
L 241.435257 -105.038627 
L 244.748059 -103.389287 
L 248.06086 -105.052487 
L 251.373662 -107.270087 
L 254.686463 -101.712227 
L 257.999265 -102.834887 
L 261.312066 -104.498087 
L 264.624868 -97.845287 
L 267.937669 -98.399687 
L 271.250471 -107.270087 
L 274.563272 -100.062887 
L 277.876074 -104.498087 
L 281.188875 -106.715688 
L 284.501677 -101.171688 
L 287.814478 -102.834888 
L 291.12728 -97.290887 
L 294.440081 -103.389287 
L 297.752883 -102.834887 
L 301.065684 -97.845287 
L 304.378486 -102.834887 
L 307.691287 -103.389287 
L 311.004089 -103.943687 
L 314.31689 -105.606887 
L 317.629692 -99.508488 
L 320.942493 -101.171687 
L 324.255295 -100.603427 
L 327.568096 -99.508488 
L 330.880897 -102.834887 
L 334.193699 -97.845287 
L 337.5065 -97.290887 
L 340.819302 -99.508488 
L 344.132103 -95.073287 
L 347.444905 -98.954087 
L 350.757706 -102.280488 
L 354.070508 -98.954087 
L 357.383309 -97.290887 
L 360.696111 -100.062887 
L 364.008912 -98.399687 
L 367.321714 -96.736488 
L 370.634515 -94.518888 
L 373.947317 -102.834887 
L 377.260118 -97.845288 
L 380.57292 -100.062887 
L 383.885721 -91.746887 
L 387.198523 -100.062887 
L 387.198523 -121.130087 
L 387.198523 -121.130087 
L 383.885721 -112.827947 
L 380.57292 -113.936747 
L 377.260118 -115.586088 
L 373.947317 -114.477287 
L 370.634515 -117.803688 
L 367.321714 -116.694887 
L 364.008912 -112.814087 
L 360.696111 -116.694887 
L 357.383309 -116.140487 
L 354.070508 -117.249287 
L 350.757706 -118.912487 
L 347.444905 -117.803687 
L 344.132103 -115.586088 
L 340.819302 -116.140487 
L 337.5065 -120.575688 
L 334.193699 -115.586088 
L 330.880897 -120.575688 
L 327.568096 -125.565287 
L 324.255295 -124.456487 
L 320.942493 -118.358087 
L 317.629692 -118.912487 
L 314.31689 -121.684487 
L 311.004089 -123.902087 
L 307.691287 -122.252747 
L 304.378486 -121.684487 
L 301.065684 -113.922888 
L 297.752883 -117.803688 
L 294.440081 -118.912487 
L 291.12728 -113.922887 
L 287.814478 -112.259687 
L 284.501677 -116.694887 
L 281.188875 -118.912487 
L 277.876074 -112.814087 
L 274.563272 -114.477287 
L 271.250471 -116.140487 
L 267.937669 -107.270088 
L 264.624868 -110.042087 
L 261.312066 -112.814087 
L 257.999265 -121.684487 
L 254.686463 -121.698347 
L 251.373662 -118.358087 
L 248.06086 -123.347687 
L 244.748059 -121.130087 
L 241.435257 -124.456487 
L 238.122456 -115.031687 
L 234.809654 -121.130087 
L 231.496853 -120.021287 
L 228.184051 -119.466887 
L 224.87125 -117.803687 
L 221.558449 -120.575688 
L 218.245647 -120.575687 
L 214.932846 -118.358087 
L 211.620044 -118.912487 
L 208.307243 -121.684487 
L 204.994441 -120.589547 
L 201.68164 -111.705287 
L 198.368838 -119.466887 
L 195.056037 -115.031688 
L 191.743235 -116.140487 
L 188.430434 -111.705287 
L 185.117632 -113.922887 
L 181.804831 -106.715688 
L 178.492029 -118.358087 
L 175.179228 -112.259687 
L 171.866426 -112.814087 
L 168.553625 -111.150887 
L 165.240823 -112.814087 
L 161.928022 -110.042087 
L 158.61522 -113.936747 
L 155.302419 -108.933288 
L 151.989617 -112.814087 
L 148.676816 -111.150887 
L 145.364014 -116.694887 
L 142.051213 -112.259687 
L 138.738411 -111.705287 
L 135.42561 -115.031687 
L 132.112808 -114.477288 
L 128.800007 -118.358087 
L 125.487205 -117.249287 
L 122.174404 -123.902087 
L 118.861603 -128.337288 
L 115.548801 -137.762087 
L 112.236 -139.979687 
L 108.923198 -147.741287 
L 105.610397 -152.176487 
L 102.297595 -174.352487 
L 98.984794 -189.321287 
L 95.671992 -194.310888 
L 92.359191 -222.100187 
L 89.046389 -232.564487 
L 85.733588 -259.175687 
L 82.420786 -270.818087 
L 79.107985 -283.569287 
L 75.795183 -286.895687 
L 72.482382 -290.776487 
L 69.16958 -263.610887 
L 65.856779 -261.393287 
L 62.543977 -281.351687 
z
" id="m5f1c0030c2" style="stroke:#2ca02c;stroke-opacity:0.2;"/>
    </defs>
    <g clip-path="url(#pf1347273e7)">
     <use style="fill:#2ca02c;fill-opacity:0.2;stroke:#2ca02c;stroke-opacity:0.2;" x="0" xlink:href="#m5f1c0030c2" y="331.389812"/>
    </g>
   </g>
   <g id="PolyCollection_4">
    <defs>
     <path d="M 62.543977 -273.590087 
L 62.543977 -223.694087 
L 65.856779 -227.020487 
L 69.16958 -242.543687 
L 72.482382 -233.118887 
L 75.795183 -242.543687 
L 79.107985 -242.543687 
L 82.420786 -233.118887 
L 85.733588 -232.564487 
L 89.046389 -215.378087 
L 92.359191 -239.217287 
L 95.671992 -235.336487 
L 98.984794 -225.911687 
L 102.297595 -226.438368 
L 105.610397 -198.732227 
L 108.923198 -184.331687 
L 112.236 -189.875687 
L 115.548801 -174.906887 
L 118.861603 -165.482087 
L 122.174404 -166.036487 
L 125.487205 -160.492488 
L 128.800007 -149.958888 
L 132.112808 -155.502887 
L 135.42561 -147.741287 
L 138.738411 -155.502887 
L 142.051213 -141.642887 
L 145.364014 -141.088487 
L 148.676816 -133.326887 
L 151.989617 -139.979688 
L 155.302419 -140.534087 
L 158.61522 -130.554888 
L 161.928022 -131.109287 
L 165.240823 -135.544488 
L 168.553625 -136.098887 
L 171.866426 -129.446088 
L 175.179228 -127.782887 
L 178.492029 -128.337288 
L 181.804831 -130.000488 
L 185.117632 -127.782887 
L 188.430434 -123.347688 
L 191.743235 -126.674087 
L 195.056037 -128.891687 
L 198.368838 -128.337288 
L 201.68164 -121.684488 
L 204.994441 -118.358087 
L 208.307243 -125.565287 
L 211.620044 -126.119687 
L 214.932846 -122.793287 
L 218.245647 -129.446087 
L 221.558449 -123.902087 
L 224.87125 -128.323427 
L 228.184051 -117.249287 
L 231.496853 -123.347688 
L 234.809654 -121.684487 
L 238.122456 -120.575687 
L 241.435257 -125.551427 
L 244.748059 -127.228487 
L 248.06086 -125.010887 
L 251.373662 -122.238888 
L 254.686463 -126.674087 
L 257.999265 -126.674087 
L 261.312066 -118.912487 
L 264.624868 -128.891687 
L 267.937669 -128.891687 
L 271.250471 -122.238887 
L 274.563272 -123.888227 
L 277.876074 -122.779427 
L 281.188875 -118.912487 
L 284.501677 -122.793287 
L 287.814478 -115.586087 
L 291.12728 -122.793288 
L 294.440081 -123.902087 
L 297.752883 -123.888227 
L 301.065684 -115.586087 
L 304.378486 -115.586087 
L 307.691287 -127.228487 
L 311.004089 -120.561827 
L 314.31689 -123.902087 
L 317.629692 -124.456487 
L 320.942493 -121.684487 
L 324.255295 -117.249287 
L 327.568096 -122.793287 
L 330.880897 -122.793287 
L 334.193699 -118.358088 
L 337.5065 -124.456487 
L 340.819302 -112.259687 
L 344.132103 -121.130088 
L 347.444905 -118.912487 
L 350.757706 -125.565287 
L 354.070508 -116.694887 
L 357.383309 -120.021287 
L 360.696111 -123.902087 
L 364.008912 -128.337288 
L 367.321714 -119.466888 
L 370.634515 -123.347687 
L 373.947317 -120.021288 
L 377.260118 -112.259687 
L 380.57292 -117.249287 
L 383.885721 -119.466887 
L 387.198523 -124.456487 
L 387.198523 -147.186888 
L 387.198523 -147.186888 
L 383.885721 -149.958887 
L 380.57292 -149.958887 
L 377.260118 -150.513287 
L 373.947317 -153.285287 
L 370.634515 -146.632487 
L 367.321714 -157.166088 
L 364.008912 -151.067687 
L 360.696111 -151.067687 
L 357.383309 -149.958888 
L 354.070508 -149.958888 
L 350.757706 -161.060747 
L 347.444905 -152.176488 
L 344.132103 -150.513287 
L 340.819302 -151.067687 
L 337.5065 -144.414887 
L 334.193699 -146.078087 
L 330.880897 -152.730887 
L 327.568096 -149.958887 
L 324.255295 -144.969288 
L 320.942493 -155.502887 
L 317.629692 -151.067687 
L 314.31689 -147.186888 
L 311.004089 -150.513287 
L 307.691287 -143.306087 
L 304.378486 -146.646347 
L 301.065684 -141.088487 
L 297.752883 -147.186887 
L 294.440081 -144.969288 
L 291.12728 -147.186887 
L 287.814478 -141.116207 
L 284.501677 -151.622087 
L 281.188875 -146.078087 
L 277.876074 -146.078087 
L 274.563272 -148.295687 
L 271.250471 -139.425287 
L 267.937669 -147.741287 
L 264.624868 -148.850088 
L 261.312066 -145.537547 
L 257.999265 -147.741287 
L 254.686463 -142.751688 
L 251.373662 -144.969288 
L 248.06086 -150.513287 
L 244.748059 -144.969287 
L 241.435257 -147.186887 
L 238.122456 -134.990087 
L 234.809654 -143.306087 
L 231.496853 -149.404487 
L 228.184051 -140.534087 
L 224.87125 -146.632487 
L 221.558449 -141.088487 
L 218.245647 -139.979688 
L 214.932846 -137.762087 
L 211.620044 -144.969288 
L 208.307243 -146.632487 
L 204.994441 -141.088487 
L 201.68164 -138.870888 
L 198.368838 -146.646347 
L 195.056037 -146.646347 
L 191.743235 -138.870887 
L 188.430434 -141.088487 
L 185.117632 -143.860487 
L 181.804831 -149.404487 
L 178.492029 -137.762088 
L 175.179228 -143.306087 
L 171.866426 -136.653287 
L 168.553625 -146.078087 
L 165.240823 -152.730887 
L 161.928022 -145.523687 
L 158.61522 -145.537547 
L 155.302419 -158.829287 
L 151.989617 -154.948487 
L 148.676816 -149.972747 
L 145.364014 -156.057287 
L 142.051213 -156.057287 
L 138.738411 -162.710087 
L 135.42561 -167.699687 
L 132.112808 -173.243687 
L 128.800007 -176.570087 
L 125.487205 -179.355947 
L 122.174404 -182.668488 
L 118.861603 -182.114087 
L 115.548801 -209.279687 
L 112.236 -202.072487 
L 108.923198 -218.704487 
L 105.610397 -220.922087 
L 102.297595 -265.828487 
L 98.984794 -264.165287 
L 95.671992 -286.895687 
L 92.359191 -289.667687 
L 89.046389 -292.439687 
L 85.733588 -289.113287 
L 82.420786 -291.885288 
L 79.107985 -292.439687 
L 75.795183 -292.439687 
L 72.482382 -291.330887 
L 69.16958 -292.439687 
L 65.856779 -291.885288 
L 62.543977 -273.590087 
z
" id="mec9b964dd1" style="stroke:#d62728;stroke-opacity:0.2;"/>
    </defs>
    <g clip-path="url(#pf1347273e7)">
     <use style="fill:#d62728;fill-opacity:0.2;stroke:#d62728;stroke-opacity:0.2;" x="0" xlink:href="#mec9b964dd1" y="331.389812"/>
    </g>
   </g>
   <g id="PolyCollection_5">
    <defs>
     <path d="M 62.543977 -292.439687 
L 62.543977 -242.543687 
L 65.856779 -241.989287 
L 69.16958 -239.771687 
L 72.482382 -240.880487 
L 75.795183 -242.543687 
L 79.107985 -242.543687 
L 82.420786 -234.782087 
L 85.733588 -241.989287 
L 89.046389 -242.543687 
L 92.359191 -242.543687 
L 95.671992 -240.326087 
L 98.984794 -240.326087 
L 102.297595 -236.999687 
L 105.610397 -242.543687 
L 108.923198 -233.118887 
L 112.236 -242.460527 
L 115.548801 -242.543687 
L 118.861603 -242.543687 
L 122.174404 -242.543687 
L 125.487205 -239.217287 
L 128.800007 -239.771687 
L 132.112808 -241.989287 
L 135.42561 -242.543687 
L 138.738411 -242.543687 
L 142.051213 -242.543687 
L 145.364014 -242.543687 
L 148.676816 -239.217287 
L 151.989617 -240.326087 
L 155.302419 -220.922088 
L 158.61522 -233.673287 
L 161.928022 -235.890887 
L 165.240823 -231.372527 
L 168.553625 -228.129288 
L 171.866426 -219.258887 
L 175.179228 -239.771687 
L 178.492029 -239.771687 
L 181.804831 -226.466088 
L 185.117632 -239.217287 
L 188.430434 -242.543687 
L 191.743235 -236.999687 
L 195.056037 -238.108487 
L 198.368838 -237.554087 
L 201.68164 -242.543687 
L 204.994441 -242.543687 
L 208.307243 -228.129288 
L 211.620044 -230.901287 
L 214.932846 -236.445287 
L 218.245647 -228.683687 
L 221.558449 -234.227687 
L 224.87125 -237.554087 
L 228.184051 -236.445287 
L 231.496853 -237.554087 
L 234.809654 -230.901287 
L 238.122456 -222.585287 
L 241.435257 -235.890887 
L 244.748059 -236.999687 
L 248.06086 -241.989287 
L 251.373662 -241.434887 
L 254.686463 -242.543687 
L 257.999265 -242.543687 
L 261.312066 -242.543687 
L 264.624868 -239.217287 
L 267.937669 -240.880487 
L 271.250471 -236.999687 
L 274.563272 -240.880487 
L 277.876074 -229.238087 
L 281.188875 -230.859707 
L 284.501677 -233.118887 
L 287.814478 -230.901287 
L 291.12728 -235.890887 
L 294.440081 -237.554087 
L 297.752883 -224.802887 
L 301.065684 -232.509047 
L 304.378486 -227.574887 
L 307.691287 -234.782088 
L 311.004089 -233.118887 
L 314.31689 -217.595687 
L 317.629692 -219.258887 
L 320.942493 -239.217287 
L 324.255295 -231.455687 
L 327.568096 -225.911687 
L 330.880897 -228.683687 
L 334.193699 -231.455687 
L 337.5065 -235.890887 
L 340.819302 -210.388487 
L 344.132103 -196.528487 
L 347.444905 -232.010087 
L 350.757706 -220.367687 
L 354.070508 -232.564487 
L 357.383309 -240.270647 
L 360.696111 -232.010087 
L 364.008912 -198.746087 
L 367.321714 -230.346887 
L 370.634515 -225.357287 
L 373.947317 -195.974087 
L 377.260118 -205.398888 
L 380.57292 -202.474428 
L 383.885721 -221.476487 
L 387.198523 -235.890887 
L 387.198523 -292.439687 
L 387.198523 -292.439687 
L 383.885721 -288.558888 
L 380.57292 -280.797287 
L 377.260118 -284.123687 
L 373.947317 -264.165287 
L 370.634515 -288.558888 
L 367.321714 -279.688487 
L 364.008912 -289.113287 
L 360.696111 -291.330887 
L 357.383309 -290.222088 
L 354.070508 -288.004487 
L 350.757706 -285.786887 
L 347.444905 -288.004487 
L 344.132103 -275.821547 
L 340.819302 -278.579687 
L 337.5065 -292.439687 
L 334.193699 -281.906088 
L 330.880897 -283.014887 
L 327.568096 -285.786887 
L 324.255295 -283.569287 
L 320.942493 -288.004487 
L 317.629692 -284.678087 
L 314.31689 -292.439687 
L 311.004089 -290.222088 
L 307.691287 -282.460487 
L 304.378486 -284.123687 
L 301.065684 -290.222088 
L 297.752883 -278.025287 
L 294.440081 -287.450087 
L 291.12728 -285.786887 
L 287.814478 -285.232487 
L 284.501677 -291.330887 
L 281.188875 -278.593547 
L 277.876074 -284.678087 
L 274.563272 -291.885288 
L 271.250471 -289.667687 
L 267.937669 -291.885288 
L 264.624868 -292.439687 
L 261.312066 -292.439687 
L 257.999265 -292.439687 
L 254.686463 -292.439687 
L 251.373662 -291.885288 
L 248.06086 -292.439687 
L 244.748059 -290.222088 
L 241.435257 -282.460487 
L 238.122456 -291.885288 
L 234.809654 -283.014887 
L 231.496853 -289.667687 
L 228.184051 -288.558888 
L 224.87125 -288.004487 
L 221.558449 -292.439687 
L 218.245647 -286.341287 
L 214.932846 -292.439687 
L 211.620044 -292.439687 
L 208.307243 -282.460487 
L 204.994441 -292.439687 
L 201.68164 -292.439687 
L 198.368838 -292.439687 
L 195.056037 -290.776487 
L 191.743235 -292.439687 
L 188.430434 -292.439687 
L 185.117632 -290.776487 
L 181.804831 -283.014887 
L 178.492029 -292.439687 
L 175.179228 -291.330887 
L 171.866426 -283.597007 
L 168.553625 -292.439687 
L 165.240823 -285.786887 
L 161.928022 -290.222088 
L 158.61522 -284.678088 
L 155.302419 -289.667687 
L 151.989617 -291.330887 
L 148.676816 -289.667687 
L 145.364014 -292.439687 
L 142.051213 -292.439687 
L 138.738411 -292.439687 
L 135.42561 -292.439687 
L 132.112808 -292.439687 
L 128.800007 -292.439687 
L 125.487205 -291.330887 
L 122.174404 -292.439687 
L 118.861603 -292.439687 
L 115.548801 -292.439687 
L 112.236 -292.439687 
L 108.923198 -292.439687 
L 105.610397 -292.439687 
L 102.297595 -286.895688 
L 98.984794 -290.222088 
L 95.671992 -292.439687 
L 92.359191 -292.439687 
L 89.046389 -292.439687 
L 85.733588 -292.439687 
L 82.420786 -292.439687 
L 79.107985 -292.439687 
L 75.795183 -292.439687 
L 72.482382 -292.439687 
L 69.16958 -292.439687 
L 65.856779 -292.439687 
L 62.543977 -292.439687 
z
" id="md16fccb051" style="stroke:#9467bd;stroke-opacity:0.2;"/>
    </defs>
    <g clip-path="url(#pf1347273e7)">
     <use style="fill:#9467bd;fill-opacity:0.2;stroke:#9467bd;stroke-opacity:0.2;" x="0" xlink:href="#md16fccb051" y="331.389812"/>
    </g>
   </g>
   <g id="line2d_14">
    <path clip-path="url(#pf1347273e7)" d="M 62.543977 255.720525 
L 65.856779 251.285325 
L 69.16958 249.067725 
L 72.482382 248.513325 
L 75.795183 250.176525 
L 79.107985 251.285325 
L 82.420786 250.730925 
L 85.733588 251.839725 
L 89.046389 244.632525 
L 92.359191 251.285325 
L 95.671992 246.850125 
L 98.984794 246.850125 
L 102.297595 250.730925 
L 105.610397 249.067725 
L 108.923198 250.176525 
L 112.236 250.176525 
L 115.548801 248.513325 
L 118.861603 250.730925 
L 122.174404 250.730925 
L 125.487205 250.730925 
L 128.800007 250.176525 
L 132.112808 248.513325 
L 135.42561 250.176525 
L 138.738411 249.067725 
L 142.051213 248.513325 
L 145.364014 249.622125 
L 148.676816 250.176525 
L 151.989617 249.622125 
L 155.302419 249.622125 
L 158.61522 249.622125 
L 161.928022 250.176525 
L 165.240823 250.730925 
L 168.553625 247.404525 
L 171.866426 249.067725 
L 175.179228 247.958925 
L 178.492029 249.067725 
L 181.804831 250.176525 
L 185.117632 248.513325 
L 188.430434 249.622125 
L 191.743235 249.067725 
L 195.056037 249.067725 
L 198.368838 247.958925 
L 201.68164 249.067725 
L 204.994441 247.958925 
L 208.307243 251.285325 
L 211.620044 247.404525 
L 214.932846 247.958925 
L 218.245647 250.176525 
L 221.558449 250.176525 
L 224.87125 251.285325 
L 228.184051 251.285325 
L 231.496853 250.730925 
L 234.809654 250.176525 
L 238.122456 248.513325 
L 241.435257 251.285325 
L 244.748059 250.730925 
L 248.06086 251.839725 
L 251.373662 250.730925 
L 254.686463 251.285325 
L 257.999265 250.730925 
L 261.312066 247.404525 
L 264.624868 250.730925 
L 267.937669 250.730925 
L 271.250471 249.622125 
L 274.563272 251.285325 
L 277.876074 249.067725 
L 281.188875 250.730925 
L 284.501677 249.067725 
L 287.814478 249.067725 
L 291.12728 250.176525 
L 294.440081 250.176525 
L 297.752883 249.067725 
L 301.065684 249.622125 
L 304.378486 250.176525 
L 307.691287 250.730925 
L 311.004089 251.839725 
L 314.31689 248.513325 
L 317.629692 250.730925 
L 320.942493 247.958925 
L 324.255295 250.176525 
L 327.568096 251.839725 
L 330.880897 251.839725 
L 334.193699 251.285325 
L 337.5065 251.839725 
L 340.819302 251.839725 
L 344.132103 251.839725 
L 347.444905 251.285325 
L 350.757706 252.394125 
L 354.070508 251.285325 
L 357.383309 250.730925 
L 360.696111 249.622125 
L 364.008912 251.839725 
L 367.321714 250.176525 
L 370.634515 251.839725 
L 373.947317 250.730925 
L 377.260118 252.394125 
L 380.57292 251.285325 
L 383.885721 247.958925 
L 387.198523 250.176525 
" style="fill:none;stroke:#1f77b4;stroke-linecap:round;stroke-width:1.5;"/>
   </g>
   <g id="line2d_15">
    <path clip-path="url(#pf1347273e7)" d="M 62.543977 111.576525 
L 65.856779 85.519725 
L 69.16958 78.312525 
L 72.482382 89.954925 
L 75.795183 116.011725 
L 79.107985 141.514125 
L 82.420786 149.830125 
L 85.733588 170.897325 
L 89.046389 175.332525 
L 92.359191 174.223725 
L 95.671992 185.311725 
L 98.984794 191.964525 
L 102.297595 199.171725 
L 105.610397 199.726125 
L 108.923198 211.368525 
L 112.236 221.347725 
L 115.548801 219.684525 
L 118.861603 229.663725 
L 122.174404 228.554925 
L 125.487205 230.772525 
L 128.800007 226.337325 
L 132.112808 232.435725 
L 135.42561 234.098925 
L 138.738411 232.435725 
L 142.051213 235.762125 
L 145.364014 235.207725 
L 148.676816 234.098925 
L 151.989617 233.544525 
L 155.302419 235.762125 
L 158.61522 231.326925 
L 161.928022 235.762125 
L 165.240823 236.316525 
L 168.553625 237.425325 
L 171.866426 231.881325 
L 175.179228 235.762125 
L 178.492029 232.990125 
L 181.804831 230.772525 
L 185.117632 231.881325 
L 188.430434 232.990125 
L 191.743235 230.772525 
L 195.056037 231.326925 
L 198.368838 233.544525 
L 201.68164 235.762125 
L 204.994441 232.435725 
L 208.307243 224.674125 
L 211.620044 225.228525 
L 214.932846 231.881325 
L 218.245647 228.000525 
L 221.558449 230.772525 
L 224.87125 231.326925 
L 228.184051 231.881325 
L 231.496853 227.446125 
L 234.809654 229.109325 
L 238.122456 229.109325 
L 241.435257 226.891725 
L 244.748059 227.446125 
L 248.06086 227.446125 
L 251.373662 228.554925 
L 254.686463 226.337325 
L 257.999265 221.902125 
L 261.312066 225.782925 
L 264.624868 231.326925 
L 267.937669 229.109325 
L 271.250471 225.228525 
L 274.563272 227.446125 
L 277.876074 226.891725 
L 281.188875 233.544525 
L 284.501677 232.990125 
L 287.814478 232.990125 
L 291.12728 231.326925 
L 294.440081 232.990125 
L 297.752883 236.316525 
L 301.065684 235.762125 
L 304.378486 228.554925 
L 307.691287 232.990125 
L 311.004089 233.544525 
L 314.31689 231.326925 
L 317.629692 230.218125 
L 320.942493 226.891725 
L 324.255295 234.098925 
L 327.568096 230.772525 
L 330.880897 232.990125 
L 334.193699 232.435725 
L 337.5065 234.098925 
L 340.819302 235.762125 
L 344.132103 230.218125 
L 347.444905 236.316525 
L 350.757706 234.653325 
L 354.070508 235.762125 
L 357.383309 234.653325 
L 360.696111 238.534125 
L 364.008912 230.772525 
L 367.321714 232.990125 
L 370.634515 235.207725 
L 373.947317 234.653325 
L 377.260118 235.207725 
L 380.57292 233.544525 
L 383.885721 232.990125 
L 387.198523 231.326925 
" style="fill:none;stroke:#ff7f0e;stroke-linecap:round;stroke-width:1.5;"/>
   </g>
   <g id="line2d_16">
    <path clip-path="url(#pf1347273e7)" d="M 62.543977 72.214125 
L 65.856779 97.162125 
L 69.16958 96.607725 
L 72.482382 68.333325 
L 75.795183 61.126125 
L 79.107985 67.778925 
L 82.420786 77.203725 
L 85.733588 87.737325 
L 89.046389 111.576525 
L 92.359191 131.534925 
L 95.671992 147.058125 
L 98.984794 154.265325 
L 102.297595 162.581325 
L 105.610397 188.638125 
L 108.923198 189.746925 
L 112.236 194.736525 
L 115.548801 199.726125 
L 118.861603 209.150925 
L 122.174404 210.814125 
L 125.487205 218.021325 
L 128.800007 221.347725 
L 132.112808 220.238925 
L 135.42561 221.347725 
L 138.738411 223.010925 
L 142.051213 224.119725 
L 145.364014 221.902125 
L 148.676816 225.228525 
L 151.989617 223.010925 
L 155.302419 227.446125 
L 158.61522 224.119725 
L 161.928022 226.891725 
L 165.240823 225.782925 
L 168.553625 226.337325 
L 171.866426 225.782925 
L 175.179228 224.674125 
L 178.492029 220.793325 
L 181.804831 227.446125 
L 185.117632 223.565325 
L 188.430434 225.782925 
L 191.743235 223.565325 
L 195.056037 224.674125 
L 198.368838 221.902125 
L 201.68164 224.674125 
L 204.994441 221.347725 
L 208.307243 219.684525 
L 211.620044 219.130125 
L 214.932846 221.347725 
L 218.245647 218.021325 
L 221.558449 221.347725 
L 224.87125 219.130125 
L 228.184051 219.130125 
L 231.496853 219.684525 
L 234.809654 218.021325 
L 238.122456 218.575725 
L 241.435257 216.912525 
L 244.748059 219.130125 
L 248.06086 218.021325 
L 251.373662 218.575725 
L 254.686463 220.238925 
L 257.999265 220.793325 
L 261.312066 223.010925 
L 264.624868 227.446125 
L 267.937669 228.554925 
L 271.250471 219.684525 
L 274.563272 223.010925 
L 277.876074 222.456525 
L 281.188875 218.575725 
L 284.501677 222.456525 
L 287.814478 223.565325 
L 291.12728 225.228525 
L 294.440081 219.684525 
L 297.752883 219.684525 
L 301.065684 224.674125 
L 304.378486 218.021325 
L 307.691287 219.684525 
L 311.004089 218.575725 
L 314.31689 218.021325 
L 317.629692 221.347725 
L 320.942493 220.793325 
L 324.255295 219.130125 
L 327.568096 219.684525 
L 330.880897 219.130125 
L 334.193699 224.674125 
L 337.5065 223.010925 
L 340.819302 223.010925 
L 344.132103 224.674125 
L 347.444905 222.456525 
L 350.757706 220.793325 
L 354.070508 221.902125 
L 357.383309 223.010925 
L 360.696111 220.793325 
L 364.008912 224.674125 
L 367.321714 223.565325 
L 370.634515 224.119725 
L 373.947317 221.347725 
L 377.260118 223.565325 
L 380.57292 224.119725 
L 383.885721 227.446125 
L 387.198523 220.238925 
" style="fill:none;stroke:#2ca02c;stroke-linecap:round;stroke-width:1.5;"/>
   </g>
   <g id="line2d_17">
    <path clip-path="url(#pf1347273e7)" d="M 62.543977 83.856525 
L 65.856779 71.659725 
L 69.16958 55.582125 
L 72.482382 66.115725 
L 75.795183 63.898125 
L 79.107985 55.582125 
L 82.420786 68.887725 
L 85.733588 68.887725 
L 89.046389 65.006925 
L 92.359191 62.789325 
L 95.671992 65.561325 
L 98.984794 82.193325 
L 102.297595 84.410925 
L 105.610397 121.555725 
L 108.923198 126.545325 
L 112.236 135.970125 
L 115.548801 138.742125 
L 118.861603 157.037325 
L 122.174404 157.037325 
L 125.487205 160.918125 
L 128.800007 167.016525 
L 132.112808 167.016525 
L 135.42561 173.669325 
L 138.738411 172.560525 
L 142.051213 182.539725 
L 145.364014 181.985325 
L 148.676816 188.638125 
L 151.989617 183.094125 
L 155.302419 181.985325 
L 158.61522 192.518925 
L 161.928022 193.073325 
L 165.240823 187.529325 
L 168.553625 190.855725 
L 171.866426 198.617325 
L 175.179228 195.845325 
L 178.492029 197.508525 
L 181.804831 192.518925 
L 185.117632 195.290925 
L 188.430434 199.171725 
L 191.743235 198.062925 
L 195.056037 194.182125 
L 198.368838 195.290925 
L 201.68164 201.389325 
L 204.994441 202.498125 
L 208.307243 195.845325 
L 211.620044 196.954125 
L 214.932846 200.834925 
L 218.245647 196.399725 
L 221.558449 198.062925 
L 224.87125 194.182125 
L 228.184051 202.498125 
L 231.496853 195.290925 
L 234.809654 200.834925 
L 238.122456 203.606925 
L 241.435257 196.954125 
L 244.748059 194.182125 
L 248.06086 194.736525 
L 251.373662 196.954125 
L 254.686463 198.062925 
L 257.999265 194.182125 
L 261.312066 200.280525 
L 264.624868 192.518925 
L 267.937669 193.073325 
L 271.250471 200.280525 
L 274.563272 193.627725 
L 277.876074 198.062925 
L 281.188875 199.726125 
L 284.501677 197.508525 
L 287.814478 203.052525 
L 291.12728 198.617325 
L 294.440081 197.508525 
L 297.752883 196.399725 
L 301.065684 204.161325 
L 304.378486 200.280525 
L 307.691287 195.845325 
L 311.004089 194.736525 
L 314.31689 196.399725 
L 317.629692 193.073325 
L 320.942493 193.073325 
L 324.255295 198.617325 
L 327.568096 195.290925 
L 330.880897 194.736525 
L 334.193699 198.617325 
L 337.5065 195.845325 
L 340.819302 199.171725 
L 344.132103 195.845325 
L 347.444905 195.845325 
L 350.757706 187.529325 
L 354.070508 199.171725 
L 357.383309 194.182125 
L 360.696111 193.073325 
L 364.008912 191.410125 
L 367.321714 192.518925 
L 370.634515 193.627725 
L 373.947317 192.518925 
L 377.260118 200.834925 
L 380.57292 198.617325 
L 383.885721 196.954125 
L 387.198523 193.627725 
" style="fill:none;stroke:#d62728;stroke-linecap:round;stroke-width:1.5;"/>
   </g>
   <g id="line2d_18">
    <path clip-path="url(#pf1347273e7)" d="M 62.543977 55.582125 
L 65.856779 56.136525 
L 69.16958 58.354125 
L 72.482382 61.680525 
L 75.795183 55.582125 
L 79.107985 55.582125 
L 82.420786 63.343725 
L 85.733588 56.136525 
L 89.046389 57.799725 
L 92.359191 55.582125 
L 95.671992 65.006925 
L 98.984794 62.789325 
L 102.297595 66.670125 
L 105.610397 55.582125 
L 108.923198 65.006925 
L 112.236 62.234925 
L 115.548801 55.582125 
L 118.861603 55.582125 
L 122.174404 55.582125 
L 125.487205 60.017325 
L 128.800007 57.245325 
L 132.112808 56.136525 
L 135.42561 61.126125 
L 138.738411 55.582125 
L 142.051213 58.354125 
L 145.364014 55.582125 
L 148.676816 61.680525 
L 151.989617 62.789325 
L 155.302419 72.214125 
L 158.61522 68.333325 
L 161.928022 63.343725 
L 165.240823 70.550925 
L 168.553625 62.234925 
L 171.866426 79.421325 
L 175.179228 59.462925 
L 178.492029 58.354125 
L 181.804831 76.649325 
L 185.117632 60.571725 
L 188.430434 55.582125 
L 191.743235 61.126125 
L 195.056037 61.680525 
L 198.368838 60.571725 
L 201.68164 55.582125 
L 204.994441 55.582125 
L 208.307243 76.094925 
L 211.620044 67.224525 
L 214.932846 61.680525 
L 218.245647 73.877325 
L 221.558449 60.571725 
L 224.87125 65.006925 
L 228.184051 65.561325 
L 231.496853 63.343725 
L 234.809654 74.431725 
L 238.122456 66.115725 
L 241.435257 69.442125 
L 244.748059 61.126125 
L 248.06086 56.136525 
L 251.373662 64.452525 
L 254.686463 55.582125 
L 257.999265 56.690925 
L 261.312066 56.690925 
L 264.624868 58.908525 
L 267.937669 57.799725 
L 271.250471 63.898125 
L 274.563272 57.799725 
L 277.876074 74.431725 
L 281.188875 78.312525 
L 284.501677 66.115725 
L 287.814478 73.322925 
L 291.12728 69.442125 
L 294.440081 65.006925 
L 297.752883 77.203725 
L 301.065684 67.778925 
L 304.378486 75.540525 
L 307.691287 69.442125 
L 311.004089 67.224525 
L 314.31689 74.986125 
L 317.629692 79.421325 
L 320.942493 64.452525 
L 324.255295 73.877325 
L 327.568096 76.649325 
L 330.880897 74.431725 
L 334.193699 73.877325 
L 337.5065 62.234925 
L 340.819302 82.747725 
L 344.132103 89.954925 
L 347.444905 68.333325 
L 350.757706 75.540525 
L 354.070508 69.996525 
L 357.383309 62.234925 
L 360.696111 67.224525 
L 364.008912 78.312525 
L 367.321714 72.768525 
L 370.634515 69.442125 
L 373.947317 94.944525 
L 377.260118 84.410925 
L 380.57292 85.519725 
L 383.885721 70.550925 
L 387.198523 61.126125 
" style="fill:none;stroke:#9467bd;stroke-linecap:round;stroke-width:1.5;"/>
   </g>
   <g id="line2d_19"/>
   <g id="line2d_20"/>
   <g id="line2d_21"/>
   <g id="line2d_22"/>
   <g id="line2d_23"/>
   <g id="line2d_24"/>
   <g id="patch_3">
    <path d="M 46.31125 288.430125 
L 46.31125 22.318125 
" style="fill:none;stroke:#ffffff;stroke-linecap:square;stroke-linejoin:miter;stroke-width:1.25;"/>
   </g>
   <g id="patch_4">
    <path d="M 403.43125 288.430125 
L 403.43125 22.318125 
" style="fill:none;stroke:#ffffff;stroke-linecap:square;stroke-linejoin:miter;stroke-width:1.25;"/>
   </g>
   <g id="patch_5">
    <path d="M 46.31125 288.430125 
L 403.43125 288.430125 
" style="fill:none;stroke:#ffffff;stroke-linecap:square;stroke-linejoin:miter;stroke-width:1.25;"/>
   </g>
   <g id="patch_6">
    <path d="M 46.31125 22.318125 
L 403.43125 22.318125 
" style="fill:none;stroke:#ffffff;stroke-linecap:square;stroke-linejoin:miter;stroke-width:1.25;"/>
   </g>
   <g id="text_16">
    <!-- Max Rank=32 -->
    <defs>
     <path d="M 54.890625 54.6875 
L 35.109375 28.078125 
L 55.90625 0 
L 45.3125 0 
L 29.390625 21.484375 
L 13.484375 0 
L 2.875 0 
L 24.125 28.609375 
L 4.6875 54.6875 
L 15.28125 54.6875 
L 29.78125 35.203125 
L 44.28125 54.6875 
z
" id="DejaVuSans-120"/>
     <path d="M 10.59375 45.40625 
L 73.1875 45.40625 
L 73.1875 37.203125 
L 10.59375 37.203125 
z
M 10.59375 25.484375 
L 73.1875 25.484375 
L 73.1875 17.1875 
L 10.59375 17.1875 
z
" id="DejaVuSans-61"/>
    </defs>
    <g style="fill:#262626;" transform="translate(182.775625 16.318125)scale(0.12 -0.12)">
     <use xlink:href="#DejaVuSans-77"/>
     <use x="86.279297" xlink:href="#DejaVuSans-97"/>
     <use x="147.558594" xlink:href="#DejaVuSans-120"/>
     <use x="206.738281" xlink:href="#DejaVuSans-32"/>
     <use x="238.525391" xlink:href="#DejaVuSans-82"/>
     <use x="307.976562" xlink:href="#DejaVuSans-97"/>
     <use x="369.255859" xlink:href="#DejaVuSans-110"/>
     <use x="432.634766" xlink:href="#DejaVuSans-107"/>
     <use x="490.544922" xlink:href="#DejaVuSans-61"/>
     <use x="574.333984" xlink:href="#DejaVuSans-51"/>
     <use x="637.957031" xlink:href="#DejaVuSans-50"/>
    </g>
   </g>
   <g id="legend_1">
    <g id="patch_7">
     <path d="M 219.994219 197.388969 
L 395.73125 197.388969 
Q 397.93125 197.388969 397.93125 195.188969 
L 397.93125 115.559281 
Q 397.93125 113.359281 395.73125 113.359281 
L 219.994219 113.359281 
Q 217.794219 113.359281 217.794219 115.559281 
L 217.794219 195.188969 
Q 217.794219 197.388969 219.994219 197.388969 
z
" style="fill:#eaeaf2;opacity:0.8;stroke:#cccccc;stroke-linejoin:miter;"/>
    </g>
    <g id="line2d_25">
     <path d="M 222.194219 122.267562 
L 244.194219 122.267562 
" style="fill:none;stroke:#1f77b4;stroke-linecap:round;stroke-width:1.5;"/>
    </g>
    <g id="line2d_26"/>
    <g id="text_17">
     <!-- Output Layer -->
     <defs>
      <path d="M 39.40625 66.21875 
Q 28.65625 66.21875 22.328125 58.203125 
Q 16.015625 50.203125 16.015625 36.375 
Q 16.015625 22.609375 22.328125 14.59375 
Q 28.65625 6.59375 39.40625 6.59375 
Q 50.140625 6.59375 56.421875 14.59375 
Q 62.703125 22.609375 62.703125 36.375 
Q 62.703125 50.203125 56.421875 58.203125 
Q 50.140625 66.21875 39.40625 66.21875 
z
M 39.40625 74.21875 
Q 54.734375 74.21875 63.90625 63.9375 
Q 73.09375 53.65625 73.09375 36.375 
Q 73.09375 19.140625 63.90625 8.859375 
Q 54.734375 -1.421875 39.40625 -1.421875 
Q 24.03125 -1.421875 14.8125 8.828125 
Q 5.609375 19.09375 5.609375 36.375 
Q 5.609375 53.65625 14.8125 63.9375 
Q 24.03125 74.21875 39.40625 74.21875 
z
" id="DejaVuSans-79"/>
      <path d="M 8.5 21.578125 
L 8.5 54.6875 
L 17.484375 54.6875 
L 17.484375 21.921875 
Q 17.484375 14.15625 20.5 10.265625 
Q 23.53125 6.390625 29.59375 6.390625 
Q 36.859375 6.390625 41.078125 11.03125 
Q 45.3125 15.671875 45.3125 23.6875 
L 45.3125 54.6875 
L 54.296875 54.6875 
L 54.296875 0 
L 45.3125 0 
L 45.3125 8.40625 
Q 42.046875 3.421875 37.71875 1 
Q 33.40625 -1.421875 27.6875 -1.421875 
Q 18.265625 -1.421875 13.375 4.4375 
Q 8.5 10.296875 8.5 21.578125 
z
M 31.109375 56 
z
" id="DejaVuSans-117"/>
      <path d="M 9.8125 72.90625 
L 19.671875 72.90625 
L 19.671875 8.296875 
L 55.171875 8.296875 
L 55.171875 0 
L 9.8125 0 
z
" id="DejaVuSans-76"/>
      <path d="M 32.171875 -5.078125 
Q 28.375 -14.84375 24.75 -17.8125 
Q 21.140625 -20.796875 15.09375 -20.796875 
L 7.90625 -20.796875 
L 7.90625 -13.28125 
L 13.1875 -13.28125 
Q 16.890625 -13.28125 18.9375 -11.515625 
Q 21 -9.765625 23.484375 -3.21875 
L 25.09375 0.875 
L 2.984375 54.6875 
L 12.5 54.6875 
L 29.59375 11.921875 
L 46.6875 54.6875 
L 56.203125 54.6875 
z
" id="DejaVuSans-121"/>
     </defs>
     <g style="fill:#262626;" transform="translate(252.994219 126.117562)scale(0.11 -0.11)">
      <use xlink:href="#DejaVuSans-79"/>
      <use x="78.710938" xlink:href="#DejaVuSans-117"/>
      <use x="142.089844" xlink:href="#DejaVuSans-116"/>
      <use x="181.298828" xlink:href="#DejaVuSans-112"/>
      <use x="244.775391" xlink:href="#DejaVuSans-117"/>
      <use x="308.154297" xlink:href="#DejaVuSans-116"/>
      <use x="347.363281" xlink:href="#DejaVuSans-32"/>
      <use x="379.150391" xlink:href="#DejaVuSans-76"/>
      <use x="434.863281" xlink:href="#DejaVuSans-97"/>
      <use x="496.142578" xlink:href="#DejaVuSans-121"/>
      <use x="555.322266" xlink:href="#DejaVuSans-101"/>
      <use x="616.845703" xlink:href="#DejaVuSans-114"/>
     </g>
    </g>
    <g id="line2d_27">
     <path d="M 222.194219 138.4135 
L 244.194219 138.4135 
" style="fill:none;stroke:#ff7f0e;stroke-linecap:round;stroke-width:1.5;"/>
    </g>
    <g id="line2d_28"/>
    <g id="text_18">
     <!-- 2nd FC - 512x256 -->
     <defs>
      <path d="M 45.40625 46.390625 
L 45.40625 75.984375 
L 54.390625 75.984375 
L 54.390625 0 
L 45.40625 0 
L 45.40625 8.203125 
Q 42.578125 3.328125 38.25 0.953125 
Q 33.9375 -1.421875 27.875 -1.421875 
Q 17.96875 -1.421875 11.734375 6.484375 
Q 5.515625 14.40625 5.515625 27.296875 
Q 5.515625 40.1875 11.734375 48.09375 
Q 17.96875 56 27.875 56 
Q 33.9375 56 38.25 53.625 
Q 42.578125 51.265625 45.40625 46.390625 
z
M 14.796875 27.296875 
Q 14.796875 17.390625 18.875 11.75 
Q 22.953125 6.109375 30.078125 6.109375 
Q 37.203125 6.109375 41.296875 11.75 
Q 45.40625 17.390625 45.40625 27.296875 
Q 45.40625 37.203125 41.296875 42.84375 
Q 37.203125 48.484375 30.078125 48.484375 
Q 22.953125 48.484375 18.875 42.84375 
Q 14.796875 37.203125 14.796875 27.296875 
z
" id="DejaVuSans-100"/>
      <path d="M 9.8125 72.90625 
L 51.703125 72.90625 
L 51.703125 64.59375 
L 19.671875 64.59375 
L 19.671875 43.109375 
L 48.578125 43.109375 
L 48.578125 34.8125 
L 19.671875 34.8125 
L 19.671875 0 
L 9.8125 0 
z
" id="DejaVuSans-70"/>
      <path d="M 64.40625 67.28125 
L 64.40625 56.890625 
Q 59.421875 61.53125 53.78125 63.8125 
Q 48.140625 66.109375 41.796875 66.109375 
Q 29.296875 66.109375 22.65625 58.46875 
Q 16.015625 50.828125 16.015625 36.375 
Q 16.015625 21.96875 22.65625 14.328125 
Q 29.296875 6.6875 41.796875 6.6875 
Q 48.140625 6.6875 53.78125 8.984375 
Q 59.421875 11.28125 64.40625 15.921875 
L 64.40625 5.609375 
Q 59.234375 2.09375 53.4375 0.328125 
Q 47.65625 -1.421875 41.21875 -1.421875 
Q 24.65625 -1.421875 15.125 8.703125 
Q 5.609375 18.84375 5.609375 36.375 
Q 5.609375 53.953125 15.125 64.078125 
Q 24.65625 74.21875 41.21875 74.21875 
Q 47.75 74.21875 53.53125 72.484375 
Q 59.328125 70.75 64.40625 67.28125 
z
" id="DejaVuSans-67"/>
     </defs>
     <g style="fill:#262626;" transform="translate(252.994219 142.2635)scale(0.11 -0.11)">
      <use xlink:href="#DejaVuSans-50"/>
      <use x="63.623047" xlink:href="#DejaVuSans-110"/>
      <use x="127.001953" xlink:href="#DejaVuSans-100"/>
      <use x="190.478516" xlink:href="#DejaVuSans-32"/>
      <use x="222.265625" xlink:href="#DejaVuSans-70"/>
      <use x="279.785156" xlink:href="#DejaVuSans-67"/>
      <use x="349.609375" xlink:href="#DejaVuSans-32"/>
      <use x="381.396484" xlink:href="#DejaVuSans-45"/>
      <use x="417.480469" xlink:href="#DejaVuSans-32"/>
      <use x="449.267578" xlink:href="#DejaVuSans-53"/>
      <use x="512.890625" xlink:href="#DejaVuSans-49"/>
      <use x="576.513672" xlink:href="#DejaVuSans-50"/>
      <use x="640.136719" xlink:href="#DejaVuSans-120"/>
      <use x="699.316406" xlink:href="#DejaVuSans-50"/>
      <use x="762.939453" xlink:href="#DejaVuSans-53"/>
      <use x="826.5625" xlink:href="#DejaVuSans-54"/>
     </g>
    </g>
    <g id="line2d_29">
     <path d="M 222.194219 154.559437 
L 244.194219 154.559437 
" style="fill:none;stroke:#2ca02c;stroke-linecap:round;stroke-width:1.5;"/>
    </g>
    <g id="line2d_30"/>
    <g id="text_19">
     <!-- 1st FC - SEQ*64 x 512 -->
     <defs>
      <path d="M 53.515625 70.515625 
L 53.515625 60.890625 
Q 47.90625 63.578125 42.921875 64.890625 
Q 37.9375 66.21875 33.296875 66.21875 
Q 25.25 66.21875 20.875 63.09375 
Q 16.5 59.96875 16.5 54.203125 
Q 16.5 49.359375 19.40625 46.890625 
Q 22.3125 44.4375 30.421875 42.921875 
L 36.375 41.703125 
Q 47.40625 39.59375 52.65625 34.296875 
Q 57.90625 29 57.90625 20.125 
Q 57.90625 9.515625 50.796875 4.046875 
Q 43.703125 -1.421875 29.984375 -1.421875 
Q 24.8125 -1.421875 18.96875 -0.25 
Q 13.140625 0.921875 6.890625 3.21875 
L 6.890625 13.375 
Q 12.890625 10.015625 18.65625 8.296875 
Q 24.421875 6.59375 29.984375 6.59375 
Q 38.421875 6.59375 43.015625 9.90625 
Q 47.609375 13.234375 47.609375 19.390625 
Q 47.609375 24.75 44.3125 27.78125 
Q 41.015625 30.8125 33.5 32.328125 
L 27.484375 33.5 
Q 16.453125 35.6875 11.515625 40.375 
Q 6.59375 45.0625 6.59375 53.421875 
Q 6.59375 63.09375 13.40625 68.65625 
Q 20.21875 74.21875 32.171875 74.21875 
Q 37.3125 74.21875 42.625 73.28125 
Q 47.953125 72.359375 53.515625 70.515625 
z
" id="DejaVuSans-83"/>
      <path d="M 39.40625 66.21875 
Q 28.65625 66.21875 22.328125 58.203125 
Q 16.015625 50.203125 16.015625 36.375 
Q 16.015625 22.609375 22.328125 14.59375 
Q 28.65625 6.59375 39.40625 6.59375 
Q 50.140625 6.59375 56.421875 14.59375 
Q 62.703125 22.609375 62.703125 36.375 
Q 62.703125 50.203125 56.421875 58.203125 
Q 50.140625 66.21875 39.40625 66.21875 
z
M 53.21875 1.3125 
L 66.21875 -12.890625 
L 54.296875 -12.890625 
L 43.5 -1.21875 
Q 41.890625 -1.3125 41.03125 -1.359375 
Q 40.1875 -1.421875 39.40625 -1.421875 
Q 24.03125 -1.421875 14.8125 8.859375 
Q 5.609375 19.140625 5.609375 36.375 
Q 5.609375 53.65625 14.8125 63.9375 
Q 24.03125 74.21875 39.40625 74.21875 
Q 54.734375 74.21875 63.90625 63.9375 
Q 73.09375 53.65625 73.09375 36.375 
Q 73.09375 23.6875 67.984375 14.640625 
Q 62.890625 5.609375 53.21875 1.3125 
z
" id="DejaVuSans-81"/>
      <path d="M 47.015625 60.890625 
L 29.5 51.421875 
L 47.015625 41.890625 
L 44.1875 37.109375 
L 27.78125 47.015625 
L 27.78125 28.609375 
L 22.21875 28.609375 
L 22.21875 47.015625 
L 5.8125 37.109375 
L 2.984375 41.890625 
L 20.515625 51.421875 
L 2.984375 60.890625 
L 5.8125 65.71875 
L 22.21875 55.8125 
L 22.21875 74.21875 
L 27.78125 74.21875 
L 27.78125 55.8125 
L 44.1875 65.71875 
z
" id="DejaVuSans-42"/>
     </defs>
     <g style="fill:#262626;" transform="translate(252.994219 158.409437)scale(0.11 -0.11)">
      <use xlink:href="#DejaVuSans-49"/>
      <use x="63.623047" xlink:href="#DejaVuSans-115"/>
      <use x="115.722656" xlink:href="#DejaVuSans-116"/>
      <use x="154.931641" xlink:href="#DejaVuSans-32"/>
      <use x="186.71875" xlink:href="#DejaVuSans-70"/>
      <use x="244.238281" xlink:href="#DejaVuSans-67"/>
      <use x="314.0625" xlink:href="#DejaVuSans-32"/>
      <use x="345.849609" xlink:href="#DejaVuSans-45"/>
      <use x="381.933594" xlink:href="#DejaVuSans-32"/>
      <use x="413.720703" xlink:href="#DejaVuSans-83"/>
      <use x="477.197266" xlink:href="#DejaVuSans-69"/>
      <use x="540.380859" xlink:href="#DejaVuSans-81"/>
      <use x="619.091797" xlink:href="#DejaVuSans-42"/>
      <use x="669.091797" xlink:href="#DejaVuSans-54"/>
      <use x="732.714844" xlink:href="#DejaVuSans-52"/>
      <use x="796.337891" xlink:href="#DejaVuSans-32"/>
      <use x="828.125" xlink:href="#DejaVuSans-120"/>
      <use x="887.304688" xlink:href="#DejaVuSans-32"/>
      <use x="919.091797" xlink:href="#DejaVuSans-53"/>
      <use x="982.714844" xlink:href="#DejaVuSans-49"/>
      <use x="1046.337891" xlink:href="#DejaVuSans-50"/>
     </g>
    </g>
    <g id="line2d_31">
     <path d="M 222.194219 170.705375 
L 244.194219 170.705375 
" style="fill:none;stroke:#d62728;stroke-linecap:round;stroke-width:1.5;"/>
    </g>
    <g id="line2d_32"/>
    <g id="text_20">
     <!-- Reccurent Layer (dim 64) -->
     <defs>
      <path d="M 31 75.875 
Q 24.46875 64.65625 21.28125 53.65625 
Q 18.109375 42.671875 18.109375 31.390625 
Q 18.109375 20.125 21.3125 9.0625 
Q 24.515625 -2 31 -13.1875 
L 23.1875 -13.1875 
Q 15.875 -1.703125 12.234375 9.375 
Q 8.59375 20.453125 8.59375 31.390625 
Q 8.59375 42.28125 12.203125 53.3125 
Q 15.828125 64.359375 23.1875 75.875 
z
" id="DejaVuSans-40"/>
      <path d="M 52 44.1875 
Q 55.375 50.25 60.0625 53.125 
Q 64.75 56 71.09375 56 
Q 79.640625 56 84.28125 50.015625 
Q 88.921875 44.046875 88.921875 33.015625 
L 88.921875 0 
L 79.890625 0 
L 79.890625 32.71875 
Q 79.890625 40.578125 77.09375 44.375 
Q 74.3125 48.1875 68.609375 48.1875 
Q 61.625 48.1875 57.5625 43.546875 
Q 53.515625 38.921875 53.515625 30.90625 
L 53.515625 0 
L 44.484375 0 
L 44.484375 32.71875 
Q 44.484375 40.625 41.703125 44.40625 
Q 38.921875 48.1875 33.109375 48.1875 
Q 26.21875 48.1875 22.15625 43.53125 
Q 18.109375 38.875 18.109375 30.90625 
L 18.109375 0 
L 9.078125 0 
L 9.078125 54.6875 
L 18.109375 54.6875 
L 18.109375 46.1875 
Q 21.1875 51.21875 25.484375 53.609375 
Q 29.78125 56 35.6875 56 
Q 41.65625 56 45.828125 52.96875 
Q 50 49.953125 52 44.1875 
z
" id="DejaVuSans-109"/>
      <path d="M 8.015625 75.875 
L 15.828125 75.875 
Q 23.140625 64.359375 26.78125 53.3125 
Q 30.421875 42.28125 30.421875 31.390625 
Q 30.421875 20.453125 26.78125 9.375 
Q 23.140625 -1.703125 15.828125 -13.1875 
L 8.015625 -13.1875 
Q 14.5 -2 17.703125 9.0625 
Q 20.90625 20.125 20.90625 31.390625 
Q 20.90625 42.671875 17.703125 53.65625 
Q 14.5 64.65625 8.015625 75.875 
z
" id="DejaVuSans-41"/>
     </defs>
     <g style="fill:#262626;" transform="translate(252.994219 174.555375)scale(0.11 -0.11)">
      <use xlink:href="#DejaVuSans-82"/>
      <use x="69.419922" xlink:href="#DejaVuSans-101"/>
      <use x="130.943359" xlink:href="#DejaVuSans-99"/>
      <use x="185.923828" xlink:href="#DejaVuSans-99"/>
      <use x="240.904297" xlink:href="#DejaVuSans-117"/>
      <use x="304.283203" xlink:href="#DejaVuSans-114"/>
      <use x="345.365234" xlink:href="#DejaVuSans-101"/>
      <use x="406.888672" xlink:href="#DejaVuSans-110"/>
      <use x="470.267578" xlink:href="#DejaVuSans-116"/>
      <use x="509.476562" xlink:href="#DejaVuSans-32"/>
      <use x="541.263672" xlink:href="#DejaVuSans-76"/>
      <use x="596.976562" xlink:href="#DejaVuSans-97"/>
      <use x="658.255859" xlink:href="#DejaVuSans-121"/>
      <use x="717.435547" xlink:href="#DejaVuSans-101"/>
      <use x="778.958984" xlink:href="#DejaVuSans-114"/>
      <use x="820.072266" xlink:href="#DejaVuSans-32"/>
      <use x="851.859375" xlink:href="#DejaVuSans-40"/>
      <use x="890.873047" xlink:href="#DejaVuSans-100"/>
      <use x="954.349609" xlink:href="#DejaVuSans-105"/>
      <use x="982.132812" xlink:href="#DejaVuSans-109"/>
      <use x="1079.544922" xlink:href="#DejaVuSans-32"/>
      <use x="1111.332031" xlink:href="#DejaVuSans-54"/>
      <use x="1174.955078" xlink:href="#DejaVuSans-52"/>
      <use x="1238.578125" xlink:href="#DejaVuSans-41"/>
     </g>
    </g>
    <g id="line2d_33">
     <path d="M 222.194219 186.851312 
L 244.194219 186.851312 
" style="fill:none;stroke:#9467bd;stroke-linecap:round;stroke-width:1.5;"/>
    </g>
    <g id="line2d_34"/>
    <g id="text_21">
     <!-- Input Layer -->
     <defs>
      <path d="M 9.8125 72.90625 
L 19.671875 72.90625 
L 19.671875 0 
L 9.8125 0 
z
" id="DejaVuSans-73"/>
     </defs>
     <g style="fill:#262626;" transform="translate(252.994219 190.701312)scale(0.11 -0.11)">
      <use xlink:href="#DejaVuSans-73"/>
      <use x="29.492188" xlink:href="#DejaVuSans-110"/>
      <use x="92.871094" xlink:href="#DejaVuSans-112"/>
      <use x="156.347656" xlink:href="#DejaVuSans-117"/>
      <use x="219.726562" xlink:href="#DejaVuSans-116"/>
      <use x="258.935547" xlink:href="#DejaVuSans-32"/>
      <use x="290.722656" xlink:href="#DejaVuSans-76"/>
      <use x="346.435547" xlink:href="#DejaVuSans-97"/>
      <use x="407.714844" xlink:href="#DejaVuSans-121"/>
      <use x="466.894531" xlink:href="#DejaVuSans-101"/>
      <use x="528.417969" xlink:href="#DejaVuSans-114"/>
     </g>
    </g>
   </g>
  </g>
 </g>
 <defs>
  <clipPath id="pf1347273e7">
   <rect height="266.112" width="357.12" x="46.31125" y="22.318125"/>
  </clipPath>
 </defs>
</svg>
