<?xml version="1.0" encoding="utf-8" standalone="no"?>
<!DOCTYPE svg PUBLIC "-//W3C//DTD SVG 1.1//EN"
  "http://www.w3.org/Graphics/SVG/1.1/DTD/svg11.dtd">
<!-- Created with matplotlib (https://matplotlib.org/) -->
<svg height="331.389812pt" version="1.1" viewBox="0 0 411.522251 331.389812" width="411.522251pt" xmlns="http://www.w3.org/2000/svg" xmlns:xlink="http://www.w3.org/1999/xlink">
 <defs>
  <style type="text/css">
*{stroke-linecap:butt;stroke-linejoin:round;}
  </style>
 </defs>
 <g id="figure_1">
  <g id="patch_1">
   <path d="M 0 331.389812 
L 411.522251 331.389812 
L 411.522251 0 
L 0 0 
z
" style="fill:#ffffff;"/>
  </g>
  <g id="axes_1">
   <g id="patch_2">
    <path d="M 46.31125 288.430125 
L 403.43125 288.430125 
L 403.43125 22.318125 
L 46.31125 22.318125 
z
" style="fill:#eaeaf2;"/>
   </g>
   <g id="matplotlib.axis_1">
    <g id="xtick_1">
     <g id="line2d_1">
      <path clip-path="url(#p80db6e34ec)" d="M 62.543977 288.430125 
L 62.543977 22.318125 
" style="fill:none;stroke:#ffffff;stroke-linecap:round;"/>
     </g>
     <g id="text_1">
      <!-- 0 -->
      <defs>
       <path d="M 31.78125 66.40625 
Q 24.171875 66.40625 20.328125 58.90625 
Q 16.5 51.421875 16.5 36.375 
Q 16.5 21.390625 20.328125 13.890625 
Q 24.171875 6.390625 31.78125 6.390625 
Q 39.453125 6.390625 43.28125 13.890625 
Q 47.125 21.390625 47.125 36.375 
Q 47.125 51.421875 43.28125 58.90625 
Q 39.453125 66.40625 31.78125 66.40625 
z
M 31.78125 74.21875 
Q 44.046875 74.21875 50.515625 64.515625 
Q 56.984375 54.828125 56.984375 36.375 
Q 56.984375 17.96875 50.515625 8.265625 
Q 44.046875 -1.421875 31.78125 -1.421875 
Q 19.53125 -1.421875 13.0625 8.265625 
Q 6.59375 17.96875 6.59375 36.375 
Q 6.59375 54.828125 13.0625 64.515625 
Q 19.53125 74.21875 31.78125 74.21875 
z
" id="DejaVuSans-48"/>
      </defs>
      <g style="fill:#262626;" transform="translate(59.044602 306.288406)scale(0.11 -0.11)">
       <use xlink:href="#DejaVuSans-48"/>
      </g>
     </g>
    </g>
    <g id="xtick_2">
     <g id="line2d_2">
      <path clip-path="url(#p80db6e34ec)" d="M 128.800007 288.430125 
L 128.800007 22.318125 
" style="fill:none;stroke:#ffffff;stroke-linecap:round;"/>
     </g>
     <g id="text_2">
      <!-- 20 -->
      <defs>
       <path d="M 19.1875 8.296875 
L 53.609375 8.296875 
L 53.609375 0 
L 7.328125 0 
L 7.328125 8.296875 
Q 12.9375 14.109375 22.625 23.890625 
Q 32.328125 33.6875 34.8125 36.53125 
Q 39.546875 41.84375 41.421875 45.53125 
Q 43.3125 49.21875 43.3125 52.78125 
Q 43.3125 58.59375 39.234375 62.25 
Q 35.15625 65.921875 28.609375 65.921875 
Q 23.96875 65.921875 18.8125 64.3125 
Q 13.671875 62.703125 7.8125 59.421875 
L 7.8125 69.390625 
Q 13.765625 71.78125 18.9375 73 
Q 24.125 74.21875 28.421875 74.21875 
Q 39.75 74.21875 46.484375 68.546875 
Q 53.21875 62.890625 53.21875 53.421875 
Q 53.21875 48.921875 51.53125 44.890625 
Q 49.859375 40.875 45.40625 35.40625 
Q 44.1875 33.984375 37.640625 27.21875 
Q 31.109375 20.453125 19.1875 8.296875 
z
" id="DejaVuSans-50"/>
      </defs>
      <g style="fill:#262626;" transform="translate(121.801257 306.288406)scale(0.11 -0.11)">
       <use xlink:href="#DejaVuSans-50"/>
       <use x="63.623047" xlink:href="#DejaVuSans-48"/>
      </g>
     </g>
    </g>
    <g id="xtick_3">
     <g id="line2d_3">
      <path clip-path="url(#p80db6e34ec)" d="M 195.056037 288.430125 
L 195.056037 22.318125 
" style="fill:none;stroke:#ffffff;stroke-linecap:round;"/>
     </g>
     <g id="text_3">
      <!-- 40 -->
      <defs>
       <path d="M 37.796875 64.3125 
L 12.890625 25.390625 
L 37.796875 25.390625 
z
M 35.203125 72.90625 
L 47.609375 72.90625 
L 47.609375 25.390625 
L 58.015625 25.390625 
L 58.015625 17.1875 
L 47.609375 17.1875 
L 47.609375 0 
L 37.796875 0 
L 37.796875 17.1875 
L 4.890625 17.1875 
L 4.890625 26.703125 
z
" id="DejaVuSans-52"/>
      </defs>
      <g style="fill:#262626;" transform="translate(188.057287 306.288406)scale(0.11 -0.11)">
       <use xlink:href="#DejaVuSans-52"/>
       <use x="63.623047" xlink:href="#DejaVuSans-48"/>
      </g>
     </g>
    </g>
    <g id="xtick_4">
     <g id="line2d_4">
      <path clip-path="url(#p80db6e34ec)" d="M 261.312066 288.430125 
L 261.312066 22.318125 
" style="fill:none;stroke:#ffffff;stroke-linecap:round;"/>
     </g>
     <g id="text_4">
      <!-- 60 -->
      <defs>
       <path d="M 33.015625 40.375 
Q 26.375 40.375 22.484375 35.828125 
Q 18.609375 31.296875 18.609375 23.390625 
Q 18.609375 15.53125 22.484375 10.953125 
Q 26.375 6.390625 33.015625 6.390625 
Q 39.65625 6.390625 43.53125 10.953125 
Q 47.40625 15.53125 47.40625 23.390625 
Q 47.40625 31.296875 43.53125 35.828125 
Q 39.65625 40.375 33.015625 40.375 
z
M 52.59375 71.296875 
L 52.59375 62.3125 
Q 48.875 64.0625 45.09375 64.984375 
Q 41.3125 65.921875 37.59375 65.921875 
Q 27.828125 65.921875 22.671875 59.328125 
Q 17.53125 52.734375 16.796875 39.40625 
Q 19.671875 43.65625 24.015625 45.921875 
Q 28.375 48.1875 33.59375 48.1875 
Q 44.578125 48.1875 50.953125 41.515625 
Q 57.328125 34.859375 57.328125 23.390625 
Q 57.328125 12.15625 50.6875 5.359375 
Q 44.046875 -1.421875 33.015625 -1.421875 
Q 20.359375 -1.421875 13.671875 8.265625 
Q 6.984375 17.96875 6.984375 36.375 
Q 6.984375 53.65625 15.1875 63.9375 
Q 23.390625 74.21875 37.203125 74.21875 
Q 40.921875 74.21875 44.703125 73.484375 
Q 48.484375 72.75 52.59375 71.296875 
z
" id="DejaVuSans-54"/>
      </defs>
      <g style="fill:#262626;" transform="translate(254.313316 306.288406)scale(0.11 -0.11)">
       <use xlink:href="#DejaVuSans-54"/>
       <use x="63.623047" xlink:href="#DejaVuSans-48"/>
      </g>
     </g>
    </g>
    <g id="xtick_5">
     <g id="line2d_5">
      <path clip-path="url(#p80db6e34ec)" d="M 327.568096 288.430125 
L 327.568096 22.318125 
" style="fill:none;stroke:#ffffff;stroke-linecap:round;"/>
     </g>
     <g id="text_5">
      <!-- 80 -->
      <defs>
       <path d="M 31.78125 34.625 
Q 24.75 34.625 20.71875 30.859375 
Q 16.703125 27.09375 16.703125 20.515625 
Q 16.703125 13.921875 20.71875 10.15625 
Q 24.75 6.390625 31.78125 6.390625 
Q 38.8125 6.390625 42.859375 10.171875 
Q 46.921875 13.96875 46.921875 20.515625 
Q 46.921875 27.09375 42.890625 30.859375 
Q 38.875 34.625 31.78125 34.625 
z
M 21.921875 38.8125 
Q 15.578125 40.375 12.03125 44.71875 
Q 8.5 49.078125 8.5 55.328125 
Q 8.5 64.0625 14.71875 69.140625 
Q 20.953125 74.21875 31.78125 74.21875 
Q 42.671875 74.21875 48.875 69.140625 
Q 55.078125 64.0625 55.078125 55.328125 
Q 55.078125 49.078125 51.53125 44.71875 
Q 48 40.375 41.703125 38.8125 
Q 48.828125 37.15625 52.796875 32.3125 
Q 56.78125 27.484375 56.78125 20.515625 
Q 56.78125 9.90625 50.3125 4.234375 
Q 43.84375 -1.421875 31.78125 -1.421875 
Q 19.734375 -1.421875 13.25 4.234375 
Q 6.78125 9.90625 6.78125 20.515625 
Q 6.78125 27.484375 10.78125 32.3125 
Q 14.796875 37.15625 21.921875 38.8125 
z
M 18.3125 54.390625 
Q 18.3125 48.734375 21.84375 45.5625 
Q 25.390625 42.390625 31.78125 42.390625 
Q 38.140625 42.390625 41.71875 45.5625 
Q 45.3125 48.734375 45.3125 54.390625 
Q 45.3125 60.0625 41.71875 63.234375 
Q 38.140625 66.40625 31.78125 66.40625 
Q 25.390625 66.40625 21.84375 63.234375 
Q 18.3125 60.0625 18.3125 54.390625 
z
" id="DejaVuSans-56"/>
      </defs>
      <g style="fill:#262626;" transform="translate(320.569346 306.288406)scale(0.11 -0.11)">
       <use xlink:href="#DejaVuSans-56"/>
       <use x="63.623047" xlink:href="#DejaVuSans-48"/>
      </g>
     </g>
    </g>
    <g id="xtick_6">
     <g id="line2d_6">
      <path clip-path="url(#p80db6e34ec)" d="M 393.824126 288.430125 
L 393.824126 22.318125 
" style="fill:none;stroke:#ffffff;stroke-linecap:round;"/>
     </g>
     <g id="text_6">
      <!-- 100 -->
      <defs>
       <path d="M 12.40625 8.296875 
L 28.515625 8.296875 
L 28.515625 63.921875 
L 10.984375 60.40625 
L 10.984375 69.390625 
L 28.421875 72.90625 
L 38.28125 72.90625 
L 38.28125 8.296875 
L 54.390625 8.296875 
L 54.390625 0 
L 12.40625 0 
z
" id="DejaVuSans-49"/>
      </defs>
      <g style="fill:#262626;" transform="translate(383.326001 306.288406)scale(0.11 -0.11)">
       <use xlink:href="#DejaVuSans-49"/>
       <use x="63.623047" xlink:href="#DejaVuSans-48"/>
       <use x="127.246094" xlink:href="#DejaVuSans-48"/>
      </g>
     </g>
    </g>
    <g id="text_7">
     <!-- epoch -->
     <defs>
      <path d="M 56.203125 29.59375 
L 56.203125 25.203125 
L 14.890625 25.203125 
Q 15.484375 15.921875 20.484375 11.0625 
Q 25.484375 6.203125 34.421875 6.203125 
Q 39.59375 6.203125 44.453125 7.46875 
Q 49.3125 8.734375 54.109375 11.28125 
L 54.109375 2.78125 
Q 49.265625 0.734375 44.1875 -0.34375 
Q 39.109375 -1.421875 33.890625 -1.421875 
Q 20.796875 -1.421875 13.15625 6.1875 
Q 5.515625 13.8125 5.515625 26.8125 
Q 5.515625 40.234375 12.765625 48.109375 
Q 20.015625 56 32.328125 56 
Q 43.359375 56 49.78125 48.890625 
Q 56.203125 41.796875 56.203125 29.59375 
z
M 47.21875 32.234375 
Q 47.125 39.59375 43.09375 43.984375 
Q 39.0625 48.390625 32.421875 48.390625 
Q 24.90625 48.390625 20.390625 44.140625 
Q 15.875 39.890625 15.1875 32.171875 
z
" id="DejaVuSans-101"/>
      <path d="M 18.109375 8.203125 
L 18.109375 -20.796875 
L 9.078125 -20.796875 
L 9.078125 54.6875 
L 18.109375 54.6875 
L 18.109375 46.390625 
Q 20.953125 51.265625 25.265625 53.625 
Q 29.59375 56 35.59375 56 
Q 45.5625 56 51.78125 48.09375 
Q 58.015625 40.1875 58.015625 27.296875 
Q 58.015625 14.40625 51.78125 6.484375 
Q 45.5625 -1.421875 35.59375 -1.421875 
Q 29.59375 -1.421875 25.265625 0.953125 
Q 20.953125 3.328125 18.109375 8.203125 
z
M 48.6875 27.296875 
Q 48.6875 37.203125 44.609375 42.84375 
Q 40.53125 48.484375 33.40625 48.484375 
Q 26.265625 48.484375 22.1875 42.84375 
Q 18.109375 37.203125 18.109375 27.296875 
Q 18.109375 17.390625 22.1875 11.75 
Q 26.265625 6.109375 33.40625 6.109375 
Q 40.53125 6.109375 44.609375 11.75 
Q 48.6875 17.390625 48.6875 27.296875 
z
" id="DejaVuSans-112"/>
      <path d="M 30.609375 48.390625 
Q 23.390625 48.390625 19.1875 42.75 
Q 14.984375 37.109375 14.984375 27.296875 
Q 14.984375 17.484375 19.15625 11.84375 
Q 23.34375 6.203125 30.609375 6.203125 
Q 37.796875 6.203125 41.984375 11.859375 
Q 46.1875 17.53125 46.1875 27.296875 
Q 46.1875 37.015625 41.984375 42.703125 
Q 37.796875 48.390625 30.609375 48.390625 
z
M 30.609375 56 
Q 42.328125 56 49.015625 48.375 
Q 55.71875 40.765625 55.71875 27.296875 
Q 55.71875 13.875 49.015625 6.21875 
Q 42.328125 -1.421875 30.609375 -1.421875 
Q 18.84375 -1.421875 12.171875 6.21875 
Q 5.515625 13.875 5.515625 27.296875 
Q 5.515625 40.765625 12.171875 48.375 
Q 18.84375 56 30.609375 56 
z
" id="DejaVuSans-111"/>
      <path d="M 48.78125 52.59375 
L 48.78125 44.1875 
Q 44.96875 46.296875 41.140625 47.34375 
Q 37.3125 48.390625 33.40625 48.390625 
Q 24.65625 48.390625 19.8125 42.84375 
Q 14.984375 37.3125 14.984375 27.296875 
Q 14.984375 17.28125 19.8125 11.734375 
Q 24.65625 6.203125 33.40625 6.203125 
Q 37.3125 6.203125 41.140625 7.25 
Q 44.96875 8.296875 48.78125 10.40625 
L 48.78125 2.09375 
Q 45.015625 0.34375 40.984375 -0.53125 
Q 36.96875 -1.421875 32.421875 -1.421875 
Q 20.0625 -1.421875 12.78125 6.34375 
Q 5.515625 14.109375 5.515625 27.296875 
Q 5.515625 40.671875 12.859375 48.328125 
Q 20.21875 56 33.015625 56 
Q 37.15625 56 41.109375 55.140625 
Q 45.0625 54.296875 48.78125 52.59375 
z
" id="DejaVuSans-99"/>
      <path d="M 54.890625 33.015625 
L 54.890625 0 
L 45.90625 0 
L 45.90625 32.71875 
Q 45.90625 40.484375 42.875 44.328125 
Q 39.84375 48.1875 33.796875 48.1875 
Q 26.515625 48.1875 22.3125 43.546875 
Q 18.109375 38.921875 18.109375 30.90625 
L 18.109375 0 
L 9.078125 0 
L 9.078125 75.984375 
L 18.109375 75.984375 
L 18.109375 46.1875 
Q 21.34375 51.125 25.703125 53.5625 
Q 30.078125 56 35.796875 56 
Q 45.21875 56 50.046875 50.171875 
Q 54.890625 44.34375 54.890625 33.015625 
z
" id="DejaVuSans-104"/>
     </defs>
     <g style="fill:#262626;" transform="translate(206.5975 321.694187)scale(0.12 -0.12)">
      <use xlink:href="#DejaVuSans-101"/>
      <use x="61.523438" xlink:href="#DejaVuSans-112"/>
      <use x="125" xlink:href="#DejaVuSans-111"/>
      <use x="186.181641" xlink:href="#DejaVuSans-99"/>
      <use x="241.162109" xlink:href="#DejaVuSans-104"/>
     </g>
    </g>
   </g>
   <g id="matplotlib.axis_2">
    <g id="ytick_1">
     <g id="line2d_7">
      <path clip-path="url(#p80db6e34ec)" d="M 46.31125 288.430125 
L 403.43125 288.430125 
" style="fill:none;stroke:#ffffff;stroke-linecap:round;"/>
     </g>
     <g id="text_8">
      <!-- 0 -->
      <g style="fill:#262626;" transform="translate(29.8125 292.609266)scale(0.11 -0.11)">
       <use xlink:href="#DejaVuSans-48"/>
      </g>
     </g>
    </g>
    <g id="ytick_2">
     <g id="line2d_8">
      <path clip-path="url(#p80db6e34ec)" d="M 46.31125 246.850125 
L 403.43125 246.850125 
" style="fill:none;stroke:#ffffff;stroke-linecap:round;"/>
     </g>
     <g id="text_9">
      <!-- 5 -->
      <defs>
       <path d="M 10.796875 72.90625 
L 49.515625 72.90625 
L 49.515625 64.59375 
L 19.828125 64.59375 
L 19.828125 46.734375 
Q 21.96875 47.46875 24.109375 47.828125 
Q 26.265625 48.1875 28.421875 48.1875 
Q 40.625 48.1875 47.75 41.5 
Q 54.890625 34.8125 54.890625 23.390625 
Q 54.890625 11.625 47.5625 5.09375 
Q 40.234375 -1.421875 26.90625 -1.421875 
Q 22.3125 -1.421875 17.546875 -0.640625 
Q 12.796875 0.140625 7.71875 1.703125 
L 7.71875 11.625 
Q 12.109375 9.234375 16.796875 8.0625 
Q 21.484375 6.890625 26.703125 6.890625 
Q 35.15625 6.890625 40.078125 11.328125 
Q 45.015625 15.765625 45.015625 23.390625 
Q 45.015625 31 40.078125 35.4375 
Q 35.15625 39.890625 26.703125 39.890625 
Q 22.75 39.890625 18.8125 39.015625 
Q 14.890625 38.140625 10.796875 36.28125 
z
" id="DejaVuSans-53"/>
      </defs>
      <g style="fill:#262626;" transform="translate(29.8125 251.029266)scale(0.11 -0.11)">
       <use xlink:href="#DejaVuSans-53"/>
      </g>
     </g>
    </g>
    <g id="ytick_3">
     <g id="line2d_9">
      <path clip-path="url(#p80db6e34ec)" d="M 46.31125 205.270125 
L 403.43125 205.270125 
" style="fill:none;stroke:#ffffff;stroke-linecap:round;"/>
     </g>
     <g id="text_10">
      <!-- 10 -->
      <g style="fill:#262626;" transform="translate(22.81375 209.449266)scale(0.11 -0.11)">
       <use xlink:href="#DejaVuSans-49"/>
       <use x="63.623047" xlink:href="#DejaVuSans-48"/>
      </g>
     </g>
    </g>
    <g id="ytick_4">
     <g id="line2d_10">
      <path clip-path="url(#p80db6e34ec)" d="M 46.31125 163.690125 
L 403.43125 163.690125 
" style="fill:none;stroke:#ffffff;stroke-linecap:round;"/>
     </g>
     <g id="text_11">
      <!-- 15 -->
      <g style="fill:#262626;" transform="translate(22.81375 167.869266)scale(0.11 -0.11)">
       <use xlink:href="#DejaVuSans-49"/>
       <use x="63.623047" xlink:href="#DejaVuSans-53"/>
      </g>
     </g>
    </g>
    <g id="ytick_5">
     <g id="line2d_11">
      <path clip-path="url(#p80db6e34ec)" d="M 46.31125 122.110125 
L 403.43125 122.110125 
" style="fill:none;stroke:#ffffff;stroke-linecap:round;"/>
     </g>
     <g id="text_12">
      <!-- 20 -->
      <g style="fill:#262626;" transform="translate(22.81375 126.289266)scale(0.11 -0.11)">
       <use xlink:href="#DejaVuSans-50"/>
       <use x="63.623047" xlink:href="#DejaVuSans-48"/>
      </g>
     </g>
    </g>
    <g id="ytick_6">
     <g id="line2d_12">
      <path clip-path="url(#p80db6e34ec)" d="M 46.31125 80.530125 
L 403.43125 80.530125 
" style="fill:none;stroke:#ffffff;stroke-linecap:round;"/>
     </g>
     <g id="text_13">
      <!-- 25 -->
      <g style="fill:#262626;" transform="translate(22.81375 84.709266)scale(0.11 -0.11)">
       <use xlink:href="#DejaVuSans-50"/>
       <use x="63.623047" xlink:href="#DejaVuSans-53"/>
      </g>
     </g>
    </g>
    <g id="ytick_7">
     <g id="line2d_13">
      <path clip-path="url(#p80db6e34ec)" d="M 46.31125 38.950125 
L 403.43125 38.950125 
" style="fill:none;stroke:#ffffff;stroke-linecap:round;"/>
     </g>
     <g id="text_14">
      <!-- 30 -->
      <defs>
       <path d="M 40.578125 39.3125 
Q 47.65625 37.796875 51.625 33 
Q 55.609375 28.21875 55.609375 21.1875 
Q 55.609375 10.40625 48.1875 4.484375 
Q 40.765625 -1.421875 27.09375 -1.421875 
Q 22.515625 -1.421875 17.65625 -0.515625 
Q 12.796875 0.390625 7.625 2.203125 
L 7.625 11.71875 
Q 11.71875 9.328125 16.59375 8.109375 
Q 21.484375 6.890625 26.8125 6.890625 
Q 36.078125 6.890625 40.9375 10.546875 
Q 45.796875 14.203125 45.796875 21.1875 
Q 45.796875 27.640625 41.28125 31.265625 
Q 36.765625 34.90625 28.71875 34.90625 
L 20.21875 34.90625 
L 20.21875 43.015625 
L 29.109375 43.015625 
Q 36.375 43.015625 40.234375 45.921875 
Q 44.09375 48.828125 44.09375 54.296875 
Q 44.09375 59.90625 40.109375 62.90625 
Q 36.140625 65.921875 28.71875 65.921875 
Q 24.65625 65.921875 20.015625 65.03125 
Q 15.375 64.15625 9.8125 62.3125 
L 9.8125 71.09375 
Q 15.4375 72.65625 20.34375 73.4375 
Q 25.25 74.21875 29.59375 74.21875 
Q 40.828125 74.21875 47.359375 69.109375 
Q 53.90625 64.015625 53.90625 55.328125 
Q 53.90625 49.265625 50.4375 45.09375 
Q 46.96875 40.921875 40.578125 39.3125 
z
" id="DejaVuSans-51"/>
      </defs>
      <g style="fill:#262626;" transform="translate(22.81375 43.129266)scale(0.11 -0.11)">
       <use xlink:href="#DejaVuSans-51"/>
       <use x="63.623047" xlink:href="#DejaVuSans-48"/>
      </g>
     </g>
    </g>
    <g id="text_15">
     <!-- Effective Rank - Mean over Batches -->
     <defs>
      <path d="M 9.8125 72.90625 
L 55.90625 72.90625 
L 55.90625 64.59375 
L 19.671875 64.59375 
L 19.671875 43.015625 
L 54.390625 43.015625 
L 54.390625 34.71875 
L 19.671875 34.71875 
L 19.671875 8.296875 
L 56.78125 8.296875 
L 56.78125 0 
L 9.8125 0 
z
" id="DejaVuSans-69"/>
      <path d="M 37.109375 75.984375 
L 37.109375 68.5 
L 28.515625 68.5 
Q 23.6875 68.5 21.796875 66.546875 
Q 19.921875 64.59375 19.921875 59.515625 
L 19.921875 54.6875 
L 34.71875 54.6875 
L 34.71875 47.703125 
L 19.921875 47.703125 
L 19.921875 0 
L 10.890625 0 
L 10.890625 47.703125 
L 2.296875 47.703125 
L 2.296875 54.6875 
L 10.890625 54.6875 
L 10.890625 58.5 
Q 10.890625 67.625 15.140625 71.796875 
Q 19.390625 75.984375 28.609375 75.984375 
z
" id="DejaVuSans-102"/>
      <path d="M 18.3125 70.21875 
L 18.3125 54.6875 
L 36.8125 54.6875 
L 36.8125 47.703125 
L 18.3125 47.703125 
L 18.3125 18.015625 
Q 18.3125 11.328125 20.140625 9.421875 
Q 21.96875 7.515625 27.59375 7.515625 
L 36.8125 7.515625 
L 36.8125 0 
L 27.59375 0 
Q 17.1875 0 13.234375 3.875 
Q 9.28125 7.765625 9.28125 18.015625 
L 9.28125 47.703125 
L 2.6875 47.703125 
L 2.6875 54.6875 
L 9.28125 54.6875 
L 9.28125 70.21875 
z
" id="DejaVuSans-116"/>
      <path d="M 9.421875 54.6875 
L 18.40625 54.6875 
L 18.40625 0 
L 9.421875 0 
z
M 9.421875 75.984375 
L 18.40625 75.984375 
L 18.40625 64.59375 
L 9.421875 64.59375 
z
" id="DejaVuSans-105"/>
      <path d="M 2.984375 54.6875 
L 12.5 54.6875 
L 29.59375 8.796875 
L 46.6875 54.6875 
L 56.203125 54.6875 
L 35.6875 0 
L 23.484375 0 
z
" id="DejaVuSans-118"/>
      <path id="DejaVuSans-32"/>
      <path d="M 44.390625 34.1875 
Q 47.5625 33.109375 50.5625 29.59375 
Q 53.5625 26.078125 56.59375 19.921875 
L 66.609375 0 
L 56 0 
L 46.6875 18.703125 
Q 43.0625 26.03125 39.671875 28.421875 
Q 36.28125 30.8125 30.421875 30.8125 
L 19.671875 30.8125 
L 19.671875 0 
L 9.8125 0 
L 9.8125 72.90625 
L 32.078125 72.90625 
Q 44.578125 72.90625 50.734375 67.671875 
Q 56.890625 62.453125 56.890625 51.90625 
Q 56.890625 45.015625 53.6875 40.46875 
Q 50.484375 35.9375 44.390625 34.1875 
z
M 19.671875 64.796875 
L 19.671875 38.921875 
L 32.078125 38.921875 
Q 39.203125 38.921875 42.84375 42.21875 
Q 46.484375 45.515625 46.484375 51.90625 
Q 46.484375 58.296875 42.84375 61.546875 
Q 39.203125 64.796875 32.078125 64.796875 
z
" id="DejaVuSans-82"/>
      <path d="M 34.28125 27.484375 
Q 23.390625 27.484375 19.1875 25 
Q 14.984375 22.515625 14.984375 16.5 
Q 14.984375 11.71875 18.140625 8.90625 
Q 21.296875 6.109375 26.703125 6.109375 
Q 34.1875 6.109375 38.703125 11.40625 
Q 43.21875 16.703125 43.21875 25.484375 
L 43.21875 27.484375 
z
M 52.203125 31.203125 
L 52.203125 0 
L 43.21875 0 
L 43.21875 8.296875 
Q 40.140625 3.328125 35.546875 0.953125 
Q 30.953125 -1.421875 24.3125 -1.421875 
Q 15.921875 -1.421875 10.953125 3.296875 
Q 6 8.015625 6 15.921875 
Q 6 25.140625 12.171875 29.828125 
Q 18.359375 34.515625 30.609375 34.515625 
L 43.21875 34.515625 
L 43.21875 35.40625 
Q 43.21875 41.609375 39.140625 45 
Q 35.0625 48.390625 27.6875 48.390625 
Q 23 48.390625 18.546875 47.265625 
Q 14.109375 46.140625 10.015625 43.890625 
L 10.015625 52.203125 
Q 14.9375 54.109375 19.578125 55.046875 
Q 24.21875 56 28.609375 56 
Q 40.484375 56 46.34375 49.84375 
Q 52.203125 43.703125 52.203125 31.203125 
z
" id="DejaVuSans-97"/>
      <path d="M 54.890625 33.015625 
L 54.890625 0 
L 45.90625 0 
L 45.90625 32.71875 
Q 45.90625 40.484375 42.875 44.328125 
Q 39.84375 48.1875 33.796875 48.1875 
Q 26.515625 48.1875 22.3125 43.546875 
Q 18.109375 38.921875 18.109375 30.90625 
L 18.109375 0 
L 9.078125 0 
L 9.078125 54.6875 
L 18.109375 54.6875 
L 18.109375 46.1875 
Q 21.34375 51.125 25.703125 53.5625 
Q 30.078125 56 35.796875 56 
Q 45.21875 56 50.046875 50.171875 
Q 54.890625 44.34375 54.890625 33.015625 
z
" id="DejaVuSans-110"/>
      <path d="M 9.078125 75.984375 
L 18.109375 75.984375 
L 18.109375 31.109375 
L 44.921875 54.6875 
L 56.390625 54.6875 
L 27.390625 29.109375 
L 57.625 0 
L 45.90625 0 
L 18.109375 26.703125 
L 18.109375 0 
L 9.078125 0 
z
" id="DejaVuSans-107"/>
      <path d="M 4.890625 31.390625 
L 31.203125 31.390625 
L 31.203125 23.390625 
L 4.890625 23.390625 
z
" id="DejaVuSans-45"/>
      <path d="M 9.8125 72.90625 
L 24.515625 72.90625 
L 43.109375 23.296875 
L 61.8125 72.90625 
L 76.515625 72.90625 
L 76.515625 0 
L 66.890625 0 
L 66.890625 64.015625 
L 48.09375 14.015625 
L 38.1875 14.015625 
L 19.390625 64.015625 
L 19.390625 0 
L 9.8125 0 
z
" id="DejaVuSans-77"/>
      <path d="M 41.109375 46.296875 
Q 39.59375 47.171875 37.8125 47.578125 
Q 36.03125 48 33.890625 48 
Q 26.265625 48 22.1875 43.046875 
Q 18.109375 38.09375 18.109375 28.8125 
L 18.109375 0 
L 9.078125 0 
L 9.078125 54.6875 
L 18.109375 54.6875 
L 18.109375 46.1875 
Q 20.953125 51.171875 25.484375 53.578125 
Q 30.03125 56 36.53125 56 
Q 37.453125 56 38.578125 55.875 
Q 39.703125 55.765625 41.0625 55.515625 
z
" id="DejaVuSans-114"/>
      <path d="M 19.671875 34.8125 
L 19.671875 8.109375 
L 35.5 8.109375 
Q 43.453125 8.109375 47.28125 11.40625 
Q 51.125 14.703125 51.125 21.484375 
Q 51.125 28.328125 47.28125 31.5625 
Q 43.453125 34.8125 35.5 34.8125 
z
M 19.671875 64.796875 
L 19.671875 42.828125 
L 34.28125 42.828125 
Q 41.5 42.828125 45.03125 45.53125 
Q 48.578125 48.25 48.578125 53.8125 
Q 48.578125 59.328125 45.03125 62.0625 
Q 41.5 64.796875 34.28125 64.796875 
z
M 9.8125 72.90625 
L 35.015625 72.90625 
Q 46.296875 72.90625 52.390625 68.21875 
Q 58.5 63.53125 58.5 54.890625 
Q 58.5 48.1875 55.375 44.234375 
Q 52.25 40.28125 46.1875 39.3125 
Q 53.46875 37.75 57.5 32.78125 
Q 61.53125 27.828125 61.53125 20.40625 
Q 61.53125 10.640625 54.890625 5.3125 
Q 48.25 0 35.984375 0 
L 9.8125 0 
z
" id="DejaVuSans-66"/>
      <path d="M 44.28125 53.078125 
L 44.28125 44.578125 
Q 40.484375 46.53125 36.375 47.5 
Q 32.28125 48.484375 27.875 48.484375 
Q 21.1875 48.484375 17.84375 46.4375 
Q 14.5 44.390625 14.5 40.28125 
Q 14.5 37.15625 16.890625 35.375 
Q 19.28125 33.59375 26.515625 31.984375 
L 29.59375 31.296875 
Q 39.15625 29.25 43.1875 25.515625 
Q 47.21875 21.78125 47.21875 15.09375 
Q 47.21875 7.46875 41.1875 3.015625 
Q 35.15625 -1.421875 24.609375 -1.421875 
Q 20.21875 -1.421875 15.453125 -0.5625 
Q 10.6875 0.296875 5.421875 2 
L 5.421875 11.28125 
Q 10.40625 8.6875 15.234375 7.390625 
Q 20.0625 6.109375 24.8125 6.109375 
Q 31.15625 6.109375 34.5625 8.28125 
Q 37.984375 10.453125 37.984375 14.40625 
Q 37.984375 18.0625 35.515625 20.015625 
Q 33.0625 21.96875 24.703125 23.78125 
L 21.578125 24.515625 
Q 13.234375 26.265625 9.515625 29.90625 
Q 5.8125 33.546875 5.8125 39.890625 
Q 5.8125 47.609375 11.28125 51.796875 
Q 16.75 56 26.8125 56 
Q 31.78125 56 36.171875 55.265625 
Q 40.578125 54.546875 44.28125 53.078125 
z
" id="DejaVuSans-115"/>
     </defs>
     <g style="fill:#262626;" transform="translate(16.318125 262.256625)rotate(-90)scale(0.12 -0.12)">
      <use xlink:href="#DejaVuSans-69"/>
      <use x="63.183594" xlink:href="#DejaVuSans-102"/>
      <use x="98.388672" xlink:href="#DejaVuSans-102"/>
      <use x="133.59375" xlink:href="#DejaVuSans-101"/>
      <use x="195.117188" xlink:href="#DejaVuSans-99"/>
      <use x="250.097656" xlink:href="#DejaVuSans-116"/>
      <use x="289.306641" xlink:href="#DejaVuSans-105"/>
      <use x="317.089844" xlink:href="#DejaVuSans-118"/>
      <use x="376.269531" xlink:href="#DejaVuSans-101"/>
      <use x="437.792969" xlink:href="#DejaVuSans-32"/>
      <use x="469.580078" xlink:href="#DejaVuSans-82"/>
      <use x="539.03125" xlink:href="#DejaVuSans-97"/>
      <use x="600.310547" xlink:href="#DejaVuSans-110"/>
      <use x="663.689453" xlink:href="#DejaVuSans-107"/>
      <use x="721.599609" xlink:href="#DejaVuSans-32"/>
      <use x="753.386719" xlink:href="#DejaVuSans-45"/>
      <use x="789.470703" xlink:href="#DejaVuSans-32"/>
      <use x="821.257812" xlink:href="#DejaVuSans-77"/>
      <use x="907.537109" xlink:href="#DejaVuSans-101"/>
      <use x="969.060547" xlink:href="#DejaVuSans-97"/>
      <use x="1030.339844" xlink:href="#DejaVuSans-110"/>
      <use x="1093.71875" xlink:href="#DejaVuSans-32"/>
      <use x="1125.505859" xlink:href="#DejaVuSans-111"/>
      <use x="1186.6875" xlink:href="#DejaVuSans-118"/>
      <use x="1245.867188" xlink:href="#DejaVuSans-101"/>
      <use x="1307.390625" xlink:href="#DejaVuSans-114"/>
      <use x="1348.503906" xlink:href="#DejaVuSans-32"/>
      <use x="1380.291016" xlink:href="#DejaVuSans-66"/>
      <use x="1448.894531" xlink:href="#DejaVuSans-97"/>
      <use x="1510.173828" xlink:href="#DejaVuSans-116"/>
      <use x="1549.382812" xlink:href="#DejaVuSans-99"/>
      <use x="1604.363281" xlink:href="#DejaVuSans-104"/>
      <use x="1667.742188" xlink:href="#DejaVuSans-101"/>
      <use x="1729.265625" xlink:href="#DejaVuSans-115"/>
     </g>
    </g>
   </g>
   <g id="PolyCollection_1">
    <defs>
     <path d="M 62.543977 -85.371287 
L 62.543977 -78.718487 
L 65.856779 -79.550087 
L 69.16958 -77.886888 
L 72.482382 -77.886888 
L 75.795183 -81.213287 
L 79.107985 -84.539687 
L 82.420786 -84.539687 
L 85.733588 -84.539687 
L 89.046389 -84.539687 
L 92.359191 -84.539687 
L 95.671992 -84.539687 
L 98.984794 -84.539687 
L 102.297595 -84.539687 
L 105.610397 -84.539687 
L 108.923198 -84.539687 
L 112.236 -84.539687 
L 115.548801 -84.539687 
L 118.861603 -84.539687 
L 122.174404 -84.539687 
L 125.487205 -84.539687 
L 128.800007 -84.539687 
L 132.112808 -84.539687 
L 135.42561 -84.539687 
L 138.738411 -84.539687 
L 142.051213 -84.539687 
L 145.364014 -82.044887 
L 148.676816 -82.044887 
L 151.989617 -84.539687 
L 155.302419 -82.044887 
L 158.61522 -84.539687 
L 161.928022 -76.223687 
L 165.240823 -80.381687 
L 168.553625 -81.213287 
L 171.866426 -84.539687 
L 175.179228 -80.381687 
L 178.492029 -77.886888 
L 181.804831 -77.886888 
L 185.117632 -75.392088 
L 188.430434 -77.055287 
L 191.743235 -79.550087 
L 195.056037 -78.718487 
L 198.368838 -76.223687 
L 201.68164 -77.055287 
L 204.994441 -72.897288 
L 208.307243 -77.886888 
L 211.620044 -77.055287 
L 214.932846 -76.223687 
L 218.245647 -72.897288 
L 221.558449 -76.223687 
L 224.87125 -76.223687 
L 228.184051 -77.886888 
L 231.496853 -77.055287 
L 234.809654 -75.392088 
L 238.122456 -78.718487 
L 241.435257 -76.223687 
L 244.748059 -74.560487 
L 248.06086 -77.055287 
L 251.373662 -80.381687 
L 254.686463 -73.728887 
L 257.999265 -73.728887 
L 261.312066 -77.055287 
L 264.624868 -73.728887 
L 267.937669 -75.392088 
L 271.250471 -76.223687 
L 274.563272 -77.886888 
L 277.876074 -76.223687 
L 281.188875 -73.728887 
L 284.501677 -75.392088 
L 287.814478 -74.560487 
L 291.12728 -80.381687 
L 294.440081 -72.897288 
L 297.752883 -76.223687 
L 301.065684 -74.539698 
L 304.378486 -75.392088 
L 307.691287 -76.223687 
L 311.004089 -73.728887 
L 314.31689 -76.223687 
L 317.629692 -72.897288 
L 320.942493 -77.055287 
L 324.255295 -73.728887 
L 327.568096 -74.560487 
L 330.880897 -74.560487 
L 334.193699 -77.055287 
L 337.5065 -72.897288 
L 340.819302 -72.897288 
L 344.132103 -77.055287 
L 347.444905 -74.560487 
L 350.757706 -73.728887 
L 354.070508 -73.728887 
L 357.383309 -77.055287 
L 360.696111 -74.560487 
L 364.008912 -75.392088 
L 367.321714 -76.223687 
L 370.634515 -79.550087 
L 373.947317 -72.897288 
L 377.260118 -74.560487 
L 380.57292 -77.055287 
L 383.885721 -72.065687 
L 387.198523 -73.728887 
L 387.198523 -76.223687 
L 387.198523 -76.223687 
L 383.885721 -82.044887 
L 380.57292 -85.371287 
L 377.260118 -79.550087 
L 373.947317 -82.876487 
L 370.634515 -96.182087 
L 367.321714 -81.213287 
L 364.008912 -87.034487 
L 360.696111 -84.539687 
L 357.383309 -80.381687 
L 354.070508 -76.223687 
L 350.757706 -80.381687 
L 347.444905 -79.550087 
L 344.132103 -87.034487 
L 340.819302 -77.907677 
L 337.5065 -80.381687 
L 334.193699 -82.044887 
L 330.880897 -80.381687 
L 327.568096 -82.044887 
L 324.255295 -78.718487 
L 320.942493 -82.044887 
L 317.629692 -76.223687 
L 314.31689 -79.550087 
L 311.004089 -81.213287 
L 307.691287 -84.539687 
L 304.378486 -87.866087 
L 301.065684 -79.550087 
L 297.752883 -79.550087 
L 294.440081 -79.550087 
L 291.12728 -92.876477 
L 287.814478 -80.381687 
L 284.501677 -82.876487 
L 281.188875 -77.886888 
L 277.876074 -79.550087 
L 274.563272 -84.560477 
L 271.250471 -87.034487 
L 267.937669 -85.371287 
L 264.624868 -85.371287 
L 261.312066 -85.371287 
L 257.999265 -78.718487 
L 254.686463 -78.718487 
L 251.373662 -85.392077 
L 248.06086 -84.560477 
L 244.748059 -82.044887 
L 241.435257 -84.539687 
L 238.122456 -83.708088 
L 234.809654 -85.371287 
L 231.496853 -89.529287 
L 228.184051 -82.876487 
L 224.87125 -82.876487 
L 221.558449 -85.371287 
L 218.245647 -81.213287 
L 214.932846 -89.529287 
L 211.620044 -97.845287 
L 208.307243 -82.876487 
L 204.994441 -76.223687 
L 201.68164 -87.866087 
L 198.368838 -86.202888 
L 195.056037 -90.360887 
L 191.743235 -87.866087 
L 188.430434 -85.371287 
L 185.117632 -82.044887 
L 181.804831 -82.044887 
L 178.492029 -82.876487 
L 175.179228 -87.866087 
L 171.866426 -84.539687 
L 168.553625 -86.202888 
L 165.240823 -89.529287 
L 161.928022 -82.876487 
L 158.61522 -87.034487 
L 155.302419 -84.539687 
L 151.989617 -87.866087 
L 148.676816 -89.529287 
L 145.364014 -87.034487 
L 142.051213 -87.034487 
L 138.738411 -84.539687 
L 135.42561 -84.539687 
L 132.112808 -87.034487 
L 128.800007 -89.529287 
L 125.487205 -94.518888 
L 122.174404 -84.539687 
L 118.861603 -89.529287 
L 115.548801 -84.539687 
L 112.236 -87.866087 
L 108.923198 -84.539687 
L 105.610397 -89.529287 
L 102.297595 -87.034487 
L 98.984794 -87.034487 
L 95.671992 -87.034487 
L 92.359191 -95.350487 
L 89.046389 -87.034487 
L 85.733588 -89.529287 
L 82.420786 -92.024088 
L 79.107985 -87.034487 
L 75.795183 -86.223677 
L 72.482382 -80.381687 
L 69.16958 -82.876487 
L 65.856779 -87.866087 
L 62.543977 -85.371287 
z
" id="m923300c9a5" style="stroke:#1f77b4;stroke-opacity:0.2;"/>
    </defs>
    <g clip-path="url(#p80db6e34ec)">
     <use style="fill:#1f77b4;fill-opacity:0.2;stroke:#1f77b4;stroke-opacity:0.2;" x="0" xlink:href="#m923300c9a5" y="331.389812"/>
    </g>
   </g>
   <g id="PolyCollection_2">
    <defs>
     <path d="M 62.543977 -225.911687 
L 62.543977 -210.942887 
L 65.856779 -219.258887 
L 69.16958 -224.248487 
L 72.482382 -225.080087 
L 75.795183 -220.090487 
L 79.107985 -213.437687 
L 82.420786 -217.595687 
L 85.733588 -208.406507 
L 89.046389 -195.142487 
L 92.359191 -192.647687 
L 95.671992 -210.942887 
L 98.984794 -181.836887 
L 102.297595 -206.784887 
L 105.610397 -219.258887 
L 108.923198 -200.132087 
L 112.236 -198.448097 
L 115.548801 -210.922098 
L 118.861603 -215.100887 
L 122.174404 -211.774487 
L 125.487205 -197.637287 
L 128.800007 -205.121687 
L 132.112808 -187.658087 
L 135.42561 -200.963687 
L 138.738411 -195.974087 
L 142.051213 -191.816087 
L 145.364014 -192.647687 
L 148.676816 -179.342087 
L 151.989617 -184.331687 
L 155.302419 -190.984488 
L 158.61522 -175.184087 
L 161.928022 -192.647687 
L 165.240823 -181.005288 
L 168.553625 -176.015687 
L 171.866426 -174.352487 
L 175.179228 -188.489687 
L 178.492029 -187.658087 
L 181.804831 -167.699687 
L 185.117632 -185.163287 
L 188.430434 -184.331687 
L 191.743235 -151.067687 
L 195.056037 -185.163287 
L 198.368838 -186.826487 
L 201.68164 -178.510487 
L 204.994441 -191.816087 
L 208.307243 -169.362887 
L 211.620044 -170.194487 
L 214.932846 -193.479287 
L 218.245647 -184.331687 
L 221.558449 -178.510487 
L 224.87125 -163.541687 
L 228.184051 -176.847287 
L 231.496853 -181.005288 
L 234.809654 -176.847287 
L 238.122456 -181.836887 
L 241.435257 -172.689287 
L 244.748059 -169.362887 
L 248.06086 -171.857687 
L 251.373662 -170.194487 
L 254.686463 -167.699687 
L 257.999265 -164.373288 
L 261.312066 -170.194487 
L 264.624868 -172.689287 
L 267.937669 -173.520887 
L 271.250471 -170.194487 
L 274.563272 -171.857687 
L 277.876074 -180.173687 
L 281.188875 -175.184087 
L 284.501677 -181.005288 
L 287.814478 -173.520887 
L 291.12728 -181.005288 
L 294.440081 -175.184087 
L 297.752883 -173.520887 
L 301.065684 -168.531287 
L 304.378486 -169.362887 
L 307.691287 -168.531287 
L 311.004089 -164.373288 
L 314.31689 -169.362887 
L 317.629692 -173.520887 
L 320.942493 -164.373288 
L 324.255295 -167.678898 
L 327.568096 -166.868088 
L 330.880897 -176.015687 
L 334.193699 -167.699687 
L 337.5065 -171.026087 
L 340.819302 -168.531287 
L 344.132103 -163.541687 
L 347.444905 -145.246488 
L 350.757706 -166.036487 
L 354.070508 -166.868088 
L 357.383309 -158.552087 
L 360.696111 -173.520887 
L 364.008912 -152.730887 
L 367.321714 -162.710087 
L 370.634515 -158.552087 
L 373.947317 -158.552087 
L 377.260118 -152.730887 
L 380.57292 -160.215287 
L 383.885721 -161.878488 
L 387.198523 -155.204897 
L 387.198523 -180.173687 
L 387.198523 -180.173687 
L 383.885721 -178.510487 
L 380.57292 -171.857687 
L 377.260118 -195.142487 
L 373.947317 -177.678887 
L 370.634515 -171.857687 
L 367.321714 -186.847277 
L 364.008912 -185.994887 
L 360.696111 -187.658087 
L 357.383309 -184.331687 
L 354.070508 -183.500087 
L 350.757706 -182.668487 
L 347.444905 -180.173687 
L 344.132103 -182.668487 
L 340.819302 -195.994877 
L 337.5065 -181.005288 
L 334.193699 -195.974087 
L 330.880897 -197.637287 
L 327.568096 -188.489687 
L 324.255295 -190.984488 
L 320.942493 -190.984488 
L 317.629692 -193.479287 
L 314.31689 -186.826487 
L 311.004089 -185.994887 
L 307.691287 -190.984488 
L 304.378486 -184.331687 
L 301.065684 -185.994887 
L 297.752883 -185.994887 
L 294.440081 -189.342077 
L 291.12728 -201.816077 
L 287.814478 -190.152887 
L 284.501677 -199.300487 
L 281.188875 -191.836877 
L 277.876074 -195.974087 
L 274.563272 -189.321287 
L 271.250471 -184.331687 
L 267.937669 -201.795288 
L 264.624868 -194.310887 
L 261.312066 -195.974087 
L 257.999265 -192.647687 
L 254.686463 -192.647687 
L 251.373662 -197.637287 
L 248.06086 -196.805687 
L 244.748059 -203.458487 
L 241.435257 -194.331677 
L 238.122456 -205.121687 
L 234.809654 -202.626887 
L 231.496853 -198.468887 
L 228.184051 -205.121687 
L 224.87125 -205.121687 
L 221.558449 -197.637287 
L 218.245647 -195.142487 
L 214.932846 -206.784887 
L 211.620044 -203.458487 
L 208.307243 -200.963687 
L 204.994441 -210.111288 
L 201.68164 -210.942887 
L 198.368838 -204.290087 
L 195.056037 -203.458487 
L 191.743235 -206.784887 
L 188.430434 -207.616487 
L 185.117632 -215.100887 
L 181.804831 -217.595687 
L 178.492029 -217.595687 
L 175.179228 -212.606087 
L 171.866426 -209.279687 
L 168.553625 -212.606087 
L 165.240823 -214.269287 
L 161.928022 -215.932487 
L 158.61522 -203.458487 
L 155.302419 -212.606087 
L 151.989617 -193.479287 
L 148.676816 -214.269287 
L 145.364014 -210.111288 
L 142.051213 -221.753687 
L 138.738411 -215.932487 
L 135.42561 -215.100887 
L 132.112808 -219.258887 
L 128.800007 -236.722487 
L 125.487205 -216.764087 
L 122.174404 -228.406487 
L 118.861603 -230.069687 
L 115.548801 -227.574887 
L 112.236 -230.901287 
L 108.923198 -236.722487 
L 105.610397 -231.732887 
L 102.297595 -216.764087 
L 98.984794 -216.764087 
L 95.671992 -229.238087 
L 92.359191 -225.911687 
L 89.046389 -225.080087 
L 85.733588 -246.701687 
L 82.420786 -233.416877 
L 79.107985 -225.911687 
L 75.795183 -235.890887 
L 72.482382 -232.564487 
L 69.16958 -235.890887 
L 65.856779 -241.712087 
L 62.543977 -225.911687 
z
" id="m447b620f10" style="stroke:#ff7f0e;stroke-opacity:0.2;"/>
    </defs>
    <g clip-path="url(#p80db6e34ec)">
     <use style="fill:#ff7f0e;fill-opacity:0.2;stroke:#ff7f0e;stroke-opacity:0.2;" x="0" xlink:href="#m447b620f10" y="331.389812"/>
    </g>
   </g>
   <g id="PolyCollection_3">
    <defs>
     <path d="M 62.543977 -250.028087 
L 62.543977 -234.227687 
L 65.856779 -222.585287 
L 69.16958 -221.753687 
L 72.482382 -210.942887 
L 75.795183 -193.479287 
L 79.107985 -208.448087 
L 82.420786 -210.942887 
L 85.733588 -215.100887 
L 89.046389 -193.479287 
L 92.359191 -197.616497 
L 95.671992 -181.836887 
L 98.984794 -205.953287 
L 102.297595 -209.258897 
L 105.610397 -227.574887 
L 108.923198 -220.922087 
L 112.236 -230.901287 
L 115.548801 -235.059287 
L 118.861603 -215.100887 
L 122.174404 -240.028098 
L 125.487205 -254.186087 
L 128.800007 -233.396087 
L 132.112808 -230.880497 
L 135.42561 -242.502107 
L 138.738411 -224.248487 
L 142.051213 -220.090487 
L 145.364014 -168.531287 
L 148.676816 -200.963687 
L 151.989617 -205.121687 
L 155.302419 -224.248487 
L 158.61522 -220.090487 
L 161.928022 -220.922087 
L 165.240823 -217.595687 
L 168.553625 -223.416887 
L 171.866426 -215.100887 
L 175.179228 -227.574887 
L 178.492029 -207.616487 
L 181.804831 -228.406487 
L 185.117632 -236.722487 
L 188.430434 -231.732887 
L 191.743235 -220.090487 
L 195.056037 -232.564487 
L 198.368838 -200.942897 
L 201.68164 -220.922087 
L 204.994441 -214.269287 
L 208.307243 -219.258887 
L 211.620044 -200.963687 
L 214.932846 -217.595687 
L 218.245647 -225.080087 
L 221.558449 -199.300487 
L 224.87125 -216.743297 
L 228.184051 -204.290087 
L 231.496853 -226.743287 
L 234.809654 -202.626887 
L 238.122456 -228.406487 
L 241.435257 -206.784887 
L 244.748059 -202.606098 
L 248.06086 -191.816087 
L 251.373662 -191.816087 
L 254.686463 -200.963687 
L 257.999265 -200.963687 
L 261.312066 -200.963687 
L 264.624868 -185.994887 
L 267.937669 -197.637287 
L 271.250471 -158.552087 
L 274.563272 -210.942887 
L 277.876074 -185.163287 
L 281.188875 -189.321287 
L 284.501677 -196.805687 
L 287.814478 -190.152887 
L 291.12728 -183.500087 
L 294.440081 -186.826487 
L 297.752883 -177.678887 
L 301.065684 -199.300487 
L 304.378486 -190.984488 
L 307.691287 -185.994887 
L 311.004089 -189.321287 
L 314.31689 -198.468887 
L 317.629692 -189.321287 
L 320.942493 -177.678887 
L 324.255295 -178.510487 
L 327.568096 -184.331687 
L 330.880897 -201.795288 
L 334.193699 -188.468897 
L 337.5065 -151.067687 
L 340.819302 -187.658087 
L 344.132103 -201.795288 
L 347.444905 -172.689287 
L 350.757706 -174.352487 
L 354.070508 -181.836887 
L 357.383309 -168.531287 
L 360.696111 -185.163287 
L 364.008912 -183.458507 
L 367.321714 -185.994887 
L 370.634515 -170.194487 
L 373.947317 -166.868088 
L 377.260118 -172.689287 
L 380.57292 -182.647697 
L 383.885721 -186.826487 
L 387.198523 -170.194487 
L 387.198523 -223.416887 
L 387.198523 -223.416887 
L 383.885721 -220.090487 
L 380.57292 -203.458487 
L 377.260118 -213.437687 
L 373.947317 -211.774487 
L 370.634515 -205.121687 
L 367.321714 -227.574887 
L 364.008912 -215.100887 
L 360.696111 -230.069687 
L 357.383309 -210.942887 
L 354.070508 -218.427287 
L 350.757706 -216.764087 
L 347.444905 -231.732887 
L 344.132103 -235.059287 
L 340.819302 -232.564487 
L 337.5065 -199.383647 
L 334.193699 -217.595687 
L 330.880897 -218.427287 
L 327.568096 -228.406487 
L 324.255295 -226.743287 
L 320.942493 -222.585287 
L 317.629692 -229.238087 
L 314.31689 -218.427287 
L 311.004089 -220.090487 
L 307.691287 -219.258887 
L 304.378486 -219.258887 
L 301.065684 -234.227687 
L 297.752883 -208.448087 
L 294.440081 -235.100867 
L 291.12728 -216.764087 
L 287.814478 -225.911687 
L 284.501677 -246.701687 
L 281.188875 -220.922087 
L 277.876074 -227.574887 
L 274.563272 -242.543687 
L 271.250471 -228.406487 
L 267.937669 -228.406487 
L 264.624868 -243.375287 
L 261.312066 -245.038487 
L 257.999265 -228.406487 
L 254.686463 -236.743277 
L 251.373662 -242.543687 
L 248.06086 -243.375287 
L 244.748059 -240.880487 
L 241.435257 -247.533288 
L 238.122456 -250.028087 
L 234.809654 -238.385687 
L 231.496853 -254.186087 
L 228.184051 -245.038487 
L 224.87125 -250.028087 
L 221.558449 -237.554087 
L 218.245647 -250.859687 
L 214.932846 -255.849287 
L 211.620044 -249.196487 
L 208.307243 -250.859687 
L 204.994441 -245.870087 
L 201.68164 -255.849287 
L 198.368838 -244.206887 
L 195.056037 -242.543687 
L 191.743235 -253.354487 
L 188.430434 -245.038487 
L 185.117632 -258.364877 
L 181.804831 -261.670487 
L 178.492029 -274.144487 
L 175.179228 -269.154887 
L 171.866426 -266.680877 
L 168.553625 -250.859687 
L 165.240823 -251.691287 
L 161.928022 -267.491688 
L 158.61522 -277.470888 
L 155.302419 -268.323287 
L 151.989617 -265.828487 
L 148.676816 -272.481288 
L 145.364014 -255.849287 
L 142.051213 -264.165287 
L 138.738411 -262.502087 
L 135.42561 -273.312887 
L 132.112808 -266.660087 
L 128.800007 -265.828487 
L 125.487205 -272.481288 
L 122.174404 -278.302487 
L 118.861603 -264.996887 
L 115.548801 -274.976087 
L 112.236 -255.849287 
L 108.923198 -269.986487 
L 105.610397 -264.165287 
L 102.297595 -232.564487 
L 98.984794 -267.512477 
L 95.671992 -257.512488 
L 92.359191 -235.059287 
L 89.046389 -243.375287 
L 85.733588 -254.186087 
L 82.420786 -224.248487 
L 79.107985 -248.364887 
L 75.795183 -250.028087 
L 72.482382 -265.828487 
L 69.16958 -264.165287 
L 65.856779 -258.344088 
L 62.543977 -250.028087 
z
" id="m428b90c60c" style="stroke:#2ca02c;stroke-opacity:0.2;"/>
    </defs>
    <g clip-path="url(#p80db6e34ec)">
     <use style="fill:#2ca02c;fill-opacity:0.2;stroke:#2ca02c;stroke-opacity:0.2;" x="0" xlink:href="#m428b90c60c" y="331.389812"/>
    </g>
   </g>
   <g id="PolyCollection_4">
    <defs>
     <path d="M 62.543977 -238.385687 
L 62.543977 -223.416887 
L 65.856779 -220.090487 
L 69.16958 -240.880487 
L 72.482382 -206.784887 
L 75.795183 -210.111288 
L 79.107985 -232.564487 
L 82.420786 -234.227687 
L 85.733588 -226.743287 
L 89.046389 -212.606087 
L 92.359191 -205.121687 
L 95.671992 -211.774487 
L 98.984794 -212.606087 
L 102.297595 -205.953287 
L 105.610397 -212.606087 
L 108.923198 -213.437687 
L 112.236 -195.142487 
L 115.548801 -189.321287 
L 118.861603 -179.342087 
L 122.174404 -215.100887 
L 125.487205 -188.489687 
L 128.800007 -215.100887 
L 132.112808 -194.269307 
L 135.42561 -231.732887 
L 138.738411 -210.111288 
L 142.051213 -215.932487 
L 145.364014 -215.932487 
L 148.676816 -182.668487 
L 151.989617 -201.795288 
L 155.302419 -208.448087 
L 158.61522 -218.427287 
L 161.928022 -182.668487 
L 165.240823 -195.142487 
L 168.553625 -194.310887 
L 171.866426 -212.606087 
L 175.179228 -194.310887 
L 178.492029 -190.152887 
L 181.804831 -198.468887 
L 185.117632 -196.805687 
L 188.430434 -209.279687 
L 191.743235 -207.616487 
L 195.056037 -195.142487 
L 198.368838 -198.468887 
L 201.68164 -190.984488 
L 204.994441 -203.458487 
L 208.307243 -192.647687 
L 211.620044 -188.489687 
L 214.932846 -174.352487 
L 218.245647 -189.321287 
L 221.558449 -181.836887 
L 224.87125 -183.500087 
L 228.184051 -174.352487 
L 231.496853 -173.520887 
L 234.809654 -181.005288 
L 238.122456 -181.836887 
L 241.435257 -168.531287 
L 244.748059 -176.847287 
L 248.06086 -188.489687 
L 251.373662 -184.331687 
L 254.686463 -186.826487 
L 257.999265 -180.173687 
L 261.312066 -177.678887 
L 264.624868 -176.847287 
L 267.937669 -178.510487 
L 271.250471 -168.531287 
L 274.563272 -178.510487 
L 277.876074 -175.184087 
L 281.188875 -183.500087 
L 284.501677 -163.520897 
L 287.814478 -170.194487 
L 291.12728 -166.868088 
L 294.440081 -173.520887 
L 297.752883 -168.531287 
L 301.065684 -174.352487 
L 304.378486 -169.362887 
L 307.691287 -173.520887 
L 311.004089 -171.857687 
L 314.31689 -171.026087 
L 317.629692 -160.215287 
L 320.942493 -171.836897 
L 324.255295 -165.204887 
L 327.568096 -162.710087 
L 330.880897 -164.373288 
L 334.193699 -156.057287 
L 337.5065 -157.720487 
L 340.819302 -164.373288 
L 344.132103 -169.362887 
L 347.444905 -156.888887 
L 350.757706 -161.046887 
L 354.070508 -155.225687 
L 357.383309 -163.541687 
L 360.696111 -156.057287 
L 364.008912 -167.699687 
L 367.321714 -164.352497 
L 370.634515 -156.057287 
L 373.947317 -154.394087 
L 377.260118 -160.215287 
L 380.57292 -157.720487 
L 383.885721 -159.383687 
L 387.198523 -152.730887 
L 387.198523 -181.836887 
L 387.198523 -181.836887 
L 383.885721 -183.500087 
L 380.57292 -183.500087 
L 377.260118 -176.847287 
L 373.947317 -171.857687 
L 370.634515 -175.184087 
L 367.321714 -201.795288 
L 364.008912 -181.005288 
L 360.696111 -179.342087 
L 357.383309 -179.342087 
L 354.070508 -178.510487 
L 350.757706 -179.342087 
L 347.444905 -176.847287 
L 344.132103 -179.342087 
L 340.819302 -190.984488 
L 337.5065 -172.689287 
L 334.193699 -185.994887 
L 330.880897 -184.331687 
L 327.568096 -184.331687 
L 324.255295 -183.500087 
L 320.942493 -190.152887 
L 317.629692 -181.005288 
L 314.31689 -195.974087 
L 311.004089 -187.658087 
L 307.691287 -179.342087 
L 304.378486 -187.658087 
L 301.065684 -186.826487 
L 297.752883 -177.678887 
L 294.440081 -181.836887 
L 291.12728 -193.479287 
L 287.814478 -191.816087 
L 284.501677 -182.668487 
L 281.188875 -222.585287 
L 277.876074 -186.826487 
L 274.563272 -194.310887 
L 271.250471 -194.310887 
L 267.937669 -191.816087 
L 264.624868 -197.637287 
L 261.312066 -191.816087 
L 257.999265 -197.637287 
L 254.686463 -191.816087 
L 251.373662 -190.152887 
L 248.06086 -193.479287 
L 244.748059 -184.331687 
L 241.435257 -198.468887 
L 238.122456 -198.468887 
L 234.809654 -199.300487 
L 231.496853 -202.626887 
L 228.184051 -205.121687 
L 224.87125 -201.795288 
L 221.558449 -196.805687 
L 218.245647 -216.764087 
L 214.932846 -210.942887 
L 211.620044 -200.963687 
L 208.307243 -210.942887 
L 204.994441 -215.100887 
L 201.68164 -208.448087 
L 198.368838 -217.595687 
L 195.056037 -235.059287 
L 191.743235 -219.258887 
L 188.430434 -227.574887 
L 185.117632 -225.080087 
L 181.804831 -226.743287 
L 178.492029 -237.554087 
L 175.179228 -229.238087 
L 171.866426 -232.564487 
L 168.553625 -224.248487 
L 165.240823 -239.217287 
L 161.928022 -225.080087 
L 158.61522 -250.859687 
L 155.302419 -250.859687 
L 151.989617 -253.354487 
L 148.676816 -242.543687 
L 145.364014 -252.522887 
L 142.051213 -248.364887 
L 138.738411 -255.017687 
L 135.42561 -250.028087 
L 132.112808 -245.038487 
L 128.800007 -251.712077 
L 125.487205 -250.859687 
L 122.174404 -238.385687 
L 118.861603 -250.028087 
L 115.548801 -230.901287 
L 112.236 -236.722487 
L 108.923198 -240.048887 
L 105.610397 -240.069677 
L 102.297595 -239.238077 
L 98.984794 -229.238087 
L 95.671992 -223.416887 
L 92.359191 -226.743287 
L 89.046389 -235.890887 
L 85.733588 -231.732887 
L 82.420786 -252.522887 
L 79.107985 -249.196487 
L 75.795183 -240.880487 
L 72.482382 -259.175687 
L 69.16958 -260.007287 
L 65.856779 -242.543687 
L 62.543977 -238.385687 
z
" id="m021bf24e7a" style="stroke:#d62728;stroke-opacity:0.2;"/>
    </defs>
    <g clip-path="url(#p80db6e34ec)">
     <use style="fill:#d62728;fill-opacity:0.2;stroke:#d62728;stroke-opacity:0.2;" x="0" xlink:href="#m021bf24e7a" y="331.389812"/>
    </g>
   </g>
   <g id="PolyCollection_5">
    <defs>
     <path d="M 62.543977 -185.994887 
L 62.543977 -150.236087 
L 65.856779 -177.678887 
L 69.16958 -185.163287 
L 72.482382 -189.321287 
L 75.795183 -187.658087 
L 79.107985 -182.668487 
L 82.420786 -181.836887 
L 85.733588 -173.520887 
L 89.046389 -175.184087 
L 92.359191 -166.868088 
L 95.671992 -170.194487 
L 98.984794 -172.689287 
L 102.297595 -175.184087 
L 105.610397 -169.362887 
L 108.923198 -150.236087 
L 112.236 -145.246488 
L 115.548801 -145.246488 
L 118.861603 -136.098887 
L 122.174404 -144.414887 
L 125.487205 -141.878507 
L 128.800007 -143.583287 
L 132.112808 -148.572887 
L 135.42561 -156.057287 
L 138.738411 -109.487687 
L 142.051213 -130.277687 
L 145.364014 -144.414887 
L 148.676816 -117.803687 
L 151.989617 -149.404487 
L 155.302419 -141.088487 
L 158.61522 -115.308887 
L 161.928022 -107.824487 
L 165.240823 -115.308887 
L 168.553625 -112.814087 
L 171.866426 -133.604087 
L 175.179228 -144.394097 
L 178.492029 -129.446087 
L 181.804831 -147.741287 
L 185.117632 -160.215287 
L 188.430434 -143.562498 
L 191.743235 -146.078087 
L 195.056037 -141.920087 
L 198.368838 -146.036507 
L 201.68164 -136.098887 
L 204.994441 -145.246488 
L 208.307243 -132.751697 
L 211.620044 -156.888887 
L 214.932846 -150.236087 
L 218.245647 -160.215287 
L 221.558449 -156.057287 
L 224.87125 -158.552087 
L 228.184051 -142.751688 
L 231.496853 -149.404487 
L 234.809654 -162.710087 
L 238.122456 -160.215287 
L 241.435257 -143.583287 
L 244.748059 -150.236087 
L 248.06086 -129.446087 
L 251.373662 -136.930487 
L 254.686463 -156.057287 
L 257.999265 -150.236087 
L 261.312066 -165.204887 
L 264.624868 -152.710097 
L 267.937669 -136.930487 
L 271.250471 -126.098897 
L 274.563272 -148.572887 
L 277.876074 -154.394087 
L 281.188875 -116.972088 
L 284.501677 -146.078087 
L 287.814478 -140.256887 
L 291.12728 -146.078087 
L 294.440081 -150.236087 
L 297.752883 -137.762088 
L 301.065684 -131.940887 
L 304.378486 -153.562487 
L 307.691287 -151.899287 
L 311.004089 -137.741298 
L 314.31689 -141.088487 
L 317.629692 -138.593687 
L 320.942493 -141.088487 
L 324.255295 -126.930497 
L 327.568096 -136.930487 
L 330.880897 -142.751688 
L 334.193699 -145.246488 
L 337.5065 -149.404487 
L 340.819302 -137.762088 
L 344.132103 -138.593687 
L 347.444905 -132.772488 
L 350.757706 -140.256887 
L 354.070508 -146.909687 
L 357.383309 -141.088487 
L 360.696111 -136.930487 
L 364.008912 -142.751688 
L 367.321714 -147.741287 
L 370.634515 -141.088487 
L 373.947317 -135.267287 
L 377.260118 -144.414887 
L 380.57292 -134.435687 
L 383.885721 -136.930487 
L 387.198523 -137.762088 
L 387.198523 -150.236087 
L 387.198523 -150.236087 
L 383.885721 -153.562487 
L 380.57292 -150.236087 
L 377.260118 -160.215287 
L 373.947317 -165.204887 
L 370.634515 -157.741277 
L 367.321714 -157.720487 
L 364.008912 -161.046887 
L 360.696111 -158.552087 
L 357.383309 -170.194487 
L 354.070508 -161.046887 
L 350.757706 -165.204887 
L 347.444905 -164.373288 
L 344.132103 -156.888887 
L 340.819302 -159.383687 
L 337.5065 -166.036487 
L 334.193699 -156.057287 
L 330.880897 -161.067677 
L 327.568096 -153.562487 
L 324.255295 -152.730887 
L 320.942493 -163.541687 
L 317.629692 -156.057287 
L 314.31689 -169.362887 
L 311.004089 -160.215287 
L 307.691287 -160.215287 
L 304.378486 -176.847287 
L 301.065684 -158.552087 
L 297.752883 -166.036487 
L 294.440081 -164.373288 
L 291.12728 -153.562487 
L 287.814478 -163.541687 
L 284.501677 -177.678887 
L 281.188875 -158.552087 
L 277.876074 -168.531287 
L 274.563272 -168.531287 
L 271.250471 -167.699687 
L 267.937669 -160.215287 
L 264.624868 -176.847287 
L 261.312066 -170.194487 
L 257.999265 -169.362887 
L 254.686463 -172.689287 
L 251.373662 -167.699687 
L 248.06086 -161.046887 
L 244.748059 -169.362887 
L 241.435257 -165.204887 
L 238.122456 -175.184087 
L 234.809654 -182.668487 
L 231.496853 -176.847287 
L 228.184051 -171.026087 
L 224.87125 -180.194477 
L 221.558449 -166.888877 
L 218.245647 -178.510487 
L 214.932846 -188.489687 
L 211.620044 -183.500087 
L 208.307243 -172.689287 
L 204.994441 -178.510487 
L 201.68164 -178.510487 
L 198.368838 -185.184077 
L 195.056037 -181.005288 
L 191.743235 -162.710087 
L 188.430434 -177.678887 
L 185.117632 -184.331687 
L 181.804831 -181.836887 
L 178.492029 -178.510487 
L 175.179228 -185.994887 
L 171.866426 -173.520887 
L 168.553625 -183.500087 
L 165.240823 -195.142487 
L 161.928022 -177.678887 
L 158.61522 -194.331677 
L 155.302419 -176.015687 
L 151.989617 -200.132087 
L 148.676816 -195.142487 
L 145.364014 -200.132087 
L 142.051213 -181.836887 
L 138.738411 -171.026087 
L 135.42561 -197.637287 
L 132.112808 -177.699677 
L 128.800007 -178.510487 
L 125.487205 -175.225667 
L 122.174404 -171.857687 
L 118.861603 -179.362877 
L 115.548801 -181.836887 
L 112.236 -175.184087 
L 108.923198 -185.163287 
L 105.610397 -182.668487 
L 102.297595 -187.658087 
L 98.984794 -180.173687 
L 95.671992 -189.321287 
L 92.359191 -178.510487 
L 89.046389 -191.816087 
L 85.733588 -193.479287 
L 82.420786 -195.974087 
L 79.107985 -204.290087 
L 75.795183 -200.984477 
L 72.482382 -201.795288 
L 69.16958 -194.310887 
L 65.856779 -196.805687 
L 62.543977 -185.994887 
z
" id="mc8f48a9002" style="stroke:#9467bd;stroke-opacity:0.2;"/>
    </defs>
    <g clip-path="url(#p80db6e34ec)">
     <use style="fill:#9467bd;fill-opacity:0.2;stroke:#9467bd;stroke-opacity:0.2;" x="0" xlink:href="#mc8f48a9002" y="331.389812"/>
    </g>
   </g>
   <g id="line2d_14">
    <path clip-path="url(#p80db6e34ec)" d="M 62.543977 249.344925 
L 65.856779 247.681725 
L 69.16958 251.008125 
L 72.482382 251.839725 
L 75.795183 247.681725 
L 79.107985 246.018525 
L 82.420786 244.355325 
L 85.733588 245.186925 
L 89.046389 246.018525 
L 92.359191 242.692125 
L 95.671992 246.018525 
L 98.984794 246.018525 
L 102.297595 246.018525 
L 105.610397 245.186925 
L 108.923198 246.850125 
L 112.236 245.186925 
L 115.548801 246.850125 
L 118.861603 244.355325 
L 122.174404 246.850125 
L 125.487205 243.523725 
L 128.800007 245.186925 
L 132.112808 246.018525 
L 135.42561 246.850125 
L 138.738411 246.850125 
L 142.051213 246.018525 
L 145.364014 246.850125 
L 148.676816 246.018525 
L 151.989617 245.186925 
L 155.302419 247.681725 
L 158.61522 246.018525 
L 161.928022 251.839725 
L 165.240823 246.850125 
L 168.553625 247.681725 
L 171.866426 246.850125 
L 175.179228 248.513325 
L 178.492029 251.008125 
L 181.804831 251.008125 
L 185.117632 251.839725 
L 188.430434 250.176525 
L 191.743235 247.681725 
L 195.056037 246.850125 
L 198.368838 249.344925 
L 201.68164 248.513325 
L 204.994441 256.829325 
L 208.307243 251.008125 
L 211.620044 246.018525 
L 214.932846 250.176525 
L 218.245647 254.334525 
L 221.558449 251.008125 
L 224.87125 251.839725 
L 228.184051 251.008125 
L 231.496853 249.344925 
L 234.809654 251.008125 
L 238.122456 250.176525 
L 241.435257 251.839725 
L 244.748059 253.502925 
L 248.06086 251.008125 
L 251.373662 248.513325 
L 254.686463 255.166125 
L 257.999265 255.166125 
L 261.312066 250.176525 
L 264.624868 252.671325 
L 267.937669 251.008125 
L 271.250471 251.008125 
L 274.563272 250.176525 
L 277.876074 253.502925 
L 281.188875 255.166125 
L 284.501677 251.839725 
L 287.814478 253.502925 
L 291.12728 246.018525 
L 294.440081 255.166125 
L 297.752883 253.502925 
L 301.065684 254.334525 
L 304.378486 250.176525 
L 307.691287 251.839725 
L 311.004089 254.334525 
L 314.31689 253.502925 
L 317.629692 256.829325 
L 320.942493 251.839725 
L 324.255295 255.166125 
L 327.568096 253.502925 
L 330.880897 253.502925 
L 334.193699 251.839725 
L 337.5065 255.166125 
L 340.819302 255.997725 
L 344.132103 250.176525 
L 347.444905 254.334525 
L 350.757706 254.334525 
L 354.070508 255.997725 
L 357.383309 252.671325 
L 360.696111 252.671325 
L 364.008912 250.176525 
L 367.321714 253.502925 
L 370.634515 244.355325 
L 373.947317 253.502925 
L 377.260118 254.334525 
L 380.57292 250.176525 
L 383.885721 254.334525 
L 387.198523 255.997725 
" style="fill:none;stroke:#1f77b4;stroke-linecap:round;stroke-width:1.5;"/>
   </g>
   <g id="line2d_15">
    <path clip-path="url(#p80db6e34ec)" d="M 62.543977 112.130925 
L 65.856779 100.488525 
L 69.16958 101.320125 
L 72.482382 102.151725 
L 75.795183 104.646525 
L 79.107985 112.130925 
L 82.420786 106.309725 
L 85.733588 106.309725 
L 89.046389 118.783725 
L 92.359191 119.615325 
L 95.671992 112.130925 
L 98.984794 128.762925 
L 102.297595 119.615325 
L 105.610397 106.309725 
L 108.923198 113.794125 
L 112.236 117.120525 
L 115.548801 112.130925 
L 118.861603 107.972925 
L 122.174404 111.299325 
L 125.487205 124.604925 
L 128.800007 110.467725 
L 132.112808 127.931325 
L 135.42561 122.941725 
L 138.738411 127.099725 
L 142.051213 126.268125 
L 145.364014 130.426125 
L 148.676816 134.584125 
L 151.989617 142.068525 
L 155.302419 127.931325 
L 158.61522 142.068525 
L 161.928022 127.099725 
L 165.240823 133.752525 
L 168.553625 136.247325 
L 171.866426 137.910525 
L 175.179228 130.426125 
L 178.492029 128.762925 
L 181.804831 137.910525 
L 185.117632 132.920925 
L 188.430434 135.415725 
L 191.743235 148.721325 
L 195.056037 137.078925 
L 198.368838 136.247325 
L 201.68164 136.247325 
L 204.994441 130.426125 
L 208.307243 146.226525 
L 211.620044 144.563325 
L 214.932846 131.257725 
L 218.245647 142.900125 
L 221.558449 144.563325 
L 224.87125 147.058125 
L 228.184051 139.573725 
L 231.496853 141.236925 
L 234.809654 140.405325 
L 238.122456 137.910525 
L 241.435257 147.889725 
L 244.748059 142.900125 
L 248.06086 144.563325 
L 251.373662 146.226525 
L 254.686463 151.216125 
L 257.999265 152.047725 
L 261.312066 147.889725 
L 264.624868 147.889725 
L 267.937669 143.731725 
L 271.250471 154.542525 
L 274.563272 151.216125 
L 277.876074 142.068525 
L 281.188875 147.058125 
L 284.501677 140.405325 
L 287.814478 148.721325 
L 291.12728 139.573725 
L 294.440081 147.889725 
L 297.752883 150.384525 
L 301.065684 154.542525 
L 304.378486 154.542525 
L 307.691287 150.384525 
L 311.004089 156.205725 
L 314.31689 152.879325 
L 317.629692 146.226525 
L 320.942493 153.710925 
L 324.255295 150.384525 
L 327.568096 153.710925 
L 330.880897 146.226525 
L 334.193699 150.384525 
L 337.5065 155.374125 
L 340.819302 149.552925 
L 344.132103 158.700525 
L 347.444905 167.016525 
L 350.757706 157.037325 
L 354.070508 155.374125 
L 357.383309 160.363725 
L 360.696111 150.384525 
L 364.008912 162.026925 
L 367.321714 155.374125 
L 370.634515 166.184925 
L 373.947317 163.690125 
L 377.260118 157.868925 
L 380.57292 165.353325 
L 383.885721 162.026925 
L 387.198523 164.521725 
" style="fill:none;stroke:#ff7f0e;stroke-linecap:round;stroke-width:1.5;"/>
   </g>
   <g id="line2d_16">
    <path clip-path="url(#p80db6e34ec)" d="M 62.543977 88.014525 
L 65.856779 90.509325 
L 69.16958 88.014525 
L 72.482382 92.172525 
L 75.795183 109.636125 
L 79.107985 102.983325 
L 82.420786 113.794125 
L 85.733588 97.162125 
L 89.046389 112.962525 
L 92.359191 115.457325 
L 95.671992 104.646525 
L 98.984794 87.182925 
L 102.297595 110.467725 
L 105.610397 85.519725 
L 108.923198 82.193325 
L 112.236 89.677725 
L 115.548801 73.877325 
L 118.861603 92.172525 
L 122.174404 72.214125 
L 125.487205 68.887725 
L 128.800007 80.530125 
L 132.112808 80.530125 
L 135.42561 72.214125 
L 138.738411 87.182925 
L 142.051213 89.677725 
L 145.364014 113.794125 
L 148.676816 93.004125 
L 151.989617 94.667325 
L 155.302419 82.193325 
L 158.61522 77.203725 
L 161.928022 85.519725 
L 165.240823 94.667325 
L 168.553625 95.498925 
L 171.866426 90.509325 
L 175.179228 81.361725 
L 178.492029 88.846125 
L 181.804831 86.351325 
L 185.117632 83.856525 
L 188.430434 93.004125 
L 191.743235 95.498925 
L 195.056037 93.004125 
L 198.368838 108.804525 
L 201.68164 93.004125 
L 204.994441 101.320125 
L 208.307243 96.330525 
L 211.620044 107.141325 
L 214.932846 93.004125 
L 218.245647 92.172525 
L 221.558449 112.130925 
L 224.87125 97.162125 
L 228.184051 106.309725 
L 231.496853 90.509325 
L 234.809654 112.962525 
L 238.122456 94.667325 
L 241.435257 107.141325 
L 244.748059 109.636125 
L 248.06086 114.625725 
L 251.373662 115.457325 
L 254.686463 109.636125 
L 257.999265 118.783725 
L 261.312066 107.972925 
L 264.624868 116.288925 
L 267.937669 121.278525 
L 271.250471 136.247325 
L 274.563272 104.646525 
L 277.876074 122.941725 
L 281.188875 124.604925 
L 284.501677 108.804525 
L 287.814478 122.941725 
L 291.12728 128.762925 
L 294.440081 120.446925 
L 297.752883 139.573725 
L 301.065684 115.457325 
L 304.378486 127.931325 
L 307.691287 130.426125 
L 311.004089 123.773325 
L 314.31689 122.941725 
L 317.629692 123.773325 
L 320.942493 131.257725 
L 324.255295 128.762925 
L 327.568096 124.604925 
L 330.880897 121.278525 
L 334.193699 128.762925 
L 337.5065 156.205725 
L 340.819302 122.110125 
L 344.132103 112.962525 
L 347.444905 125.436525 
L 350.757706 135.415725 
L 354.070508 131.257725 
L 357.383309 138.742125 
L 360.696111 123.773325 
L 364.008912 131.257725 
L 367.321714 127.099725 
L 370.634515 143.731725 
L 373.947317 141.236925 
L 377.260118 139.573725 
L 380.57292 138.742125 
L 383.885721 128.762925 
L 387.198523 133.752525 
" style="fill:none;stroke:#2ca02c;stroke-linecap:round;stroke-width:1.5;"/>
   </g>
   <g id="line2d_17">
    <path clip-path="url(#p80db6e34ec)" d="M 62.543977 102.151725 
L 65.856779 100.488525 
L 69.16958 81.361725 
L 72.482382 98.825325 
L 75.795183 104.646525 
L 79.107985 89.677725 
L 82.420786 89.677725 
L 85.733588 102.151725 
L 89.046389 107.972925 
L 92.359191 115.457325 
L 95.671992 114.625725 
L 98.984794 112.130925 
L 102.297595 107.972925 
L 105.610397 104.646525 
L 108.923198 102.983325 
L 112.236 109.636125 
L 115.548801 118.783725 
L 118.861603 118.783725 
L 122.174404 104.646525 
L 125.487205 107.141325 
L 128.800007 95.498925 
L 132.112808 109.636125 
L 135.42561 90.509325 
L 138.738411 96.330525 
L 142.051213 98.825325 
L 145.364014 97.162125 
L 148.676816 115.457325 
L 151.989617 102.983325 
L 155.302419 100.488525 
L 158.61522 97.162125 
L 161.928022 127.931325 
L 165.240823 114.625725 
L 168.553625 122.110125 
L 171.866426 110.467725 
L 175.179228 119.615325 
L 178.492029 113.794125 
L 181.804831 119.615325 
L 185.117632 119.615325 
L 188.430434 112.962525 
L 191.743235 118.783725 
L 195.056037 115.457325 
L 198.368838 123.773325 
L 201.68164 131.257725 
L 204.994441 122.110125 
L 208.307243 129.594525 
L 211.620044 136.247325 
L 214.932846 136.247325 
L 218.245647 127.931325 
L 221.558449 142.068525 
L 224.87125 137.910525 
L 228.184051 142.068525 
L 231.496853 141.236925 
L 234.809654 141.236925 
L 238.122456 140.405325 
L 241.435257 144.563325 
L 244.748059 149.552925 
L 248.06086 141.236925 
L 251.373662 144.563325 
L 254.686463 142.068525 
L 257.999265 142.068525 
L 261.312066 146.226525 
L 264.624868 145.394925 
L 267.937669 146.226525 
L 271.250471 147.889725 
L 274.563272 144.563325 
L 277.876074 151.216125 
L 281.188875 131.257725 
L 284.501677 159.532125 
L 287.814478 149.552925 
L 291.12728 149.552925 
L 294.440081 153.710925 
L 297.752883 157.868925 
L 301.065684 149.552925 
L 304.378486 150.384525 
L 307.691287 154.542525 
L 311.004089 152.047725 
L 314.31689 147.889725 
L 317.629692 159.532125 
L 320.942493 150.384525 
L 324.255295 157.037325 
L 327.568096 157.037325 
L 330.880897 157.868925 
L 334.193699 159.532125 
L 337.5065 165.353325 
L 340.819302 153.710925 
L 344.132103 156.205725 
L 347.444905 164.521725 
L 350.757706 162.026925 
L 354.070508 164.521725 
L 357.383309 159.532125 
L 360.696111 163.690125 
L 364.008912 157.037325 
L 367.321714 148.721325 
L 370.634515 165.353325 
L 373.947317 168.679725 
L 377.260118 162.858525 
L 380.57292 162.026925 
L 383.885721 160.363725 
L 387.198523 164.521725 
" style="fill:none;stroke:#d62728;stroke-linecap:round;stroke-width:1.5;"/>
   </g>
   <g id="line2d_18">
    <path clip-path="url(#p80db6e34ec)" d="M 62.543977 161.195325 
L 65.856779 143.731725 
L 69.16958 142.068525 
L 72.482382 135.415725 
L 75.795183 136.247325 
L 79.107985 137.910525 
L 82.420786 142.900125 
L 85.733588 147.889725 
L 89.046389 148.721325 
L 92.359191 158.700525 
L 95.671992 152.047725 
L 98.984794 154.542525 
L 102.297595 148.721325 
L 105.610397 155.374125 
L 108.923198 163.690125 
L 112.236 170.342925 
L 115.548801 166.184925 
L 118.861603 173.669325 
L 122.174404 172.006125 
L 125.487205 173.669325 
L 128.800007 171.174525 
L 132.112808 167.848125 
L 135.42561 155.374125 
L 138.738411 191.132925 
L 142.051213 172.837725 
L 145.364014 158.700525 
L 148.676816 176.164125 
L 151.989617 157.037325 
L 155.302419 172.837725 
L 158.61522 175.332525 
L 161.928022 188.638125 
L 165.240823 176.164125 
L 168.553625 179.490525 
L 171.866426 177.827325 
L 175.179228 163.690125 
L 178.492029 177.827325 
L 181.804831 165.353325 
L 185.117632 161.195325 
L 188.430434 169.511325 
L 191.743235 176.995725 
L 195.056037 169.511325 
L 198.368838 163.690125 
L 201.68164 173.669325 
L 204.994441 169.511325 
L 208.307243 176.995725 
L 211.620044 160.363725 
L 214.932846 159.532125 
L 218.245647 164.521725 
L 221.558449 170.342925 
L 224.87125 162.858525 
L 228.184051 173.669325 
L 231.496853 165.353325 
L 234.809654 157.868925 
L 238.122456 163.690125 
L 241.435257 176.164125 
L 244.748059 171.174525 
L 248.06086 182.816925 
L 251.373662 176.995725 
L 254.686463 167.016525 
L 257.999265 173.669325 
L 261.312066 163.690125 
L 264.624868 166.184925 
L 267.937669 183.648525 
L 271.250471 183.648525 
L 274.563272 172.837725 
L 277.876074 171.174525 
L 281.188875 189.469725 
L 284.501677 170.342925 
L 287.814478 179.490525 
L 291.12728 181.153725 
L 294.440081 173.669325 
L 297.752883 177.827325 
L 301.065684 185.311725 
L 304.378486 167.016525 
L 307.691287 175.332525 
L 311.004089 181.985325 
L 314.31689 176.164125 
L 317.629692 182.816925 
L 320.942493 180.322125 
L 324.255295 191.132925 
L 327.568096 186.143325 
L 330.880897 178.658925 
L 334.193699 181.153725 
L 337.5065 173.669325 
L 340.819302 183.648525 
L 344.132103 183.648525 
L 347.444905 182.816925 
L 350.757706 176.164125 
L 354.070508 176.164125 
L 357.383309 178.658925 
L 360.696111 183.648525 
L 364.008912 179.490525 
L 367.321714 178.658925 
L 370.634515 182.816925 
L 373.947317 181.153725 
L 377.260118 178.658925 
L 380.57292 189.469725 
L 383.885721 186.143325 
L 387.198523 186.974925 
" style="fill:none;stroke:#9467bd;stroke-linecap:round;stroke-width:1.5;"/>
   </g>
   <g id="line2d_19"/>
   <g id="line2d_20"/>
   <g id="line2d_21"/>
   <g id="line2d_22"/>
   <g id="line2d_23"/>
   <g id="line2d_24"/>
   <g id="patch_3">
    <path d="M 46.31125 288.430125 
L 46.31125 22.318125 
" style="fill:none;stroke:#ffffff;stroke-linecap:square;stroke-linejoin:miter;stroke-width:1.25;"/>
   </g>
   <g id="patch_4">
    <path d="M 403.43125 288.430125 
L 403.43125 22.318125 
" style="fill:none;stroke:#ffffff;stroke-linecap:square;stroke-linejoin:miter;stroke-width:1.25;"/>
   </g>
   <g id="patch_5">
    <path d="M 46.31125 288.430125 
L 403.43125 288.430125 
" style="fill:none;stroke:#ffffff;stroke-linecap:square;stroke-linejoin:miter;stroke-width:1.25;"/>
   </g>
   <g id="patch_6">
    <path d="M 46.31125 22.318125 
L 403.43125 22.318125 
" style="fill:none;stroke:#ffffff;stroke-linecap:square;stroke-linejoin:miter;stroke-width:1.25;"/>
   </g>
   <g id="text_16">
    <!-- Max Rank=32 -->
    <defs>
     <path d="M 54.890625 54.6875 
L 35.109375 28.078125 
L 55.90625 0 
L 45.3125 0 
L 29.390625 21.484375 
L 13.484375 0 
L 2.875 0 
L 24.125 28.609375 
L 4.6875 54.6875 
L 15.28125 54.6875 
L 29.78125 35.203125 
L 44.28125 54.6875 
z
" id="DejaVuSans-120"/>
     <path d="M 10.59375 45.40625 
L 73.1875 45.40625 
L 73.1875 37.203125 
L 10.59375 37.203125 
z
M 10.59375 25.484375 
L 73.1875 25.484375 
L 73.1875 17.1875 
L 10.59375 17.1875 
z
" id="DejaVuSans-61"/>
    </defs>
    <g style="fill:#262626;" transform="translate(182.775625 16.318125)scale(0.12 -0.12)">
     <use xlink:href="#DejaVuSans-77"/>
     <use x="86.279297" xlink:href="#DejaVuSans-97"/>
     <use x="147.558594" xlink:href="#DejaVuSans-120"/>
     <use x="206.738281" xlink:href="#DejaVuSans-32"/>
     <use x="238.525391" xlink:href="#DejaVuSans-82"/>
     <use x="307.976562" xlink:href="#DejaVuSans-97"/>
     <use x="369.255859" xlink:href="#DejaVuSans-110"/>
     <use x="432.634766" xlink:href="#DejaVuSans-107"/>
     <use x="490.544922" xlink:href="#DejaVuSans-61"/>
     <use x="574.333984" xlink:href="#DejaVuSans-51"/>
     <use x="637.957031" xlink:href="#DejaVuSans-50"/>
    </g>
   </g>
   <g id="legend_1">
    <g id="patch_7">
     <path d="M 219.994219 111.847812 
L 395.73125 111.847812 
Q 397.93125 111.847812 397.93125 109.647812 
L 397.93125 30.018125 
Q 397.93125 27.818125 395.73125 27.818125 
L 219.994219 27.818125 
Q 217.794219 27.818125 217.794219 30.018125 
L 217.794219 109.647812 
Q 217.794219 111.847812 219.994219 111.847812 
z
" style="fill:#eaeaf2;opacity:0.8;stroke:#cccccc;stroke-linejoin:miter;"/>
    </g>
    <g id="line2d_25">
     <path d="M 222.194219 36.726406 
L 244.194219 36.726406 
" style="fill:none;stroke:#1f77b4;stroke-linecap:round;stroke-width:1.5;"/>
    </g>
    <g id="line2d_26"/>
    <g id="text_17">
     <!-- Output Layer -->
     <defs>
      <path d="M 39.40625 66.21875 
Q 28.65625 66.21875 22.328125 58.203125 
Q 16.015625 50.203125 16.015625 36.375 
Q 16.015625 22.609375 22.328125 14.59375 
Q 28.65625 6.59375 39.40625 6.59375 
Q 50.140625 6.59375 56.421875 14.59375 
Q 62.703125 22.609375 62.703125 36.375 
Q 62.703125 50.203125 56.421875 58.203125 
Q 50.140625 66.21875 39.40625 66.21875 
z
M 39.40625 74.21875 
Q 54.734375 74.21875 63.90625 63.9375 
Q 73.09375 53.65625 73.09375 36.375 
Q 73.09375 19.140625 63.90625 8.859375 
Q 54.734375 -1.421875 39.40625 -1.421875 
Q 24.03125 -1.421875 14.8125 8.828125 
Q 5.609375 19.09375 5.609375 36.375 
Q 5.609375 53.65625 14.8125 63.9375 
Q 24.03125 74.21875 39.40625 74.21875 
z
" id="DejaVuSans-79"/>
      <path d="M 8.5 21.578125 
L 8.5 54.6875 
L 17.484375 54.6875 
L 17.484375 21.921875 
Q 17.484375 14.15625 20.5 10.265625 
Q 23.53125 6.390625 29.59375 6.390625 
Q 36.859375 6.390625 41.078125 11.03125 
Q 45.3125 15.671875 45.3125 23.6875 
L 45.3125 54.6875 
L 54.296875 54.6875 
L 54.296875 0 
L 45.3125 0 
L 45.3125 8.40625 
Q 42.046875 3.421875 37.71875 1 
Q 33.40625 -1.421875 27.6875 -1.421875 
Q 18.265625 -1.421875 13.375 4.4375 
Q 8.5 10.296875 8.5 21.578125 
z
M 31.109375 56 
z
" id="DejaVuSans-117"/>
      <path d="M 9.8125 72.90625 
L 19.671875 72.90625 
L 19.671875 8.296875 
L 55.171875 8.296875 
L 55.171875 0 
L 9.8125 0 
z
" id="DejaVuSans-76"/>
      <path d="M 32.171875 -5.078125 
Q 28.375 -14.84375 24.75 -17.8125 
Q 21.140625 -20.796875 15.09375 -20.796875 
L 7.90625 -20.796875 
L 7.90625 -13.28125 
L 13.1875 -13.28125 
Q 16.890625 -13.28125 18.9375 -11.515625 
Q 21 -9.765625 23.484375 -3.21875 
L 25.09375 0.875 
L 2.984375 54.6875 
L 12.5 54.6875 
L 29.59375 11.921875 
L 46.6875 54.6875 
L 56.203125 54.6875 
z
" id="DejaVuSans-121"/>
     </defs>
     <g style="fill:#262626;" transform="translate(252.994219 40.576406)scale(0.11 -0.11)">
      <use xlink:href="#DejaVuSans-79"/>
      <use x="78.710938" xlink:href="#DejaVuSans-117"/>
      <use x="142.089844" xlink:href="#DejaVuSans-116"/>
      <use x="181.298828" xlink:href="#DejaVuSans-112"/>
      <use x="244.775391" xlink:href="#DejaVuSans-117"/>
      <use x="308.154297" xlink:href="#DejaVuSans-116"/>
      <use x="347.363281" xlink:href="#DejaVuSans-32"/>
      <use x="379.150391" xlink:href="#DejaVuSans-76"/>
      <use x="434.863281" xlink:href="#DejaVuSans-97"/>
      <use x="496.142578" xlink:href="#DejaVuSans-121"/>
      <use x="555.322266" xlink:href="#DejaVuSans-101"/>
      <use x="616.845703" xlink:href="#DejaVuSans-114"/>
     </g>
    </g>
    <g id="line2d_27">
     <path d="M 222.194219 52.872344 
L 244.194219 52.872344 
" style="fill:none;stroke:#ff7f0e;stroke-linecap:round;stroke-width:1.5;"/>
    </g>
    <g id="line2d_28"/>
    <g id="text_18">
     <!-- 2nd FC - 512x256 -->
     <defs>
      <path d="M 45.40625 46.390625 
L 45.40625 75.984375 
L 54.390625 75.984375 
L 54.390625 0 
L 45.40625 0 
L 45.40625 8.203125 
Q 42.578125 3.328125 38.25 0.953125 
Q 33.9375 -1.421875 27.875 -1.421875 
Q 17.96875 -1.421875 11.734375 6.484375 
Q 5.515625 14.40625 5.515625 27.296875 
Q 5.515625 40.1875 11.734375 48.09375 
Q 17.96875 56 27.875 56 
Q 33.9375 56 38.25 53.625 
Q 42.578125 51.265625 45.40625 46.390625 
z
M 14.796875 27.296875 
Q 14.796875 17.390625 18.875 11.75 
Q 22.953125 6.109375 30.078125 6.109375 
Q 37.203125 6.109375 41.296875 11.75 
Q 45.40625 17.390625 45.40625 27.296875 
Q 45.40625 37.203125 41.296875 42.84375 
Q 37.203125 48.484375 30.078125 48.484375 
Q 22.953125 48.484375 18.875 42.84375 
Q 14.796875 37.203125 14.796875 27.296875 
z
" id="DejaVuSans-100"/>
      <path d="M 9.8125 72.90625 
L 51.703125 72.90625 
L 51.703125 64.59375 
L 19.671875 64.59375 
L 19.671875 43.109375 
L 48.578125 43.109375 
L 48.578125 34.8125 
L 19.671875 34.8125 
L 19.671875 0 
L 9.8125 0 
z
" id="DejaVuSans-70"/>
      <path d="M 64.40625 67.28125 
L 64.40625 56.890625 
Q 59.421875 61.53125 53.78125 63.8125 
Q 48.140625 66.109375 41.796875 66.109375 
Q 29.296875 66.109375 22.65625 58.46875 
Q 16.015625 50.828125 16.015625 36.375 
Q 16.015625 21.96875 22.65625 14.328125 
Q 29.296875 6.6875 41.796875 6.6875 
Q 48.140625 6.6875 53.78125 8.984375 
Q 59.421875 11.28125 64.40625 15.921875 
L 64.40625 5.609375 
Q 59.234375 2.09375 53.4375 0.328125 
Q 47.65625 -1.421875 41.21875 -1.421875 
Q 24.65625 -1.421875 15.125 8.703125 
Q 5.609375 18.84375 5.609375 36.375 
Q 5.609375 53.953125 15.125 64.078125 
Q 24.65625 74.21875 41.21875 74.21875 
Q 47.75 74.21875 53.53125 72.484375 
Q 59.328125 70.75 64.40625 67.28125 
z
" id="DejaVuSans-67"/>
     </defs>
     <g style="fill:#262626;" transform="translate(252.994219 56.722344)scale(0.11 -0.11)">
      <use xlink:href="#DejaVuSans-50"/>
      <use x="63.623047" xlink:href="#DejaVuSans-110"/>
      <use x="127.001953" xlink:href="#DejaVuSans-100"/>
      <use x="190.478516" xlink:href="#DejaVuSans-32"/>
      <use x="222.265625" xlink:href="#DejaVuSans-70"/>
      <use x="279.785156" xlink:href="#DejaVuSans-67"/>
      <use x="349.609375" xlink:href="#DejaVuSans-32"/>
      <use x="381.396484" xlink:href="#DejaVuSans-45"/>
      <use x="417.480469" xlink:href="#DejaVuSans-32"/>
      <use x="449.267578" xlink:href="#DejaVuSans-53"/>
      <use x="512.890625" xlink:href="#DejaVuSans-49"/>
      <use x="576.513672" xlink:href="#DejaVuSans-50"/>
      <use x="640.136719" xlink:href="#DejaVuSans-120"/>
      <use x="699.316406" xlink:href="#DejaVuSans-50"/>
      <use x="762.939453" xlink:href="#DejaVuSans-53"/>
      <use x="826.5625" xlink:href="#DejaVuSans-54"/>
     </g>
    </g>
    <g id="line2d_29">
     <path d="M 222.194219 69.018281 
L 244.194219 69.018281 
" style="fill:none;stroke:#2ca02c;stroke-linecap:round;stroke-width:1.5;"/>
    </g>
    <g id="line2d_30"/>
    <g id="text_19">
     <!-- 1st FC - SEQ*64 x 512 -->
     <defs>
      <path d="M 53.515625 70.515625 
L 53.515625 60.890625 
Q 47.90625 63.578125 42.921875 64.890625 
Q 37.9375 66.21875 33.296875 66.21875 
Q 25.25 66.21875 20.875 63.09375 
Q 16.5 59.96875 16.5 54.203125 
Q 16.5 49.359375 19.40625 46.890625 
Q 22.3125 44.4375 30.421875 42.921875 
L 36.375 41.703125 
Q 47.40625 39.59375 52.65625 34.296875 
Q 57.90625 29 57.90625 20.125 
Q 57.90625 9.515625 50.796875 4.046875 
Q 43.703125 -1.421875 29.984375 -1.421875 
Q 24.8125 -1.421875 18.96875 -0.25 
Q 13.140625 0.921875 6.890625 3.21875 
L 6.890625 13.375 
Q 12.890625 10.015625 18.65625 8.296875 
Q 24.421875 6.59375 29.984375 6.59375 
Q 38.421875 6.59375 43.015625 9.90625 
Q 47.609375 13.234375 47.609375 19.390625 
Q 47.609375 24.75 44.3125 27.78125 
Q 41.015625 30.8125 33.5 32.328125 
L 27.484375 33.5 
Q 16.453125 35.6875 11.515625 40.375 
Q 6.59375 45.0625 6.59375 53.421875 
Q 6.59375 63.09375 13.40625 68.65625 
Q 20.21875 74.21875 32.171875 74.21875 
Q 37.3125 74.21875 42.625 73.28125 
Q 47.953125 72.359375 53.515625 70.515625 
z
" id="DejaVuSans-83"/>
      <path d="M 39.40625 66.21875 
Q 28.65625 66.21875 22.328125 58.203125 
Q 16.015625 50.203125 16.015625 36.375 
Q 16.015625 22.609375 22.328125 14.59375 
Q 28.65625 6.59375 39.40625 6.59375 
Q 50.140625 6.59375 56.421875 14.59375 
Q 62.703125 22.609375 62.703125 36.375 
Q 62.703125 50.203125 56.421875 58.203125 
Q 50.140625 66.21875 39.40625 66.21875 
z
M 53.21875 1.3125 
L 66.21875 -12.890625 
L 54.296875 -12.890625 
L 43.5 -1.21875 
Q 41.890625 -1.3125 41.03125 -1.359375 
Q 40.1875 -1.421875 39.40625 -1.421875 
Q 24.03125 -1.421875 14.8125 8.859375 
Q 5.609375 19.140625 5.609375 36.375 
Q 5.609375 53.65625 14.8125 63.9375 
Q 24.03125 74.21875 39.40625 74.21875 
Q 54.734375 74.21875 63.90625 63.9375 
Q 73.09375 53.65625 73.09375 36.375 
Q 73.09375 23.6875 67.984375 14.640625 
Q 62.890625 5.609375 53.21875 1.3125 
z
" id="DejaVuSans-81"/>
      <path d="M 47.015625 60.890625 
L 29.5 51.421875 
L 47.015625 41.890625 
L 44.1875 37.109375 
L 27.78125 47.015625 
L 27.78125 28.609375 
L 22.21875 28.609375 
L 22.21875 47.015625 
L 5.8125 37.109375 
L 2.984375 41.890625 
L 20.515625 51.421875 
L 2.984375 60.890625 
L 5.8125 65.71875 
L 22.21875 55.8125 
L 22.21875 74.21875 
L 27.78125 74.21875 
L 27.78125 55.8125 
L 44.1875 65.71875 
z
" id="DejaVuSans-42"/>
     </defs>
     <g style="fill:#262626;" transform="translate(252.994219 72.868281)scale(0.11 -0.11)">
      <use xlink:href="#DejaVuSans-49"/>
      <use x="63.623047" xlink:href="#DejaVuSans-115"/>
      <use x="115.722656" xlink:href="#DejaVuSans-116"/>
      <use x="154.931641" xlink:href="#DejaVuSans-32"/>
      <use x="186.71875" xlink:href="#DejaVuSans-70"/>
      <use x="244.238281" xlink:href="#DejaVuSans-67"/>
      <use x="314.0625" xlink:href="#DejaVuSans-32"/>
      <use x="345.849609" xlink:href="#DejaVuSans-45"/>
      <use x="381.933594" xlink:href="#DejaVuSans-32"/>
      <use x="413.720703" xlink:href="#DejaVuSans-83"/>
      <use x="477.197266" xlink:href="#DejaVuSans-69"/>
      <use x="540.380859" xlink:href="#DejaVuSans-81"/>
      <use x="619.091797" xlink:href="#DejaVuSans-42"/>
      <use x="669.091797" xlink:href="#DejaVuSans-54"/>
      <use x="732.714844" xlink:href="#DejaVuSans-52"/>
      <use x="796.337891" xlink:href="#DejaVuSans-32"/>
      <use x="828.125" xlink:href="#DejaVuSans-120"/>
      <use x="887.304688" xlink:href="#DejaVuSans-32"/>
      <use x="919.091797" xlink:href="#DejaVuSans-53"/>
      <use x="982.714844" xlink:href="#DejaVuSans-49"/>
      <use x="1046.337891" xlink:href="#DejaVuSans-50"/>
     </g>
    </g>
    <g id="line2d_31">
     <path d="M 222.194219 85.164219 
L 244.194219 85.164219 
" style="fill:none;stroke:#d62728;stroke-linecap:round;stroke-width:1.5;"/>
    </g>
    <g id="line2d_32"/>
    <g id="text_20">
     <!-- Reccurent Layer (dim 64) -->
     <defs>
      <path d="M 31 75.875 
Q 24.46875 64.65625 21.28125 53.65625 
Q 18.109375 42.671875 18.109375 31.390625 
Q 18.109375 20.125 21.3125 9.0625 
Q 24.515625 -2 31 -13.1875 
L 23.1875 -13.1875 
Q 15.875 -1.703125 12.234375 9.375 
Q 8.59375 20.453125 8.59375 31.390625 
Q 8.59375 42.28125 12.203125 53.3125 
Q 15.828125 64.359375 23.1875 75.875 
z
" id="DejaVuSans-40"/>
      <path d="M 52 44.1875 
Q 55.375 50.25 60.0625 53.125 
Q 64.75 56 71.09375 56 
Q 79.640625 56 84.28125 50.015625 
Q 88.921875 44.046875 88.921875 33.015625 
L 88.921875 0 
L 79.890625 0 
L 79.890625 32.71875 
Q 79.890625 40.578125 77.09375 44.375 
Q 74.3125 48.1875 68.609375 48.1875 
Q 61.625 48.1875 57.5625 43.546875 
Q 53.515625 38.921875 53.515625 30.90625 
L 53.515625 0 
L 44.484375 0 
L 44.484375 32.71875 
Q 44.484375 40.625 41.703125 44.40625 
Q 38.921875 48.1875 33.109375 48.1875 
Q 26.21875 48.1875 22.15625 43.53125 
Q 18.109375 38.875 18.109375 30.90625 
L 18.109375 0 
L 9.078125 0 
L 9.078125 54.6875 
L 18.109375 54.6875 
L 18.109375 46.1875 
Q 21.1875 51.21875 25.484375 53.609375 
Q 29.78125 56 35.6875 56 
Q 41.65625 56 45.828125 52.96875 
Q 50 49.953125 52 44.1875 
z
" id="DejaVuSans-109"/>
      <path d="M 8.015625 75.875 
L 15.828125 75.875 
Q 23.140625 64.359375 26.78125 53.3125 
Q 30.421875 42.28125 30.421875 31.390625 
Q 30.421875 20.453125 26.78125 9.375 
Q 23.140625 -1.703125 15.828125 -13.1875 
L 8.015625 -13.1875 
Q 14.5 -2 17.703125 9.0625 
Q 20.90625 20.125 20.90625 31.390625 
Q 20.90625 42.671875 17.703125 53.65625 
Q 14.5 64.65625 8.015625 75.875 
z
" id="DejaVuSans-41"/>
     </defs>
     <g style="fill:#262626;" transform="translate(252.994219 89.014219)scale(0.11 -0.11)">
      <use xlink:href="#DejaVuSans-82"/>
      <use x="69.419922" xlink:href="#DejaVuSans-101"/>
      <use x="130.943359" xlink:href="#DejaVuSans-99"/>
      <use x="185.923828" xlink:href="#DejaVuSans-99"/>
      <use x="240.904297" xlink:href="#DejaVuSans-117"/>
      <use x="304.283203" xlink:href="#DejaVuSans-114"/>
      <use x="345.365234" xlink:href="#DejaVuSans-101"/>
      <use x="406.888672" xlink:href="#DejaVuSans-110"/>
      <use x="470.267578" xlink:href="#DejaVuSans-116"/>
      <use x="509.476562" xlink:href="#DejaVuSans-32"/>
      <use x="541.263672" xlink:href="#DejaVuSans-76"/>
      <use x="596.976562" xlink:href="#DejaVuSans-97"/>
      <use x="658.255859" xlink:href="#DejaVuSans-121"/>
      <use x="717.435547" xlink:href="#DejaVuSans-101"/>
      <use x="778.958984" xlink:href="#DejaVuSans-114"/>
      <use x="820.072266" xlink:href="#DejaVuSans-32"/>
      <use x="851.859375" xlink:href="#DejaVuSans-40"/>
      <use x="890.873047" xlink:href="#DejaVuSans-100"/>
      <use x="954.349609" xlink:href="#DejaVuSans-105"/>
      <use x="982.132812" xlink:href="#DejaVuSans-109"/>
      <use x="1079.544922" xlink:href="#DejaVuSans-32"/>
      <use x="1111.332031" xlink:href="#DejaVuSans-54"/>
      <use x="1174.955078" xlink:href="#DejaVuSans-52"/>
      <use x="1238.578125" xlink:href="#DejaVuSans-41"/>
     </g>
    </g>
    <g id="line2d_33">
     <path d="M 222.194219 101.310156 
L 244.194219 101.310156 
" style="fill:none;stroke:#9467bd;stroke-linecap:round;stroke-width:1.5;"/>
    </g>
    <g id="line2d_34"/>
    <g id="text_21">
     <!-- Input Layer -->
     <defs>
      <path d="M 9.8125 72.90625 
L 19.671875 72.90625 
L 19.671875 0 
L 9.8125 0 
z
" id="DejaVuSans-73"/>
     </defs>
     <g style="fill:#262626;" transform="translate(252.994219 105.160156)scale(0.11 -0.11)">
      <use xlink:href="#DejaVuSans-73"/>
      <use x="29.492188" xlink:href="#DejaVuSans-110"/>
      <use x="92.871094" xlink:href="#DejaVuSans-112"/>
      <use x="156.347656" xlink:href="#DejaVuSans-117"/>
      <use x="219.726562" xlink:href="#DejaVuSans-116"/>
      <use x="258.935547" xlink:href="#DejaVuSans-32"/>
      <use x="290.722656" xlink:href="#DejaVuSans-76"/>
      <use x="346.435547" xlink:href="#DejaVuSans-97"/>
      <use x="407.714844" xlink:href="#DejaVuSans-121"/>
      <use x="466.894531" xlink:href="#DejaVuSans-101"/>
      <use x="528.417969" xlink:href="#DejaVuSans-114"/>
     </g>
    </g>
   </g>
  </g>
 </g>
 <defs>
  <clipPath id="p80db6e34ec">
   <rect height="266.112" width="357.12" x="46.31125" y="22.318125"/>
  </clipPath>
 </defs>
</svg>
