<?xml version="1.0" encoding="utf-8" standalone="no"?>
<!DOCTYPE svg PUBLIC "-//W3C//DTD SVG 1.1//EN"
  "http://www.w3.org/Graphics/SVG/1.1/DTD/svg11.dtd">
<!-- Created with matplotlib (https://matplotlib.org/) -->
<svg height="315.776062pt" version="1.1" viewBox="0 0 398.513437 315.776062" width="398.513437pt" xmlns="http://www.w3.org/2000/svg" xmlns:xlink="http://www.w3.org/1999/xlink">
 <defs>
  <style type="text/css">
*{stroke-linecap:butt;stroke-linejoin:round;}
  </style>
 </defs>
 <g id="figure_1">
  <g id="patch_1">
   <path d="M 0 315.776062 
L 398.513437 315.776062 
L 398.513437 0 
L 0 0 
z
" style="fill:#ffffff;"/>
  </g>
  <g id="axes_1">
   <g id="patch_2">
    <path d="M 34.193438 288.430125 
L 391.313438 288.430125 
L 391.313438 22.318125 
L 34.193438 22.318125 
z
" style="fill:#eaeaf2;"/>
   </g>
   <g id="matplotlib.axis_1">
    <g id="xtick_1">
     <g id="line2d_1">
      <path clip-path="url(#pe212c0b982)" d="M 50.426165 288.430125 
L 50.426165 22.318125 
" style="fill:none;stroke:#ffffff;stroke-linecap:round;"/>
     </g>
     <g id="text_1">
      <!-- 0 -->
      <defs>
       <path d="M 31.78125 66.40625 
Q 24.171875 66.40625 20.328125 58.90625 
Q 16.5 51.421875 16.5 36.375 
Q 16.5 21.390625 20.328125 13.890625 
Q 24.171875 6.390625 31.78125 6.390625 
Q 39.453125 6.390625 43.28125 13.890625 
Q 47.125 21.390625 47.125 36.375 
Q 47.125 51.421875 43.28125 58.90625 
Q 39.453125 66.40625 31.78125 66.40625 
z
M 31.78125 74.21875 
Q 44.046875 74.21875 50.515625 64.515625 
Q 56.984375 54.828125 56.984375 36.375 
Q 56.984375 17.96875 50.515625 8.265625 
Q 44.046875 -1.421875 31.78125 -1.421875 
Q 19.53125 -1.421875 13.0625 8.265625 
Q 6.59375 17.96875 6.59375 36.375 
Q 6.59375 54.828125 13.0625 64.515625 
Q 19.53125 74.21875 31.78125 74.21875 
z
" id="DejaVuSans-48"/>
      </defs>
      <g style="fill:#262626;" transform="translate(46.92679 306.288406)scale(0.11 -0.11)">
       <use xlink:href="#DejaVuSans-48"/>
      </g>
     </g>
    </g>
    <g id="xtick_2">
     <g id="line2d_2">
      <path clip-path="url(#pe212c0b982)" d="M 116.012942 288.430125 
L 116.012942 22.318125 
" style="fill:none;stroke:#ffffff;stroke-linecap:round;"/>
     </g>
     <g id="text_2">
      <!-- 20 -->
      <defs>
       <path d="M 19.1875 8.296875 
L 53.609375 8.296875 
L 53.609375 0 
L 7.328125 0 
L 7.328125 8.296875 
Q 12.9375 14.109375 22.625 23.890625 
Q 32.328125 33.6875 34.8125 36.53125 
Q 39.546875 41.84375 41.421875 45.53125 
Q 43.3125 49.21875 43.3125 52.78125 
Q 43.3125 58.59375 39.234375 62.25 
Q 35.15625 65.921875 28.609375 65.921875 
Q 23.96875 65.921875 18.8125 64.3125 
Q 13.671875 62.703125 7.8125 59.421875 
L 7.8125 69.390625 
Q 13.765625 71.78125 18.9375 73 
Q 24.125 74.21875 28.421875 74.21875 
Q 39.75 74.21875 46.484375 68.546875 
Q 53.21875 62.890625 53.21875 53.421875 
Q 53.21875 48.921875 51.53125 44.890625 
Q 49.859375 40.875 45.40625 35.40625 
Q 44.1875 33.984375 37.640625 27.21875 
Q 31.109375 20.453125 19.1875 8.296875 
z
" id="DejaVuSans-50"/>
      </defs>
      <g style="fill:#262626;" transform="translate(109.014192 306.288406)scale(0.11 -0.11)">
       <use xlink:href="#DejaVuSans-50"/>
       <use x="63.623047" xlink:href="#DejaVuSans-48"/>
      </g>
     </g>
    </g>
    <g id="xtick_3">
     <g id="line2d_3">
      <path clip-path="url(#pe212c0b982)" d="M 181.599718 288.430125 
L 181.599718 22.318125 
" style="fill:none;stroke:#ffffff;stroke-linecap:round;"/>
     </g>
     <g id="text_3">
      <!-- 40 -->
      <defs>
       <path d="M 37.796875 64.3125 
L 12.890625 25.390625 
L 37.796875 25.390625 
z
M 35.203125 72.90625 
L 47.609375 72.90625 
L 47.609375 25.390625 
L 58.015625 25.390625 
L 58.015625 17.1875 
L 47.609375 17.1875 
L 47.609375 0 
L 37.796875 0 
L 37.796875 17.1875 
L 4.890625 17.1875 
L 4.890625 26.703125 
z
" id="DejaVuSans-52"/>
      </defs>
      <g style="fill:#262626;" transform="translate(174.600968 306.288406)scale(0.11 -0.11)">
       <use xlink:href="#DejaVuSans-52"/>
       <use x="63.623047" xlink:href="#DejaVuSans-48"/>
      </g>
     </g>
    </g>
    <g id="xtick_4">
     <g id="line2d_4">
      <path clip-path="url(#pe212c0b982)" d="M 247.186495 288.430125 
L 247.186495 22.318125 
" style="fill:none;stroke:#ffffff;stroke-linecap:round;"/>
     </g>
     <g id="text_4">
      <!-- 60 -->
      <defs>
       <path d="M 33.015625 40.375 
Q 26.375 40.375 22.484375 35.828125 
Q 18.609375 31.296875 18.609375 23.390625 
Q 18.609375 15.53125 22.484375 10.953125 
Q 26.375 6.390625 33.015625 6.390625 
Q 39.65625 6.390625 43.53125 10.953125 
Q 47.40625 15.53125 47.40625 23.390625 
Q 47.40625 31.296875 43.53125 35.828125 
Q 39.65625 40.375 33.015625 40.375 
z
M 52.59375 71.296875 
L 52.59375 62.3125 
Q 48.875 64.0625 45.09375 64.984375 
Q 41.3125 65.921875 37.59375 65.921875 
Q 27.828125 65.921875 22.671875 59.328125 
Q 17.53125 52.734375 16.796875 39.40625 
Q 19.671875 43.65625 24.015625 45.921875 
Q 28.375 48.1875 33.59375 48.1875 
Q 44.578125 48.1875 50.953125 41.515625 
Q 57.328125 34.859375 57.328125 23.390625 
Q 57.328125 12.15625 50.6875 5.359375 
Q 44.046875 -1.421875 33.015625 -1.421875 
Q 20.359375 -1.421875 13.671875 8.265625 
Q 6.984375 17.96875 6.984375 36.375 
Q 6.984375 53.65625 15.1875 63.9375 
Q 23.390625 74.21875 37.203125 74.21875 
Q 40.921875 74.21875 44.703125 73.484375 
Q 48.484375 72.75 52.59375 71.296875 
z
" id="DejaVuSans-54"/>
      </defs>
      <g style="fill:#262626;" transform="translate(240.187745 306.288406)scale(0.11 -0.11)">
       <use xlink:href="#DejaVuSans-54"/>
       <use x="63.623047" xlink:href="#DejaVuSans-48"/>
      </g>
     </g>
    </g>
    <g id="xtick_5">
     <g id="line2d_5">
      <path clip-path="url(#pe212c0b982)" d="M 312.773272 288.430125 
L 312.773272 22.318125 
" style="fill:none;stroke:#ffffff;stroke-linecap:round;"/>
     </g>
     <g id="text_5">
      <!-- 80 -->
      <defs>
       <path d="M 31.78125 34.625 
Q 24.75 34.625 20.71875 30.859375 
Q 16.703125 27.09375 16.703125 20.515625 
Q 16.703125 13.921875 20.71875 10.15625 
Q 24.75 6.390625 31.78125 6.390625 
Q 38.8125 6.390625 42.859375 10.171875 
Q 46.921875 13.96875 46.921875 20.515625 
Q 46.921875 27.09375 42.890625 30.859375 
Q 38.875 34.625 31.78125 34.625 
z
M 21.921875 38.8125 
Q 15.578125 40.375 12.03125 44.71875 
Q 8.5 49.078125 8.5 55.328125 
Q 8.5 64.0625 14.71875 69.140625 
Q 20.953125 74.21875 31.78125 74.21875 
Q 42.671875 74.21875 48.875 69.140625 
Q 55.078125 64.0625 55.078125 55.328125 
Q 55.078125 49.078125 51.53125 44.71875 
Q 48 40.375 41.703125 38.8125 
Q 48.828125 37.15625 52.796875 32.3125 
Q 56.78125 27.484375 56.78125 20.515625 
Q 56.78125 9.90625 50.3125 4.234375 
Q 43.84375 -1.421875 31.78125 -1.421875 
Q 19.734375 -1.421875 13.25 4.234375 
Q 6.78125 9.90625 6.78125 20.515625 
Q 6.78125 27.484375 10.78125 32.3125 
Q 14.796875 37.15625 21.921875 38.8125 
z
M 18.3125 54.390625 
Q 18.3125 48.734375 21.84375 45.5625 
Q 25.390625 42.390625 31.78125 42.390625 
Q 38.140625 42.390625 41.71875 45.5625 
Q 45.3125 48.734375 45.3125 54.390625 
Q 45.3125 60.0625 41.71875 63.234375 
Q 38.140625 66.40625 31.78125 66.40625 
Q 25.390625 66.40625 21.84375 63.234375 
Q 18.3125 60.0625 18.3125 54.390625 
z
" id="DejaVuSans-56"/>
      </defs>
      <g style="fill:#262626;" transform="translate(305.774522 306.288406)scale(0.11 -0.11)">
       <use xlink:href="#DejaVuSans-56"/>
       <use x="63.623047" xlink:href="#DejaVuSans-48"/>
      </g>
     </g>
    </g>
    <g id="xtick_6">
     <g id="line2d_6">
      <path clip-path="url(#pe212c0b982)" d="M 378.360049 288.430125 
L 378.360049 22.318125 
" style="fill:none;stroke:#ffffff;stroke-linecap:round;"/>
     </g>
     <g id="text_6">
      <!-- 100 -->
      <defs>
       <path d="M 12.40625 8.296875 
L 28.515625 8.296875 
L 28.515625 63.921875 
L 10.984375 60.40625 
L 10.984375 69.390625 
L 28.421875 72.90625 
L 38.28125 72.90625 
L 38.28125 8.296875 
L 54.390625 8.296875 
L 54.390625 0 
L 12.40625 0 
z
" id="DejaVuSans-49"/>
      </defs>
      <g style="fill:#262626;" transform="translate(367.861924 306.288406)scale(0.11 -0.11)">
       <use xlink:href="#DejaVuSans-49"/>
       <use x="63.623047" xlink:href="#DejaVuSans-48"/>
       <use x="127.246094" xlink:href="#DejaVuSans-48"/>
      </g>
     </g>
    </g>
   </g>
   <g id="matplotlib.axis_2">
    <g id="ytick_1">
     <g id="line2d_7">
      <path clip-path="url(#pe212c0b982)" d="M 34.193438 270.370395 
L 391.313438 270.370395 
" style="fill:none;stroke:#ffffff;stroke-linecap:round;"/>
     </g>
     <g id="text_7">
      <!-- 0.3 -->
      <defs>
       <path d="M 10.6875 12.40625 
L 21 12.40625 
L 21 0 
L 10.6875 0 
z
" id="DejaVuSans-46"/>
       <path d="M 40.578125 39.3125 
Q 47.65625 37.796875 51.625 33 
Q 55.609375 28.21875 55.609375 21.1875 
Q 55.609375 10.40625 48.1875 4.484375 
Q 40.765625 -1.421875 27.09375 -1.421875 
Q 22.515625 -1.421875 17.65625 -0.515625 
Q 12.796875 0.390625 7.625 2.203125 
L 7.625 11.71875 
Q 11.71875 9.328125 16.59375 8.109375 
Q 21.484375 6.890625 26.8125 6.890625 
Q 36.078125 6.890625 40.9375 10.546875 
Q 45.796875 14.203125 45.796875 21.1875 
Q 45.796875 27.640625 41.28125 31.265625 
Q 36.765625 34.90625 28.71875 34.90625 
L 20.21875 34.90625 
L 20.21875 43.015625 
L 29.109375 43.015625 
Q 36.375 43.015625 40.234375 45.921875 
Q 44.09375 48.828125 44.09375 54.296875 
Q 44.09375 59.90625 40.109375 62.90625 
Q 36.140625 65.921875 28.71875 65.921875 
Q 24.65625 65.921875 20.015625 65.03125 
Q 15.375 64.15625 9.8125 62.3125 
L 9.8125 71.09375 
Q 15.4375 72.65625 20.34375 73.4375 
Q 25.25 74.21875 29.59375 74.21875 
Q 40.828125 74.21875 47.359375 69.109375 
Q 53.90625 64.015625 53.90625 55.328125 
Q 53.90625 49.265625 50.4375 45.09375 
Q 46.96875 40.921875 40.578125 39.3125 
z
" id="DejaVuSans-51"/>
      </defs>
      <g style="fill:#262626;" transform="translate(7.2 274.549536)scale(0.11 -0.11)">
       <use xlink:href="#DejaVuSans-48"/>
       <use x="63.623047" xlink:href="#DejaVuSans-46"/>
       <use x="95.410156" xlink:href="#DejaVuSans-51"/>
      </g>
     </g>
    </g>
    <g id="ytick_2">
     <g id="line2d_8">
      <path clip-path="url(#pe212c0b982)" d="M 34.193438 217.215411 
L 391.313438 217.215411 
" style="fill:none;stroke:#ffffff;stroke-linecap:round;"/>
     </g>
     <g id="text_8">
      <!-- 0.4 -->
      <g style="fill:#262626;" transform="translate(7.2 221.394552)scale(0.11 -0.11)">
       <use xlink:href="#DejaVuSans-48"/>
       <use x="63.623047" xlink:href="#DejaVuSans-46"/>
       <use x="95.410156" xlink:href="#DejaVuSans-52"/>
      </g>
     </g>
    </g>
    <g id="ytick_3">
     <g id="line2d_9">
      <path clip-path="url(#pe212c0b982)" d="M 34.193438 164.060427 
L 391.313438 164.060427 
" style="fill:none;stroke:#ffffff;stroke-linecap:round;"/>
     </g>
     <g id="text_9">
      <!-- 0.5 -->
      <defs>
       <path d="M 10.796875 72.90625 
L 49.515625 72.90625 
L 49.515625 64.59375 
L 19.828125 64.59375 
L 19.828125 46.734375 
Q 21.96875 47.46875 24.109375 47.828125 
Q 26.265625 48.1875 28.421875 48.1875 
Q 40.625 48.1875 47.75 41.5 
Q 54.890625 34.8125 54.890625 23.390625 
Q 54.890625 11.625 47.5625 5.09375 
Q 40.234375 -1.421875 26.90625 -1.421875 
Q 22.3125 -1.421875 17.546875 -0.640625 
Q 12.796875 0.140625 7.71875 1.703125 
L 7.71875 11.625 
Q 12.109375 9.234375 16.796875 8.0625 
Q 21.484375 6.890625 26.703125 6.890625 
Q 35.15625 6.890625 40.078125 11.328125 
Q 45.015625 15.765625 45.015625 23.390625 
Q 45.015625 31 40.078125 35.4375 
Q 35.15625 39.890625 26.703125 39.890625 
Q 22.75 39.890625 18.8125 39.015625 
Q 14.890625 38.140625 10.796875 36.28125 
z
" id="DejaVuSans-53"/>
      </defs>
      <g style="fill:#262626;" transform="translate(7.2 168.239568)scale(0.11 -0.11)">
       <use xlink:href="#DejaVuSans-48"/>
       <use x="63.623047" xlink:href="#DejaVuSans-46"/>
       <use x="95.410156" xlink:href="#DejaVuSans-53"/>
      </g>
     </g>
    </g>
    <g id="ytick_4">
     <g id="line2d_10">
      <path clip-path="url(#pe212c0b982)" d="M 34.193438 110.905443 
L 391.313438 110.905443 
" style="fill:none;stroke:#ffffff;stroke-linecap:round;"/>
     </g>
     <g id="text_10">
      <!-- 0.6 -->
      <g style="fill:#262626;" transform="translate(7.2 115.084584)scale(0.11 -0.11)">
       <use xlink:href="#DejaVuSans-48"/>
       <use x="63.623047" xlink:href="#DejaVuSans-46"/>
       <use x="95.410156" xlink:href="#DejaVuSans-54"/>
      </g>
     </g>
    </g>
    <g id="ytick_5">
     <g id="line2d_11">
      <path clip-path="url(#pe212c0b982)" d="M 34.193438 57.750459 
L 391.313438 57.750459 
" style="fill:none;stroke:#ffffff;stroke-linecap:round;"/>
     </g>
     <g id="text_11">
      <!-- 0.7 -->
      <defs>
       <path d="M 8.203125 72.90625 
L 55.078125 72.90625 
L 55.078125 68.703125 
L 28.609375 0 
L 18.3125 0 
L 43.21875 64.59375 
L 8.203125 64.59375 
z
" id="DejaVuSans-55"/>
      </defs>
      <g style="fill:#262626;" transform="translate(7.2 61.9296)scale(0.11 -0.11)">
       <use xlink:href="#DejaVuSans-48"/>
       <use x="63.623047" xlink:href="#DejaVuSans-46"/>
       <use x="95.410156" xlink:href="#DejaVuSans-55"/>
      </g>
     </g>
    </g>
   </g>
   <g id="PolyCollection_1">
    <defs>
     <path d="M 50.426165 -271.249526 
L 50.426165 -269.69377 
L 53.705504 -258.803481 
L 56.984842 -268.6566 
L 60.264181 -263.211455 
L 63.54352 -269.045539 
L 66.822859 -268.397307 
L 70.102198 -263.211455 
L 73.381537 -263.211455 
L 76.660876 -261.914992 
L 79.940214 -261.914992 
L 83.219553 -260.618529 
L 86.498892 -261.914992 
L 89.778231 -267.100844 
L 93.05757 -261.914992 
L 96.336909 -259.322066 
L 99.616247 -254.784446 
L 102.895586 -257.377372 
L 106.174925 -252.191519 
L 109.454264 -254.136214 
L 112.733603 -250.246825 
L 116.012942 -250.246825 
L 119.29228 -250.246825 
L 122.571619 -250.246825 
L 125.850958 -251.543288 
L 129.130297 -251.543288 
L 132.409636 -249.598593 
L 135.688975 -250.895056 
L 138.968314 -250.895056 
L 142.247652 -251.543288 
L 145.526991 -259.322066 
L 148.80633 -258.025603 
L 152.085669 -258.025603 
L 155.365008 -259.322066 
L 158.644347 -259.970298 
L 161.923685 -259.970298 
L 165.203024 -259.970298 
L 168.482363 -255.432677 
L 171.761702 -254.136214 
L 175.041041 -255.432677 
L 178.32038 -255.432677 
L 181.599718 -255.432677 
L 184.879057 -255.432677 
L 188.158396 -252.839751 
L 191.437735 -249.598593 
L 194.717074 -248.950362 
L 197.996413 -250.895056 
L 201.275752 -251.543288 
L 204.55509 -252.839751 
L 207.834429 -251.543288 
L 211.113768 -250.246825 
L 214.393107 -248.950362 
L 217.672446 -250.246825 
L 220.951785 -250.246825 
L 224.231123 -250.246825 
L 227.510462 -248.950362 
L 230.789801 -248.950362 
L 234.06914 -248.950362 
L 237.348479 -248.950362 
L 240.627818 -248.950362 
L 243.907157 -248.950362 
L 247.186495 -248.950362 
L 250.465834 -248.950362 
L 253.745173 -248.950362 
L 257.024512 -250.246825 
L 260.303851 -250.246825 
L 263.58319 -248.950362 
L 266.862528 -248.950362 
L 270.141867 -250.246825 
L 273.421206 -250.246825 
L 276.700545 -248.950362 
L 279.979884 -248.950362 
L 283.259223 -248.950362 
L 286.538561 -248.950362 
L 289.8179 -248.950362 
L 293.097239 -248.950362 
L 296.376578 -248.950362 
L 299.655917 -248.950362 
L 302.935256 -248.950362 
L 306.214595 -248.950362 
L 309.493933 -248.950362 
L 312.773272 -248.950362 
L 316.052611 -247.653899 
L 319.33195 -247.653899 
L 322.611289 -247.637693 
L 325.890628 -247.653899 
L 329.169966 -247.653899 
L 332.449305 -247.653899 
L 335.728644 -247.653899 
L 339.007983 -247.653899 
L 342.287322 -247.653899 
L 345.566661 -247.653899 
L 348.845999 -246.357436 
L 352.125338 -246.357436 
L 355.404677 -246.357436 
L 358.684016 -245.709204 
L 361.963355 -247.653899 
L 365.242694 -247.653899 
L 368.522033 -247.005667 
L 371.801371 -247.005667 
L 375.08071 -247.005667 
L 375.08071 -254.784446 
L 375.08071 -254.784446 
L 371.801371 -254.784446 
L 368.522033 -254.784446 
L 365.242694 -254.784446 
L 361.963355 -254.784446 
L 358.684016 -255.432677 
L 355.404677 -255.432677 
L 352.125338 -256.72914 
L 348.845999 -256.72914 
L 345.566661 -256.72914 
L 342.287322 -256.72914 
L 339.007983 -256.72914 
L 335.728644 -256.72914 
L 332.449305 -256.72914 
L 329.169966 -256.72914 
L 325.890628 -258.025603 
L 322.611289 -262.563224 
L 319.33195 -260.618529 
L 316.052611 -260.618529 
L 312.773272 -260.618529 
L 309.493933 -260.618529 
L 306.214595 -260.618529 
L 302.935256 -262.563224 
L 299.655917 -260.618529 
L 296.376578 -262.563224 
L 293.097239 -263.211455 
L 289.8179 -264.507918 
L 286.538561 -264.507918 
L 283.259223 -266.452613 
L 279.979884 -266.452613 
L 276.700545 -266.452613 
L 273.421206 -269.045539 
L 270.141867 -269.045539 
L 266.862528 -270.342002 
L 263.58319 -270.342002 
L 260.303851 -270.990233 
L 257.024512 -270.990233 
L 253.745173 -270.342002 
L 250.465834 -270.342002 
L 247.186495 -270.342002 
L 243.907157 -270.342002 
L 240.627818 -272.934928 
L 237.348479 -270.342002 
L 234.06914 -272.934928 
L 230.789801 -270.342002 
L 227.510462 -270.342002 
L 224.231123 -272.934928 
L 220.951785 -270.990233 
L 217.672446 -272.934928 
L 214.393107 -272.286696 
L 211.113768 -272.934928 
L 207.834429 -272.934928 
L 204.55509 -271.638465 
L 201.275752 -270.990233 
L 197.996413 -271.638465 
L 194.717074 -269.69377 
L 191.437735 -270.990233 
L 188.158396 -270.342002 
L 184.879057 -270.358208 
L 181.599718 -270.342002 
L 178.32038 -270.342002 
L 175.041041 -270.342002 
L 171.761702 -270.342002 
L 168.482363 -270.342002 
L 165.203024 -273.583159 
L 161.923685 -273.583159 
L 158.644347 -271.638465 
L 155.365008 -272.934928 
L 152.085669 -274.879622 
L 148.80633 -276.824317 
L 145.526991 -274.879622 
L 142.247652 -269.742388 
L 138.968314 -269.69377 
L 135.688975 -270.342002 
L 132.409636 -269.045539 
L 129.130297 -269.045539 
L 125.850958 -269.045539 
L 122.571619 -267.100844 
L 119.29228 -267.100844 
L 116.012942 -267.100844 
L 112.733603 -267.749076 
L 109.454264 -270.990233 
L 106.174925 -267.100844 
L 102.895586 -271.638465 
L 99.616247 -269.045539 
L 96.336909 -271.638465 
L 93.05757 -274.879622 
L 89.778231 -274.879622 
L 86.498892 -276.176085 
L 83.219553 -281.361938 
L 79.940214 -276.176085 
L 76.660876 -278.769011 
L 73.381537 -276.824317 
L 70.102198 -274.879622 
L 66.822859 -275.527854 
L 63.54352 -276.824317 
L 60.264181 -273.583159 
L 56.984842 -275.916793 
L 53.705504 -269.175185 
L 50.426165 -271.249526 
z
" id="m05ac7aa560" style="stroke:#4c72b0;stroke-opacity:0.2;"/>
    </defs>
    <g clip-path="url(#pe212c0b982)">
     <use style="fill:#4c72b0;fill-opacity:0.2;stroke:#4c72b0;stroke-opacity:0.2;" x="0" xlink:href="#m05ac7aa560" y="315.776062"/>
    </g>
   </g>
   <g id="PolyCollection_2">
    <defs>
     <path d="M 50.426165 -58.111005 
L 50.426165 -39.441938 
L 53.705504 -51.369397 
L 56.984842 -81.447339 
L 60.264181 -86.114606 
L 63.54352 -91.819044 
L 66.822859 -84.558851 
L 70.102198 -91.300458 
L 73.381537 -105.820844 
L 76.660876 -117.748304 
L 79.940214 -125.008497 
L 83.219553 -122.934156 
L 86.498892 -116.711134 
L 89.778231 -114.118208 
L 93.05757 -121.378401 
L 96.336909 -123.971327 
L 99.616247 -136.417372 
L 102.895586 -138.984368 
L 106.174925 -133.30586 
L 109.454264 -130.712934 
L 112.733603 -130.194349 
L 116.012942 -135.898786 
L 119.29228 -139.528883 
L 122.571619 -140.566053 
L 125.850958 -143.677565 
L 129.130297 -144.714735 
L 132.409636 -143.677565 
L 135.688975 -141.084638 
L 138.968314 -140.566053 
L 142.247652 -143.158979 
L 145.526991 -145.751905 
L 148.80633 -143.677565 
L 152.085669 -146.789076 
L 155.365008 -148.344831 
L 158.644347 -150.419172 
L 161.923685 -150.419172 
L 165.203024 -150.937757 
L 168.482363 -149.382002 
L 171.761702 -149.382002 
L 175.041041 -150.937757 
L 178.32038 -152.493513 
L 181.599718 -152.493513 
L 184.879057 -152.493513 
L 188.158396 -151.456343 
L 191.437735 -152.493513 
L 194.717074 -152.493513 
L 197.996413 -152.493513 
L 201.275752 -150.937757 
L 204.55509 -150.937757 
L 207.834429 -151.456343 
L 211.113768 -153.012098 
L 214.393107 -151.974928 
L 217.672446 -150.419172 
L 220.951785 -149.382002 
L 224.231123 -149.382002 
L 227.510462 -149.382002 
L 230.789801 -147.826246 
L 234.06914 -149.382002 
L 237.348479 -147.826246 
L 240.627818 -147.826246 
L 243.907157 -147.826246 
L 247.186495 -147.826246 
L 250.465834 -147.826246 
L 253.745173 -147.826246 
L 257.024512 -147.826246 
L 260.303851 -147.826246 
L 263.58319 -147.826246 
L 266.862528 -147.826246 
L 270.141867 -147.826246 
L 273.421206 -147.826246 
L 276.700545 -147.826246 
L 279.979884 -147.826246 
L 283.259223 -146.270491 
L 286.538561 -146.789076 
L 289.8179 -146.789076 
L 293.097239 -146.789076 
L 296.376578 -146.789076 
L 299.655917 -146.789076 
L 302.935256 -145.23332 
L 306.214595 -145.23332 
L 309.493933 -145.23332 
L 312.773272 -145.23332 
L 316.052611 -146.789076 
L 319.33195 -146.789076 
L 322.611289 -146.789076 
L 325.890628 -146.789076 
L 329.169966 -146.789076 
L 332.449305 -146.789076 
L 335.728644 -146.789076 
L 339.007983 -146.789076 
L 342.287322 -146.789076 
L 345.566661 -146.789076 
L 348.845999 -146.789076 
L 352.125338 -146.789076 
L 355.404677 -148.344831 
L 358.684016 -148.344831 
L 361.963355 -148.344831 
L 365.242694 -148.344831 
L 368.522033 -147.307661 
L 371.801371 -148.344831 
L 375.08071 -148.344831 
L 375.08071 -190.868819 
L 375.08071 -190.868819 
L 371.801371 -194.498915 
L 368.522033 -194.524844 
L 365.242694 -194.498915 
L 361.963355 -195.0175 
L 358.684016 -193.98033 
L 355.404677 -193.98033 
L 352.125338 -194.498915 
L 348.845999 -191.905989 
L 345.566661 -193.98033 
L 342.287322 -193.98033 
L 339.007983 -193.993294 
L 335.728644 -194.498915 
L 332.449305 -193.98033 
L 329.169966 -193.98033 
L 325.890628 -193.98033 
L 322.611289 -194.498915 
L 319.33195 -194.498915 
L 316.052611 -193.993294 
L 312.773272 -193.98033 
L 309.493933 -193.98033 
L 306.214595 -193.461745 
L 302.935256 -192.943159 
L 299.655917 -192.943159 
L 296.376578 -192.943159 
L 293.097239 -192.424574 
L 289.8179 -186.720137 
L 286.538561 -191.905989 
L 283.259223 -191.905989 
L 279.979884 -191.905989 
L 276.700545 -185.164381 
L 273.421206 -185.164381 
L 270.141867 -189.831648 
L 266.862528 -186.720137 
L 263.58319 -189.831648 
L 260.303851 -189.831648 
L 257.024512 -189.831648 
L 253.745173 -189.831648 
L 250.465834 -189.313063 
L 247.186495 -189.313063 
L 243.907157 -189.313063 
L 240.627818 -189.313063 
L 237.348479 -189.313063 
L 234.06914 -189.831648 
L 230.789801 -185.164381 
L 227.510462 -186.240446 
L 224.231123 -187.757307 
L 220.951785 -186.720137 
L 217.672446 -184.710619 
L 214.393107 -187.238722 
L 211.113768 -187.757307 
L 207.834429 -187.757307 
L 204.55509 -186.746066 
L 201.275752 -189.831648 
L 197.996413 -191.905989 
L 194.717074 -190.868819 
L 191.437735 -189.831648 
L 188.158396 -189.831648 
L 184.879057 -191.387404 
L 181.599718 -186.720137 
L 178.32038 -187.238722 
L 175.041041 -188.794478 
L 171.761702 -188.794478 
L 168.482363 -189.313063 
L 165.203024 -190.868819 
L 161.923685 -191.905989 
L 158.644347 -190.350233 
L 155.365008 -188.794478 
L 152.085669 -185.682966 
L 148.80633 -186.201552 
L 145.526991 -186.720137 
L 142.247652 -179.459944 
L 138.968314 -183.09004 
L 135.688975 -181.0157 
L 132.409636 -184.127211 
L 129.130297 -178.941359 
L 125.850958 -179.978529 
L 122.571619 -178.941359 
L 119.29228 -177.385603 
L 116.012942 -172.783159 
L 112.733603 -177.904188 
L 109.454264 -176.348433 
L 106.174925 -175.829847 
L 102.895586 -178.422774 
L 99.616247 -161.828047 
L 96.336909 -159.235121 
L 93.05757 -152.493513 
L 89.778231 -148.344831 
L 86.498892 -148.344831 
L 83.219553 -150.419172 
L 79.940214 -145.23332 
L 76.660876 -132.787275 
L 73.381537 -122.934156 
L 70.102198 -108.932356 
L 66.822859 -106.339429 
L 63.54352 -118.266889 
L 60.264181 -123.452741 
L 56.984842 -116.192548 
L 53.705504 -71.075635 
L 50.426165 -58.111005 
z
" id="mbff1f774c1" style="stroke:#c44e52;stroke-opacity:0.2;"/>
    </defs>
    <g clip-path="url(#pe212c0b982)">
     <use style="fill:#c44e52;fill-opacity:0.2;stroke:#c44e52;stroke-opacity:0.2;" x="0" xlink:href="#mbff1f774c1" y="315.776062"/>
    </g>
   </g>
   <g id="line2d_12">
    <path clip-path="url(#pe212c0b982)" d="M 50.426165 45.563707 
L 53.705504 51.268144 
L 56.984842 42.970781 
L 60.264181 46.730524 
L 63.54352 42.192903 
L 66.822859 44.137598 
L 70.102198 46.730524 
L 73.381537 44.137598 
L 76.660876 45.434061 
L 79.940214 46.730524 
L 83.219553 44.785829 
L 86.498892 46.730524 
L 89.778231 44.785829 
L 93.05757 47.378755 
L 96.336909 50.619913 
L 99.616247 53.86107 
L 102.895586 51.268144 
L 106.174925 55.805765 
L 109.454264 53.86107 
L 112.733603 57.102228 
L 116.012942 57.102228 
L 119.29228 57.102228 
L 122.571619 57.102228 
L 125.850958 57.102228 
L 129.130297 57.102228 
L 132.409636 58.398691 
L 135.688975 57.102228 
L 138.968314 57.102228 
L 142.247652 55.805765 
L 145.526991 50.619913 
L 148.80633 50.619913 
L 152.085669 50.619913 
L 155.365008 50.619913 
L 158.644347 51.268144 
L 161.923685 50.619913 
L 165.203024 50.619913 
L 168.482363 53.86107 
L 171.761702 54.509302 
L 175.041041 53.86107 
L 178.32038 54.509302 
L 181.599718 54.509302 
L 184.879057 54.509302 
L 188.158396 55.157533 
L 191.437735 56.453996 
L 194.717074 57.750459 
L 197.996413 56.453996 
L 201.275752 56.453996 
L 204.55509 55.805765 
L 207.834429 55.805765 
L 211.113768 55.805765 
L 214.393107 56.453996 
L 217.672446 55.805765 
L 220.951785 56.453996 
L 224.231123 56.453996 
L 227.510462 57.102228 
L 230.789801 57.102228 
L 234.06914 57.102228 
L 237.348479 57.102228 
L 240.627818 57.102228 
L 243.907157 57.102228 
L 247.186495 57.102228 
L 250.465834 57.102228 
L 253.745173 57.102228 
L 257.024512 56.453996 
L 260.303851 56.453996 
L 263.58319 57.102228 
L 266.862528 57.102228 
L 270.141867 57.102228 
L 273.421206 57.102228 
L 276.700545 58.398691 
L 279.979884 58.398691 
L 283.259223 58.398691 
L 286.538561 59.046922 
L 289.8179 59.046922 
L 293.097239 59.695154 
L 296.376578 60.343385 
L 299.655917 60.991617 
L 302.935256 60.991617 
L 306.214595 60.991617 
L 309.493933 60.991617 
L 312.773272 60.991617 
L 316.052611 61.639848 
L 319.33195 61.639848 
L 322.611289 61.639848 
L 325.890628 62.936311 
L 329.169966 63.584543 
L 332.449305 63.584543 
L 335.728644 63.584543 
L 339.007983 63.584543 
L 342.287322 63.584543 
L 345.566661 63.584543 
L 348.845999 64.232775 
L 352.125338 64.232775 
L 355.404677 64.881006 
L 358.684016 65.529238 
L 361.963355 64.881006 
L 365.242694 64.881006 
L 368.522033 65.529238 
L 371.801371 65.529238 
L 375.08071 65.529238 
" style="fill:none;stroke:#4c72b0;stroke-linecap:round;stroke-width:1.5;"/>
   </g>
   <g id="line2d_13">
    <path clip-path="url(#pe212c0b982)" d="M 50.426165 267.518176 
L 53.705504 254.553546 
L 56.984842 213.585315 
L 60.264181 208.918048 
L 63.54352 212.029559 
L 66.822859 222.401263 
L 70.102198 216.178241 
L 73.381537 202.695025 
L 76.660876 189.730395 
L 79.940214 179.877276 
L 83.219553 178.32152 
L 86.498892 182.470202 
L 89.778231 182.988787 
L 93.05757 178.840106 
L 96.336909 173.654254 
L 99.616247 166.394061 
L 102.895586 158.096697 
L 106.174925 160.689623 
L 109.454264 163.282549 
L 112.733603 164.31972 
L 116.012942 162.245379 
L 119.29228 160.689623 
L 122.571619 158.096697 
L 125.850958 156.022357 
L 129.130297 155.503771 
L 132.409636 155.503771 
L 135.688975 157.578112 
L 138.968314 157.578112 
L 142.247652 156.540942 
L 145.526991 153.42943 
L 148.80633 153.42943 
L 152.085669 152.39226 
L 155.365008 149.799334 
L 158.644347 148.243578 
L 161.923685 147.724993 
L 165.203024 148.243578 
L 168.482363 148.762164 
L 171.761702 149.799334 
L 175.041041 148.762164 
L 178.32038 149.280749 
L 181.599718 148.762164 
L 184.879057 147.206408 
L 188.158396 148.243578 
L 191.437735 147.724993 
L 194.717074 147.724993 
L 197.996413 148.243578 
L 201.275752 149.280749 
L 204.55509 150.836504 
L 207.834429 150.317919 
L 211.113768 149.799334 
L 214.393107 150.317919 
L 217.672446 151.35509 
L 220.951785 151.873675 
L 224.231123 151.873675 
L 227.510462 151.873675 
L 230.789801 152.39226 
L 234.06914 150.317919 
L 237.348479 151.35509 
L 240.627818 151.35509 
L 243.907157 151.35509 
L 247.186495 151.35509 
L 250.465834 151.35509 
L 253.745173 150.836504 
L 257.024512 150.836504 
L 260.303851 150.836504 
L 263.58319 150.836504 
L 266.862528 150.836504 
L 270.141867 150.836504 
L 273.421206 150.836504 
L 276.700545 150.836504 
L 279.979884 149.799334 
L 283.259223 149.799334 
L 286.538561 149.799334 
L 289.8179 149.799334 
L 293.097239 149.799334 
L 296.376578 149.280749 
L 299.655917 149.280749 
L 302.935256 149.799334 
L 306.214595 149.280749 
L 309.493933 148.762164 
L 312.773272 148.762164 
L 316.052611 147.724993 
L 319.33195 147.724993 
L 322.611289 147.724993 
L 325.890628 147.724993 
L 329.169966 147.724993 
L 332.449305 147.724993 
L 335.728644 147.724993 
L 339.007983 147.724993 
L 342.287322 147.724993 
L 345.566661 147.724993 
L 348.845999 147.724993 
L 352.125338 147.724993 
L 355.404677 146.687823 
L 358.684016 146.687823 
L 361.963355 146.687823 
L 365.242694 146.169238 
L 368.522033 146.169238 
L 371.801371 146.169238 
L 375.08071 146.169238 
" style="fill:none;stroke:#c44e52;stroke-linecap:round;stroke-width:1.5;"/>
   </g>
   <g id="patch_3">
    <path d="M 34.193438 288.430125 
L 34.193438 22.318125 
" style="fill:none;stroke:#ffffff;stroke-linecap:square;stroke-linejoin:miter;stroke-width:1.25;"/>
   </g>
   <g id="patch_4">
    <path d="M 391.313438 288.430125 
L 391.313438 22.318125 
" style="fill:none;stroke:#ffffff;stroke-linecap:square;stroke-linejoin:miter;stroke-width:1.25;"/>
   </g>
   <g id="patch_5">
    <path d="M 34.193438 288.430125 
L 391.313437 288.430125 
" style="fill:none;stroke:#ffffff;stroke-linecap:square;stroke-linejoin:miter;stroke-width:1.25;"/>
   </g>
   <g id="patch_6">
    <path d="M 34.193438 22.318125 
L 391.313437 22.318125 
" style="fill:none;stroke:#ffffff;stroke-linecap:square;stroke-linejoin:miter;stroke-width:1.25;"/>
   </g>
   <g id="text_12">
    <!-- tapnet-Heartbeat -->
    <defs>
     <path d="M 18.3125 70.21875 
L 18.3125 54.6875 
L 36.8125 54.6875 
L 36.8125 47.703125 
L 18.3125 47.703125 
L 18.3125 18.015625 
Q 18.3125 11.328125 20.140625 9.421875 
Q 21.96875 7.515625 27.59375 7.515625 
L 36.8125 7.515625 
L 36.8125 0 
L 27.59375 0 
Q 17.1875 0 13.234375 3.875 
Q 9.28125 7.765625 9.28125 18.015625 
L 9.28125 47.703125 
L 2.6875 47.703125 
L 2.6875 54.6875 
L 9.28125 54.6875 
L 9.28125 70.21875 
z
" id="DejaVuSans-116"/>
     <path d="M 34.28125 27.484375 
Q 23.390625 27.484375 19.1875 25 
Q 14.984375 22.515625 14.984375 16.5 
Q 14.984375 11.71875 18.140625 8.90625 
Q 21.296875 6.109375 26.703125 6.109375 
Q 34.1875 6.109375 38.703125 11.40625 
Q 43.21875 16.703125 43.21875 25.484375 
L 43.21875 27.484375 
z
M 52.203125 31.203125 
L 52.203125 0 
L 43.21875 0 
L 43.21875 8.296875 
Q 40.140625 3.328125 35.546875 0.953125 
Q 30.953125 -1.421875 24.3125 -1.421875 
Q 15.921875 -1.421875 10.953125 3.296875 
Q 6 8.015625 6 15.921875 
Q 6 25.140625 12.171875 29.828125 
Q 18.359375 34.515625 30.609375 34.515625 
L 43.21875 34.515625 
L 43.21875 35.40625 
Q 43.21875 41.609375 39.140625 45 
Q 35.0625 48.390625 27.6875 48.390625 
Q 23 48.390625 18.546875 47.265625 
Q 14.109375 46.140625 10.015625 43.890625 
L 10.015625 52.203125 
Q 14.9375 54.109375 19.578125 55.046875 
Q 24.21875 56 28.609375 56 
Q 40.484375 56 46.34375 49.84375 
Q 52.203125 43.703125 52.203125 31.203125 
z
" id="DejaVuSans-97"/>
     <path d="M 18.109375 8.203125 
L 18.109375 -20.796875 
L 9.078125 -20.796875 
L 9.078125 54.6875 
L 18.109375 54.6875 
L 18.109375 46.390625 
Q 20.953125 51.265625 25.265625 53.625 
Q 29.59375 56 35.59375 56 
Q 45.5625 56 51.78125 48.09375 
Q 58.015625 40.1875 58.015625 27.296875 
Q 58.015625 14.40625 51.78125 6.484375 
Q 45.5625 -1.421875 35.59375 -1.421875 
Q 29.59375 -1.421875 25.265625 0.953125 
Q 20.953125 3.328125 18.109375 8.203125 
z
M 48.6875 27.296875 
Q 48.6875 37.203125 44.609375 42.84375 
Q 40.53125 48.484375 33.40625 48.484375 
Q 26.265625 48.484375 22.1875 42.84375 
Q 18.109375 37.203125 18.109375 27.296875 
Q 18.109375 17.390625 22.1875 11.75 
Q 26.265625 6.109375 33.40625 6.109375 
Q 40.53125 6.109375 44.609375 11.75 
Q 48.6875 17.390625 48.6875 27.296875 
z
" id="DejaVuSans-112"/>
     <path d="M 54.890625 33.015625 
L 54.890625 0 
L 45.90625 0 
L 45.90625 32.71875 
Q 45.90625 40.484375 42.875 44.328125 
Q 39.84375 48.1875 33.796875 48.1875 
Q 26.515625 48.1875 22.3125 43.546875 
Q 18.109375 38.921875 18.109375 30.90625 
L 18.109375 0 
L 9.078125 0 
L 9.078125 54.6875 
L 18.109375 54.6875 
L 18.109375 46.1875 
Q 21.34375 51.125 25.703125 53.5625 
Q 30.078125 56 35.796875 56 
Q 45.21875 56 50.046875 50.171875 
Q 54.890625 44.34375 54.890625 33.015625 
z
" id="DejaVuSans-110"/>
     <path d="M 56.203125 29.59375 
L 56.203125 25.203125 
L 14.890625 25.203125 
Q 15.484375 15.921875 20.484375 11.0625 
Q 25.484375 6.203125 34.421875 6.203125 
Q 39.59375 6.203125 44.453125 7.46875 
Q 49.3125 8.734375 54.109375 11.28125 
L 54.109375 2.78125 
Q 49.265625 0.734375 44.1875 -0.34375 
Q 39.109375 -1.421875 33.890625 -1.421875 
Q 20.796875 -1.421875 13.15625 6.1875 
Q 5.515625 13.8125 5.515625 26.8125 
Q 5.515625 40.234375 12.765625 48.109375 
Q 20.015625 56 32.328125 56 
Q 43.359375 56 49.78125 48.890625 
Q 56.203125 41.796875 56.203125 29.59375 
z
M 47.21875 32.234375 
Q 47.125 39.59375 43.09375 43.984375 
Q 39.0625 48.390625 32.421875 48.390625 
Q 24.90625 48.390625 20.390625 44.140625 
Q 15.875 39.890625 15.1875 32.171875 
z
" id="DejaVuSans-101"/>
     <path d="M 4.890625 31.390625 
L 31.203125 31.390625 
L 31.203125 23.390625 
L 4.890625 23.390625 
z
" id="DejaVuSans-45"/>
     <path d="M 9.8125 72.90625 
L 19.671875 72.90625 
L 19.671875 43.015625 
L 55.515625 43.015625 
L 55.515625 72.90625 
L 65.375 72.90625 
L 65.375 0 
L 55.515625 0 
L 55.515625 34.71875 
L 19.671875 34.71875 
L 19.671875 0 
L 9.8125 0 
z
" id="DejaVuSans-72"/>
     <path d="M 41.109375 46.296875 
Q 39.59375 47.171875 37.8125 47.578125 
Q 36.03125 48 33.890625 48 
Q 26.265625 48 22.1875 43.046875 
Q 18.109375 38.09375 18.109375 28.8125 
L 18.109375 0 
L 9.078125 0 
L 9.078125 54.6875 
L 18.109375 54.6875 
L 18.109375 46.1875 
Q 20.953125 51.171875 25.484375 53.578125 
Q 30.03125 56 36.53125 56 
Q 37.453125 56 38.578125 55.875 
Q 39.703125 55.765625 41.0625 55.515625 
z
" id="DejaVuSans-114"/>
     <path d="M 48.6875 27.296875 
Q 48.6875 37.203125 44.609375 42.84375 
Q 40.53125 48.484375 33.40625 48.484375 
Q 26.265625 48.484375 22.1875 42.84375 
Q 18.109375 37.203125 18.109375 27.296875 
Q 18.109375 17.390625 22.1875 11.75 
Q 26.265625 6.109375 33.40625 6.109375 
Q 40.53125 6.109375 44.609375 11.75 
Q 48.6875 17.390625 48.6875 27.296875 
z
M 18.109375 46.390625 
Q 20.953125 51.265625 25.265625 53.625 
Q 29.59375 56 35.59375 56 
Q 45.5625 56 51.78125 48.09375 
Q 58.015625 40.1875 58.015625 27.296875 
Q 58.015625 14.40625 51.78125 6.484375 
Q 45.5625 -1.421875 35.59375 -1.421875 
Q 29.59375 -1.421875 25.265625 0.953125 
Q 20.953125 3.328125 18.109375 8.203125 
L 18.109375 0 
L 9.078125 0 
L 9.078125 75.984375 
L 18.109375 75.984375 
z
" id="DejaVuSans-98"/>
    </defs>
    <g style="fill:#262626;" transform="translate(160.674375 16.318125)scale(0.12 -0.12)">
     <use xlink:href="#DejaVuSans-116"/>
     <use x="39.208984" xlink:href="#DejaVuSans-97"/>
     <use x="100.488281" xlink:href="#DejaVuSans-112"/>
     <use x="163.964844" xlink:href="#DejaVuSans-110"/>
     <use x="227.34375" xlink:href="#DejaVuSans-101"/>
     <use x="288.867188" xlink:href="#DejaVuSans-116"/>
     <use x="328.076172" xlink:href="#DejaVuSans-45"/>
     <use x="364.160156" xlink:href="#DejaVuSans-72"/>
     <use x="439.355469" xlink:href="#DejaVuSans-101"/>
     <use x="500.878906" xlink:href="#DejaVuSans-97"/>
     <use x="562.158203" xlink:href="#DejaVuSans-114"/>
     <use x="603.271484" xlink:href="#DejaVuSans-116"/>
     <use x="642.480469" xlink:href="#DejaVuSans-98"/>
     <use x="705.957031" xlink:href="#DejaVuSans-101"/>
     <use x="767.480469" xlink:href="#DejaVuSans-97"/>
     <use x="828.759766" xlink:href="#DejaVuSans-116"/>
    </g>
   </g>
   <g id="legend_1">
    <g id="patch_7">
     <path d="M 311.16125 282.930125 
L 383.613438 282.930125 
Q 385.813438 282.930125 385.813438 280.730125 
L 385.813438 217.246375 
Q 385.813438 215.046375 383.613438 215.046375 
L 311.16125 215.046375 
Q 308.96125 215.046375 308.96125 217.246375 
L 308.96125 280.730125 
Q 308.96125 282.930125 311.16125 282.930125 
z
" style="fill:#eaeaf2;opacity:0.8;stroke:#cccccc;stroke-linejoin:miter;"/>
    </g>
    <g id="line2d_14">
     <path d="M 313.36125 223.954656 
L 335.36125 223.954656 
" style="fill:none;stroke:#4c72b0;stroke-linecap:round;stroke-width:1.5;"/>
    </g>
    <g id="line2d_15"/>
    <g id="text_13">
     <!-- pooled -->
     <defs>
      <path d="M 30.609375 48.390625 
Q 23.390625 48.390625 19.1875 42.75 
Q 14.984375 37.109375 14.984375 27.296875 
Q 14.984375 17.484375 19.15625 11.84375 
Q 23.34375 6.203125 30.609375 6.203125 
Q 37.796875 6.203125 41.984375 11.859375 
Q 46.1875 17.53125 46.1875 27.296875 
Q 46.1875 37.015625 41.984375 42.703125 
Q 37.796875 48.390625 30.609375 48.390625 
z
M 30.609375 56 
Q 42.328125 56 49.015625 48.375 
Q 55.71875 40.765625 55.71875 27.296875 
Q 55.71875 13.875 49.015625 6.21875 
Q 42.328125 -1.421875 30.609375 -1.421875 
Q 18.84375 -1.421875 12.171875 6.21875 
Q 5.515625 13.875 5.515625 27.296875 
Q 5.515625 40.765625 12.171875 48.375 
Q 18.84375 56 30.609375 56 
z
" id="DejaVuSans-111"/>
      <path d="M 9.421875 75.984375 
L 18.40625 75.984375 
L 18.40625 0 
L 9.421875 0 
z
" id="DejaVuSans-108"/>
      <path d="M 45.40625 46.390625 
L 45.40625 75.984375 
L 54.390625 75.984375 
L 54.390625 0 
L 45.40625 0 
L 45.40625 8.203125 
Q 42.578125 3.328125 38.25 0.953125 
Q 33.9375 -1.421875 27.875 -1.421875 
Q 17.96875 -1.421875 11.734375 6.484375 
Q 5.515625 14.40625 5.515625 27.296875 
Q 5.515625 40.1875 11.734375 48.09375 
Q 17.96875 56 27.875 56 
Q 33.9375 56 38.25 53.625 
Q 42.578125 51.265625 45.40625 46.390625 
z
M 14.796875 27.296875 
Q 14.796875 17.390625 18.875 11.75 
Q 22.953125 6.109375 30.078125 6.109375 
Q 37.203125 6.109375 41.296875 11.75 
Q 45.40625 17.390625 45.40625 27.296875 
Q 45.40625 37.203125 41.296875 42.84375 
Q 37.203125 48.484375 30.078125 48.484375 
Q 22.953125 48.484375 18.875 42.84375 
Q 14.796875 37.203125 14.796875 27.296875 
z
" id="DejaVuSans-100"/>
     </defs>
     <g style="fill:#262626;" transform="translate(344.16125 227.804656)scale(0.11 -0.11)">
      <use xlink:href="#DejaVuSans-112"/>
      <use x="63.476562" xlink:href="#DejaVuSans-111"/>
      <use x="124.658203" xlink:href="#DejaVuSans-111"/>
      <use x="185.839844" xlink:href="#DejaVuSans-108"/>
      <use x="213.623047" xlink:href="#DejaVuSans-101"/>
      <use x="275.146484" xlink:href="#DejaVuSans-100"/>
     </g>
    </g>
    <g id="line2d_16">
     <path d="M 313.36125 240.100594 
L 335.36125 240.100594 
" style="fill:none;stroke:#c44e52;stroke-linecap:round;stroke-width:1.5;"/>
    </g>
    <g id="line2d_17"/>
    <g id="text_14">
     <!-- dad -->
     <g style="fill:#262626;" transform="translate(344.16125 243.950594)scale(0.11 -0.11)">
      <use xlink:href="#DejaVuSans-100"/>
      <use x="63.476562" xlink:href="#DejaVuSans-97"/>
      <use x="124.755859" xlink:href="#DejaVuSans-100"/>
     </g>
    </g>
    <g id="patch_8">
     <path d="M 313.36125 260.096531 
L 335.36125 260.096531 
L 335.36125 252.396531 
L 313.36125 252.396531 
z
" style="fill:#4c72b0;opacity:0.2;stroke:#4c72b0;stroke-linejoin:miter;"/>
    </g>
    <g id="text_15">
     <!-- edad -->
     <g style="fill:#262626;" transform="translate(344.16125 260.096531)scale(0.11 -0.11)">
      <use xlink:href="#DejaVuSans-101"/>
      <use x="61.523438" xlink:href="#DejaVuSans-100"/>
      <use x="125" xlink:href="#DejaVuSans-97"/>
      <use x="186.279297" xlink:href="#DejaVuSans-100"/>
     </g>
    </g>
    <g id="patch_9">
     <path d="M 313.36125 276.242469 
L 335.36125 276.242469 
L 335.36125 268.542469 
L 313.36125 268.542469 
z
" style="fill:#c44e52;opacity:0.2;stroke:#c44e52;stroke-linejoin:miter;"/>
    </g>
    <g id="text_16">
     <!-- dsgd -->
     <defs>
      <path d="M 44.28125 53.078125 
L 44.28125 44.578125 
Q 40.484375 46.53125 36.375 47.5 
Q 32.28125 48.484375 27.875 48.484375 
Q 21.1875 48.484375 17.84375 46.4375 
Q 14.5 44.390625 14.5 40.28125 
Q 14.5 37.15625 16.890625 35.375 
Q 19.28125 33.59375 26.515625 31.984375 
L 29.59375 31.296875 
Q 39.15625 29.25 43.1875 25.515625 
Q 47.21875 21.78125 47.21875 15.09375 
Q 47.21875 7.46875 41.1875 3.015625 
Q 35.15625 -1.421875 24.609375 -1.421875 
Q 20.21875 -1.421875 15.453125 -0.5625 
Q 10.6875 0.296875 5.421875 2 
L 5.421875 11.28125 
Q 10.40625 8.6875 15.234375 7.390625 
Q 20.0625 6.109375 24.8125 6.109375 
Q 31.15625 6.109375 34.5625 8.28125 
Q 37.984375 10.453125 37.984375 14.40625 
Q 37.984375 18.0625 35.515625 20.015625 
Q 33.0625 21.96875 24.703125 23.78125 
L 21.578125 24.515625 
Q 13.234375 26.265625 9.515625 29.90625 
Q 5.8125 33.546875 5.8125 39.890625 
Q 5.8125 47.609375 11.28125 51.796875 
Q 16.75 56 26.8125 56 
Q 31.78125 56 36.171875 55.265625 
Q 40.578125 54.546875 44.28125 53.078125 
z
" id="DejaVuSans-115"/>
      <path d="M 45.40625 27.984375 
Q 45.40625 37.75 41.375 43.109375 
Q 37.359375 48.484375 30.078125 48.484375 
Q 22.859375 48.484375 18.828125 43.109375 
Q 14.796875 37.75 14.796875 27.984375 
Q 14.796875 18.265625 18.828125 12.890625 
Q 22.859375 7.515625 30.078125 7.515625 
Q 37.359375 7.515625 41.375 12.890625 
Q 45.40625 18.265625 45.40625 27.984375 
z
M 54.390625 6.78125 
Q 54.390625 -7.171875 48.1875 -13.984375 
Q 42 -20.796875 29.203125 -20.796875 
Q 24.46875 -20.796875 20.265625 -20.09375 
Q 16.0625 -19.390625 12.109375 -17.921875 
L 12.109375 -9.1875 
Q 16.0625 -11.328125 19.921875 -12.34375 
Q 23.78125 -13.375 27.78125 -13.375 
Q 36.625 -13.375 41.015625 -8.765625 
Q 45.40625 -4.15625 45.40625 5.171875 
L 45.40625 9.625 
Q 42.625 4.78125 38.28125 2.390625 
Q 33.9375 0 27.875 0 
Q 17.828125 0 11.671875 7.65625 
Q 5.515625 15.328125 5.515625 27.984375 
Q 5.515625 40.671875 11.671875 48.328125 
Q 17.828125 56 27.875 56 
Q 33.9375 56 38.28125 53.609375 
Q 42.625 51.21875 45.40625 46.390625 
L 45.40625 54.6875 
L 54.390625 54.6875 
z
" id="DejaVuSans-103"/>
     </defs>
     <g style="fill:#262626;" transform="translate(344.16125 276.242469)scale(0.11 -0.11)">
      <use xlink:href="#DejaVuSans-100"/>
      <use x="63.476562" xlink:href="#DejaVuSans-115"/>
      <use x="115.576172" xlink:href="#DejaVuSans-103"/>
      <use x="179.052734" xlink:href="#DejaVuSans-100"/>
     </g>
    </g>
   </g>
  </g>
 </g>
 <defs>
  <clipPath id="pe212c0b982">
   <rect height="266.112" width="357.12" x="34.193438" y="22.318125"/>
  </clipPath>
 </defs>
</svg>
