<?xml version="1.0" encoding="utf-8" standalone="no"?>
<!DOCTYPE svg PUBLIC "-//W3C//DTD SVG 1.1//EN"
  "http://www.w3.org/Graphics/SVG/1.1/DTD/svg11.dtd">
<!-- Created with matplotlib (https://matplotlib.org/) -->
<svg height="331.389812pt" version="1.1" viewBox="0 0 411.522251 331.389812" width="411.522251pt" xmlns="http://www.w3.org/2000/svg" xmlns:xlink="http://www.w3.org/1999/xlink">
 <defs>
  <style type="text/css">
*{stroke-linecap:butt;stroke-linejoin:round;}
  </style>
 </defs>
 <g id="figure_1">
  <g id="patch_1">
   <path d="M 0 331.389812 
L 411.522251 331.389812 
L 411.522251 0 
L 0 0 
z
" style="fill:#ffffff;"/>
  </g>
  <g id="axes_1">
   <g id="patch_2">
    <path d="M 46.31125 288.430125 
L 403.43125 288.430125 
L 403.43125 22.318125 
L 46.31125 22.318125 
z
" style="fill:#eaeaf2;"/>
   </g>
   <g id="matplotlib.axis_1">
    <g id="xtick_1">
     <g id="line2d_1">
      <path clip-path="url(#p4c25a25937)" d="M 62.543977 288.430125 
L 62.543977 22.318125 
" style="fill:none;stroke:#ffffff;stroke-linecap:round;"/>
     </g>
     <g id="text_1">
      <!-- 0 -->
      <defs>
       <path d="M 31.78125 66.40625 
Q 24.171875 66.40625 20.328125 58.90625 
Q 16.5 51.421875 16.5 36.375 
Q 16.5 21.390625 20.328125 13.890625 
Q 24.171875 6.390625 31.78125 6.390625 
Q 39.453125 6.390625 43.28125 13.890625 
Q 47.125 21.390625 47.125 36.375 
Q 47.125 51.421875 43.28125 58.90625 
Q 39.453125 66.40625 31.78125 66.40625 
z
M 31.78125 74.21875 
Q 44.046875 74.21875 50.515625 64.515625 
Q 56.984375 54.828125 56.984375 36.375 
Q 56.984375 17.96875 50.515625 8.265625 
Q 44.046875 -1.421875 31.78125 -1.421875 
Q 19.53125 -1.421875 13.0625 8.265625 
Q 6.59375 17.96875 6.59375 36.375 
Q 6.59375 54.828125 13.0625 64.515625 
Q 19.53125 74.21875 31.78125 74.21875 
z
" id="DejaVuSans-48"/>
      </defs>
      <g style="fill:#262626;" transform="translate(59.044602 306.288406)scale(0.11 -0.11)">
       <use xlink:href="#DejaVuSans-48"/>
      </g>
     </g>
    </g>
    <g id="xtick_2">
     <g id="line2d_2">
      <path clip-path="url(#p4c25a25937)" d="M 128.800007 288.430125 
L 128.800007 22.318125 
" style="fill:none;stroke:#ffffff;stroke-linecap:round;"/>
     </g>
     <g id="text_2">
      <!-- 20 -->
      <defs>
       <path d="M 19.1875 8.296875 
L 53.609375 8.296875 
L 53.609375 0 
L 7.328125 0 
L 7.328125 8.296875 
Q 12.9375 14.109375 22.625 23.890625 
Q 32.328125 33.6875 34.8125 36.53125 
Q 39.546875 41.84375 41.421875 45.53125 
Q 43.3125 49.21875 43.3125 52.78125 
Q 43.3125 58.59375 39.234375 62.25 
Q 35.15625 65.921875 28.609375 65.921875 
Q 23.96875 65.921875 18.8125 64.3125 
Q 13.671875 62.703125 7.8125 59.421875 
L 7.8125 69.390625 
Q 13.765625 71.78125 18.9375 73 
Q 24.125 74.21875 28.421875 74.21875 
Q 39.75 74.21875 46.484375 68.546875 
Q 53.21875 62.890625 53.21875 53.421875 
Q 53.21875 48.921875 51.53125 44.890625 
Q 49.859375 40.875 45.40625 35.40625 
Q 44.1875 33.984375 37.640625 27.21875 
Q 31.109375 20.453125 19.1875 8.296875 
z
" id="DejaVuSans-50"/>
      </defs>
      <g style="fill:#262626;" transform="translate(121.801257 306.288406)scale(0.11 -0.11)">
       <use xlink:href="#DejaVuSans-50"/>
       <use x="63.623047" xlink:href="#DejaVuSans-48"/>
      </g>
     </g>
    </g>
    <g id="xtick_3">
     <g id="line2d_3">
      <path clip-path="url(#p4c25a25937)" d="M 195.056037 288.430125 
L 195.056037 22.318125 
" style="fill:none;stroke:#ffffff;stroke-linecap:round;"/>
     </g>
     <g id="text_3">
      <!-- 40 -->
      <defs>
       <path d="M 37.796875 64.3125 
L 12.890625 25.390625 
L 37.796875 25.390625 
z
M 35.203125 72.90625 
L 47.609375 72.90625 
L 47.609375 25.390625 
L 58.015625 25.390625 
L 58.015625 17.1875 
L 47.609375 17.1875 
L 47.609375 0 
L 37.796875 0 
L 37.796875 17.1875 
L 4.890625 17.1875 
L 4.890625 26.703125 
z
" id="DejaVuSans-52"/>
      </defs>
      <g style="fill:#262626;" transform="translate(188.057287 306.288406)scale(0.11 -0.11)">
       <use xlink:href="#DejaVuSans-52"/>
       <use x="63.623047" xlink:href="#DejaVuSans-48"/>
      </g>
     </g>
    </g>
    <g id="xtick_4">
     <g id="line2d_4">
      <path clip-path="url(#p4c25a25937)" d="M 261.312066 288.430125 
L 261.312066 22.318125 
" style="fill:none;stroke:#ffffff;stroke-linecap:round;"/>
     </g>
     <g id="text_4">
      <!-- 60 -->
      <defs>
       <path d="M 33.015625 40.375 
Q 26.375 40.375 22.484375 35.828125 
Q 18.609375 31.296875 18.609375 23.390625 
Q 18.609375 15.53125 22.484375 10.953125 
Q 26.375 6.390625 33.015625 6.390625 
Q 39.65625 6.390625 43.53125 10.953125 
Q 47.40625 15.53125 47.40625 23.390625 
Q 47.40625 31.296875 43.53125 35.828125 
Q 39.65625 40.375 33.015625 40.375 
z
M 52.59375 71.296875 
L 52.59375 62.3125 
Q 48.875 64.0625 45.09375 64.984375 
Q 41.3125 65.921875 37.59375 65.921875 
Q 27.828125 65.921875 22.671875 59.328125 
Q 17.53125 52.734375 16.796875 39.40625 
Q 19.671875 43.65625 24.015625 45.921875 
Q 28.375 48.1875 33.59375 48.1875 
Q 44.578125 48.1875 50.953125 41.515625 
Q 57.328125 34.859375 57.328125 23.390625 
Q 57.328125 12.15625 50.6875 5.359375 
Q 44.046875 -1.421875 33.015625 -1.421875 
Q 20.359375 -1.421875 13.671875 8.265625 
Q 6.984375 17.96875 6.984375 36.375 
Q 6.984375 53.65625 15.1875 63.9375 
Q 23.390625 74.21875 37.203125 74.21875 
Q 40.921875 74.21875 44.703125 73.484375 
Q 48.484375 72.75 52.59375 71.296875 
z
" id="DejaVuSans-54"/>
      </defs>
      <g style="fill:#262626;" transform="translate(254.313316 306.288406)scale(0.11 -0.11)">
       <use xlink:href="#DejaVuSans-54"/>
       <use x="63.623047" xlink:href="#DejaVuSans-48"/>
      </g>
     </g>
    </g>
    <g id="xtick_5">
     <g id="line2d_5">
      <path clip-path="url(#p4c25a25937)" d="M 327.568096 288.430125 
L 327.568096 22.318125 
" style="fill:none;stroke:#ffffff;stroke-linecap:round;"/>
     </g>
     <g id="text_5">
      <!-- 80 -->
      <defs>
       <path d="M 31.78125 34.625 
Q 24.75 34.625 20.71875 30.859375 
Q 16.703125 27.09375 16.703125 20.515625 
Q 16.703125 13.921875 20.71875 10.15625 
Q 24.75 6.390625 31.78125 6.390625 
Q 38.8125 6.390625 42.859375 10.171875 
Q 46.921875 13.96875 46.921875 20.515625 
Q 46.921875 27.09375 42.890625 30.859375 
Q 38.875 34.625 31.78125 34.625 
z
M 21.921875 38.8125 
Q 15.578125 40.375 12.03125 44.71875 
Q 8.5 49.078125 8.5 55.328125 
Q 8.5 64.0625 14.71875 69.140625 
Q 20.953125 74.21875 31.78125 74.21875 
Q 42.671875 74.21875 48.875 69.140625 
Q 55.078125 64.0625 55.078125 55.328125 
Q 55.078125 49.078125 51.53125 44.71875 
Q 48 40.375 41.703125 38.8125 
Q 48.828125 37.15625 52.796875 32.3125 
Q 56.78125 27.484375 56.78125 20.515625 
Q 56.78125 9.90625 50.3125 4.234375 
Q 43.84375 -1.421875 31.78125 -1.421875 
Q 19.734375 -1.421875 13.25 4.234375 
Q 6.78125 9.90625 6.78125 20.515625 
Q 6.78125 27.484375 10.78125 32.3125 
Q 14.796875 37.15625 21.921875 38.8125 
z
M 18.3125 54.390625 
Q 18.3125 48.734375 21.84375 45.5625 
Q 25.390625 42.390625 31.78125 42.390625 
Q 38.140625 42.390625 41.71875 45.5625 
Q 45.3125 48.734375 45.3125 54.390625 
Q 45.3125 60.0625 41.71875 63.234375 
Q 38.140625 66.40625 31.78125 66.40625 
Q 25.390625 66.40625 21.84375 63.234375 
Q 18.3125 60.0625 18.3125 54.390625 
z
" id="DejaVuSans-56"/>
      </defs>
      <g style="fill:#262626;" transform="translate(320.569346 306.288406)scale(0.11 -0.11)">
       <use xlink:href="#DejaVuSans-56"/>
       <use x="63.623047" xlink:href="#DejaVuSans-48"/>
      </g>
     </g>
    </g>
    <g id="xtick_6">
     <g id="line2d_6">
      <path clip-path="url(#p4c25a25937)" d="M 393.824126 288.430125 
L 393.824126 22.318125 
" style="fill:none;stroke:#ffffff;stroke-linecap:round;"/>
     </g>
     <g id="text_6">
      <!-- 100 -->
      <defs>
       <path d="M 12.40625 8.296875 
L 28.515625 8.296875 
L 28.515625 63.921875 
L 10.984375 60.40625 
L 10.984375 69.390625 
L 28.421875 72.90625 
L 38.28125 72.90625 
L 38.28125 8.296875 
L 54.390625 8.296875 
L 54.390625 0 
L 12.40625 0 
z
" id="DejaVuSans-49"/>
      </defs>
      <g style="fill:#262626;" transform="translate(383.326001 306.288406)scale(0.11 -0.11)">
       <use xlink:href="#DejaVuSans-49"/>
       <use x="63.623047" xlink:href="#DejaVuSans-48"/>
       <use x="127.246094" xlink:href="#DejaVuSans-48"/>
      </g>
     </g>
    </g>
    <g id="text_7">
     <!-- epoch -->
     <defs>
      <path d="M 56.203125 29.59375 
L 56.203125 25.203125 
L 14.890625 25.203125 
Q 15.484375 15.921875 20.484375 11.0625 
Q 25.484375 6.203125 34.421875 6.203125 
Q 39.59375 6.203125 44.453125 7.46875 
Q 49.3125 8.734375 54.109375 11.28125 
L 54.109375 2.78125 
Q 49.265625 0.734375 44.1875 -0.34375 
Q 39.109375 -1.421875 33.890625 -1.421875 
Q 20.796875 -1.421875 13.15625 6.1875 
Q 5.515625 13.8125 5.515625 26.8125 
Q 5.515625 40.234375 12.765625 48.109375 
Q 20.015625 56 32.328125 56 
Q 43.359375 56 49.78125 48.890625 
Q 56.203125 41.796875 56.203125 29.59375 
z
M 47.21875 32.234375 
Q 47.125 39.59375 43.09375 43.984375 
Q 39.0625 48.390625 32.421875 48.390625 
Q 24.90625 48.390625 20.390625 44.140625 
Q 15.875 39.890625 15.1875 32.171875 
z
" id="DejaVuSans-101"/>
      <path d="M 18.109375 8.203125 
L 18.109375 -20.796875 
L 9.078125 -20.796875 
L 9.078125 54.6875 
L 18.109375 54.6875 
L 18.109375 46.390625 
Q 20.953125 51.265625 25.265625 53.625 
Q 29.59375 56 35.59375 56 
Q 45.5625 56 51.78125 48.09375 
Q 58.015625 40.1875 58.015625 27.296875 
Q 58.015625 14.40625 51.78125 6.484375 
Q 45.5625 -1.421875 35.59375 -1.421875 
Q 29.59375 -1.421875 25.265625 0.953125 
Q 20.953125 3.328125 18.109375 8.203125 
z
M 48.6875 27.296875 
Q 48.6875 37.203125 44.609375 42.84375 
Q 40.53125 48.484375 33.40625 48.484375 
Q 26.265625 48.484375 22.1875 42.84375 
Q 18.109375 37.203125 18.109375 27.296875 
Q 18.109375 17.390625 22.1875 11.75 
Q 26.265625 6.109375 33.40625 6.109375 
Q 40.53125 6.109375 44.609375 11.75 
Q 48.6875 17.390625 48.6875 27.296875 
z
" id="DejaVuSans-112"/>
      <path d="M 30.609375 48.390625 
Q 23.390625 48.390625 19.1875 42.75 
Q 14.984375 37.109375 14.984375 27.296875 
Q 14.984375 17.484375 19.15625 11.84375 
Q 23.34375 6.203125 30.609375 6.203125 
Q 37.796875 6.203125 41.984375 11.859375 
Q 46.1875 17.53125 46.1875 27.296875 
Q 46.1875 37.015625 41.984375 42.703125 
Q 37.796875 48.390625 30.609375 48.390625 
z
M 30.609375 56 
Q 42.328125 56 49.015625 48.375 
Q 55.71875 40.765625 55.71875 27.296875 
Q 55.71875 13.875 49.015625 6.21875 
Q 42.328125 -1.421875 30.609375 -1.421875 
Q 18.84375 -1.421875 12.171875 6.21875 
Q 5.515625 13.875 5.515625 27.296875 
Q 5.515625 40.765625 12.171875 48.375 
Q 18.84375 56 30.609375 56 
z
" id="DejaVuSans-111"/>
      <path d="M 48.78125 52.59375 
L 48.78125 44.1875 
Q 44.96875 46.296875 41.140625 47.34375 
Q 37.3125 48.390625 33.40625 48.390625 
Q 24.65625 48.390625 19.8125 42.84375 
Q 14.984375 37.3125 14.984375 27.296875 
Q 14.984375 17.28125 19.8125 11.734375 
Q 24.65625 6.203125 33.40625 6.203125 
Q 37.3125 6.203125 41.140625 7.25 
Q 44.96875 8.296875 48.78125 10.40625 
L 48.78125 2.09375 
Q 45.015625 0.34375 40.984375 -0.53125 
Q 36.96875 -1.421875 32.421875 -1.421875 
Q 20.0625 -1.421875 12.78125 6.34375 
Q 5.515625 14.109375 5.515625 27.296875 
Q 5.515625 40.671875 12.859375 48.328125 
Q 20.21875 56 33.015625 56 
Q 37.15625 56 41.109375 55.140625 
Q 45.0625 54.296875 48.78125 52.59375 
z
" id="DejaVuSans-99"/>
      <path d="M 54.890625 33.015625 
L 54.890625 0 
L 45.90625 0 
L 45.90625 32.71875 
Q 45.90625 40.484375 42.875 44.328125 
Q 39.84375 48.1875 33.796875 48.1875 
Q 26.515625 48.1875 22.3125 43.546875 
Q 18.109375 38.921875 18.109375 30.90625 
L 18.109375 0 
L 9.078125 0 
L 9.078125 75.984375 
L 18.109375 75.984375 
L 18.109375 46.1875 
Q 21.34375 51.125 25.703125 53.5625 
Q 30.078125 56 35.796875 56 
Q 45.21875 56 50.046875 50.171875 
Q 54.890625 44.34375 54.890625 33.015625 
z
" id="DejaVuSans-104"/>
     </defs>
     <g style="fill:#262626;" transform="translate(206.5975 321.694187)scale(0.12 -0.12)">
      <use xlink:href="#DejaVuSans-101"/>
      <use x="61.523438" xlink:href="#DejaVuSans-112"/>
      <use x="125" xlink:href="#DejaVuSans-111"/>
      <use x="186.181641" xlink:href="#DejaVuSans-99"/>
      <use x="241.162109" xlink:href="#DejaVuSans-104"/>
     </g>
    </g>
   </g>
   <g id="matplotlib.axis_2">
    <g id="ytick_1">
     <g id="line2d_7">
      <path clip-path="url(#p4c25a25937)" d="M 46.31125 288.430125 
L 403.43125 288.430125 
" style="fill:none;stroke:#ffffff;stroke-linecap:round;"/>
     </g>
     <g id="text_8">
      <!-- 0 -->
      <g style="fill:#262626;" transform="translate(29.8125 292.609266)scale(0.11 -0.11)">
       <use xlink:href="#DejaVuSans-48"/>
      </g>
     </g>
    </g>
    <g id="ytick_2">
     <g id="line2d_8">
      <path clip-path="url(#p4c25a25937)" d="M 46.31125 246.850125 
L 403.43125 246.850125 
" style="fill:none;stroke:#ffffff;stroke-linecap:round;"/>
     </g>
     <g id="text_9">
      <!-- 5 -->
      <defs>
       <path d="M 10.796875 72.90625 
L 49.515625 72.90625 
L 49.515625 64.59375 
L 19.828125 64.59375 
L 19.828125 46.734375 
Q 21.96875 47.46875 24.109375 47.828125 
Q 26.265625 48.1875 28.421875 48.1875 
Q 40.625 48.1875 47.75 41.5 
Q 54.890625 34.8125 54.890625 23.390625 
Q 54.890625 11.625 47.5625 5.09375 
Q 40.234375 -1.421875 26.90625 -1.421875 
Q 22.3125 -1.421875 17.546875 -0.640625 
Q 12.796875 0.140625 7.71875 1.703125 
L 7.71875 11.625 
Q 12.109375 9.234375 16.796875 8.0625 
Q 21.484375 6.890625 26.703125 6.890625 
Q 35.15625 6.890625 40.078125 11.328125 
Q 45.015625 15.765625 45.015625 23.390625 
Q 45.015625 31 40.078125 35.4375 
Q 35.15625 39.890625 26.703125 39.890625 
Q 22.75 39.890625 18.8125 39.015625 
Q 14.890625 38.140625 10.796875 36.28125 
z
" id="DejaVuSans-53"/>
      </defs>
      <g style="fill:#262626;" transform="translate(29.8125 251.029266)scale(0.11 -0.11)">
       <use xlink:href="#DejaVuSans-53"/>
      </g>
     </g>
    </g>
    <g id="ytick_3">
     <g id="line2d_9">
      <path clip-path="url(#p4c25a25937)" d="M 46.31125 205.270125 
L 403.43125 205.270125 
" style="fill:none;stroke:#ffffff;stroke-linecap:round;"/>
     </g>
     <g id="text_10">
      <!-- 10 -->
      <g style="fill:#262626;" transform="translate(22.81375 209.449266)scale(0.11 -0.11)">
       <use xlink:href="#DejaVuSans-49"/>
       <use x="63.623047" xlink:href="#DejaVuSans-48"/>
      </g>
     </g>
    </g>
    <g id="ytick_4">
     <g id="line2d_10">
      <path clip-path="url(#p4c25a25937)" d="M 46.31125 163.690125 
L 403.43125 163.690125 
" style="fill:none;stroke:#ffffff;stroke-linecap:round;"/>
     </g>
     <g id="text_11">
      <!-- 15 -->
      <g style="fill:#262626;" transform="translate(22.81375 167.869266)scale(0.11 -0.11)">
       <use xlink:href="#DejaVuSans-49"/>
       <use x="63.623047" xlink:href="#DejaVuSans-53"/>
      </g>
     </g>
    </g>
    <g id="ytick_5">
     <g id="line2d_11">
      <path clip-path="url(#p4c25a25937)" d="M 46.31125 122.110125 
L 403.43125 122.110125 
" style="fill:none;stroke:#ffffff;stroke-linecap:round;"/>
     </g>
     <g id="text_12">
      <!-- 20 -->
      <g style="fill:#262626;" transform="translate(22.81375 126.289266)scale(0.11 -0.11)">
       <use xlink:href="#DejaVuSans-50"/>
       <use x="63.623047" xlink:href="#DejaVuSans-48"/>
      </g>
     </g>
    </g>
    <g id="ytick_6">
     <g id="line2d_12">
      <path clip-path="url(#p4c25a25937)" d="M 46.31125 80.530125 
L 403.43125 80.530125 
" style="fill:none;stroke:#ffffff;stroke-linecap:round;"/>
     </g>
     <g id="text_13">
      <!-- 25 -->
      <g style="fill:#262626;" transform="translate(22.81375 84.709266)scale(0.11 -0.11)">
       <use xlink:href="#DejaVuSans-50"/>
       <use x="63.623047" xlink:href="#DejaVuSans-53"/>
      </g>
     </g>
    </g>
    <g id="ytick_7">
     <g id="line2d_13">
      <path clip-path="url(#p4c25a25937)" d="M 46.31125 38.950125 
L 403.43125 38.950125 
" style="fill:none;stroke:#ffffff;stroke-linecap:round;"/>
     </g>
     <g id="text_14">
      <!-- 30 -->
      <defs>
       <path d="M 40.578125 39.3125 
Q 47.65625 37.796875 51.625 33 
Q 55.609375 28.21875 55.609375 21.1875 
Q 55.609375 10.40625 48.1875 4.484375 
Q 40.765625 -1.421875 27.09375 -1.421875 
Q 22.515625 -1.421875 17.65625 -0.515625 
Q 12.796875 0.390625 7.625 2.203125 
L 7.625 11.71875 
Q 11.71875 9.328125 16.59375 8.109375 
Q 21.484375 6.890625 26.8125 6.890625 
Q 36.078125 6.890625 40.9375 10.546875 
Q 45.796875 14.203125 45.796875 21.1875 
Q 45.796875 27.640625 41.28125 31.265625 
Q 36.765625 34.90625 28.71875 34.90625 
L 20.21875 34.90625 
L 20.21875 43.015625 
L 29.109375 43.015625 
Q 36.375 43.015625 40.234375 45.921875 
Q 44.09375 48.828125 44.09375 54.296875 
Q 44.09375 59.90625 40.109375 62.90625 
Q 36.140625 65.921875 28.71875 65.921875 
Q 24.65625 65.921875 20.015625 65.03125 
Q 15.375 64.15625 9.8125 62.3125 
L 9.8125 71.09375 
Q 15.4375 72.65625 20.34375 73.4375 
Q 25.25 74.21875 29.59375 74.21875 
Q 40.828125 74.21875 47.359375 69.109375 
Q 53.90625 64.015625 53.90625 55.328125 
Q 53.90625 49.265625 50.4375 45.09375 
Q 46.96875 40.921875 40.578125 39.3125 
z
" id="DejaVuSans-51"/>
      </defs>
      <g style="fill:#262626;" transform="translate(22.81375 43.129266)scale(0.11 -0.11)">
       <use xlink:href="#DejaVuSans-51"/>
       <use x="63.623047" xlink:href="#DejaVuSans-48"/>
      </g>
     </g>
    </g>
    <g id="text_15">
     <!-- Effective Rank - Mean over Batches -->
     <defs>
      <path d="M 9.8125 72.90625 
L 55.90625 72.90625 
L 55.90625 64.59375 
L 19.671875 64.59375 
L 19.671875 43.015625 
L 54.390625 43.015625 
L 54.390625 34.71875 
L 19.671875 34.71875 
L 19.671875 8.296875 
L 56.78125 8.296875 
L 56.78125 0 
L 9.8125 0 
z
" id="DejaVuSans-69"/>
      <path d="M 37.109375 75.984375 
L 37.109375 68.5 
L 28.515625 68.5 
Q 23.6875 68.5 21.796875 66.546875 
Q 19.921875 64.59375 19.921875 59.515625 
L 19.921875 54.6875 
L 34.71875 54.6875 
L 34.71875 47.703125 
L 19.921875 47.703125 
L 19.921875 0 
L 10.890625 0 
L 10.890625 47.703125 
L 2.296875 47.703125 
L 2.296875 54.6875 
L 10.890625 54.6875 
L 10.890625 58.5 
Q 10.890625 67.625 15.140625 71.796875 
Q 19.390625 75.984375 28.609375 75.984375 
z
" id="DejaVuSans-102"/>
      <path d="M 18.3125 70.21875 
L 18.3125 54.6875 
L 36.8125 54.6875 
L 36.8125 47.703125 
L 18.3125 47.703125 
L 18.3125 18.015625 
Q 18.3125 11.328125 20.140625 9.421875 
Q 21.96875 7.515625 27.59375 7.515625 
L 36.8125 7.515625 
L 36.8125 0 
L 27.59375 0 
Q 17.1875 0 13.234375 3.875 
Q 9.28125 7.765625 9.28125 18.015625 
L 9.28125 47.703125 
L 2.6875 47.703125 
L 2.6875 54.6875 
L 9.28125 54.6875 
L 9.28125 70.21875 
z
" id="DejaVuSans-116"/>
      <path d="M 9.421875 54.6875 
L 18.40625 54.6875 
L 18.40625 0 
L 9.421875 0 
z
M 9.421875 75.984375 
L 18.40625 75.984375 
L 18.40625 64.59375 
L 9.421875 64.59375 
z
" id="DejaVuSans-105"/>
      <path d="M 2.984375 54.6875 
L 12.5 54.6875 
L 29.59375 8.796875 
L 46.6875 54.6875 
L 56.203125 54.6875 
L 35.6875 0 
L 23.484375 0 
z
" id="DejaVuSans-118"/>
      <path id="DejaVuSans-32"/>
      <path d="M 44.390625 34.1875 
Q 47.5625 33.109375 50.5625 29.59375 
Q 53.5625 26.078125 56.59375 19.921875 
L 66.609375 0 
L 56 0 
L 46.6875 18.703125 
Q 43.0625 26.03125 39.671875 28.421875 
Q 36.28125 30.8125 30.421875 30.8125 
L 19.671875 30.8125 
L 19.671875 0 
L 9.8125 0 
L 9.8125 72.90625 
L 32.078125 72.90625 
Q 44.578125 72.90625 50.734375 67.671875 
Q 56.890625 62.453125 56.890625 51.90625 
Q 56.890625 45.015625 53.6875 40.46875 
Q 50.484375 35.9375 44.390625 34.1875 
z
M 19.671875 64.796875 
L 19.671875 38.921875 
L 32.078125 38.921875 
Q 39.203125 38.921875 42.84375 42.21875 
Q 46.484375 45.515625 46.484375 51.90625 
Q 46.484375 58.296875 42.84375 61.546875 
Q 39.203125 64.796875 32.078125 64.796875 
z
" id="DejaVuSans-82"/>
      <path d="M 34.28125 27.484375 
Q 23.390625 27.484375 19.1875 25 
Q 14.984375 22.515625 14.984375 16.5 
Q 14.984375 11.71875 18.140625 8.90625 
Q 21.296875 6.109375 26.703125 6.109375 
Q 34.1875 6.109375 38.703125 11.40625 
Q 43.21875 16.703125 43.21875 25.484375 
L 43.21875 27.484375 
z
M 52.203125 31.203125 
L 52.203125 0 
L 43.21875 0 
L 43.21875 8.296875 
Q 40.140625 3.328125 35.546875 0.953125 
Q 30.953125 -1.421875 24.3125 -1.421875 
Q 15.921875 -1.421875 10.953125 3.296875 
Q 6 8.015625 6 15.921875 
Q 6 25.140625 12.171875 29.828125 
Q 18.359375 34.515625 30.609375 34.515625 
L 43.21875 34.515625 
L 43.21875 35.40625 
Q 43.21875 41.609375 39.140625 45 
Q 35.0625 48.390625 27.6875 48.390625 
Q 23 48.390625 18.546875 47.265625 
Q 14.109375 46.140625 10.015625 43.890625 
L 10.015625 52.203125 
Q 14.9375 54.109375 19.578125 55.046875 
Q 24.21875 56 28.609375 56 
Q 40.484375 56 46.34375 49.84375 
Q 52.203125 43.703125 52.203125 31.203125 
z
" id="DejaVuSans-97"/>
      <path d="M 54.890625 33.015625 
L 54.890625 0 
L 45.90625 0 
L 45.90625 32.71875 
Q 45.90625 40.484375 42.875 44.328125 
Q 39.84375 48.1875 33.796875 48.1875 
Q 26.515625 48.1875 22.3125 43.546875 
Q 18.109375 38.921875 18.109375 30.90625 
L 18.109375 0 
L 9.078125 0 
L 9.078125 54.6875 
L 18.109375 54.6875 
L 18.109375 46.1875 
Q 21.34375 51.125 25.703125 53.5625 
Q 30.078125 56 35.796875 56 
Q 45.21875 56 50.046875 50.171875 
Q 54.890625 44.34375 54.890625 33.015625 
z
" id="DejaVuSans-110"/>
      <path d="M 9.078125 75.984375 
L 18.109375 75.984375 
L 18.109375 31.109375 
L 44.921875 54.6875 
L 56.390625 54.6875 
L 27.390625 29.109375 
L 57.625 0 
L 45.90625 0 
L 18.109375 26.703125 
L 18.109375 0 
L 9.078125 0 
z
" id="DejaVuSans-107"/>
      <path d="M 4.890625 31.390625 
L 31.203125 31.390625 
L 31.203125 23.390625 
L 4.890625 23.390625 
z
" id="DejaVuSans-45"/>
      <path d="M 9.8125 72.90625 
L 24.515625 72.90625 
L 43.109375 23.296875 
L 61.8125 72.90625 
L 76.515625 72.90625 
L 76.515625 0 
L 66.890625 0 
L 66.890625 64.015625 
L 48.09375 14.015625 
L 38.1875 14.015625 
L 19.390625 64.015625 
L 19.390625 0 
L 9.8125 0 
z
" id="DejaVuSans-77"/>
      <path d="M 41.109375 46.296875 
Q 39.59375 47.171875 37.8125 47.578125 
Q 36.03125 48 33.890625 48 
Q 26.265625 48 22.1875 43.046875 
Q 18.109375 38.09375 18.109375 28.8125 
L 18.109375 0 
L 9.078125 0 
L 9.078125 54.6875 
L 18.109375 54.6875 
L 18.109375 46.1875 
Q 20.953125 51.171875 25.484375 53.578125 
Q 30.03125 56 36.53125 56 
Q 37.453125 56 38.578125 55.875 
Q 39.703125 55.765625 41.0625 55.515625 
z
" id="DejaVuSans-114"/>
      <path d="M 19.671875 34.8125 
L 19.671875 8.109375 
L 35.5 8.109375 
Q 43.453125 8.109375 47.28125 11.40625 
Q 51.125 14.703125 51.125 21.484375 
Q 51.125 28.328125 47.28125 31.5625 
Q 43.453125 34.8125 35.5 34.8125 
z
M 19.671875 64.796875 
L 19.671875 42.828125 
L 34.28125 42.828125 
Q 41.5 42.828125 45.03125 45.53125 
Q 48.578125 48.25 48.578125 53.8125 
Q 48.578125 59.328125 45.03125 62.0625 
Q 41.5 64.796875 34.28125 64.796875 
z
M 9.8125 72.90625 
L 35.015625 72.90625 
Q 46.296875 72.90625 52.390625 68.21875 
Q 58.5 63.53125 58.5 54.890625 
Q 58.5 48.1875 55.375 44.234375 
Q 52.25 40.28125 46.1875 39.3125 
Q 53.46875 37.75 57.5 32.78125 
Q 61.53125 27.828125 61.53125 20.40625 
Q 61.53125 10.640625 54.890625 5.3125 
Q 48.25 0 35.984375 0 
L 9.8125 0 
z
" id="DejaVuSans-66"/>
      <path d="M 44.28125 53.078125 
L 44.28125 44.578125 
Q 40.484375 46.53125 36.375 47.5 
Q 32.28125 48.484375 27.875 48.484375 
Q 21.1875 48.484375 17.84375 46.4375 
Q 14.5 44.390625 14.5 40.28125 
Q 14.5 37.15625 16.890625 35.375 
Q 19.28125 33.59375 26.515625 31.984375 
L 29.59375 31.296875 
Q 39.15625 29.25 43.1875 25.515625 
Q 47.21875 21.78125 47.21875 15.09375 
Q 47.21875 7.46875 41.1875 3.015625 
Q 35.15625 -1.421875 24.609375 -1.421875 
Q 20.21875 -1.421875 15.453125 -0.5625 
Q 10.6875 0.296875 5.421875 2 
L 5.421875 11.28125 
Q 10.40625 8.6875 15.234375 7.390625 
Q 20.0625 6.109375 24.8125 6.109375 
Q 31.15625 6.109375 34.5625 8.28125 
Q 37.984375 10.453125 37.984375 14.40625 
Q 37.984375 18.0625 35.515625 20.015625 
Q 33.0625 21.96875 24.703125 23.78125 
L 21.578125 24.515625 
Q 13.234375 26.265625 9.515625 29.90625 
Q 5.8125 33.546875 5.8125 39.890625 
Q 5.8125 47.609375 11.28125 51.796875 
Q 16.75 56 26.8125 56 
Q 31.78125 56 36.171875 55.265625 
Q 40.578125 54.546875 44.28125 53.078125 
z
" id="DejaVuSans-115"/>
     </defs>
     <g style="fill:#262626;" transform="translate(16.318125 262.256625)rotate(-90)scale(0.12 -0.12)">
      <use xlink:href="#DejaVuSans-69"/>
      <use x="63.183594" xlink:href="#DejaVuSans-102"/>
      <use x="98.388672" xlink:href="#DejaVuSans-102"/>
      <use x="133.59375" xlink:href="#DejaVuSans-101"/>
      <use x="195.117188" xlink:href="#DejaVuSans-99"/>
      <use x="250.097656" xlink:href="#DejaVuSans-116"/>
      <use x="289.306641" xlink:href="#DejaVuSans-105"/>
      <use x="317.089844" xlink:href="#DejaVuSans-118"/>
      <use x="376.269531" xlink:href="#DejaVuSans-101"/>
      <use x="437.792969" xlink:href="#DejaVuSans-32"/>
      <use x="469.580078" xlink:href="#DejaVuSans-82"/>
      <use x="539.03125" xlink:href="#DejaVuSans-97"/>
      <use x="600.310547" xlink:href="#DejaVuSans-110"/>
      <use x="663.689453" xlink:href="#DejaVuSans-107"/>
      <use x="721.599609" xlink:href="#DejaVuSans-32"/>
      <use x="753.386719" xlink:href="#DejaVuSans-45"/>
      <use x="789.470703" xlink:href="#DejaVuSans-32"/>
      <use x="821.257812" xlink:href="#DejaVuSans-77"/>
      <use x="907.537109" xlink:href="#DejaVuSans-101"/>
      <use x="969.060547" xlink:href="#DejaVuSans-97"/>
      <use x="1030.339844" xlink:href="#DejaVuSans-110"/>
      <use x="1093.71875" xlink:href="#DejaVuSans-32"/>
      <use x="1125.505859" xlink:href="#DejaVuSans-111"/>
      <use x="1186.6875" xlink:href="#DejaVuSans-118"/>
      <use x="1245.867188" xlink:href="#DejaVuSans-101"/>
      <use x="1307.390625" xlink:href="#DejaVuSans-114"/>
      <use x="1348.503906" xlink:href="#DejaVuSans-32"/>
      <use x="1380.291016" xlink:href="#DejaVuSans-66"/>
      <use x="1448.894531" xlink:href="#DejaVuSans-97"/>
      <use x="1510.173828" xlink:href="#DejaVuSans-116"/>
      <use x="1549.382812" xlink:href="#DejaVuSans-99"/>
      <use x="1604.363281" xlink:href="#DejaVuSans-104"/>
      <use x="1667.742188" xlink:href="#DejaVuSans-101"/>
      <use x="1729.265625" xlink:href="#DejaVuSans-115"/>
     </g>
    </g>
   </g>
   <g id="PolyCollection_1">
    <defs>
     <path d="M 62.543977 -106.315605 
L 62.543977 -105.629749 
L 65.856779 -110.267312 
L 69.16958 -109.659151 
L 72.482382 -108.708062 
L 75.795183 -107.687316 
L 79.107985 -107.581937 
L 82.420786 -106.829997 
L 85.733588 -105.329687 
L 89.046389 -102.904187 
L 92.359191 -103.91511 
L 95.671992 -102.384437 
L 98.984794 -103.164062 
L 102.297595 -102.029007 
L 105.610397 -100.651938 
L 108.923198 -100.478688 
L 112.236 -99.457048 
L 115.548801 -99.006062 
L 118.861603 -99.371316 
L 122.174404 -98.919438 
L 125.487205 -99.092687 
L 128.800007 -98.486312 
L 132.112808 -97.013688 
L 135.42561 -97.360187 
L 138.738411 -97.793312 
L 142.051213 -97.360187 
L 145.364014 -96.446904 
L 148.676816 -96.493937 
L 151.989617 -95.627687 
L 155.302419 -95.800938 
L 158.61522 -94.241688 
L 161.928022 -94.501563 
L 165.240823 -93.288812 
L 168.553625 -93.895187 
L 171.866426 -94.674813 
L 175.179228 -93.808562 
L 178.492029 -94.484595 
L 181.804831 -93.808562 
L 185.117632 -93.375438 
L 188.430434 -93.635312 
L 191.743235 -92.595812 
L 195.056037 -92.341296 
L 198.368838 -92.51276 
L 201.68164 -93.027151 
L 204.994441 -91.826904 
L 208.307243 -92.855687 
L 211.620044 -92.427028 
L 214.932846 -91.998368 
L 218.245647 -92.855687 
L 221.558449 -93.028937 
L 224.87125 -92.336429 
L 228.184051 -89.769337 
L 231.496853 -90.112265 
L 234.809654 -89.910437 
L 238.122456 -90.712389 
L 241.435257 -90.283729 
L 244.748059 -89.737188 
L 248.06086 -88.654822 
L 251.373662 -89.426409 
L 254.686463 -89.597873 
L 257.999265 -89.597873 
L 261.312066 -87.883234 
L 264.624868 -89.014419 
L 267.937669 -88.226162 
L 271.250471 -87.71177 
L 274.563272 -87.540306 
L 277.876074 -88.826285 
L 281.188875 -87.626038 
L 284.501677 -87.28311 
L 287.814478 -86.168595 
L 291.12728 -87.368842 
L 294.440081 -86.682986 
L 297.752883 -87.368842 
L 301.065684 -86.425791 
L 304.378486 -85.482739 
L 307.691287 -84.539687 
L 311.004089 -85.397007 
L 314.31689 -85.925687 
L 317.629692 -85.139811 
L 320.942493 -84.968347 
L 324.255295 -84.625419 
L 327.568096 -84.19676 
L 330.880897 -83.853832 
L 334.193699 -84.886188 
L 337.5065 -83.933312 
L 340.819302 -84.366437 
L 344.132103 -83.673437 
L 347.444905 -83.153687 
L 350.757706 -82.893812 
L 354.070508 -82.807187 
L 357.383309 -83.067062 
L 360.696111 -83.586813 
L 364.008912 -80.728187 
L 367.321714 -80.728187 
L 370.634515 -80.554937 
L 373.947317 -81.074687 
L 377.260118 -81.074687 
L 380.57292 -80.641562 
L 383.885721 -82.460688 
L 387.198523 -82.396389 
L 387.198523 -83.413562 
L 387.198523 -83.413562 
L 383.885721 -82.91078 
L 380.57292 -83.596636 
L 377.260118 -82.567852 
L 373.947317 -84.025296 
L 370.634515 -83.939564 
L 367.321714 -83.33944 
L 364.008912 -84.111028 
L 360.696111 -85.397007 
L 357.383309 -84.968347 
L 354.070508 -85.139811 
L 350.757706 -84.539687 
L 347.444905 -84.968347 
L 344.132103 -86.425791 
L 340.819302 -85.311275 
L 337.5065 -84.882615 
L 334.193699 -87.883234 
L 330.880897 -87.025914 
L 327.568096 -86.940182 
L 324.255295 -86.768718 
L 320.942493 -87.085153 
L 317.629692 -86.597255 
L 314.31689 -86.682986 
L 311.004089 -88.311894 
L 307.691287 -87.626038 
L 304.378486 -87.025914 
L 301.065684 -87.571562 
L 297.752883 -87.540306 
L 294.440081 -88.264563 
L 291.12728 -88.697688 
L 287.814478 -89.254945 
L 284.501677 -88.740553 
L 281.188875 -89.910437 
L 277.876074 -89.217437 
L 274.563272 -89.940801 
L 271.250471 -89.274034 
L 267.937669 -90.283729 
L 264.624868 -90.969584 
L 261.312066 -91.998368 
L 257.999265 -91.826904 
L 254.686463 -91.22678 
L 251.373662 -91.398244 
L 248.06086 -92.0841 
L 244.748059 -90.969584 
L 241.435257 -92.855687 
L 238.122456 -92.855687 
L 234.809654 -93.027151 
L 231.496853 -92.427028 
L 228.184051 -93.112883 
L 224.87125 -94.484595 
L 221.558449 -94.313131 
L 218.245647 -93.375438 
L 214.932846 -93.721937 
L 211.620044 -94.141667 
L 208.307243 -95.341914 
L 204.994441 -94.741791 
L 201.68164 -95.942038 
L 198.368838 -94.155062 
L 195.056037 -93.627275 
L 191.743235 -95.084718 
L 188.430434 -94.656059 
L 185.117632 -97.142285 
L 181.804831 -95.513378 
L 178.492029 -95.17045 
L 175.179228 -96.542162 
L 171.866426 -97.828141 
L 168.553625 -98.171069 
L 165.240823 -96.199234 
L 161.928022 -97.913873 
L 158.61522 -98.342533 
L 155.302419 -97.913873 
L 151.989617 -98.599729 
L 148.676816 -98.342533 
L 145.364014 -98.685461 
L 142.051213 -99.54278 
L 138.738411 -99.199852 
L 135.42561 -99.371316 
L 132.112808 -99.799976 
L 128.800007 -99.885708 
L 125.487205 -101.514615 
L 122.174404 -100.743028 
L 118.861603 -100.057172 
L 115.548801 -101.171687 
L 112.236 -102.371935 
L 108.923198 -101.857543 
L 105.610397 -102.972059 
L 102.297595 -103.229255 
L 98.984794 -104.000842 
L 95.671992 -103.91511 
L 92.359191 -104.550062 
L 89.046389 -106.658533 
L 85.733588 -106.058409 
L 82.420786 -107.515852 
L 79.107985 -108.887564 
L 75.795183 -110.345007 
L 72.482382 -111.716718 
L 69.16958 -110.687935 
L 65.856779 -111.888182 
L 62.543977 -106.315605 
z
" id="m7aed973764" style="stroke:#1f77b4;stroke-opacity:0.2;"/>
    </defs>
    <g clip-path="url(#p4c25a25937)">
     <use style="fill:#1f77b4;fill-opacity:0.2;stroke:#1f77b4;stroke-opacity:0.2;" x="0" xlink:href="#m7aed973764" y="331.389812"/>
    </g>
   </g>
   <g id="PolyCollection_2">
    <defs>
     <path d="M 62.543977 -223.939852 
L 62.543977 -219.138863 
L 65.856779 -183.552062 
L 69.16958 -166.670904 
L 72.482382 -161.869914 
L 75.795183 -154.186187 
L 79.107985 -148.838657 
L 82.420786 -145.752306 
L 85.733588 -143.866203 
L 89.046389 -142.237296 
L 92.359191 -137.093378 
L 95.671992 -138.636553 
L 98.984794 -136.836182 
L 102.297595 -136.407523 
L 105.610397 -134.024353 
L 108.923198 -133.569437 
L 112.236 -130.320553 
L 115.548801 -128.262986 
L 118.861603 -127.852187 
L 122.174404 -127.748595 
L 125.487205 -127.234203 
L 128.800007 -125.340062 
L 132.112808 -124.233584 
L 135.42561 -123.290533 
L 138.738411 -122.176017 
L 142.051213 -121.83309 
L 145.364014 -120.204182 
L 148.676816 -120.375646 
L 151.989617 -120.97577 
L 155.302419 -119.536187 
L 158.61522 -119.189687 
L 161.928022 -118.746739 
L 165.240823 -119.859111 
L 168.553625 -117.632224 
L 171.866426 -117.289296 
L 175.179228 -116.260512 
L 178.492029 -117.110687 
L 181.804831 -114.031481 
L 185.117632 -113.51709 
L 188.430434 -114.202945 
L 191.743235 -114.460141 
L 195.056037 -114.374409 
L 198.368838 -112.831234 
L 201.68164 -110.945131 
L 204.994441 -111.630986 
L 208.307243 -109.401956 
L 211.620044 -110.773667 
L 214.932846 -109.316224 
L 218.245647 -108.973296 
L 221.558449 -108.115976 
L 224.87125 -109.401956 
L 228.184051 -106.744265 
L 231.496853 -107.344389 
L 234.809654 -106.487069 
L 238.122456 -105.372553 
L 241.435257 -106.315605 
L 244.748059 -104.086574 
L 248.06086 -104.086574 
L 251.373662 -105.715481 
L 254.686463 -104.34377 
L 257.999265 -103.400718 
L 261.312066 -101.686079 
L 264.624868 -101.428883 
L 267.937669 -102.343358 
L 271.250471 -101.171687 
L 274.563272 -99.97144 
L 277.876074 -99.885708 
L 281.188875 -99.11412 
L 284.501677 -100.657296 
L 287.814478 -100.485832 
L 291.12728 -99.54278 
L 294.440081 -99.11412 
L 297.752883 -99.885708 
L 301.065684 -98.856925 
L 304.378486 -99.371316 
L 307.691287 -97.913873 
L 311.004089 -95.770574 
L 314.31689 -96.199234 
L 317.629692 -95.684842 
L 320.942493 -96.199234 
L 324.255295 -96.45643 
L 327.568096 -95.17045 
L 330.880897 -95.084718 
L 334.193699 -97.142285 
L 337.5065 -97.228017 
L 340.819302 -95.714312 
L 344.132103 -95.541063 
L 347.444905 -94.241688 
L 350.757706 -95.021313 
L 354.070508 -96.234062 
L 357.383309 -95.59911 
L 360.696111 -94.313131 
L 364.008912 -93.375438 
L 367.321714 -92.769062 
L 370.634515 -91.642938 
L 373.947317 -92.076062 
L 377.260118 -90.516812 
L 380.57292 -90.883852 
L 383.885721 -90.112265 
L 387.198523 -91.826904 
L 387.198523 -93.548687 
L 387.198523 -93.548687 
L 383.885721 -91.642938 
L 380.57292 -91.209812 
L 377.260118 -91.998368 
L 373.947317 -92.169832 
L 370.634515 -93.112883 
L 367.321714 -95.084718 
L 364.008912 -95.856306 
L 360.696111 -96.234062 
L 357.383309 -96.060812 
L 354.070508 -96.542162 
L 350.757706 -95.856306 
L 347.444905 -96.199234 
L 344.132103 -96.284966 
L 340.819302 -97.570945 
L 337.5065 -97.706687 
L 334.193699 -97.966562 
L 330.880897 -97.446812 
L 327.568096 -98.342533 
L 324.255295 -99.265937 
L 320.942493 -100.228636 
L 317.629692 -100.948784 
L 314.31689 -100.305437 
L 311.004089 -101.951313 
L 307.691287 -101.431562 
L 304.378486 -102.200471 
L 301.065684 -103.943687 
L 297.752883 -104.290188 
L 294.440081 -104.550062 
L 291.12728 -104.172306 
L 287.814478 -104.550062 
L 284.501677 -104.686698 
L 281.188875 -104.636687 
L 277.876074 -106.282562 
L 274.563272 -104.723312 
L 271.250471 -106.715688 
L 267.937669 -105.329687 
L 264.624868 -107.322062 
L 261.312066 -106.369187 
L 257.999265 -107.322062 
L 254.686463 -108.101687 
L 251.373662 -108.448187 
L 248.06086 -108.115976 
L 244.748059 -108.361562 
L 241.435257 -110.259275 
L 238.122456 -110.700437 
L 234.809654 -112.606187 
L 231.496853 -111.653312 
L 228.184051 -112.866062 
L 224.87125 -111.202327 
L 221.558449 -113.002698 
L 218.245647 -111.739937 
L 214.932846 -114.858437 
L 211.620044 -114.945062 
L 208.307243 -115.811312 
L 204.994441 -115.145997 
L 201.68164 -116.774904 
L 198.368838 -116.003316 
L 195.056037 -116.003316 
L 191.743235 -117.46076 
L 188.430434 -118.318079 
L 185.117632 -118.230859 
L 181.804831 -119.689791 
L 178.492029 -118.489543 
L 175.179228 -119.003935 
L 171.866426 -119.861255 
L 168.553625 -120.489062 
L 165.240823 -120.662312 
L 161.928022 -120.402437 
L 158.61522 -122.090285 
L 155.302419 -121.918822 
L 151.989617 -122.048312 
L 148.676816 -123.119069 
L 145.364014 -125.599937 
L 142.051213 -125.605296 
L 138.738411 -126.977007 
L 135.42561 -126.033956 
L 132.112808 -128.691646 
L 128.800007 -131.606533 
L 125.487205 -130.577749 
L 122.174404 -132.035193 
L 118.861603 -134.778615 
L 115.548801 -133.578368 
L 112.236 -135.293007 
L 108.923198 -134.264224 
L 105.610397 -137.60777 
L 102.297595 -140.522657 
L 98.984794 -140.436925 
L 95.671992 -140.436925 
L 92.359191 -144.380595 
L 89.046389 -145.177187 
L 85.733588 -146.35243 
L 82.420786 -149.508437 
L 79.107985 -154.23977 
L 75.795183 -159.898079 
L 72.482382 -165.793937 
L 69.16958 -170.786038 
L 65.856779 -185.617667 
L 62.543977 -223.939852 
z
" id="mfc3b0ae7bb" style="stroke:#ff7f0e;stroke-opacity:0.2;"/>
    </defs>
    <g clip-path="url(#p4c25a25937)">
     <use style="fill:#ff7f0e;fill-opacity:0.2;stroke:#ff7f0e;stroke-opacity:0.2;" x="0" xlink:href="#mfc3b0ae7bb" y="331.389812"/>
    </g>
   </g>
   <g id="PolyCollection_3">
    <defs>
     <path d="M 62.543977 -234.227687 
L 62.543977 -226.597543 
L 65.856779 -186.303523 
L 69.16958 -177.921437 
L 72.482382 -176.615811 
L 75.795183 -170.528842 
L 79.107985 -168.306062 
L 82.420786 -162.470038 
L 85.733588 -158.950562 
L 89.046389 -156.871562 
L 92.359191 -152.267935 
L 95.671992 -148.924389 
L 98.984794 -151.496347 
L 102.297595 -147.602688 
L 105.610397 -145.237914 
L 108.923198 -141.538937 
L 112.236 -140.759312 
L 115.548801 -138.940187 
L 118.861603 -139.026813 
L 122.174404 -139.286688 
L 125.487205 -137.45119 
L 128.800007 -135.648438 
L 132.112808 -135.042062 
L 135.42561 -134.349063 
L 138.738411 -135.293007 
L 142.051213 -133.063976 
L 145.364014 -131.750313 
L 148.676816 -129.584687 
L 151.989617 -130.277687 
L 155.302419 -128.458562 
L 158.61522 -129.324812 
L 161.928022 -127.072562 
L 165.240823 -127.505687 
L 168.553625 -128.86311 
L 171.866426 -127.234203 
L 175.179228 -125.691028 
L 178.492029 -123.890657 
L 181.804831 -123.547729 
L 185.117632 -123.376265 
L 188.430434 -122.861873 
L 191.743235 -120.289914 
L 195.056037 -119.432595 
L 198.368838 -118.146615 
L 201.68164 -117.717956 
L 204.994441 -116.946368 
L 208.307243 -118.403811 
L 211.620044 -115.917584 
L 214.932846 -117.0321 
L 218.245647 -117.546492 
L 221.558449 -116.003316 
L 224.87125 -115.231729 
L 228.184051 -112.745502 
L 231.496853 -113.08843 
L 234.809654 -114.031481 
L 238.122456 -115.231729 
L 241.435257 -113.688553 
L 244.748059 -112.402574 
L 248.06086 -110.859399 
L 251.373662 -110.859399 
L 254.686463 -108.201708 
L 257.999265 -110.945131 
L 261.312066 -109.401956 
L 264.624868 -107.773048 
L 267.937669 -106.572801 
L 271.250471 -108.544636 
L 274.563272 -106.487069 
L 277.876074 -106.144141 
L 281.188875 -105.286822 
L 284.501677 -105.286822 
L 287.814478 -103.314986 
L 291.12728 -101.857543 
L 294.440081 -104.515234 
L 297.752883 -103.91511 
L 301.065684 -104.086574 
L 304.378486 -102.972059 
L 307.691287 -102.886327 
L 311.004089 -102.114739 
L 314.31689 -99.714244 
L 317.629692 -101.428883 
L 320.942493 -101.428883 
L 324.255295 -98.513997 
L 327.568096 -99.54278 
L 330.880897 -97.742409 
L 334.193699 -102.211187 
L 337.5065 -99.97144 
L 340.819302 -100.478688 
L 344.132103 -99.525812 
L 347.444905 -99.179313 
L 350.757706 -99.457048 
L 354.070508 -100.305437 
L 357.383309 -100.305437 
L 360.696111 -98.942657 
L 364.008912 -97.100313 
L 367.321714 -95.714312 
L 370.634515 -96.493937 
L 373.947317 -94.588187 
L 377.260118 -94.227399 
L 380.57292 -93.028937 
L 383.885721 -94.313131 
L 387.198523 -95.256182 
L 387.198523 -96.060812 
L 387.198523 -96.060812 
L 383.885721 -95.454437 
L 380.57292 -94.741791 
L 377.260118 -94.588187 
L 373.947317 -96.627894 
L 370.634515 -98.085337 
L 367.321714 -97.828141 
L 364.008912 -97.399481 
L 360.696111 -99.092687 
L 357.383309 -100.914492 
L 354.070508 -100.743028 
L 350.757706 -100.218813 
L 347.444905 -99.97144 
L 344.132103 -100.314368 
L 340.819302 -102.886327 
L 337.5065 -101.344937 
L 334.193699 -103.91511 
L 330.880897 -104.000842 
L 327.568096 -103.91511 
L 324.255295 -104.600966 
L 320.942493 -105.069812 
L 317.629692 -105.329687 
L 314.31689 -105.972677 
L 311.004089 -106.829997 
L 307.691287 -105.762143 
L 304.378486 -107.062187 
L 301.065684 -107.495312 
L 297.752883 -109.227812 
L 294.440081 -108.544636 
L 291.12728 -109.227812 
L 287.814478 -109.054563 
L 284.501677 -110.527187 
L 281.188875 -110.960313 
L 277.876074 -111.739937 
L 274.563272 -110.727229 
L 271.250471 -112.952687 
L 267.937669 -113.174162 
L 264.624868 -112.866062 
L 261.312066 -116.244437 
L 257.999265 -113.212562 
L 254.686463 -115.638063 
L 251.373662 -115.724687 
L 248.06086 -117.289296 
L 244.748059 -117.375028 
L 241.435257 -119.103062 
L 238.122456 -117.889419 
L 234.809654 -119.016437 
L 231.496853 -120.229187 
L 228.184051 -119.861255 
L 224.87125 -120.890038 
L 221.558449 -123.290533 
L 218.245647 -119.796062 
L 214.932846 -122.048312 
L 211.620044 -123.261062 
L 208.307243 -124.06212 
L 204.994441 -124.833708 
L 201.68164 -126.033956 
L 198.368838 -126.719811 
L 195.056037 -125.433832 
L 191.743235 -127.834327 
L 188.430434 -128.520182 
L 185.117632 -128.348718 
L 181.804831 -128.691646 
L 178.492029 -129.72043 
L 175.179228 -129.891894 
L 171.866426 -131.520801 
L 168.553625 -132.549584 
L 165.240823 -131.263605 
L 161.928022 -133.492636 
L 158.61522 -134.264224 
L 155.302419 -133.406904 
L 151.989617 -133.23544 
L 148.676816 -133.321172 
L 145.364014 -134.264224 
L 142.051213 -134.349063 
L 138.738411 -138.979481 
L 135.42561 -139.322409 
L 132.112808 -140.522657 
L 128.800007 -143.180347 
L 125.487205 -144.552059 
L 122.174404 -143.780471 
L 118.861603 -144.980718 
L 115.548801 -143.780471 
L 112.236 -144.723523 
L 108.923198 -148.409997 
L 105.610397 -150.810492 
L 102.297595 -150.038904 
L 98.984794 -155.611481 
L 95.671992 -152.267935 
L 92.359191 -157.840512 
L 89.046389 -158.011976 
L 85.733588 -162.727234 
L 82.420786 -164.841062 
L 79.107985 -170.100182 
L 75.795183 -172.464062 
L 72.482382 -180.173687 
L 69.16958 -181.845461 
L 65.856779 -199.420512 
L 62.543977 -234.227687 
z
" id="m6a6e12a71c" style="stroke:#2ca02c;stroke-opacity:0.2;"/>
    </defs>
    <g clip-path="url(#p4c25a25937)">
     <use style="fill:#2ca02c;fill-opacity:0.2;stroke:#2ca02c;stroke-opacity:0.2;" x="0" xlink:href="#m6a6e12a71c" y="331.389812"/>
    </g>
   </g>
   <g id="PolyCollection_4">
    <defs>
     <path d="M 62.543977 -242.372224 
L 62.543977 -234.913543 
L 65.856779 -224.539976 
L 69.16958 -224.698938 
L 72.482382 -217.075937 
L 75.795183 -217.335812 
L 79.107985 -205.901312 
L 82.420786 -209.451151 
L 85.733588 -205.814687 
L 89.046389 -202.176437 
L 92.359191 -202.869438 
L 95.671992 -196.372562 
L 98.984794 -197.065562 
L 102.297595 -198.477461 
L 105.610397 -191.521562 
L 108.923198 -195.734038 
L 112.236 -191.001812 
L 115.548801 -191.618904 
L 118.861603 -191.608187 
L 122.174404 -188.662937 
L 125.487205 -185.544437 
L 128.800007 -182.166062 
L 132.112808 -185.111312 
L 135.42561 -186.903646 
L 138.738411 -189.218409 
L 142.051213 -185.717687 
L 145.364014 -186.817914 
L 148.676816 -183.985187 
L 151.989617 -188.618285 
L 155.302419 -184.000667 
L 158.61522 -183.217172 
L 161.928022 -179.273502 
L 165.240823 -184.245062 
L 168.553625 -184.245956 
L 171.866426 -179.827187 
L 175.179228 -182.772437 
L 178.492029 -179.959358 
L 181.804831 -183.292187 
L 185.117632 -183.903028 
L 188.430434 -182.445584 
L 191.743235 -180.216553 
L 195.056037 -181.931193 
L 198.368838 -180.988141 
L 201.68164 -178.073255 
L 204.994441 -183.37018 
L 208.307243 -184.931811 
L 211.620044 -178.587646 
L 214.932846 -180.559481 
L 218.245647 -180.645213 
L 221.558449 -180.559481 
L 224.87125 -179.959358 
L 228.184051 -179.102038 
L 231.496853 -177.473131 
L 234.809654 -180.902409 
L 238.122456 -180.346937 
L 241.435257 -180.130822 
L 244.748059 -176.272883 
L 248.06086 -177.558863 
L 251.373662 -174.901172 
L 254.686463 -179.016306 
L 257.999265 -175.329832 
L 261.312066 -176.101419 
L 264.624868 -175.842437 
L 267.937669 -173.015069 
L 271.250471 -172.929337 
L 274.563272 -170.44311 
L 277.876074 -176.015687 
L 281.188875 -172.929337 
L 284.501677 -172.157749 
L 287.814478 -172.929337 
L 291.12728 -167.442492 
L 294.440081 -170.01445 
L 297.752883 -174.043852 
L 301.065684 -173.015069 
L 304.378486 -168.385543 
L 307.691287 -170.528842 
L 311.004089 -170.211813 
L 314.31689 -169.157131 
L 317.629692 -170.185914 
L 320.942493 -166.9281 
L 324.255295 -166.746812 
L 327.568096 -168.128347 
L 330.880897 -167.271028 
L 334.193699 -174.802937 
L 337.5065 -169.258938 
L 340.819302 -167.179937 
L 344.132103 -167.013832 
L 347.444905 -167.786312 
L 350.757706 -166.585172 
L 354.070508 -165.041997 
L 357.383309 -163.974812 
L 360.696111 -166.242244 
L 364.008912 -165.793937 
L 367.321714 -167.099564 
L 370.634515 -164.148062 
L 373.947317 -163.281813 
L 377.260118 -166.660188 
L 380.57292 -163.974812 
L 383.885721 -163.714938 
L 387.198523 -165.967187 
L 387.198523 -169.928718 
L 387.198523 -169.928718 
L 383.885721 -170.786038 
L 380.57292 -167.35676 
L 377.260118 -167.099564 
L 373.947317 -165.470657 
L 370.634515 -166.49944 
L 367.321714 -168.825812 
L 364.008912 -166.49944 
L 360.696111 -167.526437 
L 357.383309 -167.528224 
L 354.070508 -173.330312 
L 350.757706 -169.865312 
L 347.444905 -170.957502 
L 344.132103 -168.479312 
L 340.819302 -168.728471 
L 337.5065 -170.44311 
L 334.193699 -175.501296 
L 330.880897 -175.587028 
L 327.568096 -175.67276 
L 324.255295 -173.357997 
L 320.942493 -174.889563 
L 317.629692 -177.834812 
L 314.31689 -172.843605 
L 311.004089 -175.501296 
L 307.691287 -177.301667 
L 304.378486 -179.234789 
L 301.065684 -177.228437 
L 297.752883 -182.252687 
L 294.440081 -179.307437 
L 291.12728 -176.615811 
L 287.814478 -179.273502 
L 284.501677 -185.284562 
L 281.188875 -181.299813 
L 277.876074 -183.985187 
L 274.563272 -178.787687 
L 271.250471 -182.252687 
L 267.937669 -180.780062 
L 264.624868 -178.587646 
L 261.312066 -182.617048 
L 257.999265 -183.638688 
L 254.686463 -183.302904 
L 251.373662 -183.292187 
L 248.06086 -186.757187 
L 244.748059 -186.583937 
L 241.435257 -187.710062 
L 238.122456 -183.13144 
L 234.809654 -185.446203 
L 231.496853 -189.355937 
L 228.184051 -185.544437 
L 224.87125 -188.229812 
L 221.558449 -185.890937 
L 218.245647 -184.797766 
L 214.932846 -184.764812 
L 211.620044 -185.717687 
L 208.307243 -190.395437 
L 204.994441 -188.103894 
L 201.68164 -187.846698 
L 198.368838 -185.977563 
L 195.056037 -185.960595 
L 191.743235 -184.764812 
L 188.430434 -188.189626 
L 185.117632 -186.237437 
L 181.804831 -187.418038 
L 178.492029 -191.275976 
L 175.179228 -192.990615 
L 171.866426 -182.959976 
L 168.553625 -189.904265 
L 165.240823 -189.218409 
L 161.928022 -186.732182 
L 158.61522 -187.50377 
L 155.302419 -188.961213 
L 151.989617 -199.849172 
L 148.676816 -194.533791 
L 145.364014 -195.39111 
L 142.051213 -195.648306 
L 138.738411 -192.301187 
L 135.42561 -195.048182 
L 132.112808 -190.161461 
L 128.800007 -193.590739 
L 125.487205 -198.477461 
L 122.174404 -199.33478 
L 118.861603 -197.105749 
L 115.548801 -196.162698 
L 112.236 -202.078203 
L 108.923198 -202.782812 
L 105.610397 -198.134533 
L 102.297595 -201.478079 
L 98.984794 -205.507481 
L 95.671992 -205.593213 
L 92.359191 -207.479316 
L 89.046389 -210.565667 
L 85.733588 -211.422986 
L 82.420786 -213.737749 
L 79.107985 -222.482409 
L 75.795183 -220.167646 
L 72.482382 -223.425461 
L 69.16958 -228.912306 
L 65.856779 -231.109187 
L 62.543977 -242.372224 
z
" id="m5ddc5a9b7c" style="stroke:#d62728;stroke-opacity:0.2;"/>
    </defs>
    <g clip-path="url(#p4c25a25937)">
     <use style="fill:#d62728;fill-opacity:0.2;stroke:#d62728;stroke-opacity:0.2;" x="0" xlink:href="#m5ddc5a9b7c" y="331.389812"/>
    </g>
   </g>
   <g id="PolyCollection_5">
    <defs>
     <path d="M 62.543977 -59.077296 
L 62.543977 -58.119062 
L 65.856779 -58.048512 
L 69.16958 -58.205687 
L 72.482382 -58.905832 
L 75.795183 -58.465562 
L 79.107985 -58.477172 
L 82.420786 -58.378937 
L 85.733588 -58.39144 
L 89.046389 -58.562904 
L 92.359191 -58.39144 
L 95.671992 -58.134244 
L 98.984794 -58.39144 
L 102.297595 -58.378937 
L 105.610397 -59.245188 
L 108.923198 -57.945813 
L 112.236 -58.205687 
L 115.548801 -58.305708 
L 118.861603 -58.898688 
L 122.174404 -59.163028 
L 125.487205 -59.158563 
L 128.800007 -58.378937 
L 132.112808 -57.945813 
L 135.42561 -58.905832 
L 138.738411 -58.048512 
L 142.051213 -58.725437 
L 145.364014 -58.205687 
L 148.676816 -58.477172 
L 151.989617 -59.158563 
L 155.302419 -58.205687 
L 158.61522 -58.562904 
L 161.928022 -58.734368 
L 165.240823 -58.8201 
L 168.553625 -58.8201 
L 171.866426 -58.119062 
L 175.179228 -58.134244 
L 178.492029 -58.725437 
L 181.804831 -58.985312 
L 185.117632 -58.8201 
L 188.430434 -58.991564 
L 191.743235 -58.477172 
L 195.056037 -58.305708 
L 198.368838 -58.552188 
L 201.68164 -58.552188 
L 204.994441 -58.648636 
L 208.307243 -58.638813 
L 211.620044 -58.465562 
L 214.932846 -58.725437 
L 218.245647 -58.378937 
L 221.558449 -58.465562 
L 224.87125 -58.734368 
L 228.184051 -58.8201 
L 231.496853 -58.134244 
L 234.809654 -57.859187 
L 238.122456 -58.734368 
L 241.435257 -58.725437 
L 244.748059 -58.638813 
L 248.06086 -58.648636 
L 251.373662 -58.134244 
L 254.686463 -58.205687 
L 257.999265 -58.39144 
L 261.312066 -58.552188 
L 264.624868 -58.119062 
L 267.937669 -58.305708 
L 271.250471 -59.245188 
L 274.563272 -58.898688 
L 277.876074 -58.477172 
L 281.188875 -57.772562 
L 284.501677 -58.305708 
L 287.814478 -58.638813 
L 291.12728 -58.032438 
L 294.440081 -58.305708 
L 297.752883 -58.219976 
L 301.065684 -58.119062 
L 304.378486 -58.552188 
L 307.691287 -59.077296 
L 311.004089 -58.725437 
L 314.31689 -58.39144 
L 317.629692 -58.8201 
L 320.942493 -59.158563 
L 324.255295 -58.048512 
L 327.568096 -58.638813 
L 330.880897 -58.725437 
L 334.193699 -58.378937 
L 337.5065 -58.552188 
L 340.819302 -58.552188 
L 344.132103 -58.378937 
L 347.444905 -59.163028 
L 350.757706 -58.119062 
L 354.070508 -58.205687 
L 357.383309 -58.205687 
L 360.696111 -58.898688 
L 364.008912 -58.292313 
L 367.321714 -58.812062 
L 370.634515 -58.119062 
L 373.947317 -58.552188 
L 377.260118 -58.898688 
L 380.57292 -58.39144 
L 383.885721 -59.418437 
L 387.198523 -58.8201 
L 387.198523 -59.158563 
L 387.198523 -59.158563 
L 383.885721 -59.505956 
L 380.57292 -58.985312 
L 377.260118 -58.991564 
L 373.947317 -58.905832 
L 370.634515 -58.648636 
L 367.321714 -58.991564 
L 364.008912 -59.24876 
L 360.696111 -58.905832 
L 357.383309 -58.905832 
L 354.070508 -58.905832 
L 350.757706 -59.24876 
L 347.444905 -59.418437 
L 344.132103 -59.077296 
L 340.819302 -59.591687 
L 337.5065 -58.648636 
L 334.193699 -58.734368 
L 330.880897 -59.077296 
L 327.568096 -59.934615 
L 324.255295 -59.851562 
L 320.942493 -59.934615 
L 317.629692 -59.334492 
L 314.31689 -58.991564 
L 311.004089 -58.991564 
L 307.691287 -59.420224 
L 304.378486 -58.905832 
L 301.065684 -59.591687 
L 297.752883 -59.163028 
L 294.440081 -60.277543 
L 291.12728 -58.905832 
L 287.814478 -58.991564 
L 284.501677 -59.591687 
L 281.188875 -59.334492 
L 277.876074 -58.991564 
L 274.563272 -59.677419 
L 271.250471 -59.591687 
L 267.937669 -59.420224 
L 264.624868 -59.677419 
L 261.312066 -58.991564 
L 257.999265 -59.420224 
L 254.686463 -59.163028 
L 251.373662 -59.851562 
L 248.06086 -59.245188 
L 244.748059 -59.334492 
L 241.435257 -59.591687 
L 238.122456 -59.851562 
L 234.809654 -58.991564 
L 231.496853 -60.020347 
L 228.184051 -59.848883 
L 224.87125 -59.071938 
L 221.558449 -59.24876 
L 218.245647 -60.020347 
L 214.932846 -59.734574 
L 211.620044 -59.591687 
L 208.307243 -59.24876 
L 204.994441 -59.334492 
L 201.68164 -59.763151 
L 198.368838 -59.24876 
L 195.056037 -59.851562 
L 191.743235 -59.917 
L 188.430434 -59.763151 
L 185.117632 -59.420224 
L 181.804831 -59.334492 
L 178.492029 -58.991564 
L 175.179228 -59.934615 
L 171.866426 -59.677419 
L 168.553625 -59.331812 
L 165.240823 -59.334492 
L 161.928022 -59.331812 
L 158.61522 -59.331812 
L 155.302419 -59.591687 
L 151.989617 -59.679563 
L 148.676816 -59.077296 
L 145.364014 -59.677419 
L 142.051213 -59.591687 
L 138.738411 -59.418437 
L 135.42561 -59.677419 
L 132.112808 -58.477172 
L 128.800007 -59.505956 
L 125.487205 -60.363275 
L 122.174404 -59.848883 
L 118.861603 -59.505956 
L 115.548801 -59.505956 
L 112.236 -59.334492 
L 108.923198 -59.505956 
L 105.610397 -59.848883 
L 102.297595 -59.077296 
L 98.984794 -59.24876 
L 95.671992 -58.905832 
L 92.359191 -59.071938 
L 89.046389 -59.851562 
L 85.733588 -59.245188 
L 82.420786 -59.163028 
L 79.107985 -59.591687 
L 75.795183 -59.334492 
L 72.482382 -59.418437 
L 69.16958 -59.077296 
L 65.856779 -59.071938 
L 62.543977 -59.077296 
z
" id="m7ff6f57e15" style="stroke:#9467bd;stroke-opacity:0.2;"/>
    </defs>
    <g clip-path="url(#p4c25a25937)">
     <use style="fill:#9467bd;fill-opacity:0.2;stroke:#9467bd;stroke-opacity:0.2;" x="0" xlink:href="#m7ff6f57e15" y="331.389812"/>
    </g>
   </g>
   <g id="line2d_14">
    <path clip-path="url(#p4c25a25937)" d="M 62.543977 225.42934 
L 65.856779 220.356271 
L 69.16958 221.213888 
L 72.482382 221.476144 
L 75.795183 222.187601 
L 79.107985 223.051767 
L 82.420786 224.31155 
L 85.733588 225.631465 
L 89.046389 226.525697 
L 92.359191 227.120165 
L 95.671992 228.070659 
L 98.984794 227.925093 
L 102.297595 228.957746 
L 105.610397 229.59121 
L 108.923198 230.163352 
L 112.236 230.793839 
L 115.548801 231.111464 
L 118.861603 231.767254 
L 122.174404 231.76904 
L 125.487205 231.225476 
L 128.800007 232.256343 
L 132.112808 232.632909 
L 135.42561 232.746027 
L 138.738411 232.858848 
L 142.051213 232.774604 
L 145.364014 233.923651 
L 148.676816 234.063561 
L 151.989617 234.409465 
L 155.302419 234.40887 
L 158.61522 235.214393 
L 161.928022 234.78484 
L 165.240823 236.246451 
L 168.553625 235.387048 
L 171.866426 235.58441 
L 175.179228 236.330397 
L 178.492029 236.526568 
L 181.804831 236.787634 
L 185.117632 236.303308 
L 188.430434 237.216889 
L 191.743235 237.620544 
L 195.056037 238.563893 
L 198.368838 237.815227 
L 201.68164 237.188312 
L 204.994441 237.844102 
L 208.307243 237.505341 
L 211.620044 238.075102 
L 214.932846 238.559726 
L 218.245647 238.246566 
L 221.558449 237.590478 
L 224.87125 238.277524 
L 228.184051 239.679302 
L 231.496853 239.937986 
L 234.809654 239.430143 
L 238.122456 239.739433 
L 241.435257 240.05557 
L 244.748059 240.916759 
L 248.06086 240.82686 
L 251.373662 240.942657 
L 254.686463 241.231407 
L 257.999265 241.002491 
L 261.312066 241.719008 
L 264.624868 241.66096 
L 267.937669 242.20512 
L 271.250471 242.691232 
L 274.563272 242.865673 
L 277.876074 242.375988 
L 281.188875 242.716535 
L 284.501677 243.322612 
L 287.814478 243.667028 
L 291.12728 243.177939 
L 294.440081 244.122479 
L 297.752883 243.925117 
L 301.065684 244.382057 
L 304.378486 245.042907 
L 307.691287 245.041716 
L 311.004089 244.7872 
L 314.31689 245.1593 
L 317.629692 245.386728 
L 320.942493 245.333443 
L 324.255295 245.934162 
L 327.568096 246.077644 
L 330.880897 246.307751 
L 334.193699 245.005102 
L 337.5065 246.981849 
L 340.819302 246.550956 
L 344.132103 246.340198 
L 347.444905 247.328795 
L 350.757706 247.673062 
L 354.070508 247.416313 
L 357.383309 247.372108 
L 360.696111 246.897903 
L 364.008912 248.970205 
L 367.321714 249.355999 
L 370.634515 249.142562 
L 373.947317 248.839821 
L 377.260118 249.568543 
L 380.57292 249.270713 
L 383.885721 248.704079 
L 387.198523 248.484837 
" style="fill:none;stroke:#1f77b4;stroke-linecap:round;stroke-width:1.5;"/>
   </g>
   <g id="line2d_15">
    <path clip-path="url(#p4c25a25937)" d="M 62.543977 110.241012 
L 65.856779 146.775031 
L 69.16958 162.484519 
L 72.482382 168.040427 
L 75.795183 175.053182 
L 79.107985 179.026024 
L 82.420786 183.499566 
L 85.733588 186.171247 
L 89.046389 187.400965 
L 92.359191 189.779134 
L 95.671992 191.705424 
L 98.984794 192.363298 
L 102.297595 193.545982 
L 105.610397 195.980115 
L 108.923198 197.528648 
L 112.236 198.675313 
L 115.548801 201.00109 
L 118.861603 200.663223 
L 122.174404 202.004571 
L 125.487205 202.863974 
L 128.800007 203.586742 
L 132.112808 205.099256 
L 135.42561 206.790379 
L 138.738411 207.540534 
L 142.051213 207.93883 
L 145.364014 208.358262 
L 148.676816 209.542137 
L 151.989617 209.913642 
L 155.302419 210.779594 
L 158.61522 210.609321 
L 161.928022 211.662514 
L 165.240823 211.232961 
L 168.553625 212.176608 
L 171.866426 212.869608 
L 175.179228 214.133559 
L 178.492029 213.75997 
L 181.804831 214.474701 
L 185.117632 214.873593 
L 188.430434 214.643784 
L 191.743235 215.6812 
L 195.056037 216.195591 
L 198.368838 216.940983 
L 201.68164 217.196988 
L 204.994441 217.828964 
L 208.307243 218.508271 
L 211.620044 218.511247 
L 214.932846 219.426019 
L 218.245647 221.122798 
L 221.558449 220.061567 
L 224.87125 221.214781 
L 228.184051 221.261814 
L 231.496853 221.92326 
L 234.809654 222.120027 
L 238.122456 223.326823 
L 241.435257 222.58679 
L 244.748059 224.735149 
L 248.06086 224.650608 
L 251.373662 224.334769 
L 254.686463 224.793197 
L 257.999265 225.996124 
L 261.312066 226.742409 
L 264.624868 227.253526 
L 267.937669 227.660455 
L 271.250471 227.25561 
L 274.563272 229.005673 
L 277.876074 228.171572 
L 281.188875 228.977393 
L 284.501677 228.207294 
L 287.814478 228.749072 
L 291.12728 229.125638 
L 294.440081 228.777649 
L 297.752883 228.835697 
L 301.065684 230.151445 
L 304.378486 230.475321 
L 307.691287 231.360325 
L 311.004089 231.701466 
L 314.31689 232.621597 
L 317.629692 232.275692 
L 320.942493 233.142835 
L 324.255295 233.425334 
L 327.568096 234.287714 
L 330.880897 234.803296 
L 334.193699 233.835389 
L 337.5065 233.92246 
L 340.819302 234.747184 
L 344.132103 235.476798 
L 347.444905 236.169352 
L 350.757706 235.951003 
L 354.070508 235.0017 
L 357.383309 235.559851 
L 360.696111 236.116216 
L 364.008912 236.773941 
L 367.321714 237.462922 
L 370.634515 239.011902 
L 373.947317 239.266865 
L 377.260118 240.132222 
L 380.57292 240.34298 
L 383.885721 240.512211 
L 387.198523 238.702017 
" style="fill:none;stroke:#ff7f0e;stroke-linecap:round;stroke-width:1.5;"/>
   </g>
   <g id="line2d_16">
    <path clip-path="url(#p4c25a25937)" d="M 62.543977 101.59161 
L 65.856779 139.321113 
L 69.16958 151.509638 
L 72.482382 152.644991 
L 75.795183 160.130165 
L 79.107985 162.402062 
L 82.420786 167.529309 
L 85.733588 170.150088 
L 89.046389 173.929438 
L 92.359191 176.682684 
L 95.671992 180.492101 
L 98.984794 178.289265 
L 102.297595 182.420177 
L 105.610397 184.05474 
L 108.923198 186.384684 
L 112.236 188.273466 
L 115.548801 189.937202 
L 118.861603 189.02243 
L 122.174404 189.507352 
L 125.487205 191.288374 
L 128.800007 192.491896 
L 132.112808 193.751381 
L 135.42561 195.296938 
L 138.738411 194.431879 
L 142.051213 197.525969 
L 145.364014 198.192178 
L 148.676816 199.771372 
L 151.989617 199.540372 
L 155.302419 201.032644 
L 158.61522 200.315235 
L 161.928022 201.75184 
L 165.240823 202.09328 
L 168.553625 200.999602 
L 171.866426 202.665124 
L 175.179228 203.63586 
L 178.492029 204.177638 
L 181.804831 205.732125 
L 185.117632 205.788089 
L 188.430434 205.584773 
L 191.743235 206.872836 
L 195.056037 208.103149 
L 198.368838 207.583399 
L 201.68164 209.54303 
L 204.994441 209.593933 
L 208.307243 209.365314 
L 211.620044 210.59533 
L 214.932846 211.056735 
L 218.245647 212.550495 
L 221.558449 211.231175 
L 224.87125 213.645661 
L 228.184051 214.528581 
L 231.496853 214.00645 
L 234.809654 214.72505 
L 238.122456 214.588117 
L 241.435257 214.696175 
L 244.748059 216.222383 
L 248.06086 216.418852 
L 251.373662 217.42263 
L 254.686463 219.137567 
L 257.999265 219.145902 
L 261.312066 218.964019 
L 264.624868 220.318763 
L 267.937669 220.923054 
L 271.250471 221.004321 
L 274.563272 222.18254 
L 277.876074 222.437354 
L 281.188875 222.497188 
L 284.501677 223.21311 
L 287.814478 224.904232 
L 291.12728 225.275142 
L 294.440081 224.307085 
L 297.752883 225.075101 
L 301.065684 225.109631 
L 304.378486 226.082749 
L 307.691287 226.631076 
L 311.004089 226.285171 
L 314.31689 228.12186 
L 317.629692 227.631878 
L 320.942493 227.861389 
L 324.255295 229.239054 
L 327.568096 228.951495 
L 330.880897 230.071666 
L 334.193699 228.326664 
L 337.5065 230.731624 
L 340.819302 229.707305 
L 344.132103 231.469722 
L 347.444905 231.814436 
L 350.757706 231.551882 
L 354.070508 230.86558 
L 357.383309 230.779848 
L 360.696111 232.37214 
L 364.008912 234.139916 
L 367.321714 234.618586 
L 370.634515 234.100175 
L 373.947317 235.781772 
L 377.260118 236.982019 
L 380.57292 237.504448 
L 383.885721 236.506028 
L 387.198523 235.731315 
" style="fill:none;stroke:#2ca02c;stroke-linecap:round;stroke-width:1.5;"/>
   </g>
   <g id="line2d_17">
    <path clip-path="url(#p4c25a25937)" d="M 62.543977 93.236911 
L 65.856779 102.802573 
L 69.16958 104.510664 
L 72.482382 110.39521 
L 75.795183 112.537616 
L 79.107985 117.635095 
L 82.420786 120.307075 
L 85.733588 122.007723 
L 89.046389 125.449504 
L 92.359191 126.161555 
L 95.671992 129.92751 
L 98.984794 129.096387 
L 102.297595 131.198903 
L 105.610397 136.174036 
L 108.923198 132.59175 
L 112.236 134.203987 
L 115.548801 138.115508 
L 118.861603 137.173945 
L 122.174404 137.698457 
L 125.487205 138.623648 
L 128.800007 142.007381 
L 132.112808 143.368972 
L 135.42561 141.098265 
L 138.738411 140.200759 
L 142.051213 140.966393 
L 145.364014 141.590034 
L 148.676816 143.429996 
L 151.989617 137.482639 
L 155.302419 145.03747 
L 158.61522 146.689894 
L 161.928022 148.723647 
L 165.240823 145.029433 
L 168.553625 144.882677 
L 171.866426 149.588409 
L 175.179228 144.120019 
L 178.492029 146.258555 
L 181.804831 146.518728 
L 185.117632 146.337143 
L 188.430434 146.256472 
L 191.743235 148.314039 
L 195.056037 147.863946 
L 198.368838 148.452758 
L 201.68164 147.799349 
L 204.994441 145.790602 
L 208.307243 143.579432 
L 211.620044 148.682269 
L 214.932846 148.799853 
L 218.245647 148.116677 
L 221.558449 147.738622 
L 224.87125 148.445018 
L 228.184051 149.625916 
L 231.496853 146.869396 
L 234.809654 147.945213 
L 238.122456 149.643777 
L 241.435257 147.703794 
L 244.748059 148.450674 
L 248.06086 149.07878 
L 251.373662 151.119677 
L 254.686463 150.616597 
L 257.999265 150.947022 
L 261.312066 151.412594 
L 264.624868 154.517401 
L 267.937669 153.243031 
L 271.250471 152.637847 
L 274.563272 155.793259 
L 277.876074 152.689048 
L 281.188875 154.155719 
L 284.501677 152.541696 
L 287.814478 154.710595 
L 291.12728 158.233941 
L 294.440081 155.962937 
L 297.752883 153.638053 
L 301.065684 156.141545 
L 304.378486 156.046287 
L 307.691287 157.958289 
L 311.004089 158.108915 
L 314.31689 159.988171 
L 317.629692 156.79674 
L 320.942493 159.207356 
L 324.255295 161.950183 
L 327.568096 159.676798 
L 330.880897 160.482023 
L 334.193699 156.237696 
L 337.5065 161.538789 
L 340.819302 163.435608 
L 344.132103 163.64324 
L 347.444905 162.017905 
L 350.757706 163.16457 
L 354.070508 162.203658 
L 357.383309 165.638294 
L 360.696111 164.505472 
L 364.008912 165.243124 
L 367.321714 163.427124 
L 370.634515 166.066061 
L 373.947317 167.013578 
L 377.260118 164.509937 
L 380.57292 165.724026 
L 383.885721 164.139325 
L 387.198523 163.44186 
" style="fill:none;stroke:#d62728;stroke-linecap:round;stroke-width:1.5;"/>
   </g>
   <g id="line2d_18">
    <path clip-path="url(#p4c25a25937)" d="M 62.543977 272.689082 
L 65.856779 272.714385 
L 69.16958 272.717362 
L 72.482382 272.170226 
L 75.795183 272.60216 
L 79.107985 272.512558 
L 82.420786 272.631035 
L 85.733588 272.542326 
L 89.046389 272.197314 
L 92.359191 272.600076 
L 95.671992 272.887933 
L 98.984794 272.659017 
L 102.297595 272.745344 
L 105.610397 271.913625 
L 108.923198 272.632523 
L 112.236 272.774517 
L 115.548801 272.486362 
L 118.861603 272.200589 
L 122.174404 271.941905 
L 125.487205 271.828191 
L 128.800007 272.545303 
L 132.112808 273.20407 
L 135.42561 272.084791 
L 138.738411 272.65604 
L 142.051213 272.315494 
L 145.364014 272.460166 
L 148.676816 272.572094 
L 151.989617 271.913923 
L 155.302419 272.488744 
L 158.61522 272.570606 
L 161.928022 272.31341 
L 165.240823 272.227678 
L 168.553625 272.256255 
L 171.866426 272.517619 
L 175.179228 272.602755 
L 178.492029 272.486957 
L 181.804831 272.171714 
L 185.117632 272.343476 
L 188.430434 272.085387 
L 191.743235 272.143732 
L 195.056037 272.311624 
L 198.368838 272.430398 
L 201.68164 272.20178 
L 204.994441 272.458082 
L 208.307243 272.487255 
L 211.620044 272.344964 
L 214.932846 272.115452 
L 218.245647 272.202375 
L 221.558449 272.402119 
L 224.87125 272.514344 
L 228.184051 272.027339 
L 231.496853 272.516428 
L 234.809654 272.890017 
L 238.122456 272.197314 
L 241.435257 272.172607 
L 244.748059 272.401523 
L 248.06086 272.428017 
L 251.373662 272.168737 
L 254.686463 272.660207 
L 257.999265 272.630737 
L 261.312066 272.659017 
L 264.624868 272.260423 
L 267.937669 272.486064 
L 271.250471 271.913625 
L 274.563272 272.114857 
L 277.876074 272.716171 
L 281.188875 272.633119 
L 284.501677 272.515535 
L 287.814478 272.54441 
L 291.12728 272.975153 
L 294.440081 272.229166 
L 297.752883 272.571499 
L 301.065684 272.689082 
L 304.378486 272.687594 
L 307.691287 272.142244 
L 311.004089 272.515535 
L 314.31689 272.773624 
L 317.629692 272.343178 
L 320.942493 271.913923 
L 324.255295 272.368778 
L 327.568096 271.915709 
L 330.880897 272.515535 
L 334.193699 272.83316 
L 337.5065 272.789401 
L 340.819302 272.317875 
L 344.132103 272.661696 
L 347.444905 272.09908 
L 350.757706 272.705901 
L 354.070508 272.834053 
L 357.383309 272.834053 
L 360.696111 272.487553 
L 364.008912 272.619276 
L 367.321714 272.487999 
L 370.634515 273.005963 
L 373.947317 272.660803 
L 377.260118 272.444687 
L 380.57292 272.701436 
L 383.885721 271.927616 
L 387.198523 272.400481 
" style="fill:none;stroke:#9467bd;stroke-linecap:round;stroke-width:1.5;"/>
   </g>
   <g id="line2d_19"/>
   <g id="line2d_20"/>
   <g id="line2d_21"/>
   <g id="line2d_22"/>
   <g id="line2d_23"/>
   <g id="line2d_24"/>
   <g id="patch_3">
    <path d="M 46.31125 288.430125 
L 46.31125 22.318125 
" style="fill:none;stroke:#ffffff;stroke-linecap:square;stroke-linejoin:miter;stroke-width:1.25;"/>
   </g>
   <g id="patch_4">
    <path d="M 403.43125 288.430125 
L 403.43125 22.318125 
" style="fill:none;stroke:#ffffff;stroke-linecap:square;stroke-linejoin:miter;stroke-width:1.25;"/>
   </g>
   <g id="patch_5">
    <path d="M 46.31125 288.430125 
L 403.43125 288.430125 
" style="fill:none;stroke:#ffffff;stroke-linecap:square;stroke-linejoin:miter;stroke-width:1.25;"/>
   </g>
   <g id="patch_6">
    <path d="M 46.31125 22.318125 
L 403.43125 22.318125 
" style="fill:none;stroke:#ffffff;stroke-linecap:square;stroke-linejoin:miter;stroke-width:1.25;"/>
   </g>
   <g id="text_16">
    <!-- Max Rank=32 -->
    <defs>
     <path d="M 54.890625 54.6875 
L 35.109375 28.078125 
L 55.90625 0 
L 45.3125 0 
L 29.390625 21.484375 
L 13.484375 0 
L 2.875 0 
L 24.125 28.609375 
L 4.6875 54.6875 
L 15.28125 54.6875 
L 29.78125 35.203125 
L 44.28125 54.6875 
z
" id="DejaVuSans-120"/>
     <path d="M 10.59375 45.40625 
L 73.1875 45.40625 
L 73.1875 37.203125 
L 10.59375 37.203125 
z
M 10.59375 25.484375 
L 73.1875 25.484375 
L 73.1875 17.1875 
L 10.59375 17.1875 
z
" id="DejaVuSans-61"/>
    </defs>
    <g style="fill:#262626;" transform="translate(182.775625 16.318125)scale(0.12 -0.12)">
     <use xlink:href="#DejaVuSans-77"/>
     <use x="86.279297" xlink:href="#DejaVuSans-97"/>
     <use x="147.558594" xlink:href="#DejaVuSans-120"/>
     <use x="206.738281" xlink:href="#DejaVuSans-32"/>
     <use x="238.525391" xlink:href="#DejaVuSans-82"/>
     <use x="307.976562" xlink:href="#DejaVuSans-97"/>
     <use x="369.255859" xlink:href="#DejaVuSans-110"/>
     <use x="432.634766" xlink:href="#DejaVuSans-107"/>
     <use x="490.544922" xlink:href="#DejaVuSans-61"/>
     <use x="574.333984" xlink:href="#DejaVuSans-51"/>
     <use x="637.957031" xlink:href="#DejaVuSans-50"/>
    </g>
   </g>
   <g id="legend_1">
    <g id="patch_7">
     <path d="M 219.994219 111.847812 
L 395.73125 111.847812 
Q 397.93125 111.847812 397.93125 109.647812 
L 397.93125 30.018125 
Q 397.93125 27.818125 395.73125 27.818125 
L 219.994219 27.818125 
Q 217.794219 27.818125 217.794219 30.018125 
L 217.794219 109.647812 
Q 217.794219 111.847812 219.994219 111.847812 
z
" style="fill:#eaeaf2;opacity:0.8;stroke:#cccccc;stroke-linejoin:miter;"/>
    </g>
    <g id="line2d_25">
     <path d="M 222.194219 36.726406 
L 244.194219 36.726406 
" style="fill:none;stroke:#1f77b4;stroke-linecap:round;stroke-width:1.5;"/>
    </g>
    <g id="line2d_26"/>
    <g id="text_17">
     <!-- Output Layer -->
     <defs>
      <path d="M 39.40625 66.21875 
Q 28.65625 66.21875 22.328125 58.203125 
Q 16.015625 50.203125 16.015625 36.375 
Q 16.015625 22.609375 22.328125 14.59375 
Q 28.65625 6.59375 39.40625 6.59375 
Q 50.140625 6.59375 56.421875 14.59375 
Q 62.703125 22.609375 62.703125 36.375 
Q 62.703125 50.203125 56.421875 58.203125 
Q 50.140625 66.21875 39.40625 66.21875 
z
M 39.40625 74.21875 
Q 54.734375 74.21875 63.90625 63.9375 
Q 73.09375 53.65625 73.09375 36.375 
Q 73.09375 19.140625 63.90625 8.859375 
Q 54.734375 -1.421875 39.40625 -1.421875 
Q 24.03125 -1.421875 14.8125 8.828125 
Q 5.609375 19.09375 5.609375 36.375 
Q 5.609375 53.65625 14.8125 63.9375 
Q 24.03125 74.21875 39.40625 74.21875 
z
" id="DejaVuSans-79"/>
      <path d="M 8.5 21.578125 
L 8.5 54.6875 
L 17.484375 54.6875 
L 17.484375 21.921875 
Q 17.484375 14.15625 20.5 10.265625 
Q 23.53125 6.390625 29.59375 6.390625 
Q 36.859375 6.390625 41.078125 11.03125 
Q 45.3125 15.671875 45.3125 23.6875 
L 45.3125 54.6875 
L 54.296875 54.6875 
L 54.296875 0 
L 45.3125 0 
L 45.3125 8.40625 
Q 42.046875 3.421875 37.71875 1 
Q 33.40625 -1.421875 27.6875 -1.421875 
Q 18.265625 -1.421875 13.375 4.4375 
Q 8.5 10.296875 8.5 21.578125 
z
M 31.109375 56 
z
" id="DejaVuSans-117"/>
      <path d="M 9.8125 72.90625 
L 19.671875 72.90625 
L 19.671875 8.296875 
L 55.171875 8.296875 
L 55.171875 0 
L 9.8125 0 
z
" id="DejaVuSans-76"/>
      <path d="M 32.171875 -5.078125 
Q 28.375 -14.84375 24.75 -17.8125 
Q 21.140625 -20.796875 15.09375 -20.796875 
L 7.90625 -20.796875 
L 7.90625 -13.28125 
L 13.1875 -13.28125 
Q 16.890625 -13.28125 18.9375 -11.515625 
Q 21 -9.765625 23.484375 -3.21875 
L 25.09375 0.875 
L 2.984375 54.6875 
L 12.5 54.6875 
L 29.59375 11.921875 
L 46.6875 54.6875 
L 56.203125 54.6875 
z
" id="DejaVuSans-121"/>
     </defs>
     <g style="fill:#262626;" transform="translate(252.994219 40.576406)scale(0.11 -0.11)">
      <use xlink:href="#DejaVuSans-79"/>
      <use x="78.710938" xlink:href="#DejaVuSans-117"/>
      <use x="142.089844" xlink:href="#DejaVuSans-116"/>
      <use x="181.298828" xlink:href="#DejaVuSans-112"/>
      <use x="244.775391" xlink:href="#DejaVuSans-117"/>
      <use x="308.154297" xlink:href="#DejaVuSans-116"/>
      <use x="347.363281" xlink:href="#DejaVuSans-32"/>
      <use x="379.150391" xlink:href="#DejaVuSans-76"/>
      <use x="434.863281" xlink:href="#DejaVuSans-97"/>
      <use x="496.142578" xlink:href="#DejaVuSans-121"/>
      <use x="555.322266" xlink:href="#DejaVuSans-101"/>
      <use x="616.845703" xlink:href="#DejaVuSans-114"/>
     </g>
    </g>
    <g id="line2d_27">
     <path d="M 222.194219 52.872344 
L 244.194219 52.872344 
" style="fill:none;stroke:#ff7f0e;stroke-linecap:round;stroke-width:1.5;"/>
    </g>
    <g id="line2d_28"/>
    <g id="text_18">
     <!-- 2nd FC - 512x256 -->
     <defs>
      <path d="M 45.40625 46.390625 
L 45.40625 75.984375 
L 54.390625 75.984375 
L 54.390625 0 
L 45.40625 0 
L 45.40625 8.203125 
Q 42.578125 3.328125 38.25 0.953125 
Q 33.9375 -1.421875 27.875 -1.421875 
Q 17.96875 -1.421875 11.734375 6.484375 
Q 5.515625 14.40625 5.515625 27.296875 
Q 5.515625 40.1875 11.734375 48.09375 
Q 17.96875 56 27.875 56 
Q 33.9375 56 38.25 53.625 
Q 42.578125 51.265625 45.40625 46.390625 
z
M 14.796875 27.296875 
Q 14.796875 17.390625 18.875 11.75 
Q 22.953125 6.109375 30.078125 6.109375 
Q 37.203125 6.109375 41.296875 11.75 
Q 45.40625 17.390625 45.40625 27.296875 
Q 45.40625 37.203125 41.296875 42.84375 
Q 37.203125 48.484375 30.078125 48.484375 
Q 22.953125 48.484375 18.875 42.84375 
Q 14.796875 37.203125 14.796875 27.296875 
z
" id="DejaVuSans-100"/>
      <path d="M 9.8125 72.90625 
L 51.703125 72.90625 
L 51.703125 64.59375 
L 19.671875 64.59375 
L 19.671875 43.109375 
L 48.578125 43.109375 
L 48.578125 34.8125 
L 19.671875 34.8125 
L 19.671875 0 
L 9.8125 0 
z
" id="DejaVuSans-70"/>
      <path d="M 64.40625 67.28125 
L 64.40625 56.890625 
Q 59.421875 61.53125 53.78125 63.8125 
Q 48.140625 66.109375 41.796875 66.109375 
Q 29.296875 66.109375 22.65625 58.46875 
Q 16.015625 50.828125 16.015625 36.375 
Q 16.015625 21.96875 22.65625 14.328125 
Q 29.296875 6.6875 41.796875 6.6875 
Q 48.140625 6.6875 53.78125 8.984375 
Q 59.421875 11.28125 64.40625 15.921875 
L 64.40625 5.609375 
Q 59.234375 2.09375 53.4375 0.328125 
Q 47.65625 -1.421875 41.21875 -1.421875 
Q 24.65625 -1.421875 15.125 8.703125 
Q 5.609375 18.84375 5.609375 36.375 
Q 5.609375 53.953125 15.125 64.078125 
Q 24.65625 74.21875 41.21875 74.21875 
Q 47.75 74.21875 53.53125 72.484375 
Q 59.328125 70.75 64.40625 67.28125 
z
" id="DejaVuSans-67"/>
     </defs>
     <g style="fill:#262626;" transform="translate(252.994219 56.722344)scale(0.11 -0.11)">
      <use xlink:href="#DejaVuSans-50"/>
      <use x="63.623047" xlink:href="#DejaVuSans-110"/>
      <use x="127.001953" xlink:href="#DejaVuSans-100"/>
      <use x="190.478516" xlink:href="#DejaVuSans-32"/>
      <use x="222.265625" xlink:href="#DejaVuSans-70"/>
      <use x="279.785156" xlink:href="#DejaVuSans-67"/>
      <use x="349.609375" xlink:href="#DejaVuSans-32"/>
      <use x="381.396484" xlink:href="#DejaVuSans-45"/>
      <use x="417.480469" xlink:href="#DejaVuSans-32"/>
      <use x="449.267578" xlink:href="#DejaVuSans-53"/>
      <use x="512.890625" xlink:href="#DejaVuSans-49"/>
      <use x="576.513672" xlink:href="#DejaVuSans-50"/>
      <use x="640.136719" xlink:href="#DejaVuSans-120"/>
      <use x="699.316406" xlink:href="#DejaVuSans-50"/>
      <use x="762.939453" xlink:href="#DejaVuSans-53"/>
      <use x="826.5625" xlink:href="#DejaVuSans-54"/>
     </g>
    </g>
    <g id="line2d_29">
     <path d="M 222.194219 69.018281 
L 244.194219 69.018281 
" style="fill:none;stroke:#2ca02c;stroke-linecap:round;stroke-width:1.5;"/>
    </g>
    <g id="line2d_30"/>
    <g id="text_19">
     <!-- 1st FC - SEQ*64 x 512 -->
     <defs>
      <path d="M 53.515625 70.515625 
L 53.515625 60.890625 
Q 47.90625 63.578125 42.921875 64.890625 
Q 37.9375 66.21875 33.296875 66.21875 
Q 25.25 66.21875 20.875 63.09375 
Q 16.5 59.96875 16.5 54.203125 
Q 16.5 49.359375 19.40625 46.890625 
Q 22.3125 44.4375 30.421875 42.921875 
L 36.375 41.703125 
Q 47.40625 39.59375 52.65625 34.296875 
Q 57.90625 29 57.90625 20.125 
Q 57.90625 9.515625 50.796875 4.046875 
Q 43.703125 -1.421875 29.984375 -1.421875 
Q 24.8125 -1.421875 18.96875 -0.25 
Q 13.140625 0.921875 6.890625 3.21875 
L 6.890625 13.375 
Q 12.890625 10.015625 18.65625 8.296875 
Q 24.421875 6.59375 29.984375 6.59375 
Q 38.421875 6.59375 43.015625 9.90625 
Q 47.609375 13.234375 47.609375 19.390625 
Q 47.609375 24.75 44.3125 27.78125 
Q 41.015625 30.8125 33.5 32.328125 
L 27.484375 33.5 
Q 16.453125 35.6875 11.515625 40.375 
Q 6.59375 45.0625 6.59375 53.421875 
Q 6.59375 63.09375 13.40625 68.65625 
Q 20.21875 74.21875 32.171875 74.21875 
Q 37.3125 74.21875 42.625 73.28125 
Q 47.953125 72.359375 53.515625 70.515625 
z
" id="DejaVuSans-83"/>
      <path d="M 39.40625 66.21875 
Q 28.65625 66.21875 22.328125 58.203125 
Q 16.015625 50.203125 16.015625 36.375 
Q 16.015625 22.609375 22.328125 14.59375 
Q 28.65625 6.59375 39.40625 6.59375 
Q 50.140625 6.59375 56.421875 14.59375 
Q 62.703125 22.609375 62.703125 36.375 
Q 62.703125 50.203125 56.421875 58.203125 
Q 50.140625 66.21875 39.40625 66.21875 
z
M 53.21875 1.3125 
L 66.21875 -12.890625 
L 54.296875 -12.890625 
L 43.5 -1.21875 
Q 41.890625 -1.3125 41.03125 -1.359375 
Q 40.1875 -1.421875 39.40625 -1.421875 
Q 24.03125 -1.421875 14.8125 8.859375 
Q 5.609375 19.140625 5.609375 36.375 
Q 5.609375 53.65625 14.8125 63.9375 
Q 24.03125 74.21875 39.40625 74.21875 
Q 54.734375 74.21875 63.90625 63.9375 
Q 73.09375 53.65625 73.09375 36.375 
Q 73.09375 23.6875 67.984375 14.640625 
Q 62.890625 5.609375 53.21875 1.3125 
z
" id="DejaVuSans-81"/>
      <path d="M 47.015625 60.890625 
L 29.5 51.421875 
L 47.015625 41.890625 
L 44.1875 37.109375 
L 27.78125 47.015625 
L 27.78125 28.609375 
L 22.21875 28.609375 
L 22.21875 47.015625 
L 5.8125 37.109375 
L 2.984375 41.890625 
L 20.515625 51.421875 
L 2.984375 60.890625 
L 5.8125 65.71875 
L 22.21875 55.8125 
L 22.21875 74.21875 
L 27.78125 74.21875 
L 27.78125 55.8125 
L 44.1875 65.71875 
z
" id="DejaVuSans-42"/>
     </defs>
     <g style="fill:#262626;" transform="translate(252.994219 72.868281)scale(0.11 -0.11)">
      <use xlink:href="#DejaVuSans-49"/>
      <use x="63.623047" xlink:href="#DejaVuSans-115"/>
      <use x="115.722656" xlink:href="#DejaVuSans-116"/>
      <use x="154.931641" xlink:href="#DejaVuSans-32"/>
      <use x="186.71875" xlink:href="#DejaVuSans-70"/>
      <use x="244.238281" xlink:href="#DejaVuSans-67"/>
      <use x="314.0625" xlink:href="#DejaVuSans-32"/>
      <use x="345.849609" xlink:href="#DejaVuSans-45"/>
      <use x="381.933594" xlink:href="#DejaVuSans-32"/>
      <use x="413.720703" xlink:href="#DejaVuSans-83"/>
      <use x="477.197266" xlink:href="#DejaVuSans-69"/>
      <use x="540.380859" xlink:href="#DejaVuSans-81"/>
      <use x="619.091797" xlink:href="#DejaVuSans-42"/>
      <use x="669.091797" xlink:href="#DejaVuSans-54"/>
      <use x="732.714844" xlink:href="#DejaVuSans-52"/>
      <use x="796.337891" xlink:href="#DejaVuSans-32"/>
      <use x="828.125" xlink:href="#DejaVuSans-120"/>
      <use x="887.304688" xlink:href="#DejaVuSans-32"/>
      <use x="919.091797" xlink:href="#DejaVuSans-53"/>
      <use x="982.714844" xlink:href="#DejaVuSans-49"/>
      <use x="1046.337891" xlink:href="#DejaVuSans-50"/>
     </g>
    </g>
    <g id="line2d_31">
     <path d="M 222.194219 85.164219 
L 244.194219 85.164219 
" style="fill:none;stroke:#d62728;stroke-linecap:round;stroke-width:1.5;"/>
    </g>
    <g id="line2d_32"/>
    <g id="text_20">
     <!-- Reccurent Layer (dim 64) -->
     <defs>
      <path d="M 31 75.875 
Q 24.46875 64.65625 21.28125 53.65625 
Q 18.109375 42.671875 18.109375 31.390625 
Q 18.109375 20.125 21.3125 9.0625 
Q 24.515625 -2 31 -13.1875 
L 23.1875 -13.1875 
Q 15.875 -1.703125 12.234375 9.375 
Q 8.59375 20.453125 8.59375 31.390625 
Q 8.59375 42.28125 12.203125 53.3125 
Q 15.828125 64.359375 23.1875 75.875 
z
" id="DejaVuSans-40"/>
      <path d="M 52 44.1875 
Q 55.375 50.25 60.0625 53.125 
Q 64.75 56 71.09375 56 
Q 79.640625 56 84.28125 50.015625 
Q 88.921875 44.046875 88.921875 33.015625 
L 88.921875 0 
L 79.890625 0 
L 79.890625 32.71875 
Q 79.890625 40.578125 77.09375 44.375 
Q 74.3125 48.1875 68.609375 48.1875 
Q 61.625 48.1875 57.5625 43.546875 
Q 53.515625 38.921875 53.515625 30.90625 
L 53.515625 0 
L 44.484375 0 
L 44.484375 32.71875 
Q 44.484375 40.625 41.703125 44.40625 
Q 38.921875 48.1875 33.109375 48.1875 
Q 26.21875 48.1875 22.15625 43.53125 
Q 18.109375 38.875 18.109375 30.90625 
L 18.109375 0 
L 9.078125 0 
L 9.078125 54.6875 
L 18.109375 54.6875 
L 18.109375 46.1875 
Q 21.1875 51.21875 25.484375 53.609375 
Q 29.78125 56 35.6875 56 
Q 41.65625 56 45.828125 52.96875 
Q 50 49.953125 52 44.1875 
z
" id="DejaVuSans-109"/>
      <path d="M 8.015625 75.875 
L 15.828125 75.875 
Q 23.140625 64.359375 26.78125 53.3125 
Q 30.421875 42.28125 30.421875 31.390625 
Q 30.421875 20.453125 26.78125 9.375 
Q 23.140625 -1.703125 15.828125 -13.1875 
L 8.015625 -13.1875 
Q 14.5 -2 17.703125 9.0625 
Q 20.90625 20.125 20.90625 31.390625 
Q 20.90625 42.671875 17.703125 53.65625 
Q 14.5 64.65625 8.015625 75.875 
z
" id="DejaVuSans-41"/>
     </defs>
     <g style="fill:#262626;" transform="translate(252.994219 89.014219)scale(0.11 -0.11)">
      <use xlink:href="#DejaVuSans-82"/>
      <use x="69.419922" xlink:href="#DejaVuSans-101"/>
      <use x="130.943359" xlink:href="#DejaVuSans-99"/>
      <use x="185.923828" xlink:href="#DejaVuSans-99"/>
      <use x="240.904297" xlink:href="#DejaVuSans-117"/>
      <use x="304.283203" xlink:href="#DejaVuSans-114"/>
      <use x="345.365234" xlink:href="#DejaVuSans-101"/>
      <use x="406.888672" xlink:href="#DejaVuSans-110"/>
      <use x="470.267578" xlink:href="#DejaVuSans-116"/>
      <use x="509.476562" xlink:href="#DejaVuSans-32"/>
      <use x="541.263672" xlink:href="#DejaVuSans-76"/>
      <use x="596.976562" xlink:href="#DejaVuSans-97"/>
      <use x="658.255859" xlink:href="#DejaVuSans-121"/>
      <use x="717.435547" xlink:href="#DejaVuSans-101"/>
      <use x="778.958984" xlink:href="#DejaVuSans-114"/>
      <use x="820.072266" xlink:href="#DejaVuSans-32"/>
      <use x="851.859375" xlink:href="#DejaVuSans-40"/>
      <use x="890.873047" xlink:href="#DejaVuSans-100"/>
      <use x="954.349609" xlink:href="#DejaVuSans-105"/>
      <use x="982.132812" xlink:href="#DejaVuSans-109"/>
      <use x="1079.544922" xlink:href="#DejaVuSans-32"/>
      <use x="1111.332031" xlink:href="#DejaVuSans-54"/>
      <use x="1174.955078" xlink:href="#DejaVuSans-52"/>
      <use x="1238.578125" xlink:href="#DejaVuSans-41"/>
     </g>
    </g>
    <g id="line2d_33">
     <path d="M 222.194219 101.310156 
L 244.194219 101.310156 
" style="fill:none;stroke:#9467bd;stroke-linecap:round;stroke-width:1.5;"/>
    </g>
    <g id="line2d_34"/>
    <g id="text_21">
     <!-- Input Layer -->
     <defs>
      <path d="M 9.8125 72.90625 
L 19.671875 72.90625 
L 19.671875 0 
L 9.8125 0 
z
" id="DejaVuSans-73"/>
     </defs>
     <g style="fill:#262626;" transform="translate(252.994219 105.160156)scale(0.11 -0.11)">
      <use xlink:href="#DejaVuSans-73"/>
      <use x="29.492188" xlink:href="#DejaVuSans-110"/>
      <use x="92.871094" xlink:href="#DejaVuSans-112"/>
      <use x="156.347656" xlink:href="#DejaVuSans-117"/>
      <use x="219.726562" xlink:href="#DejaVuSans-116"/>
      <use x="258.935547" xlink:href="#DejaVuSans-32"/>
      <use x="290.722656" xlink:href="#DejaVuSans-76"/>
      <use x="346.435547" xlink:href="#DejaVuSans-97"/>
      <use x="407.714844" xlink:href="#DejaVuSans-121"/>
      <use x="466.894531" xlink:href="#DejaVuSans-101"/>
      <use x="528.417969" xlink:href="#DejaVuSans-114"/>
     </g>
    </g>
   </g>
  </g>
 </g>
 <defs>
  <clipPath id="p4c25a25937">
   <rect height="266.112" width="357.12" x="46.31125" y="22.318125"/>
  </clipPath>
 </defs>
</svg>
